G75*
%MOIN*%
%OFA0B0*%
%FSLAX24Y24*%
%IPPOS*%
%LPD*%
%AMOC8*
5,1,8,0,0,1.08239X$1,22.5*
%
%ADD10OC8,0.0600*%
%ADD11R,0.1095X0.1095*%
%ADD12R,0.0709X0.0709*%
%ADD13C,0.0860*%
%ADD14C,0.1266*%
%ADD15C,0.1004*%
%ADD16C,0.0520*%
%ADD17OC8,0.0520*%
%ADD18C,0.0554*%
%ADD19C,0.0600*%
%ADD20R,0.0866X0.0236*%
%ADD21R,0.0945X0.0945*%
%ADD22C,0.0600*%
%ADD23C,0.0594*%
%ADD24C,0.0768*%
%ADD25R,0.0600X0.0600*%
%ADD26R,0.0768X0.0768*%
%ADD27OC8,0.0660*%
%ADD28OC8,0.0560*%
%ADD29OC8,0.0740*%
%ADD30OC8,0.0760*%
%ADD31C,0.0660*%
%ADD32C,0.0396*%
%ADD33C,0.0240*%
%ADD34C,0.0160*%
%ADD35C,0.0100*%
%ADD36C,0.0320*%
%ADD37C,0.0560*%
D10*
X002449Y012275D03*
X002449Y013275D03*
X002449Y014275D03*
X002449Y015275D03*
X002449Y016275D03*
X002449Y017275D03*
X002449Y018275D03*
X002449Y019275D03*
X002449Y020275D03*
X002449Y021275D03*
X002449Y022275D03*
X002449Y023275D03*
X002449Y024275D03*
X002449Y025275D03*
X002449Y026275D03*
X003449Y026275D03*
X003449Y025275D03*
X003449Y024275D03*
X003449Y023275D03*
X003449Y022275D03*
X003449Y021275D03*
X003449Y020275D03*
X003449Y019275D03*
X003449Y018275D03*
X003449Y017275D03*
X003449Y016275D03*
X003449Y015275D03*
X003449Y014275D03*
X003449Y013275D03*
X003449Y012275D03*
X004449Y012275D03*
X004449Y013275D03*
X004449Y014275D03*
X004449Y015275D03*
X004449Y016275D03*
X004449Y017275D03*
X004449Y018275D03*
X004449Y019275D03*
X004449Y020275D03*
X004449Y021275D03*
X004449Y022275D03*
X004449Y023275D03*
X004449Y024275D03*
X004449Y025275D03*
X004449Y026275D03*
X005449Y026275D03*
X005449Y025275D03*
X005449Y024275D03*
X005449Y023275D03*
X005449Y022275D03*
X005449Y021275D03*
X005449Y020275D03*
X005449Y019275D03*
X005449Y018275D03*
X005449Y017275D03*
X005449Y016275D03*
X005449Y015275D03*
X005449Y014275D03*
X005449Y013275D03*
X005449Y012275D03*
X011949Y005275D03*
X011949Y004275D03*
X011949Y003275D03*
X011949Y002275D03*
X012949Y002275D03*
X012949Y003275D03*
X012949Y004275D03*
X012949Y005275D03*
X013949Y005275D03*
X013949Y004275D03*
X013949Y003275D03*
X013949Y002275D03*
X014949Y002275D03*
X014949Y003275D03*
X014949Y004275D03*
X014949Y005275D03*
D11*
X017106Y009275D03*
X020793Y009275D03*
X020793Y016775D03*
X017106Y016775D03*
X017106Y024275D03*
X020793Y024275D03*
X010793Y024400D03*
X007106Y024400D03*
X007106Y016775D03*
X010793Y016775D03*
X010793Y009275D03*
X007106Y009275D03*
D12*
X007965Y006322D03*
X008949Y006322D03*
X009933Y006322D03*
X009933Y013822D03*
X008949Y013822D03*
X007965Y013822D03*
X007965Y021447D03*
X008949Y021447D03*
X009933Y021447D03*
X017965Y021322D03*
X018949Y021322D03*
X019933Y021322D03*
X019933Y013822D03*
X018949Y013822D03*
X017965Y013822D03*
X017965Y006322D03*
X018949Y006322D03*
X019933Y006322D03*
D13*
X002699Y003025D03*
X004668Y002041D03*
X004668Y001056D03*
X004668Y004009D03*
X004668Y004994D03*
X004668Y006556D03*
X004668Y007541D03*
X004668Y009509D03*
X004668Y010494D03*
X002699Y008525D03*
X021981Y008119D03*
X021981Y007134D03*
X021981Y005166D03*
X021981Y004181D03*
X023949Y006150D03*
D14*
X002246Y029400D03*
D15*
X004018Y029400D03*
X005199Y027550D03*
X006380Y029400D03*
D16*
X012449Y021420D02*
X012449Y020900D01*
X013449Y020900D02*
X013449Y021420D01*
X014449Y021420D02*
X014449Y020900D01*
X015449Y020900D02*
X015449Y021420D01*
X015449Y017900D02*
X015449Y017380D01*
X014449Y017380D02*
X014449Y017900D01*
X013449Y017900D02*
X013449Y017380D01*
X012449Y017380D02*
X012449Y017900D01*
D17*
X011574Y022275D03*
X011449Y023275D03*
X012074Y024650D03*
X013074Y024650D03*
X013824Y024650D03*
X014824Y024650D03*
X015699Y025400D03*
X014574Y026025D03*
X014574Y027025D03*
X015574Y026775D03*
X016574Y026775D03*
X014449Y023275D03*
X014574Y022275D03*
X015699Y022400D03*
X011574Y026025D03*
X011574Y027025D03*
X015694Y033150D03*
X016694Y033150D03*
X017449Y033150D03*
X018449Y033150D03*
X006449Y015025D03*
X006449Y012025D03*
X006949Y004150D03*
X006949Y003150D03*
X006949Y002150D03*
X006949Y001150D03*
X009949Y001150D03*
X009949Y002150D03*
X009949Y003150D03*
X009949Y004150D03*
X013324Y006275D03*
X016324Y006275D03*
X016449Y005025D03*
X017824Y004025D03*
X016449Y002025D03*
X016449Y001025D03*
X017824Y001025D03*
X013449Y001025D03*
D18*
X012449Y016650D03*
X015449Y016650D03*
D19*
X004074Y031725D02*
X004074Y032325D01*
X003074Y032325D02*
X003074Y031725D01*
X002074Y031725D02*
X002074Y032325D01*
X009624Y032760D02*
X009624Y033360D01*
X010624Y033360D02*
X010624Y032760D01*
X011624Y032760D02*
X011624Y033360D01*
X012624Y033360D02*
X012624Y032760D01*
D20*
X012925Y015275D03*
X012925Y014775D03*
X012925Y014275D03*
X012925Y013775D03*
X012925Y013275D03*
X012925Y012775D03*
X012925Y012275D03*
X012925Y010650D03*
X012925Y010150D03*
X012925Y009650D03*
X012925Y009150D03*
X012925Y008650D03*
X012925Y008150D03*
X012925Y007650D03*
X014973Y007650D03*
X014973Y008150D03*
X014973Y008650D03*
X014973Y009150D03*
X014973Y009650D03*
X014973Y010150D03*
X014973Y010650D03*
X014973Y012275D03*
X014973Y012775D03*
X014973Y013275D03*
X014973Y013775D03*
X014973Y014275D03*
X014973Y014775D03*
X014973Y015275D03*
D21*
X008353Y032440D03*
X006385Y032440D03*
D22*
X022699Y019025D03*
X022699Y018025D03*
X022699Y017025D03*
X022699Y015400D03*
X022699Y014400D03*
X022699Y013400D03*
X022699Y011525D03*
X022699Y010525D03*
X022699Y009525D03*
X025074Y009525D03*
X025074Y010525D03*
X025074Y011525D03*
X024949Y013400D03*
X024949Y014400D03*
X024949Y015400D03*
X025074Y017025D03*
X025074Y018025D03*
X025074Y019025D03*
D23*
X023702Y029036D03*
X022718Y029036D03*
X021930Y029036D03*
X020946Y029036D03*
D24*
X019737Y030103D03*
X024911Y030103D03*
D25*
X024683Y025900D03*
X022715Y025900D03*
X022715Y022400D03*
X024683Y022400D03*
D26*
X024699Y021150D03*
X022699Y021150D03*
X022699Y023650D03*
X022699Y024650D03*
X024699Y024650D03*
X024699Y023650D03*
X024699Y027150D03*
X022699Y027150D03*
D27*
X019199Y032275D03*
X019199Y033275D03*
X014844Y033195D03*
X013844Y033195D03*
D28*
X017949Y020275D03*
X018949Y020275D03*
X023824Y019900D03*
X023824Y018900D03*
X023824Y018025D03*
X023824Y017025D03*
X023824Y016275D03*
X023824Y015275D03*
X023824Y014400D03*
X023824Y013400D03*
X023824Y012400D03*
X023824Y011400D03*
X023824Y010525D03*
X023824Y009525D03*
X018949Y012900D03*
X017949Y012900D03*
X017074Y012025D03*
X016074Y012025D03*
X011949Y013775D03*
X010949Y013775D03*
X008949Y012775D03*
X007949Y012775D03*
X011949Y010150D03*
X011949Y009150D03*
X008949Y005400D03*
X007949Y005400D03*
X017949Y005275D03*
X018949Y005275D03*
X009074Y020400D03*
X008074Y020400D03*
D29*
X008949Y028275D03*
X008949Y029275D03*
X008949Y030275D03*
X008949Y031275D03*
X009949Y031275D03*
X009949Y030275D03*
X009949Y029275D03*
X009949Y028275D03*
X010949Y028275D03*
X010949Y029275D03*
X010949Y030275D03*
X010949Y031275D03*
X011949Y031275D03*
X011949Y030275D03*
X011949Y029275D03*
X011949Y028275D03*
X012949Y028275D03*
X012949Y029275D03*
X012949Y030275D03*
X012949Y031275D03*
X013949Y031275D03*
X013949Y030275D03*
X013949Y029275D03*
X013949Y028275D03*
X014949Y028275D03*
X014949Y029275D03*
X014949Y030275D03*
X014949Y031275D03*
X015949Y031275D03*
X015949Y030275D03*
X015949Y029275D03*
X015949Y028275D03*
X016949Y028275D03*
X016949Y029275D03*
X016949Y030275D03*
X016949Y031275D03*
X017949Y031275D03*
X017949Y030275D03*
X017949Y029275D03*
X017949Y028275D03*
D30*
X020699Y028025D03*
X021699Y028025D03*
X022699Y028025D03*
X023699Y028025D03*
X024699Y028025D03*
X024699Y002775D03*
X024699Y001775D03*
X023699Y001775D03*
X023699Y002775D03*
D31*
X006380Y029400D02*
X006449Y029469D01*
X006449Y030219D01*
X006449Y031275D01*
X006449Y031650D01*
X006449Y031775D02*
X006465Y032134D01*
X006385Y032440D02*
X005590Y033275D01*
X002324Y033275D01*
X002074Y033025D01*
X002074Y032025D01*
X008353Y032440D02*
X008949Y031844D01*
X008949Y031275D01*
D32*
X007324Y030150D03*
X008074Y027525D03*
X012699Y026150D03*
X018824Y028275D03*
X018824Y028900D03*
X019449Y028900D03*
X019449Y028275D03*
X016699Y015650D03*
X015699Y015025D03*
X016199Y014025D03*
X014824Y015900D03*
X014074Y012900D03*
X013824Y011650D03*
X015824Y009150D03*
X016449Y007400D03*
X017199Y010900D03*
X019334Y008895D03*
X021199Y012275D03*
X020449Y012525D03*
X012074Y015025D03*
X010699Y012150D03*
X009824Y012275D03*
X009699Y010025D03*
X009949Y009150D03*
X009074Y009025D03*
X008699Y009525D03*
X006574Y010275D03*
X006324Y008400D03*
X006324Y013650D03*
X008324Y015650D03*
X008824Y016025D03*
X009449Y016150D03*
X009574Y016900D03*
X008699Y017650D03*
X006199Y018525D03*
X011824Y008400D03*
D33*
X012074Y008400D01*
X012324Y008650D01*
X012925Y008650D01*
X012925Y008150D02*
X012699Y007924D01*
X012699Y007775D01*
X012574Y007650D01*
X012925Y007650D02*
X012925Y008150D01*
X012925Y009150D02*
X011949Y009150D01*
X012925Y009650D02*
X013324Y009650D01*
X014574Y009650D02*
X014973Y009650D01*
X014973Y009150D02*
X015824Y009150D01*
X015949Y008650D02*
X016199Y008400D01*
X016324Y008275D01*
X019449Y008275D01*
X019949Y008775D01*
X019949Y010025D01*
X021949Y012150D01*
X021949Y014025D01*
X022324Y014400D01*
X022699Y014400D01*
X022074Y014900D02*
X021199Y014150D01*
X021199Y013650D01*
X021199Y012275D01*
X018949Y012900D02*
X018324Y012275D01*
X017699Y012275D01*
X017574Y012400D01*
X016699Y013275D01*
X014973Y013275D01*
X014973Y013775D02*
X015949Y013775D01*
X016199Y014025D01*
X014973Y014775D02*
X014973Y015275D01*
X012925Y015275D02*
X012925Y014775D01*
X012925Y013775D02*
X012074Y013775D01*
X011949Y013775D01*
X012324Y013275D02*
X012199Y013150D01*
X009324Y013150D01*
X008949Y012775D01*
X012324Y013275D02*
X012925Y013275D01*
X012925Y012775D02*
X012925Y012275D01*
X014973Y012275D02*
X014973Y012775D01*
X014973Y008650D02*
X015949Y008650D01*
X016074Y007650D02*
X015199Y007650D01*
X015074Y007775D01*
X015074Y008049D01*
X014973Y008150D01*
X016074Y007650D02*
X016324Y007400D01*
X016449Y007400D01*
X016699Y006900D02*
X014699Y006900D01*
X013324Y006900D02*
X011824Y006900D01*
X010949Y006025D01*
X010449Y005525D01*
X009074Y005525D01*
X008949Y005650D01*
X008949Y006322D01*
X016699Y006900D02*
X017074Y006525D01*
X017074Y005150D01*
X017574Y004650D01*
X018449Y004650D01*
X018949Y005150D01*
X018949Y006322D01*
X024949Y014400D02*
X024449Y014900D01*
X024074Y015275D01*
X023824Y015275D01*
X023074Y016025D01*
X022324Y016025D01*
X022074Y015775D01*
X022074Y014900D01*
X011574Y027025D02*
X011949Y027400D01*
X011949Y028275D01*
X007449Y033275D02*
X007574Y033400D01*
X009074Y020400D02*
X009199Y020275D01*
X005574Y018275D02*
X005449Y018275D01*
D34*
X005574Y018275D02*
X006324Y017525D01*
X006324Y016025D01*
X006449Y015900D01*
X006699Y015900D01*
X007074Y015525D01*
X007074Y012275D01*
X007074Y010775D01*
X007574Y010275D01*
X007949Y010275D01*
X008324Y009900D01*
X009199Y009900D01*
X009449Y009650D01*
X009574Y008775D01*
X010074Y008275D01*
X010824Y008275D01*
X011449Y007650D01*
X012574Y007650D01*
X013324Y006900D02*
X013824Y007400D01*
X013824Y009150D01*
X013324Y009650D01*
X012925Y010650D02*
X011824Y010650D01*
X010699Y010650D01*
X010449Y010400D01*
X010199Y010400D01*
X010074Y010525D01*
X009449Y010525D01*
X009074Y010150D01*
X008449Y010150D01*
X008074Y010525D01*
X007824Y010525D01*
X007699Y010650D01*
X007699Y011900D01*
X007449Y012150D01*
X007324Y012275D01*
X007324Y013025D01*
X007324Y013150D01*
X007324Y013275D01*
X007324Y013400D01*
X007324Y013525D01*
X007324Y015525D01*
X007949Y016150D01*
X007949Y017525D01*
X006199Y019275D01*
X005449Y019275D01*
X009199Y020275D02*
X010449Y020275D01*
X011824Y018900D01*
X011824Y015775D01*
X011574Y015525D01*
X011574Y014775D01*
X012324Y014275D01*
X012925Y014275D01*
X014973Y014275D02*
X015574Y014275D01*
X016199Y014900D01*
X016199Y017400D01*
X016949Y018275D01*
X016949Y019275D01*
X017324Y019650D01*
X018324Y019650D01*
X018949Y020275D01*
X020574Y018150D02*
X021949Y018150D01*
X022324Y018525D01*
X023449Y018525D01*
X023824Y018900D01*
X024699Y018025D01*
X025074Y018025D01*
X023824Y018025D02*
X022699Y018025D01*
X021949Y017275D01*
X021949Y016275D01*
X021699Y016025D01*
X021699Y015400D01*
X020699Y014525D01*
X020699Y013150D01*
X020449Y012525D01*
X022699Y014400D02*
X023824Y014400D01*
X023824Y011400D02*
X024074Y011400D01*
X025074Y010525D01*
X023824Y010525D02*
X022699Y010525D01*
X019334Y008895D02*
X018949Y009275D01*
X018074Y010150D01*
X017324Y010150D01*
X016199Y011275D01*
X015449Y011275D01*
X015324Y011400D01*
X014324Y011400D01*
X013824Y011650D01*
X014574Y009650D02*
X014199Y009275D01*
X014199Y007400D01*
X014699Y006900D01*
X016699Y015650D02*
X016824Y015775D01*
X018199Y015775D01*
X020574Y018150D01*
X022699Y019025D02*
X023574Y019900D01*
X023824Y019900D01*
X019949Y027650D02*
X019949Y027900D01*
X018824Y027900D01*
X018824Y028275D01*
X018824Y028900D02*
X018824Y031400D01*
X018324Y031900D01*
X017574Y031900D01*
X016949Y031275D01*
X017574Y027650D02*
X019949Y027650D01*
X006449Y012025D02*
X006449Y011025D01*
X005824Y010400D01*
X005824Y007025D01*
X005324Y006525D01*
X004668Y006556D01*
D35*
X006324Y008400D02*
X006574Y008150D01*
X008199Y008150D01*
X009074Y009025D01*
X008699Y009525D02*
X008324Y009525D01*
X007824Y010025D01*
X006949Y010025D01*
X006574Y010275D01*
X004668Y010494D02*
X003886Y011025D01*
X003074Y011025D01*
X002449Y011025D01*
X002199Y011025D01*
X001949Y011025D01*
X001324Y011650D01*
X001324Y027400D01*
X002449Y027400D01*
X003074Y028025D01*
X003449Y028400D01*
X006684Y028410D01*
X006937Y028033D01*
X006949Y028025D01*
X008199Y028025D01*
X008949Y027275D01*
X010824Y027275D01*
X011074Y027025D01*
X011074Y025400D01*
X011199Y025275D01*
X011449Y025275D01*
X011574Y025150D01*
X011574Y024150D01*
X012199Y023525D01*
X012199Y022025D01*
X011949Y021775D01*
X011949Y021650D01*
X011949Y019900D01*
X013199Y018650D01*
X014324Y018650D01*
X014449Y018525D01*
X014449Y017900D01*
X014449Y015900D02*
X013824Y015275D01*
X013824Y013275D01*
X013699Y013150D01*
X013699Y012525D01*
X014199Y012025D01*
X014449Y011775D01*
X015574Y011775D01*
X015824Y011525D01*
X016574Y011525D01*
X017199Y010900D01*
X014973Y010650D02*
X014973Y010150D01*
X014973Y010650D02*
X014949Y010650D01*
X014824Y010775D01*
X014074Y010775D01*
X013449Y011400D01*
X010699Y011400D01*
X009824Y012275D01*
X010699Y012150D02*
X011199Y012775D01*
X010699Y012150D01*
X011199Y012775D02*
X012925Y012775D01*
X014074Y012900D02*
X014199Y012775D01*
X014973Y012775D01*
X015223Y015025D02*
X015699Y015025D01*
X015223Y015025D02*
X014973Y015275D01*
X014824Y015900D02*
X014449Y015900D01*
X012925Y015275D02*
X012675Y015025D01*
X012074Y015025D01*
X011324Y015775D02*
X011574Y016025D01*
X011574Y017525D01*
X011199Y017900D01*
X011199Y019025D01*
X010324Y019900D01*
X007824Y019900D01*
X006574Y021150D01*
X006574Y022275D01*
X006074Y022775D01*
X004949Y022775D01*
X004449Y023275D01*
X003949Y022775D01*
X002824Y022775D01*
X002449Y023150D01*
X002449Y023275D01*
X002449Y022275D02*
X002449Y022150D01*
X002824Y021775D01*
X003949Y021775D01*
X004449Y022275D01*
X004949Y021775D02*
X004824Y021650D01*
X004449Y021275D01*
X003949Y020775D01*
X002824Y020775D01*
X002449Y021150D01*
X002449Y021275D01*
X002449Y020275D02*
X002449Y020025D01*
X002699Y019775D01*
X003949Y019775D01*
X004449Y020275D01*
X004949Y019775D01*
X006199Y019775D01*
X006574Y019400D01*
X008324Y017650D01*
X008324Y016650D01*
X008824Y016150D01*
X008824Y016025D01*
X008324Y015650D02*
X008449Y015525D01*
X011074Y015525D01*
X011324Y015775D01*
X009449Y016150D02*
X008699Y016900D01*
X008699Y017650D01*
X009574Y017400D02*
X009574Y016900D01*
X009574Y017400D02*
X010449Y018275D01*
X010449Y019275D01*
X010074Y019650D01*
X007699Y019650D01*
X006074Y021275D01*
X006074Y021400D01*
X005699Y021775D01*
X004949Y021775D01*
X005449Y023275D02*
X004949Y023775D01*
X003949Y023775D01*
X003449Y023275D01*
X002449Y025275D02*
X002449Y025525D01*
X002699Y025775D01*
X003699Y025775D01*
X003949Y025775D01*
X004449Y025275D01*
X004449Y026275D02*
X003824Y026900D01*
X003574Y026900D01*
X002949Y026900D01*
X002449Y026400D01*
X002449Y026275D01*
X004449Y026275D02*
X004949Y026775D01*
X007324Y026775D01*
X008074Y027525D01*
X009949Y029275D02*
X010449Y029775D01*
X010449Y030775D01*
X009949Y031275D01*
X010949Y031275D02*
X011449Y030775D01*
X011449Y029775D01*
X010949Y029275D01*
X011949Y029275D02*
X012449Y029775D01*
X012449Y030775D01*
X011949Y031275D01*
X012949Y031275D02*
X013449Y030775D01*
X013449Y029775D01*
X013199Y029525D01*
X012949Y029275D01*
X012699Y028775D02*
X013324Y028775D01*
X013824Y029275D01*
X013949Y029275D01*
X014449Y029775D01*
X014449Y030775D01*
X013949Y031275D01*
X014949Y031275D02*
X015449Y030775D01*
X015449Y029775D01*
X014949Y029275D01*
X014949Y029025D01*
X014699Y028775D01*
X013699Y028775D01*
X013449Y028525D01*
X013449Y027900D01*
X013824Y027525D01*
X016574Y027525D01*
X016949Y027150D01*
X021824Y027150D01*
X021949Y027025D01*
X021949Y024025D01*
X021949Y023775D01*
X022074Y023650D01*
X022699Y023650D01*
X022699Y022416D01*
X022715Y022400D01*
X022699Y022384D01*
X022699Y021150D01*
X022699Y024650D02*
X022715Y024791D01*
X022715Y025900D01*
X022699Y026041D01*
X022699Y027150D01*
X022449Y027400D01*
X017199Y027400D01*
X016824Y027775D01*
X014199Y027775D01*
X013949Y028025D01*
X013949Y028275D01*
X012699Y028775D02*
X012574Y028775D01*
X012449Y028650D01*
X012449Y026400D01*
X012699Y026150D01*
X015949Y029275D02*
X016449Y029775D01*
X016449Y030900D01*
X016074Y031275D01*
X015949Y031275D01*
X016949Y030275D02*
X017449Y029775D01*
X017449Y028775D01*
X016949Y028275D01*
X017574Y027650D01*
X006074Y018775D02*
X006199Y018525D01*
X006074Y018775D02*
X005574Y018775D01*
X004949Y018775D01*
X004449Y019275D01*
X003949Y018775D01*
X002824Y018775D01*
X002449Y019150D01*
X002449Y019275D01*
X002449Y018275D02*
X002449Y018150D01*
X002824Y017775D01*
X003949Y017775D01*
X004699Y017775D01*
X004949Y017525D01*
X004949Y017025D01*
X005199Y016775D01*
X005574Y016775D01*
X005699Y016775D01*
X005949Y016525D01*
X005949Y015525D01*
X005949Y014775D01*
X006324Y014400D01*
X006324Y014150D01*
X006324Y013650D01*
X004449Y013275D02*
X003949Y012775D01*
X002824Y012775D01*
X002449Y013150D01*
X002449Y013275D01*
X002824Y013775D02*
X002449Y014150D01*
X002449Y014275D01*
X002824Y014775D02*
X002449Y015150D01*
X002449Y015275D01*
X002824Y015775D02*
X002449Y016150D01*
X002449Y016275D01*
X002824Y015775D02*
X003949Y015775D01*
X004449Y016275D01*
X003949Y016775D02*
X002699Y016775D01*
X002449Y017025D01*
X002449Y017275D01*
X003949Y016775D02*
X004449Y017275D01*
X003949Y017775D02*
X004449Y018275D01*
X004449Y015275D02*
X003949Y014775D01*
X002824Y014775D01*
X002824Y013775D02*
X003949Y013775D01*
X004449Y014275D01*
X004449Y012275D02*
X003949Y011775D01*
X002949Y011775D01*
X002449Y012275D01*
X009699Y010025D02*
X009949Y009900D01*
X009949Y009150D01*
X012925Y010150D02*
X012925Y010650D01*
X014973Y008150D02*
X014973Y007650D01*
D36*
X014449Y006275D02*
X013324Y006275D01*
X014449Y006275D02*
X014949Y005775D01*
X014949Y005275D01*
X015199Y005275D01*
X015699Y004775D01*
X015699Y003775D01*
X015199Y003275D01*
X014949Y003275D01*
X014949Y002275D02*
X014949Y001525D01*
X014324Y000900D01*
X013574Y000900D01*
X013449Y001025D01*
X011949Y002275D02*
X011824Y002150D01*
X009949Y002150D01*
X009949Y001150D01*
X009949Y003150D02*
X009949Y004150D01*
X010074Y003275D02*
X009949Y003150D01*
X010074Y003275D02*
X011699Y003275D01*
X011199Y003775D01*
X011199Y004650D01*
X011824Y005275D01*
X011949Y005275D01*
X011949Y003275D02*
X011699Y003275D01*
X008949Y005400D02*
X008949Y006322D01*
X006949Y004275D02*
X006949Y004150D01*
X006949Y004275D02*
X006324Y004900D01*
X004761Y004900D01*
X004668Y004994D01*
X004824Y001150D02*
X004668Y001056D01*
X004824Y001150D02*
X006449Y001150D01*
X006949Y001150D01*
X008949Y012775D02*
X008949Y013822D01*
X009074Y020400D02*
X009074Y021322D01*
X008949Y021447D01*
X008949Y030275D02*
X008324Y030275D01*
X007449Y031150D01*
X007449Y033275D01*
X007574Y033400D02*
X009284Y033400D01*
X009624Y033060D01*
X014844Y033195D02*
X015649Y033195D01*
X015694Y033150D01*
X018449Y033150D02*
X018574Y033275D01*
X019199Y033275D01*
X018949Y021322D02*
X018949Y020275D01*
X018949Y013822D02*
X018949Y012900D01*
X021949Y008150D02*
X021981Y008119D01*
X021949Y008150D02*
X021199Y007525D01*
X021199Y006525D01*
X021199Y005900D01*
X019074Y003775D01*
X017824Y002525D01*
X017824Y001025D01*
X016449Y001025D01*
X016449Y005025D02*
X016324Y005150D01*
X016324Y006275D01*
X018949Y006322D02*
X018949Y005275D01*
D37*
X006449Y031650D02*
X006449Y031775D01*
X006465Y032134D02*
X006385Y032440D01*
M02*
