%
M48
M72
T01C0.0236
T02C0.0320
T03C0.0354
T04C0.0394
T05C0.0400
T06C0.0472
T07C0.0512
T08C0.0669
T09C0.0730
T10C0.0866
T11C0.0890
T12C0.1285
%
T01
X6324Y8400
X6574Y10275
X8699Y9525
X9074Y9025
X9699Y10025
X9949Y9150
X11824Y8400
X13824Y11650
X14074Y12900
X15699Y15025
X16199Y14025
X16699Y15650
X14824Y15900
X12074Y15025
X10699Y12150
X9824Y12275
X8324Y15650
X8824Y16025
X9449Y16150
X9574Y16900
X8699Y17650
X6199Y18525
X6324Y13650
X15824Y9150
X16449Y7400
X17199Y10900
X19334Y8895
X21199Y12275
X20449Y12525
X12699Y26150
X8074Y27525
X7324Y30150
X18824Y28900
X18824Y28275
X19449Y28275
X19449Y28900
T02
X19199Y32275
X19199Y33275
X18449Y33150
X17449Y33150
X16694Y33150
X15694Y33150
X14844Y33195
X13844Y33195
X14574Y27025
X14574Y26025
X15574Y26775
X16574Y26775
X15699Y25400
X14824Y24650
X13824Y24650
X13074Y24650
X12074Y24650
X11574Y26025
X11574Y27025
X11449Y23275
X11574Y22275
X12449Y20900
X13449Y20900
X14449Y20900
X15449Y20900
X15699Y22400
X14574Y22275
X14449Y23275
X17949Y20275
X18949Y20275
X15449Y17900
X14449Y17900
X13449Y17900
X12449Y17900
X11949Y13775
X10949Y13775
X8949Y12775
X7949Y12775
X6449Y12025
X6449Y15025
X8074Y20400
X9074Y20400
X16074Y12025
X17074Y12025
X17949Y12900
X18949Y12900
X23824Y12400
X23824Y11400
X23824Y10525
X23824Y9525
X23824Y13400
X23824Y14400
X23824Y15275
X23824Y16275
X23824Y17025
X23824Y18025
X23824Y18900
X23824Y19900
X16324Y6275
X16449Y5025
X17824Y4025
X17949Y5275
X18949Y5275
X16449Y2025
X16449Y1025
X17824Y1025
X13449Y1025
X9949Y1150
X9949Y2150
X9949Y3150
X9949Y4150
X8949Y5400
X7949Y5400
X6949Y4150
X6949Y3150
X6949Y2150
X6949Y1150
X11949Y9150
X11949Y10150
X13324Y6275
T03
X12449Y16650
X15449Y16650
T04
X20946Y29036
X21930Y29036
X22718Y29036
X23702Y29036
T05
X23699Y28025
X22699Y28025
X21699Y28025
X20699Y28025
X22715Y25900
X24683Y25900
X24699Y28025
X24683Y22400
X22715Y22400
X22699Y19025
X22699Y18025
X22699Y17025
X22699Y15400
X22699Y14400
X22699Y13400
X22699Y11525
X22699Y10525
X22699Y9525
X25074Y9525
X25074Y10525
X25074Y11525
X24949Y13400
X24949Y14400
X24949Y15400
X25074Y17025
X25074Y18025
X25074Y19025
X17949Y28275
X17949Y29275
X17949Y30275
X17949Y31275
X16949Y31275
X16949Y30275
X16949Y29275
X16949Y28275
X15949Y28275
X14949Y28275
X14949Y29275
X14949Y30275
X14949Y31275
X15949Y31275
X15949Y30275
X15949Y29275
X13949Y29275
X13949Y28275
X12949Y28275
X12949Y29275
X12949Y30275
X12949Y31275
X11949Y31275
X10949Y31275
X10949Y30275
X10949Y29275
X10949Y28275
X11949Y28275
X11949Y29275
X11949Y30275
X9949Y30275
X9949Y29275
X9949Y28275
X8949Y28275
X8949Y29275
X8949Y30275
X8949Y31275
X9949Y31275
X9624Y33060
X10624Y33060
X11624Y33060
X12624Y33060
X13949Y31275
X13949Y30275
X5449Y26275
X5449Y25275
X5449Y24275
X5449Y23275
X5449Y22275
X5449Y21275
X5449Y20275
X5449Y19275
X5449Y18275
X5449Y17275
X5449Y16275
X5449Y15275
X5449Y14275
X5449Y13275
X5449Y12275
X4449Y12275
X4449Y13275
X4449Y14275
X4449Y15275
X4449Y16275
X4449Y17275
X4449Y18275
X4449Y19275
X4449Y20275
X4449Y21275
X4449Y22275
X4449Y23275
X4449Y24275
X4449Y25275
X4449Y26275
X3449Y26275
X2449Y26275
X2449Y25275
X2449Y24275
X2449Y23275
X2449Y22275
X2449Y21275
X2449Y20275
X2449Y19275
X2449Y18275
X2449Y17275
X2449Y16275
X2449Y15275
X2449Y14275
X2449Y13275
X2449Y12275
X3449Y12275
X3449Y13275
X3449Y14275
X3449Y15275
X3449Y16275
X3449Y17275
X3449Y18275
X3449Y19275
X3449Y20275
X3449Y21275
X3449Y22275
X3449Y23275
X3449Y24275
X3449Y25275
X3074Y32025
X2074Y32025
X4074Y32025
X11949Y5275
X11949Y4275
X11949Y3275
X11949Y2275
X12949Y2275
X12949Y3275
X12949Y4275
X12949Y5275
X13949Y5275
X13949Y4275
X13949Y3275
X13949Y2275
X14949Y2275
X14949Y3275
X14949Y4275
X14949Y5275
X23699Y2775
X23699Y1775
X24699Y1775
X24699Y2775
T06
X1715Y1056
X2699Y1056
X4668Y3025
X2699Y4994
X1715Y4994
X1715Y6556
X2699Y6556
X4668Y8525
X2699Y10494
X1715Y10494
X7965Y13822
X8949Y13822
X9933Y13822
X9933Y6322
X8949Y6322
X7965Y6322
X17965Y6322
X18949Y6322
X19933Y6322
X21981Y6150
X23949Y4181
X24933Y4181
X24933Y8119
X23949Y8119
X19933Y13822
X18949Y13822
X17965Y13822
X17965Y21322
X18949Y21322
X19933Y21322
X9933Y21447
X8949Y21447
X7965Y21447
T07
X4668Y10494
X4668Y9509
X4668Y7541
X4668Y6556
X4668Y4994
X4668Y4009
X4668Y2041
X4668Y1056
X2699Y3025
X2699Y8525
X19737Y30103
X22699Y27150
X24699Y27150
X24699Y24650
X24699Y23650
X22699Y23650
X22699Y24650
X22699Y21150
X24699Y21150
X24911Y30103
X21981Y8119
X21981Y7134
X21981Y5166
X21981Y4181
X23949Y6150
T08
X6380Y29400
X5199Y27550
X4018Y29400
T09
X7106Y24400
X10793Y24400
X10793Y16775
X7106Y16775
X7106Y9275
X10793Y9275
X17106Y9275
X20793Y9275
X20793Y16775
X17106Y16775
X17106Y24275
X20793Y24275
T10
X2246Y29400
T11
X5199Y31275
T12
X20949Y2275
M30
