G75*
%MOIN*%
%OFA0B0*%
%FSLAX24Y24*%
%IPPOS*%
%LPD*%
%AMOC8*
5,1,8,0,0,1.08239X$1,22.5*
%
%ADD10C,0.0000*%
%ADD11C,0.0060*%
%ADD12R,0.0200X0.0200*%
%ADD13C,0.0050*%
%ADD14C,0.0080*%
%ADD15C,0.0040*%
%ADD16C,0.0010*%
%ADD17R,0.0079X0.0866*%
%ADD18R,0.0374X0.1220*%
%ADD19C,0.0030*%
%ADD20R,0.0433X0.0193*%
%ADD21C,0.0100*%
D10*
X000949Y000150D02*
X000949Y033900D01*
X025574Y033900D01*
X025574Y000275D01*
X025574Y000150D01*
X000949Y000150D01*
X001479Y001056D02*
X001481Y001086D01*
X001487Y001116D01*
X001496Y001145D01*
X001509Y001172D01*
X001526Y001197D01*
X001545Y001220D01*
X001568Y001241D01*
X001593Y001258D01*
X001619Y001272D01*
X001648Y001282D01*
X001677Y001289D01*
X001707Y001292D01*
X001738Y001291D01*
X001768Y001286D01*
X001797Y001277D01*
X001824Y001265D01*
X001850Y001250D01*
X001874Y001231D01*
X001895Y001209D01*
X001913Y001185D01*
X001928Y001158D01*
X001939Y001130D01*
X001947Y001101D01*
X001951Y001071D01*
X001951Y001041D01*
X001947Y001011D01*
X001939Y000982D01*
X001928Y000954D01*
X001913Y000927D01*
X001895Y000903D01*
X001874Y000881D01*
X001850Y000862D01*
X001824Y000847D01*
X001797Y000835D01*
X001768Y000826D01*
X001738Y000821D01*
X001707Y000820D01*
X001677Y000823D01*
X001648Y000830D01*
X001619Y000840D01*
X001593Y000854D01*
X001568Y000871D01*
X001545Y000892D01*
X001526Y000915D01*
X001509Y000940D01*
X001496Y000967D01*
X001487Y000996D01*
X001481Y001026D01*
X001479Y001056D01*
X002463Y001056D02*
X002465Y001086D01*
X002471Y001116D01*
X002480Y001145D01*
X002493Y001172D01*
X002510Y001197D01*
X002529Y001220D01*
X002552Y001241D01*
X002577Y001258D01*
X002603Y001272D01*
X002632Y001282D01*
X002661Y001289D01*
X002691Y001292D01*
X002722Y001291D01*
X002752Y001286D01*
X002781Y001277D01*
X002808Y001265D01*
X002834Y001250D01*
X002858Y001231D01*
X002879Y001209D01*
X002897Y001185D01*
X002912Y001158D01*
X002923Y001130D01*
X002931Y001101D01*
X002935Y001071D01*
X002935Y001041D01*
X002931Y001011D01*
X002923Y000982D01*
X002912Y000954D01*
X002897Y000927D01*
X002879Y000903D01*
X002858Y000881D01*
X002834Y000862D01*
X002808Y000847D01*
X002781Y000835D01*
X002752Y000826D01*
X002722Y000821D01*
X002691Y000820D01*
X002661Y000823D01*
X002632Y000830D01*
X002603Y000840D01*
X002577Y000854D01*
X002552Y000871D01*
X002529Y000892D01*
X002510Y000915D01*
X002493Y000940D01*
X002480Y000967D01*
X002471Y000996D01*
X002465Y001026D01*
X002463Y001056D01*
X004432Y003025D02*
X004434Y003055D01*
X004440Y003085D01*
X004449Y003114D01*
X004462Y003141D01*
X004479Y003166D01*
X004498Y003189D01*
X004521Y003210D01*
X004546Y003227D01*
X004572Y003241D01*
X004601Y003251D01*
X004630Y003258D01*
X004660Y003261D01*
X004691Y003260D01*
X004721Y003255D01*
X004750Y003246D01*
X004777Y003234D01*
X004803Y003219D01*
X004827Y003200D01*
X004848Y003178D01*
X004866Y003154D01*
X004881Y003127D01*
X004892Y003099D01*
X004900Y003070D01*
X004904Y003040D01*
X004904Y003010D01*
X004900Y002980D01*
X004892Y002951D01*
X004881Y002923D01*
X004866Y002896D01*
X004848Y002872D01*
X004827Y002850D01*
X004803Y002831D01*
X004777Y002816D01*
X004750Y002804D01*
X004721Y002795D01*
X004691Y002790D01*
X004660Y002789D01*
X004630Y002792D01*
X004601Y002799D01*
X004572Y002809D01*
X004546Y002823D01*
X004521Y002840D01*
X004498Y002861D01*
X004479Y002884D01*
X004462Y002909D01*
X004449Y002936D01*
X004440Y002965D01*
X004434Y002995D01*
X004432Y003025D01*
X002463Y004994D02*
X002465Y005024D01*
X002471Y005054D01*
X002480Y005083D01*
X002493Y005110D01*
X002510Y005135D01*
X002529Y005158D01*
X002552Y005179D01*
X002577Y005196D01*
X002603Y005210D01*
X002632Y005220D01*
X002661Y005227D01*
X002691Y005230D01*
X002722Y005229D01*
X002752Y005224D01*
X002781Y005215D01*
X002808Y005203D01*
X002834Y005188D01*
X002858Y005169D01*
X002879Y005147D01*
X002897Y005123D01*
X002912Y005096D01*
X002923Y005068D01*
X002931Y005039D01*
X002935Y005009D01*
X002935Y004979D01*
X002931Y004949D01*
X002923Y004920D01*
X002912Y004892D01*
X002897Y004865D01*
X002879Y004841D01*
X002858Y004819D01*
X002834Y004800D01*
X002808Y004785D01*
X002781Y004773D01*
X002752Y004764D01*
X002722Y004759D01*
X002691Y004758D01*
X002661Y004761D01*
X002632Y004768D01*
X002603Y004778D01*
X002577Y004792D01*
X002552Y004809D01*
X002529Y004830D01*
X002510Y004853D01*
X002493Y004878D01*
X002480Y004905D01*
X002471Y004934D01*
X002465Y004964D01*
X002463Y004994D01*
X001479Y004994D02*
X001481Y005024D01*
X001487Y005054D01*
X001496Y005083D01*
X001509Y005110D01*
X001526Y005135D01*
X001545Y005158D01*
X001568Y005179D01*
X001593Y005196D01*
X001619Y005210D01*
X001648Y005220D01*
X001677Y005227D01*
X001707Y005230D01*
X001738Y005229D01*
X001768Y005224D01*
X001797Y005215D01*
X001824Y005203D01*
X001850Y005188D01*
X001874Y005169D01*
X001895Y005147D01*
X001913Y005123D01*
X001928Y005096D01*
X001939Y005068D01*
X001947Y005039D01*
X001951Y005009D01*
X001951Y004979D01*
X001947Y004949D01*
X001939Y004920D01*
X001928Y004892D01*
X001913Y004865D01*
X001895Y004841D01*
X001874Y004819D01*
X001850Y004800D01*
X001824Y004785D01*
X001797Y004773D01*
X001768Y004764D01*
X001738Y004759D01*
X001707Y004758D01*
X001677Y004761D01*
X001648Y004768D01*
X001619Y004778D01*
X001593Y004792D01*
X001568Y004809D01*
X001545Y004830D01*
X001526Y004853D01*
X001509Y004878D01*
X001496Y004905D01*
X001487Y004934D01*
X001481Y004964D01*
X001479Y004994D01*
X001479Y006556D02*
X001481Y006586D01*
X001487Y006616D01*
X001496Y006645D01*
X001509Y006672D01*
X001526Y006697D01*
X001545Y006720D01*
X001568Y006741D01*
X001593Y006758D01*
X001619Y006772D01*
X001648Y006782D01*
X001677Y006789D01*
X001707Y006792D01*
X001738Y006791D01*
X001768Y006786D01*
X001797Y006777D01*
X001824Y006765D01*
X001850Y006750D01*
X001874Y006731D01*
X001895Y006709D01*
X001913Y006685D01*
X001928Y006658D01*
X001939Y006630D01*
X001947Y006601D01*
X001951Y006571D01*
X001951Y006541D01*
X001947Y006511D01*
X001939Y006482D01*
X001928Y006454D01*
X001913Y006427D01*
X001895Y006403D01*
X001874Y006381D01*
X001850Y006362D01*
X001824Y006347D01*
X001797Y006335D01*
X001768Y006326D01*
X001738Y006321D01*
X001707Y006320D01*
X001677Y006323D01*
X001648Y006330D01*
X001619Y006340D01*
X001593Y006354D01*
X001568Y006371D01*
X001545Y006392D01*
X001526Y006415D01*
X001509Y006440D01*
X001496Y006467D01*
X001487Y006496D01*
X001481Y006526D01*
X001479Y006556D01*
X002463Y006556D02*
X002465Y006586D01*
X002471Y006616D01*
X002480Y006645D01*
X002493Y006672D01*
X002510Y006697D01*
X002529Y006720D01*
X002552Y006741D01*
X002577Y006758D01*
X002603Y006772D01*
X002632Y006782D01*
X002661Y006789D01*
X002691Y006792D01*
X002722Y006791D01*
X002752Y006786D01*
X002781Y006777D01*
X002808Y006765D01*
X002834Y006750D01*
X002858Y006731D01*
X002879Y006709D01*
X002897Y006685D01*
X002912Y006658D01*
X002923Y006630D01*
X002931Y006601D01*
X002935Y006571D01*
X002935Y006541D01*
X002931Y006511D01*
X002923Y006482D01*
X002912Y006454D01*
X002897Y006427D01*
X002879Y006403D01*
X002858Y006381D01*
X002834Y006362D01*
X002808Y006347D01*
X002781Y006335D01*
X002752Y006326D01*
X002722Y006321D01*
X002691Y006320D01*
X002661Y006323D01*
X002632Y006330D01*
X002603Y006340D01*
X002577Y006354D01*
X002552Y006371D01*
X002529Y006392D01*
X002510Y006415D01*
X002493Y006440D01*
X002480Y006467D01*
X002471Y006496D01*
X002465Y006526D01*
X002463Y006556D01*
X004432Y008525D02*
X004434Y008555D01*
X004440Y008585D01*
X004449Y008614D01*
X004462Y008641D01*
X004479Y008666D01*
X004498Y008689D01*
X004521Y008710D01*
X004546Y008727D01*
X004572Y008741D01*
X004601Y008751D01*
X004630Y008758D01*
X004660Y008761D01*
X004691Y008760D01*
X004721Y008755D01*
X004750Y008746D01*
X004777Y008734D01*
X004803Y008719D01*
X004827Y008700D01*
X004848Y008678D01*
X004866Y008654D01*
X004881Y008627D01*
X004892Y008599D01*
X004900Y008570D01*
X004904Y008540D01*
X004904Y008510D01*
X004900Y008480D01*
X004892Y008451D01*
X004881Y008423D01*
X004866Y008396D01*
X004848Y008372D01*
X004827Y008350D01*
X004803Y008331D01*
X004777Y008316D01*
X004750Y008304D01*
X004721Y008295D01*
X004691Y008290D01*
X004660Y008289D01*
X004630Y008292D01*
X004601Y008299D01*
X004572Y008309D01*
X004546Y008323D01*
X004521Y008340D01*
X004498Y008361D01*
X004479Y008384D01*
X004462Y008409D01*
X004449Y008436D01*
X004440Y008465D01*
X004434Y008495D01*
X004432Y008525D01*
X002463Y010494D02*
X002465Y010524D01*
X002471Y010554D01*
X002480Y010583D01*
X002493Y010610D01*
X002510Y010635D01*
X002529Y010658D01*
X002552Y010679D01*
X002577Y010696D01*
X002603Y010710D01*
X002632Y010720D01*
X002661Y010727D01*
X002691Y010730D01*
X002722Y010729D01*
X002752Y010724D01*
X002781Y010715D01*
X002808Y010703D01*
X002834Y010688D01*
X002858Y010669D01*
X002879Y010647D01*
X002897Y010623D01*
X002912Y010596D01*
X002923Y010568D01*
X002931Y010539D01*
X002935Y010509D01*
X002935Y010479D01*
X002931Y010449D01*
X002923Y010420D01*
X002912Y010392D01*
X002897Y010365D01*
X002879Y010341D01*
X002858Y010319D01*
X002834Y010300D01*
X002808Y010285D01*
X002781Y010273D01*
X002752Y010264D01*
X002722Y010259D01*
X002691Y010258D01*
X002661Y010261D01*
X002632Y010268D01*
X002603Y010278D01*
X002577Y010292D01*
X002552Y010309D01*
X002529Y010330D01*
X002510Y010353D01*
X002493Y010378D01*
X002480Y010405D01*
X002471Y010434D01*
X002465Y010464D01*
X002463Y010494D01*
X001479Y010494D02*
X001481Y010524D01*
X001487Y010554D01*
X001496Y010583D01*
X001509Y010610D01*
X001526Y010635D01*
X001545Y010658D01*
X001568Y010679D01*
X001593Y010696D01*
X001619Y010710D01*
X001648Y010720D01*
X001677Y010727D01*
X001707Y010730D01*
X001738Y010729D01*
X001768Y010724D01*
X001797Y010715D01*
X001824Y010703D01*
X001850Y010688D01*
X001874Y010669D01*
X001895Y010647D01*
X001913Y010623D01*
X001928Y010596D01*
X001939Y010568D01*
X001947Y010539D01*
X001951Y010509D01*
X001951Y010479D01*
X001947Y010449D01*
X001939Y010420D01*
X001928Y010392D01*
X001913Y010365D01*
X001895Y010341D01*
X001874Y010319D01*
X001850Y010300D01*
X001824Y010285D01*
X001797Y010273D01*
X001768Y010264D01*
X001738Y010259D01*
X001707Y010258D01*
X001677Y010261D01*
X001648Y010268D01*
X001619Y010278D01*
X001593Y010292D01*
X001568Y010309D01*
X001545Y010330D01*
X001526Y010353D01*
X001509Y010378D01*
X001496Y010405D01*
X001487Y010434D01*
X001481Y010464D01*
X001479Y010494D01*
X004754Y031275D02*
X004756Y031317D01*
X004762Y031358D01*
X004771Y031399D01*
X004785Y031438D01*
X004802Y031476D01*
X004823Y031512D01*
X004846Y031547D01*
X004873Y031578D01*
X004903Y031608D01*
X004936Y031634D01*
X004971Y031657D01*
X005007Y031677D01*
X005046Y031693D01*
X005086Y031705D01*
X005126Y031714D01*
X005168Y031719D01*
X005209Y031720D01*
X005251Y031717D01*
X005292Y031710D01*
X005333Y031699D01*
X005372Y031685D01*
X005409Y031667D01*
X005445Y031646D01*
X005479Y031621D01*
X005510Y031593D01*
X005538Y031563D01*
X005564Y031530D01*
X005586Y031494D01*
X005605Y031457D01*
X005620Y031418D01*
X005632Y031378D01*
X005640Y031337D01*
X005644Y031296D01*
X005644Y031254D01*
X005640Y031213D01*
X005632Y031172D01*
X005620Y031132D01*
X005605Y031093D01*
X005586Y031056D01*
X005564Y031020D01*
X005538Y030987D01*
X005510Y030957D01*
X005479Y030929D01*
X005445Y030904D01*
X005409Y030883D01*
X005372Y030865D01*
X005333Y030851D01*
X005292Y030840D01*
X005251Y030833D01*
X005209Y030830D01*
X005168Y030831D01*
X005126Y030836D01*
X005086Y030845D01*
X005046Y030857D01*
X005007Y030873D01*
X004971Y030893D01*
X004936Y030916D01*
X004903Y030942D01*
X004873Y030972D01*
X004846Y031003D01*
X004823Y031038D01*
X004802Y031074D01*
X004785Y031112D01*
X004771Y031151D01*
X004762Y031192D01*
X004756Y031233D01*
X004754Y031275D01*
X023713Y008119D02*
X023715Y008149D01*
X023721Y008179D01*
X023730Y008208D01*
X023743Y008235D01*
X023760Y008260D01*
X023779Y008283D01*
X023802Y008304D01*
X023827Y008321D01*
X023853Y008335D01*
X023882Y008345D01*
X023911Y008352D01*
X023941Y008355D01*
X023972Y008354D01*
X024002Y008349D01*
X024031Y008340D01*
X024058Y008328D01*
X024084Y008313D01*
X024108Y008294D01*
X024129Y008272D01*
X024147Y008248D01*
X024162Y008221D01*
X024173Y008193D01*
X024181Y008164D01*
X024185Y008134D01*
X024185Y008104D01*
X024181Y008074D01*
X024173Y008045D01*
X024162Y008017D01*
X024147Y007990D01*
X024129Y007966D01*
X024108Y007944D01*
X024084Y007925D01*
X024058Y007910D01*
X024031Y007898D01*
X024002Y007889D01*
X023972Y007884D01*
X023941Y007883D01*
X023911Y007886D01*
X023882Y007893D01*
X023853Y007903D01*
X023827Y007917D01*
X023802Y007934D01*
X023779Y007955D01*
X023760Y007978D01*
X023743Y008003D01*
X023730Y008030D01*
X023721Y008059D01*
X023715Y008089D01*
X023713Y008119D01*
X024697Y008119D02*
X024699Y008149D01*
X024705Y008179D01*
X024714Y008208D01*
X024727Y008235D01*
X024744Y008260D01*
X024763Y008283D01*
X024786Y008304D01*
X024811Y008321D01*
X024837Y008335D01*
X024866Y008345D01*
X024895Y008352D01*
X024925Y008355D01*
X024956Y008354D01*
X024986Y008349D01*
X025015Y008340D01*
X025042Y008328D01*
X025068Y008313D01*
X025092Y008294D01*
X025113Y008272D01*
X025131Y008248D01*
X025146Y008221D01*
X025157Y008193D01*
X025165Y008164D01*
X025169Y008134D01*
X025169Y008104D01*
X025165Y008074D01*
X025157Y008045D01*
X025146Y008017D01*
X025131Y007990D01*
X025113Y007966D01*
X025092Y007944D01*
X025068Y007925D01*
X025042Y007910D01*
X025015Y007898D01*
X024986Y007889D01*
X024956Y007884D01*
X024925Y007883D01*
X024895Y007886D01*
X024866Y007893D01*
X024837Y007903D01*
X024811Y007917D01*
X024786Y007934D01*
X024763Y007955D01*
X024744Y007978D01*
X024727Y008003D01*
X024714Y008030D01*
X024705Y008059D01*
X024699Y008089D01*
X024697Y008119D01*
X021745Y006150D02*
X021747Y006180D01*
X021753Y006210D01*
X021762Y006239D01*
X021775Y006266D01*
X021792Y006291D01*
X021811Y006314D01*
X021834Y006335D01*
X021859Y006352D01*
X021885Y006366D01*
X021914Y006376D01*
X021943Y006383D01*
X021973Y006386D01*
X022004Y006385D01*
X022034Y006380D01*
X022063Y006371D01*
X022090Y006359D01*
X022116Y006344D01*
X022140Y006325D01*
X022161Y006303D01*
X022179Y006279D01*
X022194Y006252D01*
X022205Y006224D01*
X022213Y006195D01*
X022217Y006165D01*
X022217Y006135D01*
X022213Y006105D01*
X022205Y006076D01*
X022194Y006048D01*
X022179Y006021D01*
X022161Y005997D01*
X022140Y005975D01*
X022116Y005956D01*
X022090Y005941D01*
X022063Y005929D01*
X022034Y005920D01*
X022004Y005915D01*
X021973Y005914D01*
X021943Y005917D01*
X021914Y005924D01*
X021885Y005934D01*
X021859Y005948D01*
X021834Y005965D01*
X021811Y005986D01*
X021792Y006009D01*
X021775Y006034D01*
X021762Y006061D01*
X021753Y006090D01*
X021747Y006120D01*
X021745Y006150D01*
X023713Y004181D02*
X023715Y004211D01*
X023721Y004241D01*
X023730Y004270D01*
X023743Y004297D01*
X023760Y004322D01*
X023779Y004345D01*
X023802Y004366D01*
X023827Y004383D01*
X023853Y004397D01*
X023882Y004407D01*
X023911Y004414D01*
X023941Y004417D01*
X023972Y004416D01*
X024002Y004411D01*
X024031Y004402D01*
X024058Y004390D01*
X024084Y004375D01*
X024108Y004356D01*
X024129Y004334D01*
X024147Y004310D01*
X024162Y004283D01*
X024173Y004255D01*
X024181Y004226D01*
X024185Y004196D01*
X024185Y004166D01*
X024181Y004136D01*
X024173Y004107D01*
X024162Y004079D01*
X024147Y004052D01*
X024129Y004028D01*
X024108Y004006D01*
X024084Y003987D01*
X024058Y003972D01*
X024031Y003960D01*
X024002Y003951D01*
X023972Y003946D01*
X023941Y003945D01*
X023911Y003948D01*
X023882Y003955D01*
X023853Y003965D01*
X023827Y003979D01*
X023802Y003996D01*
X023779Y004017D01*
X023760Y004040D01*
X023743Y004065D01*
X023730Y004092D01*
X023721Y004121D01*
X023715Y004151D01*
X023713Y004181D01*
X024697Y004181D02*
X024699Y004211D01*
X024705Y004241D01*
X024714Y004270D01*
X024727Y004297D01*
X024744Y004322D01*
X024763Y004345D01*
X024786Y004366D01*
X024811Y004383D01*
X024837Y004397D01*
X024866Y004407D01*
X024895Y004414D01*
X024925Y004417D01*
X024956Y004416D01*
X024986Y004411D01*
X025015Y004402D01*
X025042Y004390D01*
X025068Y004375D01*
X025092Y004356D01*
X025113Y004334D01*
X025131Y004310D01*
X025146Y004283D01*
X025157Y004255D01*
X025165Y004226D01*
X025169Y004196D01*
X025169Y004166D01*
X025165Y004136D01*
X025157Y004107D01*
X025146Y004079D01*
X025131Y004052D01*
X025113Y004028D01*
X025092Y004006D01*
X025068Y003987D01*
X025042Y003972D01*
X025015Y003960D01*
X024986Y003951D01*
X024956Y003946D01*
X024925Y003945D01*
X024895Y003948D01*
X024866Y003955D01*
X024837Y003965D01*
X024811Y003979D01*
X024786Y003996D01*
X024763Y004017D01*
X024744Y004040D01*
X024727Y004065D01*
X024714Y004092D01*
X024705Y004121D01*
X024699Y004151D01*
X024697Y004181D01*
X020306Y002275D02*
X020308Y002325D01*
X020314Y002376D01*
X020324Y002425D01*
X020337Y002474D01*
X020355Y002521D01*
X020376Y002567D01*
X020401Y002611D01*
X020429Y002653D01*
X020460Y002693D01*
X020494Y002730D01*
X020531Y002764D01*
X020571Y002795D01*
X020613Y002823D01*
X020657Y002848D01*
X020703Y002869D01*
X020750Y002887D01*
X020799Y002900D01*
X020848Y002910D01*
X020899Y002916D01*
X020949Y002918D01*
X020999Y002916D01*
X021050Y002910D01*
X021099Y002900D01*
X021148Y002887D01*
X021195Y002869D01*
X021241Y002848D01*
X021285Y002823D01*
X021327Y002795D01*
X021367Y002764D01*
X021404Y002730D01*
X021438Y002693D01*
X021469Y002653D01*
X021497Y002611D01*
X021522Y002567D01*
X021543Y002521D01*
X021561Y002474D01*
X021574Y002425D01*
X021584Y002376D01*
X021590Y002325D01*
X021592Y002275D01*
X021590Y002225D01*
X021584Y002174D01*
X021574Y002125D01*
X021561Y002076D01*
X021543Y002029D01*
X021522Y001983D01*
X021497Y001939D01*
X021469Y001897D01*
X021438Y001857D01*
X021404Y001820D01*
X021367Y001786D01*
X021327Y001755D01*
X021285Y001727D01*
X021241Y001702D01*
X021195Y001681D01*
X021148Y001663D01*
X021099Y001650D01*
X021050Y001640D01*
X020999Y001634D01*
X020949Y001632D01*
X020899Y001634D01*
X020848Y001640D01*
X020799Y001650D01*
X020750Y001663D01*
X020703Y001681D01*
X020657Y001702D01*
X020613Y001727D01*
X020571Y001755D01*
X020531Y001786D01*
X020494Y001820D01*
X020460Y001857D01*
X020429Y001897D01*
X020401Y001939D01*
X020376Y001983D01*
X020355Y002029D01*
X020337Y002076D01*
X020324Y002125D01*
X020314Y002174D01*
X020308Y002225D01*
X020306Y002275D01*
D11*
X015449Y002025D02*
X015449Y003525D01*
X015199Y003775D01*
X014699Y003775D01*
X014449Y004025D01*
X014449Y005525D01*
X014199Y005775D01*
X013699Y005775D01*
X013449Y005525D01*
X013449Y004025D01*
X013199Y003775D01*
X012699Y003775D01*
X012449Y004025D01*
X012199Y003775D01*
X011699Y003775D01*
X011449Y004025D01*
X011449Y005525D01*
X011699Y005775D01*
X012199Y005775D01*
X012449Y005525D01*
X012449Y004025D01*
X012199Y003775D02*
X011699Y003775D01*
X011449Y003525D01*
X011449Y002025D01*
X011699Y001775D01*
X012199Y001775D01*
X012449Y002025D01*
X012449Y003525D01*
X012199Y003775D01*
X012449Y003525D02*
X012699Y003775D01*
X013199Y003775D01*
X013449Y003525D01*
X013449Y002025D01*
X013199Y001775D01*
X012699Y001775D01*
X012449Y002025D01*
X013449Y002025D02*
X013699Y001775D01*
X014199Y001775D01*
X014449Y002025D01*
X014449Y003525D01*
X014199Y003775D01*
X013699Y003775D01*
X013449Y004025D01*
X013699Y003775D02*
X013449Y003525D01*
X013699Y003775D02*
X014199Y003775D01*
X014449Y004025D01*
X014699Y003775D02*
X014449Y003525D01*
X014699Y003775D02*
X015199Y003775D01*
X015449Y004025D01*
X015449Y005525D01*
X015199Y005775D01*
X014699Y005775D01*
X014449Y005525D01*
X013449Y005525D02*
X013199Y005775D01*
X012699Y005775D01*
X012449Y005525D01*
X014449Y002025D02*
X014699Y001775D01*
X015199Y001775D01*
X015449Y002025D01*
X023224Y009175D02*
X023224Y010875D01*
X023226Y010892D01*
X023230Y010909D01*
X023237Y010925D01*
X023247Y010939D01*
X023260Y010952D01*
X023274Y010962D01*
X023290Y010969D01*
X023307Y010973D01*
X023324Y010975D01*
X024324Y010975D01*
X024324Y010950D02*
X023324Y010950D01*
X023307Y010952D01*
X023290Y010956D01*
X023274Y010963D01*
X023260Y010973D01*
X023247Y010986D01*
X023237Y011000D01*
X023230Y011016D01*
X023226Y011033D01*
X023224Y011050D01*
X023224Y012750D01*
X023226Y012767D01*
X023230Y012784D01*
X023237Y012800D01*
X023247Y012814D01*
X023260Y012827D01*
X023274Y012837D01*
X023290Y012844D01*
X023307Y012848D01*
X023324Y012850D01*
X024324Y012850D01*
X024324Y012950D02*
X023324Y012950D01*
X023307Y012952D01*
X023290Y012956D01*
X023274Y012963D01*
X023260Y012973D01*
X023247Y012986D01*
X023237Y013000D01*
X023230Y013016D01*
X023226Y013033D01*
X023224Y013050D01*
X023224Y014750D01*
X023226Y014767D01*
X023230Y014784D01*
X023237Y014800D01*
X023247Y014814D01*
X023260Y014827D01*
X023274Y014837D01*
X023290Y014844D01*
X023307Y014848D01*
X023324Y014850D01*
X024324Y014850D01*
X024324Y014825D02*
X023324Y014825D01*
X023307Y014827D01*
X023290Y014831D01*
X023274Y014838D01*
X023260Y014848D01*
X023247Y014861D01*
X023237Y014875D01*
X023230Y014891D01*
X023226Y014908D01*
X023224Y014925D01*
X023224Y016625D01*
X023224Y016675D02*
X023224Y018375D01*
X023226Y018392D01*
X023230Y018409D01*
X023237Y018425D01*
X023247Y018439D01*
X023260Y018452D01*
X023274Y018462D01*
X023290Y018469D01*
X023307Y018473D01*
X023324Y018475D01*
X024324Y018475D01*
X024324Y018450D02*
X023324Y018450D01*
X023307Y018452D01*
X023290Y018456D01*
X023274Y018463D01*
X023260Y018473D01*
X023247Y018486D01*
X023237Y018500D01*
X023230Y018516D01*
X023226Y018533D01*
X023224Y018550D01*
X023224Y020250D01*
X023226Y020267D01*
X023230Y020284D01*
X023237Y020300D01*
X023247Y020314D01*
X023260Y020327D01*
X023274Y020337D01*
X023290Y020344D01*
X023307Y020348D01*
X023324Y020350D01*
X024324Y020350D01*
X024341Y020348D01*
X024358Y020344D01*
X024374Y020337D01*
X024388Y020327D01*
X024401Y020314D01*
X024411Y020300D01*
X024418Y020284D01*
X024422Y020267D01*
X024424Y020250D01*
X024424Y018550D01*
X024422Y018533D01*
X024418Y018516D01*
X024411Y018500D01*
X024401Y018486D01*
X024388Y018473D01*
X024374Y018463D01*
X024358Y018456D01*
X024341Y018452D01*
X024324Y018450D01*
X024324Y018475D02*
X024341Y018473D01*
X024358Y018469D01*
X024374Y018462D01*
X024388Y018452D01*
X024401Y018439D01*
X024411Y018425D01*
X024418Y018409D01*
X024422Y018392D01*
X024424Y018375D01*
X024424Y016675D01*
X024424Y016625D02*
X024424Y014925D01*
X024422Y014908D01*
X024418Y014891D01*
X024411Y014875D01*
X024401Y014861D01*
X024388Y014848D01*
X024374Y014838D01*
X024358Y014831D01*
X024341Y014827D01*
X024324Y014825D01*
X024324Y014850D02*
X024341Y014848D01*
X024358Y014844D01*
X024374Y014837D01*
X024388Y014827D01*
X024401Y014814D01*
X024411Y014800D01*
X024418Y014784D01*
X024422Y014767D01*
X024424Y014750D01*
X024424Y013050D01*
X024422Y013033D01*
X024418Y013016D01*
X024411Y013000D01*
X024401Y012986D01*
X024388Y012973D01*
X024374Y012963D01*
X024358Y012956D01*
X024341Y012952D01*
X024324Y012950D01*
X024324Y012850D02*
X024341Y012848D01*
X024358Y012844D01*
X024374Y012837D01*
X024388Y012827D01*
X024401Y012814D01*
X024411Y012800D01*
X024418Y012784D01*
X024422Y012767D01*
X024424Y012750D01*
X024424Y011050D01*
X024422Y011033D01*
X024418Y011016D01*
X024411Y011000D01*
X024401Y010986D01*
X024388Y010973D01*
X024374Y010963D01*
X024358Y010956D01*
X024341Y010952D01*
X024324Y010950D01*
X024324Y010975D02*
X024341Y010973D01*
X024358Y010969D01*
X024374Y010962D01*
X024388Y010952D01*
X024401Y010939D01*
X024411Y010925D01*
X024418Y010909D01*
X024422Y010892D01*
X024424Y010875D01*
X024424Y009175D01*
X024422Y009158D01*
X024418Y009141D01*
X024411Y009125D01*
X024401Y009111D01*
X024388Y009098D01*
X024374Y009088D01*
X024358Y009081D01*
X024341Y009077D01*
X024324Y009075D01*
X023324Y009075D01*
X023307Y009077D01*
X023290Y009081D01*
X023274Y009088D01*
X023260Y009098D01*
X023247Y009111D01*
X023237Y009125D01*
X023230Y009141D01*
X023226Y009158D01*
X023224Y009175D01*
X023824Y009725D02*
X023824Y009875D01*
X023824Y009925D01*
X023824Y010125D02*
X023824Y010175D01*
X023824Y010325D01*
X023824Y011600D02*
X023824Y011750D01*
X023824Y011800D01*
X023824Y012000D02*
X023824Y012050D01*
X023824Y012200D01*
X023824Y013600D02*
X023824Y013750D01*
X023824Y013800D01*
X023824Y014000D02*
X023824Y014050D01*
X023824Y014200D01*
X023824Y015475D02*
X023824Y015625D01*
X023824Y015675D01*
X023824Y015875D02*
X023824Y015925D01*
X023824Y016075D01*
X023324Y016575D02*
X024324Y016575D01*
X024424Y016625D02*
X024422Y016642D01*
X024418Y016659D01*
X024411Y016675D01*
X024401Y016689D01*
X024388Y016702D01*
X024374Y016712D01*
X024358Y016719D01*
X024341Y016723D01*
X024324Y016725D01*
X023324Y016725D01*
X023224Y016675D02*
X023226Y016658D01*
X023230Y016641D01*
X023237Y016625D01*
X023247Y016611D01*
X023260Y016598D01*
X023274Y016588D01*
X023290Y016581D01*
X023307Y016577D01*
X023324Y016575D01*
X023224Y016625D02*
X023226Y016642D01*
X023230Y016659D01*
X023237Y016675D01*
X023247Y016689D01*
X023260Y016702D01*
X023274Y016712D01*
X023290Y016719D01*
X023307Y016723D01*
X023324Y016725D01*
X023824Y017225D02*
X023824Y017375D01*
X023824Y017425D01*
X023824Y017625D02*
X023824Y017675D01*
X023824Y017825D01*
X024424Y016675D02*
X024422Y016658D01*
X024418Y016641D01*
X024411Y016625D01*
X024401Y016611D01*
X024388Y016598D01*
X024374Y016588D01*
X024358Y016581D01*
X024341Y016577D01*
X024324Y016575D01*
X023824Y019100D02*
X023824Y019250D01*
X023824Y019300D01*
X023824Y019500D02*
X023824Y019550D01*
X023824Y019700D01*
X018199Y027775D02*
X017699Y027775D01*
X017449Y028025D01*
X017449Y029525D01*
X017199Y029775D01*
X016699Y029775D01*
X016449Y029525D01*
X016449Y028025D01*
X016199Y027775D01*
X015699Y027775D01*
X015449Y028025D01*
X015449Y029525D01*
X015199Y029775D01*
X014699Y029775D01*
X014449Y029525D01*
X014449Y028025D01*
X014199Y027775D01*
X013699Y027775D01*
X013449Y028025D01*
X013449Y029525D01*
X013199Y029775D01*
X012699Y029775D01*
X012449Y029525D01*
X012449Y028025D01*
X012199Y027775D01*
X011699Y027775D01*
X011449Y028025D01*
X011449Y029525D01*
X011199Y029775D01*
X010699Y029775D01*
X010449Y029525D01*
X010449Y028025D01*
X010699Y027775D01*
X011199Y027775D01*
X011449Y028025D01*
X010449Y028025D02*
X010199Y027775D01*
X009699Y027775D01*
X009449Y028025D01*
X009199Y027775D01*
X008699Y027775D01*
X008449Y028025D01*
X008449Y029525D01*
X008699Y029775D01*
X009199Y029775D01*
X009449Y029525D01*
X009449Y028025D01*
X009449Y029525D02*
X009699Y029775D01*
X010199Y029775D01*
X010449Y029525D01*
X010199Y029775D02*
X010449Y030025D01*
X010449Y031525D01*
X010199Y031775D01*
X009699Y031775D01*
X009449Y031525D01*
X009199Y031775D01*
X008699Y031775D01*
X008449Y031525D01*
X008449Y030025D01*
X008699Y029775D01*
X009199Y029775D01*
X009449Y030025D01*
X009449Y031525D01*
X010449Y031525D02*
X010699Y031775D01*
X011199Y031775D01*
X011449Y031525D01*
X011449Y030025D01*
X011699Y029775D01*
X011449Y029525D01*
X011199Y029775D02*
X010699Y029775D01*
X010449Y030025D01*
X010199Y029775D02*
X009699Y029775D01*
X009449Y030025D01*
X011199Y029775D02*
X011449Y030025D01*
X011699Y029775D02*
X012199Y029775D01*
X012449Y029525D01*
X012199Y029775D02*
X012449Y030025D01*
X012449Y031525D01*
X012199Y031775D01*
X011699Y031775D01*
X011449Y031525D01*
X012449Y031525D02*
X012699Y031775D01*
X013199Y031775D01*
X013449Y031525D01*
X013449Y030025D01*
X013199Y029775D01*
X012699Y029775D01*
X012449Y030025D01*
X012199Y029775D02*
X011699Y029775D01*
X012449Y028025D02*
X012699Y027775D01*
X013199Y027775D01*
X013449Y028025D01*
X014449Y028025D02*
X014699Y027775D01*
X015199Y027775D01*
X015449Y028025D01*
X016449Y028025D02*
X016699Y027775D01*
X017199Y027775D01*
X017449Y028025D01*
X018199Y027775D02*
X018449Y028025D01*
X018449Y029525D01*
X018199Y029775D01*
X017699Y029775D01*
X017449Y029525D01*
X017199Y029775D02*
X017449Y030025D01*
X017449Y031525D01*
X017199Y031775D01*
X016699Y031775D01*
X016449Y031525D01*
X016449Y030025D01*
X016199Y029775D01*
X015699Y029775D01*
X015449Y029525D01*
X015199Y029775D02*
X014699Y029775D01*
X014449Y030025D01*
X014449Y031525D01*
X014199Y031775D01*
X013699Y031775D01*
X013449Y031525D01*
X014449Y031525D02*
X014699Y031775D01*
X015199Y031775D01*
X015449Y031525D01*
X015449Y030025D01*
X015199Y029775D01*
X015449Y030025D02*
X015699Y029775D01*
X016199Y029775D01*
X016449Y029525D01*
X016699Y029775D02*
X016449Y030025D01*
X016699Y029775D02*
X017199Y029775D01*
X017449Y030025D02*
X017699Y029775D01*
X018199Y029775D01*
X018449Y030025D01*
X018449Y031525D01*
X018199Y031775D01*
X017699Y031775D01*
X017449Y031525D01*
X016449Y031525D02*
X016199Y031775D01*
X015699Y031775D01*
X015449Y031525D01*
X014449Y030025D02*
X014199Y029775D01*
X013699Y029775D01*
X013449Y029525D01*
X013699Y029775D02*
X013449Y030025D01*
X013699Y029775D02*
X014199Y029775D01*
X014449Y029525D01*
X005949Y026525D02*
X005949Y026025D01*
X005699Y025775D01*
X004199Y025775D01*
X003949Y025525D01*
X003949Y025025D01*
X003699Y024775D01*
X002199Y024775D01*
X001949Y024525D01*
X001949Y024025D01*
X002199Y023775D01*
X003699Y023775D01*
X003949Y023525D01*
X003949Y023025D01*
X003699Y022775D01*
X002199Y022775D01*
X001949Y022525D01*
X001949Y022025D01*
X002199Y021775D01*
X003699Y021775D01*
X003949Y021525D01*
X003949Y021025D01*
X003699Y020775D01*
X002199Y020775D01*
X001949Y020525D01*
X001949Y020025D01*
X002199Y019775D01*
X003699Y019775D01*
X003949Y020025D01*
X003949Y020525D01*
X003699Y020775D01*
X003949Y021025D02*
X004199Y020775D01*
X005699Y020775D01*
X005949Y020525D01*
X005949Y020025D01*
X005699Y019775D01*
X004199Y019775D01*
X003949Y019525D01*
X003699Y019775D01*
X003949Y019525D02*
X003949Y019025D01*
X003699Y018775D01*
X002199Y018775D01*
X001949Y018525D01*
X001949Y018025D01*
X002199Y017775D01*
X003699Y017775D01*
X003949Y018025D01*
X003949Y018525D01*
X003699Y018775D01*
X003949Y018525D02*
X003949Y018025D01*
X004199Y017775D01*
X005699Y017775D01*
X005949Y018025D01*
X005949Y018525D01*
X005699Y018775D01*
X004199Y018775D01*
X003949Y018525D01*
X004199Y018775D02*
X003949Y019025D01*
X003949Y019525D01*
X004199Y019775D02*
X003949Y020025D01*
X003949Y020525D01*
X004199Y020775D01*
X003949Y021025D02*
X003949Y021525D01*
X004199Y021775D01*
X005699Y021775D01*
X005949Y021525D01*
X005949Y021025D01*
X005699Y020775D01*
X005699Y019775D02*
X005949Y019525D01*
X005949Y019025D01*
X005699Y018775D01*
X005699Y017775D02*
X005949Y017525D01*
X005949Y017025D01*
X005699Y016775D01*
X004199Y016775D01*
X003949Y016525D01*
X003699Y016775D01*
X002199Y016775D01*
X001949Y016525D01*
X001949Y016025D01*
X002199Y015775D01*
X003699Y015775D01*
X003949Y016025D01*
X003949Y016525D01*
X003949Y016025D01*
X004199Y015775D01*
X005699Y015775D01*
X005949Y016025D01*
X005949Y016525D01*
X005699Y016775D01*
X005699Y015775D02*
X005949Y015525D01*
X005949Y015025D01*
X005699Y014775D01*
X004199Y014775D01*
X003949Y014525D01*
X003699Y014775D01*
X002199Y014775D01*
X001949Y014525D01*
X001949Y014025D01*
X002199Y013775D01*
X003699Y013775D01*
X003949Y014025D01*
X003949Y014525D01*
X003949Y014025D01*
X004199Y013775D01*
X005699Y013775D01*
X005949Y014025D01*
X005949Y014525D01*
X005699Y014775D01*
X005699Y013775D02*
X005949Y013525D01*
X005949Y013025D01*
X005699Y012775D01*
X004199Y012775D01*
X003949Y012525D01*
X003699Y012775D01*
X002199Y012775D01*
X001949Y012525D01*
X001949Y012025D01*
X002199Y011775D01*
X003699Y011775D01*
X003949Y012025D01*
X003949Y012525D01*
X003949Y012025D01*
X004199Y011775D01*
X005699Y011775D01*
X005949Y012025D01*
X005949Y012525D01*
X005699Y012775D01*
X004199Y012775D02*
X003949Y013025D01*
X003949Y013525D01*
X003699Y013775D01*
X003949Y013525D02*
X003949Y013025D01*
X003699Y012775D01*
X003949Y013525D02*
X004199Y013775D01*
X004199Y014775D02*
X003949Y015025D01*
X003949Y015525D01*
X003699Y015775D01*
X003949Y015525D02*
X003949Y015025D01*
X003699Y014775D01*
X003949Y015525D02*
X004199Y015775D01*
X004199Y016775D02*
X003949Y017025D01*
X003949Y017525D01*
X003699Y017775D01*
X003949Y017525D02*
X003949Y017025D01*
X003699Y016775D01*
X003949Y017525D02*
X004199Y017775D01*
X002199Y017775D02*
X001949Y017525D01*
X001949Y017025D01*
X002199Y016775D01*
X002199Y015775D02*
X001949Y015525D01*
X001949Y015025D01*
X002199Y014775D01*
X002199Y013775D02*
X001949Y013525D01*
X001949Y013025D01*
X002199Y012775D01*
X002199Y018775D02*
X001949Y019025D01*
X001949Y019525D01*
X002199Y019775D01*
X002199Y020775D02*
X001949Y021025D01*
X001949Y021525D01*
X002199Y021775D01*
X002199Y022775D02*
X001949Y023025D01*
X001949Y023525D01*
X002199Y023775D01*
X002199Y024775D02*
X001949Y025025D01*
X001949Y025525D01*
X002199Y025775D01*
X003699Y025775D01*
X003949Y025525D01*
X003949Y025025D01*
X004199Y024775D01*
X005699Y024775D01*
X005949Y024525D01*
X005949Y024025D01*
X005699Y023775D01*
X004199Y023775D01*
X003949Y023525D01*
X003949Y023025D01*
X004199Y022775D01*
X005699Y022775D01*
X005949Y022525D01*
X005949Y022025D01*
X005699Y021775D01*
X005699Y022775D02*
X005949Y023025D01*
X005949Y023525D01*
X005699Y023775D01*
X005699Y024775D02*
X005949Y025025D01*
X005949Y025525D01*
X005699Y025775D01*
X005949Y026525D02*
X005699Y026775D01*
X004199Y026775D01*
X003949Y026525D01*
X003949Y026025D01*
X003699Y025775D01*
X003949Y026025D02*
X004199Y025775D01*
X003949Y026025D02*
X003949Y026525D01*
X003699Y026775D01*
X002199Y026775D01*
X001949Y026525D01*
X001949Y026025D01*
X002199Y025775D01*
X003699Y024775D02*
X003949Y024525D01*
X003949Y024025D01*
X003699Y023775D01*
X003949Y024025D02*
X004199Y023775D01*
X003949Y024025D02*
X003949Y024525D01*
X004199Y024775D01*
X004199Y022775D02*
X003949Y022525D01*
X003949Y022025D01*
X003699Y021775D01*
X003949Y022025D02*
X004199Y021775D01*
X003949Y022025D02*
X003949Y022525D01*
X003699Y022775D01*
X003703Y030305D02*
X004130Y030305D01*
X003916Y030305D02*
X003916Y030946D01*
X004130Y030732D01*
X004347Y030625D02*
X004775Y030625D01*
X004992Y030625D02*
X005312Y030625D01*
X005419Y030732D01*
X005419Y030839D01*
X005312Y030946D01*
X005099Y030946D01*
X004992Y030839D01*
X004992Y030412D01*
X005099Y030305D01*
X005312Y030305D01*
X005419Y030412D01*
X003485Y030305D02*
X003058Y030732D01*
X003058Y030839D01*
X003165Y030946D01*
X003379Y030946D01*
X003485Y030839D01*
X003485Y030305D02*
X003058Y030305D01*
X002841Y030519D02*
X002627Y030305D01*
X002414Y030519D01*
X002414Y030946D01*
X002841Y030946D02*
X002841Y030519D01*
D12*
X002449Y026275D03*
X002449Y025275D03*
X002449Y024275D03*
X002449Y023275D03*
X002449Y022275D03*
X002449Y021275D03*
X002449Y020275D03*
X002449Y019275D03*
X002449Y018275D03*
X002449Y017275D03*
X002449Y016275D03*
X002449Y015275D03*
X002449Y014275D03*
X002449Y013275D03*
X002449Y012275D03*
X003449Y012275D03*
X003449Y013275D03*
X003449Y014275D03*
X003449Y015275D03*
X003449Y016275D03*
X003449Y017275D03*
X003449Y018275D03*
X003449Y019275D03*
X003449Y020275D03*
X003449Y021275D03*
X003449Y022275D03*
X003449Y023275D03*
X003449Y024275D03*
X003449Y025275D03*
X003449Y026275D03*
X004449Y026275D03*
X004449Y025275D03*
X004449Y024275D03*
X004449Y023275D03*
X004449Y022275D03*
X004449Y021275D03*
X004449Y020275D03*
X004449Y019275D03*
X004449Y018275D03*
X004449Y017275D03*
X004449Y016275D03*
X004449Y015275D03*
X004449Y014275D03*
X004449Y013275D03*
X004449Y012275D03*
X005449Y012275D03*
X005449Y013275D03*
X005449Y014275D03*
X005449Y015275D03*
X005449Y016275D03*
X005449Y017275D03*
X005449Y018275D03*
X005449Y019275D03*
X005449Y020275D03*
X005449Y021275D03*
X005449Y022275D03*
X005449Y023275D03*
X005449Y024275D03*
X005449Y025275D03*
X005449Y026275D03*
X008949Y028275D03*
X008949Y029275D03*
X008949Y030275D03*
X008949Y031275D03*
X009949Y031275D03*
X009949Y030275D03*
X009949Y029275D03*
X009949Y028275D03*
X010949Y028275D03*
X010949Y029275D03*
X010949Y030275D03*
X010949Y031275D03*
X011949Y031275D03*
X011949Y030275D03*
X011949Y029275D03*
X011949Y028275D03*
X012949Y028275D03*
X012949Y029275D03*
X012949Y030275D03*
X012949Y031275D03*
X013949Y031275D03*
X013949Y030275D03*
X013949Y029275D03*
X013949Y028275D03*
X014949Y028275D03*
X014949Y029275D03*
X014949Y030275D03*
X014949Y031275D03*
X015949Y031275D03*
X015949Y030275D03*
X015949Y029275D03*
X015949Y028275D03*
X016949Y028275D03*
X016949Y029275D03*
X016949Y030275D03*
X016949Y031275D03*
X017949Y031275D03*
X017949Y030275D03*
X017949Y029275D03*
X017949Y028275D03*
X014949Y005275D03*
X014949Y004275D03*
X014949Y003275D03*
X014949Y002275D03*
X013949Y002275D03*
X013949Y003275D03*
X013949Y004275D03*
X013949Y005275D03*
X012949Y005275D03*
X012949Y004275D03*
X012949Y003275D03*
X012949Y002275D03*
X011949Y002275D03*
X011949Y003275D03*
X011949Y004275D03*
X011949Y005275D03*
D13*
X013743Y005925D02*
X014043Y005925D01*
X013743Y006225D01*
X013743Y006300D01*
X013818Y006375D01*
X013968Y006375D01*
X014043Y006300D01*
X014353Y006375D02*
X014353Y005925D01*
X014503Y005925D02*
X014203Y005925D01*
X014503Y006225D02*
X014353Y006375D01*
X014663Y006300D02*
X014663Y006150D01*
X014738Y006075D01*
X014964Y006075D01*
X014964Y005925D02*
X014964Y006375D01*
X014738Y006375D01*
X014663Y006300D01*
X015124Y006375D02*
X015274Y006375D01*
X015199Y006375D02*
X015199Y006000D01*
X015274Y005925D01*
X015349Y005925D01*
X015424Y006000D01*
X015274Y001625D02*
X015124Y001625D01*
X015199Y001625D02*
X015199Y001250D01*
X015274Y001175D01*
X015349Y001175D01*
X015424Y001250D01*
X014964Y001175D02*
X014964Y001625D01*
X014738Y001625D01*
X014663Y001550D01*
X014663Y001400D01*
X014738Y001325D01*
X014964Y001325D01*
X014503Y001250D02*
X014428Y001175D01*
X014278Y001175D01*
X014203Y001250D01*
X014203Y001325D01*
X014278Y001400D01*
X014503Y001400D01*
X014503Y001250D01*
X014503Y001400D02*
X014353Y001550D01*
X014203Y001625D01*
X021174Y009944D02*
X021099Y010019D01*
X021099Y010169D01*
X021174Y010244D01*
X021099Y010404D02*
X021099Y010704D01*
X021099Y010554D02*
X021549Y010554D01*
X021399Y010404D01*
X021474Y010244D02*
X021549Y010169D01*
X021549Y010019D01*
X021474Y009944D01*
X021174Y009944D01*
X021674Y009972D02*
X021674Y010273D01*
X021674Y010122D02*
X022124Y010122D01*
X021974Y009972D01*
X022049Y009812D02*
X021749Y009512D01*
X021674Y009587D01*
X021674Y009737D01*
X021749Y009812D01*
X022049Y009812D01*
X022124Y009737D01*
X022124Y009587D01*
X022049Y009512D01*
X021749Y009512D01*
X021749Y009357D02*
X021674Y009357D01*
X021674Y009282D01*
X021749Y009282D01*
X021749Y009357D01*
X021749Y009122D02*
X021674Y009046D01*
X021674Y008896D01*
X021749Y008821D01*
X022049Y009122D01*
X021749Y009122D01*
X022049Y009122D02*
X022124Y009046D01*
X022124Y008896D01*
X022049Y008821D01*
X021749Y008821D01*
X021749Y010433D02*
X021674Y010508D01*
X021674Y010733D01*
X021974Y010733D01*
X021899Y010893D02*
X021899Y011043D01*
X022049Y010968D02*
X022124Y011043D01*
X022049Y010968D02*
X021674Y010968D01*
X021549Y010940D02*
X021549Y011090D01*
X021474Y011165D01*
X021399Y011165D01*
X021099Y010865D01*
X021099Y011165D01*
X021474Y010865D02*
X021549Y010940D01*
X021749Y010433D02*
X021974Y010433D01*
X021924Y011525D02*
X021849Y011600D01*
X021849Y011750D01*
X021924Y011825D01*
X021849Y011985D02*
X021849Y012286D01*
X021849Y012136D02*
X022299Y012136D01*
X022149Y011985D01*
X022224Y011825D02*
X022299Y011750D01*
X022299Y011600D01*
X022224Y011525D01*
X021924Y011525D01*
X022074Y012446D02*
X022074Y012746D01*
X022049Y012946D02*
X021749Y012946D01*
X022049Y013247D01*
X021749Y013247D01*
X021674Y013171D01*
X021674Y013021D01*
X021749Y012946D01*
X021849Y012671D02*
X022299Y012671D01*
X022074Y012446D01*
X022049Y012946D02*
X022124Y013021D01*
X022124Y013171D01*
X022049Y013247D01*
X021749Y013407D02*
X021749Y013482D01*
X021674Y013482D01*
X021674Y013407D01*
X021749Y013407D01*
X021749Y013637D02*
X022049Y013937D01*
X021749Y013937D01*
X021674Y013862D01*
X021674Y013712D01*
X021749Y013637D01*
X022049Y013637D01*
X022124Y013712D01*
X022124Y013862D01*
X022049Y013937D01*
X021974Y014097D02*
X022124Y014247D01*
X021674Y014247D01*
X021674Y014097D02*
X021674Y014398D01*
X021749Y014558D02*
X021674Y014633D01*
X021674Y014858D01*
X021974Y014858D01*
X021899Y015018D02*
X021899Y015168D01*
X022049Y015093D02*
X022124Y015168D01*
X022049Y015093D02*
X021674Y015093D01*
X021349Y014872D02*
X021274Y014797D01*
X020899Y014797D01*
X020899Y014562D02*
X021199Y014562D01*
X021124Y014722D02*
X021124Y014872D01*
X020899Y014562D02*
X020899Y014336D01*
X020974Y014261D01*
X021199Y014261D01*
X020899Y014101D02*
X020899Y013801D01*
X020899Y013951D02*
X021349Y013951D01*
X021199Y013801D01*
X021274Y013641D02*
X020974Y013341D01*
X020899Y013416D01*
X020899Y013566D01*
X020974Y013641D01*
X021274Y013641D01*
X021349Y013566D01*
X021349Y013416D01*
X021274Y013341D01*
X020974Y013341D01*
X020974Y013185D02*
X020899Y013185D01*
X020899Y013110D01*
X020974Y013110D01*
X020974Y013185D01*
X020974Y012950D02*
X020899Y012875D01*
X020899Y012725D01*
X020974Y012650D01*
X021274Y012950D01*
X020974Y012950D01*
X020974Y012650D02*
X021274Y012650D01*
X021349Y012725D01*
X021349Y012875D01*
X021274Y012950D01*
X020599Y014319D02*
X020299Y014319D01*
X020224Y014394D01*
X020224Y014544D01*
X020299Y014619D01*
X020224Y014779D02*
X020224Y015079D01*
X020224Y014929D02*
X020674Y014929D01*
X020524Y014779D01*
X020599Y014619D02*
X020674Y014544D01*
X020674Y014394D01*
X020599Y014319D01*
X020674Y015240D02*
X020674Y015540D01*
X020599Y015540D01*
X020299Y015240D01*
X020224Y015240D01*
X020149Y015775D02*
X019849Y015775D01*
X020149Y016075D01*
X019849Y016075D01*
X019774Y016000D01*
X019774Y015850D01*
X019849Y015775D01*
X020149Y015775D02*
X020224Y015850D01*
X020224Y016000D01*
X020149Y016075D01*
X019849Y016235D02*
X019849Y016310D01*
X019774Y016310D01*
X019774Y016235D01*
X019849Y016235D01*
X019849Y016466D02*
X020149Y016766D01*
X019849Y016766D01*
X019774Y016691D01*
X019774Y016541D01*
X019849Y016466D01*
X020149Y016466D01*
X020224Y016541D01*
X020224Y016691D01*
X020149Y016766D01*
X020074Y016926D02*
X020224Y017076D01*
X019774Y017076D01*
X019774Y016926D02*
X019774Y017226D01*
X019849Y017386D02*
X019774Y017461D01*
X019774Y017687D01*
X020074Y017687D01*
X019999Y017847D02*
X019999Y017997D01*
X020149Y017922D02*
X020224Y017997D01*
X020149Y017922D02*
X019774Y017922D01*
X019849Y017386D02*
X020074Y017386D01*
X020674Y017771D02*
X020749Y017696D01*
X021049Y017997D01*
X020749Y017997D01*
X020674Y017921D01*
X020674Y017771D01*
X020749Y017696D02*
X021049Y017696D01*
X021124Y017771D01*
X021124Y017921D01*
X021049Y017997D01*
X020749Y018157D02*
X020749Y018232D01*
X020674Y018232D01*
X020674Y018157D01*
X020749Y018157D01*
X020749Y018387D02*
X021049Y018687D01*
X020749Y018687D01*
X020674Y018612D01*
X020674Y018462D01*
X020749Y018387D01*
X021049Y018387D01*
X021124Y018462D01*
X021124Y018612D01*
X021049Y018687D01*
X020974Y018847D02*
X021124Y018997D01*
X020674Y018997D01*
X020674Y018847D02*
X020674Y019148D01*
X020749Y019308D02*
X020674Y019383D01*
X020674Y019608D01*
X020974Y019608D01*
X020899Y019768D02*
X020899Y019918D01*
X021049Y019843D02*
X021124Y019918D01*
X021049Y019843D02*
X020674Y019843D01*
X020749Y019308D02*
X020974Y019308D01*
X021649Y019291D02*
X021724Y019216D01*
X022024Y019516D01*
X021724Y019516D01*
X021649Y019441D01*
X021649Y019291D01*
X021724Y019216D02*
X022024Y019216D01*
X022099Y019291D01*
X022099Y019441D01*
X022024Y019516D01*
X021949Y019676D02*
X022099Y019826D01*
X021649Y019826D01*
X021649Y019676D02*
X021649Y019976D01*
X021724Y020136D02*
X021649Y020211D01*
X021649Y020437D01*
X021949Y020437D01*
X021874Y020597D02*
X021874Y020747D01*
X022024Y020672D02*
X022099Y020747D01*
X022024Y020672D02*
X021649Y020672D01*
X021724Y020136D02*
X021949Y020136D01*
X022224Y020161D02*
X022224Y019860D01*
X022224Y020011D02*
X022674Y020011D01*
X022524Y019860D01*
X022599Y019700D02*
X022674Y019625D01*
X022674Y019475D01*
X022599Y019400D01*
X022299Y019400D01*
X022224Y019475D01*
X022224Y019625D01*
X022299Y019700D01*
X022299Y020321D02*
X022224Y020396D01*
X022224Y020546D01*
X022299Y020621D01*
X022449Y020621D01*
X022524Y020546D01*
X022524Y020471D01*
X022449Y020321D01*
X022674Y020321D01*
X022674Y020621D01*
X021724Y019060D02*
X021649Y019060D01*
X021649Y018985D01*
X021724Y018985D01*
X021724Y019060D01*
X021724Y018825D02*
X021649Y018750D01*
X021649Y018600D01*
X021724Y018525D01*
X022024Y018825D01*
X021724Y018825D01*
X021724Y018525D02*
X022024Y018525D01*
X022099Y018600D01*
X022099Y018750D01*
X022024Y018825D01*
X021999Y018040D02*
X021924Y018040D01*
X021849Y017965D01*
X021849Y017815D01*
X021924Y017740D01*
X021849Y017579D02*
X021849Y017279D01*
X021849Y017429D02*
X022299Y017429D01*
X022149Y017279D01*
X022224Y017119D02*
X022299Y017044D01*
X022299Y016894D01*
X022224Y016819D01*
X021924Y016819D01*
X021849Y016894D01*
X021849Y017044D01*
X021924Y017119D01*
X021924Y016665D02*
X021999Y016665D01*
X022074Y016590D01*
X022074Y016365D01*
X021924Y016365D01*
X021849Y016440D01*
X021849Y016590D01*
X021924Y016665D01*
X022224Y016515D02*
X022074Y016365D01*
X022224Y016515D02*
X022299Y016665D01*
X022299Y016054D02*
X021849Y016054D01*
X021849Y015904D02*
X021849Y016204D01*
X021924Y015744D02*
X021849Y015669D01*
X021849Y015519D01*
X021924Y015444D01*
X022224Y015444D01*
X022299Y015519D01*
X022299Y015669D01*
X022224Y015744D01*
X022149Y015904D02*
X022299Y016054D01*
X021974Y014558D02*
X021749Y014558D01*
X022224Y017740D02*
X022299Y017815D01*
X022299Y017965D01*
X022224Y018040D01*
X022149Y018040D01*
X022074Y017965D01*
X021999Y018040D01*
X022074Y017965D02*
X022074Y017890D01*
X013949Y013400D02*
X013951Y013431D01*
X013957Y013462D01*
X013967Y013492D01*
X013980Y013520D01*
X013997Y013547D01*
X014017Y013571D01*
X014040Y013593D01*
X014065Y013611D01*
X014093Y013626D01*
X014122Y013638D01*
X014152Y013646D01*
X014183Y013650D01*
X014215Y013650D01*
X014246Y013646D01*
X014276Y013638D01*
X014305Y013626D01*
X014333Y013611D01*
X014358Y013593D01*
X014381Y013571D01*
X014401Y013547D01*
X014418Y013520D01*
X014431Y013492D01*
X014441Y013462D01*
X014447Y013431D01*
X014449Y013400D01*
X014447Y013369D01*
X014441Y013338D01*
X014431Y013308D01*
X014418Y013280D01*
X014401Y013253D01*
X014381Y013229D01*
X014358Y013207D01*
X014333Y013189D01*
X014305Y013174D01*
X014276Y013162D01*
X014246Y013154D01*
X014215Y013150D01*
X014183Y013150D01*
X014152Y013154D01*
X014122Y013162D01*
X014093Y013174D01*
X014065Y013189D01*
X014040Y013207D01*
X014017Y013229D01*
X013997Y013253D01*
X013980Y013280D01*
X013967Y013308D01*
X013957Y013338D01*
X013951Y013369D01*
X013949Y013400D01*
X003674Y025569D02*
X003674Y025719D01*
X003674Y025644D02*
X003299Y025644D01*
X003224Y025569D01*
X003224Y025494D01*
X003299Y025419D01*
X003224Y025879D02*
X003674Y025879D01*
X003674Y026104D01*
X003599Y026179D01*
X003449Y026179D01*
X003374Y026104D01*
X003374Y025879D01*
X003449Y026340D02*
X003449Y026640D01*
X003224Y026565D02*
X003674Y026565D01*
X003449Y026340D01*
X001674Y026340D02*
X001449Y026340D01*
X001524Y026490D01*
X001524Y026565D01*
X001449Y026640D01*
X001299Y026640D01*
X001224Y026565D01*
X001224Y026415D01*
X001299Y026340D01*
X001449Y026179D02*
X001374Y026104D01*
X001374Y025879D01*
X001224Y025879D02*
X001674Y025879D01*
X001674Y026104D01*
X001599Y026179D01*
X001449Y026179D01*
X001674Y026340D02*
X001674Y026640D01*
X001674Y025719D02*
X001674Y025569D01*
X001674Y025644D02*
X001299Y025644D01*
X001224Y025569D01*
X001224Y025494D01*
X001299Y025419D01*
X017203Y030050D02*
X017503Y030050D01*
X017203Y030350D01*
X017203Y030425D01*
X017278Y030500D01*
X017428Y030500D01*
X017503Y030425D01*
X017663Y030425D02*
X017738Y030500D01*
X017964Y030500D01*
X017964Y030050D01*
X017964Y030200D02*
X017738Y030200D01*
X017663Y030275D01*
X017663Y030425D01*
X018124Y030500D02*
X018274Y030500D01*
X018199Y030500D02*
X018199Y030125D01*
X018274Y030050D01*
X018349Y030050D01*
X018424Y030125D01*
D14*
X014697Y013595D02*
X014500Y013595D01*
X014500Y010205D01*
X014697Y010205D01*
X014697Y013595D01*
X014500Y013595D02*
X013201Y013595D01*
X013201Y010205D01*
X014500Y010205D01*
X020996Y008512D02*
X020996Y003788D01*
X021390Y003788D01*
X022571Y003788D02*
X025327Y003788D01*
X025327Y008512D01*
X022571Y008512D01*
X021390Y008512D02*
X020996Y008512D01*
X025327Y008512D02*
X025327Y007922D01*
X025721Y007922D01*
X025721Y007331D01*
X026508Y007331D01*
X026508Y004969D01*
X025721Y004969D01*
X025721Y004378D01*
X025327Y004378D01*
X025327Y003788D01*
X005652Y005387D02*
X005652Y000663D01*
X005258Y000663D01*
X004077Y000663D02*
X001321Y000663D01*
X001321Y005387D01*
X004077Y005387D01*
X004077Y006163D02*
X001321Y006163D01*
X001321Y010887D01*
X004077Y010887D01*
X005258Y010887D02*
X005652Y010887D01*
X005652Y006163D01*
X005258Y006163D01*
X005258Y005387D02*
X005652Y005387D01*
X001321Y005387D02*
X001321Y004797D01*
X000927Y004797D01*
X000927Y004206D01*
X000140Y004206D01*
X000140Y001844D01*
X000927Y001844D01*
X000927Y001253D01*
X001321Y001253D01*
X001321Y000663D01*
X001321Y006163D02*
X001321Y006753D01*
X000927Y006753D01*
X000927Y007344D01*
X000140Y007344D01*
X000140Y009706D01*
X000927Y009706D01*
X000927Y010297D01*
X001321Y010297D01*
X001321Y010887D01*
D15*
X002348Y002005D02*
X002348Y001919D01*
X002695Y001572D01*
X002695Y001485D01*
X002950Y001658D02*
X002863Y001745D01*
X002863Y001919D01*
X002950Y002005D01*
X003210Y002005D01*
X003210Y001485D01*
X003210Y001658D02*
X002950Y001658D01*
X002695Y002005D02*
X002348Y002005D01*
X003379Y002005D02*
X003552Y002005D01*
X003466Y002005D02*
X003466Y001572D01*
X003552Y001485D01*
X003639Y001485D01*
X003726Y001572D01*
X012570Y009372D02*
X012647Y009295D01*
X012800Y009295D01*
X012877Y009372D01*
X013031Y009372D02*
X013107Y009295D01*
X013261Y009295D01*
X013337Y009372D01*
X013337Y009525D02*
X013184Y009602D01*
X013107Y009602D01*
X013031Y009525D01*
X013031Y009372D01*
X012877Y009602D02*
X012800Y009525D01*
X012570Y009525D01*
X012570Y009372D02*
X012570Y009679D01*
X012647Y009755D01*
X012800Y009755D01*
X012877Y009679D01*
X012877Y009602D01*
X013031Y009755D02*
X013337Y009755D01*
X013337Y009525D01*
X013491Y009448D02*
X013568Y009525D01*
X013798Y009525D01*
X013798Y009372D01*
X013721Y009295D01*
X013568Y009295D01*
X013491Y009372D01*
X013491Y009448D01*
X013644Y009679D02*
X013491Y009755D01*
X013644Y009679D02*
X013798Y009525D01*
X013951Y009448D02*
X013951Y009372D01*
X014028Y009295D01*
X014182Y009295D01*
X014258Y009372D01*
X014258Y009448D01*
X014182Y009525D01*
X014028Y009525D01*
X013951Y009448D01*
X014028Y009525D02*
X013951Y009602D01*
X013951Y009679D01*
X014028Y009755D01*
X014182Y009755D01*
X014258Y009679D01*
X014258Y009602D01*
X014182Y009525D01*
X014412Y009372D02*
X014488Y009295D01*
X014719Y009295D01*
X014719Y009755D01*
X014488Y009755D01*
X014412Y009679D01*
X014412Y009372D01*
X014872Y009295D02*
X014872Y009602D01*
X015026Y009755D01*
X015179Y009602D01*
X015179Y009295D01*
X015179Y009525D02*
X014872Y009525D01*
X014554Y014170D02*
X014401Y014170D01*
X014477Y014170D02*
X014477Y014630D01*
X014401Y014630D02*
X014554Y014630D01*
X014247Y014554D02*
X014247Y014247D01*
X014170Y014170D01*
X014017Y014170D01*
X013940Y014247D01*
X013787Y014400D02*
X013480Y014400D01*
X013557Y014170D02*
X013557Y014630D01*
X013787Y014400D01*
X013940Y014554D02*
X014017Y014630D01*
X014170Y014630D01*
X014247Y014554D01*
X023051Y007604D02*
X023051Y007517D01*
X023138Y007430D01*
X023311Y007430D01*
X023398Y007517D01*
X023398Y007604D01*
X023311Y007690D01*
X023138Y007690D01*
X023051Y007604D01*
X023138Y007430D02*
X023051Y007343D01*
X023051Y007257D01*
X023138Y007170D01*
X023311Y007170D01*
X023398Y007257D01*
X023398Y007343D01*
X023311Y007430D01*
X023566Y007430D02*
X023653Y007343D01*
X023913Y007343D01*
X023913Y007170D02*
X023913Y007690D01*
X023653Y007690D01*
X023566Y007604D01*
X023566Y007430D01*
X024082Y007690D02*
X024256Y007690D01*
X024169Y007690D02*
X024169Y007257D01*
X024256Y007170D01*
X024342Y007170D01*
X024429Y007257D01*
X008571Y032415D02*
X006327Y032415D01*
X006327Y033635D01*
X008571Y033635D01*
X008571Y032415D01*
D16*
X002733Y007520D02*
X002683Y007520D01*
X002708Y007520D02*
X002708Y007395D01*
X002733Y007370D01*
X002758Y007370D01*
X002783Y007395D01*
X002636Y007370D02*
X002636Y007520D01*
X002561Y007520D01*
X002536Y007495D01*
X002536Y007445D01*
X002561Y007420D01*
X002636Y007420D01*
X002489Y007370D02*
X002389Y007370D01*
X002439Y007370D02*
X002439Y007520D01*
X002489Y007470D01*
X002341Y007495D02*
X002316Y007520D01*
X002266Y007520D01*
X002241Y007495D01*
X002341Y007395D01*
X002316Y007370D01*
X002266Y007370D01*
X002241Y007395D01*
X002241Y007495D01*
X002341Y007495D02*
X002341Y007395D01*
D17*
X006307Y033025D03*
X008591Y033025D03*
D18*
X006514Y033025D03*
D19*
X006611Y033140D02*
X006734Y033140D01*
X006796Y033202D01*
X006549Y033449D01*
X006549Y033202D01*
X006611Y033140D01*
X006796Y033202D02*
X006796Y033449D01*
X006734Y033510D01*
X006611Y033510D01*
X006549Y033449D01*
X006427Y033387D02*
X006304Y033140D01*
X006180Y033387D01*
X006917Y033140D02*
X007164Y033140D01*
X007041Y033140D02*
X007041Y033510D01*
X007164Y033387D01*
X007285Y033078D02*
X007532Y033078D01*
X007716Y033140D02*
X007716Y033449D01*
X007654Y033510D01*
X007654Y033325D02*
X007778Y033325D01*
X007899Y033387D02*
X007899Y033140D01*
X008084Y033140D01*
X008146Y033202D01*
X008146Y033387D01*
X008268Y033387D02*
X008514Y033140D01*
X008268Y033140D01*
X008268Y033387D02*
X008268Y033449D01*
X008329Y033510D01*
X008453Y033510D01*
X008514Y033449D01*
X008636Y033449D02*
X008698Y033510D01*
X008821Y033510D01*
X008883Y033449D01*
X008636Y033449D02*
X008636Y033387D01*
X008883Y033140D01*
X008636Y033140D01*
X007296Y032199D02*
X007296Y031952D01*
X007234Y031890D01*
X007111Y031890D01*
X007049Y031952D01*
X006927Y031952D02*
X006866Y031890D01*
X006742Y031890D01*
X006680Y031952D01*
X006680Y032013D01*
X006742Y032075D01*
X006927Y032075D01*
X006927Y031952D01*
X006927Y032075D02*
X006804Y032199D01*
X006680Y032260D01*
X007049Y032199D02*
X007111Y032260D01*
X007234Y032260D01*
X007296Y032199D01*
D20*
X012945Y013400D03*
X012945Y012900D03*
X012945Y012400D03*
X012945Y011900D03*
X012945Y011400D03*
X012945Y010900D03*
X012945Y010400D03*
X014953Y010400D03*
X014953Y010900D03*
X014953Y011400D03*
X014953Y011900D03*
X014953Y012400D03*
X014953Y012900D03*
X014953Y013400D03*
D21*
X023524Y013800D02*
X023824Y013800D01*
X024124Y013800D01*
X024124Y014000D02*
X023824Y014000D01*
X023524Y014000D01*
X023524Y015675D02*
X023824Y015675D01*
X024124Y015675D01*
X024124Y015875D02*
X023824Y015875D01*
X023524Y015875D01*
X023524Y017425D02*
X023824Y017425D01*
X024124Y017425D01*
X024124Y017625D02*
X023824Y017625D01*
X023524Y017625D01*
X023524Y019300D02*
X023824Y019300D01*
X024124Y019300D01*
X024124Y019500D02*
X023824Y019500D01*
X023524Y019500D01*
X023524Y012000D02*
X023824Y012000D01*
X024124Y012000D01*
X024124Y011800D02*
X023824Y011800D01*
X023524Y011800D01*
X023524Y010125D02*
X023824Y010125D01*
X024124Y010125D01*
X024124Y009925D02*
X023824Y009925D01*
X023524Y009925D01*
M02*
