G75*
%MOIN*%
%OFA0B0*%
%FSLAX24Y24*%
%IPPOS*%
%LPD*%
%AMOC8*
5,1,8,0,0,1.08239X$1,22.5*
%
%ADD10C,0.0600*%
%ADD11C,0.1095*%
%ADD12C,0.0709*%
%ADD13C,0.0768*%
%ADD14C,0.1266*%
%ADD15C,0.1004*%
%ADD16C,0.0520*%
%ADD17C,0.0554*%
%ADD18C,0.0594*%
%ADD19C,0.0396*%
%ADD20C,0.0320*%
D10*
X002449Y012275D03*
X002449Y013275D03*
X002449Y014275D03*
X002449Y015275D03*
X002449Y016275D03*
X002449Y017275D03*
X002449Y018275D03*
X002449Y019275D03*
X002449Y020275D03*
X002449Y021275D03*
X002449Y022275D03*
X002449Y023275D03*
X002449Y024275D03*
X002449Y025275D03*
X002449Y026275D03*
X003449Y026275D03*
X003449Y025275D03*
X003449Y024275D03*
X003449Y023275D03*
X003449Y022275D03*
X003449Y021275D03*
X003449Y020275D03*
X003449Y019275D03*
X003449Y018275D03*
X003449Y017275D03*
X003449Y016275D03*
X003449Y015275D03*
X003449Y014275D03*
X003449Y013275D03*
X003449Y012275D03*
X004449Y012275D03*
X004449Y013275D03*
X004449Y014275D03*
X004449Y015275D03*
X004449Y016275D03*
X004449Y017275D03*
X004449Y018275D03*
X004449Y019275D03*
X004449Y020275D03*
X004449Y021275D03*
X004449Y022275D03*
X004449Y023275D03*
X004449Y024275D03*
X004449Y025275D03*
X004449Y026275D03*
X005449Y026275D03*
X005449Y025275D03*
X005449Y024275D03*
X005449Y023275D03*
X005449Y022275D03*
X005449Y021275D03*
X005449Y020275D03*
X005449Y019275D03*
X005449Y018275D03*
X005449Y017275D03*
X005449Y016275D03*
X005449Y015275D03*
X005449Y014275D03*
X005449Y013275D03*
X005449Y012275D03*
X011949Y005275D03*
X011949Y004275D03*
X011949Y003275D03*
X011949Y002275D03*
X012949Y002275D03*
X012949Y003275D03*
X012949Y004275D03*
X012949Y005275D03*
X013949Y005275D03*
X013949Y004275D03*
X013949Y003275D03*
X013949Y002275D03*
X014949Y002275D03*
X014949Y003275D03*
X014949Y004275D03*
X014949Y005275D03*
X022699Y009525D03*
X022699Y010525D03*
X022699Y011525D03*
X022699Y013400D03*
X022699Y014400D03*
X022699Y015400D03*
X022699Y017025D03*
X022699Y018025D03*
X022699Y019025D03*
X025074Y019025D03*
X025074Y018025D03*
X025074Y017025D03*
X024949Y015400D03*
X024949Y014400D03*
X024949Y013400D03*
X025074Y011525D03*
X025074Y010525D03*
X025074Y009525D03*
X024699Y002775D03*
X024699Y001775D03*
X023699Y001775D03*
X023699Y002775D03*
X022715Y022400D03*
X024683Y022400D03*
X024683Y025900D03*
X024699Y028025D03*
X023699Y028025D03*
X022699Y028025D03*
X021699Y028025D03*
X020699Y028025D03*
X022715Y025900D03*
X017949Y028275D03*
X017949Y029275D03*
X017949Y030275D03*
X017949Y031275D03*
X016949Y031275D03*
X016949Y030275D03*
X016949Y029275D03*
X016949Y028275D03*
X015949Y028275D03*
X014949Y028275D03*
X014949Y029275D03*
X014949Y030275D03*
X014949Y031275D03*
X015949Y031275D03*
X015949Y030275D03*
X015949Y029275D03*
X013949Y029275D03*
X013949Y028275D03*
X012949Y028275D03*
X012949Y029275D03*
X012949Y030275D03*
X012949Y031275D03*
X011949Y031275D03*
X010949Y031275D03*
X010949Y030275D03*
X010949Y029275D03*
X010949Y028275D03*
X011949Y028275D03*
X011949Y029275D03*
X011949Y030275D03*
X009949Y030275D03*
X009949Y029275D03*
X009949Y028275D03*
X008949Y028275D03*
X008949Y029275D03*
X008949Y030275D03*
X008949Y031275D03*
X009949Y031275D03*
X009624Y033060D03*
X010624Y033060D03*
X011624Y033060D03*
X012624Y033060D03*
X013949Y031275D03*
X013949Y030275D03*
X004074Y032025D03*
X003074Y032025D03*
X002074Y032025D03*
D11*
X007106Y024400D03*
X010793Y024400D03*
X010793Y016775D03*
X007106Y016775D03*
X007106Y009275D03*
X010793Y009275D03*
X017106Y009275D03*
X020793Y009275D03*
X020793Y016775D03*
X017106Y016775D03*
X017106Y024275D03*
X020793Y024275D03*
D12*
X019933Y021322D03*
X018949Y021322D03*
X017965Y021322D03*
X017965Y013822D03*
X018949Y013822D03*
X019933Y013822D03*
X019933Y006322D03*
X018949Y006322D03*
X017965Y006322D03*
X009933Y006322D03*
X008949Y006322D03*
X007965Y006322D03*
X007965Y013822D03*
X008949Y013822D03*
X009933Y013822D03*
X009933Y021447D03*
X008949Y021447D03*
X007965Y021447D03*
D13*
X004668Y010494D03*
X004668Y009509D03*
X004668Y007541D03*
X004668Y006556D03*
X004668Y004994D03*
X004668Y004009D03*
X004668Y002041D03*
X004668Y001056D03*
X002699Y003025D03*
X002699Y008525D03*
X019737Y030103D03*
X022699Y027150D03*
X024699Y027150D03*
X024699Y024650D03*
X024699Y023650D03*
X022699Y023650D03*
X022699Y024650D03*
X022699Y021150D03*
X024699Y021150D03*
X024911Y030103D03*
X021981Y008119D03*
X021981Y007134D03*
X021981Y005166D03*
X021981Y004181D03*
X023949Y006150D03*
D14*
X002246Y029400D03*
D15*
X004018Y029400D03*
X005199Y027550D03*
X006380Y029400D03*
D16*
X011449Y023275D03*
X011574Y022275D03*
X012449Y020900D03*
X013449Y020900D03*
X014449Y020900D03*
X015449Y020900D03*
X015699Y022400D03*
X014574Y022275D03*
X014449Y023275D03*
X014824Y024650D03*
X015699Y025400D03*
X014574Y026025D03*
X014574Y027025D03*
X015574Y026775D03*
X016574Y026775D03*
X013824Y024650D03*
X013074Y024650D03*
X012074Y024650D03*
X011574Y026025D03*
X011574Y027025D03*
X013844Y033195D03*
X014844Y033195D03*
X015694Y033150D03*
X016694Y033150D03*
X017449Y033150D03*
X018449Y033150D03*
X019199Y033275D03*
X019199Y032275D03*
X018949Y020275D03*
X017949Y020275D03*
X015449Y017900D03*
X014449Y017900D03*
X013449Y017900D03*
X012449Y017900D03*
X011949Y013775D03*
X010949Y013775D03*
X008949Y012775D03*
X007949Y012775D03*
X006449Y012025D03*
X006449Y015025D03*
X008074Y020400D03*
X009074Y020400D03*
X016074Y012025D03*
X017074Y012025D03*
X017949Y012900D03*
X018949Y012900D03*
X023824Y012400D03*
X023824Y011400D03*
X023824Y010525D03*
X023824Y009525D03*
X023824Y013400D03*
X023824Y014400D03*
X023824Y015275D03*
X023824Y016275D03*
X023824Y017025D03*
X023824Y018025D03*
X023824Y018900D03*
X023824Y019900D03*
X016324Y006275D03*
X016449Y005025D03*
X017824Y004025D03*
X017949Y005275D03*
X018949Y005275D03*
X016449Y002025D03*
X016449Y001025D03*
X017824Y001025D03*
X013449Y001025D03*
X009949Y001150D03*
X009949Y002150D03*
X009949Y003150D03*
X009949Y004150D03*
X008949Y005400D03*
X007949Y005400D03*
X006949Y004150D03*
X006949Y003150D03*
X006949Y002150D03*
X006949Y001150D03*
X011949Y009150D03*
X011949Y010150D03*
X013324Y006275D03*
D17*
X012449Y016650D03*
X015449Y016650D03*
D18*
X020946Y029036D03*
X021930Y029036D03*
X022718Y029036D03*
X023702Y029036D03*
D19*
X019449Y028900D03*
X018824Y028900D03*
X018824Y028275D03*
X019449Y028275D03*
X012699Y026150D03*
X008074Y027525D03*
X007324Y030150D03*
X006199Y018525D03*
X008324Y015650D03*
X008824Y016025D03*
X009449Y016150D03*
X009574Y016900D03*
X008699Y017650D03*
X006324Y013650D03*
X006574Y010275D03*
X006324Y008400D03*
X008699Y009525D03*
X009074Y009025D03*
X009699Y010025D03*
X009949Y009150D03*
X011824Y008400D03*
X013824Y011650D03*
X014074Y012900D03*
X015699Y015025D03*
X016199Y014025D03*
X016699Y015650D03*
X014824Y015900D03*
X012074Y015025D03*
X010699Y012150D03*
X009824Y012275D03*
X015824Y009150D03*
X016449Y007400D03*
X017199Y010900D03*
X019334Y008895D03*
X021199Y012275D03*
X020449Y012525D03*
D20*
X001309Y004556D02*
X001309Y001494D01*
X001377Y001562D01*
X001596Y001653D01*
X001833Y001653D01*
X002053Y001562D01*
X002207Y001408D01*
X002361Y001562D01*
X002580Y001653D01*
X002818Y001653D01*
X003037Y001562D01*
X003205Y001394D01*
X003295Y001175D01*
X003295Y000938D01*
X003205Y000719D01*
X003037Y000551D01*
X002938Y000510D01*
X004357Y000510D01*
X004314Y000528D01*
X004139Y000703D01*
X004044Y000932D01*
X004044Y001181D01*
X004139Y001410D01*
X004277Y001549D01*
X004139Y001687D01*
X004044Y001917D01*
X004044Y002165D01*
X004139Y002394D01*
X004297Y002552D01*
X004162Y002687D01*
X004071Y002906D01*
X004071Y003144D01*
X004162Y003363D01*
X004297Y003498D01*
X004139Y003656D01*
X004044Y003885D01*
X004044Y004133D01*
X004139Y004363D01*
X004277Y004501D01*
X004139Y004640D01*
X004044Y004869D01*
X004044Y005118D01*
X004139Y005347D01*
X004314Y005522D01*
X004543Y005617D01*
X004792Y005617D01*
X005021Y005522D01*
X005196Y005347D01*
X005291Y005118D01*
X005291Y004869D01*
X005196Y004640D01*
X005058Y004501D01*
X005196Y004363D01*
X005291Y004133D01*
X005291Y003885D01*
X005196Y003656D01*
X005038Y003498D01*
X005173Y003363D01*
X005264Y003144D01*
X005264Y002906D01*
X005173Y002687D01*
X005038Y002552D01*
X005196Y002394D01*
X005291Y002165D01*
X005291Y001917D01*
X005196Y001687D01*
X005058Y001549D01*
X005196Y001410D01*
X005291Y001181D01*
X005291Y000932D01*
X005196Y000703D01*
X005021Y000528D01*
X004978Y000510D01*
X025214Y000510D01*
X025214Y001607D01*
X025157Y001469D01*
X025005Y001317D01*
X024806Y001235D01*
X024592Y001235D01*
X024393Y001317D01*
X024241Y001469D01*
X024199Y001571D01*
X024157Y001469D01*
X024005Y001317D01*
X023806Y001235D01*
X023592Y001235D01*
X023393Y001317D01*
X023241Y001469D01*
X023159Y001668D01*
X023159Y001882D01*
X023241Y002081D01*
X023393Y002233D01*
X023495Y002275D01*
X023393Y002317D01*
X023241Y002469D01*
X023159Y002668D01*
X023159Y002882D01*
X023241Y003081D01*
X023393Y003233D01*
X023592Y003315D01*
X023806Y003315D01*
X024005Y003233D01*
X024157Y003081D01*
X024199Y002979D01*
X024241Y003081D01*
X024393Y003233D01*
X024592Y003315D01*
X024806Y003315D01*
X025005Y003233D01*
X025157Y003081D01*
X025214Y002943D01*
X025214Y003652D01*
X025052Y003585D01*
X024815Y003585D01*
X024596Y003676D01*
X024441Y003830D01*
X024287Y003676D01*
X024068Y003585D01*
X023830Y003585D01*
X023611Y003676D01*
X023444Y003844D01*
X023353Y004063D01*
X023353Y004300D01*
X023444Y004519D01*
X023611Y004687D01*
X023830Y004778D01*
X024068Y004778D01*
X024287Y004687D01*
X024441Y004533D01*
X024596Y004687D01*
X024815Y004778D01*
X025052Y004778D01*
X025214Y004711D01*
X025214Y007589D01*
X025052Y007522D01*
X024815Y007522D01*
X024596Y007613D01*
X024441Y007767D01*
X024287Y007613D01*
X024068Y007522D01*
X023830Y007522D01*
X023611Y007613D01*
X023444Y007781D01*
X023353Y008000D01*
X023353Y008237D01*
X023444Y008456D01*
X023611Y008624D01*
X023830Y008715D01*
X024068Y008715D01*
X024287Y008624D01*
X024441Y008470D01*
X024596Y008624D01*
X024815Y008715D01*
X025052Y008715D01*
X025214Y008648D01*
X025214Y008982D01*
X025205Y008979D01*
X025118Y008965D01*
X025074Y008965D01*
X025074Y009525D01*
X024514Y009525D01*
X024514Y009481D01*
X024528Y009394D01*
X024555Y009310D01*
X024595Y009231D01*
X024647Y009160D01*
X024709Y009098D01*
X024781Y009046D01*
X024859Y009006D01*
X024943Y008979D01*
X025030Y008965D01*
X025074Y008965D01*
X025074Y009525D01*
X025074Y009525D01*
X024514Y009525D01*
X024514Y009569D01*
X024528Y009656D01*
X024555Y009740D01*
X024595Y009819D01*
X024647Y009890D01*
X024709Y009952D01*
X024781Y010004D01*
X024843Y010036D01*
X024768Y010067D01*
X024616Y010219D01*
X024534Y010418D01*
X024534Y010632D01*
X024616Y010831D01*
X024768Y010983D01*
X024870Y011025D01*
X024768Y011067D01*
X024616Y011219D01*
X024534Y011418D01*
X024534Y011632D01*
X024616Y011831D01*
X024768Y011983D01*
X024967Y012065D01*
X025181Y012065D01*
X025214Y012051D01*
X025214Y012907D01*
X025164Y012881D01*
X025080Y012854D01*
X024993Y012840D01*
X024949Y012840D01*
X024949Y013400D01*
X024389Y013400D01*
X024389Y013356D01*
X024403Y013269D01*
X024430Y013185D01*
X024470Y013106D01*
X024522Y013035D01*
X024584Y012973D01*
X024656Y012921D01*
X024734Y012881D01*
X024818Y012854D01*
X024905Y012840D01*
X024949Y012840D01*
X024949Y013400D01*
X024949Y013400D01*
X024389Y013400D01*
X024389Y013444D01*
X024403Y013531D01*
X024430Y013615D01*
X024470Y013694D01*
X024522Y013765D01*
X024584Y013827D01*
X024656Y013879D01*
X024718Y013911D01*
X024643Y013942D01*
X024491Y014094D01*
X024409Y014293D01*
X024409Y014507D01*
X024491Y014706D01*
X024643Y014858D01*
X024745Y014900D01*
X024643Y014942D01*
X024491Y015094D01*
X024409Y015293D01*
X024409Y015507D01*
X024491Y015706D01*
X024643Y015858D01*
X024842Y015940D01*
X025056Y015940D01*
X025214Y015875D01*
X025214Y016482D01*
X025205Y016479D01*
X025118Y016465D01*
X025074Y016465D01*
X025074Y017025D01*
X024514Y017025D01*
X024514Y016981D01*
X024528Y016894D01*
X024555Y016810D01*
X024595Y016731D01*
X024647Y016660D01*
X024709Y016598D01*
X024781Y016546D01*
X024859Y016506D01*
X024943Y016479D01*
X025030Y016465D01*
X025074Y016465D01*
X025074Y017025D01*
X025074Y017025D01*
X024514Y017025D01*
X024514Y017069D01*
X024528Y017156D01*
X024555Y017240D01*
X024595Y017319D01*
X024647Y017390D01*
X024709Y017452D01*
X024781Y017504D01*
X024843Y017536D01*
X024768Y017567D01*
X024616Y017719D01*
X024534Y017918D01*
X024534Y018132D01*
X024616Y018331D01*
X024768Y018483D01*
X024870Y018525D01*
X024768Y018567D01*
X024616Y018719D01*
X024534Y018918D01*
X024534Y019132D01*
X024616Y019331D01*
X024768Y019483D01*
X024967Y019565D01*
X025181Y019565D01*
X025214Y019551D01*
X025214Y019650D01*
X024262Y019650D01*
X024248Y019617D01*
X024107Y019476D01*
X023924Y019400D01*
X023725Y019400D01*
X023541Y019324D01*
X023400Y019183D01*
X023324Y018999D01*
X023324Y018801D01*
X023400Y018617D01*
X023541Y018476D01*
X023574Y018462D01*
X023541Y018449D01*
X023400Y018308D01*
X023324Y018124D01*
X023324Y017926D01*
X023400Y017742D01*
X023541Y017601D01*
X023725Y017525D01*
X023541Y017449D01*
X023400Y017308D01*
X023324Y017124D01*
X023324Y016926D01*
X023400Y016742D01*
X023492Y016650D01*
X023400Y016558D01*
X023324Y016374D01*
X023324Y016176D01*
X023400Y015992D01*
X023541Y015851D01*
X023725Y015775D01*
X023924Y015775D01*
X024107Y015851D01*
X024248Y015992D01*
X024324Y016176D01*
X024324Y016374D01*
X024248Y016558D01*
X024156Y016650D01*
X024248Y016742D01*
X024324Y016926D01*
X024324Y017124D01*
X024248Y017308D01*
X024107Y017449D01*
X023924Y017525D01*
X023725Y017525D01*
X023924Y017525D01*
X024107Y017601D01*
X024248Y017742D01*
X024324Y017926D01*
X024324Y018124D01*
X024248Y018308D01*
X024107Y018449D01*
X024074Y018462D01*
X024107Y018476D01*
X024248Y018617D01*
X024324Y018801D01*
X024324Y018999D01*
X024248Y019183D01*
X024107Y019324D01*
X023924Y019400D01*
X023725Y019400D01*
X023541Y019476D01*
X023400Y019617D01*
X023386Y019650D01*
X021324Y019650D01*
X021324Y023693D01*
X021239Y023607D01*
X020949Y023488D01*
X020636Y023488D01*
X020346Y023607D01*
X020125Y023829D01*
X020005Y024118D01*
X020005Y024432D01*
X020125Y024721D01*
X020346Y024943D01*
X020636Y025062D01*
X020949Y025062D01*
X021239Y024943D01*
X021324Y024857D01*
X021324Y025400D01*
X016824Y025400D01*
X016824Y025011D01*
X016949Y025062D01*
X017262Y025062D01*
X017552Y024943D01*
X017773Y024721D01*
X017893Y024432D01*
X017893Y024118D01*
X017773Y023829D01*
X017552Y023607D01*
X017262Y023488D01*
X016949Y023488D01*
X016824Y023539D01*
X016824Y017511D01*
X016949Y017562D01*
X017262Y017562D01*
X017552Y017443D01*
X017773Y017221D01*
X017893Y016932D01*
X017893Y016618D01*
X017773Y016329D01*
X017552Y016107D01*
X017262Y015988D01*
X016995Y015988D01*
X017079Y015904D01*
X017147Y015739D01*
X017147Y015561D01*
X017079Y015396D01*
X016953Y015270D01*
X016788Y015202D01*
X016610Y015202D01*
X016445Y015270D01*
X016319Y015396D01*
X016318Y015400D01*
X015958Y015400D01*
X016079Y015279D01*
X016147Y015114D01*
X016147Y014936D01*
X016079Y014771D01*
X015953Y014645D01*
X015788Y014577D01*
X015610Y014577D01*
X015445Y014645D01*
X015319Y014771D01*
X015251Y014936D01*
X015251Y015114D01*
X015319Y015279D01*
X015440Y015400D01*
X012333Y015400D01*
X012454Y015279D01*
X012522Y015114D01*
X012522Y014936D01*
X012454Y014771D01*
X012328Y014645D01*
X012163Y014577D01*
X011985Y014577D01*
X011820Y014645D01*
X011694Y014771D01*
X011626Y014936D01*
X011626Y015114D01*
X011694Y015279D01*
X011815Y015400D01*
X011199Y015400D01*
X011199Y016091D01*
X010949Y015988D01*
X010636Y015988D01*
X010346Y016107D01*
X010125Y016329D01*
X010005Y016618D01*
X010005Y016770D01*
X009954Y016646D01*
X009828Y016520D01*
X009746Y016486D01*
X009829Y016404D01*
X009897Y016239D01*
X009897Y016061D01*
X009829Y015896D01*
X009703Y015770D01*
X009538Y015702D01*
X009360Y015702D01*
X009201Y015768D01*
X009078Y015645D01*
X008913Y015577D01*
X008772Y015577D01*
X008772Y015561D01*
X008704Y015396D01*
X008578Y015270D01*
X008413Y015202D01*
X008235Y015202D01*
X008070Y015270D01*
X007944Y015396D01*
X007876Y015561D01*
X007876Y015739D01*
X007944Y015904D01*
X008070Y016030D01*
X008235Y016098D01*
X008376Y016098D01*
X008376Y016114D01*
X008444Y016279D01*
X008570Y016405D01*
X008735Y016473D01*
X008913Y016473D01*
X009072Y016407D01*
X009195Y016530D01*
X009277Y016564D01*
X009194Y016646D01*
X009126Y016811D01*
X009126Y016989D01*
X009194Y017154D01*
X009320Y017280D01*
X009485Y017348D01*
X009663Y017348D01*
X009828Y017280D01*
X009954Y017154D01*
X010022Y016989D01*
X010022Y016973D01*
X010125Y017221D01*
X010346Y017443D01*
X010636Y017562D01*
X010949Y017562D01*
X011199Y017459D01*
X011199Y020150D01*
X010449Y020150D01*
X010449Y021112D01*
X010402Y021047D01*
X010334Y020979D01*
X010255Y020922D01*
X010169Y020878D01*
X010077Y020848D01*
X009982Y020833D01*
X009933Y020833D01*
X009933Y021447D01*
X009933Y021447D01*
X009933Y020833D01*
X009885Y020833D01*
X009789Y020848D01*
X009697Y020878D01*
X009611Y020922D01*
X009533Y020979D01*
X009465Y021047D01*
X009433Y021091D01*
X009286Y020943D01*
X009177Y020898D01*
X009357Y020824D01*
X009498Y020683D01*
X009574Y020499D01*
X009574Y020301D01*
X009498Y020117D01*
X009357Y019976D01*
X009174Y019900D01*
X008975Y019900D01*
X008791Y019976D01*
X008650Y020117D01*
X008574Y020301D01*
X008574Y020499D01*
X008650Y020683D01*
X008791Y020824D01*
X008861Y020853D01*
X008831Y020853D01*
X008612Y020943D01*
X008457Y021099D01*
X008301Y020943D01*
X008185Y020895D01*
X008357Y020824D01*
X008498Y020683D01*
X008574Y020499D01*
X008574Y020301D01*
X008498Y020117D01*
X008357Y019976D01*
X008174Y019900D01*
X007975Y019900D01*
X007791Y019976D01*
X007650Y020117D01*
X007574Y020301D01*
X007574Y020499D01*
X007650Y020683D01*
X007791Y020824D01*
X007861Y020853D01*
X007847Y020853D01*
X007628Y020943D01*
X007461Y021111D01*
X007370Y021329D01*
X007370Y021565D01*
X007461Y021784D01*
X007628Y021951D01*
X007847Y022042D01*
X008083Y022042D01*
X008301Y021951D01*
X008457Y021796D01*
X008612Y021951D01*
X008831Y022042D01*
X009067Y022042D01*
X009286Y021951D01*
X009433Y021804D01*
X009465Y021847D01*
X009533Y021916D01*
X009611Y021973D01*
X009697Y022017D01*
X009789Y022046D01*
X009885Y022062D01*
X009933Y022062D01*
X009933Y021447D01*
X009933Y021447D01*
X009933Y022062D01*
X009982Y022062D01*
X010077Y022046D01*
X010169Y022017D01*
X010255Y021973D01*
X010334Y021916D01*
X010402Y021847D01*
X010449Y021783D01*
X010449Y023690D01*
X010346Y023732D01*
X010125Y023954D01*
X010005Y024243D01*
X010005Y024557D01*
X010125Y024846D01*
X010346Y025068D01*
X010449Y025110D01*
X010449Y026650D01*
X005838Y026650D01*
X005907Y026581D01*
X005989Y026382D01*
X005989Y026168D01*
X005907Y025969D01*
X005755Y025817D01*
X005653Y025775D01*
X005755Y025733D01*
X005907Y025581D01*
X005989Y025382D01*
X005989Y025168D01*
X005907Y024969D01*
X005755Y024817D01*
X005653Y024775D01*
X005755Y024733D01*
X005907Y024581D01*
X005989Y024382D01*
X005989Y024168D01*
X005907Y023969D01*
X005755Y023817D01*
X005653Y023775D01*
X005755Y023733D01*
X005907Y023581D01*
X005989Y023382D01*
X005989Y023168D01*
X005907Y022969D01*
X005755Y022817D01*
X005653Y022775D01*
X005755Y022733D01*
X005907Y022581D01*
X005989Y022382D01*
X005989Y022168D01*
X005907Y021969D01*
X005755Y021817D01*
X005653Y021775D01*
X005755Y021733D01*
X005907Y021581D01*
X005989Y021382D01*
X005989Y021168D01*
X005907Y020969D01*
X005755Y020817D01*
X005653Y020775D01*
X005755Y020733D01*
X005907Y020581D01*
X005989Y020382D01*
X005989Y020168D01*
X005907Y019969D01*
X005755Y019817D01*
X005653Y019775D01*
X005755Y019733D01*
X005907Y019581D01*
X005989Y019382D01*
X005989Y019168D01*
X005907Y018969D01*
X005755Y018817D01*
X005653Y018775D01*
X005755Y018733D01*
X005787Y018701D01*
X005819Y018779D01*
X005945Y018905D01*
X006110Y018973D01*
X006288Y018973D01*
X006453Y018905D01*
X006579Y018779D01*
X006647Y018614D01*
X006647Y018436D01*
X006579Y018271D01*
X006453Y018145D01*
X006288Y018077D01*
X006110Y018077D01*
X005975Y018133D01*
X005907Y017969D01*
X005755Y017817D01*
X005653Y017775D01*
X005755Y017733D01*
X005907Y017581D01*
X005989Y017382D01*
X005989Y017168D01*
X005907Y016969D01*
X005755Y016817D01*
X005653Y016775D01*
X005755Y016733D01*
X005907Y016581D01*
X005989Y016382D01*
X005989Y016168D01*
X005907Y015969D01*
X005755Y015817D01*
X005653Y015775D01*
X005755Y015733D01*
X005907Y015581D01*
X005989Y015382D01*
X005989Y015221D01*
X006025Y015308D01*
X006166Y015449D01*
X006350Y015525D01*
X006549Y015525D01*
X006732Y015449D01*
X006873Y015308D01*
X006949Y015124D01*
X006949Y014926D01*
X006873Y014742D01*
X006732Y014601D01*
X006549Y014525D01*
X006350Y014525D01*
X006166Y014601D01*
X006025Y014742D01*
X005949Y014926D01*
X005949Y015071D01*
X005907Y014969D01*
X005755Y014817D01*
X005653Y014775D01*
X005755Y014733D01*
X005907Y014581D01*
X005989Y014382D01*
X005989Y014168D01*
X005907Y013969D01*
X005755Y013817D01*
X005653Y013775D01*
X005755Y013733D01*
X005876Y013612D01*
X005876Y013739D01*
X005944Y013904D01*
X006070Y014030D01*
X006235Y014098D01*
X006413Y014098D01*
X006578Y014030D01*
X006704Y013904D01*
X006772Y013739D01*
X006772Y013561D01*
X006704Y013396D01*
X006578Y013270D01*
X006413Y013202D01*
X006235Y013202D01*
X006070Y013270D01*
X005989Y013351D01*
X005989Y013168D01*
X005907Y012969D01*
X005755Y012817D01*
X005653Y012775D01*
X005755Y012733D01*
X005907Y012581D01*
X005989Y012382D01*
X005989Y012221D01*
X006025Y012308D01*
X006166Y012449D01*
X006350Y012525D01*
X006549Y012525D01*
X006732Y012449D01*
X006873Y012308D01*
X006949Y012124D01*
X006949Y011926D01*
X006873Y011742D01*
X006732Y011601D01*
X006549Y011525D01*
X006350Y011525D01*
X006166Y011601D01*
X006025Y011742D01*
X005949Y011926D01*
X005949Y012071D01*
X005907Y011969D01*
X005755Y011817D01*
X005556Y011735D01*
X005342Y011735D01*
X005143Y011817D01*
X004991Y011969D01*
X004949Y012071D01*
X004907Y011969D01*
X004755Y011817D01*
X004556Y011735D01*
X004342Y011735D01*
X004143Y011817D01*
X003991Y011969D01*
X003949Y012071D01*
X003907Y011969D01*
X003755Y011817D01*
X003556Y011735D01*
X003342Y011735D01*
X003143Y011817D01*
X002991Y011969D01*
X002949Y012071D01*
X002907Y011969D01*
X002755Y011817D01*
X002556Y011735D01*
X002342Y011735D01*
X002143Y011817D01*
X001991Y011969D01*
X001909Y012168D01*
X001909Y012382D01*
X001991Y012581D01*
X002143Y012733D01*
X002245Y012775D01*
X002143Y012817D01*
X001991Y012969D01*
X001909Y013168D01*
X001909Y013382D01*
X001991Y013581D01*
X002143Y013733D01*
X002245Y013775D01*
X002143Y013817D01*
X001991Y013969D01*
X001909Y014168D01*
X001909Y014382D01*
X001991Y014581D01*
X002143Y014733D01*
X002245Y014775D01*
X002143Y014817D01*
X001991Y014969D01*
X001909Y015168D01*
X001909Y015382D01*
X001991Y015581D01*
X002143Y015733D01*
X002245Y015775D01*
X002143Y015817D01*
X001991Y015969D01*
X001909Y016168D01*
X001909Y016382D01*
X001991Y016581D01*
X002143Y016733D01*
X002218Y016764D01*
X002156Y016796D01*
X002084Y016848D01*
X002022Y016910D01*
X001970Y016981D01*
X001930Y017060D01*
X001903Y017144D01*
X001889Y017231D01*
X001889Y017275D01*
X002449Y017275D01*
X002449Y017275D01*
X001889Y017275D01*
X001889Y017319D01*
X001903Y017406D01*
X001930Y017490D01*
X001970Y017569D01*
X002022Y017640D01*
X002084Y017702D01*
X002156Y017754D01*
X002218Y017786D01*
X002143Y017817D01*
X001991Y017969D01*
X001909Y018168D01*
X001909Y018382D01*
X001991Y018581D01*
X002143Y018733D01*
X002245Y018775D01*
X002143Y018817D01*
X001991Y018969D01*
X001909Y019168D01*
X001909Y019382D01*
X001991Y019581D01*
X002143Y019733D01*
X002245Y019775D01*
X002143Y019817D01*
X001991Y019969D01*
X001909Y020168D01*
X001909Y020382D01*
X001991Y020581D01*
X002143Y020733D01*
X002245Y020775D01*
X002143Y020817D01*
X001991Y020969D01*
X001909Y021168D01*
X001909Y021382D01*
X001991Y021581D01*
X002143Y021733D01*
X002245Y021775D01*
X002143Y021817D01*
X001991Y021969D01*
X001909Y022168D01*
X001909Y022382D01*
X001991Y022581D01*
X002143Y022733D01*
X002245Y022775D01*
X002143Y022817D01*
X001991Y022969D01*
X001909Y023168D01*
X001909Y023382D01*
X001991Y023581D01*
X002143Y023733D01*
X002245Y023775D01*
X002143Y023817D01*
X001991Y023969D01*
X001909Y024168D01*
X001909Y024382D01*
X001991Y024581D01*
X002143Y024733D01*
X002245Y024775D01*
X002143Y024817D01*
X001991Y024969D01*
X001909Y025168D01*
X001909Y025382D01*
X001991Y025581D01*
X002143Y025733D01*
X002245Y025775D01*
X002143Y025817D01*
X001991Y025969D01*
X001909Y026168D01*
X001909Y026382D01*
X001991Y026581D01*
X002060Y026650D01*
X001309Y026650D01*
X001309Y010931D01*
X001377Y010999D01*
X001596Y011090D01*
X001833Y011090D01*
X002053Y010999D01*
X002207Y010845D01*
X002361Y010999D01*
X002580Y011090D01*
X002818Y011090D01*
X003037Y010999D01*
X003205Y010831D01*
X003295Y010612D01*
X003295Y010375D01*
X003205Y010156D01*
X003037Y009988D01*
X002818Y009897D01*
X002580Y009897D01*
X002361Y009988D01*
X002207Y010142D01*
X002053Y009988D01*
X001833Y009897D01*
X001596Y009897D01*
X001377Y009988D01*
X001309Y010056D01*
X001309Y006994D01*
X001377Y007062D01*
X001596Y007153D01*
X001833Y007153D01*
X002053Y007062D01*
X002207Y006908D01*
X002361Y007062D01*
X002580Y007153D01*
X002818Y007153D01*
X003037Y007062D01*
X003205Y006894D01*
X003295Y006675D01*
X003295Y006438D01*
X003205Y006219D01*
X003037Y006051D01*
X002818Y005960D01*
X002580Y005960D01*
X002361Y006051D01*
X002207Y006205D01*
X002053Y006051D01*
X001833Y005960D01*
X001596Y005960D01*
X001377Y006051D01*
X001309Y006119D01*
X001309Y005431D01*
X001377Y005499D01*
X001596Y005590D01*
X001833Y005590D01*
X002053Y005499D01*
X002207Y005345D01*
X002361Y005499D01*
X002580Y005590D01*
X002818Y005590D01*
X003037Y005499D01*
X003205Y005331D01*
X003295Y005112D01*
X003295Y004875D01*
X003205Y004656D01*
X003037Y004488D01*
X002818Y004397D01*
X002580Y004397D01*
X002361Y004488D01*
X002207Y004642D01*
X002053Y004488D01*
X001833Y004397D01*
X001596Y004397D01*
X001377Y004488D01*
X001309Y004556D01*
X001309Y004291D02*
X004109Y004291D01*
X004170Y004609D02*
X003158Y004609D01*
X003295Y004928D02*
X004044Y004928D01*
X004097Y005246D02*
X003240Y005246D01*
X002879Y005565D02*
X004416Y005565D01*
X004543Y005933D02*
X004314Y006028D01*
X004139Y006203D01*
X004044Y006432D01*
X004044Y006681D01*
X004139Y006910D01*
X004277Y007049D01*
X004139Y007187D01*
X004044Y007417D01*
X004044Y007665D01*
X004139Y007894D01*
X004297Y008052D01*
X004162Y008187D01*
X004071Y008406D01*
X004071Y008644D01*
X004162Y008863D01*
X004297Y008998D01*
X004139Y009156D01*
X004044Y009385D01*
X004044Y009633D01*
X004139Y009863D01*
X004277Y010001D01*
X004139Y010140D01*
X004044Y010369D01*
X004044Y010618D01*
X004139Y010847D01*
X004314Y011022D01*
X004543Y011117D01*
X004792Y011117D01*
X005021Y011022D01*
X005196Y010847D01*
X005291Y010618D01*
X005291Y010369D01*
X005196Y010140D01*
X005058Y010001D01*
X005196Y009863D01*
X005291Y009633D01*
X005291Y009385D01*
X005196Y009156D01*
X005038Y008998D01*
X005173Y008863D01*
X005264Y008644D01*
X005264Y008406D01*
X005173Y008187D01*
X005038Y008052D01*
X005196Y007894D01*
X005291Y007665D01*
X005291Y007417D01*
X005196Y007187D01*
X005058Y007049D01*
X005196Y006910D01*
X005291Y006681D01*
X005291Y006432D01*
X005196Y006203D01*
X005021Y006028D01*
X004792Y005933D01*
X004543Y005933D01*
X004919Y005565D02*
X007476Y005565D01*
X007449Y005499D02*
X007525Y005683D01*
X007651Y005809D01*
X007628Y005818D01*
X007461Y005986D01*
X007370Y006204D01*
X007370Y006440D01*
X007461Y006659D01*
X007628Y006826D01*
X007847Y006917D01*
X008083Y006917D01*
X008301Y006826D01*
X008457Y006671D01*
X008612Y006826D01*
X008831Y006917D01*
X009067Y006917D01*
X009286Y006826D01*
X009433Y006679D01*
X009465Y006722D01*
X009533Y006791D01*
X009611Y006848D01*
X009697Y006892D01*
X009789Y006921D01*
X009885Y006937D01*
X009933Y006937D01*
X009933Y006322D01*
X009933Y006322D01*
X009933Y005708D01*
X009885Y005708D01*
X009789Y005723D01*
X009697Y005753D01*
X009611Y005797D01*
X009533Y005854D01*
X009465Y005922D01*
X009433Y005966D01*
X009286Y005818D01*
X009252Y005804D01*
X009373Y005683D01*
X009449Y005499D01*
X009449Y005301D01*
X009373Y005117D01*
X009232Y004976D01*
X009049Y004900D01*
X008850Y004900D01*
X008666Y004976D01*
X008525Y005117D01*
X008449Y005301D01*
X008449Y005499D01*
X008525Y005683D01*
X008646Y005804D01*
X008612Y005818D01*
X008457Y005974D01*
X008301Y005818D01*
X008256Y005800D01*
X008373Y005683D01*
X008449Y005499D01*
X008449Y005301D01*
X008373Y005117D01*
X008232Y004976D01*
X008049Y004900D01*
X007850Y004900D01*
X007666Y004976D01*
X007525Y005117D01*
X007449Y005301D01*
X007449Y005499D01*
X007472Y005246D02*
X005238Y005246D01*
X005291Y004928D02*
X007783Y004928D01*
X008115Y004928D02*
X008783Y004928D01*
X008472Y005246D02*
X008426Y005246D01*
X008422Y005565D02*
X008476Y005565D01*
X008548Y005883D02*
X008366Y005883D01*
X007564Y005883D02*
X001309Y005883D01*
X001309Y005565D02*
X001535Y005565D01*
X001894Y005565D02*
X002520Y005565D01*
X002211Y006202D02*
X002203Y006202D01*
X003187Y006202D02*
X004140Y006202D01*
X004044Y006520D02*
X003295Y006520D01*
X003228Y006839D02*
X004109Y006839D01*
X004169Y007157D02*
X001309Y007157D01*
X001309Y007476D02*
X004044Y007476D01*
X004097Y007794D02*
X001309Y007794D01*
X001309Y008113D02*
X002229Y008113D01*
X002170Y008172D02*
X002346Y007996D01*
X002575Y007901D01*
X002823Y007901D01*
X003052Y007996D01*
X003228Y008172D01*
X003323Y008401D01*
X003323Y008649D01*
X003228Y008878D01*
X003052Y009054D01*
X002823Y009149D01*
X002575Y009149D01*
X002346Y009054D01*
X002170Y008878D01*
X002075Y008649D01*
X002075Y008401D01*
X002170Y008172D01*
X002075Y008431D02*
X001309Y008431D01*
X001309Y008750D02*
X002117Y008750D01*
X002380Y009068D02*
X001309Y009068D01*
X001309Y009387D02*
X004044Y009387D01*
X004073Y009705D02*
X001309Y009705D01*
X001309Y010024D02*
X001342Y010024D01*
X002088Y010024D02*
X002326Y010024D01*
X003072Y010024D02*
X004255Y010024D01*
X004055Y010342D02*
X003282Y010342D01*
X003275Y010661D02*
X004061Y010661D01*
X004271Y010979D02*
X003057Y010979D01*
X002341Y010979D02*
X002072Y010979D01*
X001357Y010979D02*
X001309Y010979D01*
X001309Y011298D02*
X013543Y011298D01*
X013570Y011270D02*
X013735Y011202D01*
X013913Y011202D01*
X014078Y011270D01*
X014204Y011396D01*
X014272Y011561D01*
X014272Y011739D01*
X014204Y011904D01*
X014078Y012030D01*
X013913Y012098D01*
X013735Y012098D01*
X013570Y012030D01*
X013444Y011904D01*
X013376Y011739D01*
X013376Y011561D01*
X013444Y011396D01*
X013570Y011270D01*
X013376Y011616D02*
X006747Y011616D01*
X006949Y011935D02*
X009531Y011935D01*
X009570Y011895D02*
X009735Y011827D01*
X009913Y011827D01*
X010078Y011895D01*
X010204Y012021D01*
X010251Y012135D01*
X010251Y012061D01*
X010319Y011896D01*
X010445Y011770D01*
X010610Y011702D01*
X010788Y011702D01*
X010953Y011770D01*
X011079Y011896D01*
X011147Y012061D01*
X011147Y012239D01*
X011079Y012404D01*
X010953Y012530D01*
X010788Y012598D01*
X010610Y012598D01*
X010445Y012530D01*
X010319Y012404D01*
X010272Y012290D01*
X010272Y012364D01*
X010204Y012529D01*
X010078Y012655D01*
X009913Y012723D01*
X009735Y012723D01*
X009570Y012655D01*
X009444Y012529D01*
X009376Y012364D01*
X009376Y012186D01*
X009444Y012021D01*
X009570Y011895D01*
X009376Y012253D02*
X006896Y012253D01*
X007525Y012492D02*
X007449Y012676D01*
X007449Y012874D01*
X007525Y013058D01*
X007666Y013199D01*
X007791Y013251D01*
X007628Y013318D01*
X007461Y013486D01*
X007370Y013704D01*
X007370Y013940D01*
X007461Y014159D01*
X007628Y014326D01*
X007847Y014417D01*
X008083Y014417D01*
X008301Y014326D01*
X008457Y014171D01*
X008612Y014326D01*
X008831Y014417D01*
X009067Y014417D01*
X009286Y014326D01*
X009433Y014179D01*
X009465Y014222D01*
X009533Y014291D01*
X009611Y014348D01*
X009697Y014392D01*
X009789Y014421D01*
X009885Y014437D01*
X009933Y014437D01*
X009933Y013822D01*
X009933Y013822D01*
X009933Y013208D01*
X009885Y013208D01*
X009789Y013223D01*
X009697Y013253D01*
X009611Y013297D01*
X009533Y013354D01*
X009465Y013422D01*
X009433Y013466D01*
X009286Y013318D01*
X009115Y013248D01*
X009232Y013199D01*
X009373Y013058D01*
X009449Y012874D01*
X009449Y012676D01*
X009373Y012492D01*
X009232Y012351D01*
X009049Y012275D01*
X008850Y012275D01*
X008666Y012351D01*
X008525Y012492D01*
X008449Y012676D01*
X008449Y012874D01*
X008525Y013058D01*
X008666Y013199D01*
X008783Y013248D01*
X008612Y013318D01*
X008457Y013474D01*
X008301Y013318D01*
X008123Y013244D01*
X008232Y013199D01*
X008373Y013058D01*
X008449Y012874D01*
X008449Y012676D01*
X008373Y012492D01*
X008232Y012351D01*
X008049Y012275D01*
X007850Y012275D01*
X007666Y012351D01*
X007525Y012492D01*
X007492Y012572D02*
X005911Y012572D01*
X005989Y012253D02*
X006002Y012253D01*
X005949Y011935D02*
X005872Y011935D01*
X006151Y011616D02*
X001309Y011616D01*
X001309Y011935D02*
X002026Y011935D01*
X001909Y012253D02*
X001309Y012253D01*
X001309Y012572D02*
X001987Y012572D01*
X002070Y012890D02*
X001309Y012890D01*
X001309Y013209D02*
X001909Y013209D01*
X001969Y013527D02*
X001309Y013527D01*
X001309Y013846D02*
X002115Y013846D01*
X001911Y014164D02*
X001309Y014164D01*
X001309Y014483D02*
X001951Y014483D01*
X002182Y014801D02*
X001309Y014801D01*
X001309Y015120D02*
X001929Y015120D01*
X001932Y015438D02*
X001309Y015438D01*
X001309Y015757D02*
X002200Y015757D01*
X001947Y016075D02*
X001309Y016075D01*
X001309Y016394D02*
X001914Y016394D01*
X002122Y016712D02*
X001309Y016712D01*
X001309Y017031D02*
X001945Y017031D01*
X001894Y017349D02*
X001309Y017349D01*
X001309Y017668D02*
X002050Y017668D01*
X001984Y017986D02*
X001309Y017986D01*
X001309Y018305D02*
X001909Y018305D01*
X002033Y018623D02*
X001309Y018623D01*
X001309Y018942D02*
X002019Y018942D01*
X001909Y019260D02*
X001309Y019260D01*
X001309Y019579D02*
X001990Y019579D01*
X002063Y019897D02*
X001309Y019897D01*
X001309Y020216D02*
X001909Y020216D01*
X001972Y020534D02*
X001309Y020534D01*
X001309Y020853D02*
X002108Y020853D01*
X001909Y021171D02*
X001309Y021171D01*
X001309Y021490D02*
X001953Y021490D01*
X002165Y021808D02*
X001309Y021808D01*
X001309Y022127D02*
X001926Y022127D01*
X001935Y022445D02*
X001309Y022445D01*
X001309Y022764D02*
X002217Y022764D01*
X001944Y023082D02*
X001309Y023082D01*
X001309Y023401D02*
X001917Y023401D01*
X002129Y023719D02*
X001309Y023719D01*
X001309Y024038D02*
X001963Y024038D01*
X001909Y024356D02*
X001309Y024356D01*
X001309Y024675D02*
X002085Y024675D01*
X001981Y024993D02*
X001309Y024993D01*
X001309Y025312D02*
X001909Y025312D01*
X002040Y025630D02*
X001309Y025630D01*
X001309Y025949D02*
X002012Y025949D01*
X001909Y026267D02*
X001309Y026267D01*
X001309Y026586D02*
X001996Y026586D01*
X001309Y027400D02*
X001309Y033540D01*
X009372Y033540D01*
X009318Y033518D01*
X009166Y033366D01*
X009084Y033167D01*
X009084Y032953D01*
X009166Y032754D01*
X009318Y032602D01*
X009517Y032520D01*
X009731Y032520D01*
X009930Y032602D01*
X010082Y032754D01*
X010124Y032856D01*
X010166Y032754D01*
X010318Y032602D01*
X010517Y032520D01*
X010731Y032520D01*
X010930Y032602D01*
X011082Y032754D01*
X011124Y032856D01*
X011166Y032754D01*
X011318Y032602D01*
X011517Y032520D01*
X011731Y032520D01*
X011930Y032602D01*
X012082Y032754D01*
X012124Y032856D01*
X012166Y032754D01*
X012318Y032602D01*
X012517Y032520D01*
X012731Y032520D01*
X012930Y032602D01*
X013082Y032754D01*
X013164Y032953D01*
X013164Y033167D01*
X013082Y033366D01*
X012930Y033518D01*
X012876Y033540D01*
X013482Y033540D01*
X013420Y033478D01*
X013344Y033294D01*
X013344Y033096D01*
X013420Y032912D01*
X013561Y032771D01*
X013745Y032695D01*
X013944Y032695D01*
X014127Y032771D01*
X014268Y032912D01*
X014344Y033096D01*
X014420Y032912D01*
X014561Y032771D01*
X014745Y032695D01*
X014944Y032695D01*
X015127Y032771D01*
X015256Y032900D01*
X015270Y032867D01*
X015411Y032726D01*
X015595Y032650D01*
X015794Y032650D01*
X015977Y032726D01*
X016118Y032867D01*
X016194Y033051D01*
X016270Y032867D01*
X016411Y032726D01*
X016595Y032650D01*
X016794Y032650D01*
X016977Y032726D01*
X017072Y032820D01*
X017166Y032726D01*
X017350Y032650D01*
X017549Y032650D01*
X017732Y032726D01*
X017873Y032867D01*
X017949Y033051D01*
X018025Y032867D01*
X018166Y032726D01*
X018350Y032650D01*
X018549Y032650D01*
X018732Y032726D01*
X018873Y032867D01*
X018881Y032886D01*
X018916Y032851D01*
X019100Y032775D01*
X018916Y032699D01*
X018775Y032558D01*
X018699Y032374D01*
X018699Y032176D01*
X018775Y031992D01*
X018916Y031851D01*
X019100Y031775D01*
X019299Y031775D01*
X019482Y031851D01*
X019623Y031992D01*
X019699Y032176D01*
X019699Y032374D01*
X019623Y032558D01*
X019482Y032699D01*
X019299Y032775D01*
X019100Y032775D01*
X019299Y032775D01*
X019482Y032851D01*
X019623Y032992D01*
X019699Y033176D01*
X019699Y033374D01*
X019630Y033540D01*
X025214Y033540D01*
X025214Y030652D01*
X025035Y030727D01*
X024787Y030727D01*
X024557Y030632D01*
X024382Y030456D01*
X024287Y030227D01*
X024287Y029979D01*
X024382Y029749D01*
X024557Y029574D01*
X024787Y029479D01*
X025035Y029479D01*
X025214Y029553D01*
X025214Y028193D01*
X025157Y028331D01*
X025005Y028483D01*
X024806Y028565D01*
X024592Y028565D01*
X024393Y028483D01*
X024241Y028331D01*
X024199Y028229D01*
X024157Y028331D01*
X024005Y028483D01*
X023916Y028520D01*
X023994Y028560D01*
X024065Y028611D01*
X024127Y028673D01*
X024178Y028744D01*
X024218Y028822D01*
X024245Y028905D01*
X024259Y028992D01*
X024259Y029036D01*
X024259Y029080D01*
X024245Y029166D01*
X024218Y029250D01*
X024178Y029328D01*
X024127Y029399D01*
X024065Y029461D01*
X023994Y029512D01*
X023916Y029552D01*
X023832Y029579D01*
X023746Y029593D01*
X023702Y029593D01*
X023658Y029593D01*
X023572Y029579D01*
X023488Y029552D01*
X023410Y029512D01*
X023339Y029461D01*
X023277Y029399D01*
X023226Y029328D01*
X023199Y029276D01*
X023173Y029340D01*
X023022Y029491D01*
X022825Y029573D01*
X022611Y029573D01*
X022414Y029491D01*
X022324Y029401D01*
X022234Y029491D01*
X022037Y029573D01*
X021824Y029573D01*
X021626Y029491D01*
X021475Y029340D01*
X021438Y029250D01*
X021401Y029340D01*
X021250Y029491D01*
X021053Y029573D01*
X020839Y029573D01*
X020642Y029491D01*
X020491Y029340D01*
X020409Y029143D01*
X020409Y028929D01*
X020491Y028732D01*
X020642Y028581D01*
X020680Y028565D01*
X020592Y028565D01*
X020393Y028483D01*
X020241Y028331D01*
X020159Y028132D01*
X020159Y027918D01*
X020241Y027719D01*
X020393Y027567D01*
X020592Y027485D01*
X020806Y027485D01*
X021005Y027567D01*
X021157Y027719D01*
X021199Y027821D01*
X021241Y027719D01*
X021393Y027567D01*
X021592Y027485D01*
X021806Y027485D01*
X022005Y027567D01*
X022157Y027719D01*
X022199Y027821D01*
X022241Y027719D01*
X022314Y027647D01*
X022170Y027503D01*
X022075Y027274D01*
X022075Y027026D01*
X022170Y026797D01*
X022346Y026621D01*
X022575Y026526D01*
X022823Y026526D01*
X023052Y026621D01*
X023228Y026797D01*
X023323Y027026D01*
X023323Y027274D01*
X023228Y027503D01*
X023085Y027647D01*
X023157Y027719D01*
X023199Y027821D01*
X023241Y027719D01*
X023393Y027567D01*
X023592Y027485D01*
X023806Y027485D01*
X024005Y027567D01*
X024157Y027719D01*
X024199Y027821D01*
X024241Y027719D01*
X024314Y027647D01*
X024170Y027503D01*
X024075Y027274D01*
X024075Y027026D01*
X024170Y026797D01*
X024346Y026621D01*
X024575Y026526D01*
X024823Y026526D01*
X025052Y026621D01*
X025214Y026783D01*
X025214Y026030D01*
X025141Y026206D01*
X024989Y026358D01*
X024791Y026440D01*
X024576Y026440D01*
X024377Y026358D01*
X024226Y026206D01*
X024143Y026007D01*
X024143Y025793D01*
X024226Y025594D01*
X024377Y025442D01*
X024576Y025360D01*
X024791Y025360D01*
X024989Y025442D01*
X025141Y025594D01*
X025214Y025770D01*
X025214Y025017D01*
X025052Y025179D01*
X024823Y025274D01*
X024575Y025274D01*
X024346Y025179D01*
X024170Y025003D01*
X024075Y024774D01*
X024075Y024526D01*
X024170Y024297D01*
X024317Y024150D01*
X024170Y024003D01*
X024075Y023774D01*
X024075Y023526D01*
X024170Y023297D01*
X024346Y023121D01*
X024575Y023026D01*
X024823Y023026D01*
X025052Y023121D01*
X025214Y023283D01*
X025214Y022530D01*
X025141Y022706D01*
X024989Y022858D01*
X024791Y022940D01*
X024576Y022940D01*
X024377Y022858D01*
X024226Y022706D01*
X024143Y022507D01*
X024143Y022293D01*
X024226Y022094D01*
X024377Y021942D01*
X024576Y021860D01*
X024791Y021860D01*
X024989Y021942D01*
X025141Y022094D01*
X025214Y022270D01*
X025214Y021517D01*
X025052Y021679D01*
X024823Y021774D01*
X024575Y021774D01*
X024346Y021679D01*
X024170Y021503D01*
X024075Y021274D01*
X024075Y021026D01*
X024170Y020797D01*
X024192Y020775D01*
X023206Y020775D01*
X023228Y020797D01*
X023323Y021026D01*
X023323Y021274D01*
X023228Y021503D01*
X023052Y021679D01*
X022823Y021774D01*
X022575Y021774D01*
X022346Y021679D01*
X022170Y021503D01*
X022075Y021274D01*
X022075Y021026D01*
X022170Y020797D01*
X022192Y020775D01*
X021949Y020775D01*
X021949Y026150D01*
X016199Y026150D01*
X016199Y016275D01*
X015805Y016275D01*
X015887Y016357D01*
X015966Y016547D01*
X015966Y016753D01*
X015887Y016943D01*
X015742Y017088D01*
X015552Y017167D01*
X015346Y017167D01*
X015156Y017088D01*
X015011Y016943D01*
X014932Y016753D01*
X014932Y016547D01*
X015011Y016357D01*
X015093Y016275D01*
X015083Y016275D01*
X015078Y016280D01*
X014913Y016348D01*
X014735Y016348D01*
X014570Y016280D01*
X014565Y016275D01*
X012805Y016275D01*
X012887Y016357D01*
X012966Y016547D01*
X012966Y016753D01*
X012887Y016943D01*
X012742Y017088D01*
X012552Y017167D01*
X012346Y017167D01*
X012156Y017088D01*
X012011Y016943D01*
X011932Y016753D01*
X011932Y016547D01*
X012011Y016357D01*
X012093Y016275D01*
X011824Y016275D01*
X011824Y021025D01*
X011199Y021025D01*
X011199Y021943D01*
X011291Y021851D01*
X011475Y021775D01*
X011674Y021775D01*
X011857Y021851D01*
X011998Y021992D01*
X012074Y022176D01*
X012074Y022374D01*
X011998Y022558D01*
X011857Y022699D01*
X011674Y022775D01*
X011593Y022775D01*
X011649Y022793D01*
X011722Y022830D01*
X011788Y022878D01*
X011846Y022936D01*
X011894Y023002D01*
X011931Y023075D01*
X011956Y023153D01*
X011969Y023234D01*
X011969Y023275D01*
X011449Y023275D01*
X011449Y023795D01*
X011408Y023795D01*
X011327Y023782D01*
X011270Y023764D01*
X011460Y023954D01*
X011580Y024243D01*
X011580Y024536D01*
X011650Y024367D01*
X011791Y024226D01*
X011975Y024150D01*
X012174Y024150D01*
X012357Y024226D01*
X012498Y024367D01*
X012574Y024551D01*
X012650Y024367D01*
X012791Y024226D01*
X012975Y024150D01*
X013174Y024150D01*
X013357Y024226D01*
X013449Y024318D01*
X013541Y024226D01*
X013725Y024150D01*
X013924Y024150D01*
X014107Y024226D01*
X014248Y024367D01*
X014324Y024551D01*
X014400Y024367D01*
X014541Y024226D01*
X014725Y024150D01*
X014924Y024150D01*
X015107Y024226D01*
X015248Y024367D01*
X015324Y024551D01*
X015324Y024749D01*
X015248Y024933D01*
X015107Y025074D01*
X014924Y025150D01*
X014725Y025150D01*
X014541Y025074D01*
X014400Y024933D01*
X014324Y024749D01*
X014324Y024551D01*
X014324Y024749D01*
X014248Y024933D01*
X014107Y025074D01*
X013924Y025150D01*
X013725Y025150D01*
X013541Y025074D01*
X013449Y024982D01*
X013357Y025074D01*
X013174Y025150D01*
X012975Y025150D01*
X012791Y025074D01*
X012650Y024933D01*
X012574Y024749D01*
X012574Y024551D01*
X012574Y024749D01*
X012498Y024933D01*
X012357Y025074D01*
X012174Y025150D01*
X011975Y025150D01*
X011791Y025074D01*
X011650Y024933D01*
X011574Y024749D01*
X011574Y024571D01*
X011460Y024846D01*
X011239Y025068D01*
X011199Y025084D01*
X011199Y025693D01*
X011291Y025601D01*
X011475Y025525D01*
X011674Y025525D01*
X011857Y025601D01*
X011998Y025742D01*
X012074Y025926D01*
X012074Y026124D01*
X011998Y026308D01*
X011857Y026449D01*
X011674Y026525D01*
X011857Y026601D01*
X011998Y026742D01*
X012074Y026926D01*
X012074Y027124D01*
X011998Y027308D01*
X011857Y027449D01*
X011674Y027525D01*
X011475Y027525D01*
X011291Y027449D01*
X011199Y027357D01*
X011199Y027400D01*
X008507Y027400D01*
X008522Y027436D01*
X008522Y027614D01*
X008454Y027779D01*
X008328Y027905D01*
X008163Y027973D01*
X007985Y027973D01*
X007820Y027905D01*
X007694Y027779D01*
X007626Y027614D01*
X007626Y027436D01*
X007641Y027400D01*
X005940Y027400D01*
X005941Y027402D01*
X005941Y027697D01*
X005828Y027970D01*
X005619Y028179D01*
X005347Y028292D01*
X005051Y028292D01*
X004779Y028179D01*
X004570Y027970D01*
X004457Y027697D01*
X004457Y027402D01*
X004458Y027400D01*
X001309Y027400D01*
X001309Y027541D02*
X004457Y027541D01*
X004524Y027860D02*
X001309Y027860D01*
X001309Y028178D02*
X004778Y028178D01*
X004438Y028771D02*
X004647Y028980D01*
X004760Y029252D01*
X004760Y029548D01*
X004647Y029820D01*
X004438Y030029D01*
X004166Y030142D01*
X003870Y030142D01*
X003598Y030029D01*
X003389Y029820D01*
X003276Y029548D01*
X003276Y029252D01*
X003389Y028980D01*
X003598Y028771D01*
X003870Y028658D01*
X004166Y028658D01*
X004438Y028771D01*
X004482Y028815D02*
X005916Y028815D01*
X005960Y028771D02*
X006233Y028658D01*
X006528Y028658D01*
X006800Y028771D01*
X007009Y028980D01*
X007122Y029252D01*
X007122Y029548D01*
X007009Y029820D01*
X006800Y030029D01*
X006528Y030142D01*
X006233Y030142D01*
X005960Y030029D01*
X005751Y029820D01*
X005638Y029548D01*
X005638Y029252D01*
X005751Y028980D01*
X005960Y028771D01*
X005687Y029134D02*
X004711Y029134D01*
X004760Y029452D02*
X005638Y029452D01*
X005731Y029771D02*
X004668Y029771D01*
X004293Y030089D02*
X006105Y030089D01*
X006656Y030089D02*
X006876Y030089D01*
X006876Y030061D02*
X006944Y029896D01*
X007070Y029770D01*
X007235Y029702D01*
X007413Y029702D01*
X007578Y029770D01*
X007704Y029896D01*
X007772Y030061D01*
X007772Y030239D01*
X007704Y030404D01*
X007578Y030530D01*
X007413Y030598D01*
X007235Y030598D01*
X007070Y030530D01*
X006944Y030404D01*
X006876Y030239D01*
X006876Y030061D01*
X007030Y029771D02*
X007070Y029771D01*
X007122Y029452D02*
X008438Y029452D01*
X008409Y029382D02*
X008409Y029168D01*
X008491Y028969D01*
X008643Y028817D01*
X008745Y028775D01*
X008643Y028733D01*
X008491Y028581D01*
X008409Y028382D01*
X008409Y028168D01*
X008491Y027969D01*
X008643Y027817D01*
X008842Y027735D01*
X009056Y027735D01*
X009255Y027817D01*
X009407Y027969D01*
X009449Y028071D01*
X009491Y027969D01*
X009643Y027817D01*
X009842Y027735D01*
X010056Y027735D01*
X010255Y027817D01*
X010407Y027969D01*
X010449Y028071D01*
X010491Y027969D01*
X010643Y027817D01*
X010842Y027735D01*
X011056Y027735D01*
X011255Y027817D01*
X011407Y027969D01*
X011449Y028071D01*
X011491Y027969D01*
X011643Y027817D01*
X011842Y027735D01*
X012056Y027735D01*
X012255Y027817D01*
X012407Y027969D01*
X012449Y028071D01*
X012491Y027969D01*
X012643Y027817D01*
X012842Y027735D01*
X013056Y027735D01*
X013255Y027817D01*
X013407Y027969D01*
X013449Y028071D01*
X013491Y027969D01*
X013643Y027817D01*
X013842Y027735D01*
X014056Y027735D01*
X014255Y027817D01*
X014407Y027969D01*
X014449Y028071D01*
X014491Y027969D01*
X014643Y027817D01*
X014842Y027735D01*
X015056Y027735D01*
X015255Y027817D01*
X015407Y027969D01*
X015449Y028071D01*
X015491Y027969D01*
X015643Y027817D01*
X015842Y027735D01*
X016056Y027735D01*
X016255Y027817D01*
X016407Y027969D01*
X016449Y028071D01*
X016491Y027969D01*
X016643Y027817D01*
X016842Y027735D01*
X017056Y027735D01*
X017255Y027817D01*
X017407Y027969D01*
X017449Y028071D01*
X017491Y027969D01*
X017643Y027817D01*
X017842Y027735D01*
X018056Y027735D01*
X018255Y027817D01*
X018407Y027969D01*
X018436Y028040D01*
X018444Y028021D01*
X018570Y027895D01*
X018735Y027827D01*
X018913Y027827D01*
X019078Y027895D01*
X019137Y027954D01*
X019195Y027895D01*
X019360Y027827D01*
X019538Y027827D01*
X019703Y027895D01*
X019829Y028021D01*
X019897Y028186D01*
X019897Y028364D01*
X019829Y028529D01*
X019770Y028587D01*
X019829Y028646D01*
X019897Y028811D01*
X019897Y028989D01*
X019829Y029154D01*
X019703Y029280D01*
X019538Y029348D01*
X019360Y029348D01*
X019195Y029280D01*
X019137Y029221D01*
X019078Y029280D01*
X018913Y029348D01*
X018735Y029348D01*
X018570Y029280D01*
X018507Y029216D01*
X018509Y029231D01*
X018509Y029275D01*
X018509Y029319D01*
X018495Y029406D01*
X018468Y029490D01*
X018428Y029569D01*
X018376Y029640D01*
X018314Y029702D01*
X018243Y029754D01*
X018180Y029786D01*
X018255Y029817D01*
X018407Y029969D01*
X018489Y030168D01*
X018489Y030382D01*
X018407Y030581D01*
X018255Y030733D01*
X018180Y030764D01*
X018243Y030796D01*
X018314Y030848D01*
X018376Y030910D01*
X018428Y030981D01*
X018468Y031060D01*
X018495Y031144D01*
X018509Y031231D01*
X018509Y031275D01*
X018509Y031319D01*
X018495Y031406D01*
X018468Y031490D01*
X018428Y031569D01*
X018376Y031640D01*
X018314Y031702D01*
X018243Y031754D01*
X018164Y031794D01*
X018080Y031821D01*
X017993Y031835D01*
X017949Y031835D01*
X017905Y031835D01*
X017818Y031821D01*
X017734Y031794D01*
X017656Y031754D01*
X017584Y031702D01*
X017522Y031640D01*
X017470Y031569D01*
X017438Y031506D01*
X017407Y031581D01*
X017255Y031733D01*
X017056Y031815D01*
X016842Y031815D01*
X016643Y031733D01*
X016491Y031581D01*
X016449Y031479D01*
X016407Y031581D01*
X016255Y031733D01*
X016056Y031815D01*
X015842Y031815D01*
X015643Y031733D01*
X015491Y031581D01*
X015449Y031479D01*
X015407Y031581D01*
X015255Y031733D01*
X015056Y031815D01*
X014842Y031815D01*
X014643Y031733D01*
X014491Y031581D01*
X014449Y031479D01*
X014407Y031581D01*
X014255Y031733D01*
X014056Y031815D01*
X013842Y031815D01*
X013643Y031733D01*
X013491Y031581D01*
X013449Y031479D01*
X013407Y031581D01*
X013255Y031733D01*
X013056Y031815D01*
X012842Y031815D01*
X012643Y031733D01*
X012491Y031581D01*
X012449Y031479D01*
X012407Y031581D01*
X012255Y031733D01*
X012056Y031815D01*
X011842Y031815D01*
X011643Y031733D01*
X011491Y031581D01*
X011449Y031479D01*
X011407Y031581D01*
X011255Y031733D01*
X011056Y031815D01*
X010842Y031815D01*
X010643Y031733D01*
X010491Y031581D01*
X010449Y031479D01*
X010407Y031581D01*
X010255Y031733D01*
X010056Y031815D01*
X009842Y031815D01*
X009643Y031733D01*
X009491Y031581D01*
X009449Y031479D01*
X009407Y031581D01*
X009255Y031733D01*
X009056Y031815D01*
X008842Y031815D01*
X008643Y031733D01*
X008491Y031581D01*
X008409Y031382D01*
X008409Y031168D01*
X008491Y030969D01*
X008643Y030817D01*
X008745Y030775D01*
X008643Y030733D01*
X008491Y030581D01*
X008409Y030382D01*
X008409Y030168D01*
X008491Y029969D01*
X008643Y029817D01*
X008745Y029775D01*
X008643Y029733D01*
X008491Y029581D01*
X008409Y029382D01*
X008423Y029134D02*
X007073Y029134D01*
X006844Y028815D02*
X008648Y028815D01*
X008456Y028497D02*
X001309Y028497D01*
X001309Y028815D02*
X001597Y028815D01*
X001506Y028905D02*
X001752Y028660D01*
X002073Y028527D01*
X002420Y028527D01*
X002741Y028660D01*
X002986Y028905D01*
X003119Y029226D01*
X003119Y029574D01*
X002986Y029895D01*
X002741Y030140D01*
X002420Y030273D01*
X002073Y030273D01*
X001752Y030140D01*
X001506Y029895D01*
X001373Y029574D01*
X001373Y029226D01*
X001506Y028905D01*
X001412Y029134D02*
X001309Y029134D01*
X001309Y029452D02*
X001373Y029452D01*
X001309Y029771D02*
X001455Y029771D01*
X001309Y030089D02*
X001701Y030089D01*
X001309Y030408D02*
X006948Y030408D01*
X007700Y030408D02*
X008419Y030408D01*
X008442Y030089D02*
X007772Y030089D01*
X007578Y029771D02*
X008734Y029771D01*
X008636Y030726D02*
X005789Y030726D01*
X005881Y030819D02*
X005655Y030593D01*
X005359Y030470D01*
X005039Y030470D01*
X004743Y030593D01*
X004517Y030819D01*
X004394Y031115D01*
X004394Y031435D01*
X004477Y031636D01*
X004439Y031598D01*
X004368Y031546D01*
X004289Y031506D01*
X004205Y031479D01*
X004118Y031465D01*
X004074Y031465D01*
X004074Y032025D01*
X004074Y032025D01*
X004074Y032585D01*
X004030Y032585D01*
X003943Y032571D01*
X003859Y032544D01*
X003781Y032504D01*
X003709Y032452D01*
X003647Y032390D01*
X003595Y032319D01*
X003537Y032319D01*
X003532Y032331D02*
X003380Y032483D01*
X003181Y032565D01*
X002967Y032565D01*
X002768Y032483D01*
X002616Y032331D01*
X002574Y032229D01*
X002532Y032331D01*
X002380Y032483D01*
X002181Y032565D01*
X001967Y032565D01*
X001768Y032483D01*
X001616Y032331D01*
X001534Y032132D01*
X001534Y031918D01*
X001616Y031719D01*
X001768Y031567D01*
X001967Y031485D01*
X002181Y031485D01*
X002380Y031567D01*
X002532Y031719D01*
X002574Y031821D01*
X002616Y031719D01*
X002768Y031567D01*
X002967Y031485D01*
X003181Y031485D01*
X003380Y031567D01*
X003532Y031719D01*
X003563Y031794D01*
X003595Y031731D01*
X003647Y031660D01*
X003709Y031598D01*
X003781Y031546D01*
X003859Y031506D01*
X003943Y031479D01*
X004030Y031465D01*
X004074Y031465D01*
X004074Y032025D01*
X004074Y032025D01*
X004074Y032585D01*
X004118Y032585D01*
X004205Y032571D01*
X004289Y032544D01*
X004368Y032504D01*
X004439Y032452D01*
X004501Y032390D01*
X004553Y032319D01*
X018699Y032319D01*
X018772Y032000D02*
X005552Y032000D01*
X005655Y031957D02*
X005359Y032080D01*
X005039Y032080D01*
X004743Y031957D01*
X004590Y031805D01*
X004593Y031810D01*
X004620Y031894D01*
X004634Y031981D01*
X004634Y032025D01*
X004074Y032025D01*
X004634Y032025D01*
X004634Y032069D01*
X004620Y032156D01*
X004593Y032240D01*
X004553Y032319D01*
X004634Y032000D02*
X004846Y032000D01*
X004394Y031363D02*
X001309Y031363D01*
X001309Y031045D02*
X004423Y031045D01*
X004610Y030726D02*
X001309Y030726D01*
X001309Y031682D02*
X001654Y031682D01*
X001534Y032000D02*
X001309Y032000D01*
X001309Y032319D02*
X001611Y032319D01*
X001309Y032637D02*
X009283Y032637D01*
X009084Y032956D02*
X001309Y032956D01*
X001309Y033274D02*
X009128Y033274D01*
X009965Y032637D02*
X010283Y032637D01*
X010965Y032637D02*
X011283Y032637D01*
X011965Y032637D02*
X012283Y032637D01*
X012965Y032637D02*
X018854Y032637D01*
X018025Y033433D02*
X018132Y033540D01*
X017766Y033540D01*
X017873Y033433D01*
X017949Y033249D01*
X017949Y033051D01*
X017949Y033249D01*
X018025Y033433D01*
X017959Y033274D02*
X017939Y033274D01*
X017910Y032956D02*
X017988Y032956D01*
X017949Y031835D02*
X017949Y031275D01*
X017949Y031275D01*
X017949Y031835D01*
X017949Y031682D02*
X017949Y031682D01*
X017949Y031363D02*
X017949Y031363D01*
X017949Y031275D02*
X018509Y031275D01*
X017949Y031275D01*
X017949Y031275D01*
X018334Y031682D02*
X025214Y031682D01*
X025214Y032000D02*
X019626Y032000D01*
X019699Y032319D02*
X025214Y032319D01*
X025214Y032637D02*
X019544Y032637D01*
X019587Y032956D02*
X025214Y032956D01*
X025214Y033274D02*
X019699Y033274D01*
X018502Y031363D02*
X025214Y031363D01*
X025214Y031045D02*
X018460Y031045D01*
X018262Y030726D02*
X019612Y030726D01*
X019613Y030727D02*
X019384Y030632D01*
X019209Y030456D01*
X019114Y030227D01*
X019114Y029979D01*
X019209Y029749D01*
X019384Y029574D01*
X019613Y029479D01*
X019862Y029479D01*
X020091Y029574D01*
X020266Y029749D01*
X020361Y029979D01*
X020361Y030227D01*
X020266Y030456D01*
X020091Y030632D01*
X019862Y030727D01*
X019613Y030727D01*
X019863Y030726D02*
X024785Y030726D01*
X025036Y030726D02*
X025214Y030726D01*
X024362Y030408D02*
X020286Y030408D01*
X020361Y030089D02*
X024287Y030089D01*
X024373Y029771D02*
X020275Y029771D01*
X020603Y029452D02*
X018480Y029452D01*
X018509Y029275D02*
X017949Y029275D01*
X017949Y029275D01*
X018509Y029275D01*
X018210Y029771D02*
X019200Y029771D01*
X019114Y030089D02*
X018457Y030089D01*
X018479Y030408D02*
X019188Y030408D01*
X019837Y029134D02*
X020409Y029134D01*
X020456Y028815D02*
X019897Y028815D01*
X019842Y028497D02*
X020426Y028497D01*
X020178Y028178D02*
X019894Y028178D01*
X019617Y027860D02*
X020183Y027860D01*
X020456Y027541D02*
X008522Y027541D01*
X008601Y027860D02*
X008373Y027860D01*
X008409Y028178D02*
X005620Y028178D01*
X005874Y027860D02*
X007775Y027860D01*
X007626Y027541D02*
X005941Y027541D01*
X005902Y026586D02*
X010449Y026586D01*
X010449Y026267D02*
X005989Y026267D01*
X005886Y025949D02*
X010449Y025949D01*
X010449Y025630D02*
X005858Y025630D01*
X005989Y025312D02*
X010449Y025312D01*
X010272Y024993D02*
X007626Y024993D01*
X007552Y025068D02*
X007262Y025187D01*
X006949Y025187D01*
X006659Y025068D01*
X006438Y024846D01*
X006318Y024557D01*
X006318Y024243D01*
X006438Y023954D01*
X006659Y023732D01*
X006949Y023613D01*
X007262Y023613D01*
X007552Y023732D01*
X007773Y023954D01*
X007893Y024243D01*
X007893Y024557D01*
X007773Y024846D01*
X007552Y025068D01*
X007844Y024675D02*
X010054Y024675D01*
X010005Y024356D02*
X007893Y024356D01*
X007808Y024038D02*
X010090Y024038D01*
X010379Y023719D02*
X007519Y023719D01*
X006692Y023719D02*
X005769Y023719D01*
X005935Y024038D02*
X006403Y024038D01*
X006318Y024356D02*
X005989Y024356D01*
X005813Y024675D02*
X006367Y024675D01*
X006585Y024993D02*
X005917Y024993D01*
X005982Y023401D02*
X010449Y023401D01*
X010449Y023082D02*
X005954Y023082D01*
X005681Y022764D02*
X010449Y022764D01*
X010449Y022445D02*
X005963Y022445D01*
X005972Y022127D02*
X010449Y022127D01*
X010431Y021808D02*
X010449Y021808D01*
X009933Y021808D02*
X009933Y021808D01*
X009933Y021490D02*
X009933Y021490D01*
X009933Y021171D02*
X009933Y021171D01*
X009933Y020853D02*
X009933Y020853D01*
X009776Y020853D02*
X009288Y020853D01*
X009560Y020534D02*
X010449Y020534D01*
X010449Y020216D02*
X009539Y020216D01*
X010091Y020853D02*
X010449Y020853D01*
X011199Y021171D02*
X012004Y021171D01*
X012004Y021173D02*
X011967Y021100D01*
X011942Y021022D01*
X011929Y020941D01*
X011929Y020900D01*
X011929Y020859D01*
X011942Y020778D01*
X011967Y020700D01*
X012004Y020627D01*
X012052Y020561D01*
X012110Y020503D01*
X012177Y020455D01*
X012249Y020418D01*
X012327Y020393D01*
X012408Y020380D01*
X012449Y020380D01*
X012449Y020900D01*
X011929Y020900D01*
X012449Y020900D01*
X012449Y020900D01*
X012449Y021420D01*
X012408Y021420D01*
X012327Y021407D01*
X012249Y021382D01*
X012177Y021345D01*
X012110Y021297D01*
X012052Y021239D01*
X012004Y021173D01*
X011930Y020853D02*
X011824Y020853D01*
X011824Y020534D02*
X012080Y020534D01*
X012449Y020534D02*
X012449Y020534D01*
X012449Y020380D02*
X012490Y020380D01*
X012571Y020393D01*
X012649Y020418D01*
X012722Y020455D01*
X012788Y020503D01*
X012846Y020561D01*
X012894Y020627D01*
X012931Y020700D01*
X012956Y020778D01*
X012957Y020782D01*
X013025Y020617D01*
X013166Y020476D01*
X013350Y020400D01*
X013549Y020400D01*
X013732Y020476D01*
X013873Y020617D01*
X013949Y020801D01*
X014025Y020617D01*
X014166Y020476D01*
X014350Y020400D01*
X014549Y020400D01*
X014732Y020476D01*
X014873Y020617D01*
X014949Y020801D01*
X015025Y020617D01*
X015166Y020476D01*
X015350Y020400D01*
X015549Y020400D01*
X015732Y020476D01*
X015873Y020617D01*
X015949Y020801D01*
X015949Y020999D01*
X015873Y021183D01*
X015732Y021324D01*
X015549Y021400D01*
X015350Y021400D01*
X015166Y021324D01*
X015025Y021183D01*
X014949Y020999D01*
X014949Y020801D01*
X014949Y020999D01*
X014873Y021183D01*
X014732Y021324D01*
X014549Y021400D01*
X014350Y021400D01*
X014166Y021324D01*
X014025Y021183D01*
X013949Y020999D01*
X013949Y020801D01*
X013949Y020999D01*
X013873Y021183D01*
X013732Y021324D01*
X013549Y021400D01*
X013350Y021400D01*
X013166Y021324D01*
X013025Y021183D01*
X012957Y021018D01*
X012956Y021022D01*
X012931Y021100D01*
X012894Y021173D01*
X012846Y021239D01*
X012788Y021297D01*
X012722Y021345D01*
X012649Y021382D01*
X012571Y021407D01*
X012490Y021420D01*
X012449Y021420D01*
X012449Y020900D01*
X012449Y020900D01*
X012449Y020900D01*
X012449Y020380D01*
X012818Y020534D02*
X013108Y020534D01*
X013020Y021171D02*
X012895Y021171D01*
X012449Y021171D02*
X012449Y021171D01*
X012449Y020853D02*
X012449Y020853D01*
X011824Y020216D02*
X016199Y020216D01*
X016199Y020534D02*
X015790Y020534D01*
X015949Y020853D02*
X016199Y020853D01*
X016199Y021171D02*
X015878Y021171D01*
X016199Y021490D02*
X011199Y021490D01*
X011199Y021808D02*
X011395Y021808D01*
X011753Y021808D02*
X014395Y021808D01*
X014475Y021775D02*
X014674Y021775D01*
X014857Y021851D01*
X014998Y021992D01*
X015074Y022176D01*
X015074Y022374D01*
X014998Y022558D01*
X014857Y022699D01*
X014674Y022775D01*
X014475Y022775D01*
X014291Y022699D01*
X014150Y022558D01*
X014074Y022374D01*
X014074Y022176D01*
X014150Y021992D01*
X014291Y021851D01*
X014475Y021775D01*
X014753Y021808D02*
X016199Y021808D01*
X015982Y021976D02*
X016123Y022117D01*
X016199Y022301D01*
X016199Y022499D01*
X016123Y022683D01*
X015982Y022824D01*
X015799Y022900D01*
X015600Y022900D01*
X015416Y022824D01*
X015275Y022683D01*
X015199Y022499D01*
X015199Y022301D01*
X015275Y022117D01*
X015416Y021976D01*
X015600Y021900D01*
X015799Y021900D01*
X015982Y021976D01*
X016127Y022127D02*
X016199Y022127D01*
X016199Y022445D02*
X016199Y022445D01*
X016199Y022764D02*
X016043Y022764D01*
X016199Y023082D02*
X014910Y023082D01*
X014873Y022992D02*
X014949Y023176D01*
X014949Y023374D01*
X014873Y023558D01*
X014732Y023699D01*
X014549Y023775D01*
X014350Y023775D01*
X014166Y023699D01*
X014025Y023558D01*
X013949Y023374D01*
X013949Y023176D01*
X014025Y022992D01*
X014166Y022851D01*
X014350Y022775D01*
X014549Y022775D01*
X014732Y022851D01*
X014873Y022992D01*
X014701Y022764D02*
X015355Y022764D01*
X015199Y022445D02*
X015045Y022445D01*
X015054Y022127D02*
X015271Y022127D01*
X015020Y021171D02*
X014878Y021171D01*
X014949Y020853D02*
X014949Y020853D01*
X014790Y020534D02*
X015108Y020534D01*
X014108Y020534D02*
X013790Y020534D01*
X013949Y020853D02*
X013949Y020853D01*
X013878Y021171D02*
X014020Y021171D01*
X014094Y022127D02*
X012054Y022127D01*
X012045Y022445D02*
X014103Y022445D01*
X014447Y022764D02*
X011701Y022764D01*
X011933Y023082D02*
X013988Y023082D01*
X013960Y023401D02*
X011955Y023401D01*
X011956Y023397D02*
X011931Y023475D01*
X011894Y023548D01*
X011846Y023614D01*
X011788Y023672D01*
X011722Y023720D01*
X011649Y023757D01*
X011571Y023782D01*
X011490Y023795D01*
X011449Y023795D01*
X011449Y023275D01*
X011449Y023275D01*
X011969Y023275D01*
X011969Y023316D01*
X011956Y023397D01*
X011723Y023719D02*
X014214Y023719D01*
X014684Y023719D02*
X016199Y023719D01*
X016199Y023401D02*
X014938Y023401D01*
X015237Y024356D02*
X016199Y024356D01*
X016199Y024038D02*
X011495Y024038D01*
X011449Y023719D02*
X011449Y023719D01*
X011449Y023401D02*
X011449Y023401D01*
X011449Y023275D02*
X011449Y023275D01*
X011580Y024356D02*
X011661Y024356D01*
X011574Y024675D02*
X011531Y024675D01*
X011710Y024993D02*
X011313Y024993D01*
X011199Y025312D02*
X015199Y025312D01*
X015199Y025301D02*
X015275Y025117D01*
X015416Y024976D01*
X015600Y024900D01*
X015799Y024900D01*
X015982Y024976D01*
X016123Y025117D01*
X016199Y025301D01*
X016199Y025499D01*
X016123Y025683D01*
X015982Y025824D01*
X015799Y025900D01*
X015600Y025900D01*
X015416Y025824D01*
X015275Y025683D01*
X015199Y025499D01*
X015199Y025301D01*
X015188Y024993D02*
X015399Y024993D01*
X015324Y024675D02*
X016199Y024675D01*
X016199Y024993D02*
X015999Y024993D01*
X016199Y025312D02*
X016199Y025312D01*
X016199Y025630D02*
X016145Y025630D01*
X016199Y025949D02*
X015074Y025949D01*
X015074Y025926D02*
X014998Y025742D01*
X014857Y025601D01*
X014674Y025525D01*
X014475Y025525D01*
X014291Y025601D01*
X014150Y025742D01*
X014074Y025926D01*
X014074Y026124D01*
X014150Y026308D01*
X014291Y026449D01*
X014475Y026525D01*
X014674Y026525D01*
X014857Y026449D01*
X014998Y026308D01*
X015074Y026124D01*
X015074Y025926D01*
X015253Y025630D02*
X014886Y025630D01*
X014460Y024993D02*
X014188Y024993D01*
X014324Y024675D02*
X014324Y024675D01*
X014237Y024356D02*
X014411Y024356D01*
X014262Y025630D02*
X011886Y025630D01*
X012074Y025949D02*
X012297Y025949D01*
X012319Y025896D02*
X012445Y025770D01*
X012610Y025702D01*
X012788Y025702D01*
X012953Y025770D01*
X013079Y025896D01*
X013147Y026061D01*
X013147Y026239D01*
X013079Y026404D01*
X012953Y026530D01*
X012788Y026598D01*
X012610Y026598D01*
X012445Y026530D01*
X012319Y026404D01*
X012251Y026239D01*
X012251Y026061D01*
X012319Y025896D01*
X012262Y026267D02*
X012015Y026267D01*
X011820Y026586D02*
X012580Y026586D01*
X012819Y026586D02*
X014328Y026586D01*
X014291Y026601D02*
X014475Y026525D01*
X014674Y026525D01*
X014857Y026601D01*
X014998Y026742D01*
X015074Y026926D01*
X015074Y027124D01*
X014998Y027308D01*
X014857Y027449D01*
X014674Y027525D01*
X014475Y027525D01*
X014291Y027449D01*
X014150Y027308D01*
X014074Y027124D01*
X014074Y026926D01*
X014150Y026742D01*
X014291Y026601D01*
X014083Y026904D02*
X012065Y026904D01*
X012033Y027223D02*
X014115Y027223D01*
X014297Y027860D02*
X014601Y027860D01*
X015033Y027223D02*
X015348Y027223D01*
X015291Y027199D02*
X015150Y027058D01*
X015074Y026874D01*
X015074Y026676D01*
X015150Y026492D01*
X015291Y026351D01*
X015475Y026275D01*
X015674Y026275D01*
X015857Y026351D01*
X015998Y026492D01*
X016074Y026676D01*
X016074Y026874D01*
X015998Y027058D01*
X015857Y027199D01*
X015674Y027275D01*
X015475Y027275D01*
X015291Y027199D01*
X015086Y026904D02*
X015065Y026904D01*
X015111Y026586D02*
X014820Y026586D01*
X015015Y026267D02*
X022318Y026267D01*
X022257Y026206D02*
X022175Y026007D01*
X022175Y025793D01*
X022257Y025594D01*
X022409Y025442D01*
X022607Y025360D01*
X022822Y025360D01*
X023021Y025442D01*
X023173Y025594D01*
X023255Y025793D01*
X023255Y026007D01*
X023173Y026206D01*
X023021Y026358D01*
X022822Y026440D01*
X022607Y026440D01*
X022409Y026358D01*
X022257Y026206D01*
X022175Y025949D02*
X021949Y025949D01*
X021949Y025630D02*
X022242Y025630D01*
X021949Y025312D02*
X025214Y025312D01*
X025214Y025630D02*
X025156Y025630D01*
X025214Y026267D02*
X025080Y026267D01*
X024967Y026586D02*
X025214Y026586D01*
X024432Y026586D02*
X022967Y026586D01*
X023111Y026267D02*
X024287Y026267D01*
X024143Y025949D02*
X023255Y025949D01*
X023187Y025630D02*
X024211Y025630D01*
X024166Y024993D02*
X023232Y024993D01*
X023228Y025003D02*
X023052Y025179D01*
X022823Y025274D01*
X022575Y025274D01*
X022346Y025179D01*
X022170Y025003D01*
X022075Y024774D01*
X022075Y024526D01*
X022170Y024297D01*
X022317Y024150D01*
X022170Y024003D01*
X022075Y023774D01*
X022075Y023526D01*
X022170Y023297D01*
X022346Y023121D01*
X022575Y023026D01*
X022823Y023026D01*
X023052Y023121D01*
X023228Y023297D01*
X023323Y023526D01*
X023323Y023774D01*
X023228Y024003D01*
X023081Y024150D01*
X023228Y024297D01*
X023323Y024526D01*
X023323Y024774D01*
X023228Y025003D01*
X023323Y024675D02*
X024075Y024675D01*
X024146Y024356D02*
X023253Y024356D01*
X023194Y024038D02*
X024204Y024038D01*
X024075Y023719D02*
X023323Y023719D01*
X023271Y023401D02*
X024127Y023401D01*
X024440Y023082D02*
X022958Y023082D01*
X022822Y022940D02*
X023021Y022858D01*
X023173Y022706D01*
X023255Y022507D01*
X023255Y022293D01*
X023173Y022094D01*
X023021Y021942D01*
X022822Y021860D01*
X022607Y021860D01*
X022409Y021942D01*
X022257Y022094D01*
X022175Y022293D01*
X022175Y022507D01*
X022257Y022706D01*
X022409Y022858D01*
X022607Y022940D01*
X022822Y022940D01*
X023115Y022764D02*
X024283Y022764D01*
X024143Y022445D02*
X023255Y022445D01*
X023186Y022127D02*
X024212Y022127D01*
X024164Y021490D02*
X023234Y021490D01*
X023323Y021171D02*
X024075Y021171D01*
X024147Y020853D02*
X023251Y020853D01*
X022147Y020853D02*
X021949Y020853D01*
X021949Y021171D02*
X022075Y021171D01*
X022164Y021490D02*
X021949Y021490D01*
X021949Y021808D02*
X025214Y021808D01*
X025214Y022127D02*
X025155Y022127D01*
X025214Y022764D02*
X025083Y022764D01*
X024958Y023082D02*
X025214Y023082D01*
X022440Y023082D02*
X021949Y023082D01*
X021949Y022764D02*
X022315Y022764D01*
X022175Y022445D02*
X021949Y022445D01*
X021949Y022127D02*
X022244Y022127D01*
X021324Y022127D02*
X016824Y022127D01*
X016824Y022445D02*
X021324Y022445D01*
X021324Y022764D02*
X016824Y022764D01*
X016824Y023082D02*
X021324Y023082D01*
X021324Y023401D02*
X016824Y023401D01*
X017663Y023719D02*
X020235Y023719D01*
X020039Y024038D02*
X017860Y024038D01*
X017893Y024356D02*
X020005Y024356D01*
X020106Y024675D02*
X017792Y024675D01*
X017430Y024993D02*
X020468Y024993D01*
X021117Y024993D02*
X021324Y024993D01*
X021324Y025312D02*
X016824Y025312D01*
X016674Y026275D02*
X016475Y026275D01*
X016291Y026351D01*
X016150Y026492D01*
X016074Y026676D01*
X016074Y026874D01*
X016150Y027058D01*
X016291Y027199D01*
X016475Y027275D01*
X016674Y027275D01*
X016857Y027199D01*
X016998Y027058D01*
X017074Y026874D01*
X017074Y026676D01*
X016998Y026492D01*
X016857Y026351D01*
X016674Y026275D01*
X017037Y026586D02*
X022432Y026586D01*
X022126Y026904D02*
X017062Y026904D01*
X016800Y027223D02*
X022075Y027223D01*
X021942Y027541D02*
X022208Y027541D01*
X021456Y027541D02*
X020942Y027541D01*
X021289Y029452D02*
X021587Y029452D01*
X022273Y029452D02*
X022375Y029452D01*
X023061Y029452D02*
X023331Y029452D01*
X023702Y029452D02*
X023702Y029452D01*
X023702Y029593D02*
X023702Y029036D01*
X023702Y029036D01*
X023702Y029593D01*
X023702Y029134D02*
X023702Y029134D01*
X023702Y029036D02*
X024259Y029036D01*
X023702Y029036D01*
X023702Y029036D01*
X023916Y028520D02*
X023916Y028520D01*
X023972Y028497D02*
X024426Y028497D01*
X024215Y028815D02*
X025214Y028815D01*
X025214Y028497D02*
X024972Y028497D01*
X025214Y029134D02*
X024250Y029134D01*
X024073Y029452D02*
X025214Y029452D01*
X024208Y027541D02*
X023942Y027541D01*
X024075Y027223D02*
X023323Y027223D01*
X023272Y026904D02*
X024126Y026904D01*
X023456Y027541D02*
X023190Y027541D01*
X022166Y024993D02*
X021949Y024993D01*
X021949Y024675D02*
X022075Y024675D01*
X022146Y024356D02*
X021949Y024356D01*
X021949Y024038D02*
X022204Y024038D01*
X022075Y023719D02*
X021949Y023719D01*
X021949Y023401D02*
X022127Y023401D01*
X021324Y021808D02*
X020310Y021808D01*
X020334Y021791D02*
X020255Y021848D01*
X020169Y021892D01*
X020077Y021921D01*
X019982Y021937D01*
X019933Y021937D01*
X019885Y021937D01*
X019789Y021921D01*
X019697Y021892D01*
X019611Y021848D01*
X019533Y021791D01*
X019465Y021722D01*
X019433Y021679D01*
X019286Y021826D01*
X019067Y021917D01*
X018831Y021917D01*
X018612Y021826D01*
X018457Y021671D01*
X018301Y021826D01*
X018083Y021917D01*
X017847Y021917D01*
X017628Y021826D01*
X017461Y021659D01*
X017370Y021440D01*
X017370Y021204D01*
X017461Y020986D01*
X017628Y020818D01*
X017791Y020751D01*
X017666Y020699D01*
X017525Y020558D01*
X017449Y020374D01*
X017449Y020176D01*
X017525Y019992D01*
X017666Y019851D01*
X017850Y019775D01*
X018049Y019775D01*
X018232Y019851D01*
X018373Y019992D01*
X018449Y020176D01*
X018525Y019992D01*
X018666Y019851D01*
X018850Y019775D01*
X019049Y019775D01*
X019232Y019851D01*
X019373Y019992D01*
X019449Y020176D01*
X019449Y020374D01*
X019373Y020558D01*
X019232Y020699D01*
X019115Y020748D01*
X019286Y020818D01*
X019433Y020966D01*
X019465Y020922D01*
X019533Y020854D01*
X019611Y020797D01*
X019697Y020753D01*
X019789Y020723D01*
X019885Y020708D01*
X019933Y020708D01*
X019933Y021322D01*
X019933Y021322D01*
X019933Y020708D01*
X019982Y020708D01*
X020077Y020723D01*
X020169Y020753D01*
X020255Y020797D01*
X020334Y020854D01*
X020402Y020922D01*
X020459Y021000D01*
X020503Y021086D01*
X020533Y021178D01*
X020548Y021274D01*
X020548Y021322D01*
X019933Y021322D01*
X019933Y021937D01*
X019933Y021322D01*
X019933Y021322D01*
X019933Y021322D01*
X020548Y021322D01*
X020548Y021371D01*
X020533Y021466D01*
X020503Y021558D01*
X020459Y021644D01*
X020402Y021722D01*
X020334Y021791D01*
X020525Y021490D02*
X021324Y021490D01*
X021324Y021171D02*
X020530Y021171D01*
X020332Y020853D02*
X021324Y020853D01*
X021324Y020534D02*
X019383Y020534D01*
X019320Y020853D02*
X019535Y020853D01*
X019933Y020853D02*
X019933Y020853D01*
X019933Y021171D02*
X019933Y021171D01*
X019933Y021490D02*
X019933Y021490D01*
X019933Y021808D02*
X019933Y021808D01*
X019557Y021808D02*
X019304Y021808D01*
X018594Y021808D02*
X018320Y021808D01*
X017610Y021808D02*
X016824Y021808D01*
X016824Y021490D02*
X017391Y021490D01*
X017384Y021171D02*
X016824Y021171D01*
X016824Y020853D02*
X017594Y020853D01*
X017515Y020534D02*
X016824Y020534D01*
X016824Y020216D02*
X017449Y020216D01*
X017620Y019897D02*
X016824Y019897D01*
X016824Y019579D02*
X023438Y019579D01*
X023477Y019260D02*
X023186Y019260D01*
X023157Y019331D02*
X023239Y019132D01*
X023239Y018918D01*
X023157Y018719D01*
X023005Y018567D01*
X022903Y018525D01*
X023005Y018483D01*
X023157Y018331D01*
X023239Y018132D01*
X023239Y017918D01*
X023157Y017719D01*
X023005Y017567D01*
X022930Y017536D01*
X022993Y017504D01*
X023064Y017452D01*
X023126Y017390D01*
X023178Y017319D01*
X023218Y017240D01*
X023245Y017156D01*
X023259Y017069D01*
X023259Y017025D01*
X022699Y017025D01*
X022139Y017025D01*
X022139Y016981D01*
X022153Y016894D01*
X022180Y016810D01*
X022220Y016731D01*
X022272Y016660D01*
X022334Y016598D01*
X022406Y016546D01*
X022484Y016506D01*
X022568Y016479D01*
X022655Y016465D01*
X022699Y016465D01*
X022699Y017025D01*
X022699Y017025D01*
X022139Y017025D01*
X022139Y017069D01*
X022153Y017156D01*
X022180Y017240D01*
X022220Y017319D01*
X022272Y017390D01*
X022334Y017452D01*
X022406Y017504D01*
X022468Y017536D01*
X022393Y017567D01*
X022241Y017719D01*
X022159Y017918D01*
X022159Y018132D01*
X022241Y018331D01*
X022393Y018483D01*
X022495Y018525D01*
X022393Y018567D01*
X022241Y018719D01*
X022159Y018918D01*
X022159Y019132D01*
X022241Y019331D01*
X022393Y019483D01*
X022592Y019565D01*
X022806Y019565D01*
X023005Y019483D01*
X023157Y019331D01*
X023239Y018942D02*
X023324Y018942D01*
X023398Y018623D02*
X023061Y018623D01*
X023168Y018305D02*
X023399Y018305D01*
X023324Y017986D02*
X023239Y017986D01*
X023105Y017668D02*
X023474Y017668D01*
X023441Y017349D02*
X023156Y017349D01*
X023259Y017031D02*
X023324Y017031D01*
X023259Y017025D02*
X022699Y017025D01*
X022699Y017025D01*
X022699Y016465D01*
X022743Y016465D01*
X022830Y016479D01*
X022914Y016506D01*
X022993Y016546D01*
X023064Y016598D01*
X023126Y016660D01*
X023178Y016731D01*
X023218Y016810D01*
X023245Y016894D01*
X023259Y016981D01*
X023259Y017025D01*
X023164Y016712D02*
X023430Y016712D01*
X023332Y016394D02*
X021487Y016394D01*
X021460Y016329D02*
X021580Y016618D01*
X021580Y016932D01*
X021460Y017221D01*
X021239Y017443D01*
X020949Y017562D01*
X020636Y017562D01*
X020346Y017443D01*
X020125Y017221D01*
X020005Y016932D01*
X020005Y016618D01*
X020125Y016329D01*
X020346Y016107D01*
X020636Y015988D01*
X020949Y015988D01*
X021239Y016107D01*
X021460Y016329D01*
X021160Y016075D02*
X023366Y016075D01*
X023106Y015757D02*
X023680Y015757D01*
X023725Y015775D02*
X023541Y015699D01*
X023400Y015558D01*
X023324Y015374D01*
X023324Y015176D01*
X023400Y014992D01*
X023541Y014851D01*
X023574Y014838D01*
X023541Y014824D01*
X023400Y014683D01*
X023324Y014499D01*
X023324Y014301D01*
X023400Y014117D01*
X023541Y013976D01*
X023725Y013900D01*
X023924Y013900D01*
X024107Y013976D01*
X024248Y014117D01*
X024324Y014301D01*
X024324Y014499D01*
X024248Y014683D01*
X024107Y014824D01*
X024074Y014838D01*
X024107Y014851D01*
X024248Y014992D01*
X024324Y015176D01*
X024324Y015374D01*
X024248Y015558D01*
X024107Y015699D01*
X023924Y015775D01*
X023725Y015775D01*
X023968Y015757D02*
X024542Y015757D01*
X024409Y015438D02*
X024298Y015438D01*
X024301Y015120D02*
X024481Y015120D01*
X024586Y014801D02*
X024130Y014801D01*
X024324Y014483D02*
X024409Y014483D01*
X024462Y014164D02*
X024268Y014164D01*
X024107Y013824D02*
X023924Y013900D01*
X023725Y013900D01*
X023541Y013824D01*
X023400Y013683D01*
X023324Y013499D01*
X023324Y013301D01*
X023400Y013117D01*
X023541Y012976D01*
X023725Y012900D01*
X023541Y012824D01*
X023400Y012683D01*
X023324Y012499D01*
X023324Y012301D01*
X023400Y012117D01*
X023541Y011976D01*
X023725Y011900D01*
X023541Y011824D01*
X023400Y011683D01*
X023324Y011499D01*
X023324Y011301D01*
X023400Y011117D01*
X023541Y010976D01*
X023574Y010962D01*
X023541Y010949D01*
X023400Y010808D01*
X023324Y010624D01*
X023324Y010426D01*
X023400Y010242D01*
X023541Y010101D01*
X023725Y010025D01*
X023541Y009949D01*
X023400Y009808D01*
X023324Y009624D01*
X023324Y009426D01*
X023400Y009242D01*
X023541Y009101D01*
X023725Y009025D01*
X023924Y009025D01*
X024107Y009101D01*
X024248Y009242D01*
X024324Y009426D01*
X024324Y009624D01*
X024248Y009808D01*
X024107Y009949D01*
X023924Y010025D01*
X023725Y010025D01*
X023924Y010025D01*
X024107Y010101D01*
X024248Y010242D01*
X024324Y010426D01*
X024324Y010624D01*
X024248Y010808D01*
X024107Y010949D01*
X024074Y010962D01*
X024107Y010976D01*
X024248Y011117D01*
X024324Y011301D01*
X024324Y011499D01*
X024248Y011683D01*
X024107Y011824D01*
X023924Y011900D01*
X023725Y011900D01*
X023924Y011900D01*
X024107Y011976D01*
X024248Y012117D01*
X024324Y012301D01*
X024324Y012499D01*
X024248Y012683D01*
X024107Y012824D01*
X023924Y012900D01*
X023725Y012900D01*
X023924Y012900D01*
X024107Y012976D01*
X024248Y013117D01*
X024324Y013301D01*
X024324Y013499D01*
X024248Y013683D01*
X024107Y013824D01*
X024055Y013846D02*
X024610Y013846D01*
X024402Y013527D02*
X024313Y013527D01*
X024286Y013209D02*
X024422Y013209D01*
X024716Y012890D02*
X023948Y012890D01*
X023700Y012890D02*
X022932Y012890D01*
X022914Y012881D02*
X022993Y012921D01*
X023064Y012973D01*
X023126Y013035D01*
X023178Y013106D01*
X023218Y013185D01*
X023245Y013269D01*
X023259Y013356D01*
X023259Y013400D01*
X023259Y013444D01*
X023245Y013531D01*
X023218Y013615D01*
X023178Y013694D01*
X023126Y013765D01*
X023064Y013827D01*
X022993Y013879D01*
X022930Y013911D01*
X023005Y013942D01*
X023157Y014094D01*
X023239Y014293D01*
X023239Y014507D01*
X023157Y014706D01*
X023005Y014858D01*
X022903Y014900D01*
X023005Y014942D01*
X023157Y015094D01*
X023239Y015293D01*
X023239Y015507D01*
X023157Y015706D01*
X023005Y015858D01*
X022806Y015940D01*
X022592Y015940D01*
X022393Y015858D01*
X022241Y015706D01*
X022159Y015507D01*
X022159Y015293D01*
X022241Y015094D01*
X022393Y014942D01*
X022495Y014900D01*
X022393Y014858D01*
X022241Y014706D01*
X022159Y014507D01*
X022159Y014293D01*
X022241Y014094D01*
X022393Y013942D01*
X022468Y013911D01*
X022406Y013879D01*
X022334Y013827D01*
X022272Y013765D01*
X022220Y013694D01*
X022180Y013615D01*
X022153Y013531D01*
X022139Y013444D01*
X022139Y013400D01*
X022139Y013356D01*
X022153Y013269D01*
X022180Y013185D01*
X022220Y013106D01*
X022272Y013035D01*
X022334Y012973D01*
X022406Y012921D01*
X022484Y012881D01*
X022568Y012854D01*
X022655Y012840D01*
X022699Y012840D01*
X022699Y013400D01*
X022139Y013400D01*
X022699Y013400D01*
X022699Y013400D01*
X022699Y013400D01*
X022699Y012840D01*
X022743Y012840D01*
X022830Y012854D01*
X022914Y012881D01*
X022699Y012890D02*
X022699Y012890D01*
X022466Y012890D02*
X020718Y012890D01*
X020703Y012905D02*
X020538Y012973D01*
X020360Y012973D01*
X020195Y012905D01*
X020069Y012779D01*
X020001Y012614D01*
X020001Y012436D01*
X020069Y012271D01*
X020195Y012145D01*
X020360Y012077D01*
X020538Y012077D01*
X020703Y012145D01*
X020751Y012193D01*
X020751Y012186D01*
X020819Y012021D01*
X020945Y011895D01*
X021110Y011827D01*
X021288Y011827D01*
X021453Y011895D01*
X021579Y012021D01*
X021647Y012186D01*
X021647Y012364D01*
X021579Y012529D01*
X021453Y012655D01*
X021288Y012723D01*
X021110Y012723D01*
X020945Y012655D01*
X020897Y012607D01*
X020897Y012614D01*
X020829Y012779D01*
X020703Y012905D01*
X020334Y013354D02*
X020402Y013422D01*
X020459Y013500D01*
X020503Y013586D01*
X020533Y013678D01*
X020548Y013774D01*
X020548Y013822D01*
X019933Y013822D01*
X019933Y013822D01*
X019933Y013208D01*
X019885Y013208D01*
X019789Y013223D01*
X019697Y013253D01*
X019611Y013297D01*
X019533Y013354D01*
X019465Y013422D01*
X019433Y013466D01*
X019286Y013318D01*
X019252Y013304D01*
X019373Y013183D01*
X019449Y012999D01*
X019449Y012801D01*
X019373Y012617D01*
X019232Y012476D01*
X019049Y012400D01*
X018850Y012400D01*
X018666Y012476D01*
X018525Y012617D01*
X018449Y012801D01*
X018449Y012999D01*
X018525Y013183D01*
X018646Y013304D01*
X018612Y013318D01*
X018457Y013474D01*
X018301Y013318D01*
X018256Y013300D01*
X018373Y013183D01*
X018449Y012999D01*
X018449Y012801D01*
X018373Y012617D01*
X018232Y012476D01*
X018049Y012400D01*
X017850Y012400D01*
X017666Y012476D01*
X017525Y012617D01*
X017449Y012801D01*
X017449Y012999D01*
X017525Y013183D01*
X017651Y013309D01*
X017628Y013318D01*
X017461Y013486D01*
X017370Y013704D01*
X017370Y013940D01*
X017461Y014159D01*
X017628Y014326D01*
X017847Y014417D01*
X018083Y014417D01*
X018301Y014326D01*
X018457Y014171D01*
X018612Y014326D01*
X018831Y014417D01*
X019067Y014417D01*
X019286Y014326D01*
X019433Y014179D01*
X019465Y014222D01*
X019533Y014291D01*
X019611Y014348D01*
X019697Y014392D01*
X019789Y014421D01*
X019885Y014437D01*
X019933Y014437D01*
X019933Y013822D01*
X019933Y013208D01*
X019982Y013208D01*
X020077Y013223D01*
X020169Y013253D01*
X020255Y013297D01*
X020334Y013354D01*
X020472Y013527D02*
X022152Y013527D01*
X022172Y013209D02*
X019985Y013209D01*
X019933Y013209D02*
X019933Y013209D01*
X019881Y013209D02*
X019348Y013209D01*
X019449Y012890D02*
X020180Y012890D01*
X020001Y012572D02*
X019328Y012572D01*
X018570Y012572D02*
X018328Y012572D01*
X018449Y012890D02*
X018449Y012890D01*
X018348Y013209D02*
X018550Y013209D01*
X017550Y013209D02*
X014399Y013209D01*
X014454Y013154D02*
X014328Y013280D01*
X014163Y013348D01*
X013985Y013348D01*
X013820Y013280D01*
X013694Y013154D01*
X013626Y012989D01*
X013626Y012811D01*
X013694Y012646D01*
X013820Y012520D01*
X013985Y012452D01*
X014163Y012452D01*
X014328Y012520D01*
X014454Y012646D01*
X014522Y012811D01*
X014522Y012989D01*
X014454Y013154D01*
X014522Y012890D02*
X017449Y012890D01*
X017570Y012572D02*
X014379Y012572D01*
X013769Y012572D02*
X010852Y012572D01*
X010546Y012572D02*
X010161Y012572D01*
X010117Y011935D02*
X010303Y011935D01*
X011095Y011935D02*
X013475Y011935D01*
X014105Y011298D02*
X016988Y011298D01*
X016945Y011280D02*
X016819Y011154D01*
X016751Y010989D01*
X016751Y010811D01*
X016819Y010646D01*
X016945Y010520D01*
X017110Y010452D01*
X017288Y010452D01*
X017453Y010520D01*
X017579Y010646D01*
X017647Y010811D01*
X017647Y010989D01*
X017579Y011154D01*
X017453Y011280D01*
X017288Y011348D01*
X017110Y011348D01*
X016945Y011280D01*
X016975Y011525D02*
X017174Y011525D01*
X017357Y011601D01*
X017498Y011742D01*
X017574Y011926D01*
X017574Y012124D01*
X017498Y012308D01*
X017357Y012449D01*
X017174Y012525D01*
X016975Y012525D01*
X016791Y012449D01*
X016650Y012308D01*
X016582Y012143D01*
X016581Y012147D01*
X016556Y012225D01*
X016519Y012298D01*
X016471Y012364D01*
X016413Y012422D01*
X016347Y012470D01*
X016274Y012507D01*
X016196Y012532D01*
X016115Y012545D01*
X016074Y012545D01*
X016033Y012545D01*
X015952Y012532D01*
X015874Y012507D01*
X015802Y012470D01*
X015735Y012422D01*
X015677Y012364D01*
X015629Y012298D01*
X015592Y012225D01*
X015567Y012147D01*
X015554Y012066D01*
X015554Y012025D01*
X015554Y011984D01*
X015567Y011903D01*
X015592Y011825D01*
X015629Y011752D01*
X015677Y011686D01*
X015735Y011628D01*
X015802Y011580D01*
X015874Y011543D01*
X015952Y011518D01*
X016033Y011505D01*
X016074Y011505D01*
X016074Y012025D01*
X015554Y012025D01*
X016074Y012025D01*
X016074Y012025D01*
X016074Y012025D01*
X016074Y012545D01*
X016074Y012025D01*
X016074Y012025D01*
X016074Y011505D01*
X016115Y011505D01*
X016196Y011518D01*
X016274Y011543D01*
X016347Y011580D01*
X016413Y011628D01*
X016471Y011686D01*
X016519Y011752D01*
X016556Y011825D01*
X016581Y011903D01*
X016582Y011907D01*
X016650Y011742D01*
X016791Y011601D01*
X016975Y011525D01*
X016776Y011616D02*
X016396Y011616D01*
X016074Y011616D02*
X016074Y011616D01*
X016074Y011935D02*
X016074Y011935D01*
X016074Y012253D02*
X016074Y012253D01*
X015607Y012253D02*
X011141Y012253D01*
X011049Y013275D02*
X010850Y013275D01*
X010666Y013351D01*
X010525Y013492D01*
X010493Y013568D01*
X010459Y013500D01*
X010402Y013422D01*
X010334Y013354D01*
X010255Y013297D01*
X010169Y013253D01*
X010077Y013223D01*
X009982Y013208D01*
X009933Y013208D01*
X009933Y013822D01*
X009933Y013822D01*
X009933Y014437D01*
X009982Y014437D01*
X010077Y014421D01*
X010169Y014392D01*
X010255Y014348D01*
X010334Y014291D01*
X010402Y014222D01*
X010459Y014144D01*
X010503Y014058D01*
X010513Y014028D01*
X010525Y014058D01*
X010666Y014199D01*
X010850Y014275D01*
X011049Y014275D01*
X011232Y014199D01*
X011373Y014058D01*
X011441Y013893D01*
X011442Y013897D01*
X011467Y013975D01*
X011504Y014048D01*
X011552Y014114D01*
X011610Y014172D01*
X011677Y014220D01*
X011749Y014257D01*
X011827Y014282D01*
X011908Y014295D01*
X011949Y014295D01*
X011949Y013775D01*
X011949Y013775D01*
X011949Y013775D01*
X011949Y013255D01*
X011908Y013255D01*
X011827Y013268D01*
X011749Y013293D01*
X011677Y013330D01*
X011610Y013378D01*
X011552Y013436D01*
X011504Y013502D01*
X011467Y013575D01*
X011442Y013653D01*
X011441Y013657D01*
X011373Y013492D01*
X011232Y013351D01*
X011049Y013275D01*
X011388Y013527D02*
X011492Y013527D01*
X011949Y013527D02*
X011949Y013527D01*
X011949Y013775D02*
X011949Y013255D01*
X011990Y013255D01*
X012071Y013268D01*
X012149Y013293D01*
X012222Y013330D01*
X012288Y013378D01*
X012346Y013436D01*
X012394Y013502D01*
X012431Y013575D01*
X012456Y013653D01*
X012469Y013734D01*
X012469Y013775D01*
X011949Y013775D01*
X011949Y014295D01*
X011990Y014295D01*
X012071Y014282D01*
X012149Y014257D01*
X012222Y014220D01*
X012288Y014172D01*
X012346Y014114D01*
X012394Y014048D01*
X012431Y013975D01*
X012456Y013897D01*
X012469Y013816D01*
X012469Y013775D01*
X011949Y013775D01*
X011949Y013775D01*
X011949Y013846D02*
X011949Y013846D01*
X011949Y014164D02*
X011949Y014164D01*
X011603Y014164D02*
X011267Y014164D01*
X011682Y014801D02*
X006897Y014801D01*
X006949Y015120D02*
X011628Y015120D01*
X011199Y015438D02*
X008721Y015438D01*
X009189Y015757D02*
X009228Y015757D01*
X009670Y015757D02*
X011199Y015757D01*
X011199Y016075D02*
X011160Y016075D01*
X010425Y016075D02*
X009897Y016075D01*
X009833Y016394D02*
X010098Y016394D01*
X010005Y016712D02*
X009981Y016712D01*
X010005Y017031D02*
X010046Y017031D01*
X010253Y017349D02*
X009032Y017349D01*
X009079Y017396D02*
X008953Y017270D01*
X008788Y017202D01*
X008610Y017202D01*
X008445Y017270D01*
X008319Y017396D01*
X008251Y017561D01*
X008251Y017739D01*
X008319Y017904D01*
X008445Y018030D01*
X008610Y018098D01*
X008788Y018098D01*
X008953Y018030D01*
X009079Y017904D01*
X009147Y017739D01*
X009147Y017561D01*
X009079Y017396D01*
X009147Y017668D02*
X011199Y017668D01*
X011199Y017986D02*
X008997Y017986D01*
X008401Y017986D02*
X005914Y017986D01*
X005820Y017668D02*
X008251Y017668D01*
X008366Y017349D02*
X007645Y017349D01*
X007552Y017443D02*
X007262Y017562D01*
X006949Y017562D01*
X006659Y017443D01*
X006438Y017221D01*
X006318Y016932D01*
X006318Y016618D01*
X006438Y016329D01*
X006659Y016107D01*
X006949Y015988D01*
X007262Y015988D01*
X007552Y016107D01*
X007773Y016329D01*
X007893Y016618D01*
X007893Y016932D01*
X007773Y017221D01*
X007552Y017443D01*
X007852Y017031D02*
X009143Y017031D01*
X009167Y016712D02*
X007893Y016712D01*
X007800Y016394D02*
X008559Y016394D01*
X008179Y016075D02*
X007473Y016075D01*
X007883Y015757D02*
X005698Y015757D01*
X005951Y016075D02*
X006738Y016075D01*
X006411Y016394D02*
X005984Y016394D01*
X005776Y016712D02*
X006318Y016712D01*
X006359Y017031D02*
X005932Y017031D01*
X005989Y017349D02*
X006566Y017349D01*
X006593Y018305D02*
X011199Y018305D01*
X011199Y018623D02*
X006643Y018623D01*
X006364Y018942D02*
X011199Y018942D01*
X011199Y019260D02*
X005989Y019260D01*
X006034Y018942D02*
X005879Y018942D01*
X005908Y019579D02*
X011199Y019579D01*
X011199Y019897D02*
X005835Y019897D01*
X005989Y020216D02*
X007609Y020216D01*
X007588Y020534D02*
X005926Y020534D01*
X005790Y020853D02*
X007860Y020853D01*
X008288Y020853D02*
X008860Y020853D01*
X008588Y020534D02*
X008560Y020534D01*
X008539Y020216D02*
X008609Y020216D01*
X008469Y021808D02*
X008445Y021808D01*
X007485Y021808D02*
X005733Y021808D01*
X005945Y021490D02*
X007370Y021490D01*
X007436Y021171D02*
X005989Y021171D01*
X009429Y021808D02*
X009436Y021808D01*
X011824Y019897D02*
X016199Y019897D01*
X016199Y019579D02*
X011824Y019579D01*
X011824Y019260D02*
X016199Y019260D01*
X016199Y018942D02*
X011824Y018942D01*
X011824Y018623D02*
X016199Y018623D01*
X016199Y018305D02*
X015752Y018305D01*
X015732Y018324D02*
X015549Y018400D01*
X015350Y018400D01*
X015166Y018324D01*
X015025Y018183D01*
X014949Y017999D01*
X014949Y017801D01*
X015025Y017617D01*
X015166Y017476D01*
X015350Y017400D01*
X015549Y017400D01*
X015732Y017476D01*
X015873Y017617D01*
X015949Y017801D01*
X015949Y017999D01*
X015873Y018183D01*
X015732Y018324D01*
X015949Y017986D02*
X016199Y017986D01*
X016199Y017668D02*
X015894Y017668D01*
X016199Y017349D02*
X011824Y017349D01*
X011824Y017031D02*
X012098Y017031D01*
X011932Y016712D02*
X011824Y016712D01*
X011824Y016394D02*
X011996Y016394D01*
X012903Y016394D02*
X014996Y016394D01*
X014932Y016712D02*
X012966Y016712D01*
X012800Y017031D02*
X015098Y017031D01*
X014732Y017476D02*
X014873Y017617D01*
X014949Y017801D01*
X014949Y017999D01*
X014873Y018183D01*
X014732Y018324D01*
X014549Y018400D01*
X014350Y018400D01*
X014166Y018324D01*
X014025Y018183D01*
X013949Y017999D01*
X013949Y017801D01*
X014025Y017617D01*
X014166Y017476D01*
X014350Y017400D01*
X014549Y017400D01*
X014732Y017476D01*
X014894Y017668D02*
X015004Y017668D01*
X014949Y017986D02*
X014949Y017986D01*
X014752Y018305D02*
X015146Y018305D01*
X014146Y018305D02*
X013752Y018305D01*
X013732Y018324D02*
X013549Y018400D01*
X013350Y018400D01*
X013166Y018324D01*
X013025Y018183D01*
X012949Y017999D01*
X012873Y018183D01*
X012732Y018324D01*
X012549Y018400D01*
X012350Y018400D01*
X012166Y018324D01*
X012025Y018183D01*
X011949Y017999D01*
X011949Y017801D01*
X012025Y017617D01*
X012166Y017476D01*
X012350Y017400D01*
X012549Y017400D01*
X012732Y017476D01*
X012873Y017617D01*
X012949Y017801D01*
X012949Y017999D01*
X012949Y017801D01*
X013025Y017617D01*
X013166Y017476D01*
X013350Y017400D01*
X013549Y017400D01*
X013732Y017476D01*
X013873Y017617D01*
X013949Y017801D01*
X013949Y017999D01*
X013873Y018183D01*
X013732Y018324D01*
X013949Y017986D02*
X013949Y017986D01*
X013894Y017668D02*
X014004Y017668D01*
X013146Y018305D02*
X012752Y018305D01*
X012949Y017986D02*
X012949Y017986D01*
X012894Y017668D02*
X013004Y017668D01*
X012004Y017668D02*
X011824Y017668D01*
X011824Y017986D02*
X011949Y017986D01*
X011824Y018305D02*
X012146Y018305D01*
X012520Y015120D02*
X015253Y015120D01*
X015307Y014801D02*
X012466Y014801D01*
X012295Y014164D02*
X015772Y014164D01*
X015751Y014114D02*
X015751Y013936D01*
X015819Y013771D01*
X015945Y013645D01*
X016110Y013577D01*
X016288Y013577D01*
X016453Y013645D01*
X016579Y013771D01*
X016647Y013936D01*
X016647Y014114D01*
X016579Y014279D01*
X016453Y014405D01*
X016288Y014473D01*
X016110Y014473D01*
X015945Y014405D01*
X015819Y014279D01*
X015751Y014114D01*
X015788Y013846D02*
X012464Y013846D01*
X012406Y013527D02*
X017444Y013527D01*
X017370Y013846D02*
X016610Y013846D01*
X016627Y014164D02*
X017466Y014164D01*
X017096Y015438D02*
X022159Y015438D01*
X022231Y015120D02*
X016145Y015120D01*
X016091Y014801D02*
X022336Y014801D01*
X022159Y014483D02*
X005948Y014483D01*
X005988Y014164D02*
X007466Y014164D01*
X007370Y013846D02*
X006728Y013846D01*
X006758Y013527D02*
X007444Y013527D01*
X007689Y013209D02*
X006429Y013209D01*
X006219Y013209D02*
X005989Y013209D01*
X005828Y012890D02*
X007455Y012890D01*
X008209Y013209D02*
X008689Y013209D01*
X008455Y012890D02*
X008443Y012890D01*
X008406Y012572D02*
X008492Y012572D01*
X009209Y013209D02*
X009881Y013209D01*
X009933Y013209D02*
X009933Y013209D01*
X009985Y013209D02*
X013749Y013209D01*
X013626Y012890D02*
X009443Y012890D01*
X009406Y012572D02*
X009487Y012572D01*
X009933Y013527D02*
X009933Y013527D01*
X009933Y013846D02*
X009933Y013846D01*
X009933Y014164D02*
X009933Y014164D01*
X010444Y014164D02*
X010631Y014164D01*
X010511Y013527D02*
X010472Y013527D01*
X009788Y010473D02*
X009610Y010473D01*
X009445Y010405D01*
X009319Y010279D01*
X009251Y010114D01*
X009251Y009936D01*
X009319Y009771D01*
X009445Y009645D01*
X009610Y009577D01*
X009788Y009577D01*
X009953Y009645D01*
X010079Y009771D01*
X010147Y009936D01*
X010147Y010114D01*
X010079Y010279D01*
X009953Y010405D01*
X009788Y010473D01*
X010016Y010342D02*
X011487Y010342D01*
X011525Y010433D02*
X011449Y010249D01*
X011449Y010051D01*
X011525Y009867D01*
X011666Y009726D01*
X011831Y009658D01*
X011827Y009657D01*
X011749Y009632D01*
X011677Y009595D01*
X011610Y009547D01*
X011555Y009492D01*
X011460Y009721D01*
X011239Y009943D01*
X010949Y010062D01*
X010636Y010062D01*
X010346Y009943D01*
X010125Y009721D01*
X010069Y009585D01*
X010038Y009598D01*
X009860Y009598D01*
X009695Y009530D01*
X009569Y009404D01*
X009501Y009239D01*
X009501Y009165D01*
X009454Y009279D01*
X009328Y009405D01*
X009163Y009473D01*
X009147Y009473D01*
X009147Y009614D01*
X009079Y009779D01*
X008953Y009905D01*
X008788Y009973D01*
X008610Y009973D01*
X008445Y009905D01*
X008319Y009779D01*
X008251Y009614D01*
X008251Y009436D01*
X008319Y009271D01*
X008445Y009145D01*
X008610Y009077D01*
X008626Y009077D01*
X008626Y008936D01*
X008694Y008771D01*
X008820Y008645D01*
X008985Y008577D01*
X009163Y008577D01*
X009328Y008645D01*
X009454Y008771D01*
X009522Y008936D01*
X009522Y009010D01*
X009569Y008896D01*
X009695Y008770D01*
X009860Y008702D01*
X010038Y008702D01*
X010189Y008765D01*
X010346Y008607D01*
X010636Y008488D01*
X010949Y008488D01*
X011239Y008607D01*
X011460Y008829D01*
X011491Y008903D01*
X011504Y008877D01*
X011552Y008811D01*
X011580Y008784D01*
X011570Y008780D01*
X011444Y008654D01*
X011376Y008489D01*
X011376Y008311D01*
X011444Y008146D01*
X011570Y008020D01*
X011735Y007952D01*
X011913Y007952D01*
X012078Y008020D01*
X012204Y008146D01*
X012272Y008311D01*
X012272Y008489D01*
X012204Y008654D01*
X012176Y008682D01*
X012222Y008705D01*
X012288Y008753D01*
X012346Y008811D01*
X012394Y008877D01*
X012431Y008950D01*
X012456Y009028D01*
X012469Y009109D01*
X012469Y009150D01*
X012469Y009191D01*
X012456Y009272D01*
X012431Y009350D01*
X012394Y009423D01*
X012346Y009489D01*
X012288Y009547D01*
X012222Y009595D01*
X012149Y009632D01*
X012071Y009657D01*
X012067Y009658D01*
X012232Y009726D01*
X012373Y009867D01*
X012449Y010051D01*
X012449Y010249D01*
X012373Y010433D01*
X012232Y010574D01*
X012049Y010650D01*
X011850Y010650D01*
X011666Y010574D01*
X011525Y010433D01*
X011460Y010024D02*
X011043Y010024D01*
X010542Y010024D02*
X010147Y010024D01*
X010118Y009705D02*
X010013Y009705D01*
X009562Y009387D02*
X009346Y009387D01*
X009385Y009705D02*
X009110Y009705D01*
X009251Y010024D02*
X007356Y010024D01*
X007262Y010062D02*
X006971Y010062D01*
X007022Y010186D01*
X007022Y010364D01*
X006954Y010529D01*
X006828Y010655D01*
X006663Y010723D01*
X006485Y010723D01*
X006320Y010655D01*
X006194Y010529D01*
X006126Y010364D01*
X006126Y010186D01*
X006194Y010021D01*
X006320Y009895D01*
X006485Y009827D01*
X006544Y009827D01*
X006438Y009721D01*
X006318Y009432D01*
X006318Y009118D01*
X006433Y008840D01*
X006413Y008848D01*
X006235Y008848D01*
X006070Y008780D01*
X005944Y008654D01*
X005876Y008489D01*
X005876Y008311D01*
X005944Y008146D01*
X006070Y008020D01*
X006235Y007952D01*
X006413Y007952D01*
X006578Y008020D01*
X006704Y008146D01*
X006772Y008311D01*
X006772Y008489D01*
X006736Y008576D01*
X006949Y008488D01*
X007262Y008488D01*
X007552Y008607D01*
X007773Y008829D01*
X007893Y009118D01*
X007893Y009432D01*
X007773Y009721D01*
X007552Y009943D01*
X007262Y010062D01*
X007022Y010342D02*
X009382Y010342D01*
X008626Y009068D02*
X007872Y009068D01*
X007893Y009387D02*
X008271Y009387D01*
X008289Y009705D02*
X007780Y009705D01*
X007694Y008750D02*
X008716Y008750D01*
X009432Y008750D02*
X009745Y008750D01*
X010153Y008750D02*
X010204Y008750D01*
X011381Y008750D02*
X011540Y008750D01*
X011376Y008431D02*
X006772Y008431D01*
X006670Y008113D02*
X011478Y008113D01*
X012170Y008113D02*
X021357Y008113D01*
X021357Y007994D02*
X021452Y007765D01*
X021590Y007626D01*
X021452Y007488D01*
X021357Y007258D01*
X021357Y007010D01*
X021452Y006781D01*
X021610Y006623D01*
X021475Y006488D01*
X021384Y006269D01*
X021384Y006031D01*
X021475Y005812D01*
X021610Y005677D01*
X021452Y005519D01*
X021357Y005290D01*
X021357Y005042D01*
X021452Y004812D01*
X021590Y004674D01*
X021452Y004535D01*
X021357Y004306D01*
X021357Y004057D01*
X021452Y003828D01*
X021627Y003653D01*
X021856Y003558D01*
X022105Y003558D01*
X022334Y003653D01*
X022509Y003828D01*
X022604Y004057D01*
X022604Y004306D01*
X022509Y004535D01*
X022371Y004674D01*
X022509Y004812D01*
X022604Y005042D01*
X022604Y005290D01*
X022509Y005519D01*
X022351Y005677D01*
X022486Y005812D01*
X022577Y006031D01*
X022577Y006269D01*
X022486Y006488D01*
X022351Y006623D01*
X022509Y006781D01*
X022604Y007010D01*
X022604Y007258D01*
X022509Y007488D01*
X022371Y007626D01*
X022509Y007765D01*
X022604Y007994D01*
X022604Y008243D01*
X022509Y008472D01*
X022334Y008647D01*
X022105Y008742D01*
X021856Y008742D01*
X021627Y008647D01*
X021452Y008472D01*
X021357Y008243D01*
X021357Y007994D01*
X021440Y007794D02*
X016669Y007794D01*
X016703Y007780D02*
X016538Y007848D01*
X016360Y007848D01*
X016195Y007780D01*
X016069Y007654D01*
X016001Y007489D01*
X016001Y007311D01*
X016069Y007146D01*
X016195Y007020D01*
X016360Y006952D01*
X016538Y006952D01*
X016703Y007020D01*
X016829Y007146D01*
X016897Y007311D01*
X016897Y007489D01*
X016829Y007654D01*
X016703Y007780D01*
X016897Y007476D02*
X021447Y007476D01*
X021357Y007157D02*
X016833Y007157D01*
X016607Y006699D02*
X016424Y006775D01*
X016225Y006775D01*
X016041Y006699D01*
X015900Y006558D01*
X015824Y006374D01*
X015824Y006176D01*
X015900Y005992D01*
X016041Y005851D01*
X016225Y005775D01*
X016424Y005775D01*
X016607Y005851D01*
X016748Y005992D01*
X016824Y006176D01*
X016824Y006374D01*
X016748Y006558D01*
X016607Y006699D01*
X016764Y006520D02*
X017403Y006520D01*
X017370Y006440D02*
X017370Y006204D01*
X017461Y005986D01*
X017628Y005818D01*
X017791Y005751D01*
X017666Y005699D01*
X017525Y005558D01*
X017449Y005374D01*
X017449Y005176D01*
X017525Y004992D01*
X017666Y004851D01*
X017850Y004775D01*
X018049Y004775D01*
X018232Y004851D01*
X018373Y004992D01*
X018449Y005176D01*
X018525Y004992D01*
X018666Y004851D01*
X018850Y004775D01*
X019049Y004775D01*
X019232Y004851D01*
X019373Y004992D01*
X019449Y005176D01*
X019449Y005374D01*
X019373Y005558D01*
X019232Y005699D01*
X019115Y005748D01*
X019286Y005818D01*
X019433Y005966D01*
X019465Y005922D01*
X019533Y005854D01*
X019611Y005797D01*
X019697Y005753D01*
X019789Y005723D01*
X019885Y005708D01*
X019933Y005708D01*
X019933Y006322D01*
X019933Y006322D01*
X019933Y005708D01*
X019982Y005708D01*
X020077Y005723D01*
X020169Y005753D01*
X020255Y005797D01*
X020334Y005854D01*
X020402Y005922D01*
X020459Y006000D01*
X020503Y006086D01*
X020533Y006178D01*
X020548Y006274D01*
X020548Y006322D01*
X019933Y006322D01*
X019933Y006937D01*
X019885Y006937D01*
X019789Y006921D01*
X019697Y006892D01*
X019611Y006848D01*
X019533Y006791D01*
X019465Y006722D01*
X019433Y006679D01*
X019286Y006826D01*
X019067Y006917D01*
X018831Y006917D01*
X018612Y006826D01*
X018457Y006671D01*
X018301Y006826D01*
X018083Y006917D01*
X017847Y006917D01*
X017628Y006826D01*
X017461Y006659D01*
X017370Y006440D01*
X017372Y006202D02*
X016824Y006202D01*
X016639Y005883D02*
X017564Y005883D01*
X017531Y005565D02*
X015414Y005565D01*
X015407Y005581D02*
X015255Y005733D01*
X015056Y005815D01*
X014842Y005815D01*
X014643Y005733D01*
X014491Y005581D01*
X014449Y005479D01*
X014407Y005581D01*
X014255Y005733D01*
X014056Y005815D01*
X013842Y005815D01*
X013643Y005733D01*
X013491Y005581D01*
X013449Y005479D01*
X013407Y005581D01*
X013255Y005733D01*
X013056Y005815D01*
X012842Y005815D01*
X012643Y005733D01*
X012491Y005581D01*
X012449Y005479D01*
X012407Y005581D01*
X012255Y005733D01*
X012056Y005815D01*
X011842Y005815D01*
X011643Y005733D01*
X011491Y005581D01*
X011409Y005382D01*
X011409Y005168D01*
X011491Y004969D01*
X011643Y004817D01*
X011745Y004775D01*
X011643Y004733D01*
X011491Y004581D01*
X011409Y004382D01*
X011409Y004168D01*
X011491Y003969D01*
X011643Y003817D01*
X011745Y003775D01*
X011643Y003733D01*
X011491Y003581D01*
X011409Y003382D01*
X011409Y003168D01*
X011491Y002969D01*
X011643Y002817D01*
X011745Y002775D01*
X011643Y002733D01*
X011491Y002581D01*
X011409Y002382D01*
X011409Y002168D01*
X011491Y001969D01*
X011643Y001817D01*
X011842Y001735D01*
X012056Y001735D01*
X012255Y001817D01*
X012407Y001969D01*
X012449Y002071D01*
X012491Y001969D01*
X012643Y001817D01*
X012842Y001735D01*
X013056Y001735D01*
X013255Y001817D01*
X013407Y001969D01*
X013449Y002071D01*
X013491Y001969D01*
X013643Y001817D01*
X013842Y001735D01*
X014056Y001735D01*
X014255Y001817D01*
X014407Y001969D01*
X014449Y002071D01*
X014491Y001969D01*
X014643Y001817D01*
X014842Y001735D01*
X015056Y001735D01*
X015255Y001817D01*
X015407Y001969D01*
X015489Y002168D01*
X015489Y002382D01*
X015407Y002581D01*
X015255Y002733D01*
X015153Y002775D01*
X015255Y002817D01*
X015407Y002969D01*
X015489Y003168D01*
X015489Y003382D01*
X015407Y003581D01*
X015255Y003733D01*
X015153Y003775D01*
X015255Y003817D01*
X015407Y003969D01*
X015489Y004168D01*
X015489Y004382D01*
X015407Y004581D01*
X015255Y004733D01*
X015153Y004775D01*
X015255Y004817D01*
X015407Y004969D01*
X015489Y005168D01*
X015489Y005382D01*
X015407Y005581D01*
X015489Y005246D02*
X015999Y005246D01*
X016025Y005308D02*
X015949Y005124D01*
X015949Y004926D01*
X016025Y004742D01*
X016166Y004601D01*
X016350Y004525D01*
X016549Y004525D01*
X016732Y004601D01*
X016873Y004742D01*
X016949Y004926D01*
X016949Y005124D01*
X016873Y005308D01*
X016732Y005449D01*
X016549Y005525D01*
X016350Y005525D01*
X016166Y005449D01*
X016025Y005308D01*
X015949Y004928D02*
X015365Y004928D01*
X015379Y004609D02*
X016158Y004609D01*
X016740Y004609D02*
X021526Y004609D01*
X021404Y004928D02*
X019309Y004928D01*
X019449Y005246D02*
X021357Y005246D01*
X021497Y005565D02*
X019367Y005565D01*
X019350Y005883D02*
X019504Y005883D01*
X019933Y005883D02*
X019933Y005883D01*
X019933Y006202D02*
X019933Y006202D01*
X019933Y006322D02*
X019933Y006322D01*
X019933Y006322D01*
X019933Y006937D01*
X019982Y006937D01*
X020077Y006921D01*
X020169Y006892D01*
X020255Y006848D01*
X020334Y006791D01*
X020402Y006722D01*
X020459Y006644D01*
X020503Y006558D01*
X020533Y006466D01*
X020548Y006371D01*
X020548Y006322D01*
X019933Y006322D01*
X019933Y006520D02*
X019933Y006520D01*
X019933Y006839D02*
X019933Y006839D01*
X019599Y006839D02*
X019256Y006839D01*
X018642Y006839D02*
X018271Y006839D01*
X017658Y006839D02*
X010268Y006839D01*
X010255Y006848D02*
X010169Y006892D01*
X010077Y006921D01*
X009982Y006937D01*
X009933Y006937D01*
X009933Y006322D01*
X009933Y005708D01*
X009982Y005708D01*
X010077Y005723D01*
X010169Y005753D01*
X010255Y005797D01*
X010334Y005854D01*
X010402Y005922D01*
X010459Y006000D01*
X010503Y006086D01*
X010533Y006178D01*
X010548Y006274D01*
X010548Y006322D01*
X009933Y006322D01*
X009933Y006322D01*
X009933Y006322D01*
X010548Y006322D01*
X010548Y006371D01*
X010533Y006466D01*
X010503Y006558D01*
X010459Y006644D01*
X010402Y006722D01*
X010334Y006791D01*
X010255Y006848D01*
X009933Y006839D02*
X009933Y006839D01*
X009933Y006520D02*
X009933Y006520D01*
X009933Y006202D02*
X009933Y006202D01*
X009933Y005883D02*
X009933Y005883D01*
X010363Y005883D02*
X013009Y005883D01*
X013041Y005851D02*
X013225Y005775D01*
X013424Y005775D01*
X013607Y005851D01*
X013748Y005992D01*
X013824Y006176D01*
X013824Y006374D01*
X013748Y006558D01*
X013607Y006699D01*
X013424Y006775D01*
X013225Y006775D01*
X013041Y006699D01*
X012900Y006558D01*
X012824Y006374D01*
X012824Y006176D01*
X012900Y005992D01*
X013041Y005851D01*
X012824Y006202D02*
X010536Y006202D01*
X010515Y006520D02*
X012884Y006520D01*
X012484Y005565D02*
X012414Y005565D01*
X011484Y005565D02*
X009422Y005565D01*
X009426Y005246D02*
X011409Y005246D01*
X011533Y004928D02*
X009115Y004928D01*
X009525Y004433D02*
X009449Y004249D01*
X009449Y004051D01*
X009525Y003867D01*
X009666Y003726D01*
X009850Y003650D01*
X009666Y003574D01*
X009525Y003433D01*
X009449Y003249D01*
X009449Y003051D01*
X009525Y002867D01*
X009666Y002726D01*
X009850Y002650D01*
X009666Y002574D01*
X009525Y002433D01*
X009449Y002249D01*
X009449Y002051D01*
X009525Y001867D01*
X009666Y001726D01*
X009850Y001650D01*
X010049Y001650D01*
X010232Y001726D01*
X010373Y001867D01*
X010449Y002051D01*
X010449Y002249D01*
X010373Y002433D01*
X010232Y002574D01*
X010049Y002650D01*
X009850Y002650D01*
X010049Y002650D01*
X010232Y002726D01*
X010373Y002867D01*
X010449Y003051D01*
X010449Y003249D01*
X010373Y003433D01*
X010232Y003574D01*
X010049Y003650D01*
X009850Y003650D01*
X010049Y003650D01*
X010232Y003726D01*
X010373Y003867D01*
X010449Y004051D01*
X010449Y004249D01*
X010373Y004433D01*
X010232Y004574D01*
X010049Y004650D01*
X009850Y004650D01*
X009666Y004574D01*
X009525Y004433D01*
X009466Y004291D02*
X007432Y004291D01*
X007449Y004249D02*
X007373Y004433D01*
X007232Y004574D01*
X007049Y004650D01*
X006850Y004650D01*
X006666Y004574D01*
X006525Y004433D01*
X006449Y004249D01*
X006449Y004051D01*
X006525Y003867D01*
X006666Y003726D01*
X006850Y003650D01*
X006666Y003574D01*
X006525Y003433D01*
X006449Y003249D01*
X006449Y003051D01*
X006525Y002867D01*
X006666Y002726D01*
X006850Y002650D01*
X006666Y002574D01*
X006525Y002433D01*
X006449Y002249D01*
X006449Y002051D01*
X006525Y001867D01*
X006666Y001726D01*
X006850Y001650D01*
X007049Y001650D01*
X007232Y001726D01*
X007373Y001867D01*
X007449Y002051D01*
X007449Y002249D01*
X007373Y002433D01*
X007232Y002574D01*
X007049Y002650D01*
X006850Y002650D01*
X007049Y002650D01*
X007232Y002726D01*
X007373Y002867D01*
X007449Y003051D01*
X007449Y003249D01*
X007373Y003433D01*
X007232Y003574D01*
X007049Y003650D01*
X006850Y003650D01*
X007049Y003650D01*
X007232Y003726D01*
X007373Y003867D01*
X007449Y004051D01*
X007449Y004249D01*
X007417Y003972D02*
X009482Y003972D01*
X009841Y003654D02*
X007057Y003654D01*
X006841Y003654D02*
X005194Y003654D01*
X005184Y003335D02*
X006484Y003335D01*
X006463Y003017D02*
X005264Y003017D01*
X005177Y002698D02*
X006734Y002698D01*
X006503Y002380D02*
X005203Y002380D01*
X005291Y002061D02*
X006449Y002061D01*
X006649Y001743D02*
X005219Y001743D01*
X005182Y001424D02*
X006521Y001424D01*
X006525Y001433D02*
X006449Y001249D01*
X006449Y001051D01*
X006525Y000867D01*
X006666Y000726D01*
X006850Y000650D01*
X007049Y000650D01*
X007232Y000726D01*
X007373Y000867D01*
X007449Y001051D01*
X007449Y001249D01*
X007373Y001433D01*
X007232Y001574D01*
X007049Y001650D01*
X006850Y001650D01*
X006666Y001574D01*
X006525Y001433D01*
X006449Y001106D02*
X005291Y001106D01*
X005231Y000787D02*
X006605Y000787D01*
X007293Y000787D02*
X009605Y000787D01*
X009666Y000726D02*
X009850Y000650D01*
X010049Y000650D01*
X010232Y000726D01*
X010373Y000867D01*
X010449Y001051D01*
X010449Y001249D01*
X010373Y001433D01*
X010232Y001574D01*
X010049Y001650D01*
X009850Y001650D01*
X009666Y001574D01*
X009525Y001433D01*
X009449Y001249D01*
X009449Y001051D01*
X009525Y000867D01*
X009666Y000726D01*
X009449Y001106D02*
X007449Y001106D01*
X007377Y001424D02*
X009521Y001424D01*
X009649Y001743D02*
X007249Y001743D01*
X007449Y002061D02*
X009449Y002061D01*
X009503Y002380D02*
X007395Y002380D01*
X007164Y002698D02*
X009734Y002698D01*
X009463Y003017D02*
X007435Y003017D01*
X007414Y003335D02*
X009484Y003335D01*
X010057Y003654D02*
X011564Y003654D01*
X011490Y003972D02*
X010417Y003972D01*
X010432Y004291D02*
X011409Y004291D01*
X011519Y004609D02*
X010147Y004609D01*
X009751Y004609D02*
X007147Y004609D01*
X006751Y004609D02*
X005165Y004609D01*
X005226Y004291D02*
X006466Y004291D01*
X006482Y003972D02*
X005291Y003972D01*
X004141Y003654D02*
X001309Y003654D01*
X001309Y003972D02*
X004044Y003972D01*
X004151Y003335D02*
X003246Y003335D01*
X003228Y003378D02*
X003052Y003554D01*
X002823Y003649D01*
X002575Y003649D01*
X002346Y003554D01*
X002170Y003378D01*
X002075Y003149D01*
X002075Y002901D01*
X002170Y002672D01*
X002346Y002496D01*
X002575Y002401D01*
X002823Y002401D01*
X003052Y002496D01*
X003228Y002672D01*
X003323Y002901D01*
X003323Y003149D01*
X003228Y003378D01*
X003323Y003017D02*
X004071Y003017D01*
X004158Y002698D02*
X003239Y002698D01*
X004133Y002380D02*
X001309Y002380D01*
X001309Y002698D02*
X002159Y002698D01*
X002075Y003017D02*
X001309Y003017D01*
X001309Y003335D02*
X002152Y003335D01*
X002173Y004609D02*
X002240Y004609D01*
X001309Y002061D02*
X004044Y002061D01*
X004116Y001743D02*
X001309Y001743D01*
X002190Y001424D02*
X002223Y001424D01*
X003175Y001424D02*
X004153Y001424D01*
X004044Y001106D02*
X003295Y001106D01*
X003233Y000787D02*
X004104Y000787D01*
X005195Y006202D02*
X007372Y006202D01*
X007403Y006520D02*
X005291Y006520D01*
X005226Y006839D02*
X007658Y006839D01*
X008271Y006839D02*
X008642Y006839D01*
X009256Y006839D02*
X009599Y006839D01*
X009504Y005883D02*
X009350Y005883D01*
X010414Y003335D02*
X011409Y003335D01*
X011472Y003017D02*
X010435Y003017D01*
X010164Y002698D02*
X011608Y002698D01*
X011409Y002380D02*
X010395Y002380D01*
X010449Y002061D02*
X011453Y002061D01*
X011824Y001743D02*
X010249Y001743D01*
X010377Y001424D02*
X013141Y001424D01*
X013166Y001449D02*
X013025Y001308D01*
X012949Y001124D01*
X012949Y000926D01*
X013025Y000742D01*
X013166Y000601D01*
X013350Y000525D01*
X013549Y000525D01*
X013732Y000601D01*
X013873Y000742D01*
X013949Y000926D01*
X013949Y001124D01*
X013873Y001308D01*
X013732Y001449D01*
X013549Y001525D01*
X013350Y001525D01*
X013166Y001449D01*
X013075Y001743D02*
X013824Y001743D01*
X014075Y001743D02*
X014824Y001743D01*
X015075Y001743D02*
X016025Y001743D01*
X016025Y001742D02*
X016166Y001601D01*
X016350Y001525D01*
X016549Y001525D01*
X016732Y001601D01*
X016873Y001742D01*
X016949Y001926D01*
X016949Y002124D01*
X016873Y002308D01*
X016732Y002449D01*
X016549Y002525D01*
X016350Y002525D01*
X016166Y002449D01*
X016025Y002308D01*
X015949Y002124D01*
X015949Y001926D01*
X016025Y001742D01*
X016166Y001449D02*
X016025Y001308D01*
X015949Y001124D01*
X015949Y000926D01*
X016025Y000742D01*
X016166Y000601D01*
X016350Y000525D01*
X016549Y000525D01*
X016732Y000601D01*
X016873Y000742D01*
X016949Y000926D01*
X016949Y001124D01*
X016873Y001308D01*
X016732Y001449D01*
X016549Y001525D01*
X016350Y001525D01*
X016166Y001449D01*
X016141Y001424D02*
X013757Y001424D01*
X013949Y001106D02*
X015949Y001106D01*
X016006Y000787D02*
X013892Y000787D01*
X013453Y002061D02*
X013445Y002061D01*
X012824Y001743D02*
X012075Y001743D01*
X012445Y002061D02*
X012453Y002061D01*
X012949Y001106D02*
X010449Y001106D01*
X010293Y000787D02*
X013006Y000787D01*
X014445Y002061D02*
X014453Y002061D01*
X015445Y002061D02*
X015949Y002061D01*
X016096Y002380D02*
X015489Y002380D01*
X015290Y002698D02*
X020039Y002698D01*
X020099Y002843D02*
X019947Y002474D01*
X019947Y002076D01*
X020099Y001707D01*
X020381Y001425D01*
X020750Y001273D01*
X021148Y001273D01*
X021517Y001425D01*
X021799Y001707D01*
X021952Y002076D01*
X021952Y002474D01*
X021799Y002843D01*
X021517Y003125D01*
X021148Y003277D01*
X020750Y003277D01*
X020381Y003125D01*
X020099Y002843D01*
X020273Y003017D02*
X015426Y003017D01*
X015489Y003335D02*
X025214Y003335D01*
X025214Y003017D02*
X025184Y003017D01*
X024650Y003654D02*
X024232Y003654D01*
X023666Y003654D02*
X022335Y003654D01*
X022569Y003972D02*
X023390Y003972D01*
X023353Y004291D02*
X022604Y004291D01*
X022435Y004609D02*
X023533Y004609D01*
X023825Y005526D02*
X024073Y005526D01*
X024302Y005621D01*
X024478Y005797D01*
X024573Y006026D01*
X024573Y006274D01*
X024478Y006503D01*
X024302Y006679D01*
X024073Y006774D01*
X023825Y006774D01*
X023596Y006679D01*
X023420Y006503D01*
X023325Y006274D01*
X023325Y006026D01*
X023420Y005797D01*
X023596Y005621D01*
X023825Y005526D01*
X023732Y005565D02*
X022464Y005565D01*
X022515Y005883D02*
X023384Y005883D01*
X023325Y006202D02*
X022577Y006202D01*
X022454Y006520D02*
X023437Y006520D01*
X022533Y006839D02*
X025214Y006839D01*
X025214Y007157D02*
X022604Y007157D01*
X022514Y007476D02*
X025214Y007476D01*
X025214Y006520D02*
X024461Y006520D01*
X024573Y006202D02*
X025214Y006202D01*
X025214Y005883D02*
X024514Y005883D01*
X024166Y005565D02*
X025214Y005565D01*
X025214Y005246D02*
X022604Y005246D01*
X022557Y004928D02*
X025214Y004928D01*
X024518Y004609D02*
X024365Y004609D01*
X024215Y003017D02*
X024184Y003017D01*
X023215Y003017D02*
X021625Y003017D01*
X021859Y002698D02*
X023159Y002698D01*
X023331Y002380D02*
X021952Y002380D01*
X021946Y002061D02*
X023233Y002061D01*
X023159Y001743D02*
X021814Y001743D01*
X021514Y001424D02*
X023286Y001424D01*
X024112Y001424D02*
X024286Y001424D01*
X025112Y001424D02*
X025214Y001424D01*
X025214Y001106D02*
X018324Y001106D01*
X018324Y001124D02*
X018248Y001308D01*
X018107Y001449D01*
X017924Y001525D01*
X017725Y001525D01*
X017541Y001449D01*
X017400Y001308D01*
X017324Y001124D01*
X017324Y000926D01*
X017400Y000742D01*
X017541Y000601D01*
X017725Y000525D01*
X017924Y000525D01*
X018107Y000601D01*
X018248Y000742D01*
X018324Y000926D01*
X018324Y001124D01*
X018267Y000787D02*
X025214Y000787D01*
X021626Y003654D02*
X018160Y003654D01*
X018107Y003601D02*
X018248Y003742D01*
X018324Y003926D01*
X018324Y004124D01*
X018248Y004308D01*
X018107Y004449D01*
X017924Y004525D01*
X017725Y004525D01*
X017541Y004449D01*
X017400Y004308D01*
X017324Y004124D01*
X017324Y003926D01*
X017400Y003742D01*
X017541Y003601D01*
X017725Y003525D01*
X017924Y003525D01*
X018107Y003601D01*
X018324Y003972D02*
X021392Y003972D01*
X021357Y004291D02*
X018255Y004291D01*
X018309Y004928D02*
X018589Y004928D01*
X018449Y005176D02*
X018449Y005374D01*
X018525Y005558D01*
X018666Y005699D01*
X018783Y005748D01*
X018612Y005818D01*
X018457Y005974D01*
X018301Y005818D01*
X018123Y005744D01*
X018232Y005699D01*
X018373Y005558D01*
X018449Y005374D01*
X018449Y005176D01*
X018449Y005246D02*
X018449Y005246D01*
X018367Y005565D02*
X018531Y005565D01*
X018548Y005883D02*
X018366Y005883D01*
X017589Y004928D02*
X016949Y004928D01*
X016899Y005246D02*
X017449Y005246D01*
X017393Y004291D02*
X015489Y004291D01*
X015408Y003972D02*
X017324Y003972D01*
X017488Y003654D02*
X015334Y003654D01*
X016802Y002380D02*
X019947Y002380D01*
X019953Y002061D02*
X016949Y002061D01*
X016873Y001743D02*
X020085Y001743D01*
X020384Y001424D02*
X018132Y001424D01*
X017516Y001424D02*
X016757Y001424D01*
X016949Y001106D02*
X017324Y001106D01*
X017381Y000787D02*
X016892Y000787D01*
X016009Y005883D02*
X013639Y005883D01*
X013484Y005565D02*
X013414Y005565D01*
X013824Y006202D02*
X015824Y006202D01*
X015884Y006520D02*
X013764Y006520D01*
X014414Y005565D02*
X014484Y005565D01*
X016065Y007157D02*
X005166Y007157D01*
X005291Y007476D02*
X016001Y007476D01*
X016229Y007794D02*
X005238Y007794D01*
X005098Y008113D02*
X005978Y008113D01*
X005876Y008431D02*
X005264Y008431D01*
X005220Y008750D02*
X006040Y008750D01*
X006339Y009068D02*
X005109Y009068D01*
X005291Y009387D02*
X006318Y009387D01*
X006431Y009705D02*
X005262Y009705D01*
X005080Y010024D02*
X006193Y010024D01*
X006126Y010342D02*
X005280Y010342D01*
X005274Y010661D02*
X006334Y010661D01*
X006814Y010661D02*
X016813Y010661D01*
X016751Y010979D02*
X005064Y010979D01*
X005026Y011935D02*
X004872Y011935D01*
X004026Y011935D02*
X003872Y011935D01*
X003026Y011935D02*
X002872Y011935D01*
X003018Y009068D02*
X004227Y009068D01*
X004115Y008750D02*
X003281Y008750D01*
X003323Y008431D02*
X004071Y008431D01*
X004237Y008113D02*
X003169Y008113D01*
X005783Y013846D02*
X005920Y013846D01*
X006001Y014801D02*
X005716Y014801D01*
X005966Y015438D02*
X006155Y015438D01*
X006743Y015438D02*
X007927Y015438D01*
X011467Y009705D02*
X011717Y009705D01*
X012181Y009705D02*
X016431Y009705D01*
X016438Y009721D02*
X016318Y009432D01*
X016318Y009118D01*
X016438Y008829D01*
X016659Y008607D01*
X016949Y008488D01*
X017262Y008488D01*
X017552Y008607D01*
X017773Y008829D01*
X017893Y009118D01*
X017893Y009432D01*
X017773Y009721D01*
X017552Y009943D01*
X017262Y010062D01*
X016949Y010062D01*
X016659Y009943D01*
X016438Y009721D01*
X016318Y009387D02*
X016211Y009387D01*
X016204Y009404D02*
X016078Y009530D01*
X015913Y009598D01*
X015735Y009598D01*
X015570Y009530D01*
X015444Y009404D01*
X015376Y009239D01*
X015376Y009061D01*
X015444Y008896D01*
X015570Y008770D01*
X015735Y008702D01*
X015913Y008702D01*
X016078Y008770D01*
X016204Y008896D01*
X016272Y009061D01*
X016272Y009239D01*
X016204Y009404D01*
X016272Y009068D02*
X016339Y009068D01*
X016517Y008750D02*
X016028Y008750D01*
X015620Y008750D02*
X012282Y008750D01*
X012272Y008431D02*
X021435Y008431D01*
X021239Y008607D02*
X021460Y008829D01*
X021580Y009118D01*
X021580Y009432D01*
X021460Y009721D01*
X021239Y009943D01*
X020949Y010062D01*
X020636Y010062D01*
X020346Y009943D01*
X020125Y009721D01*
X020005Y009432D01*
X020005Y009118D01*
X020125Y008829D01*
X020346Y008607D01*
X020636Y008488D01*
X020949Y008488D01*
X021239Y008607D01*
X021381Y008750D02*
X025214Y008750D01*
X025074Y009068D02*
X025074Y009068D01*
X025074Y009387D02*
X025074Y009387D01*
X025074Y009525D02*
X025074Y009525D01*
X024819Y010024D02*
X023927Y010024D01*
X023721Y010024D02*
X022954Y010024D01*
X022930Y010036D02*
X023005Y010067D01*
X023157Y010219D01*
X023239Y010418D01*
X023239Y010632D01*
X023157Y010831D01*
X023005Y010983D01*
X022903Y011025D01*
X023005Y011067D01*
X023157Y011219D01*
X023239Y011418D01*
X023239Y011632D01*
X023157Y011831D01*
X023005Y011983D01*
X022806Y012065D01*
X022592Y012065D01*
X022393Y011983D01*
X022241Y011831D01*
X022159Y011632D01*
X022159Y011418D01*
X022241Y011219D01*
X022393Y011067D01*
X022495Y011025D01*
X022393Y010983D01*
X022241Y010831D01*
X022159Y010632D01*
X022159Y010418D01*
X022241Y010219D01*
X022393Y010067D01*
X022468Y010036D01*
X022406Y010004D01*
X022334Y009952D01*
X022272Y009890D01*
X022220Y009819D01*
X022180Y009740D01*
X022153Y009656D01*
X022139Y009569D01*
X022139Y009525D01*
X022139Y009481D01*
X022153Y009394D01*
X022180Y009310D01*
X022220Y009231D01*
X022272Y009160D01*
X022334Y009098D01*
X022406Y009046D01*
X022484Y009006D01*
X022568Y008979D01*
X022655Y008965D01*
X022699Y008965D01*
X022699Y009525D01*
X022139Y009525D01*
X022699Y009525D01*
X022699Y009525D01*
X022699Y009525D01*
X022699Y008965D01*
X022743Y008965D01*
X022830Y008979D01*
X022914Y009006D01*
X022993Y009046D01*
X023064Y009098D01*
X023126Y009160D01*
X023178Y009231D01*
X023218Y009310D01*
X023245Y009394D01*
X023259Y009481D01*
X023259Y009525D01*
X023259Y009569D01*
X023245Y009656D01*
X023218Y009740D01*
X023178Y009819D01*
X023126Y009890D01*
X023064Y009952D01*
X022993Y010004D01*
X022930Y010036D01*
X023208Y010342D02*
X023359Y010342D01*
X023339Y010661D02*
X023227Y010661D01*
X023009Y010979D02*
X023538Y010979D01*
X023325Y011298D02*
X023189Y011298D01*
X023239Y011616D02*
X023372Y011616D01*
X023641Y011935D02*
X023053Y011935D01*
X023344Y012253D02*
X021647Y012253D01*
X021536Y012572D02*
X023354Y012572D01*
X023362Y013209D02*
X023226Y013209D01*
X023259Y013400D02*
X022699Y013400D01*
X023259Y013400D01*
X023246Y013527D02*
X023335Y013527D01*
X023593Y013846D02*
X023039Y013846D01*
X023186Y014164D02*
X023381Y014164D01*
X023324Y014483D02*
X023239Y014483D01*
X023062Y014801D02*
X023518Y014801D01*
X023347Y015120D02*
X023167Y015120D01*
X023239Y015438D02*
X023350Y015438D01*
X022292Y015757D02*
X017140Y015757D01*
X017473Y016075D02*
X020425Y016075D01*
X020098Y016394D02*
X017800Y016394D01*
X017893Y016712D02*
X020005Y016712D01*
X020046Y017031D02*
X017852Y017031D01*
X017645Y017349D02*
X020253Y017349D01*
X021332Y017349D02*
X022242Y017349D01*
X022293Y017668D02*
X016824Y017668D01*
X016824Y017986D02*
X022159Y017986D01*
X022230Y018305D02*
X016824Y018305D01*
X016824Y018623D02*
X022337Y018623D01*
X022159Y018942D02*
X016824Y018942D01*
X016824Y019260D02*
X022212Y019260D01*
X021324Y019897D02*
X019278Y019897D01*
X019449Y020216D02*
X021324Y020216D01*
X021539Y017031D02*
X022139Y017031D01*
X022234Y016712D02*
X021580Y016712D01*
X022699Y016712D02*
X022699Y016712D01*
X022699Y017025D02*
X022699Y017025D01*
X024207Y017349D02*
X024617Y017349D01*
X024668Y017668D02*
X024174Y017668D01*
X024324Y017986D02*
X024534Y017986D01*
X024605Y018305D02*
X024249Y018305D01*
X024251Y018623D02*
X024712Y018623D01*
X024534Y018942D02*
X024324Y018942D01*
X024171Y019260D02*
X024587Y019260D01*
X024210Y019579D02*
X025214Y019579D01*
X025074Y017025D02*
X025074Y017025D01*
X025074Y016712D02*
X025074Y016712D01*
X025214Y016394D02*
X024316Y016394D01*
X024282Y016075D02*
X025214Y016075D01*
X024609Y016712D02*
X024218Y016712D01*
X024324Y017031D02*
X024514Y017031D01*
X022212Y014164D02*
X020444Y014164D01*
X020459Y014144D02*
X020402Y014222D01*
X020334Y014291D01*
X020255Y014348D01*
X020169Y014392D01*
X020077Y014421D01*
X019982Y014437D01*
X019933Y014437D01*
X019933Y013822D01*
X019933Y013822D01*
X019933Y013822D01*
X020548Y013822D01*
X020548Y013871D01*
X020533Y013966D01*
X020503Y014058D01*
X020459Y014144D01*
X020548Y013846D02*
X022360Y013846D01*
X022699Y013400D02*
X022699Y013400D01*
X022699Y013209D02*
X022699Y013209D01*
X022345Y011935D02*
X021492Y011935D01*
X020906Y011935D02*
X017574Y011935D01*
X017521Y012253D02*
X020087Y012253D01*
X019933Y013527D02*
X019933Y013527D01*
X019933Y013846D02*
X019933Y013846D01*
X019933Y014164D02*
X019933Y014164D01*
X022159Y011616D02*
X017372Y011616D01*
X017410Y011298D02*
X022209Y011298D01*
X022389Y010979D02*
X017647Y010979D01*
X017585Y010661D02*
X022171Y010661D01*
X022190Y010342D02*
X012411Y010342D01*
X012438Y010024D02*
X016855Y010024D01*
X017356Y010024D02*
X020542Y010024D01*
X021043Y010024D02*
X022444Y010024D01*
X022169Y009705D02*
X021467Y009705D01*
X021580Y009387D02*
X022155Y009387D01*
X022375Y009068D02*
X021559Y009068D01*
X022526Y008431D02*
X023433Y008431D01*
X023353Y008113D02*
X022604Y008113D01*
X022521Y007794D02*
X023438Y007794D01*
X023621Y009068D02*
X023023Y009068D01*
X022699Y009068D02*
X022699Y009068D01*
X022699Y009387D02*
X022699Y009387D01*
X022699Y009525D02*
X022699Y009525D01*
X023259Y009525D01*
X022699Y009525D01*
X023229Y009705D02*
X023357Y009705D01*
X023340Y009387D02*
X023243Y009387D01*
X024027Y009068D02*
X024750Y009068D01*
X024530Y009387D02*
X024308Y009387D01*
X024291Y009705D02*
X024544Y009705D01*
X024565Y010342D02*
X024289Y010342D01*
X024309Y010661D02*
X024546Y010661D01*
X024764Y010979D02*
X024110Y010979D01*
X024323Y011298D02*
X024584Y011298D01*
X024534Y011616D02*
X024276Y011616D01*
X024007Y011935D02*
X024720Y011935D01*
X024304Y012253D02*
X025214Y012253D01*
X025214Y012572D02*
X024294Y012572D01*
X024949Y012890D02*
X024949Y012890D01*
X025182Y012890D02*
X025214Y012890D01*
X024949Y013209D02*
X024949Y013209D01*
X024949Y013400D02*
X024949Y013400D01*
X020118Y009705D02*
X017780Y009705D01*
X017893Y009387D02*
X020005Y009387D01*
X020026Y009068D02*
X019747Y009068D01*
X019714Y009149D02*
X019782Y008984D01*
X019782Y008806D01*
X019714Y008641D01*
X019588Y008515D01*
X019423Y008447D01*
X019245Y008447D01*
X019080Y008515D01*
X018954Y008641D01*
X018886Y008806D01*
X018886Y008984D01*
X018954Y009149D01*
X019080Y009275D01*
X019245Y009343D01*
X019423Y009343D01*
X019588Y009275D01*
X019714Y009149D01*
X019759Y008750D02*
X020204Y008750D01*
X018921Y009068D02*
X017872Y009068D01*
X017694Y008750D02*
X018909Y008750D01*
X020268Y006839D02*
X021428Y006839D01*
X021507Y006520D02*
X020515Y006520D01*
X020536Y006202D02*
X021384Y006202D01*
X021446Y005883D02*
X020363Y005883D01*
X015752Y011616D02*
X014272Y011616D01*
X014173Y011935D02*
X015562Y011935D01*
X016541Y012253D02*
X016627Y012253D01*
X015437Y009387D02*
X012412Y009387D01*
X012469Y009150D02*
X011949Y009150D01*
X011949Y009150D01*
X012469Y009150D01*
X012463Y009068D02*
X015376Y009068D01*
X015903Y016394D02*
X016199Y016394D01*
X016199Y016712D02*
X015966Y016712D01*
X015800Y017031D02*
X016199Y017031D01*
X018278Y019897D02*
X018620Y019897D01*
X018449Y020176D02*
X018449Y020374D01*
X018525Y020558D01*
X018666Y020699D01*
X018783Y020748D01*
X018612Y020818D01*
X018457Y020974D01*
X018301Y020818D01*
X018123Y020744D01*
X018232Y020699D01*
X018373Y020558D01*
X018449Y020374D01*
X018449Y020176D01*
X018449Y020216D02*
X018449Y020216D01*
X018383Y020534D02*
X018515Y020534D01*
X018578Y020853D02*
X018336Y020853D01*
X014133Y026267D02*
X013136Y026267D01*
X013101Y025949D02*
X014074Y025949D01*
X013460Y024993D02*
X013438Y024993D01*
X012710Y024993D02*
X012438Y024993D01*
X012574Y024675D02*
X012574Y024675D01*
X012487Y024356D02*
X012661Y024356D01*
X011262Y025630D02*
X011199Y025630D01*
X011199Y026357D02*
X011199Y026693D01*
X011291Y026601D01*
X011475Y026525D01*
X011674Y026525D01*
X011475Y026525D01*
X011291Y026449D01*
X011199Y026357D01*
X011199Y026586D02*
X011328Y026586D01*
X011297Y027860D02*
X011601Y027860D01*
X012297Y027860D02*
X012601Y027860D01*
X013297Y027860D02*
X013601Y027860D01*
X015297Y027860D02*
X015601Y027860D01*
X015800Y027223D02*
X016348Y027223D01*
X016086Y026904D02*
X016062Y026904D01*
X016037Y026586D02*
X016111Y026586D01*
X016297Y027860D02*
X016601Y027860D01*
X017297Y027860D02*
X017601Y027860D01*
X018297Y027860D02*
X018656Y027860D01*
X018992Y027860D02*
X019281Y027860D01*
X017564Y031682D02*
X017306Y031682D01*
X016592Y031682D02*
X016306Y031682D01*
X015592Y031682D02*
X015306Y031682D01*
X014592Y031682D02*
X014306Y031682D01*
X013592Y031682D02*
X013306Y031682D01*
X012592Y031682D02*
X012306Y031682D01*
X011592Y031682D02*
X011306Y031682D01*
X010592Y031682D02*
X010306Y031682D01*
X009592Y031682D02*
X009306Y031682D01*
X008592Y031682D02*
X005902Y031682D01*
X005881Y031731D02*
X005655Y031957D01*
X005881Y031731D02*
X006004Y031435D01*
X006004Y031115D01*
X005881Y030819D01*
X005975Y031045D02*
X008460Y031045D01*
X008409Y031363D02*
X006004Y031363D01*
X004074Y031682D02*
X004074Y031682D01*
X004074Y032000D02*
X004074Y032000D01*
X004074Y032025D02*
X004074Y032025D01*
X004074Y032319D02*
X004074Y032319D01*
X003595Y032319D02*
X003563Y032256D01*
X003532Y032331D01*
X003494Y031682D02*
X003631Y031682D01*
X002654Y031682D02*
X002494Y031682D01*
X002537Y032319D02*
X002611Y032319D01*
X002792Y030089D02*
X003743Y030089D01*
X003368Y029771D02*
X003038Y029771D01*
X003119Y029452D02*
X003276Y029452D01*
X003325Y029134D02*
X003081Y029134D01*
X002896Y028815D02*
X003554Y028815D01*
X009297Y027860D02*
X009601Y027860D01*
X010297Y027860D02*
X010601Y027860D01*
X013164Y032956D02*
X013402Y032956D01*
X013344Y033274D02*
X013120Y033274D01*
X014206Y033540D02*
X014482Y033540D01*
X014420Y033478D01*
X014344Y033294D01*
X014344Y033096D01*
X014344Y033294D01*
X014268Y033478D01*
X014206Y033540D01*
X014344Y033274D02*
X014344Y033274D01*
X014286Y032956D02*
X014402Y032956D01*
X016011Y033540D02*
X016377Y033540D01*
X016270Y033433D01*
X016194Y033249D01*
X016194Y033051D01*
X016194Y033249D01*
X016118Y033433D01*
X016011Y033540D01*
X016184Y033274D02*
X016204Y033274D01*
X016233Y032956D02*
X016155Y032956D01*
M02*
