G75*
%MOIN*%
%OFA0B0*%
%FSLAX24Y24*%
%IPPOS*%
%LPD*%
%AMOC8*
5,1,8,0,0,1.08239X$1,22.5*
%
%ADD10C,0.1325*%
%ADD11C,0.0930*%
%ADD12OC8,0.0640*%
%ADD13R,0.1135X0.1135*%
%ADD14R,0.0749X0.0749*%
%ADD15C,0.0900*%
%ADD16C,0.0512*%
%ADD17C,0.1306*%
%ADD18C,0.1044*%
%ADD19C,0.0560*%
%ADD20OC8,0.0560*%
%ADD21C,0.0594*%
%ADD22C,0.0640*%
%ADD23R,0.0985X0.0985*%
%ADD24R,0.0906X0.0276*%
%ADD25C,0.0640*%
%ADD26C,0.0634*%
%ADD27C,0.0808*%
%ADD28R,0.0640X0.0640*%
%ADD29R,0.0808X0.0808*%
%ADD30OC8,0.0700*%
%ADD31OC8,0.0600*%
%ADD32OC8,0.0780*%
%ADD33OC8,0.0800*%
%ADD34C,0.0436*%
D10*
X020949Y002275D03*
D11*
X005199Y031275D03*
D12*
X005449Y026275D03*
X005449Y025275D03*
X005449Y024275D03*
X005449Y023275D03*
X005449Y022275D03*
X005449Y021275D03*
X005449Y020275D03*
X005449Y019275D03*
X005449Y018275D03*
X005449Y017275D03*
X005449Y016275D03*
X005449Y015275D03*
X005449Y014275D03*
X005449Y013275D03*
X005449Y012275D03*
X004449Y012275D03*
X004449Y013275D03*
X004449Y014275D03*
X004449Y015275D03*
X004449Y016275D03*
X004449Y017275D03*
X004449Y018275D03*
X004449Y019275D03*
X004449Y020275D03*
X004449Y021275D03*
X004449Y022275D03*
X004449Y023275D03*
X004449Y024275D03*
X004449Y025275D03*
X004449Y026275D03*
X003449Y026275D03*
X002449Y026275D03*
X002449Y025275D03*
X002449Y024275D03*
X002449Y023275D03*
X002449Y022275D03*
X002449Y021275D03*
X002449Y020275D03*
X002449Y019275D03*
X002449Y018275D03*
X002449Y017275D03*
X002449Y016275D03*
X002449Y015275D03*
X002449Y014275D03*
X002449Y013275D03*
X002449Y012275D03*
X003449Y012275D03*
X003449Y013275D03*
X003449Y014275D03*
X003449Y015275D03*
X003449Y016275D03*
X003449Y017275D03*
X003449Y018275D03*
X003449Y019275D03*
X003449Y020275D03*
X003449Y021275D03*
X003449Y022275D03*
X003449Y023275D03*
X003449Y024275D03*
X003449Y025275D03*
X011949Y005275D03*
X011949Y004275D03*
X011949Y003275D03*
X011949Y002275D03*
X012949Y002275D03*
X012949Y003275D03*
X012949Y004275D03*
X012949Y005275D03*
X013949Y005275D03*
X013949Y004275D03*
X013949Y003275D03*
X013949Y002275D03*
X014949Y002275D03*
X014949Y003275D03*
X014949Y004275D03*
X014949Y005275D03*
D13*
X017106Y009275D03*
X020793Y009275D03*
X020793Y016775D03*
X017106Y016775D03*
X017106Y024275D03*
X020793Y024275D03*
X010793Y024400D03*
X007106Y024400D03*
X007106Y016775D03*
X010793Y016775D03*
X010793Y009275D03*
X007106Y009275D03*
D14*
X007965Y006322D03*
X008949Y006322D03*
X009933Y006322D03*
X009933Y013822D03*
X008949Y013822D03*
X007965Y013822D03*
X007965Y021447D03*
X008949Y021447D03*
X009933Y021447D03*
X017965Y021322D03*
X018949Y021322D03*
X019933Y021322D03*
X019933Y013822D03*
X018949Y013822D03*
X017965Y013822D03*
X017965Y006322D03*
X018949Y006322D03*
X019933Y006322D03*
D15*
X021981Y007134D03*
X021981Y008119D03*
X023949Y006150D03*
X021981Y005166D03*
X021981Y004181D03*
X004668Y004009D03*
X004668Y004994D03*
X004668Y006556D03*
X004668Y007541D03*
X004668Y009509D03*
X004668Y010494D03*
X002699Y008525D03*
X002699Y003025D03*
X004668Y002041D03*
X004668Y001056D03*
D16*
X001715Y001056D03*
X002699Y001056D03*
X004668Y003025D03*
X002699Y004994D03*
X001715Y004994D03*
X001715Y006556D03*
X002699Y006556D03*
X004668Y008525D03*
X002699Y010494D03*
X001715Y010494D03*
X021981Y006150D03*
X023949Y004181D03*
X024933Y004181D03*
X024933Y008119D03*
X023949Y008119D03*
D17*
X002246Y029400D03*
D18*
X004018Y029400D03*
X005199Y027550D03*
X006380Y029400D03*
D19*
X012449Y021420D02*
X012449Y020900D01*
X013449Y020900D02*
X013449Y021420D01*
X014449Y021420D02*
X014449Y020900D01*
X015449Y020900D02*
X015449Y021420D01*
X015449Y017900D02*
X015449Y017380D01*
X014449Y017380D02*
X014449Y017900D01*
X013449Y017900D02*
X013449Y017380D01*
X012449Y017380D02*
X012449Y017900D01*
D20*
X011574Y022275D03*
X011449Y023275D03*
X012074Y024650D03*
X013074Y024650D03*
X013824Y024650D03*
X014824Y024650D03*
X015699Y025400D03*
X014574Y026025D03*
X014574Y027025D03*
X015574Y026775D03*
X016574Y026775D03*
X014449Y023275D03*
X014574Y022275D03*
X015699Y022400D03*
X011574Y026025D03*
X011574Y027025D03*
X015694Y033150D03*
X016694Y033150D03*
X017449Y033150D03*
X018449Y033150D03*
X006449Y015025D03*
X006449Y012025D03*
X006949Y004150D03*
X006949Y003150D03*
X006949Y002150D03*
X006949Y001150D03*
X009949Y001150D03*
X009949Y002150D03*
X009949Y003150D03*
X009949Y004150D03*
X013324Y006275D03*
X016324Y006275D03*
X016449Y005025D03*
X017824Y004025D03*
X016449Y002025D03*
X016449Y001025D03*
X017824Y001025D03*
X013449Y001025D03*
D21*
X012449Y016650D03*
X015449Y016650D03*
D22*
X004074Y031725D02*
X004074Y032325D01*
X003074Y032325D02*
X003074Y031725D01*
X002074Y031725D02*
X002074Y032325D01*
X009624Y032760D02*
X009624Y033360D01*
X010624Y033360D02*
X010624Y032760D01*
X011624Y032760D02*
X011624Y033360D01*
X012624Y033360D02*
X012624Y032760D01*
D23*
X008433Y033025D03*
X006465Y033025D03*
D24*
X012925Y013400D03*
X012925Y012900D03*
X012925Y012400D03*
X012925Y011900D03*
X012925Y011400D03*
X012925Y010900D03*
X012925Y010400D03*
X014973Y010400D03*
X014973Y010900D03*
X014973Y011400D03*
X014973Y011900D03*
X014973Y012400D03*
X014973Y012900D03*
X014973Y013400D03*
D25*
X022699Y013400D03*
X022699Y014400D03*
X022699Y015400D03*
X022699Y017025D03*
X022699Y018025D03*
X022699Y019025D03*
X025074Y019025D03*
X025074Y018025D03*
X025074Y017025D03*
X024949Y015400D03*
X024949Y014400D03*
X024949Y013400D03*
X025074Y011525D03*
X025074Y010525D03*
X025074Y009525D03*
X022699Y009525D03*
X022699Y010525D03*
X022699Y011525D03*
D26*
X022718Y029036D03*
X021930Y029036D03*
X020946Y029036D03*
X023702Y029036D03*
D27*
X024911Y030103D03*
X019737Y030103D03*
D28*
X022715Y025900D03*
X024683Y025900D03*
X024683Y022400D03*
X022715Y022400D03*
D29*
X022699Y021150D03*
X024699Y021150D03*
X024699Y023650D03*
X024699Y024650D03*
X022699Y024650D03*
X022699Y023650D03*
X022699Y027150D03*
X024699Y027150D03*
D30*
X019199Y032275D03*
X019199Y033275D03*
X014844Y033195D03*
X013844Y033195D03*
D31*
X017949Y020275D03*
X018949Y020275D03*
X023824Y019900D03*
X023824Y018900D03*
X023824Y018025D03*
X023824Y017025D03*
X023824Y016275D03*
X023824Y015275D03*
X023824Y014400D03*
X023824Y013400D03*
X023824Y012400D03*
X023824Y011400D03*
X023824Y010525D03*
X023824Y009525D03*
X018949Y012900D03*
X017949Y012900D03*
X017074Y012025D03*
X016074Y012025D03*
X011949Y013775D03*
X010949Y013775D03*
X008949Y012775D03*
X007949Y012775D03*
X011949Y010150D03*
X011949Y009150D03*
X008949Y005400D03*
X007949Y005400D03*
X017949Y005275D03*
X018949Y005275D03*
X009074Y020400D03*
X008074Y020400D03*
D32*
X008949Y028275D03*
X008949Y029275D03*
X008949Y030275D03*
X008949Y031275D03*
X009949Y031275D03*
X009949Y030275D03*
X009949Y029275D03*
X009949Y028275D03*
X010949Y028275D03*
X010949Y029275D03*
X010949Y030275D03*
X010949Y031275D03*
X011949Y031275D03*
X011949Y030275D03*
X011949Y029275D03*
X011949Y028275D03*
X012949Y028275D03*
X012949Y029275D03*
X012949Y030275D03*
X012949Y031275D03*
X013949Y031275D03*
X013949Y030275D03*
X013949Y029275D03*
X013949Y028275D03*
X014949Y028275D03*
X014949Y029275D03*
X014949Y030275D03*
X014949Y031275D03*
X015949Y031275D03*
X015949Y030275D03*
X015949Y029275D03*
X015949Y028275D03*
X016949Y028275D03*
X016949Y029275D03*
X016949Y030275D03*
X016949Y031275D03*
X017949Y031275D03*
X017949Y030275D03*
X017949Y029275D03*
X017949Y028275D03*
D33*
X020699Y028025D03*
X021699Y028025D03*
X022699Y028025D03*
X023699Y028025D03*
X024699Y028025D03*
X024699Y002775D03*
X024699Y001775D03*
X023699Y001775D03*
X023699Y002775D03*
D34*
X019334Y008895D03*
X017199Y010900D03*
X015824Y009150D03*
X016449Y007400D03*
X013824Y011650D03*
X014074Y012900D03*
X015699Y015025D03*
X016199Y014025D03*
X016699Y015650D03*
X014824Y015900D03*
X012074Y015025D03*
X010699Y012150D03*
X009824Y012275D03*
X009699Y010025D03*
X009949Y009150D03*
X009074Y009025D03*
X008699Y009525D03*
X006574Y010275D03*
X006324Y008400D03*
X006324Y013650D03*
X008324Y015650D03*
X008824Y016025D03*
X009449Y016150D03*
X009574Y016900D03*
X008699Y017650D03*
X006199Y018525D03*
X012699Y026150D03*
X008074Y027525D03*
X007324Y030150D03*
X018824Y028900D03*
X018824Y028275D03*
X019449Y028275D03*
X019449Y028900D03*
X020449Y012525D03*
X021199Y012275D03*
X011824Y008400D03*
M02*
