G75*
%MOIN*%
%OFA0B0*%
%FSLAX24Y24*%
%IPPOS*%
%LPD*%
%AMOC8*
5,1,8,0,0,1.08239X$1,22.5*
%
%ADD10C,0.0600*%
%ADD11C,0.1095*%
%ADD12C,0.0709*%
%ADD13C,0.0768*%
%ADD14C,0.1266*%
%ADD15C,0.1004*%
%ADD16C,0.0520*%
%ADD17C,0.0554*%
%ADD18C,0.0594*%
%ADD19C,0.0320*%
%ADD20C,0.0396*%
%ADD21C,0.0240*%
%ADD22C,0.0100*%
D10*
X002449Y012275D03*
X002449Y013275D03*
X002449Y014275D03*
X002449Y015275D03*
X002449Y016275D03*
X002449Y017275D03*
X002449Y018275D03*
X002449Y019275D03*
X002449Y020275D03*
X002449Y021275D03*
X002449Y022275D03*
X002449Y023275D03*
X002449Y024275D03*
X002449Y025275D03*
X002449Y026275D03*
X003449Y026275D03*
X003449Y025275D03*
X003449Y024275D03*
X003449Y023275D03*
X003449Y022275D03*
X003449Y021275D03*
X003449Y020275D03*
X003449Y019275D03*
X003449Y018275D03*
X003449Y017275D03*
X003449Y016275D03*
X003449Y015275D03*
X003449Y014275D03*
X003449Y013275D03*
X003449Y012275D03*
X004449Y012275D03*
X004449Y013275D03*
X004449Y014275D03*
X004449Y015275D03*
X004449Y016275D03*
X004449Y017275D03*
X004449Y018275D03*
X004449Y019275D03*
X004449Y020275D03*
X004449Y021275D03*
X004449Y022275D03*
X004449Y023275D03*
X004449Y024275D03*
X004449Y025275D03*
X004449Y026275D03*
X005449Y026275D03*
X005449Y025275D03*
X005449Y024275D03*
X005449Y023275D03*
X005449Y022275D03*
X005449Y021275D03*
X005449Y020275D03*
X005449Y019275D03*
X005449Y018275D03*
X005449Y017275D03*
X005449Y016275D03*
X005449Y015275D03*
X005449Y014275D03*
X005449Y013275D03*
X005449Y012275D03*
X011949Y005275D03*
X011949Y004275D03*
X011949Y003275D03*
X011949Y002275D03*
X012949Y002275D03*
X012949Y003275D03*
X012949Y004275D03*
X012949Y005275D03*
X013949Y005275D03*
X013949Y004275D03*
X013949Y003275D03*
X013949Y002275D03*
X014949Y002275D03*
X014949Y003275D03*
X014949Y004275D03*
X014949Y005275D03*
X022699Y009525D03*
X022699Y010525D03*
X022699Y011525D03*
X022699Y013400D03*
X022699Y014400D03*
X022699Y015400D03*
X022699Y017025D03*
X022699Y018025D03*
X022699Y019025D03*
X025074Y019025D03*
X025074Y018025D03*
X025074Y017025D03*
X024949Y015400D03*
X024949Y014400D03*
X024949Y013400D03*
X025074Y011525D03*
X025074Y010525D03*
X025074Y009525D03*
X024699Y002775D03*
X024699Y001775D03*
X023699Y001775D03*
X023699Y002775D03*
X022715Y022400D03*
X024683Y022400D03*
X024683Y025900D03*
X024699Y028025D03*
X023699Y028025D03*
X022699Y028025D03*
X021699Y028025D03*
X020699Y028025D03*
X022715Y025900D03*
X017949Y028275D03*
X017949Y029275D03*
X017949Y030275D03*
X017949Y031275D03*
X016949Y031275D03*
X016949Y030275D03*
X016949Y029275D03*
X016949Y028275D03*
X015949Y028275D03*
X014949Y028275D03*
X014949Y029275D03*
X014949Y030275D03*
X014949Y031275D03*
X015949Y031275D03*
X015949Y030275D03*
X015949Y029275D03*
X013949Y029275D03*
X013949Y028275D03*
X012949Y028275D03*
X012949Y029275D03*
X012949Y030275D03*
X012949Y031275D03*
X011949Y031275D03*
X010949Y031275D03*
X010949Y030275D03*
X010949Y029275D03*
X010949Y028275D03*
X011949Y028275D03*
X011949Y029275D03*
X011949Y030275D03*
X009949Y030275D03*
X009949Y029275D03*
X009949Y028275D03*
X008949Y028275D03*
X008949Y029275D03*
X008949Y030275D03*
X008949Y031275D03*
X009949Y031275D03*
X009624Y033060D03*
X010624Y033060D03*
X011624Y033060D03*
X012624Y033060D03*
X013949Y031275D03*
X013949Y030275D03*
X004074Y032025D03*
X003074Y032025D03*
X002074Y032025D03*
D11*
X007106Y024400D03*
X010793Y024400D03*
X010793Y016775D03*
X007106Y016775D03*
X007106Y009275D03*
X010793Y009275D03*
X017106Y009275D03*
X020793Y009275D03*
X020793Y016775D03*
X017106Y016775D03*
X017106Y024275D03*
X020793Y024275D03*
D12*
X019933Y021322D03*
X018949Y021322D03*
X017965Y021322D03*
X017965Y013822D03*
X018949Y013822D03*
X019933Y013822D03*
X019933Y006322D03*
X018949Y006322D03*
X017965Y006322D03*
X009933Y006322D03*
X008949Y006322D03*
X007965Y006322D03*
X007965Y013822D03*
X008949Y013822D03*
X009933Y013822D03*
X009933Y021447D03*
X008949Y021447D03*
X007965Y021447D03*
D13*
X004668Y010494D03*
X004668Y009509D03*
X004668Y007541D03*
X004668Y006556D03*
X004668Y004994D03*
X004668Y004009D03*
X004668Y002041D03*
X004668Y001056D03*
X002699Y003025D03*
X002699Y008525D03*
X019737Y030103D03*
X022699Y027150D03*
X024699Y027150D03*
X024699Y024650D03*
X024699Y023650D03*
X022699Y023650D03*
X022699Y024650D03*
X022699Y021150D03*
X024699Y021150D03*
X024911Y030103D03*
X021981Y008119D03*
X021981Y007134D03*
X021981Y005166D03*
X021981Y004181D03*
X023949Y006150D03*
D14*
X002246Y029400D03*
D15*
X004018Y029400D03*
X005199Y027550D03*
X006380Y029400D03*
D16*
X011449Y023275D03*
X011574Y022275D03*
X012449Y020900D03*
X013449Y020900D03*
X014449Y020900D03*
X015449Y020900D03*
X015699Y022400D03*
X014574Y022275D03*
X014449Y023275D03*
X014824Y024650D03*
X015699Y025400D03*
X014574Y026025D03*
X014574Y027025D03*
X015574Y026775D03*
X016574Y026775D03*
X013824Y024650D03*
X013074Y024650D03*
X012074Y024650D03*
X011574Y026025D03*
X011574Y027025D03*
X013844Y033195D03*
X014844Y033195D03*
X015694Y033150D03*
X016694Y033150D03*
X017449Y033150D03*
X018449Y033150D03*
X019199Y033275D03*
X019199Y032275D03*
X018949Y020275D03*
X017949Y020275D03*
X015449Y017900D03*
X014449Y017900D03*
X013449Y017900D03*
X012449Y017900D03*
X011949Y013775D03*
X010949Y013775D03*
X008949Y012775D03*
X007949Y012775D03*
X006449Y012025D03*
X006449Y015025D03*
X008074Y020400D03*
X009074Y020400D03*
X016074Y012025D03*
X017074Y012025D03*
X017949Y012900D03*
X018949Y012900D03*
X023824Y012400D03*
X023824Y011400D03*
X023824Y010525D03*
X023824Y009525D03*
X023824Y013400D03*
X023824Y014400D03*
X023824Y015275D03*
X023824Y016275D03*
X023824Y017025D03*
X023824Y018025D03*
X023824Y018900D03*
X023824Y019900D03*
X016324Y006275D03*
X016449Y005025D03*
X017824Y004025D03*
X017949Y005275D03*
X018949Y005275D03*
X016449Y002025D03*
X016449Y001025D03*
X017824Y001025D03*
X013449Y001025D03*
X009949Y001150D03*
X009949Y002150D03*
X009949Y003150D03*
X009949Y004150D03*
X008949Y005400D03*
X007949Y005400D03*
X006949Y004150D03*
X006949Y003150D03*
X006949Y002150D03*
X006949Y001150D03*
X011949Y009150D03*
X011949Y010150D03*
X013324Y006275D03*
D17*
X012449Y016650D03*
X015449Y016650D03*
D18*
X020946Y029036D03*
X021930Y029036D03*
X022718Y029036D03*
X023702Y029036D03*
D19*
X001309Y004556D02*
X001309Y001494D01*
X001377Y001562D01*
X001596Y001653D01*
X001833Y001653D01*
X002053Y001562D01*
X002207Y001408D01*
X002361Y001562D01*
X002580Y001653D01*
X002818Y001653D01*
X003037Y001562D01*
X003205Y001394D01*
X003295Y001175D01*
X003295Y000938D01*
X003205Y000719D01*
X003037Y000551D01*
X002938Y000510D01*
X004357Y000510D01*
X004314Y000528D01*
X004139Y000703D01*
X004044Y000932D01*
X004044Y001181D01*
X004139Y001410D01*
X004277Y001549D01*
X004139Y001687D01*
X004044Y001917D01*
X004044Y002165D01*
X004139Y002394D01*
X004297Y002552D01*
X004162Y002687D01*
X004071Y002906D01*
X004071Y003144D01*
X004162Y003363D01*
X004297Y003498D01*
X004139Y003656D01*
X004044Y003885D01*
X004044Y004133D01*
X004139Y004363D01*
X004277Y004501D01*
X004139Y004640D01*
X004044Y004869D01*
X004044Y005118D01*
X004139Y005347D01*
X004314Y005522D01*
X004543Y005617D01*
X004792Y005617D01*
X005021Y005522D01*
X005196Y005347D01*
X005291Y005118D01*
X005291Y004869D01*
X005196Y004640D01*
X005058Y004501D01*
X005196Y004363D01*
X005291Y004133D01*
X005291Y003885D01*
X005196Y003656D01*
X005038Y003498D01*
X005173Y003363D01*
X005264Y003144D01*
X005264Y002906D01*
X005173Y002687D01*
X005038Y002552D01*
X005196Y002394D01*
X005291Y002165D01*
X005291Y001917D01*
X005196Y001687D01*
X005058Y001549D01*
X005196Y001410D01*
X005291Y001181D01*
X005291Y000932D01*
X005196Y000703D01*
X005021Y000528D01*
X004978Y000510D01*
X025214Y000510D01*
X025214Y001552D01*
X025178Y001481D01*
X025126Y001410D01*
X025064Y001348D01*
X024993Y001296D01*
X024914Y001256D01*
X024830Y001229D01*
X024743Y001215D01*
X024699Y001215D01*
X024699Y001775D01*
X023699Y001775D01*
X023139Y001775D01*
X023139Y001731D01*
X023153Y001644D01*
X023180Y001560D01*
X023220Y001481D01*
X023272Y001410D01*
X023334Y001348D01*
X023406Y001296D01*
X023484Y001256D01*
X023568Y001229D01*
X023655Y001215D01*
X023699Y001215D01*
X023699Y001775D01*
X023699Y001775D01*
X023139Y001775D01*
X023139Y001819D01*
X023153Y001906D01*
X023180Y001990D01*
X023220Y002069D01*
X023272Y002140D01*
X023334Y002202D01*
X023406Y002254D01*
X023447Y002275D01*
X023406Y002296D01*
X023334Y002348D01*
X023272Y002410D01*
X023220Y002481D01*
X023180Y002560D01*
X023153Y002644D01*
X023139Y002731D01*
X023139Y002775D01*
X023699Y002775D01*
X023699Y002775D01*
X023139Y002775D01*
X023139Y002819D01*
X023153Y002906D01*
X023180Y002990D01*
X023220Y003069D01*
X023272Y003140D01*
X023334Y003202D01*
X023406Y003254D01*
X023484Y003294D01*
X023568Y003321D01*
X023655Y003335D01*
X023699Y003335D01*
X023699Y002775D01*
X023699Y002775D01*
X023699Y002335D01*
X023699Y001775D01*
X023699Y001775D01*
X023699Y001775D01*
X023699Y002775D01*
X023699Y002775D01*
X023699Y003335D01*
X023743Y003335D01*
X023830Y003321D01*
X023914Y003294D01*
X023993Y003254D01*
X024064Y003202D01*
X024126Y003140D01*
X024178Y003069D01*
X024199Y003027D01*
X024220Y003069D01*
X024272Y003140D01*
X024334Y003202D01*
X024406Y003254D01*
X024484Y003294D01*
X024568Y003321D01*
X024655Y003335D01*
X024699Y003335D01*
X024699Y002775D01*
X023699Y002775D01*
X024259Y002775D01*
X024699Y002775D01*
X024699Y002775D01*
X024699Y002775D01*
X024699Y002215D01*
X024699Y001775D01*
X024699Y001775D01*
X024259Y001775D01*
X023699Y001775D01*
X023699Y001215D01*
X023743Y001215D01*
X023830Y001229D01*
X023914Y001256D01*
X023993Y001296D01*
X024064Y001348D01*
X024126Y001410D01*
X024178Y001481D01*
X024199Y001523D01*
X024220Y001481D01*
X024272Y001410D01*
X024334Y001348D01*
X024406Y001296D01*
X024484Y001256D01*
X024568Y001229D01*
X024655Y001215D01*
X024699Y001215D01*
X024699Y001775D01*
X024699Y001775D01*
X024699Y001775D01*
X024699Y002775D01*
X024699Y002775D01*
X024699Y003335D01*
X024743Y003335D01*
X024830Y003321D01*
X024914Y003294D01*
X024993Y003254D01*
X025064Y003202D01*
X025126Y003140D01*
X025178Y003069D01*
X025214Y002998D01*
X025214Y003652D01*
X025052Y003585D01*
X024815Y003585D01*
X024596Y003676D01*
X024441Y003830D01*
X024287Y003676D01*
X024068Y003585D01*
X023830Y003585D01*
X023611Y003676D01*
X023444Y003844D01*
X023353Y004063D01*
X023353Y004300D01*
X023444Y004519D01*
X023611Y004687D01*
X023830Y004778D01*
X024068Y004778D01*
X024287Y004687D01*
X024441Y004533D01*
X024596Y004687D01*
X024815Y004778D01*
X025052Y004778D01*
X025214Y004711D01*
X025214Y007589D01*
X025052Y007522D01*
X024815Y007522D01*
X024596Y007613D01*
X024441Y007767D01*
X024287Y007613D01*
X024068Y007522D01*
X023830Y007522D01*
X023611Y007613D01*
X023444Y007781D01*
X023353Y008000D01*
X023353Y008237D01*
X023444Y008456D01*
X023611Y008624D01*
X023830Y008715D01*
X024068Y008715D01*
X024287Y008624D01*
X024441Y008470D01*
X024596Y008624D01*
X024815Y008715D01*
X025052Y008715D01*
X025214Y008648D01*
X025214Y008998D01*
X025181Y008985D01*
X024967Y008985D01*
X024768Y009067D01*
X024616Y009219D01*
X024534Y009418D01*
X024534Y009632D01*
X024616Y009831D01*
X024768Y009983D01*
X024870Y010025D01*
X024768Y010067D01*
X024616Y010219D01*
X024534Y010418D01*
X024534Y010632D01*
X024616Y010831D01*
X024768Y010983D01*
X024843Y011014D01*
X024781Y011046D01*
X024709Y011098D01*
X024647Y011160D01*
X024595Y011231D01*
X024555Y011310D01*
X024528Y011394D01*
X024514Y011481D01*
X024514Y011525D01*
X025074Y011525D01*
X025074Y011525D01*
X024514Y011525D01*
X024514Y011569D01*
X024528Y011656D01*
X024555Y011740D01*
X024595Y011819D01*
X024647Y011890D01*
X024709Y011952D01*
X024781Y012004D01*
X024859Y012044D01*
X024943Y012071D01*
X025030Y012085D01*
X025074Y012085D01*
X025074Y011525D01*
X025074Y011525D01*
X025074Y012085D01*
X025118Y012085D01*
X025205Y012071D01*
X025214Y012068D01*
X025214Y012925D01*
X025056Y012860D01*
X024842Y012860D01*
X024643Y012942D01*
X024491Y013094D01*
X024409Y013293D01*
X024409Y013507D01*
X024491Y013706D01*
X024643Y013858D01*
X024745Y013900D01*
X024643Y013942D01*
X024491Y014094D01*
X024409Y014293D01*
X024409Y014507D01*
X024491Y014706D01*
X024643Y014858D01*
X024718Y014889D01*
X024656Y014921D01*
X024584Y014973D01*
X024522Y015035D01*
X024470Y015106D01*
X024430Y015185D01*
X024403Y015269D01*
X024389Y015356D01*
X024389Y015400D01*
X024949Y015400D01*
X024949Y015400D01*
X024389Y015400D01*
X024389Y015444D01*
X024403Y015531D01*
X024430Y015615D01*
X024470Y015694D01*
X024522Y015765D01*
X024584Y015827D01*
X024656Y015879D01*
X024734Y015919D01*
X024818Y015946D01*
X024905Y015960D01*
X024949Y015960D01*
X024949Y015400D01*
X024949Y015400D01*
X024949Y015960D01*
X024993Y015960D01*
X025080Y015946D01*
X025164Y015919D01*
X025214Y015893D01*
X025214Y016498D01*
X025181Y016485D01*
X024967Y016485D01*
X024768Y016567D01*
X024616Y016719D01*
X024534Y016918D01*
X024534Y017132D01*
X024616Y017331D01*
X024768Y017483D01*
X024870Y017525D01*
X024768Y017567D01*
X024616Y017719D01*
X024534Y017918D01*
X024534Y018132D01*
X024616Y018331D01*
X024768Y018483D01*
X024843Y018514D01*
X024781Y018546D01*
X024709Y018598D01*
X024647Y018660D01*
X024595Y018731D01*
X024555Y018810D01*
X024528Y018894D01*
X024514Y018981D01*
X024514Y019025D01*
X025074Y019025D01*
X025074Y019025D01*
X024514Y019025D01*
X024514Y019069D01*
X024528Y019156D01*
X024555Y019240D01*
X024595Y019319D01*
X024647Y019390D01*
X024709Y019452D01*
X024781Y019504D01*
X024859Y019544D01*
X024943Y019571D01*
X025030Y019585D01*
X025074Y019585D01*
X025074Y019025D01*
X025074Y019025D01*
X025074Y019585D01*
X025118Y019585D01*
X025205Y019571D01*
X025214Y019568D01*
X025214Y019775D01*
X024330Y019775D01*
X024306Y019700D01*
X024269Y019627D01*
X024221Y019561D01*
X024163Y019503D01*
X024097Y019455D01*
X024024Y019418D01*
X023946Y019393D01*
X023942Y019392D01*
X024107Y019324D01*
X024248Y019183D01*
X024324Y018999D01*
X024324Y018801D01*
X024248Y018617D01*
X024107Y018476D01*
X024074Y018462D01*
X024107Y018449D01*
X024248Y018308D01*
X024324Y018124D01*
X024324Y017926D01*
X024248Y017742D01*
X024107Y017601D01*
X023942Y017533D01*
X023946Y017532D01*
X024024Y017507D01*
X024097Y017470D01*
X024163Y017422D01*
X024221Y017364D01*
X024269Y017298D01*
X024306Y017225D01*
X024331Y017147D01*
X024344Y017066D01*
X024344Y017025D01*
X023824Y017025D01*
X023304Y017025D01*
X023304Y016984D01*
X023317Y016903D01*
X023342Y016825D01*
X023379Y016752D01*
X023427Y016686D01*
X023464Y016650D01*
X023427Y016614D01*
X023379Y016548D01*
X023342Y016475D01*
X023317Y016397D01*
X023304Y016316D01*
X023304Y016275D01*
X023304Y016234D01*
X023317Y016153D01*
X023342Y016075D01*
X021160Y016075D01*
X021239Y016107D02*
X021460Y016329D01*
X021580Y016618D01*
X021580Y016932D01*
X021460Y017221D01*
X021239Y017443D01*
X020949Y017562D01*
X020636Y017562D01*
X020346Y017443D01*
X020125Y017221D01*
X020005Y016932D01*
X020005Y016618D01*
X020125Y016329D01*
X020346Y016107D01*
X020636Y015988D01*
X020949Y015988D01*
X021239Y016107D01*
X021487Y016394D02*
X023316Y016394D01*
X023304Y016275D02*
X023824Y016275D01*
X023304Y016275D01*
X023342Y016075D02*
X023379Y016002D01*
X023427Y015936D01*
X023485Y015878D01*
X023552Y015830D01*
X023624Y015793D01*
X023702Y015768D01*
X023706Y015767D01*
X023541Y015699D01*
X023400Y015558D01*
X023324Y015374D01*
X023324Y015176D01*
X023400Y014992D01*
X023541Y014851D01*
X023574Y014837D01*
X023541Y014824D01*
X023400Y014683D01*
X023324Y014499D01*
X023324Y014301D01*
X023400Y014117D01*
X023541Y013976D01*
X023706Y013908D01*
X023702Y013907D01*
X023624Y013882D01*
X023552Y013845D01*
X023485Y013797D01*
X023427Y013739D01*
X023379Y013673D01*
X023342Y013600D01*
X023317Y013522D01*
X023304Y013441D01*
X023304Y013400D01*
X023304Y013359D01*
X023317Y013278D01*
X023342Y013200D01*
X023379Y013127D01*
X023427Y013061D01*
X023485Y013003D01*
X023552Y012955D01*
X023624Y012918D01*
X023680Y012900D01*
X023624Y012882D01*
X023552Y012845D01*
X023485Y012797D01*
X023427Y012739D01*
X023379Y012673D01*
X023342Y012600D01*
X023317Y012522D01*
X023304Y012441D01*
X023304Y012400D01*
X023304Y012359D01*
X023317Y012278D01*
X023342Y012200D01*
X023379Y012127D01*
X023427Y012061D01*
X023485Y012003D01*
X023552Y011955D01*
X023624Y011918D01*
X023702Y011893D01*
X023706Y011892D01*
X023541Y011824D01*
X023400Y011683D01*
X023324Y011499D01*
X023324Y011301D01*
X023400Y011117D01*
X023541Y010976D01*
X023574Y010962D01*
X023541Y010949D01*
X023400Y010808D01*
X023324Y010624D01*
X023324Y010426D01*
X023400Y010242D01*
X023541Y010101D01*
X023706Y010033D01*
X023702Y010032D01*
X023624Y010007D01*
X023552Y009970D01*
X023485Y009922D01*
X023427Y009864D01*
X023379Y009798D01*
X023342Y009725D01*
X023317Y009647D01*
X023304Y009566D01*
X023304Y009525D01*
X023304Y009484D01*
X023317Y009403D01*
X023342Y009325D01*
X023379Y009252D01*
X023427Y009186D01*
X023485Y009128D01*
X023552Y009080D01*
X023624Y009043D01*
X023702Y009018D01*
X023783Y009005D01*
X023824Y009005D01*
X023824Y009525D01*
X023304Y009525D01*
X023824Y009525D01*
X023824Y009525D01*
X023824Y009525D01*
X023824Y009005D01*
X023865Y009005D01*
X023946Y009018D01*
X024024Y009043D01*
X024097Y009080D01*
X024163Y009128D01*
X024221Y009186D01*
X024269Y009252D01*
X024306Y009325D01*
X024331Y009403D01*
X024344Y009484D01*
X024344Y009525D01*
X024344Y009566D01*
X024331Y009647D01*
X024306Y009725D01*
X024269Y009798D01*
X024221Y009864D01*
X024163Y009922D01*
X024097Y009970D01*
X024024Y010007D01*
X023946Y010032D01*
X023942Y010033D01*
X024107Y010101D01*
X024248Y010242D01*
X024324Y010426D01*
X024324Y010624D01*
X024248Y010808D01*
X024107Y010949D01*
X024074Y010962D01*
X024107Y010976D01*
X024248Y011117D01*
X024324Y011301D01*
X024324Y011499D01*
X024248Y011683D01*
X024107Y011824D01*
X023942Y011892D01*
X023946Y011893D01*
X024024Y011918D01*
X024097Y011955D01*
X024163Y012003D01*
X024221Y012061D01*
X024269Y012127D01*
X024306Y012200D01*
X024331Y012278D01*
X024344Y012359D01*
X024344Y012400D01*
X024344Y012441D01*
X024331Y012522D01*
X024306Y012600D01*
X024269Y012673D01*
X024221Y012739D01*
X024163Y012797D01*
X024097Y012845D01*
X024024Y012882D01*
X023968Y012900D01*
X024024Y012918D01*
X024097Y012955D01*
X024163Y013003D01*
X024221Y013061D01*
X024269Y013127D01*
X024306Y013200D01*
X024331Y013278D01*
X024344Y013359D01*
X024344Y013400D01*
X024344Y013441D01*
X024331Y013522D01*
X024306Y013600D01*
X024269Y013673D01*
X024221Y013739D01*
X024163Y013797D01*
X024097Y013845D01*
X024024Y013882D01*
X023946Y013907D01*
X023942Y013908D01*
X024107Y013976D01*
X024248Y014117D01*
X024324Y014301D01*
X024324Y014499D01*
X024248Y014683D01*
X024107Y014824D01*
X024074Y014837D01*
X024107Y014851D01*
X024248Y014992D01*
X024324Y015176D01*
X024324Y015374D01*
X024248Y015558D01*
X024107Y015699D01*
X023942Y015767D01*
X023946Y015768D01*
X024024Y015793D01*
X024097Y015830D01*
X024163Y015878D01*
X024221Y015936D01*
X024269Y016002D01*
X024306Y016075D01*
X025214Y016075D01*
X025214Y016394D02*
X024332Y016394D01*
X024331Y016397D02*
X024306Y016475D01*
X024269Y016548D01*
X024221Y016614D01*
X024184Y016650D01*
X024221Y016686D01*
X024269Y016752D01*
X024306Y016825D01*
X024331Y016903D01*
X024344Y016984D01*
X024344Y017025D01*
X023824Y017025D01*
X023824Y017025D01*
X023304Y017025D01*
X023304Y017066D01*
X023317Y017147D01*
X023342Y017225D01*
X023379Y017298D01*
X023427Y017364D01*
X023485Y017422D01*
X023552Y017470D01*
X023624Y017507D01*
X023702Y017532D01*
X023706Y017533D01*
X023541Y017601D01*
X023400Y017742D01*
X023324Y017926D01*
X023324Y018124D01*
X023400Y018308D01*
X023541Y018449D01*
X023574Y018462D01*
X023541Y018476D01*
X023400Y018617D01*
X023324Y018801D01*
X023324Y018999D01*
X023400Y019183D01*
X023541Y019324D01*
X023706Y019392D01*
X023702Y019393D01*
X023624Y019418D01*
X023552Y019455D01*
X023485Y019503D01*
X023427Y019561D01*
X023379Y019627D01*
X023342Y019700D01*
X023318Y019775D01*
X021199Y019775D01*
X021199Y023591D01*
X020949Y023488D01*
X020636Y023488D01*
X020346Y023607D01*
X020125Y023829D01*
X020005Y024118D01*
X020005Y024432D01*
X020125Y024721D01*
X020346Y024943D01*
X020636Y025062D01*
X020949Y025062D01*
X021199Y024959D01*
X021199Y025400D01*
X016824Y025400D01*
X016824Y025011D01*
X016949Y025062D01*
X017262Y025062D01*
X017552Y024943D01*
X017773Y024721D01*
X017893Y024432D01*
X017893Y024118D01*
X017773Y023829D01*
X017552Y023607D01*
X017262Y023488D01*
X016949Y023488D01*
X016824Y023539D01*
X016824Y017511D01*
X016949Y017562D01*
X017262Y017562D01*
X017552Y017443D01*
X017773Y017221D01*
X017893Y016932D01*
X017893Y016618D01*
X017773Y016329D01*
X017552Y016107D01*
X017262Y015988D01*
X016995Y015988D01*
X017079Y015904D01*
X017147Y015739D01*
X017147Y015561D01*
X017079Y015396D01*
X016953Y015270D01*
X016788Y015202D01*
X016610Y015202D01*
X016445Y015270D01*
X016319Y015396D01*
X016266Y015525D01*
X015083Y015525D01*
X015078Y015520D01*
X014913Y015452D01*
X014735Y015452D01*
X014570Y015520D01*
X014565Y015525D01*
X011199Y015525D01*
X011199Y016091D01*
X010949Y015988D01*
X010636Y015988D01*
X010346Y016107D01*
X010125Y016329D01*
X010005Y016618D01*
X010005Y016770D01*
X009954Y016646D01*
X009828Y016520D01*
X009746Y016486D01*
X009829Y016404D01*
X009897Y016239D01*
X009897Y016061D01*
X009829Y015896D01*
X009703Y015770D01*
X009538Y015702D01*
X009360Y015702D01*
X009201Y015768D01*
X009078Y015645D01*
X008913Y015577D01*
X008772Y015577D01*
X008772Y015561D01*
X008704Y015396D01*
X008578Y015270D01*
X008413Y015202D01*
X008235Y015202D01*
X008070Y015270D01*
X007944Y015396D01*
X007876Y015561D01*
X007876Y015739D01*
X007944Y015904D01*
X008070Y016030D01*
X008235Y016098D01*
X008376Y016098D01*
X008376Y016114D01*
X008444Y016279D01*
X008570Y016405D01*
X008735Y016473D01*
X008913Y016473D01*
X009072Y016407D01*
X009195Y016530D01*
X009277Y016564D01*
X009194Y016646D01*
X009126Y016811D01*
X009126Y016989D01*
X009194Y017154D01*
X009320Y017280D01*
X009485Y017348D01*
X009663Y017348D01*
X009828Y017280D01*
X009954Y017154D01*
X010022Y016989D01*
X010022Y016973D01*
X010125Y017221D01*
X010346Y017443D01*
X010636Y017562D01*
X010949Y017562D01*
X011199Y017459D01*
X011199Y020275D01*
X010449Y020275D01*
X010449Y021139D01*
X010437Y021111D01*
X010270Y020943D01*
X010052Y020853D01*
X009815Y020853D01*
X009597Y020943D01*
X009441Y021099D01*
X009286Y020943D01*
X009177Y020898D01*
X009357Y020824D01*
X009498Y020683D01*
X009574Y020499D01*
X009574Y020301D01*
X009498Y020117D01*
X009357Y019976D01*
X009174Y019900D01*
X008975Y019900D01*
X008791Y019976D01*
X008650Y020117D01*
X008582Y020282D01*
X008581Y020278D01*
X008556Y020200D01*
X008519Y020127D01*
X008471Y020061D01*
X008413Y020003D01*
X008347Y019955D01*
X008274Y019918D01*
X008196Y019893D01*
X008115Y019880D01*
X008074Y019880D01*
X008074Y020400D01*
X007554Y020400D01*
X007554Y020359D01*
X007567Y020278D01*
X007592Y020200D01*
X007629Y020127D01*
X007677Y020061D01*
X007735Y020003D01*
X007802Y019955D01*
X007874Y019918D01*
X007952Y019893D01*
X008033Y019880D01*
X008074Y019880D01*
X008074Y020400D01*
X008074Y020400D01*
X007554Y020400D01*
X007554Y020441D01*
X007567Y020522D01*
X007592Y020600D01*
X007629Y020673D01*
X007677Y020739D01*
X007735Y020797D01*
X007802Y020845D01*
X007813Y020851D01*
X007729Y020878D01*
X007643Y020922D01*
X007565Y020979D01*
X007496Y021047D01*
X007439Y021125D01*
X007395Y021211D01*
X007366Y021303D01*
X007350Y021399D01*
X007350Y021447D01*
X007965Y021447D01*
X007965Y021447D01*
X007965Y021447D01*
X007965Y022062D01*
X008013Y022062D01*
X008109Y022046D01*
X008201Y022017D01*
X008287Y021973D01*
X008365Y021916D01*
X008433Y021847D01*
X008465Y021804D01*
X008612Y021951D01*
X008831Y022042D01*
X009067Y022042D01*
X009286Y021951D01*
X009441Y021796D01*
X009597Y021951D01*
X009815Y022042D01*
X010052Y022042D01*
X010270Y021951D01*
X010437Y021784D01*
X010449Y021755D01*
X010449Y023690D01*
X010346Y023732D01*
X010125Y023954D01*
X010005Y024243D01*
X010005Y024557D01*
X010125Y024846D01*
X010346Y025068D01*
X010449Y025110D01*
X010449Y026650D01*
X005838Y026650D01*
X005907Y026581D01*
X005989Y026382D01*
X005989Y026168D01*
X005907Y025969D01*
X005755Y025817D01*
X005653Y025775D01*
X005755Y025733D01*
X005907Y025581D01*
X005989Y025382D01*
X005989Y025168D01*
X005907Y024969D01*
X005755Y024817D01*
X005653Y024775D01*
X005755Y024733D01*
X005907Y024581D01*
X005989Y024382D01*
X005989Y024168D01*
X005907Y023969D01*
X005755Y023817D01*
X005653Y023775D01*
X005755Y023733D01*
X005907Y023581D01*
X005989Y023382D01*
X005989Y023168D01*
X005907Y022969D01*
X005755Y022817D01*
X005653Y022775D01*
X005755Y022733D01*
X005907Y022581D01*
X005989Y022382D01*
X005989Y022168D01*
X005907Y021969D01*
X005755Y021817D01*
X005653Y021775D01*
X005755Y021733D01*
X005907Y021581D01*
X005989Y021382D01*
X005989Y021168D01*
X005907Y020969D01*
X005755Y020817D01*
X005653Y020775D01*
X005755Y020733D01*
X005907Y020581D01*
X005989Y020382D01*
X005989Y020168D01*
X005907Y019969D01*
X005755Y019817D01*
X005653Y019775D01*
X005755Y019733D01*
X005907Y019581D01*
X005989Y019382D01*
X005989Y019168D01*
X005907Y018969D01*
X005755Y018817D01*
X005653Y018775D01*
X005755Y018733D01*
X005787Y018701D01*
X005819Y018779D01*
X005945Y018905D01*
X006110Y018973D01*
X006288Y018973D01*
X006453Y018905D01*
X006579Y018779D01*
X006647Y018614D01*
X006647Y018436D01*
X006579Y018271D01*
X006453Y018145D01*
X006288Y018077D01*
X006110Y018077D01*
X005975Y018133D01*
X005907Y017969D01*
X005755Y017817D01*
X005680Y017786D01*
X005743Y017754D01*
X005814Y017702D01*
X005876Y017640D01*
X005928Y017569D01*
X005968Y017490D01*
X005995Y017406D01*
X006009Y017319D01*
X006009Y017275D01*
X005449Y017275D01*
X006009Y017275D01*
X006009Y017231D01*
X005995Y017144D01*
X005968Y017060D01*
X005928Y016981D01*
X005876Y016910D01*
X005814Y016848D01*
X005743Y016796D01*
X005680Y016764D01*
X005755Y016733D01*
X005907Y016581D01*
X005989Y016382D01*
X005989Y016168D01*
X005907Y015969D01*
X005755Y015817D01*
X005653Y015775D01*
X005755Y015733D01*
X005907Y015581D01*
X005989Y015382D01*
X005989Y015221D01*
X006025Y015308D01*
X006166Y015449D01*
X006350Y015525D01*
X006549Y015525D01*
X006732Y015449D01*
X006873Y015308D01*
X006949Y015124D01*
X006949Y014926D01*
X006873Y014742D01*
X006732Y014601D01*
X006549Y014525D01*
X006350Y014525D01*
X006166Y014601D01*
X006025Y014742D01*
X005949Y014926D01*
X005949Y015071D01*
X005907Y014969D01*
X005755Y014817D01*
X005653Y014775D01*
X005755Y014733D01*
X005907Y014581D01*
X005989Y014382D01*
X005989Y014168D01*
X005907Y013969D01*
X005755Y013817D01*
X005653Y013775D01*
X005755Y013733D01*
X005876Y013612D01*
X005876Y013739D01*
X005944Y013904D01*
X006070Y014030D01*
X006235Y014098D01*
X006413Y014098D01*
X006578Y014030D01*
X006704Y013904D01*
X006772Y013739D01*
X006772Y013561D01*
X006704Y013396D01*
X006578Y013270D01*
X006413Y013202D01*
X006235Y013202D01*
X006070Y013270D01*
X005989Y013351D01*
X005989Y013168D01*
X005907Y012969D01*
X005755Y012817D01*
X005653Y012775D01*
X005755Y012733D01*
X005907Y012581D01*
X005989Y012382D01*
X005989Y012221D01*
X006025Y012308D01*
X006166Y012449D01*
X006350Y012525D01*
X006549Y012525D01*
X006732Y012449D01*
X006873Y012308D01*
X006949Y012124D01*
X006949Y011926D01*
X006873Y011742D01*
X006732Y011601D01*
X006549Y011525D01*
X006350Y011525D01*
X006166Y011601D01*
X006025Y011742D01*
X005949Y011926D01*
X005949Y012071D01*
X005907Y011969D01*
X005755Y011817D01*
X005556Y011735D01*
X005342Y011735D01*
X005143Y011817D01*
X004991Y011969D01*
X004949Y012071D01*
X004907Y011969D01*
X004755Y011817D01*
X004556Y011735D01*
X004342Y011735D01*
X004143Y011817D01*
X003991Y011969D01*
X003949Y012071D01*
X003907Y011969D01*
X003755Y011817D01*
X003556Y011735D01*
X003342Y011735D01*
X003143Y011817D01*
X002991Y011969D01*
X002949Y012071D01*
X002907Y011969D01*
X002755Y011817D01*
X002556Y011735D01*
X002342Y011735D01*
X002143Y011817D01*
X001991Y011969D01*
X001909Y012168D01*
X001909Y012382D01*
X001991Y012581D01*
X002143Y012733D01*
X002245Y012775D01*
X002143Y012817D01*
X001991Y012969D01*
X001909Y013168D01*
X001909Y013382D01*
X001991Y013581D01*
X002143Y013733D01*
X002245Y013775D01*
X002143Y013817D01*
X001991Y013969D01*
X001909Y014168D01*
X001909Y014382D01*
X001991Y014581D01*
X002143Y014733D01*
X002245Y014775D01*
X002143Y014817D01*
X001991Y014969D01*
X001909Y015168D01*
X001909Y015382D01*
X001991Y015581D01*
X002143Y015733D01*
X002245Y015775D01*
X002143Y015817D01*
X001991Y015969D01*
X001909Y016168D01*
X001909Y016382D01*
X001991Y016581D01*
X002143Y016733D01*
X002245Y016775D01*
X002143Y016817D01*
X001991Y016969D01*
X001909Y017168D01*
X001909Y017382D01*
X001991Y017581D01*
X002143Y017733D01*
X002245Y017775D01*
X002143Y017817D01*
X001991Y017969D01*
X001909Y018168D01*
X001909Y018382D01*
X001991Y018581D01*
X002143Y018733D01*
X002245Y018775D01*
X002143Y018817D01*
X001991Y018969D01*
X001909Y019168D01*
X001909Y019382D01*
X001991Y019581D01*
X002143Y019733D01*
X002245Y019775D01*
X002143Y019817D01*
X001991Y019969D01*
X001909Y020168D01*
X001909Y020382D01*
X001991Y020581D01*
X002143Y020733D01*
X002245Y020775D01*
X002143Y020817D01*
X001991Y020969D01*
X001909Y021168D01*
X001909Y021382D01*
X001991Y021581D01*
X002143Y021733D01*
X002245Y021775D01*
X002143Y021817D01*
X001991Y021969D01*
X001909Y022168D01*
X001909Y022382D01*
X001991Y022581D01*
X002143Y022733D01*
X002245Y022775D01*
X002143Y022817D01*
X001991Y022969D01*
X001909Y023168D01*
X001909Y023382D01*
X001991Y023581D01*
X002143Y023733D01*
X002245Y023775D01*
X002143Y023817D01*
X001991Y023969D01*
X001909Y024168D01*
X001909Y024382D01*
X001991Y024581D01*
X002143Y024733D01*
X002245Y024775D01*
X002143Y024817D01*
X001991Y024969D01*
X001909Y025168D01*
X001909Y025382D01*
X001991Y025581D01*
X002143Y025733D01*
X002245Y025775D01*
X002143Y025817D01*
X001991Y025969D01*
X001909Y026168D01*
X001909Y026382D01*
X001991Y026581D01*
X002060Y026650D01*
X001309Y026650D01*
X001309Y010931D01*
X001377Y010999D01*
X001596Y011090D01*
X001833Y011090D01*
X002053Y010999D01*
X002207Y010845D01*
X002361Y010999D01*
X002580Y011090D01*
X002818Y011090D01*
X003037Y010999D01*
X003205Y010831D01*
X003295Y010612D01*
X003295Y010375D01*
X003205Y010156D01*
X003037Y009988D01*
X002818Y009897D01*
X002580Y009897D01*
X002361Y009988D01*
X002207Y010142D01*
X002053Y009988D01*
X001833Y009897D01*
X001596Y009897D01*
X001377Y009988D01*
X001309Y010056D01*
X001309Y006994D01*
X001377Y007062D01*
X001596Y007153D01*
X001833Y007153D01*
X002053Y007062D01*
X002207Y006908D01*
X002361Y007062D01*
X002580Y007153D01*
X002818Y007153D01*
X003037Y007062D01*
X003205Y006894D01*
X003295Y006675D01*
X003295Y006438D01*
X003205Y006219D01*
X003037Y006051D01*
X002818Y005960D01*
X002580Y005960D01*
X002361Y006051D01*
X002207Y006205D01*
X002053Y006051D01*
X001833Y005960D01*
X001596Y005960D01*
X001377Y006051D01*
X001309Y006119D01*
X001309Y005431D01*
X001377Y005499D01*
X001596Y005590D01*
X001833Y005590D01*
X002053Y005499D01*
X002207Y005345D01*
X002361Y005499D01*
X002580Y005590D01*
X002818Y005590D01*
X003037Y005499D01*
X003205Y005331D01*
X003295Y005112D01*
X003295Y004875D01*
X003205Y004656D01*
X003037Y004488D01*
X002818Y004397D01*
X002580Y004397D01*
X002361Y004488D01*
X002207Y004642D01*
X002053Y004488D01*
X001833Y004397D01*
X001596Y004397D01*
X001377Y004488D01*
X001309Y004556D01*
X001309Y004291D02*
X004109Y004291D01*
X004170Y004609D02*
X003158Y004609D01*
X003295Y004928D02*
X004044Y004928D01*
X004097Y005246D02*
X003240Y005246D01*
X002879Y005565D02*
X004416Y005565D01*
X004543Y005933D02*
X004314Y006028D01*
X004139Y006203D01*
X004044Y006432D01*
X004044Y006681D01*
X004139Y006910D01*
X004277Y007049D01*
X004139Y007187D01*
X004044Y007417D01*
X004044Y007665D01*
X004139Y007894D01*
X004297Y008052D01*
X004162Y008187D01*
X004071Y008406D01*
X004071Y008644D01*
X004162Y008863D01*
X004297Y008998D01*
X004139Y009156D01*
X004044Y009385D01*
X004044Y009633D01*
X004139Y009863D01*
X004277Y010001D01*
X004139Y010140D01*
X004044Y010369D01*
X004044Y010618D01*
X004139Y010847D01*
X004314Y011022D01*
X004543Y011117D01*
X004792Y011117D01*
X005021Y011022D01*
X005196Y010847D01*
X005291Y010618D01*
X005291Y010369D01*
X005196Y010140D01*
X005058Y010001D01*
X005196Y009863D01*
X005291Y009633D01*
X005291Y009385D01*
X005196Y009156D01*
X005038Y008998D01*
X005173Y008863D01*
X005264Y008644D01*
X005264Y008406D01*
X005173Y008187D01*
X005038Y008052D01*
X005196Y007894D01*
X005291Y007665D01*
X005291Y007417D01*
X005196Y007187D01*
X005058Y007049D01*
X005196Y006910D01*
X005291Y006681D01*
X005291Y006432D01*
X005196Y006203D01*
X005021Y006028D01*
X004792Y005933D01*
X004543Y005933D01*
X004919Y005565D02*
X007456Y005565D01*
X007467Y005600D02*
X007442Y005522D01*
X007429Y005441D01*
X007429Y005400D01*
X007429Y005359D01*
X007442Y005278D01*
X007467Y005200D01*
X007504Y005127D01*
X007552Y005061D01*
X007610Y005003D01*
X007677Y004955D01*
X007749Y004918D01*
X007827Y004893D01*
X007908Y004880D01*
X007949Y004880D01*
X007949Y005400D01*
X007429Y005400D01*
X007949Y005400D01*
X007949Y005400D01*
X007949Y005400D01*
X007949Y004880D01*
X007990Y004880D01*
X008071Y004893D01*
X008149Y004918D01*
X008222Y004955D01*
X008288Y005003D01*
X008346Y005061D01*
X008394Y005127D01*
X008431Y005200D01*
X008456Y005278D01*
X008457Y005282D01*
X008525Y005117D01*
X008666Y004976D01*
X008850Y004900D01*
X009049Y004900D01*
X009232Y004976D01*
X009373Y005117D01*
X009449Y005301D01*
X009449Y005499D01*
X009373Y005683D01*
X009252Y005804D01*
X009286Y005818D01*
X009441Y005974D01*
X009597Y005818D01*
X009815Y005728D01*
X010052Y005728D01*
X010270Y005818D01*
X010437Y005986D01*
X010528Y006204D01*
X010528Y006440D01*
X010437Y006659D01*
X010270Y006826D01*
X010052Y006917D01*
X009815Y006917D01*
X009597Y006826D01*
X009441Y006671D01*
X009286Y006826D01*
X009067Y006917D01*
X008831Y006917D01*
X008612Y006826D01*
X008465Y006679D01*
X008433Y006722D01*
X008365Y006791D01*
X008287Y006848D01*
X008201Y006892D01*
X008109Y006921D01*
X008013Y006937D01*
X007965Y006937D01*
X007965Y006322D01*
X007350Y006322D01*
X007350Y006274D01*
X007366Y006178D01*
X007395Y006086D01*
X007439Y006000D01*
X007496Y005922D01*
X007565Y005854D01*
X007627Y005809D01*
X007610Y005797D01*
X007552Y005739D01*
X007504Y005673D01*
X007467Y005600D01*
X007535Y005883D02*
X001309Y005883D01*
X001309Y005565D02*
X001535Y005565D01*
X001894Y005565D02*
X002520Y005565D01*
X002211Y006202D02*
X002203Y006202D01*
X003187Y006202D02*
X004140Y006202D01*
X004044Y006520D02*
X003295Y006520D01*
X003228Y006839D02*
X004109Y006839D01*
X004169Y007157D02*
X001309Y007157D01*
X001309Y007476D02*
X004044Y007476D01*
X004097Y007794D02*
X001309Y007794D01*
X001309Y008113D02*
X002229Y008113D01*
X002170Y008172D02*
X002346Y007996D01*
X002575Y007901D01*
X002823Y007901D01*
X003052Y007996D01*
X003228Y008172D01*
X003323Y008401D01*
X003323Y008649D01*
X003228Y008878D01*
X003052Y009054D01*
X002823Y009149D01*
X002575Y009149D01*
X002346Y009054D01*
X002170Y008878D01*
X002075Y008649D01*
X002075Y008401D01*
X002170Y008172D01*
X002075Y008431D02*
X001309Y008431D01*
X001309Y008750D02*
X002117Y008750D01*
X002380Y009068D02*
X001309Y009068D01*
X001309Y009387D02*
X004044Y009387D01*
X004073Y009705D02*
X001309Y009705D01*
X001309Y010024D02*
X001342Y010024D01*
X002088Y010024D02*
X002326Y010024D01*
X003072Y010024D02*
X004255Y010024D01*
X004055Y010342D02*
X003282Y010342D01*
X003275Y010661D02*
X004061Y010661D01*
X004271Y010979D02*
X003057Y010979D01*
X002341Y010979D02*
X002072Y010979D01*
X001357Y010979D02*
X001309Y010979D01*
X001309Y011298D02*
X013543Y011298D01*
X013570Y011270D02*
X013735Y011202D01*
X013913Y011202D01*
X014078Y011270D01*
X014204Y011396D01*
X014272Y011561D01*
X014272Y011739D01*
X014204Y011904D01*
X014078Y012030D01*
X013913Y012098D01*
X013735Y012098D01*
X013570Y012030D01*
X013444Y011904D01*
X013376Y011739D01*
X013376Y011561D01*
X013444Y011396D01*
X013570Y011270D01*
X013376Y011616D02*
X006747Y011616D01*
X006949Y011935D02*
X009531Y011935D01*
X009570Y011895D02*
X009735Y011827D01*
X009913Y011827D01*
X010078Y011895D01*
X010204Y012021D01*
X010251Y012135D01*
X010251Y012061D01*
X010319Y011896D01*
X010445Y011770D01*
X010610Y011702D01*
X010788Y011702D01*
X010953Y011770D01*
X011079Y011896D01*
X011147Y012061D01*
X011147Y012239D01*
X011079Y012404D01*
X010953Y012530D01*
X010788Y012598D01*
X010610Y012598D01*
X010445Y012530D01*
X010319Y012404D01*
X010272Y012290D01*
X010272Y012364D01*
X010204Y012529D01*
X010078Y012655D01*
X009913Y012723D01*
X009735Y012723D01*
X009570Y012655D01*
X009444Y012529D01*
X009376Y012364D01*
X009376Y012186D01*
X009444Y012021D01*
X009570Y011895D01*
X009376Y012253D02*
X006896Y012253D01*
X007467Y012575D02*
X007442Y012653D01*
X007429Y012734D01*
X007429Y012775D01*
X007949Y012775D01*
X007949Y012775D01*
X007429Y012775D01*
X007429Y012816D01*
X007442Y012897D01*
X007467Y012975D01*
X007504Y013048D01*
X007552Y013114D01*
X007610Y013172D01*
X007677Y013220D01*
X007737Y013250D01*
X007729Y013253D01*
X007643Y013297D01*
X007565Y013354D01*
X007496Y013422D01*
X007439Y013500D01*
X007395Y013586D01*
X007366Y013678D01*
X007350Y013774D01*
X007350Y013822D01*
X007965Y013822D01*
X007965Y013822D01*
X007965Y013822D01*
X007965Y014437D01*
X008013Y014437D01*
X008109Y014421D01*
X008201Y014392D01*
X008287Y014348D01*
X008365Y014291D01*
X008433Y014222D01*
X008465Y014179D01*
X008612Y014326D01*
X008831Y014417D01*
X009067Y014417D01*
X009286Y014326D01*
X009441Y014171D01*
X009597Y014326D01*
X009815Y014417D01*
X010052Y014417D01*
X010270Y014326D01*
X010437Y014159D01*
X010493Y014025D01*
X010504Y014048D01*
X010552Y014114D01*
X010610Y014172D01*
X010677Y014220D01*
X010749Y014257D01*
X010827Y014282D01*
X010908Y014295D01*
X010949Y014295D01*
X010949Y013775D01*
X010949Y013775D01*
X010949Y013255D01*
X010908Y013255D01*
X010827Y013268D01*
X010749Y013293D01*
X010677Y013330D01*
X010610Y013378D01*
X010552Y013436D01*
X010504Y013502D01*
X010471Y013568D01*
X010437Y013486D01*
X010270Y013318D01*
X010052Y013228D01*
X009815Y013228D01*
X009597Y013318D01*
X009441Y013474D01*
X009286Y013318D01*
X009115Y013248D01*
X009232Y013199D01*
X009373Y013058D01*
X009449Y012874D01*
X009449Y012676D01*
X009373Y012492D01*
X009232Y012351D01*
X009049Y012275D01*
X008850Y012275D01*
X008666Y012351D01*
X008525Y012492D01*
X008457Y012657D01*
X008456Y012653D01*
X008431Y012575D01*
X008394Y012502D01*
X008346Y012436D01*
X008288Y012378D01*
X008222Y012330D01*
X008149Y012293D01*
X008071Y012268D01*
X007990Y012255D01*
X007949Y012255D01*
X007949Y012775D01*
X007949Y012775D01*
X007949Y012255D01*
X007908Y012255D01*
X007827Y012268D01*
X007749Y012293D01*
X007677Y012330D01*
X007610Y012378D01*
X007552Y012436D01*
X007504Y012502D01*
X007467Y012575D01*
X007469Y012572D02*
X005911Y012572D01*
X005989Y012253D02*
X006002Y012253D01*
X005949Y011935D02*
X005872Y011935D01*
X006151Y011616D02*
X001309Y011616D01*
X001309Y011935D02*
X002026Y011935D01*
X001909Y012253D02*
X001309Y012253D01*
X001309Y012572D02*
X001987Y012572D01*
X002070Y012890D02*
X001309Y012890D01*
X001309Y013209D02*
X001909Y013209D01*
X001969Y013527D02*
X001309Y013527D01*
X001309Y013846D02*
X002115Y013846D01*
X001911Y014164D02*
X001309Y014164D01*
X001309Y014483D02*
X001951Y014483D01*
X002182Y014801D02*
X001309Y014801D01*
X001309Y015120D02*
X001929Y015120D01*
X001932Y015438D02*
X001309Y015438D01*
X001309Y015757D02*
X002200Y015757D01*
X001947Y016075D02*
X001309Y016075D01*
X001309Y016394D02*
X001914Y016394D01*
X002122Y016712D02*
X001309Y016712D01*
X001309Y017031D02*
X001966Y017031D01*
X001909Y017349D02*
X001309Y017349D01*
X001309Y017668D02*
X002078Y017668D01*
X001984Y017986D02*
X001309Y017986D01*
X001309Y018305D02*
X001909Y018305D01*
X002033Y018623D02*
X001309Y018623D01*
X001309Y018942D02*
X002019Y018942D01*
X001909Y019260D02*
X001309Y019260D01*
X001309Y019579D02*
X001990Y019579D01*
X002063Y019897D02*
X001309Y019897D01*
X001309Y020216D02*
X001909Y020216D01*
X001972Y020534D02*
X001309Y020534D01*
X001309Y020853D02*
X002108Y020853D01*
X001909Y021171D02*
X001309Y021171D01*
X001309Y021490D02*
X001953Y021490D01*
X002165Y021808D02*
X001309Y021808D01*
X001309Y022127D02*
X001926Y022127D01*
X001935Y022445D02*
X001309Y022445D01*
X001309Y022764D02*
X002217Y022764D01*
X001944Y023082D02*
X001309Y023082D01*
X001309Y023401D02*
X001917Y023401D01*
X002129Y023719D02*
X001309Y023719D01*
X001309Y024038D02*
X001963Y024038D01*
X001909Y024356D02*
X001309Y024356D01*
X001309Y024675D02*
X002085Y024675D01*
X001981Y024993D02*
X001309Y024993D01*
X001309Y025312D02*
X001909Y025312D01*
X002040Y025630D02*
X001309Y025630D01*
X001309Y025949D02*
X002012Y025949D01*
X001909Y026267D02*
X001309Y026267D01*
X001309Y026586D02*
X001996Y026586D01*
X001309Y027400D02*
X001309Y033540D01*
X009372Y033540D01*
X009318Y033518D01*
X009166Y033366D01*
X009084Y033167D01*
X009084Y032953D01*
X009166Y032754D01*
X009318Y032602D01*
X009517Y032520D01*
X009731Y032520D01*
X009930Y032602D01*
X010082Y032754D01*
X010113Y032829D01*
X010145Y032766D01*
X010197Y032695D01*
X010259Y032633D01*
X010331Y032581D01*
X010409Y032541D01*
X010493Y032514D01*
X010580Y032500D01*
X010624Y032500D01*
X010624Y033060D01*
X010624Y033060D01*
X010624Y032500D01*
X010668Y032500D01*
X010755Y032514D01*
X010839Y032541D01*
X010918Y032581D01*
X010989Y032633D01*
X011051Y032695D01*
X011103Y032766D01*
X011135Y032829D01*
X011166Y032754D01*
X011318Y032602D01*
X011517Y032520D01*
X011731Y032520D01*
X011930Y032602D01*
X012082Y032754D01*
X012124Y032856D01*
X012166Y032754D01*
X012318Y032602D01*
X012517Y032520D01*
X012731Y032520D01*
X012930Y032602D01*
X013082Y032754D01*
X013164Y032953D01*
X013164Y033167D01*
X013082Y033366D01*
X012930Y033518D01*
X012876Y033540D01*
X013482Y033540D01*
X013420Y033478D01*
X013344Y033294D01*
X013344Y033096D01*
X013420Y032912D01*
X013561Y032771D01*
X013745Y032695D01*
X013944Y032695D01*
X014127Y032771D01*
X014268Y032912D01*
X014344Y033096D01*
X014420Y032912D01*
X014561Y032771D01*
X014745Y032695D01*
X014944Y032695D01*
X015127Y032771D01*
X015256Y032900D01*
X015270Y032867D01*
X015411Y032726D01*
X015595Y032650D01*
X015794Y032650D01*
X015977Y032726D01*
X016118Y032867D01*
X016186Y033032D01*
X016187Y033028D01*
X016212Y032950D01*
X016249Y032877D01*
X016297Y032811D01*
X016355Y032753D01*
X016422Y032705D01*
X016494Y032668D01*
X016572Y032643D01*
X016653Y032630D01*
X016694Y032630D01*
X016694Y033150D01*
X016694Y033150D01*
X016694Y032630D01*
X016735Y032630D01*
X016816Y032643D01*
X016894Y032668D01*
X016967Y032705D01*
X017033Y032753D01*
X017072Y032792D01*
X017110Y032753D01*
X017177Y032705D01*
X017249Y032668D01*
X017327Y032643D01*
X017408Y032630D01*
X017449Y032630D01*
X017449Y033150D01*
X017214Y033150D01*
X016694Y033150D01*
X017449Y033150D01*
X017449Y033150D01*
X017449Y033150D01*
X017449Y032630D01*
X017490Y032630D01*
X017571Y032643D01*
X017649Y032668D01*
X017722Y032705D01*
X017788Y032753D01*
X017846Y032811D01*
X017894Y032877D01*
X017931Y032950D01*
X017956Y033028D01*
X017957Y033032D01*
X018025Y032867D01*
X018166Y032726D01*
X018350Y032650D01*
X018549Y032650D01*
X018732Y032726D01*
X018873Y032867D01*
X018881Y032886D01*
X018916Y032851D01*
X019100Y032775D01*
X018916Y032699D01*
X018775Y032558D01*
X018699Y032374D01*
X018699Y032176D01*
X018775Y031992D01*
X018916Y031851D01*
X019100Y031775D01*
X019299Y031775D01*
X019482Y031851D01*
X019623Y031992D01*
X019699Y032176D01*
X019699Y032374D01*
X019623Y032558D01*
X019482Y032699D01*
X019299Y032775D01*
X019100Y032775D01*
X019299Y032775D01*
X019482Y032851D01*
X019623Y032992D01*
X019699Y033176D01*
X019699Y033374D01*
X019630Y033540D01*
X025214Y033540D01*
X025214Y030652D01*
X025035Y030727D01*
X024787Y030727D01*
X024557Y030632D01*
X024382Y030456D01*
X024287Y030227D01*
X024287Y029979D01*
X024382Y029749D01*
X024557Y029574D01*
X024787Y029479D01*
X025035Y029479D01*
X025214Y029553D01*
X025214Y028248D01*
X025178Y028319D01*
X025126Y028390D01*
X025064Y028452D01*
X024993Y028504D01*
X024914Y028544D01*
X024830Y028571D01*
X024743Y028585D01*
X024699Y028585D01*
X024655Y028585D01*
X024568Y028571D01*
X024484Y028544D01*
X024406Y028504D01*
X024334Y028452D01*
X024272Y028390D01*
X024220Y028319D01*
X024199Y028277D01*
X024178Y028319D01*
X024126Y028390D01*
X024064Y028452D01*
X023993Y028504D01*
X023916Y028543D01*
X024006Y028581D01*
X024157Y028732D01*
X024239Y028929D01*
X024239Y029143D01*
X024157Y029340D01*
X024006Y029491D01*
X023809Y029573D01*
X023595Y029573D01*
X023398Y029491D01*
X023247Y029340D01*
X023210Y029250D01*
X023173Y029340D01*
X023022Y029491D01*
X022825Y029573D01*
X022611Y029573D01*
X022414Y029491D01*
X022324Y029401D01*
X022234Y029491D01*
X022037Y029573D01*
X021824Y029573D01*
X021626Y029491D01*
X021475Y029340D01*
X021449Y029276D01*
X021422Y029328D01*
X021371Y029399D01*
X021309Y029461D01*
X021238Y029512D01*
X021160Y029552D01*
X021076Y029579D01*
X020990Y029593D01*
X020946Y029593D01*
X020902Y029593D01*
X020816Y029579D01*
X020732Y029552D01*
X020654Y029512D01*
X020583Y029461D01*
X020521Y029399D01*
X020470Y029328D01*
X020430Y029250D01*
X020403Y029166D01*
X020389Y029080D01*
X020389Y029036D01*
X020946Y029036D01*
X020946Y029593D01*
X020946Y029036D01*
X020946Y029036D01*
X020946Y029036D01*
X020389Y029036D01*
X020389Y028992D01*
X020403Y028905D01*
X020430Y028822D01*
X020470Y028744D01*
X020521Y028673D01*
X020583Y028611D01*
X020626Y028580D01*
X020568Y028571D01*
X020484Y028544D01*
X020406Y028504D01*
X020334Y028452D01*
X020272Y028390D01*
X020220Y028319D01*
X020180Y028240D01*
X020153Y028156D01*
X020139Y028069D01*
X020139Y028025D01*
X020139Y027981D01*
X020153Y027894D01*
X020180Y027810D01*
X020220Y027731D01*
X020272Y027660D01*
X020334Y027598D01*
X020406Y027546D01*
X020484Y027506D01*
X020568Y027479D01*
X020655Y027465D01*
X020699Y027465D01*
X020699Y028025D01*
X020139Y028025D01*
X020699Y028025D01*
X020699Y028025D01*
X020699Y028025D01*
X020699Y027465D01*
X020743Y027465D01*
X020830Y027479D01*
X020914Y027506D01*
X020993Y027546D01*
X021064Y027598D01*
X021126Y027660D01*
X021178Y027731D01*
X021199Y027773D01*
X021220Y027731D01*
X021272Y027660D01*
X021334Y027598D01*
X021406Y027546D01*
X021484Y027506D01*
X021568Y027479D01*
X021655Y027465D01*
X021699Y027465D01*
X021699Y028025D01*
X020699Y028025D01*
X021259Y028025D01*
X021699Y028025D01*
X021699Y028025D01*
X021699Y028025D01*
X021699Y027465D01*
X021743Y027465D01*
X021830Y027479D01*
X021914Y027506D01*
X021993Y027546D01*
X022064Y027598D01*
X022126Y027660D01*
X022178Y027731D01*
X022210Y027794D01*
X022241Y027719D01*
X022314Y027647D01*
X022170Y027503D01*
X022075Y027274D01*
X022075Y027026D01*
X022170Y026797D01*
X022346Y026621D01*
X022575Y026526D01*
X022823Y026526D01*
X023052Y026621D01*
X023228Y026797D01*
X023323Y027026D01*
X023323Y027274D01*
X023228Y027503D01*
X023085Y027647D01*
X023157Y027719D01*
X023188Y027794D01*
X023220Y027731D01*
X023272Y027660D01*
X023334Y027598D01*
X023406Y027546D01*
X023484Y027506D01*
X023568Y027479D01*
X023655Y027465D01*
X023699Y027465D01*
X023699Y028025D01*
X023699Y028025D01*
X023699Y027465D01*
X023743Y027465D01*
X023830Y027479D01*
X023914Y027506D01*
X023993Y027546D01*
X024064Y027598D01*
X024126Y027660D01*
X024178Y027731D01*
X024199Y027773D01*
X024220Y027731D01*
X024272Y027660D01*
X024287Y027645D01*
X024274Y027635D01*
X024214Y027575D01*
X024163Y027508D01*
X024120Y027435D01*
X024088Y027357D01*
X024066Y027276D01*
X024055Y027192D01*
X024055Y027150D01*
X024055Y027108D01*
X024066Y027024D01*
X024088Y026943D01*
X024120Y026865D01*
X024163Y026792D01*
X024214Y026725D01*
X024274Y026665D01*
X024341Y026614D01*
X024414Y026571D01*
X024492Y026539D01*
X024573Y026517D01*
X024657Y026506D01*
X024699Y026506D01*
X024699Y027150D01*
X024055Y027150D01*
X024699Y027150D01*
X024699Y027150D01*
X024699Y027150D01*
X024699Y028025D01*
X024139Y028025D01*
X023699Y028025D01*
X024699Y028025D01*
X024699Y028025D01*
X024699Y028585D01*
X024699Y028025D01*
X024699Y028025D01*
X024699Y028025D01*
X024699Y027465D01*
X024699Y027150D01*
X024699Y027150D01*
X024699Y026506D01*
X024741Y026506D01*
X024825Y026517D01*
X024906Y026539D01*
X024984Y026571D01*
X025058Y026614D01*
X025124Y026665D01*
X025184Y026725D01*
X025214Y026764D01*
X025214Y026079D01*
X025202Y026115D01*
X025162Y026194D01*
X025110Y026265D01*
X025048Y026327D01*
X024977Y026379D01*
X024898Y026419D01*
X024814Y026446D01*
X024727Y026460D01*
X024683Y026460D01*
X024639Y026460D01*
X024552Y026446D01*
X024468Y026419D01*
X024390Y026379D01*
X024318Y026327D01*
X024256Y026265D01*
X024204Y026194D01*
X024164Y026115D01*
X024137Y026031D01*
X024123Y025944D01*
X024123Y025900D01*
X024123Y025856D01*
X024137Y025769D01*
X024164Y025685D01*
X024204Y025606D01*
X024256Y025535D01*
X024318Y025473D01*
X024390Y025421D01*
X024468Y025381D01*
X024552Y025354D01*
X024639Y025340D01*
X024683Y025340D01*
X024683Y025900D01*
X024123Y025900D01*
X024683Y025900D01*
X024683Y025900D01*
X024683Y025900D01*
X024683Y026460D01*
X024683Y025900D01*
X024683Y025900D01*
X024683Y025340D01*
X024727Y025340D01*
X024814Y025354D01*
X024898Y025381D01*
X024977Y025421D01*
X025048Y025473D01*
X025110Y025535D01*
X025162Y025606D01*
X025202Y025685D01*
X025214Y025721D01*
X025214Y025036D01*
X025184Y025075D01*
X025124Y025135D01*
X025058Y025186D01*
X024984Y025229D01*
X024906Y025261D01*
X024825Y025283D01*
X024741Y025294D01*
X024699Y025294D01*
X024657Y025294D01*
X024573Y025283D01*
X024492Y025261D01*
X024414Y025229D01*
X024341Y025186D01*
X024274Y025135D01*
X024214Y025075D01*
X024163Y025008D01*
X024120Y024935D01*
X024088Y024857D01*
X024066Y024776D01*
X024055Y024692D01*
X024055Y024650D01*
X024055Y024608D01*
X024066Y024524D01*
X024088Y024443D01*
X024120Y024365D01*
X024163Y024292D01*
X024214Y024225D01*
X024274Y024165D01*
X024293Y024150D01*
X024274Y024135D01*
X024214Y024075D01*
X024163Y024008D01*
X024120Y023935D01*
X024088Y023857D01*
X024066Y023776D01*
X024055Y023692D01*
X024055Y023650D01*
X024055Y023608D01*
X024066Y023524D01*
X024088Y023443D01*
X024120Y023365D01*
X024163Y023292D01*
X024214Y023225D01*
X024274Y023165D01*
X024341Y023114D01*
X024414Y023071D01*
X024492Y023039D01*
X024573Y023017D01*
X024657Y023006D01*
X024699Y023006D01*
X024699Y023650D01*
X024055Y023650D01*
X024699Y023650D01*
X024699Y023650D01*
X024699Y023650D01*
X024699Y024006D01*
X024699Y024650D01*
X024055Y024650D01*
X024699Y024650D01*
X024699Y024650D01*
X024699Y025294D01*
X024699Y024650D01*
X024699Y024650D01*
X024699Y024650D01*
X024699Y023650D01*
X024699Y023650D01*
X024699Y023006D01*
X024741Y023006D01*
X024825Y023017D01*
X024906Y023039D01*
X024984Y023071D01*
X025058Y023114D01*
X025124Y023165D01*
X025184Y023225D01*
X025214Y023264D01*
X025214Y022579D01*
X025202Y022615D01*
X025162Y022694D01*
X025110Y022765D01*
X025048Y022827D01*
X024977Y022879D01*
X024898Y022919D01*
X024814Y022946D01*
X024727Y022960D01*
X024683Y022960D01*
X024639Y022960D01*
X024552Y022946D01*
X024468Y022919D01*
X024390Y022879D01*
X024318Y022827D01*
X024256Y022765D01*
X024204Y022694D01*
X024164Y022615D01*
X024137Y022531D01*
X024123Y022444D01*
X024123Y022400D01*
X024123Y022356D01*
X024137Y022269D01*
X024164Y022185D01*
X024204Y022106D01*
X024256Y022035D01*
X024318Y021973D01*
X024390Y021921D01*
X024468Y021881D01*
X024552Y021854D01*
X024639Y021840D01*
X024683Y021840D01*
X024683Y022400D01*
X024123Y022400D01*
X024683Y022400D01*
X024683Y022400D01*
X024683Y022400D01*
X024683Y022960D01*
X024683Y022400D01*
X024683Y022400D01*
X024683Y021840D01*
X024727Y021840D01*
X024814Y021854D01*
X024898Y021881D01*
X024977Y021921D01*
X025048Y021973D01*
X025110Y022035D01*
X025162Y022106D01*
X025202Y022185D01*
X025214Y022221D01*
X025214Y021536D01*
X025184Y021575D01*
X025124Y021635D01*
X025058Y021686D01*
X024984Y021729D01*
X024906Y021761D01*
X024825Y021783D01*
X024741Y021794D01*
X024699Y021794D01*
X024657Y021794D01*
X024573Y021783D01*
X024492Y021761D01*
X024414Y021729D01*
X024341Y021686D01*
X024274Y021635D01*
X024214Y021575D01*
X024163Y021508D01*
X024120Y021435D01*
X024088Y021357D01*
X024066Y021276D01*
X024055Y021192D01*
X024055Y021150D01*
X024055Y021108D01*
X024066Y021024D01*
X024088Y020943D01*
X024120Y020865D01*
X024163Y020792D01*
X024175Y020775D01*
X023206Y020775D01*
X023228Y020797D01*
X023323Y021026D01*
X023323Y021274D01*
X023228Y021503D01*
X023052Y021679D01*
X022823Y021774D01*
X022575Y021774D01*
X022346Y021679D01*
X022170Y021503D01*
X022075Y021274D01*
X022075Y021026D01*
X022170Y020797D01*
X022192Y020775D01*
X021949Y020775D01*
X021949Y026150D01*
X016199Y026150D01*
X016199Y016275D01*
X015805Y016275D01*
X015887Y016357D01*
X015966Y016547D01*
X015966Y016753D01*
X015887Y016943D01*
X015742Y017088D01*
X015552Y017167D01*
X015346Y017167D01*
X015156Y017088D01*
X015011Y016943D01*
X014932Y016753D01*
X014932Y016547D01*
X015011Y016357D01*
X015093Y016275D01*
X015083Y016275D01*
X015078Y016280D01*
X014913Y016348D01*
X014735Y016348D01*
X014570Y016280D01*
X014565Y016275D01*
X012805Y016275D01*
X012887Y016357D01*
X012966Y016547D01*
X012966Y016753D01*
X012887Y016943D01*
X012742Y017088D01*
X012552Y017167D01*
X012346Y017167D01*
X012156Y017088D01*
X012011Y016943D01*
X011932Y016753D01*
X011932Y016547D01*
X012011Y016357D01*
X012093Y016275D01*
X011824Y016275D01*
X011824Y021025D01*
X011199Y021025D01*
X011199Y021943D01*
X011291Y021851D01*
X011475Y021775D01*
X011674Y021775D01*
X011857Y021851D01*
X011998Y021992D01*
X012074Y022176D01*
X012074Y022374D01*
X011998Y022558D01*
X011857Y022699D01*
X011674Y022775D01*
X011475Y022775D01*
X011291Y022699D01*
X011199Y022607D01*
X011199Y022837D01*
X011350Y022775D01*
X011549Y022775D01*
X011732Y022851D01*
X011873Y022992D01*
X011949Y023176D01*
X011949Y023374D01*
X011873Y023558D01*
X011732Y023699D01*
X011549Y023775D01*
X011350Y023775D01*
X011199Y023713D01*
X011199Y023716D01*
X011239Y023732D01*
X011460Y023954D01*
X011580Y024243D01*
X011580Y024536D01*
X011650Y024367D01*
X011791Y024226D01*
X011975Y024150D01*
X012174Y024150D01*
X012357Y024226D01*
X012498Y024367D01*
X012566Y024532D01*
X012567Y024528D01*
X012592Y024450D01*
X012629Y024377D01*
X012677Y024311D01*
X012735Y024253D01*
X012802Y024205D01*
X012874Y024168D01*
X012952Y024143D01*
X013033Y024130D01*
X013074Y024130D01*
X013074Y024650D01*
X013074Y025170D01*
X013033Y025170D01*
X012952Y025157D01*
X012874Y025132D01*
X012802Y025095D01*
X012735Y025047D01*
X012677Y024989D01*
X012629Y024923D01*
X012592Y024850D01*
X012567Y024772D01*
X012566Y024768D01*
X012498Y024933D01*
X012357Y025074D01*
X012174Y025150D01*
X011975Y025150D01*
X011791Y025074D01*
X011650Y024933D01*
X011574Y024749D01*
X011574Y024571D01*
X011460Y024846D01*
X011239Y025068D01*
X011199Y025084D01*
X011199Y025693D01*
X011291Y025601D01*
X011475Y025525D01*
X011674Y025525D01*
X011857Y025601D01*
X011998Y025742D01*
X012074Y025926D01*
X012074Y026124D01*
X011998Y026308D01*
X011857Y026449D01*
X011674Y026525D01*
X011857Y026601D01*
X011998Y026742D01*
X012074Y026926D01*
X012074Y027124D01*
X011998Y027308D01*
X011857Y027449D01*
X011674Y027525D01*
X011475Y027525D01*
X011291Y027449D01*
X011199Y027357D01*
X011199Y027400D01*
X008507Y027400D01*
X008522Y027436D01*
X008522Y027614D01*
X008454Y027779D01*
X008328Y027905D01*
X008163Y027973D01*
X007985Y027973D01*
X007820Y027905D01*
X007694Y027779D01*
X007626Y027614D01*
X007626Y027436D01*
X007641Y027400D01*
X005940Y027400D01*
X005941Y027402D01*
X005941Y027697D01*
X005828Y027970D01*
X005619Y028179D01*
X005347Y028292D01*
X005051Y028292D01*
X004779Y028179D01*
X004570Y027970D01*
X004457Y027697D01*
X004457Y027402D01*
X004458Y027400D01*
X001309Y027400D01*
X001309Y027541D02*
X004457Y027541D01*
X004524Y027860D02*
X001309Y027860D01*
X001309Y028178D02*
X004778Y028178D01*
X004442Y028765D02*
X004356Y028715D01*
X004263Y028677D01*
X004167Y028651D01*
X004068Y028638D01*
X004025Y028638D01*
X004025Y029393D01*
X004025Y029407D01*
X004780Y029407D01*
X004780Y029450D01*
X004767Y029549D01*
X004741Y029645D01*
X004703Y029738D01*
X004653Y029824D01*
X004592Y029903D01*
X004521Y029974D01*
X004442Y030035D01*
X004356Y030085D01*
X004263Y030123D01*
X004167Y030149D01*
X004068Y030162D01*
X004025Y030162D01*
X004025Y029407D01*
X004011Y029407D01*
X004011Y029393D01*
X004025Y029393D01*
X004780Y029393D01*
X004780Y029350D01*
X004767Y029251D01*
X004741Y029155D01*
X004703Y029062D01*
X004653Y028976D01*
X004592Y028897D01*
X004521Y028826D01*
X004442Y028765D01*
X004507Y028815D02*
X005916Y028815D01*
X005960Y028771D02*
X006233Y028658D01*
X006528Y028658D01*
X006800Y028771D01*
X007009Y028980D01*
X007122Y029252D01*
X007122Y029548D01*
X007011Y029815D01*
X007026Y029801D01*
X007084Y029758D01*
X007148Y029725D01*
X007217Y029703D01*
X007288Y029692D01*
X007324Y029692D01*
X007324Y030150D01*
X006866Y030150D01*
X006866Y030114D01*
X006877Y030043D01*
X006900Y029974D01*
X006932Y029910D01*
X006966Y029864D01*
X006800Y030029D01*
X006528Y030142D01*
X006233Y030142D01*
X005960Y030029D01*
X005751Y029820D01*
X005638Y029548D01*
X005638Y029252D01*
X005751Y028980D01*
X005960Y028771D01*
X005687Y029134D02*
X004732Y029134D01*
X004780Y029452D02*
X005638Y029452D01*
X005731Y029771D02*
X004684Y029771D01*
X004346Y030089D02*
X006105Y030089D01*
X006656Y030089D02*
X006870Y030089D01*
X006866Y030150D02*
X007324Y030150D01*
X007324Y030150D01*
X007324Y030150D01*
X007324Y030608D01*
X007288Y030608D01*
X007217Y030597D01*
X007148Y030575D01*
X007084Y030542D01*
X007026Y030499D01*
X006975Y030448D01*
X006932Y030390D01*
X006900Y030326D01*
X006877Y030257D01*
X006866Y030186D01*
X006866Y030150D01*
X006945Y030408D02*
X001309Y030408D01*
X001309Y030726D02*
X004610Y030726D01*
X004517Y030819D02*
X004743Y030593D01*
X005039Y030470D01*
X005359Y030470D01*
X005655Y030593D01*
X005881Y030819D01*
X006004Y031115D01*
X006004Y031435D01*
X005881Y031731D01*
X005655Y031957D01*
X005359Y032080D01*
X005039Y032080D01*
X004743Y031957D01*
X004551Y031765D01*
X004614Y031918D01*
X004614Y032132D01*
X004532Y032331D01*
X004380Y032483D01*
X004181Y032565D01*
X003967Y032565D01*
X003768Y032483D01*
X003616Y032331D01*
X003585Y032256D01*
X003553Y032319D01*
X003611Y032319D01*
X003553Y032319D02*
X003501Y032390D01*
X003439Y032452D01*
X003368Y032504D01*
X003289Y032544D01*
X003205Y032571D01*
X003118Y032585D01*
X003074Y032585D01*
X003030Y032585D01*
X002943Y032571D01*
X002859Y032544D01*
X002781Y032504D01*
X002709Y032452D01*
X002647Y032390D01*
X002595Y032319D01*
X002537Y032319D01*
X002532Y032331D02*
X002380Y032483D01*
X002181Y032565D01*
X001967Y032565D01*
X001768Y032483D01*
X001616Y032331D01*
X001534Y032132D01*
X001534Y031918D01*
X001616Y031719D01*
X001768Y031567D01*
X001967Y031485D01*
X002181Y031485D01*
X002380Y031567D01*
X002532Y031719D01*
X002563Y031794D01*
X002595Y031731D01*
X002647Y031660D01*
X002709Y031598D01*
X002781Y031546D01*
X002859Y031506D01*
X002943Y031479D01*
X003030Y031465D01*
X003074Y031465D01*
X003074Y032025D01*
X003074Y032025D01*
X003074Y032585D01*
X003074Y032025D01*
X003074Y032025D01*
X003074Y031465D01*
X003118Y031465D01*
X003205Y031479D01*
X003289Y031506D01*
X003368Y031546D01*
X003439Y031598D01*
X003501Y031660D01*
X003553Y031731D01*
X003585Y031794D01*
X003616Y031719D01*
X003768Y031567D01*
X003967Y031485D01*
X004181Y031485D01*
X004380Y031567D01*
X004497Y031685D01*
X004394Y031435D01*
X004394Y031115D01*
X004517Y030819D01*
X004423Y031045D02*
X001309Y031045D01*
X001309Y031363D02*
X004394Y031363D01*
X004494Y031682D02*
X004496Y031682D01*
X004614Y032000D02*
X004846Y032000D01*
X004537Y032319D02*
X018699Y032319D01*
X018772Y032000D02*
X005552Y032000D01*
X005902Y031682D02*
X008564Y031682D01*
X008584Y031702D02*
X008522Y031640D01*
X008470Y031569D01*
X008430Y031490D01*
X008403Y031406D01*
X008389Y031319D01*
X008389Y031275D01*
X008389Y031231D01*
X008403Y031144D01*
X008430Y031060D01*
X008470Y030981D01*
X008522Y030910D01*
X008584Y030848D01*
X008656Y030796D01*
X008718Y030764D01*
X008643Y030733D01*
X008491Y030581D01*
X008409Y030382D01*
X008409Y030168D01*
X008491Y029969D01*
X008643Y029817D01*
X008718Y029786D01*
X008656Y029754D01*
X008584Y029702D01*
X008522Y029640D01*
X008470Y029569D01*
X008430Y029490D01*
X008403Y029406D01*
X008389Y029319D01*
X008389Y029275D01*
X008389Y029231D01*
X008403Y029144D01*
X008430Y029060D01*
X008470Y028981D01*
X008522Y028910D01*
X008584Y028848D01*
X008656Y028796D01*
X008718Y028764D01*
X008643Y028733D01*
X008491Y028581D01*
X008409Y028382D01*
X008409Y028168D01*
X008491Y027969D01*
X008643Y027817D01*
X008842Y027735D01*
X009056Y027735D01*
X009255Y027817D01*
X009407Y027969D01*
X009449Y028071D01*
X009491Y027969D01*
X009643Y027817D01*
X009842Y027735D01*
X010056Y027735D01*
X010255Y027817D01*
X010407Y027969D01*
X010449Y028071D01*
X010491Y027969D01*
X010643Y027817D01*
X010842Y027735D01*
X011056Y027735D01*
X011255Y027817D01*
X011407Y027969D01*
X011449Y028071D01*
X011491Y027969D01*
X011643Y027817D01*
X011842Y027735D01*
X012056Y027735D01*
X012255Y027817D01*
X012407Y027969D01*
X012449Y028071D01*
X012491Y027969D01*
X012643Y027817D01*
X012842Y027735D01*
X013056Y027735D01*
X013255Y027817D01*
X013407Y027969D01*
X013449Y028071D01*
X013491Y027969D01*
X013643Y027817D01*
X013842Y027735D01*
X014056Y027735D01*
X014255Y027817D01*
X014407Y027969D01*
X014449Y028071D01*
X014491Y027969D01*
X014643Y027817D01*
X014842Y027735D01*
X015056Y027735D01*
X015255Y027817D01*
X015407Y027969D01*
X015449Y028071D01*
X015491Y027969D01*
X015643Y027817D01*
X015842Y027735D01*
X016056Y027735D01*
X016255Y027817D01*
X016407Y027969D01*
X016449Y028071D01*
X016491Y027969D01*
X016643Y027817D01*
X016842Y027735D01*
X017056Y027735D01*
X017255Y027817D01*
X017407Y027969D01*
X017438Y028044D01*
X017470Y027981D01*
X017522Y027910D01*
X017584Y027848D01*
X017656Y027796D01*
X017734Y027756D01*
X017818Y027729D01*
X017905Y027715D01*
X017949Y027715D01*
X017949Y028275D01*
X017949Y028275D01*
X017949Y027715D01*
X017993Y027715D01*
X018080Y027729D01*
X018164Y027756D01*
X018243Y027796D01*
X018314Y027848D01*
X018376Y027910D01*
X018428Y027981D01*
X018447Y028018D01*
X018570Y027895D01*
X018735Y027827D01*
X018913Y027827D01*
X019078Y027895D01*
X019137Y027954D01*
X019195Y027895D01*
X019360Y027827D01*
X019538Y027827D01*
X019703Y027895D01*
X019829Y028021D01*
X019897Y028186D01*
X019897Y028364D01*
X019829Y028529D01*
X019770Y028587D01*
X019829Y028646D01*
X019897Y028811D01*
X019897Y028989D01*
X019829Y029154D01*
X019703Y029280D01*
X019538Y029348D01*
X019360Y029348D01*
X019195Y029280D01*
X019137Y029221D01*
X019078Y029280D01*
X018913Y029348D01*
X018735Y029348D01*
X018570Y029280D01*
X018489Y029199D01*
X018489Y029382D01*
X018407Y029581D01*
X018255Y029733D01*
X018180Y029764D01*
X018243Y029796D01*
X018314Y029848D01*
X018376Y029910D01*
X018428Y029981D01*
X018468Y030060D01*
X018495Y030144D01*
X018509Y030231D01*
X018509Y030275D01*
X018509Y030319D01*
X018495Y030406D01*
X018468Y030490D01*
X018428Y030569D01*
X018376Y030640D01*
X018314Y030702D01*
X018243Y030754D01*
X018180Y030786D01*
X018255Y030817D01*
X018407Y030969D01*
X018489Y031168D01*
X018489Y031382D01*
X018407Y031581D01*
X018255Y031733D01*
X018056Y031815D01*
X017842Y031815D01*
X017643Y031733D01*
X017491Y031581D01*
X017449Y031479D01*
X017407Y031581D01*
X017255Y031733D01*
X017056Y031815D01*
X016842Y031815D01*
X016643Y031733D01*
X016491Y031581D01*
X016449Y031479D01*
X016407Y031581D01*
X016255Y031733D01*
X016056Y031815D01*
X015842Y031815D01*
X015643Y031733D01*
X015491Y031581D01*
X015449Y031479D01*
X015407Y031581D01*
X015255Y031733D01*
X015056Y031815D01*
X014842Y031815D01*
X014643Y031733D01*
X014491Y031581D01*
X014449Y031479D01*
X014407Y031581D01*
X014255Y031733D01*
X014056Y031815D01*
X013842Y031815D01*
X013643Y031733D01*
X013491Y031581D01*
X013449Y031479D01*
X013407Y031581D01*
X013255Y031733D01*
X013056Y031815D01*
X012842Y031815D01*
X012643Y031733D01*
X012491Y031581D01*
X012449Y031479D01*
X012407Y031581D01*
X012255Y031733D01*
X012056Y031815D01*
X011842Y031815D01*
X011643Y031733D01*
X011491Y031581D01*
X011449Y031479D01*
X011407Y031581D01*
X011255Y031733D01*
X011056Y031815D01*
X010842Y031815D01*
X010643Y031733D01*
X010491Y031581D01*
X010449Y031479D01*
X010407Y031581D01*
X010255Y031733D01*
X010056Y031815D01*
X009842Y031815D01*
X009643Y031733D01*
X009491Y031581D01*
X009460Y031506D01*
X009428Y031569D01*
X009376Y031640D01*
X009314Y031702D01*
X009243Y031754D01*
X009164Y031794D01*
X009080Y031821D01*
X008993Y031835D01*
X008949Y031835D01*
X008905Y031835D01*
X008818Y031821D01*
X008734Y031794D01*
X008656Y031754D01*
X008584Y031702D01*
X008949Y031682D02*
X008949Y031682D01*
X008949Y031835D02*
X008949Y031275D01*
X008389Y031275D01*
X008949Y031275D01*
X008949Y031275D01*
X008949Y031835D01*
X008949Y031363D02*
X008949Y031363D01*
X008949Y031275D02*
X008949Y031275D01*
X008396Y031363D02*
X006004Y031363D01*
X005975Y031045D02*
X008438Y031045D01*
X008636Y030726D02*
X005789Y030726D01*
X007030Y029771D02*
X007067Y029771D01*
X007324Y029771D02*
X007324Y029771D01*
X007324Y029692D02*
X007360Y029692D01*
X007431Y029703D01*
X007500Y029725D01*
X007564Y029758D01*
X007622Y029801D01*
X007673Y029852D01*
X007716Y029910D01*
X007749Y029974D01*
X007771Y030043D01*
X007782Y030114D01*
X007782Y030150D01*
X007782Y030186D01*
X007771Y030257D01*
X007749Y030326D01*
X007716Y030390D01*
X007673Y030448D01*
X007622Y030499D01*
X007564Y030542D01*
X007500Y030575D01*
X007431Y030597D01*
X007360Y030608D01*
X007324Y030608D01*
X007324Y030150D01*
X007324Y030150D01*
X007324Y029692D01*
X007581Y029771D02*
X008688Y029771D01*
X008442Y030089D02*
X007778Y030089D01*
X007782Y030150D02*
X007324Y030150D01*
X007782Y030150D01*
X007703Y030408D02*
X008419Y030408D01*
X008418Y029452D02*
X007122Y029452D01*
X007073Y029134D02*
X008406Y029134D01*
X008389Y029275D02*
X008949Y029275D01*
X008949Y029275D01*
X008389Y029275D01*
X008629Y028815D02*
X006844Y028815D01*
X007775Y027860D02*
X005874Y027860D01*
X005941Y027541D02*
X007626Y027541D01*
X008373Y027860D02*
X008601Y027860D01*
X008522Y027541D02*
X020415Y027541D01*
X020699Y027541D02*
X020699Y027541D01*
X020983Y027541D02*
X021415Y027541D01*
X021699Y027541D02*
X021699Y027541D01*
X021983Y027541D02*
X022208Y027541D01*
X022075Y027223D02*
X016841Y027223D01*
X016847Y027220D02*
X016774Y027257D01*
X016696Y027282D01*
X016615Y027295D01*
X016574Y027295D01*
X016533Y027295D01*
X016452Y027282D01*
X016374Y027257D01*
X016302Y027220D01*
X016235Y027172D01*
X016177Y027114D01*
X016129Y027048D01*
X016092Y026975D01*
X016067Y026897D01*
X016066Y026893D01*
X015998Y027058D01*
X015857Y027199D01*
X015674Y027275D01*
X015475Y027275D01*
X015291Y027199D01*
X015150Y027058D01*
X015074Y026874D01*
X015074Y026676D01*
X015150Y026492D01*
X015291Y026351D01*
X015475Y026275D01*
X015674Y026275D01*
X015857Y026351D01*
X015998Y026492D01*
X016066Y026657D01*
X016067Y026653D01*
X016092Y026575D01*
X016129Y026502D01*
X016177Y026436D01*
X016235Y026378D01*
X016302Y026330D01*
X016374Y026293D01*
X016452Y026268D01*
X016533Y026255D01*
X016574Y026255D01*
X016574Y026775D01*
X016574Y026775D01*
X016574Y027295D01*
X016574Y026775D01*
X016574Y026775D01*
X016574Y026255D01*
X016615Y026255D01*
X016696Y026268D01*
X016774Y026293D01*
X016847Y026330D01*
X016913Y026378D01*
X016971Y026436D01*
X017019Y026502D01*
X017056Y026575D01*
X017081Y026653D01*
X017094Y026734D01*
X017094Y026775D01*
X016574Y026775D01*
X017094Y026775D01*
X017094Y026816D01*
X017081Y026897D01*
X017056Y026975D01*
X017019Y027048D01*
X016971Y027114D01*
X016913Y027172D01*
X016847Y027220D01*
X016574Y027223D02*
X016574Y027223D01*
X016307Y027223D02*
X015800Y027223D01*
X016062Y026904D02*
X016069Y026904D01*
X016089Y026586D02*
X016037Y026586D01*
X016457Y026267D02*
X015015Y026267D01*
X014998Y026308D02*
X014857Y026449D01*
X014674Y026525D01*
X014475Y026525D01*
X014291Y026449D01*
X014150Y026308D01*
X014074Y026124D01*
X014074Y025926D01*
X014150Y025742D01*
X014291Y025601D01*
X014475Y025525D01*
X014674Y025525D01*
X014857Y025601D01*
X014998Y025742D01*
X015074Y025926D01*
X015074Y026124D01*
X014998Y026308D01*
X015111Y026586D02*
X014820Y026586D01*
X014857Y026601D02*
X014998Y026742D01*
X015074Y026926D01*
X015074Y027124D01*
X014998Y027308D01*
X014857Y027449D01*
X014674Y027525D01*
X014475Y027525D01*
X014291Y027449D01*
X014150Y027308D01*
X014074Y027124D01*
X014074Y026926D01*
X014150Y026742D01*
X014291Y026601D01*
X014475Y026525D01*
X014674Y026525D01*
X014857Y026601D01*
X015065Y026904D02*
X015086Y026904D01*
X015033Y027223D02*
X015348Y027223D01*
X015297Y027860D02*
X015601Y027860D01*
X016297Y027860D02*
X016601Y027860D01*
X017297Y027860D02*
X017573Y027860D01*
X017949Y027860D02*
X017949Y027860D01*
X017949Y028178D02*
X017949Y028178D01*
X018326Y027860D02*
X018656Y027860D01*
X018992Y027860D02*
X019281Y027860D01*
X019617Y027860D02*
X020164Y027860D01*
X020160Y028178D02*
X019894Y028178D01*
X019842Y028497D02*
X020395Y028497D01*
X020434Y028815D02*
X019897Y028815D01*
X019837Y029134D02*
X020398Y029134D01*
X020575Y029452D02*
X018460Y029452D01*
X018192Y029771D02*
X019200Y029771D01*
X019209Y029749D02*
X019384Y029574D01*
X019613Y029479D01*
X019862Y029479D01*
X020091Y029574D01*
X020266Y029749D01*
X020361Y029979D01*
X020361Y030227D01*
X020266Y030456D01*
X020091Y030632D01*
X019862Y030727D01*
X019613Y030727D01*
X019384Y030632D01*
X019209Y030456D01*
X019114Y030227D01*
X019114Y029979D01*
X019209Y029749D01*
X019114Y030089D02*
X018477Y030089D01*
X018509Y030275D02*
X017949Y030275D01*
X018509Y030275D01*
X018495Y030408D02*
X019188Y030408D01*
X019612Y030726D02*
X018281Y030726D01*
X018438Y031045D02*
X025214Y031045D01*
X025214Y031363D02*
X018489Y031363D01*
X018306Y031682D02*
X025214Y031682D01*
X025214Y032000D02*
X019626Y032000D01*
X019699Y032319D02*
X025214Y032319D01*
X025214Y032637D02*
X019544Y032637D01*
X019587Y032956D02*
X025214Y032956D01*
X025214Y033274D02*
X019699Y033274D01*
X018854Y032637D02*
X017534Y032637D01*
X017449Y032637D02*
X017449Y032637D01*
X017364Y032637D02*
X016779Y032637D01*
X016694Y032637D02*
X016694Y032637D01*
X016609Y032637D02*
X012965Y032637D01*
X013164Y032956D02*
X013402Y032956D01*
X013344Y033274D02*
X013120Y033274D01*
X012283Y032637D02*
X011965Y032637D01*
X011283Y032637D02*
X010993Y032637D01*
X010624Y032637D02*
X010624Y032637D01*
X010624Y032956D02*
X010624Y032956D01*
X010255Y032637D02*
X009965Y032637D01*
X009283Y032637D02*
X001309Y032637D01*
X001309Y032319D02*
X001611Y032319D01*
X001534Y032000D02*
X001309Y032000D01*
X001309Y031682D02*
X001654Y031682D01*
X002494Y031682D02*
X002631Y031682D01*
X003074Y031682D02*
X003074Y031682D01*
X003074Y032000D02*
X003074Y032000D01*
X003074Y032319D02*
X003074Y032319D01*
X002595Y032319D02*
X002563Y032256D01*
X002532Y032331D01*
X003517Y031682D02*
X003654Y031682D01*
X003869Y030149D02*
X003773Y030123D01*
X003680Y030085D01*
X003594Y030035D01*
X003514Y029974D01*
X003444Y029903D01*
X003383Y029824D01*
X003333Y029738D01*
X003295Y029645D01*
X003269Y029549D01*
X003256Y029450D01*
X003256Y029407D01*
X004011Y029407D01*
X004011Y030162D01*
X003968Y030162D01*
X003869Y030149D01*
X004011Y030089D02*
X004025Y030089D01*
X004011Y029771D02*
X004025Y029771D01*
X004011Y029452D02*
X004025Y029452D01*
X004011Y029393D02*
X003256Y029393D01*
X003256Y029350D01*
X003269Y029251D01*
X003295Y029155D01*
X003333Y029062D01*
X003383Y028976D01*
X003444Y028897D01*
X003514Y028826D01*
X003594Y028765D01*
X003680Y028715D01*
X003773Y028677D01*
X003869Y028651D01*
X003968Y028638D01*
X004011Y028638D01*
X004011Y029393D01*
X004011Y029134D02*
X004025Y029134D01*
X004011Y028815D02*
X004025Y028815D01*
X003529Y028815D02*
X002896Y028815D01*
X002986Y028905D02*
X002741Y028660D01*
X002420Y028527D01*
X002073Y028527D01*
X001752Y028660D01*
X001506Y028905D01*
X001373Y029226D01*
X001373Y029574D01*
X001506Y029895D01*
X001752Y030140D01*
X002073Y030273D01*
X002420Y030273D01*
X002741Y030140D01*
X002986Y029895D01*
X003119Y029574D01*
X003119Y029226D01*
X002986Y028905D01*
X003081Y029134D02*
X003304Y029134D01*
X003256Y029452D02*
X003119Y029452D01*
X003038Y029771D02*
X003352Y029771D01*
X003690Y030089D02*
X002792Y030089D01*
X001701Y030089D02*
X001309Y030089D01*
X001309Y029771D02*
X001455Y029771D01*
X001373Y029452D02*
X001309Y029452D01*
X001309Y029134D02*
X001412Y029134D01*
X001309Y028815D02*
X001597Y028815D01*
X001309Y028497D02*
X008456Y028497D01*
X008409Y028178D02*
X005620Y028178D01*
X005902Y026586D02*
X010449Y026586D01*
X010449Y026267D02*
X005989Y026267D01*
X005886Y025949D02*
X010449Y025949D01*
X010449Y025630D02*
X005858Y025630D01*
X005989Y025312D02*
X010449Y025312D01*
X010272Y024993D02*
X007626Y024993D01*
X007552Y025068D02*
X007262Y025187D01*
X006949Y025187D01*
X006659Y025068D01*
X006438Y024846D01*
X006318Y024557D01*
X006318Y024243D01*
X006438Y023954D01*
X006659Y023732D01*
X006949Y023613D01*
X007262Y023613D01*
X007552Y023732D01*
X007773Y023954D01*
X007893Y024243D01*
X007893Y024557D01*
X007773Y024846D01*
X007552Y025068D01*
X007844Y024675D02*
X010054Y024675D01*
X010005Y024356D02*
X007893Y024356D01*
X007808Y024038D02*
X010090Y024038D01*
X010379Y023719D02*
X007519Y023719D01*
X006692Y023719D02*
X005769Y023719D01*
X005935Y024038D02*
X006403Y024038D01*
X006318Y024356D02*
X005989Y024356D01*
X005813Y024675D02*
X006367Y024675D01*
X006585Y024993D02*
X005917Y024993D01*
X005982Y023401D02*
X010449Y023401D01*
X010449Y023082D02*
X005954Y023082D01*
X005681Y022764D02*
X010449Y022764D01*
X010449Y022445D02*
X005963Y022445D01*
X005972Y022127D02*
X010449Y022127D01*
X010449Y021808D02*
X010413Y021808D01*
X010449Y020853D02*
X009288Y020853D01*
X009560Y020534D02*
X010449Y020534D01*
X011199Y020216D02*
X009539Y020216D01*
X008609Y020216D02*
X008561Y020216D01*
X008209Y019897D02*
X011199Y019897D01*
X011199Y019579D02*
X005908Y019579D01*
X005835Y019897D02*
X007939Y019897D01*
X008074Y019897D02*
X008074Y019897D01*
X008074Y020216D02*
X008074Y020216D01*
X008074Y020400D02*
X008074Y020400D01*
X007587Y020216D02*
X005989Y020216D01*
X005926Y020534D02*
X007571Y020534D01*
X007807Y020853D02*
X005790Y020853D01*
X005989Y021171D02*
X007416Y021171D01*
X007350Y021447D02*
X007965Y021447D01*
X007965Y022062D01*
X007916Y022062D01*
X007821Y022046D01*
X007729Y022017D01*
X007643Y021973D01*
X007565Y021916D01*
X007496Y021847D01*
X007439Y021769D01*
X007395Y021683D01*
X007366Y021591D01*
X007350Y021496D01*
X007350Y021447D01*
X007350Y021490D02*
X005945Y021490D01*
X005733Y021808D02*
X007468Y021808D01*
X007965Y021808D02*
X007965Y021808D01*
X007965Y021490D02*
X007965Y021490D01*
X008462Y021808D02*
X008469Y021808D01*
X009429Y021808D02*
X009454Y021808D01*
X011199Y021808D02*
X011395Y021808D01*
X011199Y021490D02*
X016199Y021490D01*
X016199Y021808D02*
X014803Y021808D01*
X014774Y021793D02*
X014847Y021830D01*
X014913Y021878D01*
X014971Y021936D01*
X015019Y022002D01*
X015056Y022075D01*
X015081Y022153D01*
X015094Y022234D01*
X015094Y022275D01*
X014574Y022275D01*
X014054Y022275D01*
X014054Y022234D01*
X014067Y022153D01*
X014092Y022075D01*
X014129Y022002D01*
X014177Y021936D01*
X014235Y021878D01*
X014302Y021830D01*
X014374Y021793D01*
X014452Y021768D01*
X014533Y021755D01*
X014574Y021755D01*
X014574Y022275D01*
X014574Y022275D01*
X014054Y022275D01*
X014054Y022316D01*
X014067Y022397D01*
X014092Y022475D01*
X014129Y022548D01*
X014177Y022614D01*
X014235Y022672D01*
X014302Y022720D01*
X014374Y022757D01*
X014430Y022775D01*
X014350Y022775D01*
X014166Y022851D01*
X014025Y022992D01*
X013949Y023176D01*
X013949Y023374D01*
X014025Y023558D01*
X014166Y023699D01*
X014350Y023775D01*
X014549Y023775D01*
X014732Y023699D01*
X014873Y023558D01*
X014949Y023374D01*
X014949Y023176D01*
X014873Y022992D01*
X014732Y022851D01*
X014597Y022795D01*
X014615Y022795D01*
X014696Y022782D01*
X014774Y022757D01*
X014847Y022720D01*
X014913Y022672D01*
X014971Y022614D01*
X015019Y022548D01*
X015056Y022475D01*
X015081Y022397D01*
X015094Y022316D01*
X015094Y022275D01*
X014574Y022275D01*
X014574Y022275D01*
X014574Y021755D01*
X014615Y021755D01*
X014696Y021768D01*
X014774Y021793D01*
X014574Y021808D02*
X014574Y021808D01*
X014345Y021808D02*
X011753Y021808D01*
X012054Y022127D02*
X014076Y022127D01*
X014083Y022445D02*
X012045Y022445D01*
X011701Y022764D02*
X014395Y022764D01*
X014753Y022764D02*
X015355Y022764D01*
X015416Y022824D02*
X015275Y022683D01*
X015199Y022499D01*
X015199Y022301D01*
X015275Y022117D01*
X015416Y021976D01*
X015600Y021900D01*
X015799Y021900D01*
X015982Y021976D01*
X016123Y022117D01*
X016199Y022301D01*
X016199Y022499D01*
X016123Y022683D01*
X015982Y022824D01*
X015799Y022900D01*
X015600Y022900D01*
X015416Y022824D01*
X015199Y022445D02*
X015066Y022445D01*
X015073Y022127D02*
X015271Y022127D01*
X015408Y021420D02*
X015327Y021407D01*
X015249Y021382D01*
X015177Y021345D01*
X015110Y021297D01*
X015052Y021239D01*
X015004Y021173D01*
X014967Y021100D01*
X014942Y021022D01*
X014941Y021018D01*
X014873Y021183D01*
X014732Y021324D01*
X014549Y021400D01*
X014350Y021400D01*
X014166Y021324D01*
X014025Y021183D01*
X013949Y020999D01*
X013949Y020801D01*
X014025Y020617D01*
X014166Y020476D01*
X014350Y020400D01*
X014549Y020400D01*
X014732Y020476D01*
X014873Y020617D01*
X014941Y020782D01*
X014942Y020778D01*
X014967Y020700D01*
X015004Y020627D01*
X015052Y020561D01*
X015110Y020503D01*
X015177Y020455D01*
X015249Y020418D01*
X015327Y020393D01*
X015408Y020380D01*
X015449Y020380D01*
X015449Y020900D01*
X015449Y021420D01*
X015408Y021420D01*
X015449Y021420D02*
X015449Y020900D01*
X015449Y020900D01*
X015449Y020900D01*
X015449Y020380D01*
X015490Y020380D01*
X015571Y020393D01*
X015649Y020418D01*
X015722Y020455D01*
X015788Y020503D01*
X015846Y020561D01*
X015894Y020627D01*
X015931Y020700D01*
X015956Y020778D01*
X015969Y020859D01*
X015969Y020900D01*
X015969Y020941D01*
X015956Y021022D01*
X015931Y021100D01*
X015894Y021173D01*
X015846Y021239D01*
X015788Y021297D01*
X015722Y021345D01*
X015649Y021382D01*
X015571Y021407D01*
X015490Y021420D01*
X015449Y021420D01*
X015449Y021171D02*
X015449Y021171D01*
X015449Y020900D02*
X015969Y020900D01*
X015449Y020900D01*
X015449Y020900D01*
X015449Y020853D02*
X015449Y020853D01*
X015449Y020534D02*
X015449Y020534D01*
X015080Y020534D02*
X014790Y020534D01*
X014878Y021171D02*
X015004Y021171D01*
X014574Y022127D02*
X014574Y022127D01*
X014574Y022275D02*
X014574Y022275D01*
X014910Y023082D02*
X016199Y023082D01*
X016199Y022764D02*
X016043Y022764D01*
X016199Y022445D02*
X016199Y022445D01*
X016199Y022127D02*
X016127Y022127D01*
X016199Y021171D02*
X015895Y021171D01*
X015968Y020853D02*
X016199Y020853D01*
X016199Y020534D02*
X015818Y020534D01*
X016199Y020216D02*
X011824Y020216D01*
X011824Y020534D02*
X012108Y020534D01*
X012166Y020476D02*
X012350Y020400D01*
X012549Y020400D01*
X012732Y020476D01*
X012873Y020617D01*
X012949Y020801D01*
X012949Y020999D01*
X012873Y021183D01*
X012732Y021324D01*
X012549Y021400D01*
X012350Y021400D01*
X012166Y021324D01*
X012025Y021183D01*
X011949Y020999D01*
X011949Y020801D01*
X012025Y020617D01*
X012166Y020476D01*
X011949Y020853D02*
X011824Y020853D01*
X012020Y021171D02*
X011199Y021171D01*
X011824Y019897D02*
X016199Y019897D01*
X016199Y019579D02*
X011824Y019579D01*
X011824Y019260D02*
X016199Y019260D01*
X016199Y018942D02*
X011824Y018942D01*
X011824Y018623D02*
X016199Y018623D01*
X016199Y018305D02*
X015752Y018305D01*
X015732Y018324D02*
X015549Y018400D01*
X015350Y018400D01*
X015166Y018324D01*
X015025Y018183D01*
X014949Y017999D01*
X014949Y017801D01*
X015025Y017617D01*
X015166Y017476D01*
X015350Y017400D01*
X015549Y017400D01*
X015732Y017476D01*
X015873Y017617D01*
X015949Y017801D01*
X015949Y017999D01*
X015873Y018183D01*
X015732Y018324D01*
X015949Y017986D02*
X016199Y017986D01*
X016199Y017668D02*
X015894Y017668D01*
X016199Y017349D02*
X011824Y017349D01*
X011824Y017031D02*
X012098Y017031D01*
X011932Y016712D02*
X011824Y016712D01*
X011824Y016394D02*
X011996Y016394D01*
X011199Y016075D02*
X011160Y016075D01*
X011199Y015757D02*
X009670Y015757D01*
X009897Y016075D02*
X010425Y016075D01*
X010098Y016394D02*
X009833Y016394D01*
X009981Y016712D02*
X010005Y016712D01*
X010005Y017031D02*
X010046Y017031D01*
X010253Y017349D02*
X009032Y017349D01*
X009079Y017396D02*
X008953Y017270D01*
X008788Y017202D01*
X008610Y017202D01*
X008445Y017270D01*
X008319Y017396D01*
X008251Y017561D01*
X008251Y017739D01*
X008319Y017904D01*
X008445Y018030D01*
X008610Y018098D01*
X008788Y018098D01*
X008953Y018030D01*
X009079Y017904D01*
X009147Y017739D01*
X009147Y017561D01*
X009079Y017396D01*
X009147Y017668D02*
X011199Y017668D01*
X011199Y017986D02*
X008997Y017986D01*
X008401Y017986D02*
X005914Y017986D01*
X005848Y017668D02*
X008251Y017668D01*
X008366Y017349D02*
X007645Y017349D01*
X007552Y017443D02*
X007262Y017562D01*
X006949Y017562D01*
X006659Y017443D01*
X006438Y017221D01*
X006318Y016932D01*
X006318Y016618D01*
X006438Y016329D01*
X006659Y016107D01*
X006949Y015988D01*
X007262Y015988D01*
X007552Y016107D01*
X007773Y016329D01*
X007893Y016618D01*
X007893Y016932D01*
X007773Y017221D01*
X007552Y017443D01*
X007852Y017031D02*
X009143Y017031D01*
X009167Y016712D02*
X007893Y016712D01*
X007800Y016394D02*
X008559Y016394D01*
X008179Y016075D02*
X007473Y016075D01*
X007883Y015757D02*
X005698Y015757D01*
X005951Y016075D02*
X006738Y016075D01*
X006411Y016394D02*
X005984Y016394D01*
X005776Y016712D02*
X006318Y016712D01*
X006359Y017031D02*
X005953Y017031D01*
X006004Y017349D02*
X006566Y017349D01*
X006593Y018305D02*
X011199Y018305D01*
X011199Y018623D02*
X006643Y018623D01*
X006364Y018942D02*
X011199Y018942D01*
X011199Y019260D02*
X005989Y019260D01*
X006034Y018942D02*
X005879Y018942D01*
X004991Y017969D02*
X005143Y017817D01*
X005218Y017786D01*
X005156Y017754D01*
X005084Y017702D01*
X005022Y017640D01*
X004970Y017569D01*
X004938Y017506D01*
X004907Y017581D01*
X004755Y017733D01*
X004653Y017775D01*
X004755Y017817D01*
X004907Y017969D01*
X004949Y018071D01*
X004991Y017969D01*
X004984Y017986D02*
X004914Y017986D01*
X004820Y017668D02*
X005050Y017668D01*
X005449Y017275D02*
X005449Y017275D01*
X005966Y015438D02*
X006155Y015438D01*
X006743Y015438D02*
X007927Y015438D01*
X008721Y015438D02*
X011900Y015438D01*
X011820Y015405D02*
X011694Y015279D01*
X011626Y015114D01*
X011626Y014936D01*
X011694Y014771D01*
X011820Y014645D01*
X011985Y014577D01*
X012163Y014577D01*
X012328Y014645D01*
X012454Y014771D01*
X012522Y014936D01*
X012522Y015114D01*
X012454Y015279D01*
X012328Y015405D01*
X012163Y015473D01*
X011985Y015473D01*
X011820Y015405D01*
X011628Y015120D02*
X006949Y015120D01*
X006897Y014801D02*
X011682Y014801D01*
X011850Y014275D02*
X011666Y014199D01*
X011525Y014058D01*
X011457Y013893D01*
X011456Y013897D01*
X011431Y013975D01*
X011394Y014048D01*
X011346Y014114D01*
X011288Y014172D01*
X011222Y014220D01*
X011149Y014257D01*
X011071Y014282D01*
X010990Y014295D01*
X010949Y014295D01*
X010949Y013775D01*
X010949Y013775D01*
X010949Y013255D01*
X010990Y013255D01*
X011071Y013268D01*
X011149Y013293D01*
X011222Y013330D01*
X011288Y013378D01*
X011346Y013436D01*
X011394Y013502D01*
X011431Y013575D01*
X011456Y013653D01*
X011457Y013657D01*
X011525Y013492D01*
X011666Y013351D01*
X011850Y013275D01*
X012049Y013275D01*
X012232Y013351D01*
X012373Y013492D01*
X012449Y013676D01*
X012449Y013874D01*
X012373Y014058D01*
X012232Y014199D01*
X012049Y014275D01*
X011850Y014275D01*
X011631Y014164D02*
X011295Y014164D01*
X010949Y014164D02*
X010949Y014164D01*
X010949Y013846D02*
X010949Y013846D01*
X010949Y013527D02*
X010949Y013527D01*
X011406Y013527D02*
X011511Y013527D01*
X012388Y013527D02*
X017426Y013527D01*
X017439Y013500D02*
X017395Y013586D01*
X017366Y013678D01*
X017350Y013774D01*
X017350Y013822D01*
X017965Y013822D01*
X017965Y013822D01*
X017965Y013822D01*
X017965Y014437D01*
X018013Y014437D01*
X018109Y014421D01*
X018201Y014392D01*
X018287Y014348D01*
X018365Y014291D01*
X018433Y014222D01*
X018465Y014179D01*
X018612Y014326D01*
X018831Y014417D01*
X019067Y014417D01*
X019286Y014326D01*
X019441Y014171D01*
X019597Y014326D01*
X019815Y014417D01*
X020052Y014417D01*
X020270Y014326D01*
X020437Y014159D01*
X020528Y013940D01*
X020528Y013704D01*
X020437Y013486D01*
X020270Y013318D01*
X020052Y013228D01*
X019815Y013228D01*
X019597Y013318D01*
X019441Y013474D01*
X019286Y013318D01*
X019252Y013304D01*
X019373Y013183D01*
X019449Y012999D01*
X019449Y012801D01*
X019373Y012617D01*
X019232Y012476D01*
X019049Y012400D01*
X018850Y012400D01*
X018666Y012476D01*
X018525Y012617D01*
X018457Y012782D01*
X018456Y012778D01*
X018431Y012700D01*
X018394Y012627D01*
X018346Y012561D01*
X018288Y012503D01*
X018222Y012455D01*
X018149Y012418D01*
X018071Y012393D01*
X017990Y012380D01*
X017949Y012380D01*
X017949Y012900D01*
X017429Y012900D01*
X017429Y012859D01*
X017442Y012778D01*
X017467Y012700D01*
X017504Y012627D01*
X017552Y012561D01*
X017610Y012503D01*
X017677Y012455D01*
X017749Y012418D01*
X017827Y012393D01*
X017908Y012380D01*
X017949Y012380D01*
X017949Y012900D01*
X017949Y012900D01*
X017429Y012900D01*
X017429Y012941D01*
X017442Y013022D01*
X017467Y013100D01*
X017504Y013173D01*
X017552Y013239D01*
X017610Y013297D01*
X017627Y013309D01*
X017565Y013354D01*
X017496Y013422D01*
X017439Y013500D01*
X017530Y013209D02*
X014399Y013209D01*
X014454Y013154D02*
X014328Y013280D01*
X014163Y013348D01*
X013985Y013348D01*
X013820Y013280D01*
X013694Y013154D01*
X013626Y012989D01*
X013626Y012811D01*
X013694Y012646D01*
X013820Y012520D01*
X013985Y012452D01*
X014163Y012452D01*
X014328Y012520D01*
X014454Y012646D01*
X014522Y012811D01*
X014522Y012989D01*
X014454Y013154D01*
X014522Y012890D02*
X017429Y012890D01*
X017545Y012572D02*
X014379Y012572D01*
X013769Y012572D02*
X010852Y012572D01*
X010546Y012572D02*
X010161Y012572D01*
X010117Y011935D02*
X010303Y011935D01*
X011095Y011935D02*
X013475Y011935D01*
X014105Y011298D02*
X016988Y011298D01*
X016945Y011280D02*
X016819Y011154D01*
X016751Y010989D01*
X016751Y010811D01*
X016819Y010646D01*
X016945Y010520D01*
X017110Y010452D01*
X017288Y010452D01*
X017453Y010520D01*
X017579Y010646D01*
X017647Y010811D01*
X017647Y010989D01*
X017579Y011154D01*
X017453Y011280D01*
X017288Y011348D01*
X017110Y011348D01*
X016945Y011280D01*
X016952Y011518D02*
X017033Y011505D01*
X017074Y011505D01*
X017074Y012025D01*
X017074Y012025D01*
X017074Y012545D01*
X017033Y012545D01*
X016952Y012532D01*
X016874Y012507D01*
X016802Y012470D01*
X016735Y012422D01*
X016677Y012364D01*
X016629Y012298D01*
X016592Y012225D01*
X016567Y012147D01*
X016566Y012143D01*
X016498Y012308D01*
X016357Y012449D01*
X016174Y012525D01*
X015975Y012525D01*
X015791Y012449D01*
X015650Y012308D01*
X015574Y012124D01*
X015574Y011926D01*
X015650Y011742D01*
X015791Y011601D01*
X015975Y011525D01*
X016174Y011525D01*
X016357Y011601D01*
X016498Y011742D01*
X016566Y011907D01*
X016567Y011903D01*
X016592Y011825D01*
X016629Y011752D01*
X016677Y011686D01*
X016735Y011628D01*
X016802Y011580D01*
X016874Y011543D01*
X016952Y011518D01*
X017074Y011505D02*
X017074Y012025D01*
X017074Y012025D01*
X017074Y012545D01*
X017115Y012545D01*
X017196Y012532D01*
X017274Y012507D01*
X017347Y012470D01*
X017413Y012422D01*
X017471Y012364D01*
X017519Y012298D01*
X017556Y012225D01*
X017581Y012147D01*
X017594Y012066D01*
X017594Y012025D01*
X017074Y012025D01*
X017594Y012025D01*
X017594Y011984D01*
X017581Y011903D01*
X017556Y011825D01*
X017519Y011752D01*
X017471Y011686D01*
X017413Y011628D01*
X017347Y011580D01*
X017274Y011543D01*
X017196Y011518D01*
X017115Y011505D01*
X017074Y011505D01*
X017074Y011616D02*
X017074Y011616D01*
X017074Y011935D02*
X017074Y011935D01*
X017074Y012025D02*
X017074Y012025D01*
X017074Y012253D02*
X017074Y012253D01*
X017541Y012253D02*
X020087Y012253D01*
X020069Y012271D02*
X020195Y012145D01*
X020360Y012077D01*
X020538Y012077D01*
X020703Y012145D01*
X020751Y012193D01*
X020751Y012186D01*
X020819Y012021D01*
X020945Y011895D01*
X021110Y011827D01*
X021288Y011827D01*
X021453Y011895D01*
X021579Y012021D01*
X021647Y012186D01*
X021647Y012364D01*
X021579Y012529D01*
X021453Y012655D01*
X021288Y012723D01*
X021110Y012723D01*
X020945Y012655D01*
X020897Y012607D01*
X020897Y012614D01*
X020829Y012779D01*
X020703Y012905D01*
X020538Y012973D01*
X020360Y012973D01*
X020195Y012905D01*
X020069Y012779D01*
X020001Y012614D01*
X020001Y012436D01*
X020069Y012271D01*
X020001Y012572D02*
X019328Y012572D01*
X019449Y012890D02*
X020180Y012890D01*
X020718Y012890D02*
X022519Y012890D01*
X022592Y012860D02*
X022806Y012860D01*
X023005Y012942D01*
X023157Y013094D01*
X023239Y013293D01*
X023239Y013507D01*
X023157Y013706D01*
X023005Y013858D01*
X022903Y013900D01*
X023005Y013942D01*
X023157Y014094D01*
X023239Y014293D01*
X023239Y014507D01*
X023157Y014706D01*
X023005Y014858D01*
X022930Y014889D01*
X022993Y014921D01*
X023064Y014973D01*
X023126Y015035D01*
X023178Y015106D01*
X023218Y015185D01*
X023245Y015269D01*
X023259Y015356D01*
X023259Y015400D01*
X023259Y015444D01*
X023245Y015531D01*
X023218Y015615D01*
X023178Y015694D01*
X023126Y015765D01*
X023064Y015827D01*
X022993Y015879D01*
X022914Y015919D01*
X022830Y015946D01*
X022743Y015960D01*
X022699Y015960D01*
X022655Y015960D01*
X022568Y015946D01*
X022484Y015919D01*
X022406Y015879D01*
X022334Y015827D01*
X022272Y015765D01*
X022220Y015694D01*
X022180Y015615D01*
X022153Y015531D01*
X022139Y015444D01*
X022139Y015400D01*
X022139Y015356D01*
X022153Y015269D01*
X022180Y015185D01*
X022220Y015106D01*
X022272Y015035D01*
X022334Y014973D01*
X022406Y014921D01*
X022468Y014889D01*
X022393Y014858D01*
X022241Y014706D01*
X022159Y014507D01*
X022159Y014293D01*
X022241Y014094D01*
X022393Y013942D01*
X022495Y013900D01*
X022393Y013858D01*
X022241Y013706D01*
X022159Y013507D01*
X022159Y013293D01*
X022241Y013094D01*
X022393Y012942D01*
X022592Y012860D01*
X022879Y012890D02*
X023649Y012890D01*
X023824Y012890D02*
X023824Y012890D01*
X023824Y012920D02*
X023824Y013400D01*
X023304Y013400D01*
X023824Y013400D01*
X023824Y013400D01*
X023824Y013400D01*
X023824Y012400D01*
X023304Y012400D01*
X023824Y012400D01*
X023824Y012400D01*
X023824Y012400D01*
X023824Y012920D01*
X023999Y012890D02*
X024769Y012890D01*
X024444Y013209D02*
X024309Y013209D01*
X024344Y013400D02*
X023824Y013400D01*
X024344Y013400D01*
X024330Y013527D02*
X024417Y013527D01*
X024631Y013846D02*
X024095Y013846D01*
X024268Y014164D02*
X024462Y014164D01*
X024409Y014483D02*
X024324Y014483D01*
X024130Y014801D02*
X024586Y014801D01*
X024463Y015120D02*
X024301Y015120D01*
X024298Y015438D02*
X024389Y015438D01*
X024516Y015757D02*
X023968Y015757D01*
X023680Y015757D02*
X023132Y015757D01*
X023259Y015438D02*
X023350Y015438D01*
X023259Y015400D02*
X022699Y015400D01*
X022139Y015400D01*
X022699Y015400D01*
X022699Y015400D01*
X022699Y015960D01*
X022699Y015400D01*
X022699Y015400D01*
X022699Y015400D01*
X023259Y015400D01*
X023185Y015120D02*
X023347Y015120D01*
X023518Y014801D02*
X023062Y014801D01*
X023239Y014483D02*
X023324Y014483D01*
X023381Y014164D02*
X023186Y014164D01*
X023017Y013846D02*
X023553Y013846D01*
X023319Y013527D02*
X023231Y013527D01*
X023204Y013209D02*
X023340Y013209D01*
X023824Y013209D02*
X023824Y013209D01*
X023824Y013400D02*
X023824Y013400D01*
X023824Y012572D02*
X023824Y012572D01*
X023824Y012400D02*
X024344Y012400D01*
X023824Y012400D01*
X023824Y012400D01*
X023592Y011935D02*
X023082Y011935D01*
X023064Y011952D02*
X022993Y012004D01*
X022914Y012044D01*
X022830Y012071D01*
X022743Y012085D01*
X022699Y012085D01*
X022655Y012085D01*
X022568Y012071D01*
X022484Y012044D01*
X022406Y012004D01*
X022334Y011952D01*
X022272Y011890D01*
X022220Y011819D01*
X022180Y011740D01*
X022153Y011656D01*
X022139Y011569D01*
X022139Y011525D01*
X022139Y011481D01*
X022153Y011394D01*
X022180Y011310D01*
X022220Y011231D01*
X022272Y011160D01*
X022334Y011098D01*
X022406Y011046D01*
X022468Y011014D01*
X022393Y010983D01*
X022241Y010831D01*
X022159Y010632D01*
X022159Y010418D01*
X022241Y010219D01*
X022393Y010067D01*
X022495Y010025D01*
X022393Y009983D01*
X022241Y009831D01*
X022159Y009632D01*
X022159Y009418D01*
X022241Y009219D01*
X022393Y009067D01*
X022592Y008985D01*
X022806Y008985D01*
X023005Y009067D01*
X023157Y009219D01*
X023239Y009418D01*
X023239Y009632D01*
X023157Y009831D01*
X023005Y009983D01*
X022903Y010025D01*
X023005Y010067D01*
X023157Y010219D01*
X023239Y010418D01*
X023239Y010632D01*
X023157Y010831D01*
X023005Y010983D01*
X022930Y011014D01*
X022993Y011046D01*
X023064Y011098D01*
X023126Y011160D01*
X023178Y011231D01*
X023218Y011310D01*
X023245Y011394D01*
X023259Y011481D01*
X023259Y011525D01*
X023259Y011569D01*
X023245Y011656D01*
X023218Y011740D01*
X023178Y011819D01*
X023126Y011890D01*
X023064Y011952D01*
X022699Y011935D02*
X022699Y011935D01*
X022699Y012085D02*
X022699Y011525D01*
X022139Y011525D01*
X022699Y011525D01*
X022699Y011525D01*
X022699Y012085D01*
X022699Y011616D02*
X022699Y011616D01*
X022699Y011525D02*
X022699Y011525D01*
X023259Y011525D01*
X022699Y011525D01*
X022699Y011525D01*
X022146Y011616D02*
X017396Y011616D01*
X017410Y011298D02*
X022186Y011298D01*
X022389Y010979D02*
X017647Y010979D01*
X017585Y010661D02*
X022171Y010661D01*
X022190Y010342D02*
X012433Y010342D01*
X012431Y010350D02*
X012394Y010423D01*
X012346Y010489D01*
X012288Y010547D01*
X012222Y010595D01*
X012149Y010632D01*
X012071Y010657D01*
X011990Y010670D01*
X011949Y010670D01*
X011908Y010670D01*
X011827Y010657D01*
X011749Y010632D01*
X011677Y010595D01*
X011610Y010547D01*
X011552Y010489D01*
X011504Y010423D01*
X011467Y010350D01*
X011442Y010272D01*
X011429Y010191D01*
X011429Y010150D01*
X011429Y010109D01*
X011442Y010028D01*
X011467Y009950D01*
X011504Y009877D01*
X011552Y009811D01*
X011610Y009753D01*
X011677Y009705D01*
X011467Y009705D01*
X011460Y009721D02*
X011239Y009943D01*
X010949Y010062D01*
X010636Y010062D01*
X010346Y009943D01*
X010125Y009721D01*
X010069Y009585D01*
X010038Y009598D01*
X009860Y009598D01*
X009695Y009530D01*
X009569Y009404D01*
X009501Y009239D01*
X009501Y009165D01*
X009454Y009279D01*
X009328Y009405D01*
X009163Y009473D01*
X009147Y009473D01*
X009147Y009614D01*
X009079Y009779D01*
X008953Y009905D01*
X008788Y009973D01*
X008610Y009973D01*
X008445Y009905D01*
X008319Y009779D01*
X008251Y009614D01*
X008251Y009436D01*
X008319Y009271D01*
X008445Y009145D01*
X008610Y009077D01*
X008626Y009077D01*
X008626Y008936D01*
X008694Y008771D01*
X008820Y008645D01*
X008985Y008577D01*
X009163Y008577D01*
X009328Y008645D01*
X009454Y008771D01*
X009522Y008936D01*
X009522Y009010D01*
X009569Y008896D01*
X009695Y008770D01*
X009860Y008702D01*
X010038Y008702D01*
X010189Y008765D01*
X010346Y008607D01*
X010636Y008488D01*
X010949Y008488D01*
X011239Y008607D01*
X011460Y008829D01*
X011501Y008926D01*
X011525Y008867D01*
X011600Y008792D01*
X011570Y008780D01*
X011444Y008654D01*
X011376Y008489D01*
X011376Y008311D01*
X011444Y008146D01*
X011570Y008020D01*
X011735Y007952D01*
X011913Y007952D01*
X012078Y008020D01*
X012204Y008146D01*
X012272Y008311D01*
X012272Y008489D01*
X012204Y008654D01*
X012161Y008697D01*
X012232Y008726D01*
X012373Y008867D01*
X012449Y009051D01*
X012449Y009249D01*
X012373Y009433D01*
X012232Y009574D01*
X012067Y009642D01*
X012071Y009643D01*
X012149Y009668D01*
X012222Y009705D01*
X012288Y009753D01*
X012346Y009811D01*
X012394Y009877D01*
X012431Y009950D01*
X012456Y010028D01*
X012469Y010109D01*
X012469Y010150D01*
X012469Y010191D01*
X012456Y010272D01*
X012431Y010350D01*
X012469Y010150D02*
X011949Y010150D01*
X011429Y010150D01*
X011949Y010150D01*
X011949Y010150D01*
X011949Y010670D01*
X011949Y010150D01*
X011949Y010150D01*
X011949Y010150D01*
X012469Y010150D01*
X012455Y010024D02*
X016855Y010024D01*
X016949Y010062D02*
X016659Y009943D01*
X016438Y009721D01*
X016318Y009432D01*
X016318Y009118D01*
X016438Y008829D01*
X016659Y008607D01*
X016949Y008488D01*
X017262Y008488D01*
X017552Y008607D01*
X017773Y008829D01*
X017893Y009118D01*
X017893Y009432D01*
X017773Y009721D01*
X017552Y009943D01*
X017262Y010062D01*
X016949Y010062D01*
X016813Y010661D02*
X012050Y010661D01*
X011949Y010661D02*
X011949Y010661D01*
X011848Y010661D02*
X006814Y010661D01*
X006828Y010655D02*
X006663Y010723D01*
X006485Y010723D01*
X006320Y010655D01*
X006194Y010529D01*
X006126Y010364D01*
X006126Y010186D01*
X006194Y010021D01*
X006320Y009895D01*
X006485Y009827D01*
X006544Y009827D01*
X006438Y009721D01*
X006318Y009432D01*
X006318Y009118D01*
X006433Y008840D01*
X006413Y008848D01*
X006235Y008848D01*
X006070Y008780D01*
X005944Y008654D01*
X005876Y008489D01*
X005876Y008311D01*
X005944Y008146D01*
X006070Y008020D01*
X006235Y007952D01*
X006413Y007952D01*
X006578Y008020D01*
X006704Y008146D01*
X006772Y008311D01*
X006772Y008489D01*
X006736Y008576D01*
X006949Y008488D01*
X007262Y008488D01*
X007552Y008607D01*
X007773Y008829D01*
X007893Y009118D01*
X007893Y009432D01*
X007773Y009721D01*
X007552Y009943D01*
X007262Y010062D01*
X006971Y010062D01*
X007022Y010186D01*
X007022Y010364D01*
X006954Y010529D01*
X006828Y010655D01*
X007022Y010342D02*
X009382Y010342D01*
X009445Y010405D02*
X009319Y010279D01*
X009251Y010114D01*
X009251Y009936D01*
X009319Y009771D01*
X009445Y009645D01*
X009610Y009577D01*
X009788Y009577D01*
X009953Y009645D01*
X010079Y009771D01*
X010147Y009936D01*
X010147Y010114D01*
X010079Y010279D01*
X009953Y010405D01*
X009788Y010473D01*
X009610Y010473D01*
X009445Y010405D01*
X009251Y010024D02*
X007356Y010024D01*
X007780Y009705D02*
X008289Y009705D01*
X008271Y009387D02*
X007893Y009387D01*
X007872Y009068D02*
X008626Y009068D01*
X008716Y008750D02*
X007694Y008750D01*
X006772Y008431D02*
X011376Y008431D01*
X011381Y008750D02*
X011540Y008750D01*
X011478Y008113D02*
X006670Y008113D01*
X005978Y008113D02*
X005098Y008113D01*
X005238Y007794D02*
X016229Y007794D01*
X016195Y007780D02*
X016069Y007654D01*
X016001Y007489D01*
X016001Y007311D01*
X016069Y007146D01*
X016195Y007020D01*
X016360Y006952D01*
X016538Y006952D01*
X016703Y007020D01*
X016829Y007146D01*
X016897Y007311D01*
X016897Y007489D01*
X016829Y007654D01*
X016703Y007780D01*
X016538Y007848D01*
X016360Y007848D01*
X016195Y007780D01*
X016001Y007476D02*
X005291Y007476D01*
X005166Y007157D02*
X016065Y007157D01*
X016225Y006775D02*
X016041Y006699D01*
X015900Y006558D01*
X015824Y006374D01*
X015824Y006176D01*
X015900Y005992D01*
X016041Y005851D01*
X016225Y005775D01*
X016424Y005775D01*
X016607Y005851D01*
X016748Y005992D01*
X016824Y006176D01*
X016824Y006374D01*
X016748Y006558D01*
X016607Y006699D01*
X016424Y006775D01*
X016225Y006775D01*
X015884Y006520D02*
X013764Y006520D01*
X013748Y006558D02*
X013607Y006699D01*
X013424Y006775D01*
X013225Y006775D01*
X013041Y006699D01*
X012900Y006558D01*
X012824Y006374D01*
X012824Y006176D01*
X012900Y005992D01*
X013041Y005851D01*
X013225Y005775D01*
X013424Y005775D01*
X013607Y005851D01*
X013748Y005992D01*
X013824Y006176D01*
X013824Y006374D01*
X013748Y006558D01*
X013824Y006202D02*
X015824Y006202D01*
X016009Y005883D02*
X013639Y005883D01*
X013656Y005754D02*
X013584Y005702D01*
X013522Y005640D01*
X013470Y005569D01*
X013449Y005527D01*
X013428Y005569D01*
X013376Y005640D01*
X013314Y005702D01*
X013243Y005754D01*
X013164Y005794D01*
X013080Y005821D01*
X012993Y005835D01*
X012949Y005835D01*
X012905Y005835D01*
X012818Y005821D01*
X012734Y005794D01*
X012656Y005754D01*
X012584Y005702D01*
X012522Y005640D01*
X012470Y005569D01*
X012438Y005506D01*
X012407Y005581D01*
X012255Y005733D01*
X012056Y005815D01*
X011842Y005815D01*
X011643Y005733D01*
X011491Y005581D01*
X011409Y005382D01*
X011409Y005168D01*
X011491Y004969D01*
X011643Y004817D01*
X011745Y004775D01*
X011643Y004733D01*
X011491Y004581D01*
X011409Y004382D01*
X011409Y004168D01*
X011491Y003969D01*
X011643Y003817D01*
X011745Y003775D01*
X011643Y003733D01*
X011491Y003581D01*
X011409Y003382D01*
X011409Y003168D01*
X011491Y002969D01*
X011643Y002817D01*
X011745Y002775D01*
X011643Y002733D01*
X011491Y002581D01*
X011409Y002382D01*
X011409Y002168D01*
X011491Y001969D01*
X011643Y001817D01*
X011842Y001735D01*
X012056Y001735D01*
X012255Y001817D01*
X012407Y001969D01*
X012438Y002044D01*
X012470Y001981D01*
X012522Y001910D01*
X012584Y001848D01*
X012656Y001796D01*
X012734Y001756D01*
X012818Y001729D01*
X012905Y001715D01*
X012949Y001715D01*
X012949Y002275D01*
X012949Y002275D01*
X012949Y003275D01*
X012949Y003275D01*
X012949Y004275D01*
X012949Y004275D01*
X012949Y005275D01*
X012949Y005835D01*
X012949Y005275D01*
X012949Y005275D01*
X012949Y005275D01*
X012949Y004715D01*
X012949Y004275D01*
X012949Y004275D01*
X012949Y003835D01*
X012949Y003275D01*
X012949Y003275D01*
X012949Y002715D01*
X012949Y002275D01*
X012949Y002275D01*
X012949Y001715D01*
X012993Y001715D01*
X013080Y001729D01*
X013164Y001756D01*
X013243Y001796D01*
X013314Y001848D01*
X013376Y001910D01*
X013428Y001981D01*
X013449Y002023D01*
X013470Y001981D01*
X013522Y001910D01*
X013584Y001848D01*
X013656Y001796D01*
X013734Y001756D01*
X013818Y001729D01*
X013905Y001715D01*
X013949Y001715D01*
X013949Y002275D01*
X012949Y002275D01*
X013509Y002275D01*
X013949Y002275D01*
X013949Y002275D01*
X013949Y002275D01*
X013949Y003275D01*
X012949Y003275D01*
X013509Y003275D01*
X013949Y003275D01*
X013949Y003275D01*
X013949Y003275D01*
X013949Y004275D01*
X012949Y004275D01*
X013509Y004275D01*
X013949Y004275D01*
X013949Y004275D01*
X013949Y004275D01*
X013949Y005275D01*
X012949Y005275D01*
X013509Y005275D01*
X013949Y005275D01*
X013949Y005275D01*
X013949Y005835D01*
X013905Y005835D01*
X013818Y005821D01*
X013734Y005794D01*
X013656Y005754D01*
X013468Y005565D02*
X013430Y005565D01*
X012949Y005565D02*
X012949Y005565D01*
X012949Y005275D02*
X012949Y005275D01*
X012949Y005246D02*
X012949Y005246D01*
X012949Y004928D02*
X012949Y004928D01*
X012949Y004609D02*
X012949Y004609D01*
X012949Y004291D02*
X012949Y004291D01*
X012949Y004275D02*
X012949Y004275D01*
X012949Y003972D02*
X012949Y003972D01*
X012949Y003654D02*
X012949Y003654D01*
X012949Y003335D02*
X012949Y003335D01*
X012949Y003275D02*
X012949Y003275D01*
X012949Y003017D02*
X012949Y003017D01*
X012949Y002698D02*
X012949Y002698D01*
X012949Y002380D02*
X012949Y002380D01*
X012949Y002275D02*
X012949Y002275D01*
X012949Y002061D02*
X012949Y002061D01*
X012949Y001743D02*
X012949Y001743D01*
X012776Y001743D02*
X012075Y001743D01*
X011824Y001743D02*
X010249Y001743D01*
X010232Y001726D02*
X010373Y001867D01*
X010449Y002051D01*
X010449Y002249D01*
X010373Y002433D01*
X010232Y002574D01*
X010049Y002650D01*
X009850Y002650D01*
X009666Y002574D01*
X009525Y002433D01*
X009449Y002249D01*
X009449Y002051D01*
X009525Y001867D01*
X009666Y001726D01*
X009850Y001650D01*
X010049Y001650D01*
X010232Y001726D01*
X010232Y001574D02*
X010049Y001650D01*
X009850Y001650D01*
X009666Y001574D01*
X009525Y001433D01*
X009449Y001249D01*
X009449Y001051D01*
X009525Y000867D01*
X009666Y000726D01*
X009850Y000650D01*
X010049Y000650D01*
X010232Y000726D01*
X010373Y000867D01*
X010449Y001051D01*
X010449Y001249D01*
X010373Y001433D01*
X010232Y001574D01*
X010377Y001424D02*
X013141Y001424D01*
X013166Y001449D02*
X013025Y001308D01*
X012949Y001124D01*
X012949Y000926D01*
X013025Y000742D01*
X013166Y000601D01*
X013350Y000525D01*
X013549Y000525D01*
X013732Y000601D01*
X013873Y000742D01*
X013949Y000926D01*
X013949Y001124D01*
X013873Y001308D01*
X013732Y001449D01*
X013549Y001525D01*
X013350Y001525D01*
X013166Y001449D01*
X013122Y001743D02*
X013776Y001743D01*
X013949Y001743D02*
X013949Y001743D01*
X013949Y001715D02*
X013993Y001715D01*
X014080Y001729D01*
X014164Y001756D01*
X014243Y001796D01*
X014314Y001848D01*
X014376Y001910D01*
X014428Y001981D01*
X014460Y002044D01*
X014491Y001969D01*
X014643Y001817D01*
X014842Y001735D01*
X015056Y001735D01*
X015255Y001817D01*
X015407Y001969D01*
X015489Y002168D01*
X015489Y002382D01*
X015407Y002581D01*
X015255Y002733D01*
X015153Y002775D01*
X015255Y002817D01*
X015407Y002969D01*
X015489Y003168D01*
X015489Y003382D01*
X015407Y003581D01*
X015255Y003733D01*
X015153Y003775D01*
X015255Y003817D01*
X015407Y003969D01*
X015489Y004168D01*
X015489Y004382D01*
X015407Y004581D01*
X015255Y004733D01*
X015153Y004775D01*
X015255Y004817D01*
X015407Y004969D01*
X015489Y005168D01*
X015489Y005382D01*
X015407Y005581D01*
X015255Y005733D01*
X015056Y005815D01*
X014842Y005815D01*
X014643Y005733D01*
X014491Y005581D01*
X014460Y005506D01*
X014428Y005569D01*
X014376Y005640D01*
X014314Y005702D01*
X014243Y005754D01*
X014164Y005794D01*
X014080Y005821D01*
X013993Y005835D01*
X013949Y005835D01*
X013949Y005275D01*
X013949Y005275D01*
X013949Y005275D01*
X013949Y004715D01*
X013949Y004275D01*
X013949Y004275D01*
X013949Y003835D01*
X013949Y003275D01*
X013949Y003275D01*
X013949Y002715D01*
X013949Y002275D01*
X013949Y002275D01*
X013949Y001715D01*
X014122Y001743D02*
X014824Y001743D01*
X015075Y001743D02*
X016012Y001743D01*
X016004Y001752D02*
X016052Y001686D01*
X016110Y001628D01*
X016177Y001580D01*
X016249Y001543D01*
X016327Y001518D01*
X016331Y001517D01*
X016166Y001449D01*
X016025Y001308D01*
X015949Y001124D01*
X015949Y000926D01*
X016025Y000742D01*
X016166Y000601D01*
X016350Y000525D01*
X016549Y000525D01*
X016732Y000601D01*
X016873Y000742D01*
X016949Y000926D01*
X016949Y001124D01*
X016873Y001308D01*
X016732Y001449D01*
X016567Y001517D01*
X016571Y001518D01*
X016649Y001543D01*
X016722Y001580D01*
X016788Y001628D01*
X016846Y001686D01*
X016894Y001752D01*
X016931Y001825D01*
X016956Y001903D01*
X016969Y001984D01*
X016969Y002025D01*
X016969Y002066D01*
X016956Y002147D01*
X016931Y002225D01*
X016894Y002298D01*
X016846Y002364D01*
X016788Y002422D01*
X016722Y002470D01*
X016649Y002507D01*
X016571Y002532D01*
X016490Y002545D01*
X016449Y002545D01*
X016408Y002545D01*
X016327Y002532D01*
X016249Y002507D01*
X016177Y002470D01*
X016110Y002422D01*
X016052Y002364D01*
X016004Y002298D01*
X015967Y002225D01*
X015942Y002147D01*
X015929Y002066D01*
X015929Y002025D01*
X015929Y001984D01*
X015942Y001903D01*
X015967Y001825D01*
X016004Y001752D01*
X015929Y002025D02*
X016449Y002025D01*
X016449Y002025D01*
X015929Y002025D01*
X015929Y002061D02*
X015445Y002061D01*
X015489Y002380D02*
X016068Y002380D01*
X016449Y002380D02*
X016449Y002380D01*
X016449Y002545D02*
X016449Y002025D01*
X016449Y002545D01*
X016830Y002380D02*
X019947Y002380D01*
X019947Y002474D02*
X019947Y002076D01*
X020099Y001707D01*
X020381Y001425D01*
X020750Y001273D01*
X021148Y001273D01*
X021517Y001425D01*
X021799Y001707D01*
X021952Y002076D01*
X021952Y002474D01*
X021799Y002843D01*
X021517Y003125D01*
X021148Y003277D01*
X020750Y003277D01*
X020381Y003125D01*
X020099Y002843D01*
X019947Y002474D01*
X020039Y002698D02*
X015290Y002698D01*
X015426Y003017D02*
X020273Y003017D01*
X019953Y002061D02*
X016969Y002061D01*
X016969Y002025D02*
X016449Y002025D01*
X016449Y002025D01*
X016449Y002025D01*
X016969Y002025D01*
X016887Y001743D02*
X020085Y001743D01*
X020384Y001424D02*
X018132Y001424D01*
X018107Y001449D02*
X018248Y001308D01*
X018324Y001124D01*
X018324Y000926D01*
X018248Y000742D01*
X018107Y000601D01*
X017924Y000525D01*
X017725Y000525D01*
X017541Y000601D01*
X017400Y000742D01*
X017324Y000926D01*
X017324Y001124D01*
X017400Y001308D01*
X017541Y001449D01*
X017725Y001525D01*
X017924Y001525D01*
X018107Y001449D01*
X018324Y001106D02*
X025214Y001106D01*
X025214Y001424D02*
X025136Y001424D01*
X024699Y001424D02*
X024699Y001424D01*
X024699Y001743D02*
X024699Y001743D01*
X024699Y002061D02*
X024699Y002061D01*
X024699Y002380D02*
X024699Y002380D01*
X024699Y002698D02*
X024699Y002698D01*
X024699Y003017D02*
X024699Y003017D01*
X025205Y003017D02*
X025214Y003017D01*
X025214Y003335D02*
X015489Y003335D01*
X015334Y003654D02*
X017460Y003654D01*
X017485Y003628D02*
X017552Y003580D01*
X017624Y003543D01*
X017702Y003518D01*
X017783Y003505D01*
X017824Y003505D01*
X017824Y004025D01*
X017304Y004025D01*
X017304Y003984D01*
X017317Y003903D01*
X017342Y003825D01*
X017379Y003752D01*
X017427Y003686D01*
X017485Y003628D01*
X017824Y003654D02*
X017824Y003654D01*
X017824Y003505D02*
X017865Y003505D01*
X017946Y003518D01*
X018024Y003543D01*
X018097Y003580D01*
X018163Y003628D01*
X018221Y003686D01*
X018269Y003752D01*
X018306Y003825D01*
X018331Y003903D01*
X018344Y003984D01*
X018344Y004025D01*
X018344Y004066D01*
X018331Y004147D01*
X018306Y004225D01*
X018269Y004298D01*
X018221Y004364D01*
X018163Y004422D01*
X018097Y004470D01*
X018024Y004507D01*
X017946Y004532D01*
X017865Y004545D01*
X017824Y004545D01*
X017783Y004545D01*
X017702Y004532D01*
X017624Y004507D01*
X017552Y004470D01*
X017485Y004422D01*
X017427Y004364D01*
X017379Y004298D01*
X017342Y004225D01*
X017317Y004147D01*
X017304Y004066D01*
X017304Y004025D01*
X017824Y004025D01*
X017824Y004025D01*
X017824Y004545D01*
X017824Y004025D01*
X017824Y004025D01*
X017824Y004025D01*
X017824Y003505D01*
X017824Y003972D02*
X017824Y003972D01*
X017824Y004025D02*
X017824Y004025D01*
X018344Y004025D01*
X017824Y004025D01*
X017824Y004291D02*
X017824Y004291D01*
X017376Y004291D02*
X015489Y004291D01*
X015408Y003972D02*
X017306Y003972D01*
X016732Y004601D02*
X016873Y004742D01*
X016949Y004926D01*
X016949Y005124D01*
X016873Y005308D01*
X016732Y005449D01*
X016549Y005525D01*
X016350Y005525D01*
X016166Y005449D01*
X016025Y005308D01*
X015949Y005124D01*
X015949Y004926D01*
X016025Y004742D01*
X016166Y004601D01*
X016350Y004525D01*
X016549Y004525D01*
X016732Y004601D01*
X016740Y004609D02*
X021526Y004609D01*
X021590Y004674D02*
X021452Y004535D01*
X021357Y004306D01*
X021357Y004057D01*
X021452Y003828D01*
X021627Y003653D01*
X021856Y003558D01*
X022105Y003558D01*
X022334Y003653D01*
X022509Y003828D01*
X022604Y004057D01*
X022604Y004306D01*
X022509Y004535D01*
X022371Y004674D01*
X022509Y004812D01*
X022604Y005042D01*
X022604Y005290D01*
X022509Y005519D01*
X022351Y005677D01*
X022486Y005812D01*
X022577Y006031D01*
X022577Y006269D01*
X022486Y006488D01*
X022351Y006623D01*
X022509Y006781D01*
X022604Y007010D01*
X022604Y007258D01*
X022509Y007488D01*
X022371Y007626D01*
X022509Y007765D01*
X022604Y007994D01*
X022604Y008243D01*
X022509Y008472D01*
X022334Y008647D01*
X022105Y008742D01*
X021856Y008742D01*
X021627Y008647D01*
X021452Y008472D01*
X021357Y008243D01*
X021357Y007994D01*
X021452Y007765D01*
X021590Y007626D01*
X021452Y007488D01*
X021357Y007258D01*
X021357Y007010D01*
X021452Y006781D01*
X021610Y006623D01*
X021475Y006488D01*
X021384Y006269D01*
X021384Y006031D01*
X021475Y005812D01*
X021610Y005677D01*
X021452Y005519D01*
X021357Y005290D01*
X021357Y005042D01*
X021452Y004812D01*
X021590Y004674D01*
X021404Y004928D02*
X019309Y004928D01*
X019373Y004992D02*
X019449Y005176D01*
X019449Y005374D01*
X019373Y005558D01*
X019232Y005699D01*
X019115Y005748D01*
X019286Y005818D01*
X019441Y005974D01*
X019597Y005818D01*
X019815Y005728D01*
X020052Y005728D01*
X020270Y005818D01*
X020437Y005986D01*
X020528Y006204D01*
X020528Y006440D01*
X020437Y006659D01*
X020270Y006826D01*
X020052Y006917D01*
X019815Y006917D01*
X019597Y006826D01*
X019441Y006671D01*
X019286Y006826D01*
X019067Y006917D01*
X018831Y006917D01*
X018612Y006826D01*
X018465Y006679D01*
X018433Y006722D01*
X018365Y006791D01*
X018287Y006848D01*
X018201Y006892D01*
X018109Y006921D01*
X018013Y006937D01*
X017965Y006937D01*
X017965Y006322D01*
X017350Y006322D01*
X017350Y006274D01*
X017366Y006178D01*
X017395Y006086D01*
X017439Y006000D01*
X017496Y005922D01*
X017565Y005854D01*
X017643Y005797D01*
X017729Y005753D01*
X017737Y005750D01*
X017677Y005720D01*
X017610Y005672D01*
X017552Y005614D01*
X017504Y005548D01*
X017467Y005475D01*
X017442Y005397D01*
X017429Y005316D01*
X017429Y005275D01*
X017429Y005234D01*
X017442Y005153D01*
X017467Y005075D01*
X017504Y005002D01*
X017552Y004936D01*
X017610Y004878D01*
X017677Y004830D01*
X017749Y004793D01*
X017827Y004768D01*
X017908Y004755D01*
X017949Y004755D01*
X017949Y005275D01*
X017429Y005275D01*
X017949Y005275D01*
X017949Y005275D01*
X017949Y005275D01*
X017949Y004755D01*
X017990Y004755D01*
X018071Y004768D01*
X018149Y004793D01*
X018222Y004830D01*
X018288Y004878D01*
X018346Y004936D01*
X018394Y005002D01*
X018431Y005075D01*
X018456Y005153D01*
X018457Y005157D01*
X018525Y004992D01*
X018666Y004851D01*
X018850Y004775D01*
X019049Y004775D01*
X019232Y004851D01*
X019373Y004992D01*
X019449Y005246D02*
X021357Y005246D01*
X021497Y005565D02*
X019367Y005565D01*
X019350Y005883D02*
X019532Y005883D01*
X020335Y005883D02*
X021446Y005883D01*
X021384Y006202D02*
X020527Y006202D01*
X020495Y006520D02*
X021507Y006520D01*
X021428Y006839D02*
X020240Y006839D01*
X019627Y006839D02*
X019256Y006839D01*
X018642Y006839D02*
X018299Y006839D01*
X017965Y006839D02*
X017965Y006839D01*
X017965Y006937D02*
X017965Y006322D01*
X017965Y006322D01*
X017965Y006322D01*
X017350Y006322D01*
X017350Y006371D01*
X017366Y006466D01*
X017395Y006558D01*
X017439Y006644D01*
X017496Y006722D01*
X017565Y006791D01*
X017643Y006848D01*
X017729Y006892D01*
X017821Y006921D01*
X017916Y006937D01*
X017965Y006937D01*
X017630Y006839D02*
X010240Y006839D01*
X010495Y006520D02*
X012884Y006520D01*
X012824Y006202D02*
X010527Y006202D01*
X010335Y005883D02*
X013009Y005883D01*
X012468Y005565D02*
X012414Y005565D01*
X011484Y005565D02*
X009422Y005565D01*
X009426Y005246D02*
X011409Y005246D01*
X011533Y004928D02*
X009115Y004928D01*
X008783Y004928D02*
X008167Y004928D01*
X007949Y004928D02*
X007949Y004928D01*
X007731Y004928D02*
X005291Y004928D01*
X005238Y005246D02*
X007452Y005246D01*
X007949Y005246D02*
X007949Y005246D01*
X008446Y005246D02*
X008472Y005246D01*
X007965Y006322D02*
X007965Y006322D01*
X007965Y006322D01*
X007350Y006322D01*
X007350Y006371D01*
X007366Y006466D01*
X007395Y006558D01*
X007439Y006644D01*
X007496Y006722D01*
X007565Y006791D01*
X007643Y006848D01*
X007729Y006892D01*
X007821Y006921D01*
X007916Y006937D01*
X007965Y006937D01*
X007965Y006322D01*
X007965Y006520D02*
X007965Y006520D01*
X007965Y006839D02*
X007965Y006839D01*
X007630Y006839D02*
X005226Y006839D01*
X005291Y006520D02*
X007383Y006520D01*
X007362Y006202D02*
X005195Y006202D01*
X005165Y004609D02*
X006751Y004609D01*
X006666Y004574D02*
X006525Y004433D01*
X006449Y004249D01*
X006449Y004051D01*
X006525Y003867D01*
X006666Y003726D01*
X006831Y003658D01*
X006827Y003657D01*
X006749Y003632D01*
X006677Y003595D01*
X006610Y003547D01*
X006552Y003489D01*
X006504Y003423D01*
X006467Y003350D01*
X006442Y003272D01*
X006429Y003191D01*
X006429Y003150D01*
X006429Y003109D01*
X006442Y003028D01*
X006467Y002950D01*
X006504Y002877D01*
X006552Y002811D01*
X006610Y002753D01*
X006677Y002705D01*
X006749Y002668D01*
X006805Y002650D01*
X006749Y002632D01*
X006677Y002595D01*
X006610Y002547D01*
X006552Y002489D01*
X006504Y002423D01*
X006467Y002350D01*
X006442Y002272D01*
X006429Y002191D01*
X006429Y002150D01*
X006429Y002109D01*
X006442Y002028D01*
X006467Y001950D01*
X006504Y001877D01*
X006552Y001811D01*
X006610Y001753D01*
X006677Y001705D01*
X006749Y001668D01*
X006827Y001643D01*
X006831Y001642D01*
X006666Y001574D01*
X006525Y001433D01*
X006449Y001249D01*
X006449Y001051D01*
X006525Y000867D01*
X006666Y000726D01*
X006850Y000650D01*
X007049Y000650D01*
X007232Y000726D01*
X007373Y000867D01*
X007449Y001051D01*
X007449Y001249D01*
X007373Y001433D01*
X007232Y001574D01*
X007067Y001642D01*
X007071Y001643D01*
X007149Y001668D01*
X007222Y001705D01*
X007288Y001753D01*
X007346Y001811D01*
X007394Y001877D01*
X007431Y001950D01*
X007456Y002028D01*
X007469Y002109D01*
X007469Y002150D01*
X006949Y002150D01*
X006429Y002150D01*
X006949Y002150D01*
X006949Y002150D01*
X006949Y002630D01*
X006949Y003150D01*
X006429Y003150D01*
X006949Y003150D01*
X006949Y003150D01*
X006949Y003150D01*
X006949Y002150D01*
X006949Y002150D01*
X007469Y002150D01*
X007469Y002191D01*
X007456Y002272D01*
X007431Y002350D01*
X007394Y002423D01*
X007346Y002489D01*
X007288Y002547D01*
X007222Y002595D01*
X007149Y002632D01*
X007093Y002650D01*
X007149Y002668D01*
X007222Y002705D01*
X007288Y002753D01*
X007346Y002811D01*
X007394Y002877D01*
X007431Y002950D01*
X007456Y003028D01*
X007469Y003109D01*
X007469Y003150D01*
X006949Y003150D01*
X007469Y003150D01*
X007469Y003191D01*
X007456Y003272D01*
X007431Y003350D01*
X007394Y003423D01*
X007346Y003489D01*
X007288Y003547D01*
X007222Y003595D01*
X007149Y003632D01*
X007071Y003657D01*
X007067Y003658D01*
X007232Y003726D01*
X007373Y003867D01*
X007449Y004051D01*
X007449Y004249D01*
X007373Y004433D01*
X007232Y004574D01*
X007049Y004650D01*
X006850Y004650D01*
X006666Y004574D01*
X006466Y004291D02*
X005226Y004291D01*
X005291Y003972D02*
X006482Y003972D01*
X006816Y003654D02*
X005194Y003654D01*
X005184Y003335D02*
X006462Y003335D01*
X006446Y003017D02*
X005264Y003017D01*
X005177Y002698D02*
X006691Y002698D01*
X006949Y002698D02*
X006949Y002698D01*
X007207Y002698D02*
X009734Y002698D01*
X009666Y002726D02*
X009850Y002650D01*
X010049Y002650D01*
X010232Y002726D01*
X010373Y002867D01*
X010449Y003051D01*
X010449Y003249D01*
X010373Y003433D01*
X010232Y003574D01*
X010049Y003650D01*
X010232Y003726D01*
X010373Y003867D01*
X010449Y004051D01*
X010449Y004249D01*
X010373Y004433D01*
X010232Y004574D01*
X010049Y004650D01*
X009850Y004650D01*
X009666Y004574D01*
X009525Y004433D01*
X009449Y004249D01*
X009449Y004051D01*
X009525Y003867D01*
X009666Y003726D01*
X009850Y003650D01*
X010049Y003650D01*
X009850Y003650D01*
X009666Y003574D01*
X009525Y003433D01*
X009449Y003249D01*
X009449Y003051D01*
X009525Y002867D01*
X009666Y002726D01*
X009463Y003017D02*
X007452Y003017D01*
X007436Y003335D02*
X009484Y003335D01*
X009841Y003654D02*
X007082Y003654D01*
X007417Y003972D02*
X009482Y003972D01*
X009466Y004291D02*
X007432Y004291D01*
X007147Y004609D02*
X009751Y004609D01*
X010147Y004609D02*
X011519Y004609D01*
X011409Y004291D02*
X010432Y004291D01*
X010417Y003972D02*
X011490Y003972D01*
X011564Y003654D02*
X010057Y003654D01*
X010414Y003335D02*
X011409Y003335D01*
X011472Y003017D02*
X010435Y003017D01*
X010164Y002698D02*
X011608Y002698D01*
X011409Y002380D02*
X010395Y002380D01*
X010449Y002061D02*
X011453Y002061D01*
X010449Y001106D02*
X012949Y001106D01*
X013006Y000787D02*
X010293Y000787D01*
X009605Y000787D02*
X007293Y000787D01*
X007449Y001106D02*
X009449Y001106D01*
X009521Y001424D02*
X007377Y001424D01*
X007273Y001743D02*
X009649Y001743D01*
X009449Y002061D02*
X007461Y002061D01*
X007416Y002380D02*
X009503Y002380D01*
X006949Y002380D02*
X006949Y002380D01*
X006949Y002150D02*
X006949Y002150D01*
X006482Y002380D02*
X005203Y002380D01*
X005291Y002061D02*
X006437Y002061D01*
X006625Y001743D02*
X005219Y001743D01*
X005182Y001424D02*
X006521Y001424D01*
X006449Y001106D02*
X005291Y001106D01*
X005231Y000787D02*
X006605Y000787D01*
X006949Y003017D02*
X006949Y003017D01*
X006949Y003150D02*
X006949Y003150D01*
X009350Y005883D02*
X009532Y005883D01*
X009627Y006839D02*
X009256Y006839D01*
X008642Y006839D02*
X008299Y006839D01*
X009432Y008750D02*
X009745Y008750D01*
X010153Y008750D02*
X010204Y008750D01*
X009562Y009387D02*
X009346Y009387D01*
X009385Y009705D02*
X009110Y009705D01*
X010013Y009705D02*
X010118Y009705D01*
X010147Y010024D02*
X010542Y010024D01*
X011043Y010024D02*
X011443Y010024D01*
X011460Y009721D02*
X011564Y009472D01*
X011666Y009574D01*
X011831Y009642D01*
X011827Y009643D01*
X011749Y009668D01*
X011677Y009705D01*
X011465Y010342D02*
X010016Y010342D01*
X011141Y012253D02*
X015627Y012253D01*
X015574Y011935D02*
X014173Y011935D01*
X014272Y011616D02*
X015776Y011616D01*
X016372Y011616D02*
X016752Y011616D01*
X016751Y010979D02*
X005064Y010979D01*
X005274Y010661D02*
X006334Y010661D01*
X006126Y010342D02*
X005280Y010342D01*
X005080Y010024D02*
X006193Y010024D01*
X006431Y009705D02*
X005262Y009705D01*
X005291Y009387D02*
X006318Y009387D01*
X006339Y009068D02*
X005109Y009068D01*
X005220Y008750D02*
X006040Y008750D01*
X005876Y008431D02*
X005264Y008431D01*
X004237Y008113D02*
X003169Y008113D01*
X003323Y008431D02*
X004071Y008431D01*
X004115Y008750D02*
X003281Y008750D01*
X003018Y009068D02*
X004227Y009068D01*
X004026Y011935D02*
X003872Y011935D01*
X003026Y011935D02*
X002872Y011935D01*
X004872Y011935D02*
X005026Y011935D01*
X005828Y012890D02*
X007441Y012890D01*
X007661Y013209D02*
X006429Y013209D01*
X006219Y013209D02*
X005989Y013209D01*
X005920Y013846D02*
X005783Y013846D01*
X005988Y014164D02*
X007454Y014164D01*
X007439Y014144D02*
X007395Y014058D01*
X007366Y013966D01*
X007350Y013871D01*
X007350Y013822D01*
X007965Y013822D01*
X007965Y014437D01*
X007916Y014437D01*
X007821Y014421D01*
X007729Y014392D01*
X007643Y014348D01*
X007565Y014291D01*
X007496Y014222D01*
X007439Y014144D01*
X007350Y013846D02*
X006728Y013846D01*
X006758Y013527D02*
X007426Y013527D01*
X007965Y013846D02*
X007965Y013846D01*
X007965Y014164D02*
X007965Y014164D01*
X007949Y012572D02*
X007949Y012572D01*
X008429Y012572D02*
X008492Y012572D01*
X009209Y013209D02*
X013749Y013209D01*
X013626Y012890D02*
X009443Y012890D01*
X009406Y012572D02*
X009487Y012572D01*
X010454Y013527D02*
X010492Y013527D01*
X010432Y014164D02*
X010603Y014164D01*
X009228Y015757D02*
X009189Y015757D01*
X011824Y017668D02*
X012004Y017668D01*
X012025Y017617D02*
X012166Y017476D01*
X012350Y017400D01*
X012549Y017400D01*
X012732Y017476D01*
X012873Y017617D01*
X012949Y017801D01*
X013025Y017617D01*
X013166Y017476D01*
X013350Y017400D01*
X013549Y017400D01*
X013732Y017476D01*
X013873Y017617D01*
X013949Y017801D01*
X014025Y017617D01*
X014166Y017476D01*
X014350Y017400D01*
X014549Y017400D01*
X014732Y017476D01*
X014873Y017617D01*
X014949Y017801D01*
X014949Y017999D01*
X014873Y018183D01*
X014732Y018324D01*
X014549Y018400D01*
X014350Y018400D01*
X014166Y018324D01*
X014025Y018183D01*
X013949Y017999D01*
X013949Y017801D01*
X013949Y017999D01*
X013873Y018183D01*
X013732Y018324D01*
X013549Y018400D01*
X013350Y018400D01*
X013166Y018324D01*
X013025Y018183D01*
X012949Y017999D01*
X012949Y017801D01*
X012949Y017999D01*
X012873Y018183D01*
X012732Y018324D01*
X012549Y018400D01*
X012350Y018400D01*
X012166Y018324D01*
X012025Y018183D01*
X011949Y017999D01*
X011949Y017801D01*
X012025Y017617D01*
X011949Y017986D02*
X011824Y017986D01*
X011824Y018305D02*
X012146Y018305D01*
X012752Y018305D02*
X013146Y018305D01*
X012949Y017986D02*
X012949Y017986D01*
X012894Y017668D02*
X013004Y017668D01*
X012800Y017031D02*
X015098Y017031D01*
X014932Y016712D02*
X012966Y016712D01*
X012903Y016394D02*
X014996Y016394D01*
X015903Y016394D02*
X016199Y016394D01*
X016199Y016712D02*
X015966Y016712D01*
X015800Y017031D02*
X016199Y017031D01*
X016824Y017668D02*
X022293Y017668D01*
X022241Y017719D02*
X022393Y017567D01*
X022495Y017525D01*
X022393Y017483D01*
X022241Y017331D01*
X022159Y017132D01*
X022159Y016918D01*
X022241Y016719D01*
X022393Y016567D01*
X022592Y016485D01*
X022806Y016485D01*
X023005Y016567D01*
X023157Y016719D01*
X023239Y016918D01*
X023239Y017132D01*
X023157Y017331D01*
X023005Y017483D01*
X022903Y017525D01*
X023005Y017567D01*
X023157Y017719D01*
X023239Y017918D01*
X023239Y018132D01*
X023157Y018331D01*
X023005Y018483D01*
X022930Y018514D01*
X022993Y018546D01*
X023064Y018598D01*
X023126Y018660D01*
X023178Y018731D01*
X023218Y018810D01*
X023245Y018894D01*
X023259Y018981D01*
X023259Y019025D01*
X023259Y019069D01*
X023245Y019156D01*
X023218Y019240D01*
X023178Y019319D01*
X023126Y019390D01*
X023064Y019452D01*
X022993Y019504D01*
X022914Y019544D01*
X022830Y019571D01*
X022743Y019585D01*
X022699Y019585D01*
X022655Y019585D01*
X022568Y019571D01*
X022484Y019544D01*
X022406Y019504D01*
X022334Y019452D01*
X022272Y019390D01*
X022220Y019319D01*
X022180Y019240D01*
X022153Y019156D01*
X022139Y019069D01*
X022139Y019025D01*
X022139Y018981D01*
X022153Y018894D01*
X022180Y018810D01*
X022220Y018731D01*
X022272Y018660D01*
X022334Y018598D01*
X022406Y018546D01*
X022468Y018514D01*
X022393Y018483D01*
X022241Y018331D01*
X022159Y018132D01*
X022159Y017918D01*
X022241Y017719D01*
X022159Y017986D02*
X016824Y017986D01*
X016824Y018305D02*
X022230Y018305D01*
X022309Y018623D02*
X016824Y018623D01*
X016824Y018942D02*
X022145Y018942D01*
X022139Y019025D02*
X022699Y019025D01*
X022699Y019025D01*
X022139Y019025D01*
X022190Y019260D02*
X016824Y019260D01*
X016824Y019579D02*
X022614Y019579D01*
X022699Y019579D02*
X022699Y019579D01*
X022699Y019585D02*
X022699Y019025D01*
X022699Y019585D01*
X022784Y019579D02*
X023415Y019579D01*
X023477Y019260D02*
X023208Y019260D01*
X023259Y019025D02*
X022699Y019025D01*
X022699Y019025D01*
X022699Y019025D01*
X023259Y019025D01*
X023253Y018942D02*
X023324Y018942D01*
X023398Y018623D02*
X023089Y018623D01*
X023168Y018305D02*
X023399Y018305D01*
X023324Y017986D02*
X023239Y017986D01*
X023105Y017668D02*
X023474Y017668D01*
X023417Y017349D02*
X023139Y017349D01*
X023239Y017031D02*
X023304Y017031D01*
X023409Y016712D02*
X023150Y016712D01*
X023824Y016712D02*
X023824Y016712D01*
X023824Y016505D02*
X023824Y016275D01*
X023824Y016275D01*
X023824Y016275D01*
X023824Y017025D01*
X023824Y017025D01*
X023824Y016505D01*
X023824Y016394D02*
X023824Y016394D01*
X023824Y016275D02*
X024344Y016275D01*
X024344Y016316D01*
X024331Y016397D01*
X024344Y016275D02*
X023824Y016275D01*
X023824Y016275D01*
X024344Y016275D02*
X024344Y016234D01*
X024331Y016153D01*
X024306Y016075D01*
X024239Y016712D02*
X024623Y016712D01*
X024534Y017031D02*
X024344Y017031D01*
X024231Y017349D02*
X024634Y017349D01*
X024668Y017668D02*
X024174Y017668D01*
X024324Y017986D02*
X024534Y017986D01*
X024605Y018305D02*
X024249Y018305D01*
X024251Y018623D02*
X024684Y018623D01*
X024520Y018942D02*
X024324Y018942D01*
X024171Y019260D02*
X024565Y019260D01*
X024233Y019579D02*
X024989Y019579D01*
X025074Y019579D02*
X025074Y019579D01*
X025159Y019579D02*
X025214Y019579D01*
X025074Y019260D02*
X025074Y019260D01*
X024127Y020853D02*
X023251Y020853D01*
X023323Y021171D02*
X024055Y021171D01*
X024055Y021150D02*
X024699Y021150D01*
X024055Y021150D01*
X024152Y021490D02*
X023234Y021490D01*
X023021Y021942D02*
X023173Y022094D01*
X023255Y022293D01*
X023255Y022507D01*
X023173Y022706D01*
X023021Y022858D01*
X022822Y022940D01*
X022607Y022940D01*
X022409Y022858D01*
X022257Y022706D01*
X022175Y022507D01*
X022175Y022293D01*
X022257Y022094D01*
X022409Y021942D01*
X022607Y021860D01*
X022822Y021860D01*
X023021Y021942D01*
X023186Y022127D02*
X024194Y022127D01*
X024123Y022445D02*
X023255Y022445D01*
X023115Y022764D02*
X024255Y022764D01*
X024395Y023082D02*
X022958Y023082D01*
X023052Y023121D02*
X023228Y023297D01*
X023323Y023526D01*
X023323Y023774D01*
X023228Y024003D01*
X023081Y024150D01*
X023228Y024297D01*
X023323Y024526D01*
X023323Y024774D01*
X023228Y025003D01*
X023052Y025179D01*
X022823Y025274D01*
X022575Y025274D01*
X022346Y025179D01*
X022170Y025003D01*
X022075Y024774D01*
X022075Y024526D01*
X022170Y024297D01*
X022317Y024150D01*
X022170Y024003D01*
X022075Y023774D01*
X022075Y023526D01*
X022170Y023297D01*
X022346Y023121D01*
X022575Y023026D01*
X022823Y023026D01*
X023052Y023121D01*
X023271Y023401D02*
X024105Y023401D01*
X024059Y023719D02*
X023323Y023719D01*
X023194Y024038D02*
X024185Y024038D01*
X024125Y024356D02*
X023253Y024356D01*
X023323Y024675D02*
X024055Y024675D01*
X024154Y024993D02*
X023232Y024993D01*
X023021Y025442D02*
X023173Y025594D01*
X023255Y025793D01*
X023255Y026007D01*
X023173Y026206D01*
X023021Y026358D01*
X022822Y026440D01*
X022607Y026440D01*
X022409Y026358D01*
X022257Y026206D01*
X022175Y026007D01*
X022175Y025793D01*
X022257Y025594D01*
X022409Y025442D01*
X022607Y025360D01*
X022822Y025360D01*
X023021Y025442D01*
X023187Y025630D02*
X024192Y025630D01*
X024124Y025949D02*
X023255Y025949D01*
X023111Y026267D02*
X024258Y026267D01*
X024389Y026586D02*
X022967Y026586D01*
X023272Y026904D02*
X024104Y026904D01*
X024059Y027223D02*
X023323Y027223D01*
X023415Y027541D02*
X023190Y027541D01*
X023699Y027541D02*
X023699Y027541D01*
X023983Y027541D02*
X024188Y027541D01*
X024699Y027541D02*
X024699Y027541D01*
X024699Y027223D02*
X024699Y027223D01*
X024699Y026904D02*
X024699Y026904D01*
X024699Y026586D02*
X024699Y026586D01*
X025009Y026586D02*
X025214Y026586D01*
X025214Y026267D02*
X025108Y026267D01*
X024683Y026267D02*
X024683Y026267D01*
X024683Y025949D02*
X024683Y025949D01*
X024683Y025630D02*
X024683Y025630D01*
X024699Y024993D02*
X024699Y024993D01*
X024699Y024675D02*
X024699Y024675D01*
X024699Y024356D02*
X024699Y024356D01*
X024699Y024038D02*
X024699Y024038D01*
X024699Y023719D02*
X024699Y023719D01*
X024699Y023401D02*
X024699Y023401D01*
X024699Y023082D02*
X024699Y023082D01*
X025003Y023082D02*
X025214Y023082D01*
X025214Y022764D02*
X025111Y022764D01*
X024683Y022764D02*
X024683Y022764D01*
X024683Y022445D02*
X024683Y022445D01*
X024683Y022127D02*
X024683Y022127D01*
X024699Y021794D02*
X024699Y021150D01*
X024699Y021150D01*
X024699Y021150D01*
X024699Y021794D01*
X024699Y021490D02*
X024699Y021490D01*
X024699Y021171D02*
X024699Y021171D01*
X025214Y021808D02*
X021949Y021808D01*
X021949Y021490D02*
X022164Y021490D01*
X022075Y021171D02*
X021949Y021171D01*
X021949Y020853D02*
X022147Y020853D01*
X022244Y022127D02*
X021949Y022127D01*
X021949Y022445D02*
X022175Y022445D01*
X022315Y022764D02*
X021949Y022764D01*
X021949Y023082D02*
X022440Y023082D01*
X022127Y023401D02*
X021949Y023401D01*
X021949Y023719D02*
X022075Y023719D01*
X021949Y024038D02*
X022204Y024038D01*
X022146Y024356D02*
X021949Y024356D01*
X021949Y024675D02*
X022075Y024675D01*
X022166Y024993D02*
X021949Y024993D01*
X021949Y025312D02*
X025214Y025312D01*
X025214Y025630D02*
X025174Y025630D01*
X024699Y027860D02*
X024699Y027860D01*
X024699Y028178D02*
X024699Y028178D01*
X024699Y028497D02*
X024699Y028497D01*
X024395Y028497D02*
X024003Y028497D01*
X024192Y028815D02*
X025214Y028815D01*
X025214Y028497D02*
X025003Y028497D01*
X025214Y029134D02*
X024239Y029134D01*
X024045Y029452D02*
X025214Y029452D01*
X024373Y029771D02*
X020275Y029771D01*
X020361Y030089D02*
X024287Y030089D01*
X024362Y030408D02*
X020286Y030408D01*
X019863Y030726D02*
X024785Y030726D01*
X025036Y030726D02*
X025214Y030726D01*
X023359Y029452D02*
X023061Y029452D01*
X022375Y029452D02*
X022273Y029452D01*
X021587Y029452D02*
X021317Y029452D01*
X020946Y029452D02*
X020946Y029452D01*
X020946Y029134D02*
X020946Y029134D01*
X020699Y028025D02*
X020699Y028025D01*
X020699Y027860D02*
X020699Y027860D01*
X021699Y027860D02*
X021699Y027860D01*
X022126Y026904D02*
X017079Y026904D01*
X017059Y026586D02*
X022432Y026586D01*
X022318Y026267D02*
X016691Y026267D01*
X016574Y026267D02*
X016574Y026267D01*
X016574Y026586D02*
X016574Y026586D01*
X016574Y026775D02*
X016574Y026775D01*
X016574Y026904D02*
X016574Y026904D01*
X016199Y025949D02*
X015074Y025949D01*
X015275Y025683D02*
X015199Y025499D01*
X015199Y025301D01*
X015275Y025117D01*
X015416Y024976D01*
X015600Y024900D01*
X015799Y024900D01*
X015982Y024976D01*
X016123Y025117D01*
X016199Y025301D01*
X016199Y025499D01*
X016123Y025683D01*
X015982Y025824D01*
X015799Y025900D01*
X015600Y025900D01*
X015416Y025824D01*
X015275Y025683D01*
X015253Y025630D02*
X014886Y025630D01*
X014865Y025170D02*
X014824Y025170D01*
X014783Y025170D01*
X014702Y025157D01*
X014624Y025132D01*
X014552Y025095D01*
X014485Y025047D01*
X014427Y024989D01*
X014379Y024923D01*
X014342Y024850D01*
X014317Y024772D01*
X014316Y024768D01*
X014248Y024933D01*
X014107Y025074D01*
X013924Y025150D01*
X013725Y025150D01*
X013541Y025074D01*
X013463Y024996D01*
X013413Y025047D01*
X013347Y025095D01*
X013274Y025132D01*
X013196Y025157D01*
X013115Y025170D01*
X013074Y025170D01*
X013074Y024650D01*
X013074Y024650D01*
X013074Y024650D01*
X013074Y024130D01*
X013115Y024130D01*
X013196Y024143D01*
X013274Y024168D01*
X013347Y024205D01*
X013413Y024253D01*
X013463Y024304D01*
X013541Y024226D01*
X013725Y024150D01*
X013924Y024150D01*
X014107Y024226D01*
X014248Y024367D01*
X014316Y024532D01*
X014317Y024528D01*
X014342Y024450D01*
X014379Y024377D01*
X014427Y024311D01*
X014485Y024253D01*
X014552Y024205D01*
X014624Y024168D01*
X014702Y024143D01*
X014783Y024130D01*
X014824Y024130D01*
X014824Y024650D01*
X014824Y025170D01*
X014824Y024650D01*
X014824Y024650D01*
X014824Y024650D01*
X014824Y024130D01*
X014865Y024130D01*
X014946Y024143D01*
X015024Y024168D01*
X015097Y024205D01*
X015163Y024253D01*
X015221Y024311D01*
X015269Y024377D01*
X015306Y024450D01*
X015331Y024528D01*
X015344Y024609D01*
X015344Y024650D01*
X014824Y024650D01*
X015344Y024650D01*
X015344Y024691D01*
X015331Y024772D01*
X015306Y024850D01*
X015269Y024923D01*
X015221Y024989D01*
X015163Y025047D01*
X015097Y025095D01*
X015024Y025132D01*
X014946Y025157D01*
X014865Y025170D01*
X014824Y024993D02*
X014824Y024993D01*
X014824Y024675D02*
X014824Y024675D01*
X014824Y024650D02*
X014824Y024650D01*
X014824Y024356D02*
X014824Y024356D01*
X014395Y024356D02*
X014237Y024356D01*
X014214Y023719D02*
X011684Y023719D01*
X011495Y024038D02*
X016199Y024038D01*
X016199Y024356D02*
X015253Y024356D01*
X015344Y024675D02*
X016199Y024675D01*
X016199Y024993D02*
X015999Y024993D01*
X016199Y025312D02*
X016199Y025312D01*
X016199Y025630D02*
X016145Y025630D01*
X016824Y025312D02*
X021199Y025312D01*
X021199Y024993D02*
X021117Y024993D01*
X020468Y024993D02*
X017430Y024993D01*
X017792Y024675D02*
X020106Y024675D01*
X020005Y024356D02*
X017893Y024356D01*
X017860Y024038D02*
X020039Y024038D01*
X020235Y023719D02*
X017663Y023719D01*
X016824Y023401D02*
X021199Y023401D01*
X021199Y023082D02*
X016824Y023082D01*
X016824Y022764D02*
X021199Y022764D01*
X021199Y022445D02*
X016824Y022445D01*
X016824Y022127D02*
X021199Y022127D01*
X021199Y021808D02*
X020288Y021808D01*
X020270Y021826D02*
X020052Y021917D01*
X019815Y021917D01*
X019597Y021826D01*
X019441Y021671D01*
X019286Y021826D01*
X019067Y021917D01*
X018831Y021917D01*
X018612Y021826D01*
X018465Y021679D01*
X018433Y021722D01*
X018365Y021791D01*
X018287Y021848D01*
X018201Y021892D01*
X018109Y021921D01*
X018013Y021937D01*
X017965Y021937D01*
X017965Y021322D01*
X017350Y021322D01*
X017350Y021274D01*
X017366Y021178D01*
X017395Y021086D01*
X017439Y021000D01*
X017496Y020922D01*
X017565Y020854D01*
X017643Y020797D01*
X017729Y020753D01*
X017737Y020750D01*
X017677Y020720D01*
X017610Y020672D01*
X017552Y020614D01*
X017504Y020548D01*
X017467Y020475D01*
X017442Y020397D01*
X017429Y020316D01*
X017429Y020275D01*
X017429Y020234D01*
X017442Y020153D01*
X017467Y020075D01*
X017504Y020002D01*
X017552Y019936D01*
X017610Y019878D01*
X017677Y019830D01*
X017749Y019793D01*
X017827Y019768D01*
X017908Y019755D01*
X017949Y019755D01*
X017949Y020275D01*
X017429Y020275D01*
X017949Y020275D01*
X017949Y020275D01*
X017949Y020275D01*
X017949Y019755D01*
X017990Y019755D01*
X018071Y019768D01*
X018149Y019793D01*
X018222Y019830D01*
X018288Y019878D01*
X018346Y019936D01*
X018394Y020002D01*
X018431Y020075D01*
X018456Y020153D01*
X018457Y020157D01*
X018525Y019992D01*
X018666Y019851D01*
X018850Y019775D01*
X019049Y019775D01*
X019232Y019851D01*
X019373Y019992D01*
X019449Y020176D01*
X019449Y020374D01*
X019373Y020558D01*
X019232Y020699D01*
X019115Y020748D01*
X019286Y020818D01*
X019441Y020974D01*
X019597Y020818D01*
X019815Y020728D01*
X020052Y020728D01*
X020270Y020818D01*
X020437Y020986D01*
X020528Y021204D01*
X020528Y021440D01*
X020437Y021659D01*
X020270Y021826D01*
X020507Y021490D02*
X021199Y021490D01*
X021199Y021171D02*
X020514Y021171D01*
X020304Y020853D02*
X021199Y020853D01*
X021199Y020534D02*
X019383Y020534D01*
X019320Y020853D02*
X019563Y020853D01*
X019449Y020216D02*
X021199Y020216D01*
X021199Y019897D02*
X019278Y019897D01*
X018620Y019897D02*
X018306Y019897D01*
X017949Y019897D02*
X017949Y019897D01*
X017949Y020216D02*
X017949Y020216D01*
X017592Y019897D02*
X016824Y019897D01*
X016824Y020216D02*
X017432Y020216D01*
X017497Y020534D02*
X016824Y020534D01*
X016824Y020853D02*
X017566Y020853D01*
X017368Y021171D02*
X016824Y021171D01*
X016824Y021490D02*
X017373Y021490D01*
X017366Y021466D02*
X017395Y021558D01*
X017439Y021644D01*
X017496Y021722D01*
X017565Y021791D01*
X017643Y021848D01*
X017729Y021892D01*
X017821Y021921D01*
X017916Y021937D01*
X017965Y021937D01*
X017965Y021322D01*
X017965Y021322D01*
X017965Y021322D01*
X017350Y021322D01*
X017350Y021371D01*
X017366Y021466D01*
X017588Y021808D02*
X016824Y021808D01*
X017965Y021808D02*
X017965Y021808D01*
X017965Y021490D02*
X017965Y021490D01*
X018341Y021808D02*
X018594Y021808D01*
X019304Y021808D02*
X019579Y021808D01*
X021949Y025630D02*
X022242Y025630D01*
X022175Y025949D02*
X021949Y025949D01*
X023699Y027860D02*
X023699Y027860D01*
X023699Y028025D02*
X023699Y028025D01*
X025172Y022127D02*
X025214Y022127D01*
X022699Y019260D02*
X022699Y019260D01*
X022259Y017349D02*
X021332Y017349D01*
X021539Y017031D02*
X022159Y017031D01*
X022248Y016712D02*
X021580Y016712D01*
X022266Y015757D02*
X017140Y015757D01*
X017096Y015438D02*
X022139Y015438D01*
X022213Y015120D02*
X016145Y015120D01*
X016147Y015114D02*
X016079Y015279D01*
X015953Y015405D01*
X015788Y015473D01*
X015610Y015473D01*
X015445Y015405D01*
X015319Y015279D01*
X015251Y015114D01*
X015251Y014936D01*
X015319Y014771D01*
X015445Y014645D01*
X015610Y014577D01*
X015788Y014577D01*
X015953Y014645D01*
X016079Y014771D01*
X016147Y014936D01*
X016147Y015114D01*
X016091Y014801D02*
X022336Y014801D01*
X022159Y014483D02*
X016239Y014483D01*
X016235Y014483D02*
X016199Y014483D01*
X016163Y014483D01*
X016092Y014472D01*
X016023Y014450D01*
X015959Y014417D01*
X015901Y014374D01*
X015850Y014323D01*
X015807Y014265D01*
X015775Y014201D01*
X015752Y014132D01*
X015741Y014061D01*
X015741Y014025D01*
X015741Y013989D01*
X015752Y013918D01*
X015775Y013849D01*
X015807Y013785D01*
X015850Y013727D01*
X015901Y013676D01*
X015959Y013633D01*
X016023Y013600D01*
X016092Y013578D01*
X016163Y013567D01*
X016199Y013567D01*
X016199Y014025D01*
X015741Y014025D01*
X016199Y014025D01*
X016199Y014025D01*
X016199Y014025D01*
X016199Y014483D01*
X016199Y014025D01*
X016199Y014025D01*
X016199Y013567D01*
X016235Y013567D01*
X016306Y013578D01*
X016375Y013600D01*
X016439Y013633D01*
X016497Y013676D01*
X016548Y013727D01*
X016591Y013785D01*
X016624Y013849D01*
X016646Y013918D01*
X016657Y013989D01*
X016657Y014025D01*
X016657Y014061D01*
X016646Y014132D01*
X016624Y014201D01*
X016591Y014265D01*
X016548Y014323D01*
X016497Y014374D01*
X016439Y014417D01*
X016375Y014450D01*
X016306Y014472D01*
X016235Y014483D01*
X016199Y014483D02*
X016199Y014483D01*
X016159Y014483D02*
X005948Y014483D01*
X006001Y014801D02*
X005716Y014801D01*
X011949Y010342D02*
X011949Y010342D01*
X012221Y009705D02*
X016431Y009705D01*
X016318Y009387D02*
X016218Y009387D01*
X016216Y009390D02*
X016173Y009448D01*
X016122Y009499D01*
X016064Y009542D01*
X016000Y009575D01*
X015931Y009597D01*
X015860Y009608D01*
X015824Y009608D01*
X015788Y009608D01*
X015717Y009597D01*
X015648Y009575D01*
X015584Y009542D01*
X015526Y009499D01*
X015475Y009448D01*
X015432Y009390D01*
X015400Y009326D01*
X015377Y009257D01*
X015366Y009186D01*
X015366Y009150D01*
X015366Y009114D01*
X015377Y009043D01*
X015400Y008974D01*
X015432Y008910D01*
X015475Y008852D01*
X015526Y008801D01*
X015584Y008758D01*
X015648Y008725D01*
X015717Y008703D01*
X015788Y008692D01*
X015824Y008692D01*
X015824Y009150D01*
X015366Y009150D01*
X015824Y009150D01*
X015824Y009150D01*
X015824Y009150D01*
X015824Y009608D01*
X015824Y009150D01*
X015824Y009150D01*
X015824Y008692D01*
X015860Y008692D01*
X015931Y008703D01*
X016000Y008725D01*
X016064Y008758D01*
X016122Y008801D01*
X016173Y008852D01*
X016216Y008910D01*
X016249Y008974D01*
X016271Y009043D01*
X016282Y009114D01*
X016282Y009150D01*
X016282Y009186D01*
X016271Y009257D01*
X016249Y009326D01*
X016216Y009390D01*
X016282Y009150D02*
X015824Y009150D01*
X015824Y009150D01*
X016282Y009150D01*
X016275Y009068D02*
X016339Y009068D01*
X016517Y008750D02*
X016047Y008750D01*
X015824Y008750D02*
X015824Y008750D01*
X015601Y008750D02*
X012256Y008750D01*
X012272Y008431D02*
X021435Y008431D01*
X021239Y008607D02*
X021460Y008829D01*
X021580Y009118D01*
X021580Y009432D01*
X021460Y009721D01*
X021239Y009943D01*
X020949Y010062D01*
X020636Y010062D01*
X020346Y009943D01*
X020125Y009721D01*
X020005Y009432D01*
X020005Y009118D01*
X020125Y008829D01*
X020346Y008607D01*
X020636Y008488D01*
X020949Y008488D01*
X021239Y008607D01*
X021381Y008750D02*
X025214Y008750D01*
X024767Y009068D02*
X024073Y009068D01*
X023824Y009068D02*
X023824Y009068D01*
X023576Y009068D02*
X023006Y009068D01*
X023226Y009387D02*
X023322Y009387D01*
X023336Y009705D02*
X023209Y009705D01*
X022907Y010024D02*
X023676Y010024D01*
X023973Y010024D02*
X024866Y010024D01*
X024565Y010342D02*
X024289Y010342D01*
X024309Y010661D02*
X024546Y010661D01*
X024764Y010979D02*
X024110Y010979D01*
X024323Y011298D02*
X024561Y011298D01*
X024521Y011616D02*
X024276Y011616D01*
X024056Y011935D02*
X024692Y011935D01*
X024323Y012253D02*
X025214Y012253D01*
X025214Y012572D02*
X024315Y012572D01*
X025129Y012890D02*
X025214Y012890D01*
X025074Y011935D02*
X025074Y011935D01*
X025074Y011616D02*
X025074Y011616D01*
X024564Y009705D02*
X024312Y009705D01*
X024344Y009525D02*
X023824Y009525D01*
X023824Y009525D01*
X024344Y009525D01*
X024326Y009387D02*
X024547Y009387D01*
X023824Y009387D02*
X023824Y009387D01*
X023359Y010342D02*
X023208Y010342D01*
X023227Y010661D02*
X023339Y010661D01*
X023538Y010979D02*
X023009Y010979D01*
X023212Y011298D02*
X023325Y011298D01*
X023372Y011616D02*
X023252Y011616D01*
X023325Y012253D02*
X021647Y012253D01*
X021536Y012572D02*
X023333Y012572D01*
X022317Y011935D02*
X021492Y011935D01*
X020906Y011935D02*
X017586Y011935D01*
X017949Y012572D02*
X017949Y012572D01*
X017949Y012890D02*
X017949Y012890D01*
X017949Y012900D02*
X017949Y012900D01*
X018353Y012572D02*
X018570Y012572D01*
X019348Y013209D02*
X022194Y013209D01*
X022167Y013527D02*
X020454Y013527D01*
X020528Y013846D02*
X022381Y013846D01*
X022212Y014164D02*
X020432Y014164D01*
X020425Y016075D02*
X017473Y016075D01*
X017800Y016394D02*
X020098Y016394D01*
X020005Y016712D02*
X017893Y016712D01*
X017852Y017031D02*
X020046Y017031D01*
X020253Y017349D02*
X017645Y017349D01*
X016302Y015438D02*
X015873Y015438D01*
X015525Y015438D02*
X012248Y015438D01*
X012520Y015120D02*
X015253Y015120D01*
X015307Y014801D02*
X012466Y014801D01*
X012267Y014164D02*
X015763Y014164D01*
X015776Y013846D02*
X012449Y013846D01*
X013894Y017668D02*
X014004Y017668D01*
X013949Y017986D02*
X013949Y017986D01*
X013752Y018305D02*
X014146Y018305D01*
X014752Y018305D02*
X015146Y018305D01*
X014949Y017986D02*
X014949Y017986D01*
X014894Y017668D02*
X015004Y017668D01*
X013732Y020476D02*
X013549Y020400D01*
X013350Y020400D01*
X013166Y020476D01*
X013025Y020617D01*
X012949Y020801D01*
X012949Y020999D01*
X013025Y021183D01*
X013166Y021324D01*
X013350Y021400D01*
X013549Y021400D01*
X013732Y021324D01*
X013873Y021183D01*
X013949Y020999D01*
X013949Y020801D01*
X013873Y020617D01*
X013732Y020476D01*
X013790Y020534D02*
X014108Y020534D01*
X013949Y020853D02*
X013949Y020853D01*
X013878Y021171D02*
X014020Y021171D01*
X013108Y020534D02*
X012790Y020534D01*
X012949Y020853D02*
X012949Y020853D01*
X012878Y021171D02*
X013020Y021171D01*
X013988Y023082D02*
X011910Y023082D01*
X011938Y023401D02*
X013960Y023401D01*
X014684Y023719D02*
X016199Y023719D01*
X016199Y023401D02*
X014938Y023401D01*
X015216Y024993D02*
X015399Y024993D01*
X015199Y025312D02*
X011199Y025312D01*
X011199Y025630D02*
X011262Y025630D01*
X011313Y024993D02*
X011710Y024993D01*
X011574Y024675D02*
X011531Y024675D01*
X011580Y024356D02*
X011661Y024356D01*
X011214Y023719D02*
X011206Y023719D01*
X011199Y022764D02*
X011447Y022764D01*
X012487Y024356D02*
X012645Y024356D01*
X013074Y024356D02*
X013074Y024356D01*
X013074Y024675D02*
X013074Y024675D01*
X013074Y024993D02*
X013074Y024993D01*
X012682Y024993D02*
X012438Y024993D01*
X012610Y025702D02*
X012445Y025770D01*
X012319Y025896D01*
X012251Y026061D01*
X012251Y026239D01*
X012319Y026404D01*
X012445Y026530D01*
X012610Y026598D01*
X012788Y026598D01*
X012953Y026530D01*
X013079Y026404D01*
X013147Y026239D01*
X013147Y026061D01*
X013079Y025896D01*
X012953Y025770D01*
X012788Y025702D01*
X012610Y025702D01*
X012297Y025949D02*
X012074Y025949D01*
X012015Y026267D02*
X012262Y026267D01*
X012580Y026586D02*
X011820Y026586D01*
X011674Y026525D02*
X011475Y026525D01*
X011291Y026601D01*
X011199Y026693D01*
X011199Y026357D01*
X011291Y026449D01*
X011475Y026525D01*
X011674Y026525D01*
X011328Y026586D02*
X011199Y026586D01*
X012065Y026904D02*
X014083Y026904D01*
X014115Y027223D02*
X012033Y027223D01*
X012297Y027860D02*
X012601Y027860D01*
X013297Y027860D02*
X013601Y027860D01*
X014297Y027860D02*
X014601Y027860D01*
X014328Y026586D02*
X012819Y026586D01*
X013136Y026267D02*
X014133Y026267D01*
X014074Y025949D02*
X013101Y025949D01*
X014262Y025630D02*
X011886Y025630D01*
X011601Y027860D02*
X011297Y027860D01*
X010601Y027860D02*
X010297Y027860D01*
X009601Y027860D02*
X009297Y027860D01*
X007324Y030089D02*
X007324Y030089D01*
X007324Y030150D02*
X007324Y030150D01*
X007324Y030408D02*
X007324Y030408D01*
X009334Y031682D02*
X009592Y031682D01*
X010306Y031682D02*
X010592Y031682D01*
X011306Y031682D02*
X011592Y031682D01*
X012306Y031682D02*
X012592Y031682D01*
X013306Y031682D02*
X013592Y031682D01*
X014306Y031682D02*
X014592Y031682D01*
X015306Y031682D02*
X015592Y031682D01*
X016306Y031682D02*
X016592Y031682D01*
X017306Y031682D02*
X017592Y031682D01*
X017449Y032956D02*
X017449Y032956D01*
X017933Y032956D02*
X017988Y032956D01*
X016694Y032956D02*
X016694Y032956D01*
X016694Y033150D02*
X016694Y033150D01*
X016210Y032956D02*
X016155Y032956D01*
X014402Y032956D02*
X014286Y032956D01*
X014344Y033096D02*
X014344Y033294D01*
X014344Y033096D01*
X014344Y033274D02*
X014344Y033274D01*
X014344Y033294D02*
X014420Y033478D01*
X014482Y033540D01*
X014206Y033540D01*
X014268Y033478D01*
X014344Y033294D01*
X017949Y030275D02*
X017949Y030275D01*
X014432Y024993D02*
X014188Y024993D01*
X009084Y032956D02*
X001309Y032956D01*
X001309Y033274D02*
X009128Y033274D01*
X022699Y015757D02*
X022699Y015757D01*
X022699Y015438D02*
X022699Y015438D01*
X023824Y017025D02*
X023824Y017025D01*
X024949Y015757D02*
X024949Y015757D01*
X024949Y015438D02*
X024949Y015438D01*
X022491Y010024D02*
X021043Y010024D01*
X020542Y010024D02*
X017356Y010024D01*
X017780Y009705D02*
X020118Y009705D01*
X020005Y009387D02*
X017893Y009387D01*
X017872Y009068D02*
X018921Y009068D01*
X018954Y009149D02*
X018886Y008984D01*
X018886Y008806D01*
X018954Y008641D01*
X019080Y008515D01*
X019245Y008447D01*
X019423Y008447D01*
X019588Y008515D01*
X019714Y008641D01*
X019782Y008806D01*
X019782Y008984D01*
X019714Y009149D01*
X019588Y009275D01*
X019423Y009343D01*
X019245Y009343D01*
X019080Y009275D01*
X018954Y009149D01*
X018909Y008750D02*
X017694Y008750D01*
X016669Y007794D02*
X021440Y007794D01*
X021447Y007476D02*
X016897Y007476D01*
X016833Y007157D02*
X021357Y007157D01*
X021357Y008113D02*
X012170Y008113D01*
X012449Y009068D02*
X015373Y009068D01*
X015430Y009387D02*
X012392Y009387D01*
X013949Y005565D02*
X013949Y005565D01*
X013949Y005246D02*
X013949Y005246D01*
X013949Y004928D02*
X013949Y004928D01*
X013949Y004609D02*
X013949Y004609D01*
X013949Y004291D02*
X013949Y004291D01*
X013949Y003972D02*
X013949Y003972D01*
X013949Y003654D02*
X013949Y003654D01*
X013949Y003335D02*
X013949Y003335D01*
X013949Y003017D02*
X013949Y003017D01*
X013949Y002698D02*
X013949Y002698D01*
X013949Y002380D02*
X013949Y002380D01*
X013949Y002061D02*
X013949Y002061D01*
X013757Y001424D02*
X016141Y001424D01*
X015949Y001106D02*
X013949Y001106D01*
X013892Y000787D02*
X016006Y000787D01*
X016757Y001424D02*
X017516Y001424D01*
X017324Y001106D02*
X016949Y001106D01*
X016892Y000787D02*
X017381Y000787D01*
X018267Y000787D02*
X025214Y000787D01*
X024262Y001424D02*
X024136Y001424D01*
X023699Y001424D02*
X023699Y001424D01*
X023699Y001743D02*
X023699Y001743D01*
X023699Y001775D02*
X023699Y001775D01*
X023699Y002061D02*
X023699Y002061D01*
X023699Y002380D02*
X023699Y002380D01*
X023699Y002698D02*
X023699Y002698D01*
X023699Y002775D02*
X023699Y002775D01*
X023699Y003017D02*
X023699Y003017D01*
X023194Y003017D02*
X021625Y003017D01*
X021859Y002698D02*
X023144Y002698D01*
X023303Y002380D02*
X021952Y002380D01*
X021946Y002061D02*
X023216Y002061D01*
X023139Y001743D02*
X021814Y001743D01*
X021514Y001424D02*
X023262Y001424D01*
X023666Y003654D02*
X022335Y003654D01*
X022569Y003972D02*
X023390Y003972D01*
X023353Y004291D02*
X022604Y004291D01*
X022435Y004609D02*
X023533Y004609D01*
X023742Y005539D02*
X023823Y005517D01*
X023907Y005506D01*
X023949Y005506D01*
X023949Y006150D01*
X023305Y006150D01*
X023305Y006108D01*
X023316Y006024D01*
X023338Y005943D01*
X023370Y005865D01*
X023413Y005792D01*
X023464Y005725D01*
X023524Y005665D01*
X023591Y005614D01*
X023664Y005571D01*
X023742Y005539D01*
X023680Y005565D02*
X022464Y005565D01*
X022515Y005883D02*
X023363Y005883D01*
X023305Y006150D02*
X023949Y006150D01*
X023949Y006150D01*
X023949Y006150D01*
X023949Y006794D01*
X023907Y006794D01*
X023823Y006783D01*
X023742Y006761D01*
X023664Y006729D01*
X023591Y006686D01*
X023524Y006635D01*
X023464Y006575D01*
X023413Y006508D01*
X023370Y006435D01*
X023338Y006357D01*
X023316Y006276D01*
X023305Y006192D01*
X023305Y006150D01*
X023306Y006202D02*
X022577Y006202D01*
X022454Y006520D02*
X023421Y006520D01*
X023949Y006520D02*
X023949Y006520D01*
X023949Y006794D02*
X023949Y006150D01*
X023949Y006150D01*
X023949Y005506D01*
X023991Y005506D01*
X024075Y005517D01*
X024156Y005539D01*
X024234Y005571D01*
X024308Y005614D01*
X024374Y005665D01*
X024434Y005725D01*
X024486Y005792D01*
X024528Y005865D01*
X024560Y005943D01*
X024582Y006024D01*
X024593Y006108D01*
X024593Y006150D01*
X024593Y006192D01*
X024582Y006276D01*
X024560Y006357D01*
X024528Y006435D01*
X024486Y006508D01*
X024434Y006575D01*
X024374Y006635D01*
X024308Y006686D01*
X024234Y006729D01*
X024156Y006761D01*
X024075Y006783D01*
X023991Y006794D01*
X023949Y006794D01*
X023949Y006202D02*
X023949Y006202D01*
X023949Y006150D02*
X024593Y006150D01*
X023949Y006150D01*
X023949Y006150D01*
X023949Y005883D02*
X023949Y005883D01*
X023949Y005565D02*
X023949Y005565D01*
X024218Y005565D02*
X025214Y005565D01*
X025214Y005883D02*
X024535Y005883D01*
X024592Y006202D02*
X025214Y006202D01*
X025214Y006520D02*
X024477Y006520D01*
X025214Y006839D02*
X022533Y006839D01*
X022604Y007157D02*
X025214Y007157D01*
X025214Y007476D02*
X022514Y007476D01*
X022521Y007794D02*
X023438Y007794D01*
X023353Y008113D02*
X022604Y008113D01*
X022526Y008431D02*
X023433Y008431D01*
X022392Y009068D02*
X021559Y009068D01*
X021580Y009387D02*
X022172Y009387D01*
X022189Y009705D02*
X021467Y009705D01*
X020026Y009068D02*
X019747Y009068D01*
X019759Y008750D02*
X020204Y008750D01*
X017965Y006520D02*
X017965Y006520D01*
X017383Y006520D02*
X016764Y006520D01*
X016824Y006202D02*
X017362Y006202D01*
X017535Y005883D02*
X016639Y005883D01*
X016899Y005246D02*
X017429Y005246D01*
X017517Y005565D02*
X015414Y005565D01*
X015489Y005246D02*
X015999Y005246D01*
X015949Y004928D02*
X015365Y004928D01*
X015379Y004609D02*
X016158Y004609D01*
X016949Y004928D02*
X017561Y004928D01*
X017949Y004928D02*
X017949Y004928D01*
X017949Y005246D02*
X017949Y005246D01*
X018337Y004928D02*
X018589Y004928D01*
X018272Y004291D02*
X021357Y004291D01*
X021392Y003972D02*
X018342Y003972D01*
X018188Y003654D02*
X021626Y003654D01*
X022557Y004928D02*
X025214Y004928D01*
X025214Y005246D02*
X022604Y005246D01*
X024232Y003654D02*
X024650Y003654D01*
X024518Y004609D02*
X024365Y004609D01*
X017965Y013822D02*
X017350Y013822D01*
X017350Y013871D01*
X017366Y013966D01*
X017395Y014058D01*
X017439Y014144D01*
X017496Y014222D01*
X017565Y014291D01*
X017643Y014348D01*
X017729Y014392D01*
X017821Y014421D01*
X017916Y014437D01*
X017965Y014437D01*
X017965Y013822D01*
X017965Y013846D02*
X017965Y013846D01*
X017965Y014164D02*
X017965Y014164D01*
X017454Y014164D02*
X016636Y014164D01*
X016657Y014025D02*
X016199Y014025D01*
X016199Y014025D01*
X016657Y014025D01*
X016622Y013846D02*
X017350Y013846D01*
X016607Y012253D02*
X016521Y012253D01*
X016199Y013846D02*
X016199Y013846D01*
X016199Y014164D02*
X016199Y014164D01*
X015824Y009387D02*
X015824Y009387D01*
X015824Y009068D02*
X015824Y009068D01*
X014484Y005565D02*
X014430Y005565D01*
X016449Y002061D02*
X016449Y002061D01*
X004158Y002698D02*
X003254Y002698D01*
X003236Y002667D02*
X003278Y002740D01*
X003310Y002818D01*
X003332Y002899D01*
X003343Y002983D01*
X003343Y003025D01*
X003343Y003067D01*
X003332Y003151D01*
X003310Y003232D01*
X003278Y003310D01*
X003236Y003383D01*
X003184Y003450D01*
X003124Y003510D01*
X003058Y003561D01*
X002984Y003604D01*
X002906Y003636D01*
X002825Y003658D01*
X002741Y003669D01*
X002699Y003669D01*
X002657Y003669D01*
X002573Y003658D01*
X002492Y003636D01*
X002414Y003604D01*
X002341Y003561D01*
X002274Y003510D01*
X002214Y003450D01*
X002163Y003383D01*
X002120Y003310D01*
X002088Y003232D01*
X002066Y003151D01*
X002055Y003067D01*
X002055Y003025D01*
X002055Y002983D01*
X002066Y002899D01*
X002088Y002818D01*
X002120Y002740D01*
X002163Y002667D01*
X002214Y002600D01*
X002274Y002540D01*
X002341Y002489D01*
X002414Y002446D01*
X002492Y002414D01*
X002573Y002392D01*
X002657Y002381D01*
X002699Y002381D01*
X002699Y003025D01*
X002055Y003025D01*
X002699Y003025D01*
X002699Y003025D01*
X002699Y003025D01*
X002699Y003669D01*
X002699Y003025D01*
X002699Y003025D01*
X002699Y002381D01*
X002741Y002381D01*
X002825Y002392D01*
X002906Y002414D01*
X002984Y002446D01*
X003058Y002489D01*
X003124Y002540D01*
X003184Y002600D01*
X003236Y002667D01*
X003343Y003017D02*
X004071Y003017D01*
X004151Y003335D02*
X003264Y003335D01*
X003343Y003025D02*
X002699Y003025D01*
X002699Y003025D01*
X003343Y003025D01*
X002699Y003017D02*
X002699Y003017D01*
X002699Y003335D02*
X002699Y003335D01*
X002699Y003654D02*
X002699Y003654D01*
X002557Y003654D02*
X001309Y003654D01*
X001309Y003972D02*
X004044Y003972D01*
X004141Y003654D02*
X002841Y003654D01*
X002135Y003335D02*
X001309Y003335D01*
X001309Y003017D02*
X002055Y003017D01*
X002144Y002698D02*
X001309Y002698D01*
X001309Y002380D02*
X004133Y002380D01*
X004044Y002061D02*
X001309Y002061D01*
X001309Y001743D02*
X004116Y001743D01*
X004153Y001424D02*
X003175Y001424D01*
X003295Y001106D02*
X004044Y001106D01*
X004104Y000787D02*
X003233Y000787D01*
X002223Y001424D02*
X002190Y001424D01*
X002699Y002698D02*
X002699Y002698D01*
X002240Y004609D02*
X002173Y004609D01*
D20*
X006324Y008400D03*
X006574Y010275D03*
X008699Y009525D03*
X009074Y009025D03*
X009699Y010025D03*
X009949Y009150D03*
X011824Y008400D03*
X013824Y011650D03*
X014074Y012900D03*
X015699Y015025D03*
X016199Y014025D03*
X016699Y015650D03*
X014824Y015900D03*
X012074Y015025D03*
X010699Y012150D03*
X009824Y012275D03*
X008324Y015650D03*
X008824Y016025D03*
X009449Y016150D03*
X009574Y016900D03*
X008699Y017650D03*
X006199Y018525D03*
X006324Y013650D03*
X015824Y009150D03*
X016449Y007400D03*
X017199Y010900D03*
X019334Y008895D03*
X021199Y012275D03*
X020449Y012525D03*
X012699Y026150D03*
X008074Y027525D03*
X007324Y030150D03*
X018824Y028900D03*
X018824Y028275D03*
X019449Y028275D03*
X019449Y028900D03*
D21*
X016699Y014025D02*
X016199Y014025D01*
X015824Y009525D02*
X015824Y009150D01*
X007199Y030025D02*
X006949Y030275D01*
X007199Y030025D02*
X007324Y030150D01*
D22*
X008074Y020400D02*
X007074Y019400D01*
X007074Y019025D01*
X006949Y018025D01*
X006449Y017775D01*
X004949Y017775D01*
M02*
