%TF.GenerationSoftware,KiCad,Pcbnew,9.0.4*%
%TF.CreationDate,2026-07-16T16:31:58-04:00*%
%TF.ProjectId,stm32H7_experimenter10,73746d33-3248-4375-9f65-78706572696d,rev?*%
%TF.SameCoordinates,Original*%
%TF.FileFunction,Soldermask,Bot*%
%TF.FilePolarity,Negative*%
%FSLAX46Y46*%
G04 Gerber Fmt 4.6, Leading zero omitted, Abs format (unit mm)*
G04 Created by KiCad (PCBNEW 9.0.4) date 2026-07-16 16:31:58*
%MOMM*%
%LPD*%
G01*
G04 APERTURE LIST*
G04 Aperture macros list*
%AMRoundRect*
0 Rectangle with rounded corners*
0 $1 Rounding radius*
0 $2 $3 $4 $5 $6 $7 $8 $9 X,Y pos of 4 corners*
0 Add a 4 corners polygon primitive as box body*
4,1,4,$2,$3,$4,$5,$6,$7,$8,$9,$2,$3,0*
0 Add four circle primitives for the rounded corners*
1,1,$1+$1,$2,$3*
1,1,$1+$1,$4,$5*
1,1,$1+$1,$6,$7*
1,1,$1+$1,$8,$9*
0 Add four rect primitives between the rounded corners*
20,1,$1+$1,$2,$3,$4,$5,0*
20,1,$1+$1,$4,$5,$6,$7,0*
20,1,$1+$1,$6,$7,$8,$9,0*
20,1,$1+$1,$8,$9,$2,$3,0*%
%AMFreePoly0*
4,1,17,0.383115,0.874121,0.874121,0.383115,0.889000,0.347194,0.889000,-0.347194,0.874121,-0.383115,0.383115,-0.874121,0.347194,-0.889000,-0.347194,-0.889000,-0.383115,-0.874121,-0.874121,-0.383115,-0.889000,-0.347194,-0.889000,0.347194,-0.874121,0.383115,-0.383115,0.874121,-0.347194,0.889000,0.347194,0.889000,0.383115,0.874121,0.383115,0.874121,$1*%
%AMFreePoly1*
4,1,17,0.351552,0.797921,0.797921,0.351552,0.812800,0.315631,0.812800,-0.315631,0.797921,-0.351552,0.351552,-0.797921,0.315631,-0.812800,-0.315631,-0.812800,-0.351552,-0.797921,-0.797921,-0.351552,-0.812800,-0.315631,-0.812800,0.315631,-0.797921,0.351552,-0.351552,0.797921,-0.315631,0.812800,0.315631,0.812800,0.351552,0.797921,0.351552,0.797921,$1*%
%AMFreePoly2*
4,1,17,0.309468,0.696321,0.696321,0.309468,0.711200,0.273547,0.711200,-0.273547,0.696321,-0.309468,0.309468,-0.696321,0.273547,-0.711200,-0.273547,-0.711200,-0.309468,-0.696321,-0.696321,-0.309468,-0.711200,-0.273547,-0.711200,0.273547,-0.696321,0.309468,-0.309468,0.696321,-0.273547,0.711200,0.273547,0.711200,0.309468,0.696321,0.309468,0.696321,$1*%
%AMFreePoly3*
4,1,17,0.330510,0.747121,0.747121,0.330510,0.762000,0.294589,0.762000,-0.294589,0.747121,-0.330510,0.330510,-0.747121,0.294589,-0.762000,-0.294589,-0.762000,-0.330510,-0.747121,-0.747121,-0.330510,-0.762000,-0.294589,-0.762000,0.294589,-0.747121,0.330510,-0.330510,0.747121,-0.294589,0.762000,0.294589,0.762000,0.330510,0.747121,0.330510,0.747121,$1*%
%AMFreePoly4*
4,1,17,0.425199,0.975721,0.975721,0.425199,0.990600,0.389278,0.990600,-0.389278,0.975721,-0.425199,0.425199,-0.975721,0.389278,-0.990600,-0.389278,-0.990600,-0.425199,-0.975721,-0.975721,-0.425199,-0.990600,-0.389278,-0.990600,0.389278,-0.975721,0.425199,-0.425199,0.975721,-0.389278,0.990600,0.389278,0.990600,0.425199,0.975721,0.425199,0.975721,$1*%
%AMFreePoly5*
4,1,17,0.435720,1.001121,1.001121,0.435720,1.016000,0.399799,1.016000,-0.399799,1.001121,-0.435720,0.435720,-1.001121,0.399799,-1.016000,-0.399799,-1.016000,-0.435720,-1.001121,-1.001121,-0.435720,-1.016000,-0.399799,-1.016000,0.399799,-1.001121,0.435720,-0.435720,1.001121,-0.399799,1.016000,0.399799,1.016000,0.435720,1.001121,0.435720,1.001121,$1*%
%AMFreePoly6*
4,1,17,0.739256,1.733921,1.733921,0.739256,1.748800,0.703335,1.748800,-0.703335,1.733921,-0.739256,0.739256,-1.733921,0.703335,-1.748800,-0.703335,-1.748800,-0.739256,-1.733921,-1.733921,-0.739256,-1.748800,-0.703335,-1.748800,0.703335,-1.733921,0.739256,-0.739256,1.733921,-0.703335,1.748800,0.703335,1.748800,0.739256,1.733921,0.739256,1.733921,$1*%
%AMFreePoly7*
4,1,17,0.348238,0.789921,0.789921,0.348238,0.804800,0.312317,0.804800,-0.312317,0.789921,-0.348238,0.348238,-0.789921,0.312317,-0.804800,-0.312317,-0.804800,-0.348238,-0.789921,-0.789921,-0.348238,-0.804800,-0.312317,-0.804800,0.312317,-0.789921,0.348238,-0.348238,0.789921,-0.312317,0.804800,0.312317,0.804800,0.348238,0.789921,0.348238,0.789921,$1*%
G04 Aperture macros list end*
%ADD10FreePoly0,90.000000*%
%ADD11FreePoly0,270.000000*%
%ADD12C,1.500000*%
%ADD13O,2.820000X1.512000*%
%ADD14FreePoly1,180.000000*%
%ADD15RoundRect,0.050800X-1.608000X-1.608000X1.608000X-1.608000X1.608000X1.608000X-1.608000X1.608000X0*%
%ADD16RoundRect,0.050800X-0.754000X-0.754000X0.754000X-0.754000X0.754000X0.754000X-0.754000X0.754000X0*%
%ADD17C,1.200000*%
%ADD18C,2.286000*%
%ADD19O,1.422400X2.743200*%
%ADD20FreePoly0,180.000000*%
%ADD21C,1.509600*%
%ADD22O,1.625600X3.149600*%
%ADD23FreePoly0,0.000000*%
%ADD24RoundRect,0.050800X1.200000X1.200000X-1.200000X1.200000X-1.200000X-1.200000X1.200000X-1.200000X0*%
%ADD25RoundRect,0.050800X-1.200000X-1.200000X1.200000X-1.200000X1.200000X1.200000X-1.200000X1.200000X0*%
%ADD26FreePoly2,0.000000*%
%ADD27FreePoly2,180.000000*%
%ADD28C,1.625600*%
%ADD29RoundRect,0.050800X-0.975000X0.975000X-0.975000X-0.975000X0.975000X-0.975000X0.975000X0.975000X0*%
%ADD30RoundRect,0.050800X0.762000X0.762000X-0.762000X0.762000X-0.762000X-0.762000X0.762000X-0.762000X0*%
%ADD31FreePoly2,90.000000*%
%ADD32FreePoly3,180.000000*%
%ADD33FreePoly3,270.000000*%
%ADD34FreePoly4,180.000000*%
%ADD35FreePoly5,0.000000*%
%ADD36FreePoly1,270.000000*%
%ADD37FreePoly6,0.000000*%
%ADD38FreePoly7,0.000000*%
%ADD39O,4.601600X2.351600*%
%ADD40O,2.351600X4.601600*%
%ADD41C,2.200000*%
G04 APERTURE END LIST*
D10*
%TO.C,R14*%
X175260000Y-112776000D03*
X175260000Y-107696000D03*
%TD*%
D11*
%TO.C,R13*%
X169926000Y-107696000D03*
X169926000Y-112776000D03*
%TD*%
D12*
%TO.C,J1*%
X176022000Y-124888000D03*
X176022000Y-114888000D03*
D13*
X176022000Y-119888000D03*
X171022000Y-114888000D03*
X171022000Y-124888000D03*
X171022000Y-117388000D03*
X171022000Y-122388000D03*
%TD*%
D14*
%TO.C,JP6*%
X145167350Y-139928600D03*
X145167350Y-142468600D03*
X147707350Y-139928600D03*
X147707350Y-142468600D03*
X150247350Y-139928600D03*
X150247350Y-142468600D03*
X152787350Y-139928600D03*
X152787350Y-142468600D03*
%TD*%
D15*
%TO.C,P1*%
X140677350Y-83998600D03*
X131877350Y-83998600D03*
D16*
X138777350Y-90998600D03*
X136277350Y-90998600D03*
X133777350Y-90998600D03*
%TD*%
D15*
%TO.C,P2*%
X166077350Y-83998600D03*
X157277350Y-83998600D03*
D16*
X164177350Y-90998600D03*
X161677350Y-90998600D03*
X159177350Y-90998600D03*
%TD*%
D15*
%TO.C,P3*%
X140677350Y-109398600D03*
X131877350Y-109398600D03*
D16*
X138777350Y-116398600D03*
X136277350Y-116398600D03*
X133777350Y-116398600D03*
%TD*%
D15*
%TO.C,P4*%
X166077350Y-109398600D03*
X157277350Y-109398600D03*
D16*
X164177350Y-116398600D03*
X161677350Y-116398600D03*
X159177350Y-116398600D03*
%TD*%
D15*
%TO.C,P5*%
X140677350Y-134798600D03*
X131877350Y-134798600D03*
D16*
X138777350Y-141798600D03*
X136277350Y-141798600D03*
X133777350Y-141798600D03*
%TD*%
D15*
%TO.C,P6*%
X166077350Y-134798600D03*
X157277350Y-134798600D03*
D16*
X164177350Y-141798600D03*
X161677350Y-141798600D03*
X159177350Y-141798600D03*
%TD*%
D17*
%TO.C,JP7*%
X126672350Y-140563600D03*
X121672350Y-135563600D03*
X119172350Y-135563600D03*
X119172350Y-145563600D03*
X121672350Y-145563600D03*
D18*
X126672350Y-135563600D03*
X126672350Y-138063600D03*
X126672350Y-145563600D03*
X126672350Y-143063600D03*
X121672350Y-140563600D03*
%TD*%
D17*
%TO.C,JP8*%
X170647350Y-132626100D03*
X175647350Y-137626100D03*
X178147350Y-137626100D03*
X178147350Y-127626100D03*
X175647350Y-127626100D03*
D18*
X170647350Y-137626100D03*
X170647350Y-135126100D03*
X170647350Y-127626100D03*
X170647350Y-130126100D03*
X175647350Y-132626100D03*
%TD*%
D14*
%TO.C,JP12*%
X145167350Y-134848600D03*
X145167350Y-137388600D03*
X147707350Y-134848600D03*
X147707350Y-137388600D03*
X150247350Y-134848600D03*
X150247350Y-137388600D03*
X152787350Y-134848600D03*
X152787350Y-137388600D03*
%TD*%
D19*
%TO.C,IC5*%
X154057350Y-94183200D03*
X151517350Y-94183200D03*
X154057350Y-103124000D03*
X151517350Y-103124000D03*
X146437350Y-94183200D03*
X148977350Y-94183200D03*
X148977350Y-103124000D03*
X146437350Y-103124000D03*
%TD*%
D17*
%TO.C,JP10*%
X126672350Y-126593600D03*
X121672350Y-121593600D03*
X119172350Y-121593600D03*
X119172350Y-131593600D03*
X121672350Y-131593600D03*
D18*
X126672350Y-121593600D03*
X126672350Y-124093600D03*
X126672350Y-131593600D03*
X126672350Y-129093600D03*
X121672350Y-126593600D03*
%TD*%
D20*
%TO.C,R1*%
X144849850Y-89128600D03*
X149929850Y-89128600D03*
%TD*%
%TO.C,R2*%
X148977350Y-91351100D03*
X154057350Y-91351100D03*
%TD*%
D21*
%TO.C,D1*%
X147072350Y-105638600D03*
X154692350Y-105638600D03*
%TD*%
D10*
%TO.C,R3*%
X143579850Y-96431100D03*
X143579850Y-101511100D03*
%TD*%
D22*
%TO.C,IC2*%
X125164850Y-66268600D03*
X122624850Y-66268600D03*
X120084850Y-66268600D03*
%TD*%
D23*
%TO.C,R4*%
X139134850Y-128181100D03*
X134054850Y-128181100D03*
%TD*%
D11*
%TO.C,R5*%
X142309850Y-144056100D03*
X142309850Y-138976100D03*
%TD*%
D23*
%TO.C,R6*%
X141039850Y-145961100D03*
X135959850Y-145961100D03*
%TD*%
D20*
%TO.C,R7*%
X145167350Y-145961100D03*
X150247350Y-145961100D03*
%TD*%
D23*
%TO.C,R8*%
X153422350Y-131673600D03*
X148342350Y-131673600D03*
%TD*%
D11*
%TO.C,R9*%
X155327350Y-144373600D03*
X155327350Y-139293600D03*
%TD*%
D23*
%TO.C,R10*%
X166757350Y-126911100D03*
X161677350Y-126911100D03*
%TD*%
D20*
%TO.C,R11*%
X161677350Y-124371100D03*
X166757350Y-124371100D03*
%TD*%
D24*
%TO.C,C6*%
X136237350Y-64363600D03*
D25*
X131237350Y-64363600D03*
%TD*%
D26*
%TO.C,LED1*%
X154044650Y-64046100D03*
X151504650Y-64046100D03*
%TD*%
D27*
%TO.C,LED2*%
X156279850Y-64046100D03*
X158819850Y-64046100D03*
%TD*%
D26*
%TO.C,LED3*%
X146754850Y-85636100D03*
X144214850Y-85636100D03*
%TD*%
%TO.C,LED4*%
X151517350Y-85636100D03*
X148977350Y-85636100D03*
%TD*%
D28*
%TO.C,JP13*%
X172789850Y-112623600D03*
X172789850Y-110083600D03*
X172789850Y-107543600D03*
%TD*%
D29*
%TO.C,S1*%
X172472350Y-79921100D03*
X177552350Y-79921100D03*
X172472350Y-86271100D03*
X177552350Y-86271100D03*
D30*
X172512350Y-83096100D03*
X177512350Y-83096100D03*
%TD*%
D29*
%TO.C,S2*%
X172472350Y-89128600D03*
X177552350Y-89128600D03*
X172472350Y-95478600D03*
X177552350Y-95478600D03*
D30*
X172512350Y-92303600D03*
X177512350Y-92303600D03*
%TD*%
D31*
%TO.C,R16*%
X149180550Y-63360300D03*
X149180550Y-65900300D03*
%TD*%
D27*
%TO.C,R17*%
X161042350Y-64046100D03*
X163582350Y-64046100D03*
%TD*%
D20*
%TO.C,R18*%
X144214850Y-82143600D03*
X149294850Y-82143600D03*
%TD*%
D23*
%TO.C,R19*%
X149294850Y-79603600D03*
X144214850Y-79603600D03*
%TD*%
D26*
%TO.C,LED5*%
X154374850Y-80238600D03*
X151834850Y-80238600D03*
%TD*%
D10*
%TO.C,R12*%
X153422350Y-83413600D03*
X153422350Y-88493600D03*
%TD*%
D32*
%TO.C,C1*%
X142627350Y-113576100D03*
X145167350Y-113576100D03*
%TD*%
%TO.C,C2*%
X142309850Y-125006100D03*
X144849850Y-125006100D03*
%TD*%
%TO.C,C4*%
X133737350Y-94208600D03*
X136277350Y-94208600D03*
%TD*%
%TO.C,C7*%
X131514850Y-144056100D03*
X134054850Y-144056100D03*
%TD*%
%TO.C,C8*%
X159137350Y-94208600D03*
X161677350Y-94208600D03*
%TD*%
%TO.C,C9*%
X158502350Y-144691100D03*
X161042350Y-144691100D03*
%TD*%
%TO.C,C10*%
X134054850Y-119608600D03*
X136594850Y-119608600D03*
%TD*%
%TO.C,C11*%
X156210000Y-119888000D03*
X158750000Y-119888000D03*
%TD*%
D33*
%TO.C,C16*%
X165862000Y-121920000D03*
X165862000Y-119380000D03*
%TD*%
%TO.C,C17*%
X178054000Y-111760000D03*
X178054000Y-109220000D03*
%TD*%
D34*
%TO.C,JP1*%
X137547350Y-68808600D03*
X137547350Y-71348600D03*
X140087350Y-68808600D03*
X140087350Y-71348600D03*
X142627350Y-68808600D03*
X142627350Y-71348600D03*
X145167350Y-68808600D03*
X145167350Y-71348600D03*
X147707350Y-68808600D03*
X147707350Y-71348600D03*
X150247350Y-68808600D03*
X150247350Y-71348600D03*
X152787350Y-68808600D03*
X152787350Y-71348600D03*
X155327350Y-68808600D03*
X155327350Y-71348600D03*
X157867350Y-68808600D03*
X157867350Y-71348600D03*
X160407350Y-68808600D03*
X160407350Y-71348600D03*
%TD*%
D35*
%TO.C,DGND1*%
X168662350Y-99288600D03*
%TD*%
%TO.C,DGND2*%
X168662350Y-96748600D03*
%TD*%
%TO.C,DGND3*%
X168662350Y-101828600D03*
%TD*%
%TO.C,AGND1*%
X177552350Y-141198600D03*
%TD*%
%TO.C,AGND2*%
X177552350Y-143738600D03*
%TD*%
%TO.C,AGND3*%
X175012350Y-141198600D03*
%TD*%
%TO.C,AGND4*%
X175012350Y-143738600D03*
%TD*%
D22*
%TO.C,JP3*%
X146881850Y-64592200D03*
X144341850Y-64592200D03*
X141801850Y-64592200D03*
X139261850Y-64592200D03*
%TD*%
D34*
%TO.C,JP2*%
X137547350Y-73888600D03*
X137547350Y-76428600D03*
X140087350Y-73888600D03*
X140087350Y-76428600D03*
X142627350Y-73888600D03*
X142627350Y-76428600D03*
X145167350Y-73888600D03*
X145167350Y-76428600D03*
X147707350Y-73888600D03*
X147707350Y-76428600D03*
X150247350Y-73888600D03*
X150247350Y-76428600D03*
X152787350Y-73888600D03*
X152787350Y-76428600D03*
X155327350Y-73888600D03*
X155327350Y-76428600D03*
X157867350Y-73888600D03*
X157867350Y-76428600D03*
X160407350Y-73888600D03*
X160407350Y-76428600D03*
%TD*%
D36*
%TO.C,JP4*%
X126117350Y-117068600D03*
X128657350Y-117068600D03*
X126117350Y-114528600D03*
X128657350Y-114528600D03*
X126117350Y-111988600D03*
X128657350Y-111988600D03*
X126117350Y-109448600D03*
X128657350Y-109448600D03*
X126117350Y-106908600D03*
X128657350Y-106908600D03*
X126117350Y-104368600D03*
X128657350Y-104368600D03*
X126117350Y-101828600D03*
X128657350Y-101828600D03*
X126117350Y-99288600D03*
X128657350Y-99288600D03*
X126117350Y-96748600D03*
X128657350Y-96748600D03*
X126117350Y-94208600D03*
X128657350Y-94208600D03*
X126117350Y-91668600D03*
X128657350Y-91668600D03*
X126117350Y-89128600D03*
X128657350Y-89128600D03*
X126117350Y-86588600D03*
X128657350Y-86588600D03*
X126117350Y-84048600D03*
X128657350Y-84048600D03*
X126117350Y-81508600D03*
X128657350Y-81508600D03*
%TD*%
%TO.C,JP5*%
X121037350Y-117068600D03*
X123577350Y-117068600D03*
X121037350Y-114528600D03*
X123577350Y-114528600D03*
X121037350Y-111988600D03*
X123577350Y-111988600D03*
X121037350Y-109448600D03*
X123577350Y-109448600D03*
X121037350Y-106908600D03*
X123577350Y-106908600D03*
X121037350Y-104368600D03*
X123577350Y-104368600D03*
X121037350Y-101828600D03*
X123577350Y-101828600D03*
X121037350Y-99288600D03*
X123577350Y-99288600D03*
X121037350Y-96748600D03*
X123577350Y-96748600D03*
X121037350Y-94208600D03*
X123577350Y-94208600D03*
X121037350Y-91668600D03*
X123577350Y-91668600D03*
X121037350Y-89128600D03*
X123577350Y-89128600D03*
X121037350Y-86588600D03*
X123577350Y-86588600D03*
X121037350Y-84048600D03*
X123577350Y-84048600D03*
X121037350Y-81508600D03*
X123577350Y-81508600D03*
%TD*%
D37*
%TO.C,U$3*%
X177484850Y-71823600D03*
X164284850Y-71823600D03*
D38*
X174384850Y-74523600D03*
X167384850Y-74523600D03*
X171884850Y-74523600D03*
X169884850Y-74523600D03*
%TD*%
D29*
%TO.C,S3*%
X172472350Y-98336100D03*
X177552350Y-98336100D03*
X172472350Y-104686100D03*
X177552350Y-104686100D03*
D30*
X172512350Y-101511100D03*
X177512350Y-101511100D03*
%TD*%
D36*
%TO.C,JP9*%
X164852350Y-77063600D03*
X167392350Y-77063600D03*
X169932350Y-77063600D03*
X172472350Y-77063600D03*
X175012350Y-77063600D03*
X177552350Y-77063600D03*
%TD*%
D39*
%TO.C,U$1*%
X128022350Y-69506100D03*
D40*
X131022350Y-74206100D03*
X125022350Y-74206100D03*
D41*
X120522350Y-74206100D03*
%TD*%
D35*
%TO.C,UNK5V0*%
X146437350Y-91351100D03*
%TD*%
%TO.C,UNK3V3A0*%
X158502350Y-99923600D03*
%TD*%
%TO.C,UNK3V3A1*%
X158502350Y-102463600D03*
%TD*%
%TO.C,AGND0*%
X161042350Y-99923600D03*
%TD*%
%TO.C,AGND5*%
X161042350Y-102463600D03*
%TD*%
%TO.C,UNK5VD0*%
X166122350Y-99288600D03*
%TD*%
%TO.C,UNK5V2*%
X166122350Y-101828600D03*
%TD*%
%TO.C,UNK3V3D0*%
X133737350Y-74168000D03*
%TD*%
M02*
