%TF.GenerationSoftware,KiCad,Pcbnew,9.0.4*%
%TF.CreationDate,2026-07-16T16:31:58-04:00*%
%TF.ProjectId,stm32H7_experimenter10,73746d33-3248-4375-9f65-78706572696d,rev?*%
%TF.SameCoordinates,Original*%
%TF.FileFunction,Copper,L4,Bot*%
%TF.FilePolarity,Positive*%
%FSLAX46Y46*%
G04 Gerber Fmt 4.6, Leading zero omitted, Abs format (unit mm)*
G04 Created by KiCad (PCBNEW 9.0.4) date 2026-07-16 16:31:58*
%MOMM*%
%LPD*%
G01*
G04 APERTURE LIST*
G04 Aperture macros list*
%AMOutline5P*
0 Free polygon, 5 corners , with rotation*
0 The origin of the aperture is its center*
0 number of corners: always 5*
0 $1 to $10 corner X, Y*
0 $11 Rotation angle, in degrees counterclockwise*
0 create outline with 5 corners*
4,1,5,$1,$2,$3,$4,$5,$6,$7,$8,$9,$10,$1,$2,$11*%
%AMOutline6P*
0 Free polygon, 6 corners , with rotation*
0 The origin of the aperture is its center*
0 number of corners: always 6*
0 $1 to $12 corner X, Y*
0 $13 Rotation angle, in degrees counterclockwise*
0 create outline with 6 corners*
4,1,6,$1,$2,$3,$4,$5,$6,$7,$8,$9,$10,$11,$12,$1,$2,$13*%
%AMOutline7P*
0 Free polygon, 7 corners , with rotation*
0 The origin of the aperture is its center*
0 number of corners: always 7*
0 $1 to $14 corner X, Y*
0 $15 Rotation angle, in degrees counterclockwise*
0 create outline with 7 corners*
4,1,7,$1,$2,$3,$4,$5,$6,$7,$8,$9,$10,$11,$12,$13,$14,$1,$2,$15*%
%AMOutline8P*
0 Free polygon, 8 corners , with rotation*
0 The origin of the aperture is its center*
0 number of corners: always 8*
0 $1 to $16 corner X, Y*
0 $17 Rotation angle, in degrees counterclockwise*
0 create outline with 8 corners*
4,1,8,$1,$2,$3,$4,$5,$6,$7,$8,$9,$10,$11,$12,$13,$14,$15,$16,$1,$2,$17*%
G04 Aperture macros list end*
%TA.AperFunction,ComponentPad*%
%ADD10Outline8P,-0.838200X0.347194X-0.347194X0.838200X0.347194X0.838200X0.838200X0.347194X0.838200X-0.347194X0.347194X-0.838200X-0.347194X-0.838200X-0.838200X-0.347194X90.000000*%
%TD*%
%TA.AperFunction,ComponentPad*%
%ADD11Outline8P,-0.838200X0.347194X-0.347194X0.838200X0.347194X0.838200X0.838200X0.347194X0.838200X-0.347194X0.347194X-0.838200X-0.347194X-0.838200X-0.838200X-0.347194X270.000000*%
%TD*%
%TA.AperFunction,ComponentPad*%
%ADD12O,2.616000X1.308000*%
%TD*%
%TA.AperFunction,ComponentPad*%
%ADD13Outline8P,-0.762000X0.315631X-0.315631X0.762000X0.315631X0.762000X0.762000X0.315631X0.762000X-0.315631X0.315631X-0.762000X-0.315631X-0.762000X-0.762000X-0.315631X180.000000*%
%TD*%
%TA.AperFunction,ComponentPad*%
%ADD14R,3.216000X3.216000*%
%TD*%
%TA.AperFunction,ComponentPad*%
%ADD15R,1.508000X1.508000*%
%TD*%
%TA.AperFunction,ComponentPad*%
%ADD16C,2.184400*%
%TD*%
%TA.AperFunction,ComponentPad*%
%ADD17O,1.320800X2.641600*%
%TD*%
%TA.AperFunction,ComponentPad*%
%ADD18Outline8P,-0.838200X0.347194X-0.347194X0.838200X0.347194X0.838200X0.838200X0.347194X0.838200X-0.347194X0.347194X-0.838200X-0.347194X-0.838200X-0.838200X-0.347194X180.000000*%
%TD*%
%TA.AperFunction,ComponentPad*%
%ADD19C,1.408000*%
%TD*%
%TA.AperFunction,ComponentPad*%
%ADD20O,1.524000X3.048000*%
%TD*%
%TA.AperFunction,ComponentPad*%
%ADD21Outline8P,-0.838200X0.347194X-0.347194X0.838200X0.347194X0.838200X0.838200X0.347194X0.838200X-0.347194X0.347194X-0.838200X-0.347194X-0.838200X-0.838200X-0.347194X0.000000*%
%TD*%
%TA.AperFunction,SMDPad,CuDef*%
%ADD22R,2.400000X2.400000*%
%TD*%
%TA.AperFunction,ComponentPad*%
%ADD23Outline8P,-0.660400X0.273547X-0.273547X0.660400X0.273547X0.660400X0.660400X0.273547X0.660400X-0.273547X0.273547X-0.660400X-0.273547X-0.660400X-0.660400X-0.273547X0.000000*%
%TD*%
%TA.AperFunction,ComponentPad*%
%ADD24Outline8P,-0.660400X0.273547X-0.273547X0.660400X0.273547X0.660400X0.660400X0.273547X0.660400X-0.273547X0.273547X-0.660400X-0.273547X-0.660400X-0.660400X-0.273547X180.000000*%
%TD*%
%TA.AperFunction,ComponentPad*%
%ADD25C,1.524000*%
%TD*%
%TA.AperFunction,ComponentPad*%
%ADD26R,1.950000X1.950000*%
%TD*%
%TA.AperFunction,ComponentPad*%
%ADD27R,1.524000X1.524000*%
%TD*%
%TA.AperFunction,ComponentPad*%
%ADD28Outline8P,-0.660400X0.273547X-0.273547X0.660400X0.273547X0.660400X0.660400X0.273547X0.660400X-0.273547X0.273547X-0.660400X-0.273547X-0.660400X-0.660400X-0.273547X90.000000*%
%TD*%
%TA.AperFunction,ComponentPad*%
%ADD29Outline8P,-0.711200X0.294589X-0.294589X0.711200X0.294589X0.711200X0.711200X0.294589X0.711200X-0.294589X0.294589X-0.711200X-0.294589X-0.711200X-0.711200X-0.294589X180.000000*%
%TD*%
%TA.AperFunction,ComponentPad*%
%ADD30Outline8P,-0.711200X0.294589X-0.294589X0.711200X0.294589X0.711200X0.711200X0.294589X0.711200X-0.294589X0.294589X-0.711200X-0.294589X-0.711200X-0.711200X-0.294589X270.000000*%
%TD*%
%TA.AperFunction,ComponentPad*%
%ADD31Outline8P,-0.939800X0.389278X-0.389278X0.939800X0.389278X0.939800X0.939800X0.389278X0.939800X-0.389278X0.389278X-0.939800X-0.389278X-0.939800X-0.939800X-0.389278X180.000000*%
%TD*%
%TA.AperFunction,ComponentPad*%
%ADD32Outline8P,-0.965200X0.399799X-0.399799X0.965200X0.399799X0.965200X0.965200X0.399799X0.965200X-0.399799X0.399799X-0.965200X-0.399799X-0.965200X-0.965200X-0.399799X0.000000*%
%TD*%
%TA.AperFunction,ComponentPad*%
%ADD33Outline8P,-0.762000X0.315631X-0.315631X0.762000X0.315631X0.762000X0.762000X0.315631X0.762000X-0.315631X0.315631X-0.762000X-0.315631X-0.762000X-0.762000X-0.315631X270.000000*%
%TD*%
%TA.AperFunction,ComponentPad*%
%ADD34Outline8P,-1.698000X0.703335X-0.703335X1.698000X0.703335X1.698000X1.698000X0.703335X1.698000X-0.703335X0.703335X-1.698000X-0.703335X-1.698000X-1.698000X-0.703335X0.000000*%
%TD*%
%TA.AperFunction,ComponentPad*%
%ADD35Outline8P,-0.754000X0.312317X-0.312317X0.754000X0.312317X0.754000X0.754000X0.312317X0.754000X-0.312317X0.312317X-0.754000X-0.312317X-0.754000X-0.754000X-0.312317X0.000000*%
%TD*%
%TA.AperFunction,ComponentPad*%
%ADD36O,4.500000X2.250000*%
%TD*%
%TA.AperFunction,ComponentPad*%
%ADD37O,2.250000X4.500000*%
%TD*%
%TA.AperFunction,ViaPad*%
%ADD38C,1.006400*%
%TD*%
%TA.AperFunction,ViaPad*%
%ADD39C,1.106400*%
%TD*%
%TA.AperFunction,Conductor*%
%ADD40C,0.254000*%
%TD*%
%TA.AperFunction,Conductor*%
%ADD41C,0.406400*%
%TD*%
%TA.AperFunction,Conductor*%
%ADD42C,0.304800*%
%TD*%
%TA.AperFunction,Conductor*%
%ADD43C,0.812800*%
%TD*%
%TA.AperFunction,Conductor*%
%ADD44C,1.016000*%
%TD*%
%TA.AperFunction,Conductor*%
%ADD45C,1.676400*%
%TD*%
%TA.AperFunction,Conductor*%
%ADD46C,1.270000*%
%TD*%
%TA.AperFunction,Conductor*%
%ADD47C,0.609600*%
%TD*%
G04 APERTURE END LIST*
D10*
%TO.P,R14,1,1*%
%TO.N,Net-(J1-Pad4)*%
X175260000Y-112776000D03*
%TO.P,R14,2,2*%
%TO.N,3V3*%
X175260000Y-107696000D03*
%TD*%
D11*
%TO.P,R13,1,1*%
%TO.N,3V3*%
X169926000Y-107696000D03*
%TO.P,R13,2,2*%
%TO.N,Net-(J1-Pad3)*%
X169926000Y-112776000D03*
%TD*%
D12*
%TO.P,J1,1*%
%TO.N,AGND*%
X176022000Y-119888000D03*
%TO.P,J1,2*%
%TO.N,Net-(IC3-+INB)*%
X171022000Y-114888000D03*
%TO.P,J1,3*%
%TO.N,Net-(J1-Pad3)*%
X171022000Y-124888000D03*
%TO.P,J1,4*%
%TO.N,Net-(J1-Pad4)*%
X171022000Y-117388000D03*
%TO.P,J1,5*%
%TO.N,unconnected-(J1-Pad5)*%
X171022000Y-122388000D03*
%TD*%
D13*
%TO.P,JP6,8,8*%
%TO.N,Net-(JP12-Pad8)*%
X145167350Y-139928600D03*
%TO.P,JP6,7,7*%
%TO.N,Net-(JP12-Pad7)*%
X145167350Y-142468600D03*
%TO.P,JP6,6,6*%
%TO.N,AGND*%
X147707350Y-139928600D03*
%TO.P,JP6,5,5*%
X147707350Y-142468600D03*
%TO.P,JP6,4,4*%
X150247350Y-139928600D03*
%TO.P,JP6,3,3*%
X150247350Y-142468600D03*
%TO.P,JP6,2,2*%
%TO.N,Net-(JP12-Pad2)*%
X152787350Y-139928600D03*
%TO.P,JP6,1,1*%
%TO.N,Net-(JP12-Pad1)*%
X152787350Y-142468600D03*
%TD*%
D14*
%TO.P,P1,P$5*%
%TO.N,N/C*%
X140677350Y-83998600D03*
%TO.P,P1,P$4*%
X131877350Y-83998600D03*
D15*
%TO.P,P1,P$3,3*%
%TO.N,3V3*%
X138777350Y-90998600D03*
%TO.P,P1,P$2,2*%
%TO.N,Net-(IC1-+INA)*%
X136277350Y-90998600D03*
%TO.P,P1,P$1,1*%
%TO.N,AGND*%
X133777350Y-90998600D03*
%TD*%
D14*
%TO.P,P2,P$5*%
%TO.N,N/C*%
X166077350Y-83998600D03*
%TO.P,P2,P$4*%
X157277350Y-83998600D03*
D15*
%TO.P,P2,P$3,3*%
%TO.N,3V3*%
X164177350Y-90998600D03*
%TO.P,P2,P$2,2*%
%TO.N,Net-(IC1-+IND)*%
X161677350Y-90998600D03*
%TO.P,P2,P$1,1*%
%TO.N,AGND*%
X159177350Y-90998600D03*
%TD*%
D14*
%TO.P,P3,P$5*%
%TO.N,N/C*%
X140677350Y-109398600D03*
%TO.P,P3,P$4*%
X131877350Y-109398600D03*
D15*
%TO.P,P3,P$3,3*%
%TO.N,3V3*%
X138777350Y-116398600D03*
%TO.P,P3,P$2,2*%
%TO.N,Net-(IC1-+INB)*%
X136277350Y-116398600D03*
%TO.P,P3,P$1,1*%
%TO.N,AGND*%
X133777350Y-116398600D03*
%TD*%
D14*
%TO.P,P4,P$5*%
%TO.N,N/C*%
X166077350Y-109398600D03*
%TO.P,P4,P$4*%
X157277350Y-109398600D03*
D15*
%TO.P,P4,P$3,3*%
%TO.N,3V3*%
X164177350Y-116398600D03*
%TO.P,P4,P$2,2*%
%TO.N,Net-(IC1-+INC)*%
X161677350Y-116398600D03*
%TO.P,P4,P$1,1*%
%TO.N,AGND*%
X159177350Y-116398600D03*
%TD*%
D14*
%TO.P,P5,P$5*%
%TO.N,N/C*%
X140677350Y-134798600D03*
%TO.P,P5,P$4*%
X131877350Y-134798600D03*
D15*
%TO.P,P5,P$3,3*%
%TO.N,3V3*%
X138777350Y-141798600D03*
%TO.P,P5,P$2,2*%
%TO.N,Net-(IC3-+INA)*%
X136277350Y-141798600D03*
%TO.P,P5,P$1,1*%
%TO.N,AGND*%
X133777350Y-141798600D03*
%TD*%
D14*
%TO.P,P6,P$5*%
%TO.N,N/C*%
X166077350Y-134798600D03*
%TO.P,P6,P$4*%
X157277350Y-134798600D03*
D15*
%TO.P,P6,P$3,3*%
%TO.N,3V3*%
X164177350Y-141798600D03*
%TO.P,P6,P$2,2*%
%TO.N,Net-(IC3-+IND)*%
X161677350Y-141798600D03*
%TO.P,P6,P$1,1*%
%TO.N,AGND*%
X159177350Y-141798600D03*
%TD*%
D16*
%TO.P,JP7,TIP,LEFT*%
%TO.N,Net-(JP7-LEFT)*%
X126672350Y-135563600D03*
%TO.P,JP7,TSH*%
%TO.N,N/C*%
X126672350Y-138063600D03*
%TO.P,JP7,RING,RIGHT*%
%TO.N,Net-(JP7-RIGHT)*%
X126672350Y-145563600D03*
%TO.P,JP7,RSH*%
%TO.N,N/C*%
X126672350Y-143063600D03*
%TO.P,JP7,SLEEVE,SLEEVE*%
%TO.N,AGND*%
X121672350Y-140563600D03*
%TD*%
%TO.P,JP8,TIP,LEFT*%
%TO.N,Net-(JP8-LEFT)*%
X170647350Y-137626100D03*
%TO.P,JP8,TSH*%
%TO.N,N/C*%
X170647350Y-135126100D03*
%TO.P,JP8,RING,RIGHT*%
%TO.N,Net-(JP8-RIGHT)*%
X170647350Y-127626100D03*
%TO.P,JP8,RSH*%
%TO.N,N/C*%
X170647350Y-130126100D03*
%TO.P,JP8,SLEEVE,SLEEVE*%
%TO.N,AGND*%
X175647350Y-132626100D03*
%TD*%
D13*
%TO.P,JP12,8,8*%
%TO.N,Net-(JP12-Pad8)*%
X145167350Y-134848600D03*
%TO.P,JP12,7,7*%
%TO.N,Net-(JP12-Pad7)*%
X145167350Y-137388600D03*
%TO.P,JP12,6,6*%
%TO.N,AGND*%
X147707350Y-134848600D03*
%TO.P,JP12,5,5*%
X147707350Y-137388600D03*
%TO.P,JP12,4,4*%
X150247350Y-134848600D03*
%TO.P,JP12,3,3*%
X150247350Y-137388600D03*
%TO.P,JP12,2,2*%
%TO.N,Net-(JP12-Pad2)*%
X152787350Y-134848600D03*
%TO.P,JP12,1,1*%
%TO.N,Net-(JP12-Pad1)*%
X152787350Y-137388600D03*
%TD*%
D17*
%TO.P,IC5,5,GND*%
%TO.N,DGND*%
X154057350Y-94183200D03*
%TO.P,IC5,6,VO*%
%TO.N,/PC7*%
X151517350Y-94183200D03*
%TO.P,IC5,4*%
%TO.N,N/C*%
X154057350Y-103124000D03*
%TO.P,IC5,3,C*%
%TO.N,Net-(IC5-C)*%
X151517350Y-103124000D03*
%TO.P,IC5,8,VCC*%
%TO.N,+5V*%
X146437350Y-94183200D03*
%TO.P,IC5,7,VB*%
%TO.N,Net-(IC5-VB)*%
X148977350Y-94183200D03*
%TO.P,IC5,2,A*%
%TO.N,Net-(IC5-A)*%
X148977350Y-103124000D03*
%TO.P,IC5,1*%
%TO.N,N/C*%
X146437350Y-103124000D03*
%TD*%
D16*
%TO.P,JP10,TIP,LEFT*%
%TO.N,Net-(IC5-C)*%
X126672350Y-121593600D03*
%TO.P,JP10,TSH*%
%TO.N,N/C*%
X126672350Y-124093600D03*
%TO.P,JP10,RING,RIGHT*%
%TO.N,Net-(JP10-RIGHT)*%
X126672350Y-131593600D03*
%TO.P,JP10,RSH*%
%TO.N,N/C*%
X126672350Y-129093600D03*
%TO.P,JP10,SLEEVE,SLEEVE*%
%TO.N,unconnected-(JP10-PadSLEEVE)*%
X121672350Y-126593600D03*
%TD*%
D18*
%TO.P,R1,2,2*%
%TO.N,+5V*%
X144849850Y-89128600D03*
%TO.P,R1,1,1*%
%TO.N,/PC7*%
X149929850Y-89128600D03*
%TD*%
%TO.P,R2,2,2*%
%TO.N,Net-(IC5-VB)*%
X148977350Y-91351100D03*
%TO.P,R2,1,1*%
%TO.N,DGND*%
X154057350Y-91351100D03*
%TD*%
D19*
%TO.P,D1,C,C*%
%TO.N,Net-(IC5-A)*%
X147072350Y-105638600D03*
%TO.P,D1,A,A*%
%TO.N,Net-(IC5-C)*%
X154692350Y-105638600D03*
%TD*%
D10*
%TO.P,R3,2,2*%
%TO.N,Net-(JP10-RIGHT)*%
X143579850Y-96431100D03*
%TO.P,R3,1,1*%
%TO.N,Net-(IC5-A)*%
X143579850Y-101511100D03*
%TD*%
D20*
%TO.P,IC2,3,VO*%
%TO.N,+5V*%
X125164850Y-66268600D03*
%TO.P,IC2,2,GND*%
%TO.N,DGND*%
X122624850Y-66268600D03*
%TO.P,IC2,1,VI*%
%TO.N,Net-(IC2-VI)*%
X120084850Y-66268600D03*
%TD*%
D21*
%TO.P,R4,2,2*%
%TO.N,Net-(JP12-Pad8)*%
X139134850Y-128181100D03*
%TO.P,R4,1,1*%
%TO.N,Net-(JP7-LEFT)*%
X134054850Y-128181100D03*
%TD*%
D11*
%TO.P,R5,2,2*%
%TO.N,AGND*%
X142309850Y-144056100D03*
%TO.P,R5,1,1*%
%TO.N,Net-(JP12-Pad8)*%
X142309850Y-138976100D03*
%TD*%
D21*
%TO.P,R6,2,2*%
%TO.N,Net-(JP12-Pad7)*%
X141039850Y-145961100D03*
%TO.P,R6,1,1*%
%TO.N,Net-(JP7-RIGHT)*%
X135959850Y-145961100D03*
%TD*%
D18*
%TO.P,R7,2,2*%
%TO.N,AGND*%
X145167350Y-145961100D03*
%TO.P,R7,1,1*%
%TO.N,Net-(JP12-Pad7)*%
X150247350Y-145961100D03*
%TD*%
D21*
%TO.P,R8,2,2*%
%TO.N,Net-(JP8-LEFT)*%
X153422350Y-131673600D03*
%TO.P,R8,1,1*%
%TO.N,Net-(JP12-Pad2)*%
X148342350Y-131673600D03*
%TD*%
D11*
%TO.P,R9,2,2*%
%TO.N,AGND*%
X155327350Y-144373600D03*
%TO.P,R9,1,1*%
%TO.N,Net-(JP8-LEFT)*%
X155327350Y-139293600D03*
%TD*%
D21*
%TO.P,R10,2,2*%
%TO.N,Net-(JP8-RIGHT)*%
X166757350Y-126911100D03*
%TO.P,R10,1,1*%
%TO.N,Net-(JP12-Pad1)*%
X161677350Y-126911100D03*
%TD*%
D18*
%TO.P,R11,2,2*%
%TO.N,AGND*%
X161677350Y-124371100D03*
%TO.P,R11,1,1*%
%TO.N,Net-(JP8-RIGHT)*%
X166757350Y-124371100D03*
%TD*%
D22*
%TO.P,C6,-,-*%
%TO.N,DGND*%
X136237350Y-64363600D03*
%TO.P,C6,+,+*%
%TO.N,+5V*%
X131237350Y-64363600D03*
%TD*%
D23*
%TO.P,LED1,K,C*%
%TO.N,DGND*%
X154044650Y-64046100D03*
%TO.P,LED1,A,A*%
%TO.N,Net-(LED1-PadA)*%
X151504650Y-64046100D03*
%TD*%
D24*
%TO.P,LED2,K,C*%
%TO.N,DGND*%
X156279850Y-64046100D03*
%TO.P,LED2,A,A*%
%TO.N,Net-(LED2-PadA)*%
X158819850Y-64046100D03*
%TD*%
D23*
%TO.P,LED3,K,C*%
%TO.N,DGND*%
X146754850Y-85636100D03*
%TO.P,LED3,A,A*%
%TO.N,Net-(LED3-PadA)*%
X144214850Y-85636100D03*
%TD*%
%TO.P,LED4,K,C*%
%TO.N,DGND*%
X151517350Y-85636100D03*
%TO.P,LED4,A,A*%
%TO.N,Net-(LED4-PadA)*%
X148977350Y-85636100D03*
%TD*%
D25*
%TO.P,JP13,3,3*%
%TO.N,AGND*%
X172789850Y-112623600D03*
%TO.P,JP13,2,2*%
%TO.N,Net-(IC3-+INC)*%
X172789850Y-110083600D03*
%TO.P,JP13,1,1*%
%TO.N,3V3*%
X172789850Y-107543600D03*
%TD*%
D26*
%TO.P,S1,P2_3,P$6*%
%TO.N,/PG6*%
X172472350Y-79921100D03*
%TO.P,S1,P1_3,P$3*%
%TO.N,DGND*%
X177552350Y-79921100D03*
%TO.P,S1,P2_2,P$5*%
%TO.N,/PG6*%
X172472350Y-86271100D03*
%TO.P,S1,P1_2,P$2*%
%TO.N,DGND*%
X177552350Y-86271100D03*
D27*
%TO.P,S1,P2_1,P$4*%
%TO.N,/PG6*%
X172512350Y-83096100D03*
%TO.P,S1,P1_1,P$1*%
%TO.N,DGND*%
X177512350Y-83096100D03*
%TD*%
D26*
%TO.P,S2,P2_3,P$6*%
%TO.N,/PG7*%
X172472350Y-89128600D03*
%TO.P,S2,P1_3,P$3*%
%TO.N,DGND*%
X177552350Y-89128600D03*
%TO.P,S2,P2_2,P$5*%
%TO.N,/PG7*%
X172472350Y-95478600D03*
%TO.P,S2,P1_2,P$2*%
%TO.N,DGND*%
X177552350Y-95478600D03*
D27*
%TO.P,S2,P2_1,P$4*%
%TO.N,/PG7*%
X172512350Y-92303600D03*
%TO.P,S2,P1_1,P$1*%
%TO.N,DGND*%
X177512350Y-92303600D03*
%TD*%
D28*
%TO.P,R16,2,2*%
%TO.N,Net-(LED1-PadA)*%
X149180550Y-63360300D03*
%TO.P,R16,1,1*%
%TO.N,/PB15*%
X149180550Y-65900300D03*
%TD*%
D24*
%TO.P,R17,2,2*%
%TO.N,Net-(LED2-PadA)*%
X161042350Y-64046100D03*
%TO.P,R17,1,1*%
%TO.N,/PC6*%
X163582350Y-64046100D03*
%TD*%
D18*
%TO.P,R18,2,2*%
%TO.N,Net-(LED3-PadA)*%
X144214850Y-82143600D03*
%TO.P,R18,1,1*%
%TO.N,/PA8*%
X149294850Y-82143600D03*
%TD*%
D21*
%TO.P,R19,2,2*%
%TO.N,Net-(LED4-PadA)*%
X149294850Y-79603600D03*
%TO.P,R19,1,1*%
%TO.N,/PD12*%
X144214850Y-79603600D03*
%TD*%
D23*
%TO.P,LED5,K,C*%
%TO.N,DGND*%
X154374850Y-80238600D03*
%TO.P,LED5,A,A*%
%TO.N,Net-(LED5-PadA)*%
X151834850Y-80238600D03*
%TD*%
D10*
%TO.P,R12,2,2*%
%TO.N,Net-(LED5-PadA)*%
X153422350Y-83413600D03*
%TO.P,R12,1,1*%
%TO.N,/PA9*%
X153422350Y-88493600D03*
%TD*%
D29*
%TO.P,C1,2,2*%
%TO.N,AGND*%
X142627350Y-113576100D03*
%TO.P,C1,1,1*%
%TO.N,3V3*%
X145167350Y-113576100D03*
%TD*%
%TO.P,C2,2,2*%
%TO.N,AGND*%
X142309850Y-125006100D03*
%TO.P,C2,1,1*%
%TO.N,3V3*%
X144849850Y-125006100D03*
%TD*%
%TO.P,C4,2,2*%
%TO.N,AGND*%
X133737350Y-94208600D03*
%TO.P,C4,1,1*%
%TO.N,Net-(IC1-+INA)*%
X136277350Y-94208600D03*
%TD*%
%TO.P,C7,2,2*%
%TO.N,AGND*%
X131514850Y-144056100D03*
%TO.P,C7,1,1*%
%TO.N,Net-(IC3-+INA)*%
X134054850Y-144056100D03*
%TD*%
%TO.P,C8,2,2*%
%TO.N,AGND*%
X159137350Y-94208600D03*
%TO.P,C8,1,1*%
%TO.N,Net-(IC1-+IND)*%
X161677350Y-94208600D03*
%TD*%
%TO.P,C9,2,2*%
%TO.N,AGND*%
X158502350Y-144691100D03*
%TO.P,C9,1,1*%
%TO.N,Net-(IC3-+IND)*%
X161042350Y-144691100D03*
%TD*%
%TO.P,C10,2,2*%
%TO.N,AGND*%
X134054850Y-119608600D03*
%TO.P,C10,1,1*%
%TO.N,Net-(IC1-+INB)*%
X136594850Y-119608600D03*
%TD*%
%TO.P,C11,2,2*%
%TO.N,AGND*%
X156210000Y-119888000D03*
%TO.P,C11,1,1*%
%TO.N,Net-(IC1-+INC)*%
X158750000Y-119888000D03*
%TD*%
D30*
%TO.P,C16,2,2*%
%TO.N,AGND*%
X165862000Y-121920000D03*
%TO.P,C16,1,1*%
%TO.N,Net-(IC3-+INB)*%
X165862000Y-119380000D03*
%TD*%
%TO.P,C17,2,2*%
%TO.N,AGND*%
X178054000Y-111760000D03*
%TO.P,C17,1,1*%
%TO.N,Net-(IC3-+INC)*%
X178054000Y-109220000D03*
%TD*%
D31*
%TO.P,JP1,20,20*%
%TO.N,DGND*%
X137547350Y-68808600D03*
%TO.P,JP1,19,19*%
%TO.N,/3V3D*%
X137547350Y-71348600D03*
%TO.P,JP1,18,18*%
%TO.N,/PB12*%
X140087350Y-68808600D03*
%TO.P,JP1,17,17*%
%TO.N,/PB13*%
X140087350Y-71348600D03*
%TO.P,JP1,16,16*%
%TO.N,/PB14*%
X142627350Y-68808600D03*
%TO.P,JP1,15,15*%
%TO.N,/PB15*%
X142627350Y-71348600D03*
%TO.P,JP1,14,14*%
%TO.N,/PD11*%
X145167350Y-68808600D03*
%TO.P,JP1,13,13*%
%TO.N,/PD12*%
X145167350Y-71348600D03*
%TO.P,JP1,12,12*%
%TO.N,/PD13*%
X147707350Y-68808600D03*
%TO.P,JP1,11,11*%
%TO.N,/PC6*%
X147707350Y-71348600D03*
%TO.P,JP1,10,10*%
%TO.N,/PC7*%
X150247350Y-68808600D03*
%TO.P,JP1,9,9*%
%TO.N,/PG6*%
X150247350Y-71348600D03*
%TO.P,JP1,8,8*%
%TO.N,/PG7*%
X152787350Y-68808600D03*
%TO.P,JP1,7,7*%
%TO.N,/PA8*%
X152787350Y-71348600D03*
%TO.P,JP1,6,6*%
%TO.N,/PA9*%
X155327350Y-68808600D03*
%TO.P,JP1,5,5*%
%TO.N,/PA10*%
X155327350Y-71348600D03*
%TO.P,JP1,4,4*%
%TO.N,/PA11*%
X157867350Y-68808600D03*
%TO.P,JP1,3,3*%
%TO.N,/PA12*%
X157867350Y-71348600D03*
%TO.P,JP1,2,2*%
%TO.N,+5V*%
X160407350Y-68808600D03*
%TO.P,JP1,1,1*%
%TO.N,DGND*%
X160407350Y-71348600D03*
%TD*%
D32*
%TO.P,DGND1,1,1*%
%TO.N,DGND*%
X168662350Y-99288600D03*
%TD*%
%TO.P,DGND2,1,1*%
%TO.N,DGND*%
X168662350Y-96748600D03*
%TD*%
%TO.P,DGND3,1,1*%
%TO.N,DGND*%
X168662350Y-101828600D03*
%TD*%
%TO.P,AGND1,1,1*%
%TO.N,AGND*%
X177552350Y-141198600D03*
%TD*%
%TO.P,AGND2,1,1*%
%TO.N,AGND*%
X177552350Y-143738600D03*
%TD*%
%TO.P,AGND3,1,1*%
%TO.N,AGND*%
X175012350Y-141198600D03*
%TD*%
%TO.P,AGND4,1,1*%
%TO.N,AGND*%
X175012350Y-143738600D03*
%TD*%
D20*
%TO.P,JP3,4,4*%
%TO.N,/SDA*%
X146881850Y-64592200D03*
%TO.P,JP3,3,3*%
%TO.N,/SCL*%
X144341850Y-64592200D03*
%TO.P,JP3,2,2*%
%TO.N,DGND*%
X141801850Y-64592200D03*
%TO.P,JP3,1,1*%
%TO.N,/3V3D*%
X139261850Y-64592200D03*
%TD*%
D31*
%TO.P,JP2,20,20*%
%TO.N,DGND*%
X137547350Y-73888600D03*
%TO.P,JP2,19,19*%
%TO.N,/3V3D*%
X137547350Y-76428600D03*
%TO.P,JP2,18,18*%
%TO.N,/PB12*%
X140087350Y-73888600D03*
%TO.P,JP2,17,17*%
%TO.N,/PB13*%
X140087350Y-76428600D03*
%TO.P,JP2,16,16*%
%TO.N,/PB14*%
X142627350Y-73888600D03*
%TO.P,JP2,15,15*%
%TO.N,/PB15*%
X142627350Y-76428600D03*
%TO.P,JP2,14,14*%
%TO.N,/PD11*%
X145167350Y-73888600D03*
%TO.P,JP2,13,13*%
%TO.N,/PD12*%
X145167350Y-76428600D03*
%TO.P,JP2,12,12*%
%TO.N,/PD13*%
X147707350Y-73888600D03*
%TO.P,JP2,11,11*%
%TO.N,/PC6*%
X147707350Y-76428600D03*
%TO.P,JP2,10,10*%
%TO.N,/PC7*%
X150247350Y-73888600D03*
%TO.P,JP2,9,9*%
%TO.N,/PG6*%
X150247350Y-76428600D03*
%TO.P,JP2,8,8*%
%TO.N,/PG7*%
X152787350Y-73888600D03*
%TO.P,JP2,7,7*%
%TO.N,/PA8*%
X152787350Y-76428600D03*
%TO.P,JP2,6,6*%
%TO.N,/PA9*%
X155327350Y-73888600D03*
%TO.P,JP2,5,5*%
%TO.N,/PA10*%
X155327350Y-76428600D03*
%TO.P,JP2,4,4*%
%TO.N,/PA11*%
X157867350Y-73888600D03*
%TO.P,JP2,3,3*%
%TO.N,/PA12*%
X157867350Y-76428600D03*
%TO.P,JP2,2,2*%
%TO.N,+5V*%
X160407350Y-73888600D03*
%TO.P,JP2,1,1*%
%TO.N,DGND*%
X160407350Y-76428600D03*
%TD*%
D33*
%TO.P,JP4,30,30*%
%TO.N,Net-(JP4-Pad30)*%
X126117350Y-117068600D03*
%TO.P,JP4,29,29*%
%TO.N,Net-(JP4-Pad29)*%
X128657350Y-117068600D03*
%TO.P,JP4,28,28*%
%TO.N,Net-(JP4-Pad28)*%
X126117350Y-114528600D03*
%TO.P,JP4,27,27*%
%TO.N,Net-(JP4-Pad27)*%
X128657350Y-114528600D03*
%TO.P,JP4,26,26*%
%TO.N,Net-(JP4-Pad26)*%
X126117350Y-111988600D03*
%TO.P,JP4,25,25*%
%TO.N,Net-(JP4-Pad25)*%
X128657350Y-111988600D03*
%TO.P,JP4,24,24*%
%TO.N,Net-(JP4-Pad24)*%
X126117350Y-109448600D03*
%TO.P,JP4,23,23*%
%TO.N,Net-(JP4-Pad23)*%
X128657350Y-109448600D03*
%TO.P,JP4,22,22*%
%TO.N,Net-(JP4-Pad22)*%
X126117350Y-106908600D03*
%TO.P,JP4,21,21*%
%TO.N,Net-(JP4-Pad21)*%
X128657350Y-106908600D03*
%TO.P,JP4,20,20*%
%TO.N,AGND*%
X126117350Y-104368600D03*
%TO.P,JP4,19,19*%
%TO.N,3V3*%
X128657350Y-104368600D03*
%TO.P,JP4,18,18*%
%TO.N,/PA1*%
X126117350Y-101828600D03*
%TO.P,JP4,17,17*%
%TO.N,/PA0*%
X128657350Y-101828600D03*
%TO.P,JP4,16,16*%
%TO.N,/PA3*%
X126117350Y-99288600D03*
%TO.P,JP4,15,15*%
%TO.N,/PA2*%
X128657350Y-99288600D03*
%TO.P,JP4,14,14*%
%TO.N,/PA5*%
X126117350Y-96748600D03*
%TO.P,JP4,13,13*%
%TO.N,/PA4*%
X128657350Y-96748600D03*
%TO.P,JP4,12,12*%
%TO.N,/PA7*%
X126117350Y-94208600D03*
%TO.P,JP4,11,11*%
%TO.N,/PA6*%
X128657350Y-94208600D03*
%TO.P,JP4,10,10*%
%TO.N,/PC5*%
X126117350Y-91668600D03*
%TO.P,JP4,9,9*%
%TO.N,/PC4*%
X128657350Y-91668600D03*
%TO.P,JP4,8,8*%
%TO.N,/PB1*%
X126117350Y-89128600D03*
%TO.P,JP4,7,7*%
%TO.N,/PB0*%
X128657350Y-89128600D03*
%TO.P,JP4,6,6*%
%TO.N,Net-(JP4-Pad6)*%
X126117350Y-86588600D03*
%TO.P,JP4,5,5*%
%TO.N,Net-(JP4-Pad5)*%
X128657350Y-86588600D03*
%TO.P,JP4,4,4*%
%TO.N,Net-(JP4-Pad4)*%
X126117350Y-84048600D03*
%TO.P,JP4,3,3*%
%TO.N,Net-(JP4-Pad3)*%
X128657350Y-84048600D03*
%TO.P,JP4,2,2*%
%TO.N,/SDA*%
X126117350Y-81508600D03*
%TO.P,JP4,1,1*%
%TO.N,/SCL*%
X128657350Y-81508600D03*
%TD*%
%TO.P,JP5,30,30*%
%TO.N,Net-(JP4-Pad30)*%
X121037350Y-117068600D03*
%TO.P,JP5,29,29*%
%TO.N,Net-(JP4-Pad29)*%
X123577350Y-117068600D03*
%TO.P,JP5,28,28*%
%TO.N,Net-(JP4-Pad28)*%
X121037350Y-114528600D03*
%TO.P,JP5,27,27*%
%TO.N,Net-(JP4-Pad27)*%
X123577350Y-114528600D03*
%TO.P,JP5,26,26*%
%TO.N,Net-(JP4-Pad26)*%
X121037350Y-111988600D03*
%TO.P,JP5,25,25*%
%TO.N,Net-(JP4-Pad25)*%
X123577350Y-111988600D03*
%TO.P,JP5,24,24*%
%TO.N,Net-(JP4-Pad24)*%
X121037350Y-109448600D03*
%TO.P,JP5,23,23*%
%TO.N,Net-(JP4-Pad23)*%
X123577350Y-109448600D03*
%TO.P,JP5,22,22*%
%TO.N,Net-(JP4-Pad22)*%
X121037350Y-106908600D03*
%TO.P,JP5,21,21*%
%TO.N,Net-(JP4-Pad21)*%
X123577350Y-106908600D03*
%TO.P,JP5,20,20*%
%TO.N,AGND*%
X121037350Y-104368600D03*
%TO.P,JP5,19,19*%
%TO.N,3V3*%
X123577350Y-104368600D03*
%TO.P,JP5,18,18*%
%TO.N,/PA1*%
X121037350Y-101828600D03*
%TO.P,JP5,17,17*%
%TO.N,/PA0*%
X123577350Y-101828600D03*
%TO.P,JP5,16,16*%
%TO.N,/PA3*%
X121037350Y-99288600D03*
%TO.P,JP5,15,15*%
%TO.N,/PA2*%
X123577350Y-99288600D03*
%TO.P,JP5,14,14*%
%TO.N,/PA5*%
X121037350Y-96748600D03*
%TO.P,JP5,13,13*%
%TO.N,/PA4*%
X123577350Y-96748600D03*
%TO.P,JP5,12,12*%
%TO.N,/PA7*%
X121037350Y-94208600D03*
%TO.P,JP5,11,11*%
%TO.N,/PA6*%
X123577350Y-94208600D03*
%TO.P,JP5,10,10*%
%TO.N,/PC5*%
X121037350Y-91668600D03*
%TO.P,JP5,9,9*%
%TO.N,/PC4*%
X123577350Y-91668600D03*
%TO.P,JP5,8,8*%
%TO.N,/PB1*%
X121037350Y-89128600D03*
%TO.P,JP5,7,7*%
%TO.N,/PB0*%
X123577350Y-89128600D03*
%TO.P,JP5,6,6*%
%TO.N,Net-(JP4-Pad6)*%
X121037350Y-86588600D03*
%TO.P,JP5,5,5*%
%TO.N,Net-(JP4-Pad5)*%
X123577350Y-86588600D03*
%TO.P,JP5,4,4*%
%TO.N,Net-(JP4-Pad4)*%
X121037350Y-84048600D03*
%TO.P,JP5,3,3*%
%TO.N,Net-(JP4-Pad3)*%
X123577350Y-84048600D03*
%TO.P,JP5,2,2*%
%TO.N,/SDA*%
X121037350Y-81508600D03*
%TO.P,JP5,1,1*%
%TO.N,/SCL*%
X123577350Y-81508600D03*
%TD*%
D34*
%TO.P,U$3,P$6,S2*%
%TO.N,DGND*%
X177484850Y-71823600D03*
%TO.P,U$3,P$5,S1*%
X164284850Y-71823600D03*
D35*
%TO.P,U$3,4,4*%
X174384850Y-74523600D03*
%TO.P,U$3,1,1*%
%TO.N,+5V*%
X167384850Y-74523600D03*
%TO.P,U$3,3,3*%
%TO.N,/PA12*%
X171884850Y-74523600D03*
%TO.P,U$3,2,2*%
%TO.N,/PA11*%
X169884850Y-74523600D03*
%TD*%
D26*
%TO.P,S3,P2_3,P$6*%
%TO.N,/PD11*%
X172472350Y-98336100D03*
%TO.P,S3,P1_3,P$3*%
%TO.N,DGND*%
X177552350Y-98336100D03*
%TO.P,S3,P2_2,P$5*%
%TO.N,/PD11*%
X172472350Y-104686100D03*
%TO.P,S3,P1_2,P$2*%
%TO.N,DGND*%
X177552350Y-104686100D03*
D27*
%TO.P,S3,P2_1,P$4*%
%TO.N,/PD11*%
X172512350Y-101511100D03*
%TO.P,S3,P1_1,P$1*%
%TO.N,DGND*%
X177512350Y-101511100D03*
%TD*%
D33*
%TO.P,JP9,6,6*%
%TO.N,unconnected-(JP9-Pad6)*%
X164852350Y-77063600D03*
%TO.P,JP9,5,5*%
%TO.N,/PA12*%
X167392350Y-77063600D03*
%TO.P,JP9,4,4*%
%TO.N,/PA11*%
X169932350Y-77063600D03*
%TO.P,JP9,3,3*%
%TO.N,unconnected-(JP9-Pad3)*%
X172472350Y-77063600D03*
%TO.P,JP9,2,2*%
%TO.N,DGND*%
X175012350Y-77063600D03*
%TO.P,JP9,1,1*%
%TO.N,+5V*%
X177552350Y-77063600D03*
%TD*%
D36*
%TO.P,U$1,3,3*%
%TO.N,unconnected-(U$1-Pad3)*%
X128022350Y-69506100D03*
D37*
%TO.P,U$1,1,1*%
%TO.N,Net-(IC2-VI)*%
X131022350Y-74206100D03*
%TO.P,U$1,2,2*%
%TO.N,DGND*%
X125022350Y-74206100D03*
%TD*%
D32*
%TO.P,UNK5V0,1,1*%
%TO.N,+5V*%
X146437350Y-91351100D03*
%TD*%
%TO.P,UNK3V3A0,1,1*%
%TO.N,3V3*%
X158502350Y-99923600D03*
%TD*%
%TO.P,UNK3V3A1,1,1*%
%TO.N,3V3*%
X158502350Y-102463600D03*
%TD*%
%TO.P,AGND0,1,1*%
%TO.N,AGND*%
X161042350Y-99923600D03*
%TD*%
%TO.P,AGND5,1,1*%
%TO.N,AGND*%
X161042350Y-102463600D03*
%TD*%
%TO.P,UNK5VD0,1,1*%
%TO.N,+5V*%
X166122350Y-99288600D03*
%TD*%
%TO.P,UNK5V2,1,1*%
%TO.N,+5V*%
X166122350Y-101828600D03*
%TD*%
%TO.P,UNK3V3D0,1,1*%
%TO.N,/3V3D*%
X133737350Y-74168000D03*
%TD*%
D38*
%TO.N,/SDA*%
X133737350Y-77698600D03*
%TO.N,Net-(IC3-+INC)*%
X157549850Y-126593600D03*
%TO.N,Net-(IC3-+INB)*%
X160089850Y-125958600D03*
%TO.N,Net-(IC3-+IND)*%
X164217350Y-124371100D03*
%TO.N,Net-(IC3-+INA)*%
X136912350Y-126911100D03*
%TO.N,Net-(IC1-+IND)*%
X155644850Y-113576100D03*
%TO.N,Net-(JP10-RIGHT)*%
X135324850Y-77698600D03*
X128974850Y-78651100D03*
%TO.N,/PA7*%
X150564850Y-108813600D03*
%TO.N,/PA6*%
X149929850Y-110401100D03*
%TO.N,/PA5*%
X150564850Y-116751100D03*
%TO.N,/PA4*%
X131197350Y-99288600D03*
X144532350Y-116751100D03*
%TO.N,/PA3*%
X142944850Y-119608600D03*
%TO.N,/PA2*%
X131197350Y-119926100D03*
%TO.N,/PA1*%
X142944850Y-122466100D03*
X155644850Y-127863600D03*
%TO.N,/PA0*%
X133102350Y-101828600D03*
X144214850Y-128181100D03*
%TO.N,/PD11*%
X159111950Y-67373500D03*
X168027350Y-78968600D03*
%TO.N,/PG7*%
X155962350Y-79603600D03*
X160407350Y-83096100D03*
X162947350Y-84683600D03*
%TO.N,AGND*%
X150564850Y-113258600D03*
X155644850Y-125006100D03*
D39*
%TO.N,DGND*%
X133737350Y-71666100D03*
%TD*%
D40*
%TO.N,/SCL*%
X144341850Y-64592200D02*
X144214850Y-64401700D01*
X144214850Y-64681100D02*
X141992350Y-66903600D01*
X132588000Y-77216000D02*
X132588000Y-77577950D01*
X141992350Y-66903600D02*
X135959850Y-66903600D01*
X144214850Y-64401700D02*
X144214850Y-64681100D01*
X135959850Y-66903600D02*
X135134350Y-67856100D01*
X133629400Y-76428600D02*
X133375400Y-76428600D01*
X135134350Y-67856100D02*
X135134350Y-74923650D01*
X135134350Y-74923650D02*
X133629400Y-76428600D01*
X133375400Y-76428600D02*
X132588000Y-77216000D01*
X132588000Y-77577950D02*
X128657350Y-81508600D01*
D41*
%TO.N,Net-(IC3-+INC)*%
X172789850Y-110083600D02*
X169824400Y-110083600D01*
X168402000Y-114858442D02*
X161746842Y-121513600D01*
X160089850Y-121513600D02*
X159137350Y-122466100D01*
X169824400Y-110083600D02*
X168402000Y-111506000D01*
X168402000Y-111506000D02*
X168402000Y-114858442D01*
X159137350Y-124688600D02*
X158502350Y-125323600D01*
X161746842Y-121513600D02*
X160089850Y-121513600D01*
X159137350Y-122466100D02*
X159137350Y-124688600D01*
X158502350Y-125323600D02*
X158502350Y-125641100D01*
X158502350Y-125641100D02*
X157549850Y-126593600D01*
X178054000Y-109220000D02*
X177190400Y-110083600D01*
X177190400Y-110083600D02*
X172789850Y-110083600D01*
%TO.N,Net-(IC3-+INB)*%
X165862000Y-119380000D02*
X169418000Y-115824000D01*
X169418000Y-115824000D02*
X171022000Y-114888000D01*
X165862000Y-120243600D02*
X165862000Y-119380000D01*
X160089850Y-125958600D02*
X160089850Y-123101100D01*
X160089850Y-123101100D02*
X160724850Y-122466100D01*
X160724850Y-122466100D02*
X162521900Y-122466100D01*
X164744400Y-120243600D02*
X165862000Y-120243600D01*
X162521900Y-122466100D02*
X164744400Y-120243600D01*
D40*
%TO.N,Net-(JP4-Pad29)*%
X127387350Y-115798600D02*
X128657350Y-117068600D01*
X124847350Y-115798600D02*
X127387350Y-115798600D01*
X123577350Y-117068600D02*
X124847350Y-115798600D01*
%TO.N,Net-(JP4-Pad27)*%
X124847350Y-113258600D02*
X123577350Y-114528600D01*
X127387350Y-113258600D02*
X124847350Y-113258600D01*
X128657350Y-114528600D02*
X127387350Y-113258600D01*
%TO.N,Net-(JP4-Pad25)*%
X124847350Y-110718600D02*
X123577350Y-111988600D01*
X127069850Y-110718600D02*
X124847350Y-110718600D01*
X128339850Y-111988600D02*
X127069850Y-110718600D01*
X128657350Y-111988600D02*
X128339850Y-111988600D01*
%TO.N,Net-(JP4-Pad23)*%
X124847350Y-108178600D02*
X123577350Y-109448600D01*
X127069850Y-108178600D02*
X124847350Y-108178600D01*
X128339850Y-109448600D02*
X127069850Y-108178600D01*
X128657350Y-109448600D02*
X128339850Y-109448600D01*
%TO.N,Net-(JP4-Pad21)*%
X124847350Y-105638600D02*
X123577350Y-106908600D01*
X127069850Y-105638600D02*
X124847350Y-105638600D01*
X128339850Y-106908600D02*
X127069850Y-105638600D01*
X128657350Y-106908600D02*
X128339850Y-106908600D01*
D41*
%TO.N,Net-(JP4-Pad5)*%
X127387350Y-85318600D02*
X128657350Y-86588600D01*
X124847350Y-85318600D02*
X127387350Y-85318600D01*
X123577350Y-86588600D02*
X124847350Y-85318600D01*
%TO.N,Net-(JP4-Pad3)*%
X127387350Y-82778600D02*
X128657350Y-84048600D01*
X124847350Y-82778600D02*
X127387350Y-82778600D01*
X123577350Y-84048600D02*
X124847350Y-82778600D01*
D40*
%TO.N,/3V3D*%
X137547350Y-76428600D02*
X136277350Y-75158600D01*
X136277350Y-72618600D02*
X137547350Y-71348600D01*
X136277350Y-75158600D02*
X136277350Y-72618600D01*
D41*
%TO.N,/SCL*%
X127387350Y-80238600D02*
X128657350Y-81508600D01*
X124847350Y-80238600D02*
X127387350Y-80238600D01*
X123577350Y-81508600D02*
X124847350Y-80238600D01*
D40*
%TO.N,/SDA*%
X133737350Y-77063600D02*
X133737350Y-77698600D01*
X135718550Y-75158600D02*
X133737350Y-77063600D01*
X135718550Y-68491100D02*
X135718550Y-75158600D01*
X136277350Y-67538600D02*
X135718550Y-68491100D01*
X142627350Y-67538600D02*
X136277350Y-67538600D01*
X143579850Y-66586100D02*
X142627350Y-67538600D01*
X144532350Y-66586100D02*
X143579850Y-66586100D01*
X145205450Y-66586100D02*
X144532350Y-66586100D01*
X146881850Y-64592200D02*
X145205450Y-66586100D01*
D41*
%TO.N,Net-(LED5-PadA)*%
X151834850Y-82461100D02*
X153422350Y-83413600D01*
X151834850Y-80238600D02*
X151834850Y-82461100D01*
D42*
%TO.N,Net-(JP12-Pad1)*%
X152469850Y-137706100D02*
X152787350Y-137388600D01*
X152152350Y-137706100D02*
X152469850Y-137706100D01*
X151517350Y-138341100D02*
X152152350Y-137706100D01*
X151517350Y-141516100D02*
X151517350Y-138341100D01*
X152152350Y-142151100D02*
X151517350Y-141516100D01*
X153104850Y-142151100D02*
X152152350Y-142151100D01*
D43*
X153104850Y-142151100D02*
X152787350Y-142468600D01*
X155327350Y-142151100D02*
X153104850Y-142151100D01*
X156279850Y-141198600D02*
X155327350Y-142151100D01*
X157867350Y-139928600D02*
X156279850Y-141198600D01*
X159772350Y-139928600D02*
X157867350Y-139928600D01*
X161677350Y-138023600D02*
X159772350Y-139928600D01*
X161677350Y-126911100D02*
X161677350Y-138023600D01*
%TO.N,Net-(JP8-RIGHT)*%
X166757350Y-126911100D02*
X166757350Y-124371100D01*
X167472350Y-127626100D02*
X166757350Y-126911100D01*
X170647350Y-127626100D02*
X167472350Y-127626100D01*
%TO.N,Net-(JP12-Pad2)*%
X149612350Y-131673600D02*
X148342350Y-131673600D01*
X151199850Y-133261100D02*
X149612350Y-131673600D01*
X152787350Y-134848600D02*
X151199850Y-133261100D01*
%TO.N,Net-(JP8-LEFT)*%
X155009850Y-138976100D02*
X155327350Y-139293600D01*
X154374850Y-138341100D02*
X155009850Y-138976100D01*
X154374850Y-133896100D02*
X154374850Y-138341100D01*
X153422350Y-132943600D02*
X154374850Y-133896100D01*
X153422350Y-131673600D02*
X153422350Y-132943600D01*
%TO.N,Net-(JP7-LEFT)*%
X132784850Y-128498600D02*
X134054850Y-128181100D01*
X131832350Y-128498600D02*
X132784850Y-128498600D01*
X128974850Y-131356100D02*
X131832350Y-128498600D01*
X128974850Y-133896100D02*
X128974850Y-131356100D01*
X127307350Y-135563600D02*
X128974850Y-133896100D01*
X126672350Y-135563600D02*
X127307350Y-135563600D01*
%TO.N,Net-(JP12-Pad7)*%
X145167350Y-143738600D02*
X145484850Y-143738600D01*
X144849850Y-144056100D02*
X145167350Y-143738600D01*
X142944850Y-145961100D02*
X144849850Y-144056100D01*
X141039850Y-145961100D02*
X142944850Y-145961100D01*
X145484850Y-143738600D02*
X145167350Y-142468600D01*
D44*
X148024850Y-145961100D02*
X145484850Y-143738600D01*
X150247350Y-145961100D02*
X148024850Y-145961100D01*
%TO.N,Net-(JP7-RIGHT)*%
X126989850Y-145881100D02*
X135959850Y-145961100D01*
X126672350Y-145563600D02*
X126989850Y-145881100D01*
D43*
%TO.N,Net-(JP12-Pad8)*%
X144214850Y-133896100D02*
X145167350Y-134848600D01*
X144214850Y-131356100D02*
X144214850Y-133896100D01*
X141039850Y-128181100D02*
X144214850Y-131356100D01*
X139134850Y-128181100D02*
X141039850Y-128181100D01*
X143579850Y-136436100D02*
X145167350Y-134848600D01*
X143579850Y-137388600D02*
X143579850Y-136436100D01*
X142309850Y-138976100D02*
X143579850Y-137388600D01*
X143897350Y-139928600D02*
X145167350Y-139928600D01*
X142627350Y-138658600D02*
X143897350Y-139928600D01*
D41*
X142309850Y-138976100D02*
X142627350Y-138658600D01*
%TO.N,Net-(IC3-+IND)*%
X161677350Y-140246100D02*
X161677350Y-141798600D01*
X163264850Y-138658600D02*
X161677350Y-140246100D01*
X163264850Y-131356100D02*
X163264850Y-138658600D01*
X164217350Y-130403600D02*
X163264850Y-131356100D01*
X164217350Y-124371100D02*
X164217350Y-130403600D01*
D43*
X161677350Y-143421100D02*
X161677350Y-141798600D01*
X161042350Y-144056100D02*
X161677350Y-143421100D01*
X161042350Y-144691100D02*
X161042350Y-144056100D01*
D41*
%TO.N,Net-(IC3-+INA)*%
X136912350Y-141163600D02*
X136277350Y-141798600D01*
X136912350Y-126911100D02*
X136912350Y-141163600D01*
X136277350Y-142786100D02*
X136277350Y-141798600D01*
X135007350Y-144056100D02*
X136277350Y-142786100D01*
X134054850Y-144056100D02*
X135007350Y-144056100D01*
%TO.N,Net-(IC1-+IND)*%
X158819850Y-113576100D02*
X155644850Y-113576100D01*
X160407350Y-111988600D02*
X158819850Y-113576100D01*
X163264850Y-109131100D02*
X160407350Y-111988600D01*
X163264850Y-95796100D02*
X163264850Y-109131100D01*
X161677350Y-94208600D02*
X163264850Y-95796100D01*
D40*
%TO.N,Net-(JP10-RIGHT)*%
X143897350Y-96113600D02*
X143579850Y-96431100D01*
X143897350Y-92621100D02*
X143897350Y-96113600D01*
X143897350Y-90716100D02*
X143897350Y-92621100D01*
X140087350Y-86906100D02*
X143897350Y-90716100D01*
X136277350Y-86906100D02*
X140087350Y-86906100D01*
X135324850Y-85953600D02*
X136277350Y-86906100D01*
X135324850Y-77698600D02*
X135324850Y-85953600D01*
X128339850Y-79286100D02*
X128974850Y-78651100D01*
X128339850Y-79286100D02*
X128974850Y-78651100D01*
X119767350Y-79286100D02*
X128339850Y-79286100D01*
X118179850Y-80873600D02*
X119767350Y-79286100D01*
X118179850Y-118656100D02*
X118179850Y-80873600D01*
X119767350Y-120243600D02*
X118179850Y-118656100D01*
X123894850Y-120243600D02*
X119767350Y-120243600D01*
X124529850Y-120878600D02*
X123894850Y-120243600D01*
X124529850Y-131038600D02*
X124529850Y-120878600D01*
X125084850Y-131593600D02*
X124529850Y-131038600D01*
X126672350Y-131593600D02*
X125084850Y-131593600D01*
D41*
%TO.N,Net-(IC5-VB)*%
X148977350Y-91351100D02*
X148977350Y-94843600D01*
%TO.N,/PA7*%
X122307350Y-92938600D02*
X121037350Y-94208600D01*
X125164850Y-92938600D02*
X122307350Y-92938600D01*
X126117350Y-93891100D02*
X125164850Y-92938600D01*
X126117350Y-94208600D02*
X126117350Y-93891100D01*
X127387350Y-92938600D02*
X126117350Y-94208600D01*
X130244850Y-92938600D02*
X127387350Y-92938600D01*
X144849850Y-106273600D02*
X130244850Y-92938600D01*
X144849850Y-107226100D02*
X144849850Y-106273600D01*
X146437350Y-108813600D02*
X144849850Y-107226100D01*
X150564850Y-108813600D02*
X146437350Y-108813600D01*
%TO.N,/PA6*%
X129609850Y-94208600D02*
X128657350Y-94208600D01*
X129927350Y-94208600D02*
X129609850Y-94208600D01*
X143897350Y-106908600D02*
X129927350Y-94208600D01*
X143897350Y-107543600D02*
X143897350Y-106908600D01*
X143897350Y-108178600D02*
X143897350Y-107543600D01*
X146119850Y-110401100D02*
X143897350Y-108178600D01*
X149929850Y-110401100D02*
X146119850Y-110401100D01*
%TO.N,/PA5*%
X127387350Y-98018600D02*
X126117350Y-96748600D01*
X128022350Y-98018600D02*
X127387350Y-98018600D01*
X129292350Y-98018600D02*
X128022350Y-98018600D01*
X130244850Y-98018600D02*
X129292350Y-98018600D01*
X130562350Y-98018600D02*
X130244850Y-98018600D01*
X131197350Y-98018600D02*
X130562350Y-98018600D01*
X132784850Y-98018600D02*
X131197350Y-98018600D01*
X142944850Y-107543600D02*
X132784850Y-98018600D01*
X142944850Y-108813600D02*
X142944850Y-107543600D01*
X147389850Y-113258600D02*
X142944850Y-108813600D01*
X147389850Y-114846100D02*
X147389850Y-113258600D01*
X149294850Y-116751100D02*
X147389850Y-114846100D01*
X150564850Y-116751100D02*
X149294850Y-116751100D01*
%TO.N,/PA4*%
X132467350Y-99288600D02*
X131197350Y-99288600D01*
X138182350Y-104368600D02*
X132467350Y-99288600D01*
X138182350Y-111353600D02*
X138182350Y-104368600D01*
X138817350Y-111988600D02*
X138182350Y-111353600D01*
X140087350Y-111988600D02*
X138817350Y-111988600D01*
X141357350Y-113258600D02*
X140087350Y-111988600D01*
X141357350Y-114846100D02*
X141357350Y-113258600D01*
X143262350Y-116751100D02*
X141357350Y-114846100D01*
X144532350Y-116751100D02*
X143262350Y-116751100D01*
X127387350Y-95478600D02*
X128657350Y-96748600D01*
X124847350Y-95478600D02*
X127387350Y-95478600D01*
X123577350Y-96748600D02*
X124847350Y-95478600D01*
%TO.N,/PA3*%
X120084850Y-99288600D02*
X121037350Y-99288600D01*
X119132350Y-100241100D02*
X120084850Y-99288600D01*
X119132350Y-118021100D02*
X119132350Y-100241100D01*
X119767350Y-118656100D02*
X119132350Y-118021100D01*
X128022350Y-118656100D02*
X119767350Y-118656100D01*
X132467350Y-123101100D02*
X128022350Y-118656100D01*
X136594850Y-123101100D02*
X132467350Y-123101100D01*
X140087350Y-119608600D02*
X136594850Y-123101100D01*
X140087350Y-119608600D02*
X136594850Y-123101100D01*
X142944850Y-119608600D02*
X140087350Y-119608600D01*
D40*
%TO.N,/PA2*%
X124847350Y-100558600D02*
X123577350Y-99288600D01*
X127704850Y-100558600D02*
X124847350Y-100558600D01*
X128657350Y-98971100D02*
X127704850Y-100558600D01*
X128657350Y-99288600D02*
X128657350Y-98971100D01*
D41*
X129609850Y-100558600D02*
X128657350Y-99288600D01*
X134372350Y-105321100D02*
X129609850Y-100558600D01*
X134372350Y-112941100D02*
X134372350Y-105321100D01*
X131197350Y-116116100D02*
X134372350Y-112941100D01*
X131197350Y-119926100D02*
X131197350Y-116116100D01*
%TO.N,/PA1*%
X147389850Y-122466100D02*
X142944850Y-122466100D01*
X150564850Y-125641100D02*
X147389850Y-122466100D01*
X150564850Y-126276100D02*
X150564850Y-125641100D01*
X152152350Y-127863600D02*
X150564850Y-126276100D01*
X155644850Y-127863600D02*
X152152350Y-127863600D01*
%TO.N,/PA0*%
X134054850Y-102781100D02*
X133102350Y-101828600D01*
X134689850Y-102781100D02*
X134054850Y-102781100D01*
X137229850Y-105003600D02*
X134689850Y-102781100D01*
X137229850Y-111988600D02*
X137229850Y-105003600D01*
X140404850Y-115163600D02*
X137229850Y-111988600D01*
X140404850Y-115481100D02*
X140404850Y-115163600D01*
X141357350Y-116433600D02*
X140404850Y-115481100D01*
X141357350Y-116751100D02*
X141357350Y-116433600D01*
X142944850Y-118338600D02*
X141357350Y-116751100D01*
X143897350Y-118338600D02*
X142944850Y-118338600D01*
X144849850Y-119291100D02*
X143897350Y-118338600D01*
X144849850Y-120243600D02*
X144849850Y-119291100D01*
X143897350Y-121196100D02*
X144849850Y-120243600D01*
X142309850Y-121196100D02*
X143897350Y-121196100D01*
X141039850Y-122466100D02*
X142309850Y-121196100D01*
X141039850Y-125958600D02*
X141039850Y-122466100D01*
X143262350Y-128181100D02*
X141039850Y-125958600D01*
X144214850Y-128181100D02*
X143262350Y-128181100D01*
D40*
X124847350Y-103098600D02*
X123577350Y-101828600D01*
X127069850Y-103098600D02*
X124847350Y-103098600D01*
X128339850Y-101828600D02*
X127069850Y-103098600D01*
X128657350Y-101828600D02*
X128339850Y-101828600D01*
D41*
%TO.N,/PB0*%
X127387350Y-87858600D02*
X128657350Y-89128600D01*
X124847350Y-87858600D02*
X127387350Y-87858600D01*
X123577350Y-89128600D02*
X124847350Y-87858600D01*
%TO.N,/PC4*%
X127387350Y-90398600D02*
X128657350Y-91668600D01*
X124847350Y-90398600D02*
X127387350Y-90398600D01*
X123577350Y-91668600D02*
X124847350Y-90398600D01*
D40*
%TO.N,/PB13*%
X138817350Y-75158600D02*
X140087350Y-76428600D01*
X138817350Y-72618600D02*
X140087350Y-71348600D01*
X138817350Y-75158600D02*
X138817350Y-72618600D01*
%TO.N,/PB15*%
X141357350Y-75158600D02*
X142627350Y-76428600D01*
X143897350Y-70078600D02*
X142627350Y-71348600D01*
X143897350Y-67856100D02*
X143897350Y-70078600D01*
X144532350Y-67221100D02*
X143897350Y-67856100D01*
X144849850Y-67221100D02*
X144532350Y-67221100D01*
X148024850Y-67221100D02*
X144849850Y-67221100D01*
X148977350Y-66268600D02*
X148024850Y-67221100D01*
X149294850Y-66205100D02*
X148977350Y-66268600D01*
X149180550Y-65900300D02*
X149294850Y-66205100D01*
X141357350Y-72618600D02*
X142627350Y-71348600D01*
X141357350Y-75158600D02*
X141357350Y-72618600D01*
%TO.N,/PD11*%
X159137350Y-67538600D02*
X159111950Y-67373500D01*
X159137350Y-74206100D02*
X159137350Y-67538600D01*
X159137350Y-74841100D02*
X159137350Y-74206100D01*
X159454850Y-75158600D02*
X159137350Y-74841100D01*
X161994850Y-75158600D02*
X159454850Y-75158600D01*
X162947350Y-76111100D02*
X161994850Y-75158600D01*
X162947350Y-78016100D02*
X162947350Y-76111100D01*
X163899850Y-78968600D02*
X162947350Y-78016100D01*
X168027350Y-78968600D02*
X163899850Y-78968600D01*
%TO.N,/PD12*%
X143897350Y-75158600D02*
X145167350Y-76428600D01*
X143897350Y-72618600D02*
X145167350Y-71348600D01*
X143897350Y-75158600D02*
X143897350Y-72618600D01*
%TO.N,/PC6*%
X146437350Y-75158600D02*
X147707350Y-76428600D01*
X148977350Y-70078600D02*
X147707350Y-71348600D01*
X148977350Y-68173600D02*
X148977350Y-70078600D01*
X149929850Y-67221100D02*
X148977350Y-68173600D01*
X150882350Y-66268600D02*
X149929850Y-67221100D01*
X161042350Y-66268600D02*
X150882350Y-66268600D01*
X163582350Y-64046100D02*
X161042350Y-66268600D01*
X146437350Y-72618600D02*
X147707350Y-71348600D01*
X146437350Y-75158600D02*
X146437350Y-72618600D01*
D41*
%TO.N,/PC7*%
X150882350Y-94526100D02*
X151517350Y-94843600D01*
X150882350Y-89763600D02*
X150882350Y-94526100D01*
X150247350Y-89128600D02*
X150882350Y-89763600D01*
X149929850Y-89128600D02*
X150247350Y-89128600D01*
D40*
%TO.N,/PG6*%
X150564850Y-76746100D02*
X150247350Y-76428600D01*
X150564850Y-80873600D02*
X150564850Y-76746100D01*
X151199850Y-81508600D02*
X150564850Y-80873600D01*
X151199850Y-83096100D02*
X151199850Y-81508600D01*
X150247350Y-84048600D02*
X151199850Y-83096100D01*
X150247350Y-86588600D02*
X150247350Y-84048600D01*
X152152350Y-88493600D02*
X150247350Y-86588600D01*
X152152350Y-89763600D02*
X152152350Y-88493600D01*
X152469850Y-90081100D02*
X152152350Y-89763600D01*
X154692350Y-90081100D02*
X152469850Y-90081100D01*
X155962350Y-89128600D02*
X154692350Y-90081100D01*
X157549850Y-89128600D02*
X155962350Y-89128600D01*
X161677350Y-85001100D02*
X157549850Y-89128600D01*
X161677350Y-81191100D02*
X161677350Y-85001100D01*
X162947350Y-80238600D02*
X161677350Y-81191100D01*
X172154850Y-80238600D02*
X162947350Y-80238600D01*
X172472350Y-79921100D02*
X172154850Y-80238600D01*
X148977350Y-75158600D02*
X150247350Y-76428600D01*
X148977350Y-72618600D02*
X150247350Y-71348600D01*
X148977350Y-75158600D02*
X148977350Y-72618600D01*
%TO.N,/PG7*%
X155962350Y-81191100D02*
X155962350Y-79603600D01*
X156279850Y-81508600D02*
X155962350Y-81191100D01*
X159137350Y-81508600D02*
X156279850Y-81508600D01*
X160407350Y-82778600D02*
X159137350Y-81508600D01*
X160407350Y-83096100D02*
X160407350Y-82778600D01*
X162947350Y-88176100D02*
X162947350Y-84683600D01*
X163899850Y-89128600D02*
X162947350Y-88176100D01*
X164217350Y-89128600D02*
X163899850Y-89128600D01*
X172472350Y-89128600D02*
X164217350Y-89128600D01*
%TO.N,/PA8*%
X152787350Y-76746100D02*
X152787350Y-76428600D01*
X151517350Y-75158600D02*
X152787350Y-76428600D01*
X151517350Y-72618600D02*
X152787350Y-71348600D01*
X151517350Y-75158600D02*
X151517350Y-72618600D01*
D41*
X153104850Y-77063600D02*
X152787350Y-76746100D01*
D40*
%TO.N,/PA9*%
X155009850Y-87541100D02*
X153422350Y-88493600D01*
X155009850Y-82778600D02*
X155009850Y-87541100D01*
X154692350Y-82461100D02*
X155009850Y-82778600D01*
X153104850Y-80873600D02*
X154692350Y-82461100D01*
X153104850Y-79286100D02*
X153104850Y-80873600D01*
X154057350Y-78333600D02*
X153104850Y-79286100D01*
X155962350Y-78333600D02*
X154057350Y-78333600D01*
X156597350Y-75158600D02*
X155327350Y-73888600D01*
X156597350Y-77698600D02*
X156597350Y-75158600D01*
X155962350Y-78333600D02*
X156597350Y-77698600D01*
%TO.N,/PA10*%
X154057350Y-75158600D02*
X155327350Y-76428600D01*
X155327350Y-76428600D02*
X155644850Y-76428600D01*
X154057350Y-72618600D02*
X155327350Y-71348600D01*
X154057350Y-72936100D02*
X154057350Y-72618600D01*
X154057350Y-75158600D02*
X154057350Y-72936100D01*
%TO.N,/PA11*%
X169932350Y-75111100D02*
X169884850Y-74523600D01*
X169932350Y-77063600D02*
X169932350Y-75111100D01*
X156597350Y-72618600D02*
X157867350Y-73888600D01*
X158184850Y-68808600D02*
X157867350Y-68808600D01*
X156597350Y-70396100D02*
X158184850Y-68808600D01*
X156597350Y-72618600D02*
X156597350Y-70396100D01*
D45*
%TO.N,+5V*%
X127069850Y-64363600D02*
X125164850Y-66268600D01*
X127387350Y-64363600D02*
X127069850Y-64363600D01*
X131237350Y-64363600D02*
X127387350Y-64363600D01*
D46*
%TO.N,DGND*%
X133419850Y-70713600D02*
X133737350Y-71666100D01*
X133419850Y-67538600D02*
X133419850Y-70713600D01*
X136237350Y-64721100D02*
X133419850Y-67538600D01*
D47*
X136237350Y-64363600D02*
X136237350Y-64721100D01*
%TD*%
M02*
