M48
; DRILL file {KiCad 9.0.4} date 2026-07-16T16:32:08-0400
; FORMAT={-:-/ absolute / metric / decimal}
; #@! TF.CreationDate,2026-07-16T16:32:08-04:00
; #@! TF.GenerationSoftware,Kicad,Pcbnew,9.0.4
; #@! TF.FileFunction,Plated,1,4,PTH
FMAT,2
METRIC
; #@! TA.AperFunction,Plated,PTH,ViaDrill
T1C0.600
; #@! TA.AperFunction,Plated,PTH,ViaDrill
T2C0.700
; #@! TA.AperFunction,Plated,PTH,ComponentDrill
T3C0.800
; #@! TA.AperFunction,Plated,PTH,ComponentDrill
T4C0.813
; #@! TA.AperFunction,Plated,PTH,ComponentDrill
T5C0.900
; #@! TA.AperFunction,Plated,PTH,ComponentDrill
T6C1.000
; #@! TA.AperFunction,Plated,PTH,ComponentDrill
T7C1.016
; #@! TA.AperFunction,Plated,PTH,ComponentDrill
T8C1.300
; #@! TA.AperFunction,Plated,PTH,ComponentDrill
T9C1.500
; #@! TA.AperFunction,Plated,PTH,ComponentDrill
T10C2.200
; #@! TA.AperFunction,Plated,PTH,ComponentDrill
T11C2.380
%
G90
G05
T1
X128.975Y-78.651
X131.197Y-99.289
X131.197Y-119.926
X133.102Y-101.829
X133.737Y-77.699
X135.325Y-77.699
X136.912Y-126.911
X142.945Y-119.609
X142.945Y-122.466
X144.215Y-128.181
X144.532Y-116.751
X149.93Y-110.401
X150.565Y-108.814
X150.565Y-113.259
X150.565Y-116.751
X155.645Y-113.576
X155.645Y-125.006
X155.645Y-127.864
X155.962Y-79.604
X157.55Y-126.594
X159.112Y-67.373
X160.09Y-125.959
X160.407Y-83.096
X162.947Y-84.684
X164.217Y-124.371
X168.027Y-78.969
T2
X133.737Y-71.666
T4
X131.515Y-144.056
X133.737Y-94.209
X134.055Y-119.609
X134.055Y-128.181
X134.055Y-144.056
X135.96Y-145.961
X136.277Y-94.209
X136.595Y-119.609
X139.135Y-128.181
X141.04Y-145.961
X142.31Y-125.006
X142.31Y-138.976
X142.31Y-144.056
X142.627Y-113.576
X143.58Y-96.431
X143.58Y-101.511
X144.215Y-79.604
X144.215Y-82.144
X144.215Y-85.636
X144.85Y-89.129
X144.85Y-125.006
X145.167Y-113.576
X145.167Y-145.961
X146.437Y-94.844
X146.437Y-102.464
X146.755Y-85.636
X148.342Y-131.674
X148.977Y-85.636
X148.977Y-91.351
X148.977Y-94.844
X148.977Y-102.464
X149.181Y-63.36
X149.181Y-65.9
X149.295Y-79.604
X149.295Y-82.144
X149.93Y-89.129
X150.247Y-145.961
X151.505Y-64.046
X151.517Y-85.636
X151.517Y-94.844
X151.517Y-102.464
X151.835Y-80.239
X153.422Y-83.414
X153.422Y-88.494
X153.422Y-131.674
X154.045Y-64.046
X154.057Y-91.351
X154.057Y-94.844
X154.057Y-102.464
X154.375Y-80.239
X155.327Y-139.294
X155.327Y-144.374
X156.21Y-119.888
X156.28Y-64.046
X158.502Y-144.691
X158.75Y-119.888
X158.82Y-64.046
X159.137Y-94.209
X161.042Y-64.046
X161.042Y-144.691
X161.677Y-94.209
X161.677Y-124.371
X161.677Y-126.911
X163.582Y-64.046
X165.862Y-119.38
X165.862Y-121.92
X166.757Y-124.371
X166.757Y-126.911
X169.926Y-107.696
X169.926Y-112.776
X175.26Y-107.696
X175.26Y-112.776
X178.054Y-109.22
X178.054Y-111.76
T5
X147.072Y-105.639
X154.692Y-105.639
T6
X133.777Y-90.999
X133.777Y-116.399
X133.777Y-141.799
X136.277Y-90.999
X136.277Y-116.399
X136.277Y-141.799
X138.777Y-90.999
X138.777Y-116.399
X138.777Y-141.799
X159.177Y-90.999
X159.177Y-116.399
X159.177Y-141.799
X161.677Y-90.999
X161.677Y-116.399
X161.677Y-141.799
X164.177Y-90.999
X164.177Y-116.399
X164.177Y-141.799
X167.385Y-74.524
X169.885Y-74.524
X171.885Y-74.524
X174.385Y-74.524
T7
X120.085Y-66.269
X121.037Y-81.509
X121.037Y-84.049
X121.037Y-86.589
X121.037Y-89.129
X121.037Y-91.669
X121.037Y-94.209
X121.037Y-96.749
X121.037Y-99.289
X121.037Y-101.829
X121.037Y-104.369
X121.037Y-106.909
X121.037Y-109.449
X121.037Y-111.989
X121.037Y-114.529
X121.037Y-117.069
X122.625Y-66.269
X123.577Y-81.509
X123.577Y-84.049
X123.577Y-86.589
X123.577Y-89.129
X123.577Y-91.669
X123.577Y-94.209
X123.577Y-96.749
X123.577Y-99.289
X123.577Y-101.829
X123.577Y-104.369
X123.577Y-106.909
X123.577Y-109.449
X123.577Y-111.989
X123.577Y-114.529
X123.577Y-117.069
X125.165Y-66.269
X126.117Y-81.509
X126.117Y-84.049
X126.117Y-86.589
X126.117Y-89.129
X126.117Y-91.669
X126.117Y-94.209
X126.117Y-96.749
X126.117Y-99.289
X126.117Y-101.829
X126.117Y-104.369
X126.117Y-106.909
X126.117Y-109.449
X126.117Y-111.989
X126.117Y-114.529
X126.117Y-117.069
X128.657Y-81.509
X128.657Y-84.049
X128.657Y-86.589
X128.657Y-89.129
X128.657Y-91.669
X128.657Y-94.209
X128.657Y-96.749
X128.657Y-99.289
X128.657Y-101.829
X128.657Y-104.369
X128.657Y-106.909
X128.657Y-109.449
X128.657Y-111.989
X128.657Y-114.529
X128.657Y-117.069
X133.737Y-74.168
X137.547Y-68.809
X137.547Y-71.349
X137.547Y-73.889
X137.547Y-76.429
X139.262Y-64.592
X140.087Y-68.809
X140.087Y-71.349
X140.087Y-73.889
X140.087Y-76.429
X141.802Y-64.592
X142.627Y-68.809
X142.627Y-71.349
X142.627Y-73.889
X142.627Y-76.429
X144.342Y-64.592
X145.167Y-68.809
X145.167Y-71.349
X145.167Y-73.889
X145.167Y-76.429
X145.167Y-134.849
X145.167Y-137.389
X145.167Y-139.929
X145.167Y-142.469
X146.437Y-91.351
X146.882Y-64.592
X147.707Y-68.809
X147.707Y-71.349
X147.707Y-73.889
X147.707Y-76.429
X147.707Y-134.849
X147.707Y-137.389
X147.707Y-139.929
X147.707Y-142.469
X150.247Y-68.809
X150.247Y-71.349
X150.247Y-73.889
X150.247Y-76.429
X150.247Y-134.849
X150.247Y-137.389
X150.247Y-139.929
X150.247Y-142.469
X152.787Y-68.809
X152.787Y-71.349
X152.787Y-73.889
X152.787Y-76.429
X152.787Y-134.849
X152.787Y-137.389
X152.787Y-139.929
X152.787Y-142.469
X155.327Y-68.809
X155.327Y-71.349
X155.327Y-73.889
X155.327Y-76.429
X157.867Y-68.809
X157.867Y-71.349
X157.867Y-73.889
X157.867Y-76.429
X158.502Y-99.924
X158.502Y-102.464
X160.407Y-68.809
X160.407Y-71.349
X160.407Y-73.889
X160.407Y-76.429
X161.042Y-99.924
X161.042Y-102.464
X164.852Y-77.064
X166.122Y-99.289
X166.122Y-101.829
X167.392Y-77.064
X168.662Y-96.749
X168.662Y-99.289
X168.662Y-101.829
X169.932Y-77.064
X172.472Y-77.064
X172.512Y-83.096
X172.512Y-92.304
X172.512Y-101.511
X172.79Y-107.544
X172.79Y-110.084
X172.79Y-112.624
X175.012Y-77.064
X175.012Y-141.199
X175.012Y-143.739
X177.512Y-83.096
X177.512Y-92.304
X177.512Y-101.511
X177.552Y-77.064
X177.552Y-141.199
X177.552Y-143.739
T8
X121.672Y-126.594
X121.672Y-140.564
X126.672Y-121.594
X126.672Y-124.094
X126.672Y-129.094
X126.672Y-131.594
X126.672Y-135.564
X126.672Y-138.064
X126.672Y-143.064
X126.672Y-145.564
X170.647Y-127.626
X170.647Y-130.126
X170.647Y-135.126
X170.647Y-137.626
X172.472Y-79.921
X172.472Y-86.271
X172.472Y-89.129
X172.472Y-95.479
X172.472Y-98.336
X172.472Y-104.686
X175.647Y-132.626
X177.552Y-79.921
X177.552Y-86.271
X177.552Y-89.129
X177.552Y-95.479
X177.552Y-98.336
X177.552Y-104.686
T9
X125.022Y-74.206
X128.022Y-69.506
X131.022Y-74.206
T10
X131.877Y-83.999
X131.877Y-109.399
X131.877Y-134.799
X140.677Y-83.999
X140.677Y-109.399
X140.677Y-134.799
X157.277Y-83.999
X157.277Y-109.399
X157.277Y-134.799
X166.077Y-83.999
X166.077Y-109.399
X166.077Y-134.799
T11
X164.285Y-71.824
X177.485Y-71.824
T3
G00X171.372Y-114.888
M15
G01X170.672Y-114.888
M16
G05
G00X171.372Y-117.388
M15
G01X170.672Y-117.388
M16
G05
G00X171.372Y-122.388
M15
G01X170.672Y-122.388
M16
G05
G00X171.372Y-124.888
M15
G01X170.672Y-124.888
M16
G05
G00X176.372Y-119.888
M15
G01X175.672Y-119.888
M16
G05
M30
