%TF.GenerationSoftware,KiCad,Pcbnew,9.0.4*%
%TF.CreationDate,2026-07-16T16:31:58-04:00*%
%TF.ProjectId,stm32H7_experimenter10,73746d33-3248-4375-9f65-78706572696d,rev?*%
%TF.SameCoordinates,Original*%
%TF.FileFunction,Legend,Bot*%
%TF.FilePolarity,Positive*%
%FSLAX46Y46*%
G04 Gerber Fmt 4.6, Leading zero omitted, Abs format (unit mm)*
G04 Created by KiCad (PCBNEW 9.0.4) date 2026-07-16 16:31:58*
%MOMM*%
%LPD*%
G01*
G04 APERTURE LIST*
%ADD10C,0.254000*%
%ADD11C,0.081280*%
%ADD12C,0.065024*%
%ADD13C,0.114300*%
%ADD14C,0.029911*%
%ADD15C,0.074778*%
%ADD16C,0.127000*%
%ADD17C,0.101600*%
%ADD18C,0.152400*%
%ADD19C,0.203200*%
%ADD20C,0.000000*%
G04 APERTURE END LIST*
D10*
X117227350Y-68808600D02*
X128022350Y-68808600D01*
X128022350Y-68808600D02*
X128022350Y-62141100D01*
X128022350Y-62141100D02*
X117227350Y-62141100D01*
X117227350Y-62141100D02*
X117227350Y-68808600D01*
D11*
X126577198Y-63927481D02*
X126888772Y-63482376D01*
X127111324Y-63927481D02*
X127111324Y-62992761D01*
X127111324Y-62992761D02*
X126755240Y-62992761D01*
X126755240Y-62992761D02*
X126666219Y-63037271D01*
X126666219Y-63037271D02*
X126621709Y-63081782D01*
X126621709Y-63081782D02*
X126577198Y-63170803D01*
X126577198Y-63170803D02*
X126577198Y-63304334D01*
X126577198Y-63304334D02*
X126621709Y-63393355D01*
X126621709Y-63393355D02*
X126666219Y-63437866D01*
X126666219Y-63437866D02*
X126755240Y-63482376D01*
X126755240Y-63482376D02*
X127111324Y-63482376D01*
X126176604Y-63571397D02*
X125464437Y-63571397D01*
X125108353Y-62992761D02*
X124485206Y-62992761D01*
X124485206Y-62992761D02*
X124885801Y-63927481D01*
X123995591Y-63393355D02*
X124084612Y-63348845D01*
X124084612Y-63348845D02*
X124129122Y-63304334D01*
X124129122Y-63304334D02*
X124173633Y-63215313D01*
X124173633Y-63215313D02*
X124173633Y-63170803D01*
X124173633Y-63170803D02*
X124129122Y-63081782D01*
X124129122Y-63081782D02*
X124084612Y-63037271D01*
X124084612Y-63037271D02*
X123995591Y-62992761D01*
X123995591Y-62992761D02*
X123817549Y-62992761D01*
X123817549Y-62992761D02*
X123728528Y-63037271D01*
X123728528Y-63037271D02*
X123684017Y-63081782D01*
X123684017Y-63081782D02*
X123639507Y-63170803D01*
X123639507Y-63170803D02*
X123639507Y-63215313D01*
X123639507Y-63215313D02*
X123684017Y-63304334D01*
X123684017Y-63304334D02*
X123728528Y-63348845D01*
X123728528Y-63348845D02*
X123817549Y-63393355D01*
X123817549Y-63393355D02*
X123995591Y-63393355D01*
X123995591Y-63393355D02*
X124084612Y-63437866D01*
X124084612Y-63437866D02*
X124129122Y-63482376D01*
X124129122Y-63482376D02*
X124173633Y-63571397D01*
X124173633Y-63571397D02*
X124173633Y-63749439D01*
X124173633Y-63749439D02*
X124129122Y-63838460D01*
X124129122Y-63838460D02*
X124084612Y-63882971D01*
X124084612Y-63882971D02*
X123995591Y-63927481D01*
X123995591Y-63927481D02*
X123817549Y-63927481D01*
X123817549Y-63927481D02*
X123728528Y-63882971D01*
X123728528Y-63882971D02*
X123684017Y-63838460D01*
X123684017Y-63838460D02*
X123639507Y-63749439D01*
X123639507Y-63749439D02*
X123639507Y-63571397D01*
X123639507Y-63571397D02*
X123684017Y-63482376D01*
X123684017Y-63482376D02*
X123728528Y-63437866D01*
X123728528Y-63437866D02*
X123817549Y-63393355D01*
X122793807Y-62992761D02*
X123238912Y-62992761D01*
X123238912Y-62992761D02*
X123283423Y-63437866D01*
X123283423Y-63437866D02*
X123238912Y-63393355D01*
X123238912Y-63393355D02*
X123149891Y-63348845D01*
X123149891Y-63348845D02*
X122927339Y-63348845D01*
X122927339Y-63348845D02*
X122838318Y-63393355D01*
X122838318Y-63393355D02*
X122793807Y-63437866D01*
X122793807Y-63437866D02*
X122749297Y-63526887D01*
X122749297Y-63526887D02*
X122749297Y-63749439D01*
X122749297Y-63749439D02*
X122793807Y-63838460D01*
X122793807Y-63838460D02*
X122838318Y-63882971D01*
X122838318Y-63882971D02*
X122927339Y-63927481D01*
X122927339Y-63927481D02*
X123149891Y-63927481D01*
X123149891Y-63927481D02*
X123238912Y-63882971D01*
X123238912Y-63882971D02*
X123283423Y-63838460D01*
X122348702Y-63838460D02*
X122304192Y-63882971D01*
X122304192Y-63882971D02*
X122348702Y-63927481D01*
X122348702Y-63927481D02*
X122393213Y-63882971D01*
X122393213Y-63882971D02*
X122348702Y-63838460D01*
X122348702Y-63838460D02*
X122348702Y-63927481D01*
X121725555Y-62992761D02*
X121636534Y-62992761D01*
X121636534Y-62992761D02*
X121547513Y-63037271D01*
X121547513Y-63037271D02*
X121503003Y-63081782D01*
X121503003Y-63081782D02*
X121458492Y-63170803D01*
X121458492Y-63170803D02*
X121413982Y-63348845D01*
X121413982Y-63348845D02*
X121413982Y-63571397D01*
X121413982Y-63571397D02*
X121458492Y-63749439D01*
X121458492Y-63749439D02*
X121503003Y-63838460D01*
X121503003Y-63838460D02*
X121547513Y-63882971D01*
X121547513Y-63882971D02*
X121636534Y-63927481D01*
X121636534Y-63927481D02*
X121725555Y-63927481D01*
X121725555Y-63927481D02*
X121814576Y-63882971D01*
X121814576Y-63882971D02*
X121859087Y-63838460D01*
X121859087Y-63838460D02*
X121903597Y-63749439D01*
X121903597Y-63749439D02*
X121948108Y-63571397D01*
X121948108Y-63571397D02*
X121948108Y-63348845D01*
X121948108Y-63348845D02*
X121903597Y-63170803D01*
X121903597Y-63170803D02*
X121859087Y-63081782D01*
X121859087Y-63081782D02*
X121814576Y-63037271D01*
X121814576Y-63037271D02*
X121725555Y-62992761D01*
X121013387Y-63571397D02*
X120301220Y-63571397D01*
X119366500Y-63927481D02*
X119900626Y-63927481D01*
X119633563Y-63927481D02*
X119633563Y-62992761D01*
X119633563Y-62992761D02*
X119722584Y-63126292D01*
X119722584Y-63126292D02*
X119811605Y-63215313D01*
X119811605Y-63215313D02*
X119900626Y-63259824D01*
X118965905Y-63838460D02*
X118921395Y-63882971D01*
X118921395Y-63882971D02*
X118965905Y-63927481D01*
X118965905Y-63927481D02*
X119010416Y-63882971D01*
X119010416Y-63882971D02*
X118965905Y-63838460D01*
X118965905Y-63838460D02*
X118965905Y-63927481D01*
X118342758Y-62992761D02*
X118253737Y-62992761D01*
X118253737Y-62992761D02*
X118164716Y-63037271D01*
X118164716Y-63037271D02*
X118120206Y-63081782D01*
X118120206Y-63081782D02*
X118075695Y-63170803D01*
X118075695Y-63170803D02*
X118031185Y-63348845D01*
X118031185Y-63348845D02*
X118031185Y-63571397D01*
X118031185Y-63571397D02*
X118075695Y-63749439D01*
X118075695Y-63749439D02*
X118120206Y-63838460D01*
X118120206Y-63838460D02*
X118164716Y-63882971D01*
X118164716Y-63882971D02*
X118253737Y-63927481D01*
X118253737Y-63927481D02*
X118342758Y-63927481D01*
X118342758Y-63927481D02*
X118431779Y-63882971D01*
X118431779Y-63882971D02*
X118476290Y-63838460D01*
X118476290Y-63838460D02*
X118520800Y-63749439D01*
X118520800Y-63749439D02*
X118565311Y-63571397D01*
X118565311Y-63571397D02*
X118565311Y-63348845D01*
X118565311Y-63348845D02*
X118520800Y-63170803D01*
X118520800Y-63170803D02*
X118476290Y-63081782D01*
X118476290Y-63081782D02*
X118431779Y-63037271D01*
X118431779Y-63037271D02*
X118342758Y-62992761D01*
D12*
X172886530Y-63203429D02*
X172886530Y-63808771D01*
X172886530Y-63808771D02*
X172850921Y-63879988D01*
X172850921Y-63879988D02*
X172815313Y-63915597D01*
X172815313Y-63915597D02*
X172744096Y-63951205D01*
X172744096Y-63951205D02*
X172601663Y-63951205D01*
X172601663Y-63951205D02*
X172530446Y-63915597D01*
X172530446Y-63915597D02*
X172494837Y-63879988D01*
X172494837Y-63879988D02*
X172459229Y-63808771D01*
X172459229Y-63808771D02*
X172459229Y-63203429D01*
X172138754Y-63915597D02*
X172031929Y-63951205D01*
X172031929Y-63951205D02*
X171853887Y-63951205D01*
X171853887Y-63951205D02*
X171782670Y-63915597D01*
X171782670Y-63915597D02*
X171747062Y-63879988D01*
X171747062Y-63879988D02*
X171711453Y-63808771D01*
X171711453Y-63808771D02*
X171711453Y-63737555D01*
X171711453Y-63737555D02*
X171747062Y-63666338D01*
X171747062Y-63666338D02*
X171782670Y-63630729D01*
X171782670Y-63630729D02*
X171853887Y-63595121D01*
X171853887Y-63595121D02*
X171996320Y-63559513D01*
X171996320Y-63559513D02*
X172067537Y-63523904D01*
X172067537Y-63523904D02*
X172103146Y-63488296D01*
X172103146Y-63488296D02*
X172138754Y-63417079D01*
X172138754Y-63417079D02*
X172138754Y-63345862D01*
X172138754Y-63345862D02*
X172103146Y-63274646D01*
X172103146Y-63274646D02*
X172067537Y-63239037D01*
X172067537Y-63239037D02*
X171996320Y-63203429D01*
X171996320Y-63203429D02*
X171818279Y-63203429D01*
X171818279Y-63203429D02*
X171711453Y-63239037D01*
X171141719Y-63559513D02*
X171034894Y-63595121D01*
X171034894Y-63595121D02*
X170999285Y-63630729D01*
X170999285Y-63630729D02*
X170963677Y-63701946D01*
X170963677Y-63701946D02*
X170963677Y-63808771D01*
X170963677Y-63808771D02*
X170999285Y-63879988D01*
X170999285Y-63879988D02*
X171034894Y-63915597D01*
X171034894Y-63915597D02*
X171106111Y-63951205D01*
X171106111Y-63951205D02*
X171390978Y-63951205D01*
X171390978Y-63951205D02*
X171390978Y-63203429D01*
X171390978Y-63203429D02*
X171141719Y-63203429D01*
X171141719Y-63203429D02*
X171070502Y-63239037D01*
X171070502Y-63239037D02*
X171034894Y-63274646D01*
X171034894Y-63274646D02*
X170999285Y-63345862D01*
X170999285Y-63345862D02*
X170999285Y-63417079D01*
X170999285Y-63417079D02*
X171034894Y-63488296D01*
X171034894Y-63488296D02*
X171070502Y-63523904D01*
X171070502Y-63523904D02*
X171141719Y-63559513D01*
X171141719Y-63559513D02*
X171390978Y-63559513D01*
X170643202Y-63666338D02*
X170073468Y-63666338D01*
X169752992Y-63737555D02*
X169396908Y-63737555D01*
X169824209Y-63951205D02*
X169574950Y-63203429D01*
X169574950Y-63203429D02*
X169325691Y-63951205D01*
D13*
X153509833Y-144308105D02*
X153509833Y-144952176D01*
X153509833Y-144952176D02*
X153552772Y-145080990D01*
X153552772Y-145080990D02*
X153638648Y-145166867D01*
X153638648Y-145166867D02*
X153767462Y-145209805D01*
X153767462Y-145209805D02*
X153853338Y-145209805D01*
X153080452Y-145209805D02*
X153080452Y-144308105D01*
X153080452Y-144308105D02*
X152736947Y-144308105D01*
X152736947Y-144308105D02*
X152651071Y-144351043D01*
X152651071Y-144351043D02*
X152608133Y-144393981D01*
X152608133Y-144393981D02*
X152565195Y-144479857D01*
X152565195Y-144479857D02*
X152565195Y-144608671D01*
X152565195Y-144608671D02*
X152608133Y-144694547D01*
X152608133Y-144694547D02*
X152651071Y-144737486D01*
X152651071Y-144737486D02*
X152736947Y-144780424D01*
X152736947Y-144780424D02*
X153080452Y-144780424D01*
X151792309Y-144308105D02*
X151964062Y-144308105D01*
X151964062Y-144308105D02*
X152049938Y-144351043D01*
X152049938Y-144351043D02*
X152092876Y-144393981D01*
X152092876Y-144393981D02*
X152178752Y-144522795D01*
X152178752Y-144522795D02*
X152221690Y-144694547D01*
X152221690Y-144694547D02*
X152221690Y-145038052D01*
X152221690Y-145038052D02*
X152178752Y-145123928D01*
X152178752Y-145123928D02*
X152135814Y-145166867D01*
X152135814Y-145166867D02*
X152049938Y-145209805D01*
X152049938Y-145209805D02*
X151878185Y-145209805D01*
X151878185Y-145209805D02*
X151792309Y-145166867D01*
X151792309Y-145166867D02*
X151749371Y-145123928D01*
X151749371Y-145123928D02*
X151706433Y-145038052D01*
X151706433Y-145038052D02*
X151706433Y-144823362D01*
X151706433Y-144823362D02*
X151749371Y-144737486D01*
X151749371Y-144737486D02*
X151792309Y-144694547D01*
X151792309Y-144694547D02*
X151878185Y-144651609D01*
X151878185Y-144651609D02*
X152049938Y-144651609D01*
X152049938Y-144651609D02*
X152135814Y-144694547D01*
X152135814Y-144694547D02*
X152178752Y-144737486D01*
X152178752Y-144737486D02*
X152221690Y-144823362D01*
D14*
X124685673Y-141614899D02*
X123981324Y-141614899D01*
X123981324Y-141614899D02*
X123840454Y-141661855D01*
X123840454Y-141661855D02*
X123746541Y-141755769D01*
X123746541Y-141755769D02*
X123699584Y-141896638D01*
X123699584Y-141896638D02*
X123699584Y-141990552D01*
X123699584Y-141145332D02*
X124685673Y-141145332D01*
X124685673Y-141145332D02*
X124685673Y-140769679D01*
X124685673Y-140769679D02*
X124638716Y-140675766D01*
X124638716Y-140675766D02*
X124591760Y-140628810D01*
X124591760Y-140628810D02*
X124497846Y-140581853D01*
X124497846Y-140581853D02*
X124356977Y-140581853D01*
X124356977Y-140581853D02*
X124263063Y-140628810D01*
X124263063Y-140628810D02*
X124216107Y-140675766D01*
X124216107Y-140675766D02*
X124169150Y-140769679D01*
X124169150Y-140769679D02*
X124169150Y-141145332D01*
X124685673Y-140253157D02*
X124685673Y-139595764D01*
X124685673Y-139595764D02*
X123699584Y-140018374D01*
X176381149Y-128977776D02*
X176381149Y-129682125D01*
X176381149Y-129682125D02*
X176428105Y-129822995D01*
X176428105Y-129822995D02*
X176522019Y-129916909D01*
X176522019Y-129916909D02*
X176662888Y-129963865D01*
X176662888Y-129963865D02*
X176756802Y-129963865D01*
X175911582Y-129963865D02*
X175911582Y-128977776D01*
X175911582Y-128977776D02*
X175535929Y-128977776D01*
X175535929Y-128977776D02*
X175442016Y-129024733D01*
X175442016Y-129024733D02*
X175395060Y-129071689D01*
X175395060Y-129071689D02*
X175348103Y-129165603D01*
X175348103Y-129165603D02*
X175348103Y-129306472D01*
X175348103Y-129306472D02*
X175395060Y-129400386D01*
X175395060Y-129400386D02*
X175442016Y-129447342D01*
X175442016Y-129447342D02*
X175535929Y-129494299D01*
X175535929Y-129494299D02*
X175911582Y-129494299D01*
X174784624Y-129400386D02*
X174878537Y-129353429D01*
X174878537Y-129353429D02*
X174925493Y-129306472D01*
X174925493Y-129306472D02*
X174972450Y-129212559D01*
X174972450Y-129212559D02*
X174972450Y-129165603D01*
X174972450Y-129165603D02*
X174925493Y-129071689D01*
X174925493Y-129071689D02*
X174878537Y-129024733D01*
X174878537Y-129024733D02*
X174784624Y-128977776D01*
X174784624Y-128977776D02*
X174596797Y-128977776D01*
X174596797Y-128977776D02*
X174502884Y-129024733D01*
X174502884Y-129024733D02*
X174455927Y-129071689D01*
X174455927Y-129071689D02*
X174408971Y-129165603D01*
X174408971Y-129165603D02*
X174408971Y-129212559D01*
X174408971Y-129212559D02*
X174455927Y-129306472D01*
X174455927Y-129306472D02*
X174502884Y-129353429D01*
X174502884Y-129353429D02*
X174596797Y-129400386D01*
X174596797Y-129400386D02*
X174784624Y-129400386D01*
X174784624Y-129400386D02*
X174878537Y-129447342D01*
X174878537Y-129447342D02*
X174925493Y-129494299D01*
X174925493Y-129494299D02*
X174972450Y-129588212D01*
X174972450Y-129588212D02*
X174972450Y-129776039D01*
X174972450Y-129776039D02*
X174925493Y-129869952D01*
X174925493Y-129869952D02*
X174878537Y-129916909D01*
X174878537Y-129916909D02*
X174784624Y-129963865D01*
X174784624Y-129963865D02*
X174596797Y-129963865D01*
X174596797Y-129963865D02*
X174502884Y-129916909D01*
X174502884Y-129916909D02*
X174455927Y-129869952D01*
X174455927Y-129869952D02*
X174408971Y-129776039D01*
X174408971Y-129776039D02*
X174408971Y-129588212D01*
X174408971Y-129588212D02*
X174455927Y-129494299D01*
X174455927Y-129494299D02*
X174502884Y-129447342D01*
X174502884Y-129447342D02*
X174596797Y-129400386D01*
D13*
X153509833Y-132560605D02*
X153509833Y-133204676D01*
X153509833Y-133204676D02*
X153552772Y-133333490D01*
X153552772Y-133333490D02*
X153638648Y-133419367D01*
X153638648Y-133419367D02*
X153767462Y-133462305D01*
X153767462Y-133462305D02*
X153853338Y-133462305D01*
X153080452Y-133462305D02*
X153080452Y-132560605D01*
X153080452Y-132560605D02*
X152736947Y-132560605D01*
X152736947Y-132560605D02*
X152651071Y-132603543D01*
X152651071Y-132603543D02*
X152608133Y-132646481D01*
X152608133Y-132646481D02*
X152565195Y-132732357D01*
X152565195Y-132732357D02*
X152565195Y-132861171D01*
X152565195Y-132861171D02*
X152608133Y-132947047D01*
X152608133Y-132947047D02*
X152651071Y-132989986D01*
X152651071Y-132989986D02*
X152736947Y-133032924D01*
X152736947Y-133032924D02*
X153080452Y-133032924D01*
X151706433Y-133462305D02*
X152221690Y-133462305D01*
X151964062Y-133462305D02*
X151964062Y-132560605D01*
X151964062Y-132560605D02*
X152049938Y-132689419D01*
X152049938Y-132689419D02*
X152135814Y-132775295D01*
X152135814Y-132775295D02*
X152221690Y-132818233D01*
X151362928Y-132646481D02*
X151319990Y-132603543D01*
X151319990Y-132603543D02*
X151234114Y-132560605D01*
X151234114Y-132560605D02*
X151019423Y-132560605D01*
X151019423Y-132560605D02*
X150933547Y-132603543D01*
X150933547Y-132603543D02*
X150890609Y-132646481D01*
X150890609Y-132646481D02*
X150847671Y-132732357D01*
X150847671Y-132732357D02*
X150847671Y-132818233D01*
X150847671Y-132818233D02*
X150890609Y-132947047D01*
X150890609Y-132947047D02*
X151405866Y-133462305D01*
X151405866Y-133462305D02*
X150847671Y-133462305D01*
D14*
X123521164Y-129179000D02*
X123521164Y-129883349D01*
X123521164Y-129883349D02*
X123568120Y-130024219D01*
X123568120Y-130024219D02*
X123662034Y-130118133D01*
X123662034Y-130118133D02*
X123802903Y-130165089D01*
X123802903Y-130165089D02*
X123896817Y-130165089D01*
X123051597Y-130165089D02*
X123051597Y-129179000D01*
X123051597Y-129179000D02*
X122675944Y-129179000D01*
X122675944Y-129179000D02*
X122582031Y-129225957D01*
X122582031Y-129225957D02*
X122535075Y-129272913D01*
X122535075Y-129272913D02*
X122488118Y-129366827D01*
X122488118Y-129366827D02*
X122488118Y-129507696D01*
X122488118Y-129507696D02*
X122535075Y-129601610D01*
X122535075Y-129601610D02*
X122582031Y-129648566D01*
X122582031Y-129648566D02*
X122675944Y-129695523D01*
X122675944Y-129695523D02*
X123051597Y-129695523D01*
X121548986Y-130165089D02*
X122112465Y-130165089D01*
X121830725Y-130165089D02*
X121830725Y-129179000D01*
X121830725Y-129179000D02*
X121924639Y-129319870D01*
X121924639Y-129319870D02*
X122018552Y-129413783D01*
X122018552Y-129413783D02*
X122112465Y-129460740D01*
X120938550Y-129179000D02*
X120844637Y-129179000D01*
X120844637Y-129179000D02*
X120750723Y-129225957D01*
X120750723Y-129225957D02*
X120703767Y-129272913D01*
X120703767Y-129272913D02*
X120656810Y-129366827D01*
X120656810Y-129366827D02*
X120609854Y-129554653D01*
X120609854Y-129554653D02*
X120609854Y-129789436D01*
X120609854Y-129789436D02*
X120656810Y-129977263D01*
X120656810Y-129977263D02*
X120703767Y-130071176D01*
X120703767Y-130071176D02*
X120750723Y-130118133D01*
X120750723Y-130118133D02*
X120844637Y-130165089D01*
X120844637Y-130165089D02*
X120938550Y-130165089D01*
X120938550Y-130165089D02*
X121032463Y-130118133D01*
X121032463Y-130118133D02*
X121079420Y-130071176D01*
X121079420Y-130071176D02*
X121126376Y-129977263D01*
X121126376Y-129977263D02*
X121173333Y-129789436D01*
X121173333Y-129789436D02*
X121173333Y-129554653D01*
X121173333Y-129554653D02*
X121126376Y-129366827D01*
X121126376Y-129366827D02*
X121079420Y-129272913D01*
X121079420Y-129272913D02*
X121032463Y-129225957D01*
X121032463Y-129225957D02*
X120938550Y-129179000D01*
D13*
X128048855Y-64826449D02*
X128950555Y-64826449D01*
X128134732Y-63881811D02*
X128091794Y-63924749D01*
X128091794Y-63924749D02*
X128048855Y-64053563D01*
X128048855Y-64053563D02*
X128048855Y-64139439D01*
X128048855Y-64139439D02*
X128091794Y-64268254D01*
X128091794Y-64268254D02*
X128177670Y-64354130D01*
X128177670Y-64354130D02*
X128263546Y-64397068D01*
X128263546Y-64397068D02*
X128435298Y-64440006D01*
X128435298Y-64440006D02*
X128564113Y-64440006D01*
X128564113Y-64440006D02*
X128735865Y-64397068D01*
X128735865Y-64397068D02*
X128821741Y-64354130D01*
X128821741Y-64354130D02*
X128907617Y-64268254D01*
X128907617Y-64268254D02*
X128950555Y-64139439D01*
X128950555Y-64139439D02*
X128950555Y-64053563D01*
X128950555Y-64053563D02*
X128907617Y-63924749D01*
X128907617Y-63924749D02*
X128864679Y-63881811D01*
X128864679Y-63538306D02*
X128907617Y-63495368D01*
X128907617Y-63495368D02*
X128950555Y-63409492D01*
X128950555Y-63409492D02*
X128950555Y-63194801D01*
X128950555Y-63194801D02*
X128907617Y-63108925D01*
X128907617Y-63108925D02*
X128864679Y-63065987D01*
X128864679Y-63065987D02*
X128778803Y-63023049D01*
X128778803Y-63023049D02*
X128692927Y-63023049D01*
X128692927Y-63023049D02*
X128564113Y-63065987D01*
X128564113Y-63065987D02*
X128048855Y-63581244D01*
X128048855Y-63581244D02*
X128048855Y-63023049D01*
D15*
X133909728Y-67161112D02*
X133954548Y-67205933D01*
X133954548Y-67205933D02*
X134089008Y-67250753D01*
X134089008Y-67250753D02*
X134178648Y-67250753D01*
X134178648Y-67250753D02*
X134313109Y-67205933D01*
X134313109Y-67205933D02*
X134402749Y-67116292D01*
X134402749Y-67116292D02*
X134447569Y-67026652D01*
X134447569Y-67026652D02*
X134492389Y-66847372D01*
X134492389Y-66847372D02*
X134492389Y-66712911D01*
X134492389Y-66712911D02*
X134447569Y-66533631D01*
X134447569Y-66533631D02*
X134402749Y-66443991D01*
X134402749Y-66443991D02*
X134313109Y-66354351D01*
X134313109Y-66354351D02*
X134178648Y-66309531D01*
X134178648Y-66309531D02*
X134089008Y-66309531D01*
X134089008Y-66309531D02*
X133954548Y-66354351D01*
X133954548Y-66354351D02*
X133909728Y-66399171D01*
X133102966Y-66309531D02*
X133282247Y-66309531D01*
X133282247Y-66309531D02*
X133371887Y-66354351D01*
X133371887Y-66354351D02*
X133416707Y-66399171D01*
X133416707Y-66399171D02*
X133506347Y-66533631D01*
X133506347Y-66533631D02*
X133551167Y-66712911D01*
X133551167Y-66712911D02*
X133551167Y-67071472D01*
X133551167Y-67071472D02*
X133506347Y-67161112D01*
X133506347Y-67161112D02*
X133461527Y-67205933D01*
X133461527Y-67205933D02*
X133371887Y-67250753D01*
X133371887Y-67250753D02*
X133192606Y-67250753D01*
X133192606Y-67250753D02*
X133102966Y-67205933D01*
X133102966Y-67205933D02*
X133058146Y-67161112D01*
X133058146Y-67161112D02*
X133013326Y-67071472D01*
X133013326Y-67071472D02*
X133013326Y-66847372D01*
X133013326Y-66847372D02*
X133058146Y-66757732D01*
X133058146Y-66757732D02*
X133102966Y-66712911D01*
X133102966Y-66712911D02*
X133192606Y-66668091D01*
X133192606Y-66668091D02*
X133371887Y-66668091D01*
X133371887Y-66668091D02*
X133461527Y-66712911D01*
X133461527Y-66712911D02*
X133506347Y-66757732D01*
X133506347Y-66757732D02*
X133551167Y-66847372D01*
D13*
X165111671Y-116415855D02*
X165068733Y-116458793D01*
X165068733Y-116458793D02*
X165025794Y-116587607D01*
X165025794Y-116587607D02*
X165025794Y-116673483D01*
X165025794Y-116673483D02*
X165068733Y-116802298D01*
X165068733Y-116802298D02*
X165154609Y-116888174D01*
X165154609Y-116888174D02*
X165240485Y-116931112D01*
X165240485Y-116931112D02*
X165412237Y-116974050D01*
X165412237Y-116974050D02*
X165541052Y-116974050D01*
X165541052Y-116974050D02*
X165712804Y-116931112D01*
X165712804Y-116931112D02*
X165798680Y-116888174D01*
X165798680Y-116888174D02*
X165884556Y-116802298D01*
X165884556Y-116802298D02*
X165927494Y-116673483D01*
X165927494Y-116673483D02*
X165927494Y-116587607D01*
X165927494Y-116587607D02*
X165884556Y-116458793D01*
X165884556Y-116458793D02*
X165841618Y-116415855D01*
X165025794Y-115557093D02*
X165025794Y-116072350D01*
X165025794Y-115814722D02*
X165927494Y-115814722D01*
X165927494Y-115814722D02*
X165798680Y-115900598D01*
X165798680Y-115900598D02*
X165712804Y-115986474D01*
X165712804Y-115986474D02*
X165669866Y-116072350D01*
X165927494Y-114784207D02*
X165927494Y-114955960D01*
X165927494Y-114955960D02*
X165884556Y-115041836D01*
X165884556Y-115041836D02*
X165841618Y-115084774D01*
X165841618Y-115084774D02*
X165712804Y-115170650D01*
X165712804Y-115170650D02*
X165541052Y-115213588D01*
X165541052Y-115213588D02*
X165197547Y-115213588D01*
X165197547Y-115213588D02*
X165111671Y-115170650D01*
X165111671Y-115170650D02*
X165068733Y-115127712D01*
X165068733Y-115127712D02*
X165025794Y-115041836D01*
X165025794Y-115041836D02*
X165025794Y-114870083D01*
X165025794Y-114870083D02*
X165068733Y-114784207D01*
X165068733Y-114784207D02*
X165111671Y-114741269D01*
X165111671Y-114741269D02*
X165197547Y-114698331D01*
X165197547Y-114698331D02*
X165412237Y-114698331D01*
X165412237Y-114698331D02*
X165498113Y-114741269D01*
X165498113Y-114741269D02*
X165541052Y-114784207D01*
X165541052Y-114784207D02*
X165583990Y-114870083D01*
X165583990Y-114870083D02*
X165583990Y-115041836D01*
X165583990Y-115041836D02*
X165541052Y-115127712D01*
X165541052Y-115127712D02*
X165498113Y-115170650D01*
X165498113Y-115170650D02*
X165412237Y-115213588D01*
X175296182Y-110803473D02*
X175253244Y-110846411D01*
X175253244Y-110846411D02*
X175210305Y-110975225D01*
X175210305Y-110975225D02*
X175210305Y-111061101D01*
X175210305Y-111061101D02*
X175253244Y-111189916D01*
X175253244Y-111189916D02*
X175339120Y-111275792D01*
X175339120Y-111275792D02*
X175424996Y-111318730D01*
X175424996Y-111318730D02*
X175596748Y-111361668D01*
X175596748Y-111361668D02*
X175725563Y-111361668D01*
X175725563Y-111361668D02*
X175897315Y-111318730D01*
X175897315Y-111318730D02*
X175983191Y-111275792D01*
X175983191Y-111275792D02*
X176069067Y-111189916D01*
X176069067Y-111189916D02*
X176112005Y-111061101D01*
X176112005Y-111061101D02*
X176112005Y-110975225D01*
X176112005Y-110975225D02*
X176069067Y-110846411D01*
X176069067Y-110846411D02*
X176026129Y-110803473D01*
X175210305Y-109944711D02*
X175210305Y-110459968D01*
X175210305Y-110202340D02*
X176112005Y-110202340D01*
X176112005Y-110202340D02*
X175983191Y-110288216D01*
X175983191Y-110288216D02*
X175897315Y-110374092D01*
X175897315Y-110374092D02*
X175854377Y-110459968D01*
X176112005Y-109644144D02*
X176112005Y-109043011D01*
X176112005Y-109043011D02*
X175210305Y-109429454D01*
D16*
X160995083Y-70694114D02*
X160995083Y-71510543D01*
X160995083Y-71510543D02*
X161049512Y-71673828D01*
X161049512Y-71673828D02*
X161158369Y-71782686D01*
X161158369Y-71782686D02*
X161321655Y-71837114D01*
X161321655Y-71837114D02*
X161430512Y-71837114D01*
X160450798Y-71837114D02*
X160450798Y-70694114D01*
X160450798Y-70694114D02*
X160015369Y-70694114D01*
X160015369Y-70694114D02*
X159906512Y-70748543D01*
X159906512Y-70748543D02*
X159852083Y-70802971D01*
X159852083Y-70802971D02*
X159797655Y-70911828D01*
X159797655Y-70911828D02*
X159797655Y-71075114D01*
X159797655Y-71075114D02*
X159852083Y-71183971D01*
X159852083Y-71183971D02*
X159906512Y-71238400D01*
X159906512Y-71238400D02*
X160015369Y-71292828D01*
X160015369Y-71292828D02*
X160450798Y-71292828D01*
X159362226Y-70802971D02*
X159307798Y-70748543D01*
X159307798Y-70748543D02*
X159198941Y-70694114D01*
X159198941Y-70694114D02*
X158926798Y-70694114D01*
X158926798Y-70694114D02*
X158817941Y-70748543D01*
X158817941Y-70748543D02*
X158763512Y-70802971D01*
X158763512Y-70802971D02*
X158709083Y-70911828D01*
X158709083Y-70911828D02*
X158709083Y-71020686D01*
X158709083Y-71020686D02*
X158763512Y-71183971D01*
X158763512Y-71183971D02*
X159416655Y-71837114D01*
X159416655Y-71837114D02*
X158709083Y-71837114D01*
D13*
X128406580Y-79017689D02*
X128406580Y-79843189D01*
X128406580Y-79843189D02*
X128461613Y-80008289D01*
X128461613Y-80008289D02*
X128571680Y-80118356D01*
X128571680Y-80118356D02*
X128736780Y-80173389D01*
X128736780Y-80173389D02*
X128846847Y-80173389D01*
X127856247Y-80173389D02*
X127856247Y-79017689D01*
X127856247Y-79017689D02*
X127415980Y-79017689D01*
X127415980Y-79017689D02*
X127305914Y-79072722D01*
X127305914Y-79072722D02*
X127250880Y-79127756D01*
X127250880Y-79127756D02*
X127195847Y-79237822D01*
X127195847Y-79237822D02*
X127195847Y-79402922D01*
X127195847Y-79402922D02*
X127250880Y-79512989D01*
X127250880Y-79512989D02*
X127305914Y-79568022D01*
X127305914Y-79568022D02*
X127415980Y-79623056D01*
X127415980Y-79623056D02*
X127856247Y-79623056D01*
X126205247Y-79402922D02*
X126205247Y-80173389D01*
X126480414Y-78962656D02*
X126755580Y-79788156D01*
X126755580Y-79788156D02*
X126040147Y-79788156D01*
X123009080Y-79017689D02*
X123009080Y-79843189D01*
X123009080Y-79843189D02*
X123064113Y-80008289D01*
X123064113Y-80008289D02*
X123174180Y-80118356D01*
X123174180Y-80118356D02*
X123339280Y-80173389D01*
X123339280Y-80173389D02*
X123449347Y-80173389D01*
X122458747Y-80173389D02*
X122458747Y-79017689D01*
X122458747Y-79017689D02*
X122018480Y-79017689D01*
X122018480Y-79017689D02*
X121908414Y-79072722D01*
X121908414Y-79072722D02*
X121853380Y-79127756D01*
X121853380Y-79127756D02*
X121798347Y-79237822D01*
X121798347Y-79237822D02*
X121798347Y-79402922D01*
X121798347Y-79402922D02*
X121853380Y-79512989D01*
X121853380Y-79512989D02*
X121908414Y-79568022D01*
X121908414Y-79568022D02*
X122018480Y-79623056D01*
X122018480Y-79623056D02*
X122458747Y-79623056D01*
X120752714Y-79017689D02*
X121303047Y-79017689D01*
X121303047Y-79017689D02*
X121358080Y-79568022D01*
X121358080Y-79568022D02*
X121303047Y-79512989D01*
X121303047Y-79512989D02*
X121192980Y-79457956D01*
X121192980Y-79457956D02*
X120917814Y-79457956D01*
X120917814Y-79457956D02*
X120807747Y-79512989D01*
X120807747Y-79512989D02*
X120752714Y-79568022D01*
X120752714Y-79568022D02*
X120697680Y-79678089D01*
X120697680Y-79678089D02*
X120697680Y-79953256D01*
X120697680Y-79953256D02*
X120752714Y-80063322D01*
X120752714Y-80063322D02*
X120807747Y-80118356D01*
X120807747Y-80118356D02*
X120917814Y-80173389D01*
X120917814Y-80173389D02*
X121192980Y-80173389D01*
X121192980Y-80173389D02*
X121303047Y-80118356D01*
X121303047Y-80118356D02*
X121358080Y-80063322D01*
D17*
X166574244Y-63128997D02*
X166629882Y-63184635D01*
X166629882Y-63184635D02*
X166741158Y-63240273D01*
X166741158Y-63240273D02*
X167019349Y-63240273D01*
X167019349Y-63240273D02*
X167130625Y-63184635D01*
X167130625Y-63184635D02*
X167186263Y-63128997D01*
X167186263Y-63128997D02*
X167241901Y-63017721D01*
X167241901Y-63017721D02*
X167241901Y-62906445D01*
X167241901Y-62906445D02*
X167186263Y-62739531D01*
X167186263Y-62739531D02*
X166518606Y-62071873D01*
X166518606Y-62071873D02*
X167241901Y-62071873D01*
X167798282Y-62071873D02*
X168020834Y-62071873D01*
X168020834Y-62071873D02*
X168132111Y-62127512D01*
X168132111Y-62127512D02*
X168187749Y-62183150D01*
X168187749Y-62183150D02*
X168299025Y-62350064D01*
X168299025Y-62350064D02*
X168354663Y-62572616D01*
X168354663Y-62572616D02*
X168354663Y-63017721D01*
X168354663Y-63017721D02*
X168299025Y-63128997D01*
X168299025Y-63128997D02*
X168243387Y-63184635D01*
X168243387Y-63184635D02*
X168132111Y-63240273D01*
X168132111Y-63240273D02*
X167909558Y-63240273D01*
X167909558Y-63240273D02*
X167798282Y-63184635D01*
X167798282Y-63184635D02*
X167742644Y-63128997D01*
X167742644Y-63128997D02*
X167687006Y-63017721D01*
X167687006Y-63017721D02*
X167687006Y-62739531D01*
X167687006Y-62739531D02*
X167742644Y-62628254D01*
X167742644Y-62628254D02*
X167798282Y-62572616D01*
X167798282Y-62572616D02*
X167909558Y-62516978D01*
X167909558Y-62516978D02*
X168132111Y-62516978D01*
X168132111Y-62516978D02*
X168243387Y-62572616D01*
X168243387Y-62572616D02*
X168299025Y-62628254D01*
X168299025Y-62628254D02*
X168354663Y-62739531D01*
X168799768Y-63128997D02*
X168855406Y-63184635D01*
X168855406Y-63184635D02*
X168966682Y-63240273D01*
X168966682Y-63240273D02*
X169244873Y-63240273D01*
X169244873Y-63240273D02*
X169356149Y-63184635D01*
X169356149Y-63184635D02*
X169411787Y-63128997D01*
X169411787Y-63128997D02*
X169467425Y-63017721D01*
X169467425Y-63017721D02*
X169467425Y-62906445D01*
X169467425Y-62906445D02*
X169411787Y-62739531D01*
X169411787Y-62739531D02*
X168744130Y-62071873D01*
X168744130Y-62071873D02*
X169467425Y-62071873D01*
X169856892Y-63240273D02*
X170580187Y-63240273D01*
X170580187Y-63240273D02*
X170190720Y-62795169D01*
X170190720Y-62795169D02*
X170357635Y-62795169D01*
X170357635Y-62795169D02*
X170468911Y-62739531D01*
X170468911Y-62739531D02*
X170524549Y-62683892D01*
X170524549Y-62683892D02*
X170580187Y-62572616D01*
X170580187Y-62572616D02*
X170580187Y-62294426D01*
X170580187Y-62294426D02*
X170524549Y-62183150D01*
X170524549Y-62183150D02*
X170468911Y-62127512D01*
X170468911Y-62127512D02*
X170357635Y-62071873D01*
X170357635Y-62071873D02*
X170023806Y-62071873D01*
X170023806Y-62071873D02*
X169912530Y-62127512D01*
X169912530Y-62127512D02*
X169856892Y-62183150D01*
X171303482Y-63240273D02*
X171414759Y-63240273D01*
X171414759Y-63240273D02*
X171526035Y-63184635D01*
X171526035Y-63184635D02*
X171581673Y-63128997D01*
X171581673Y-63128997D02*
X171637311Y-63017721D01*
X171637311Y-63017721D02*
X171692949Y-62795169D01*
X171692949Y-62795169D02*
X171692949Y-62516978D01*
X171692949Y-62516978D02*
X171637311Y-62294426D01*
X171637311Y-62294426D02*
X171581673Y-62183150D01*
X171581673Y-62183150D02*
X171526035Y-62127512D01*
X171526035Y-62127512D02*
X171414759Y-62071873D01*
X171414759Y-62071873D02*
X171303482Y-62071873D01*
X171303482Y-62071873D02*
X171192206Y-62127512D01*
X171192206Y-62127512D02*
X171136568Y-62183150D01*
X171136568Y-62183150D02*
X171080930Y-62294426D01*
X171080930Y-62294426D02*
X171025292Y-62516978D01*
X171025292Y-62516978D02*
X171025292Y-62795169D01*
X171025292Y-62795169D02*
X171080930Y-63017721D01*
X171080930Y-63017721D02*
X171136568Y-63128997D01*
X171136568Y-63128997D02*
X171192206Y-63184635D01*
X171192206Y-63184635D02*
X171303482Y-63240273D01*
X172082416Y-63240273D02*
X172805711Y-63240273D01*
X172805711Y-63240273D02*
X172416244Y-62795169D01*
X172416244Y-62795169D02*
X172583159Y-62795169D01*
X172583159Y-62795169D02*
X172694435Y-62739531D01*
X172694435Y-62739531D02*
X172750073Y-62683892D01*
X172750073Y-62683892D02*
X172805711Y-62572616D01*
X172805711Y-62572616D02*
X172805711Y-62294426D01*
X172805711Y-62294426D02*
X172750073Y-62183150D01*
X172750073Y-62183150D02*
X172694435Y-62127512D01*
X172694435Y-62127512D02*
X172583159Y-62071873D01*
X172583159Y-62071873D02*
X172249330Y-62071873D01*
X172249330Y-62071873D02*
X172138054Y-62127512D01*
X172138054Y-62127512D02*
X172082416Y-62183150D01*
X173306454Y-62516978D02*
X174196664Y-62516978D01*
X175365063Y-62071873D02*
X174697406Y-62071873D01*
X175031234Y-62071873D02*
X175031234Y-63240273D01*
X175031234Y-63240273D02*
X174919958Y-63073359D01*
X174919958Y-63073359D02*
X174808682Y-62962083D01*
X174808682Y-62962083D02*
X174697406Y-62906445D01*
D12*
X120099253Y-71548770D02*
X119743169Y-71548770D01*
X119743169Y-71548770D02*
X119707561Y-71192686D01*
X119707561Y-71192686D02*
X119743169Y-71228295D01*
X119743169Y-71228295D02*
X119814386Y-71263903D01*
X119814386Y-71263903D02*
X119992428Y-71263903D01*
X119992428Y-71263903D02*
X120063645Y-71228295D01*
X120063645Y-71228295D02*
X120099253Y-71192686D01*
X120099253Y-71192686D02*
X120134862Y-71121470D01*
X120134862Y-71121470D02*
X120134862Y-70943428D01*
X120134862Y-70943428D02*
X120099253Y-70872211D01*
X120099253Y-70872211D02*
X120063645Y-70836603D01*
X120063645Y-70836603D02*
X119992428Y-70800994D01*
X119992428Y-70800994D02*
X119814386Y-70800994D01*
X119814386Y-70800994D02*
X119743169Y-70836603D01*
X119743169Y-70836603D02*
X119707561Y-70872211D01*
X120419729Y-71014644D02*
X120775813Y-71014644D01*
X120348512Y-70800994D02*
X120597771Y-71548770D01*
X120597771Y-71548770D02*
X120847030Y-70800994D01*
X117150896Y-70991311D02*
X117115287Y-71026919D01*
X117115287Y-71026919D02*
X117079679Y-71098136D01*
X117079679Y-71098136D02*
X117079679Y-71276178D01*
X117079679Y-71276178D02*
X117115287Y-71347395D01*
X117115287Y-71347395D02*
X117150896Y-71383003D01*
X117150896Y-71383003D02*
X117222112Y-71418612D01*
X117222112Y-71418612D02*
X117293329Y-71418612D01*
X117293329Y-71418612D02*
X117400154Y-71383003D01*
X117400154Y-71383003D02*
X117827455Y-70955703D01*
X117827455Y-70955703D02*
X117827455Y-71418612D01*
X117756238Y-71739087D02*
X117791847Y-71774696D01*
X117791847Y-71774696D02*
X117827455Y-71739087D01*
X117827455Y-71739087D02*
X117791847Y-71703479D01*
X117791847Y-71703479D02*
X117756238Y-71739087D01*
X117756238Y-71739087D02*
X117827455Y-71739087D01*
X117827455Y-72486864D02*
X117827455Y-72059563D01*
X117827455Y-72273213D02*
X117079679Y-72273213D01*
X117079679Y-72273213D02*
X117186504Y-72201997D01*
X117186504Y-72201997D02*
X117257721Y-72130780D01*
X117257721Y-72130780D02*
X117293329Y-72059563D01*
X117827455Y-72807339D02*
X117328938Y-72807339D01*
X117400154Y-72807339D02*
X117364546Y-72842948D01*
X117364546Y-72842948D02*
X117328938Y-72914165D01*
X117328938Y-72914165D02*
X117328938Y-73020990D01*
X117328938Y-73020990D02*
X117364546Y-73092206D01*
X117364546Y-73092206D02*
X117435763Y-73127815D01*
X117435763Y-73127815D02*
X117827455Y-73127815D01*
X117435763Y-73127815D02*
X117364546Y-73163423D01*
X117364546Y-73163423D02*
X117328938Y-73234640D01*
X117328938Y-73234640D02*
X117328938Y-73341465D01*
X117328938Y-73341465D02*
X117364546Y-73412682D01*
X117364546Y-73412682D02*
X117435763Y-73448290D01*
X117435763Y-73448290D02*
X117827455Y-73448290D01*
X117827455Y-73804374D02*
X117328938Y-73804374D01*
X117400154Y-73804374D02*
X117364546Y-73839983D01*
X117364546Y-73839983D02*
X117328938Y-73911200D01*
X117328938Y-73911200D02*
X117328938Y-74018025D01*
X117328938Y-74018025D02*
X117364546Y-74089241D01*
X117364546Y-74089241D02*
X117435763Y-74124850D01*
X117435763Y-74124850D02*
X117827455Y-74124850D01*
X117435763Y-74124850D02*
X117364546Y-74160458D01*
X117364546Y-74160458D02*
X117328938Y-74231675D01*
X117328938Y-74231675D02*
X117328938Y-74338500D01*
X117328938Y-74338500D02*
X117364546Y-74409717D01*
X117364546Y-74409717D02*
X117435763Y-74445325D01*
X117435763Y-74445325D02*
X117827455Y-74445325D01*
X117079679Y-74730193D02*
X117827455Y-75228710D01*
X117079679Y-75228710D02*
X117827455Y-74730193D01*
X117079679Y-75869661D02*
X117079679Y-75513577D01*
X117079679Y-75513577D02*
X117435763Y-75477969D01*
X117435763Y-75477969D02*
X117400154Y-75513577D01*
X117400154Y-75513577D02*
X117364546Y-75584794D01*
X117364546Y-75584794D02*
X117364546Y-75762836D01*
X117364546Y-75762836D02*
X117400154Y-75834053D01*
X117400154Y-75834053D02*
X117435763Y-75869661D01*
X117435763Y-75869661D02*
X117506979Y-75905270D01*
X117506979Y-75905270D02*
X117685021Y-75905270D01*
X117685021Y-75905270D02*
X117756238Y-75869661D01*
X117756238Y-75869661D02*
X117791847Y-75834053D01*
X117791847Y-75834053D02*
X117827455Y-75762836D01*
X117827455Y-75762836D02*
X117827455Y-75584794D01*
X117827455Y-75584794D02*
X117791847Y-75513577D01*
X117791847Y-75513577D02*
X117756238Y-75477969D01*
X117756238Y-76225745D02*
X117791847Y-76261354D01*
X117791847Y-76261354D02*
X117827455Y-76225745D01*
X117827455Y-76225745D02*
X117791847Y-76190137D01*
X117791847Y-76190137D02*
X117756238Y-76225745D01*
X117756238Y-76225745D02*
X117827455Y-76225745D01*
X117079679Y-76937913D02*
X117079679Y-76581829D01*
X117079679Y-76581829D02*
X117435763Y-76546221D01*
X117435763Y-76546221D02*
X117400154Y-76581829D01*
X117400154Y-76581829D02*
X117364546Y-76653046D01*
X117364546Y-76653046D02*
X117364546Y-76831088D01*
X117364546Y-76831088D02*
X117400154Y-76902305D01*
X117400154Y-76902305D02*
X117435763Y-76937913D01*
X117435763Y-76937913D02*
X117506979Y-76973522D01*
X117506979Y-76973522D02*
X117685021Y-76973522D01*
X117685021Y-76973522D02*
X117756238Y-76937913D01*
X117756238Y-76937913D02*
X117791847Y-76902305D01*
X117791847Y-76902305D02*
X117827455Y-76831088D01*
X117827455Y-76831088D02*
X117827455Y-76653046D01*
X117827455Y-76653046D02*
X117791847Y-76581829D01*
X117791847Y-76581829D02*
X117756238Y-76546221D01*
X117827455Y-77293997D02*
X117328938Y-77293997D01*
X117400154Y-77293997D02*
X117364546Y-77329606D01*
X117364546Y-77329606D02*
X117328938Y-77400823D01*
X117328938Y-77400823D02*
X117328938Y-77507648D01*
X117328938Y-77507648D02*
X117364546Y-77578864D01*
X117364546Y-77578864D02*
X117435763Y-77614473D01*
X117435763Y-77614473D02*
X117827455Y-77614473D01*
X117435763Y-77614473D02*
X117364546Y-77650081D01*
X117364546Y-77650081D02*
X117328938Y-77721298D01*
X117328938Y-77721298D02*
X117328938Y-77828123D01*
X117328938Y-77828123D02*
X117364546Y-77899340D01*
X117364546Y-77899340D02*
X117435763Y-77934948D01*
X117435763Y-77934948D02*
X117827455Y-77934948D01*
X117827455Y-78291032D02*
X117328938Y-78291032D01*
X117400154Y-78291032D02*
X117364546Y-78326641D01*
X117364546Y-78326641D02*
X117328938Y-78397858D01*
X117328938Y-78397858D02*
X117328938Y-78504683D01*
X117328938Y-78504683D02*
X117364546Y-78575899D01*
X117364546Y-78575899D02*
X117435763Y-78611508D01*
X117435763Y-78611508D02*
X117827455Y-78611508D01*
X117435763Y-78611508D02*
X117364546Y-78647116D01*
X117364546Y-78647116D02*
X117328938Y-78718333D01*
X117328938Y-78718333D02*
X117328938Y-78825158D01*
X117328938Y-78825158D02*
X117364546Y-78896375D01*
X117364546Y-78896375D02*
X117435763Y-78931983D01*
X117435763Y-78931983D02*
X117827455Y-78931983D01*
D17*
X122267382Y-77454373D02*
X122267382Y-78622773D01*
X122267382Y-78622773D02*
X122712487Y-78622773D01*
X122712487Y-78622773D02*
X122823763Y-78567135D01*
X122823763Y-78567135D02*
X122879401Y-78511497D01*
X122879401Y-78511497D02*
X122935039Y-78400221D01*
X122935039Y-78400221D02*
X122935039Y-78233307D01*
X122935039Y-78233307D02*
X122879401Y-78122031D01*
X122879401Y-78122031D02*
X122823763Y-78066392D01*
X122823763Y-78066392D02*
X122712487Y-78010754D01*
X122712487Y-78010754D02*
X122267382Y-78010754D01*
X123769611Y-78622773D02*
X123769611Y-77788202D01*
X123769611Y-77788202D02*
X123713972Y-77621288D01*
X123713972Y-77621288D02*
X123602696Y-77510012D01*
X123602696Y-77510012D02*
X123435782Y-77454373D01*
X123435782Y-77454373D02*
X123324506Y-77454373D01*
X124548544Y-78622773D02*
X124659821Y-78622773D01*
X124659821Y-78622773D02*
X124771097Y-78567135D01*
X124771097Y-78567135D02*
X124826735Y-78511497D01*
X124826735Y-78511497D02*
X124882373Y-78400221D01*
X124882373Y-78400221D02*
X124938011Y-78177669D01*
X124938011Y-78177669D02*
X124938011Y-77899478D01*
X124938011Y-77899478D02*
X124882373Y-77676926D01*
X124882373Y-77676926D02*
X124826735Y-77565650D01*
X124826735Y-77565650D02*
X124771097Y-77510012D01*
X124771097Y-77510012D02*
X124659821Y-77454373D01*
X124659821Y-77454373D02*
X124548544Y-77454373D01*
X124548544Y-77454373D02*
X124437268Y-77510012D01*
X124437268Y-77510012D02*
X124381630Y-77565650D01*
X124381630Y-77565650D02*
X124325992Y-77676926D01*
X124325992Y-77676926D02*
X124270354Y-77899478D01*
X124270354Y-77899478D02*
X124270354Y-78177669D01*
X124270354Y-78177669D02*
X124325992Y-78400221D01*
X124325992Y-78400221D02*
X124381630Y-78511497D01*
X124381630Y-78511497D02*
X124437268Y-78567135D01*
X124437268Y-78567135D02*
X124548544Y-78622773D01*
X125995135Y-78622773D02*
X125438754Y-78622773D01*
X125438754Y-78622773D02*
X125383116Y-78066392D01*
X125383116Y-78066392D02*
X125438754Y-78122031D01*
X125438754Y-78122031D02*
X125550030Y-78177669D01*
X125550030Y-78177669D02*
X125828221Y-78177669D01*
X125828221Y-78177669D02*
X125939497Y-78122031D01*
X125939497Y-78122031D02*
X125995135Y-78066392D01*
X125995135Y-78066392D02*
X126050773Y-77955116D01*
X126050773Y-77955116D02*
X126050773Y-77676926D01*
X126050773Y-77676926D02*
X125995135Y-77565650D01*
X125995135Y-77565650D02*
X125939497Y-77510012D01*
X125939497Y-77510012D02*
X125828221Y-77454373D01*
X125828221Y-77454373D02*
X125550030Y-77454373D01*
X125550030Y-77454373D02*
X125438754Y-77510012D01*
X125438754Y-77510012D02*
X125383116Y-77565650D01*
X126718430Y-78122031D02*
X126607154Y-78177669D01*
X126607154Y-78177669D02*
X126551516Y-78233307D01*
X126551516Y-78233307D02*
X126495878Y-78344583D01*
X126495878Y-78344583D02*
X126495878Y-78400221D01*
X126495878Y-78400221D02*
X126551516Y-78511497D01*
X126551516Y-78511497D02*
X126607154Y-78567135D01*
X126607154Y-78567135D02*
X126718430Y-78622773D01*
X126718430Y-78622773D02*
X126940983Y-78622773D01*
X126940983Y-78622773D02*
X127052259Y-78567135D01*
X127052259Y-78567135D02*
X127107897Y-78511497D01*
X127107897Y-78511497D02*
X127163535Y-78400221D01*
X127163535Y-78400221D02*
X127163535Y-78344583D01*
X127163535Y-78344583D02*
X127107897Y-78233307D01*
X127107897Y-78233307D02*
X127052259Y-78177669D01*
X127052259Y-78177669D02*
X126940983Y-78122031D01*
X126940983Y-78122031D02*
X126718430Y-78122031D01*
X126718430Y-78122031D02*
X126607154Y-78066392D01*
X126607154Y-78066392D02*
X126551516Y-78010754D01*
X126551516Y-78010754D02*
X126495878Y-77899478D01*
X126495878Y-77899478D02*
X126495878Y-77676926D01*
X126495878Y-77676926D02*
X126551516Y-77565650D01*
X126551516Y-77565650D02*
X126607154Y-77510012D01*
X126607154Y-77510012D02*
X126718430Y-77454373D01*
X126718430Y-77454373D02*
X126940983Y-77454373D01*
X126940983Y-77454373D02*
X127052259Y-77510012D01*
X127052259Y-77510012D02*
X127107897Y-77565650D01*
X127107897Y-77565650D02*
X127163535Y-77676926D01*
X127163535Y-77676926D02*
X127163535Y-77899478D01*
X127163535Y-77899478D02*
X127107897Y-78010754D01*
X127107897Y-78010754D02*
X127052259Y-78066392D01*
X127052259Y-78066392D02*
X126940983Y-78122031D01*
X127664278Y-77899478D02*
X128554488Y-77899478D01*
X129055230Y-77788202D02*
X129611611Y-77788202D01*
X128943954Y-77454373D02*
X129333420Y-78622773D01*
X129333420Y-78622773D02*
X129722887Y-77454373D01*
X130112354Y-77454373D02*
X130112354Y-78622773D01*
X130112354Y-78066392D02*
X130780011Y-78066392D01*
X130780011Y-77454373D02*
X130780011Y-78622773D01*
D18*
%TO.C,JP6*%
X145802350Y-143738600D02*
X144532350Y-143738600D01*
X143897350Y-139293600D02*
X143897350Y-143103600D01*
X144532350Y-138658600D02*
X143897350Y-139293600D01*
X145802350Y-138658600D02*
X144532350Y-138658600D01*
X146437350Y-139293600D02*
X145802350Y-138658600D01*
X144532350Y-143738600D02*
X143897350Y-143103600D01*
X146437350Y-143103600D02*
X145802350Y-143738600D01*
X153422350Y-143738600D02*
X152152350Y-143738600D01*
X150882350Y-143738600D02*
X149612350Y-143738600D01*
X148342350Y-143738600D02*
X147072350Y-143738600D01*
X146437350Y-139293600D02*
X146437350Y-143103600D01*
X148977350Y-139293600D02*
X148977350Y-143103600D01*
X151517350Y-139293600D02*
X151517350Y-143103600D01*
X147072350Y-138658600D02*
X146437350Y-139293600D01*
X148342350Y-138658600D02*
X147072350Y-138658600D01*
X148977350Y-139293600D02*
X148342350Y-138658600D01*
X149612350Y-138658600D02*
X148977350Y-139293600D01*
X150882350Y-138658600D02*
X149612350Y-138658600D01*
X151517350Y-139293600D02*
X150882350Y-138658600D01*
X152152350Y-138658600D02*
X151517350Y-139293600D01*
X153422350Y-138658600D02*
X152152350Y-138658600D01*
X154057350Y-139293600D02*
X153422350Y-138658600D01*
X154057350Y-143103600D02*
X154057350Y-139293600D01*
X147072350Y-143738600D02*
X146437350Y-143103600D01*
X148977350Y-143103600D02*
X148342350Y-143738600D01*
X149612350Y-143738600D02*
X148977350Y-143103600D01*
X151517350Y-143103600D02*
X150882350Y-143738600D01*
X152152350Y-143738600D02*
X151517350Y-143103600D01*
X154057350Y-143103600D02*
X153422350Y-143738600D01*
D19*
%TO.C,JP7*%
X129172350Y-134563600D02*
X128172350Y-134563600D01*
X118172350Y-134563600D02*
X125172350Y-134563600D01*
X118172350Y-146563600D02*
X118172350Y-134563600D01*
X129172350Y-146563600D02*
X128172350Y-146563600D01*
X118172350Y-146563600D02*
X125172350Y-146563600D01*
X129172350Y-146563600D02*
X129172350Y-134563600D01*
%TO.C,JP8*%
X168147350Y-138626100D02*
X169147350Y-138626100D01*
X179147350Y-138626100D02*
X172147350Y-138626100D01*
X179147350Y-126626100D02*
X179147350Y-138626100D01*
X168147350Y-126626100D02*
X169147350Y-126626100D01*
X179147350Y-126626100D02*
X172147350Y-126626100D01*
X168147350Y-126626100D02*
X168147350Y-138626100D01*
D18*
%TO.C,JP12*%
X145802350Y-138658600D02*
X144532350Y-138658600D01*
X143897350Y-134213600D02*
X143897350Y-138023600D01*
X144532350Y-133578600D02*
X143897350Y-134213600D01*
X145802350Y-133578600D02*
X144532350Y-133578600D01*
X146437350Y-134213600D02*
X145802350Y-133578600D01*
X144532350Y-138658600D02*
X143897350Y-138023600D01*
X146437350Y-138023600D02*
X145802350Y-138658600D01*
X153422350Y-138658600D02*
X152152350Y-138658600D01*
X150882350Y-138658600D02*
X149612350Y-138658600D01*
X148342350Y-138658600D02*
X147072350Y-138658600D01*
X146437350Y-134213600D02*
X146437350Y-138023600D01*
X148977350Y-134213600D02*
X148977350Y-138023600D01*
X151517350Y-134213600D02*
X151517350Y-138023600D01*
X147072350Y-133578600D02*
X146437350Y-134213600D01*
X148342350Y-133578600D02*
X147072350Y-133578600D01*
X148977350Y-134213600D02*
X148342350Y-133578600D01*
X149612350Y-133578600D02*
X148977350Y-134213600D01*
X150882350Y-133578600D02*
X149612350Y-133578600D01*
X151517350Y-134213600D02*
X150882350Y-133578600D01*
X152152350Y-133578600D02*
X151517350Y-134213600D01*
X153422350Y-133578600D02*
X152152350Y-133578600D01*
X154057350Y-134213600D02*
X153422350Y-133578600D01*
X154057350Y-138023600D02*
X154057350Y-134213600D01*
X147072350Y-138658600D02*
X146437350Y-138023600D01*
X148977350Y-138023600D02*
X148342350Y-138658600D01*
X149612350Y-138658600D02*
X148977350Y-138023600D01*
X151517350Y-138023600D02*
X150882350Y-138658600D01*
X152152350Y-138658600D02*
X151517350Y-138023600D01*
X154057350Y-138023600D02*
X153422350Y-138658600D01*
D19*
%TO.C,JP10*%
X129172350Y-120593600D02*
X128172350Y-120593600D01*
X118172350Y-120593600D02*
X125172350Y-120593600D01*
X118172350Y-132593600D02*
X118172350Y-120593600D01*
X129172350Y-132593600D02*
X128172350Y-132593600D01*
X118172350Y-132593600D02*
X125172350Y-132593600D01*
X129172350Y-132593600D02*
X129172350Y-120593600D01*
D20*
%TO.C,IC2*%
G36*
X127958850Y-68046600D02*
G01*
X126053850Y-68046600D01*
X126053850Y-67538600D01*
X127958850Y-67538600D01*
X127958850Y-68046600D01*
G37*
G36*
X124275850Y-68046600D02*
G01*
X123513850Y-68046600D01*
X123513850Y-67538600D01*
X124275850Y-67538600D01*
X124275850Y-68046600D01*
G37*
G36*
X121735850Y-68046600D02*
G01*
X120973850Y-68046600D01*
X120973850Y-67538600D01*
X121735850Y-67538600D01*
X121735850Y-68046600D01*
G37*
G36*
X119195850Y-68046600D02*
G01*
X117290850Y-68046600D01*
X117290850Y-67538600D01*
X119195850Y-67538600D01*
X119195850Y-68046600D01*
G37*
G36*
X127958850Y-68808600D02*
G01*
X117290850Y-68808600D01*
X117290850Y-68046600D01*
X127958850Y-68046600D01*
X127958850Y-68808600D01*
G37*
D16*
X118383050Y-65100200D02*
G75*
G02*
X117875050Y-65100200I-254000J0D01*
G01*
X117875050Y-65100200D02*
G75*
G02*
X118383050Y-65100200I254000J0D01*
G01*
X117671850Y-64744600D02*
X117544850Y-67665600D01*
X117671850Y-64744600D02*
X117925850Y-64490600D01*
X127323850Y-64490600D02*
X117925850Y-64490600D01*
X127323850Y-64490600D02*
X127577850Y-64744600D01*
X127704850Y-67665600D02*
X127577850Y-64744600D01*
D18*
%TO.C,C16*%
X165862000Y-120396000D02*
X165862000Y-120269000D01*
D10*
X165862000Y-120396000D02*
X166624000Y-120396000D01*
X165100000Y-120396000D02*
X165862000Y-120396000D01*
X165862000Y-120904000D02*
X166624000Y-120904000D01*
X165862000Y-120904000D02*
X165100000Y-120904000D01*
D18*
X165862000Y-121031000D02*
X165862000Y-120904000D01*
X167132000Y-118237000D02*
G75*
G02*
X167386000Y-118491000I0J-254000D01*
G01*
X167386000Y-122809000D02*
G75*
G02*
X167132000Y-123063000I-254000J0D01*
G01*
X164338000Y-118491000D02*
G75*
G02*
X164592000Y-118237000I254000J0D01*
G01*
X164592000Y-123063000D02*
G75*
G02*
X164338000Y-122809000I0J254000D01*
G01*
X164592000Y-118237000D02*
X167132000Y-118237000D01*
X164592000Y-123063000D02*
X167132000Y-123063000D01*
X167386000Y-122809000D02*
X167386000Y-118491000D01*
X164338000Y-118491000D02*
X164338000Y-122809000D01*
%TO.C,C17*%
X178054000Y-110236000D02*
X178054000Y-110109000D01*
D10*
X178054000Y-110236000D02*
X178816000Y-110236000D01*
X177292000Y-110236000D02*
X178054000Y-110236000D01*
X178054000Y-110744000D02*
X178816000Y-110744000D01*
X178054000Y-110744000D02*
X177292000Y-110744000D01*
D18*
X178054000Y-110871000D02*
X178054000Y-110744000D01*
X179324000Y-108077000D02*
G75*
G02*
X179578000Y-108331000I0J-254000D01*
G01*
X179578000Y-112649000D02*
G75*
G02*
X179324000Y-112903000I-254000J0D01*
G01*
X176530000Y-108331000D02*
G75*
G02*
X176784000Y-108077000I254000J0D01*
G01*
X176784000Y-112903000D02*
G75*
G02*
X176530000Y-112649000I0J254000D01*
G01*
X176784000Y-108077000D02*
X179324000Y-108077000D01*
X176784000Y-112903000D02*
X179324000Y-112903000D01*
X179578000Y-112649000D02*
X179578000Y-108331000D01*
X176530000Y-108331000D02*
X176530000Y-112649000D01*
%TO.C,JP1*%
X138182350Y-72618600D02*
X136912350Y-72618600D01*
X136277350Y-68173600D02*
X136277350Y-71983600D01*
X138817350Y-71983600D02*
X138182350Y-72618600D01*
X136277350Y-71983600D02*
X136912350Y-72618600D01*
X136912350Y-67538600D02*
X136277350Y-68173600D01*
X138182350Y-67538600D02*
X136912350Y-67538600D01*
X138817350Y-68173600D02*
X138182350Y-67538600D01*
X161042350Y-72618600D02*
X159772350Y-72618600D01*
X158502350Y-72618600D02*
X157232350Y-72618600D01*
X155962350Y-72618600D02*
X154692350Y-72618600D01*
X153422350Y-72618600D02*
X152152350Y-72618600D01*
X150882350Y-72618600D02*
X149612350Y-72618600D01*
X148342350Y-72618600D02*
X147072350Y-72618600D01*
X145802350Y-72618600D02*
X144532350Y-72618600D01*
X143262350Y-72618600D02*
X141992350Y-72618600D01*
X140722350Y-72618600D02*
X139452350Y-72618600D01*
X138817350Y-68173600D02*
X138817350Y-71983600D01*
X141357350Y-68173600D02*
X141357350Y-71983600D01*
X143897350Y-68173600D02*
X143897350Y-71983600D01*
X146437350Y-68173600D02*
X146437350Y-71983600D01*
X148977350Y-68173600D02*
X148977350Y-71983600D01*
X151517350Y-68173600D02*
X151517350Y-71983600D01*
X154057350Y-68173600D02*
X154057350Y-71983600D01*
X156597350Y-68173600D02*
X156597350Y-71983600D01*
X159137350Y-68173600D02*
X159137350Y-71983600D01*
X146437350Y-71983600D02*
X145802350Y-72618600D01*
X143897350Y-71983600D02*
X144532350Y-72618600D01*
X143897350Y-71983600D02*
X143262350Y-72618600D01*
X141357350Y-71983600D02*
X141992350Y-72618600D01*
X141357350Y-71983600D02*
X140722350Y-72618600D01*
X138817350Y-71983600D02*
X139452350Y-72618600D01*
X139452350Y-67538600D02*
X138817350Y-68173600D01*
X140722350Y-67538600D02*
X139452350Y-67538600D01*
X141357350Y-68173600D02*
X140722350Y-67538600D01*
X141992350Y-67538600D02*
X141357350Y-68173600D01*
X143262350Y-67538600D02*
X141992350Y-67538600D01*
X143897350Y-68173600D02*
X143262350Y-67538600D01*
X144532350Y-67538600D02*
X143897350Y-68173600D01*
X145802350Y-67538600D02*
X144532350Y-67538600D01*
X146437350Y-68173600D02*
X145802350Y-67538600D01*
X147072350Y-67538600D02*
X146437350Y-68173600D01*
X148342350Y-67538600D02*
X147072350Y-67538600D01*
X148977350Y-68173600D02*
X148342350Y-67538600D01*
X149612350Y-67538600D02*
X148977350Y-68173600D01*
X150882350Y-67538600D02*
X149612350Y-67538600D01*
X151517350Y-68173600D02*
X150882350Y-67538600D01*
X152152350Y-67538600D02*
X151517350Y-68173600D01*
X153422350Y-67538600D02*
X152152350Y-67538600D01*
X154057350Y-68173600D02*
X153422350Y-67538600D01*
X154692350Y-67538600D02*
X154057350Y-68173600D01*
X155962350Y-67538600D02*
X154692350Y-67538600D01*
X156597350Y-68173600D02*
X155962350Y-67538600D01*
X157232350Y-67538600D02*
X156597350Y-68173600D01*
X158502350Y-67538600D02*
X157232350Y-67538600D01*
X159137350Y-68173600D02*
X158502350Y-67538600D01*
X159772350Y-67538600D02*
X159137350Y-68173600D01*
X161042350Y-67538600D02*
X159772350Y-67538600D01*
X161677350Y-68173600D02*
X161042350Y-67538600D01*
X161677350Y-71983600D02*
X161677350Y-68173600D01*
X147072350Y-72618600D02*
X146437350Y-71983600D01*
X148977350Y-71983600D02*
X148342350Y-72618600D01*
X149612350Y-72618600D02*
X148977350Y-71983600D01*
X151517350Y-71983600D02*
X150882350Y-72618600D01*
X152152350Y-72618600D02*
X151517350Y-71983600D01*
X154057350Y-71983600D02*
X153422350Y-72618600D01*
X154692350Y-72618600D02*
X154057350Y-71983600D01*
X156597350Y-71983600D02*
X155962350Y-72618600D01*
X157232350Y-72618600D02*
X156597350Y-71983600D01*
X159137350Y-71983600D02*
X158502350Y-72618600D01*
X159772350Y-72618600D02*
X159137350Y-71983600D01*
X161677350Y-71983600D02*
X161042350Y-72618600D01*
%TO.C,JP2*%
X138182350Y-77698600D02*
X136912350Y-77698600D01*
X136277350Y-73253600D02*
X136277350Y-77063600D01*
X138817350Y-77063600D02*
X138182350Y-77698600D01*
X136277350Y-77063600D02*
X136912350Y-77698600D01*
X136912350Y-72618600D02*
X136277350Y-73253600D01*
X138182350Y-72618600D02*
X136912350Y-72618600D01*
X138817350Y-73253600D02*
X138182350Y-72618600D01*
X161042350Y-77698600D02*
X159772350Y-77698600D01*
X158502350Y-77698600D02*
X157232350Y-77698600D01*
X155962350Y-77698600D02*
X154692350Y-77698600D01*
X153422350Y-77698600D02*
X152152350Y-77698600D01*
X150882350Y-77698600D02*
X149612350Y-77698600D01*
X148342350Y-77698600D02*
X147072350Y-77698600D01*
X145802350Y-77698600D02*
X144532350Y-77698600D01*
X143262350Y-77698600D02*
X141992350Y-77698600D01*
X140722350Y-77698600D02*
X139452350Y-77698600D01*
X138817350Y-73253600D02*
X138817350Y-77063600D01*
X141357350Y-73253600D02*
X141357350Y-77063600D01*
X143897350Y-73253600D02*
X143897350Y-77063600D01*
X146437350Y-73253600D02*
X146437350Y-77063600D01*
X148977350Y-73253600D02*
X148977350Y-77063600D01*
X151517350Y-73253600D02*
X151517350Y-77063600D01*
X154057350Y-73253600D02*
X154057350Y-77063600D01*
X156597350Y-73253600D02*
X156597350Y-77063600D01*
X159137350Y-73253600D02*
X159137350Y-77063600D01*
X146437350Y-77063600D02*
X145802350Y-77698600D01*
X143897350Y-77063600D02*
X144532350Y-77698600D01*
X143897350Y-77063600D02*
X143262350Y-77698600D01*
X141357350Y-77063600D02*
X141992350Y-77698600D01*
X141357350Y-77063600D02*
X140722350Y-77698600D01*
X138817350Y-77063600D02*
X139452350Y-77698600D01*
X139452350Y-72618600D02*
X138817350Y-73253600D01*
X140722350Y-72618600D02*
X139452350Y-72618600D01*
X141357350Y-73253600D02*
X140722350Y-72618600D01*
X141992350Y-72618600D02*
X141357350Y-73253600D01*
X143262350Y-72618600D02*
X141992350Y-72618600D01*
X143897350Y-73253600D02*
X143262350Y-72618600D01*
X144532350Y-72618600D02*
X143897350Y-73253600D01*
X145802350Y-72618600D02*
X144532350Y-72618600D01*
X146437350Y-73253600D02*
X145802350Y-72618600D01*
X147072350Y-72618600D02*
X146437350Y-73253600D01*
X148342350Y-72618600D02*
X147072350Y-72618600D01*
X148977350Y-73253600D02*
X148342350Y-72618600D01*
X149612350Y-72618600D02*
X148977350Y-73253600D01*
X150882350Y-72618600D02*
X149612350Y-72618600D01*
X151517350Y-73253600D02*
X150882350Y-72618600D01*
X152152350Y-72618600D02*
X151517350Y-73253600D01*
X153422350Y-72618600D02*
X152152350Y-72618600D01*
X154057350Y-73253600D02*
X153422350Y-72618600D01*
X154692350Y-72618600D02*
X154057350Y-73253600D01*
X155962350Y-72618600D02*
X154692350Y-72618600D01*
X156597350Y-73253600D02*
X155962350Y-72618600D01*
X157232350Y-72618600D02*
X156597350Y-73253600D01*
X158502350Y-72618600D02*
X157232350Y-72618600D01*
X159137350Y-73253600D02*
X158502350Y-72618600D01*
X159772350Y-72618600D02*
X159137350Y-73253600D01*
X161042350Y-72618600D02*
X159772350Y-72618600D01*
X161677350Y-73253600D02*
X161042350Y-72618600D01*
X161677350Y-77063600D02*
X161677350Y-73253600D01*
X147072350Y-77698600D02*
X146437350Y-77063600D01*
X148977350Y-77063600D02*
X148342350Y-77698600D01*
X149612350Y-77698600D02*
X148977350Y-77063600D01*
X151517350Y-77063600D02*
X150882350Y-77698600D01*
X152152350Y-77698600D02*
X151517350Y-77063600D01*
X154057350Y-77063600D02*
X153422350Y-77698600D01*
X154692350Y-77698600D02*
X154057350Y-77063600D01*
X156597350Y-77063600D02*
X155962350Y-77698600D01*
X157232350Y-77698600D02*
X156597350Y-77063600D01*
X159137350Y-77063600D02*
X158502350Y-77698600D01*
X159772350Y-77698600D02*
X159137350Y-77063600D01*
X161677350Y-77063600D02*
X161042350Y-77698600D01*
%TO.C,JP4*%
X125482350Y-118338600D02*
X129292350Y-118338600D01*
X125482350Y-115798600D02*
X129292350Y-115798600D01*
X125482350Y-113258600D02*
X129292350Y-113258600D01*
X125482350Y-110718600D02*
X129292350Y-110718600D01*
X125482350Y-108178600D02*
X129292350Y-108178600D01*
X125482350Y-105638600D02*
X129292350Y-105638600D01*
X125482350Y-103098600D02*
X129292350Y-103098600D01*
X125482350Y-100558600D02*
X129292350Y-100558600D01*
X125482350Y-98018600D02*
X129292350Y-98018600D01*
X125482350Y-95478600D02*
X129292350Y-95478600D01*
X125482350Y-92938600D02*
X129292350Y-92938600D01*
X125482350Y-90398600D02*
X129292350Y-90398600D01*
X125482350Y-87858600D02*
X129292350Y-87858600D01*
X125482350Y-85318600D02*
X129292350Y-85318600D01*
X125482350Y-82778600D02*
X129292350Y-82778600D01*
X129292350Y-95478600D02*
X129927350Y-96113600D01*
X129927350Y-97383600D02*
X129927350Y-96113600D01*
X129292350Y-98018600D02*
X129927350Y-97383600D01*
X129292350Y-98018600D02*
X129927350Y-98653600D01*
X129927350Y-99923600D02*
X129927350Y-98653600D01*
X129292350Y-100558600D02*
X129927350Y-99923600D01*
X129292350Y-100558600D02*
X129927350Y-101193600D01*
X129927350Y-102463600D02*
X129927350Y-101193600D01*
X129292350Y-103098600D02*
X129927350Y-102463600D01*
X129292350Y-103098600D02*
X129927350Y-103733600D01*
X129927350Y-105003600D02*
X129927350Y-103733600D01*
X129292350Y-105638600D02*
X129927350Y-105003600D01*
X129292350Y-105638600D02*
X129927350Y-106273600D01*
X129927350Y-107543600D02*
X129927350Y-106273600D01*
X129292350Y-108178600D02*
X129927350Y-107543600D01*
X129292350Y-108178600D02*
X129927350Y-108813600D01*
X129927350Y-110083600D02*
X129927350Y-108813600D01*
X129292350Y-110718600D02*
X129927350Y-110083600D01*
X129292350Y-110718600D02*
X129927350Y-111353600D01*
X129927350Y-112623600D02*
X129927350Y-111353600D01*
X129292350Y-113258600D02*
X129927350Y-112623600D01*
X129292350Y-113258600D02*
X129927350Y-113893600D01*
X129927350Y-115163600D02*
X129927350Y-113893600D01*
X129292350Y-115798600D02*
X129927350Y-115163600D01*
X129927350Y-116433600D02*
X129292350Y-115798600D01*
X129927350Y-116433600D02*
X129927350Y-117703600D01*
X129292350Y-118338600D02*
X129927350Y-117703600D01*
X124847350Y-117703600D02*
X125482350Y-118338600D01*
X124847350Y-117703600D02*
X124847350Y-116433600D01*
X125482350Y-115798600D02*
X124847350Y-116433600D01*
X124847350Y-115163600D02*
X125482350Y-115798600D01*
X124847350Y-115163600D02*
X124847350Y-113893600D01*
X125482350Y-113258600D02*
X124847350Y-113893600D01*
X124847350Y-112623600D02*
X125482350Y-113258600D01*
X124847350Y-112623600D02*
X124847350Y-111353600D01*
X125482350Y-110718600D02*
X124847350Y-111353600D01*
X125482350Y-110718600D02*
X124847350Y-110083600D01*
X124847350Y-108813600D02*
X124847350Y-110083600D01*
X125482350Y-108178600D02*
X124847350Y-108813600D01*
X124847350Y-107543600D02*
X125482350Y-108178600D01*
X124847350Y-106273600D02*
X124847350Y-107543600D01*
X125482350Y-105638600D02*
X124847350Y-106273600D01*
X124847350Y-105003600D02*
X125482350Y-105638600D01*
X124847350Y-103733600D02*
X124847350Y-105003600D01*
X125482350Y-103098600D02*
X124847350Y-103733600D01*
X124847350Y-102463600D02*
X125482350Y-103098600D01*
X124847350Y-101193600D02*
X124847350Y-102463600D01*
X125482350Y-100558600D02*
X124847350Y-101193600D01*
X124847350Y-99923600D02*
X125482350Y-100558600D01*
X124847350Y-98653600D02*
X124847350Y-99923600D01*
X125482350Y-98018600D02*
X124847350Y-98653600D01*
X124847350Y-97383600D02*
X125482350Y-98018600D01*
X124847350Y-96113600D02*
X124847350Y-97383600D01*
X125482350Y-95478600D02*
X124847350Y-96113600D01*
X124847350Y-94843600D02*
X125482350Y-95478600D01*
X124847350Y-93573600D02*
X124847350Y-94843600D01*
X125482350Y-92938600D02*
X124847350Y-93573600D01*
X124847350Y-92303600D02*
X125482350Y-92938600D01*
X124847350Y-91033600D02*
X124847350Y-92303600D01*
X125482350Y-90398600D02*
X124847350Y-91033600D01*
X124847350Y-89763600D02*
X125482350Y-90398600D01*
X124847350Y-88493600D02*
X124847350Y-89763600D01*
X125482350Y-87858600D02*
X124847350Y-88493600D01*
X124847350Y-87223600D02*
X125482350Y-87858600D01*
X124847350Y-85953600D02*
X124847350Y-87223600D01*
X125482350Y-85318600D02*
X124847350Y-85953600D01*
X124847350Y-84683600D02*
X125482350Y-85318600D01*
X124847350Y-83413600D02*
X124847350Y-84683600D01*
X125482350Y-82778600D02*
X124847350Y-83413600D01*
X124847350Y-82143600D02*
X125482350Y-82778600D01*
X124847350Y-80873600D02*
X124847350Y-82143600D01*
X125482350Y-80238600D02*
X124847350Y-80873600D01*
X129292350Y-80238600D02*
X125482350Y-80238600D01*
X129927350Y-94843600D02*
X129292350Y-95478600D01*
X129927350Y-93573600D02*
X129927350Y-94843600D01*
X129292350Y-92938600D02*
X129927350Y-93573600D01*
X129927350Y-92303600D02*
X129292350Y-92938600D01*
X129927350Y-91033600D02*
X129927350Y-92303600D01*
X129292350Y-90398600D02*
X129927350Y-91033600D01*
X129927350Y-89763600D02*
X129292350Y-90398600D01*
X129927350Y-88493600D02*
X129927350Y-89763600D01*
X129292350Y-87858600D02*
X129927350Y-88493600D01*
X129927350Y-87223600D02*
X129292350Y-87858600D01*
X129927350Y-85953600D02*
X129927350Y-87223600D01*
X129292350Y-85318600D02*
X129927350Y-85953600D01*
X129927350Y-84683600D02*
X129292350Y-85318600D01*
X129927350Y-83413600D02*
X129927350Y-84683600D01*
X129292350Y-82778600D02*
X129927350Y-83413600D01*
X129927350Y-82143600D02*
X129292350Y-82778600D01*
X129927350Y-80873600D02*
X129927350Y-82143600D01*
X129292350Y-80238600D02*
X129927350Y-80873600D01*
%TO.C,JP5*%
X120402350Y-118338600D02*
X124212350Y-118338600D01*
X120402350Y-115798600D02*
X124212350Y-115798600D01*
X120402350Y-113258600D02*
X124212350Y-113258600D01*
X120402350Y-110718600D02*
X124212350Y-110718600D01*
X120402350Y-108178600D02*
X124212350Y-108178600D01*
X120402350Y-105638600D02*
X124212350Y-105638600D01*
X120402350Y-103098600D02*
X124212350Y-103098600D01*
X120402350Y-100558600D02*
X124212350Y-100558600D01*
X120402350Y-98018600D02*
X124212350Y-98018600D01*
X120402350Y-95478600D02*
X124212350Y-95478600D01*
X120402350Y-92938600D02*
X124212350Y-92938600D01*
X120402350Y-90398600D02*
X124212350Y-90398600D01*
X120402350Y-87858600D02*
X124212350Y-87858600D01*
X120402350Y-85318600D02*
X124212350Y-85318600D01*
X120402350Y-82778600D02*
X124212350Y-82778600D01*
X124212350Y-95478600D02*
X124847350Y-96113600D01*
X124847350Y-97383600D02*
X124847350Y-96113600D01*
X124212350Y-98018600D02*
X124847350Y-97383600D01*
X124212350Y-98018600D02*
X124847350Y-98653600D01*
X124847350Y-99923600D02*
X124847350Y-98653600D01*
X124212350Y-100558600D02*
X124847350Y-99923600D01*
X124212350Y-100558600D02*
X124847350Y-101193600D01*
X124847350Y-102463600D02*
X124847350Y-101193600D01*
X124212350Y-103098600D02*
X124847350Y-102463600D01*
X124212350Y-103098600D02*
X124847350Y-103733600D01*
X124847350Y-105003600D02*
X124847350Y-103733600D01*
X124212350Y-105638600D02*
X124847350Y-105003600D01*
X124212350Y-105638600D02*
X124847350Y-106273600D01*
X124847350Y-107543600D02*
X124847350Y-106273600D01*
X124212350Y-108178600D02*
X124847350Y-107543600D01*
X124212350Y-108178600D02*
X124847350Y-108813600D01*
X124847350Y-110083600D02*
X124847350Y-108813600D01*
X124212350Y-110718600D02*
X124847350Y-110083600D01*
X124212350Y-110718600D02*
X124847350Y-111353600D01*
X124847350Y-112623600D02*
X124847350Y-111353600D01*
X124212350Y-113258600D02*
X124847350Y-112623600D01*
X124212350Y-113258600D02*
X124847350Y-113893600D01*
X124847350Y-115163600D02*
X124847350Y-113893600D01*
X124212350Y-115798600D02*
X124847350Y-115163600D01*
X124847350Y-116433600D02*
X124212350Y-115798600D01*
X124847350Y-116433600D02*
X124847350Y-117703600D01*
X124212350Y-118338600D02*
X124847350Y-117703600D01*
X119767350Y-117703600D02*
X120402350Y-118338600D01*
X119767350Y-117703600D02*
X119767350Y-116433600D01*
X120402350Y-115798600D02*
X119767350Y-116433600D01*
X119767350Y-115163600D02*
X120402350Y-115798600D01*
X119767350Y-115163600D02*
X119767350Y-113893600D01*
X120402350Y-113258600D02*
X119767350Y-113893600D01*
X119767350Y-112623600D02*
X120402350Y-113258600D01*
X119767350Y-112623600D02*
X119767350Y-111353600D01*
X120402350Y-110718600D02*
X119767350Y-111353600D01*
X120402350Y-110718600D02*
X119767350Y-110083600D01*
X119767350Y-108813600D02*
X119767350Y-110083600D01*
X120402350Y-108178600D02*
X119767350Y-108813600D01*
X119767350Y-107543600D02*
X120402350Y-108178600D01*
X119767350Y-106273600D02*
X119767350Y-107543600D01*
X120402350Y-105638600D02*
X119767350Y-106273600D01*
X119767350Y-105003600D02*
X120402350Y-105638600D01*
X119767350Y-103733600D02*
X119767350Y-105003600D01*
X120402350Y-103098600D02*
X119767350Y-103733600D01*
X119767350Y-102463600D02*
X120402350Y-103098600D01*
X119767350Y-101193600D02*
X119767350Y-102463600D01*
X120402350Y-100558600D02*
X119767350Y-101193600D01*
X119767350Y-99923600D02*
X120402350Y-100558600D01*
X119767350Y-98653600D02*
X119767350Y-99923600D01*
X120402350Y-98018600D02*
X119767350Y-98653600D01*
X119767350Y-97383600D02*
X120402350Y-98018600D01*
X119767350Y-96113600D02*
X119767350Y-97383600D01*
X120402350Y-95478600D02*
X119767350Y-96113600D01*
X119767350Y-94843600D02*
X120402350Y-95478600D01*
X119767350Y-93573600D02*
X119767350Y-94843600D01*
X120402350Y-92938600D02*
X119767350Y-93573600D01*
X119767350Y-92303600D02*
X120402350Y-92938600D01*
X119767350Y-91033600D02*
X119767350Y-92303600D01*
X120402350Y-90398600D02*
X119767350Y-91033600D01*
X119767350Y-89763600D02*
X120402350Y-90398600D01*
X119767350Y-88493600D02*
X119767350Y-89763600D01*
X120402350Y-87858600D02*
X119767350Y-88493600D01*
X119767350Y-87223600D02*
X120402350Y-87858600D01*
X119767350Y-85953600D02*
X119767350Y-87223600D01*
X120402350Y-85318600D02*
X119767350Y-85953600D01*
X119767350Y-84683600D02*
X120402350Y-85318600D01*
X119767350Y-83413600D02*
X119767350Y-84683600D01*
X120402350Y-82778600D02*
X119767350Y-83413600D01*
X119767350Y-82143600D02*
X120402350Y-82778600D01*
X119767350Y-80873600D02*
X119767350Y-82143600D01*
X120402350Y-80238600D02*
X119767350Y-80873600D01*
X124212350Y-80238600D02*
X120402350Y-80238600D01*
X124847350Y-94843600D02*
X124212350Y-95478600D01*
X124847350Y-93573600D02*
X124847350Y-94843600D01*
X124212350Y-92938600D02*
X124847350Y-93573600D01*
X124847350Y-92303600D02*
X124212350Y-92938600D01*
X124847350Y-91033600D02*
X124847350Y-92303600D01*
X124212350Y-90398600D02*
X124847350Y-91033600D01*
X124847350Y-89763600D02*
X124212350Y-90398600D01*
X124847350Y-88493600D02*
X124847350Y-89763600D01*
X124212350Y-87858600D02*
X124847350Y-88493600D01*
X124847350Y-87223600D02*
X124212350Y-87858600D01*
X124847350Y-85953600D02*
X124847350Y-87223600D01*
X124212350Y-85318600D02*
X124847350Y-85953600D01*
X124847350Y-84683600D02*
X124212350Y-85318600D01*
X124847350Y-83413600D02*
X124847350Y-84683600D01*
X124212350Y-82778600D02*
X124847350Y-83413600D01*
X124847350Y-82143600D02*
X124212350Y-82778600D01*
X124847350Y-80873600D02*
X124847350Y-82143600D01*
X124212350Y-80238600D02*
X124847350Y-80873600D01*
D16*
%TO.C,U$3*%
X164284850Y-61523600D02*
X164284850Y-75423600D01*
X177484850Y-61523600D02*
X164284850Y-61523600D01*
X177484850Y-75423600D02*
X177484850Y-61523600D01*
X164284850Y-75423600D02*
X177484850Y-75423600D01*
%TO.C,U$1*%
X116522350Y-69506100D02*
X116522350Y-78906100D01*
X131722350Y-69506100D02*
X116522350Y-69506100D01*
X131722350Y-78906100D02*
X131722350Y-69506100D01*
X116522350Y-78906100D02*
X131722350Y-78906100D01*
%TD*%
M02*
