G75*
%MOIN*%
%OFA0B0*%
%FSLAX24Y24*%
%IPPOS*%
%LPD*%
%AMOC8*
5,1,8,0,0,1.08239X$1,22.5*
%
%ADD10C,0.0600*%
%ADD11C,0.0594*%
%ADD12C,0.1266*%
%ADD13C,0.0768*%
%ADD14C,0.0520*%
%ADD15C,0.0554*%
%ADD16C,0.1337*%
%ADD17C,0.0886*%
%ADD18C,0.0320*%
%ADD19C,0.0436*%
%ADD20C,0.0240*%
%ADD21C,0.0500*%
%ADD22C,0.0120*%
%ADD23C,0.0100*%
%ADD24C,0.0396*%
%ADD25C,0.0160*%
%ADD26C,0.0000*%
D10*
X002449Y012275D03*
X002449Y013275D03*
X002449Y014275D03*
X002449Y015275D03*
X002449Y016275D03*
X002449Y017275D03*
X002449Y018275D03*
X002449Y019275D03*
X002449Y020275D03*
X002449Y021275D03*
X002449Y022275D03*
X002449Y023275D03*
X002449Y024275D03*
X002449Y025275D03*
X002449Y026275D03*
X003449Y026275D03*
X003449Y025275D03*
X003449Y024275D03*
X003449Y023275D03*
X003449Y022275D03*
X003449Y021275D03*
X003449Y020275D03*
X003449Y019275D03*
X003449Y018275D03*
X003449Y017275D03*
X003449Y016275D03*
X003449Y015275D03*
X003449Y014275D03*
X003449Y013275D03*
X003449Y012275D03*
X004449Y012275D03*
X004449Y013275D03*
X004449Y014275D03*
X004449Y015275D03*
X004449Y016275D03*
X004449Y017275D03*
X004449Y018275D03*
X004449Y019275D03*
X004449Y020275D03*
X004449Y021275D03*
X004449Y022275D03*
X004449Y023275D03*
X004449Y024275D03*
X004449Y025275D03*
X004449Y026275D03*
X005449Y026275D03*
X005449Y025275D03*
X005449Y024275D03*
X005449Y023275D03*
X005449Y022275D03*
X005449Y021275D03*
X005449Y020275D03*
X005449Y019275D03*
X005449Y018275D03*
X005449Y017275D03*
X005449Y016275D03*
X005449Y015275D03*
X005449Y014275D03*
X005449Y013275D03*
X005449Y012275D03*
X011949Y005275D03*
X011949Y004275D03*
X011949Y003275D03*
X011949Y002275D03*
X012949Y002275D03*
X012949Y003275D03*
X012949Y004275D03*
X012949Y005275D03*
X013949Y005275D03*
X013949Y004275D03*
X013949Y003275D03*
X013949Y002275D03*
X014949Y002275D03*
X014949Y003275D03*
X014949Y004275D03*
X014949Y005275D03*
X022824Y010025D03*
X022824Y011025D03*
X022824Y012025D03*
X022824Y014025D03*
X022824Y015025D03*
X022824Y016025D03*
X022715Y018400D03*
X021199Y018275D03*
X021199Y019275D03*
X021199Y020275D03*
X020199Y019275D03*
X020199Y018275D03*
X018199Y018025D03*
X018199Y019025D03*
X017199Y019025D03*
X017199Y018025D03*
X012449Y022400D03*
X011949Y028275D03*
X010949Y028275D03*
X010949Y029275D03*
X010949Y030275D03*
X010949Y031275D03*
X011949Y031275D03*
X011949Y030275D03*
X011949Y029275D03*
X012949Y029275D03*
X012949Y028275D03*
X013949Y028275D03*
X013949Y029275D03*
X013949Y030275D03*
X013949Y031275D03*
X012949Y031275D03*
X012949Y030275D03*
X014949Y030275D03*
X014949Y029275D03*
X014949Y028275D03*
X015949Y028275D03*
X015949Y029275D03*
X015949Y030275D03*
X015949Y031275D03*
X014949Y031275D03*
X016949Y031275D03*
X016949Y030275D03*
X016949Y029275D03*
X016949Y028275D03*
X017949Y028275D03*
X017949Y029275D03*
X017949Y030275D03*
X017949Y031275D03*
X019699Y028025D03*
X020699Y028025D03*
X021699Y028025D03*
X022699Y028025D03*
X023699Y028025D03*
X024699Y028025D03*
X024683Y025650D03*
X022715Y025650D03*
X022715Y022025D03*
X024683Y022025D03*
X024683Y018400D03*
X024699Y002775D03*
X024699Y001775D03*
X023699Y001775D03*
X023699Y002775D03*
X009949Y028275D03*
X009949Y029275D03*
X009949Y030275D03*
X009949Y031275D03*
X008949Y031275D03*
X008949Y030275D03*
X008949Y029275D03*
X008949Y028275D03*
X007449Y029275D03*
X009624Y032935D03*
X010624Y032935D03*
X011624Y032935D03*
X012624Y032935D03*
X004074Y032275D03*
X003074Y032275D03*
X002074Y032275D03*
D11*
X007465Y022539D03*
X008449Y022539D03*
X009433Y022539D03*
X009433Y012539D03*
X008449Y012539D03*
X007465Y012539D03*
X007465Y002539D03*
X008449Y002539D03*
X009433Y002539D03*
X017465Y002539D03*
X018449Y002539D03*
X019433Y002539D03*
X019433Y012539D03*
X018449Y012539D03*
X017465Y012539D03*
X017465Y022539D03*
X018449Y022539D03*
X019433Y022539D03*
X020696Y029025D03*
X021680Y029025D03*
X022468Y029025D03*
X023452Y029025D03*
D12*
X020181Y025295D03*
X016717Y025295D03*
X010181Y025295D03*
X006717Y025295D03*
X006717Y015295D03*
X010181Y015295D03*
X016717Y015295D03*
X020181Y015295D03*
X020181Y005295D03*
X016717Y005295D03*
X010181Y005295D03*
X006717Y005295D03*
D13*
X004668Y004994D03*
X004668Y004009D03*
X004668Y002041D03*
X004668Y001056D03*
X002699Y003025D03*
X004668Y006556D03*
X004668Y007541D03*
X004668Y009509D03*
X004668Y010494D03*
X002699Y008525D03*
X021981Y008119D03*
X021981Y007134D03*
X021981Y005166D03*
X021981Y004181D03*
X023949Y006150D03*
X024699Y017150D03*
X022699Y017150D03*
X022699Y019650D03*
X022699Y020775D03*
X024699Y020775D03*
X024699Y019650D03*
X024699Y023275D03*
X024699Y024400D03*
X022699Y024400D03*
X022699Y023275D03*
X022699Y026900D03*
X024699Y026900D03*
D14*
X019199Y033150D03*
X018199Y033150D03*
X017324Y033150D03*
X016324Y033150D03*
X015444Y033150D03*
X014444Y033150D03*
X013529Y033420D03*
X013529Y032420D03*
X013574Y027025D03*
X013574Y026025D03*
X014574Y026775D03*
X015574Y026775D03*
X015199Y025525D03*
X014449Y024650D03*
X015199Y023525D03*
X015449Y022400D03*
X015449Y021025D03*
X014449Y021025D03*
X013449Y021025D03*
X012449Y021025D03*
X011324Y020400D03*
X011324Y018400D03*
X012449Y018025D03*
X013449Y018025D03*
X014449Y018025D03*
X015449Y018025D03*
X017449Y021275D03*
X018449Y021275D03*
X013824Y023275D03*
X013449Y022400D03*
X011824Y023275D03*
X011574Y024650D03*
X012574Y024650D03*
X013449Y024650D03*
X011574Y026025D03*
X011574Y027025D03*
X008449Y021275D03*
X007449Y021275D03*
X010949Y013650D03*
X011949Y013650D03*
X008574Y011275D03*
X007574Y011275D03*
X007574Y007900D03*
X009574Y007900D03*
X010824Y009150D03*
X011824Y009150D03*
X013199Y006525D03*
X015199Y006525D03*
X015949Y003525D03*
X015949Y001525D03*
X017199Y001400D03*
X018199Y001400D03*
X013949Y000900D03*
X011949Y000900D03*
X010824Y001650D03*
X010324Y000900D03*
X008324Y000900D03*
X007574Y001650D03*
X006574Y001650D03*
X010824Y003650D03*
X017449Y011275D03*
X018449Y011275D03*
X018449Y009400D03*
X018449Y008400D03*
X020449Y008400D03*
X020449Y009400D03*
X024824Y010025D03*
X024824Y011025D03*
X024824Y014025D03*
X024824Y015025D03*
D15*
X015699Y016775D03*
X012699Y016775D03*
D16*
X019476Y030088D03*
X024672Y030088D03*
D17*
X006380Y029150D03*
X005199Y031000D03*
X004018Y029150D03*
D18*
X001309Y004556D02*
X001309Y001494D01*
X001377Y001562D01*
X001596Y001653D01*
X001833Y001653D01*
X002053Y001562D01*
X002207Y001408D01*
X002361Y001562D01*
X002580Y001653D01*
X002818Y001653D01*
X003037Y001562D01*
X003205Y001394D01*
X003295Y001175D01*
X003295Y000938D01*
X003205Y000719D01*
X003037Y000551D01*
X002938Y000510D01*
X004233Y000510D01*
X004079Y000663D01*
X003974Y000918D01*
X003974Y001195D01*
X004079Y001450D01*
X004178Y001549D01*
X004079Y001648D01*
X003974Y001903D01*
X003974Y002179D01*
X004079Y002434D01*
X004247Y002602D01*
X004162Y002687D01*
X004071Y002906D01*
X004071Y003144D01*
X004162Y003363D01*
X004247Y003448D01*
X004079Y003616D01*
X003974Y003871D01*
X003974Y004147D01*
X004079Y004402D01*
X004178Y004501D01*
X004079Y004600D01*
X003974Y004855D01*
X003974Y005132D01*
X004079Y005387D01*
X004275Y005582D01*
X004530Y005687D01*
X004806Y005687D01*
X005061Y005582D01*
X005256Y005387D01*
X005361Y005132D01*
X005361Y004855D01*
X005256Y004600D01*
X005157Y004501D01*
X005256Y004402D01*
X005361Y004147D01*
X005361Y003871D01*
X005256Y003616D01*
X005088Y003448D01*
X005173Y003363D01*
X005264Y003144D01*
X005264Y002906D01*
X005173Y002687D01*
X005088Y002602D01*
X005256Y002434D01*
X005361Y002179D01*
X005361Y001903D01*
X005256Y001648D01*
X005157Y001549D01*
X005256Y001450D01*
X005361Y001195D01*
X005361Y000918D01*
X005256Y000663D01*
X005102Y000510D01*
X007908Y000510D01*
X007841Y000577D01*
X007754Y000787D01*
X005307Y000787D01*
X005361Y001106D02*
X007399Y001106D01*
X007461Y001080D02*
X007687Y001080D01*
X007801Y001127D01*
X007754Y001013D01*
X007754Y000787D01*
X007749Y001106D02*
X007792Y001106D01*
X008097Y001423D02*
X008144Y001537D01*
X008144Y001763D01*
X008057Y001973D01*
X007897Y002133D01*
X007861Y002148D01*
X007890Y002176D01*
X007923Y002222D01*
X007935Y002195D01*
X008105Y002024D01*
X008328Y001932D01*
X008570Y001932D01*
X008793Y002024D01*
X008941Y002173D01*
X009090Y002024D01*
X009313Y001932D01*
X009554Y001932D01*
X009777Y002024D01*
X009948Y002195D01*
X010040Y002418D01*
X010040Y002659D01*
X009948Y002883D01*
X009777Y003053D01*
X009554Y003146D01*
X009313Y003146D01*
X009090Y003053D01*
X008941Y002905D01*
X008793Y003053D01*
X008570Y003146D01*
X008328Y003146D01*
X008105Y003053D01*
X007935Y002883D01*
X007923Y002855D01*
X007890Y002902D01*
X007828Y002964D01*
X007757Y003015D01*
X007679Y003055D01*
X007595Y003082D01*
X007509Y003096D01*
X007465Y003096D01*
X007465Y002539D01*
X007465Y002539D01*
X007465Y003096D01*
X007421Y003096D01*
X007334Y003082D01*
X007251Y003055D01*
X007173Y003015D01*
X007102Y002964D01*
X007040Y002902D01*
X006989Y002831D01*
X006949Y002753D01*
X006922Y002669D01*
X006908Y002583D01*
X006908Y002539D01*
X007465Y002539D01*
X007465Y002539D01*
X006908Y002539D01*
X006908Y002495D01*
X006922Y002408D01*
X006949Y002325D01*
X006989Y002247D01*
X007040Y002176D01*
X007102Y002114D01*
X007173Y002063D01*
X007178Y002060D01*
X007091Y001973D01*
X007047Y001867D01*
X007019Y001923D01*
X006971Y001989D01*
X006913Y002047D01*
X006847Y002095D01*
X006774Y002132D01*
X006696Y002157D01*
X006615Y002170D01*
X006574Y002170D01*
X006533Y002170D01*
X006452Y002157D01*
X006374Y002132D01*
X006302Y002095D01*
X006235Y002047D01*
X006177Y001989D01*
X006129Y001923D01*
X006092Y001850D01*
X006067Y001772D01*
X006054Y001691D01*
X006054Y001650D01*
X006054Y001609D01*
X006067Y001528D01*
X006092Y001450D01*
X006129Y001377D01*
X006177Y001311D01*
X006235Y001253D01*
X006302Y001205D01*
X006374Y001168D01*
X006452Y001143D01*
X006533Y001130D01*
X006574Y001130D01*
X006574Y001650D01*
X006054Y001650D01*
X006574Y001650D01*
X006574Y001650D01*
X006574Y001650D01*
X006574Y002170D01*
X006574Y001650D01*
X006574Y001650D01*
X006574Y001130D01*
X006615Y001130D01*
X006696Y001143D01*
X006774Y001168D01*
X006847Y001205D01*
X006913Y001253D01*
X006971Y001311D01*
X007019Y001377D01*
X007047Y001433D01*
X007091Y001327D01*
X007251Y001167D01*
X007461Y001080D01*
X007051Y001424D02*
X007043Y001424D01*
X006574Y001424D02*
X006574Y001424D01*
X006574Y001743D02*
X006574Y001743D01*
X006574Y002061D02*
X006574Y002061D01*
X006255Y002061D02*
X005361Y002061D01*
X005295Y001743D02*
X006062Y001743D01*
X006106Y001424D02*
X005266Y001424D01*
X005278Y002380D02*
X006931Y002380D01*
X006931Y002698D02*
X005177Y002698D01*
X005264Y003017D02*
X007176Y003017D01*
X007465Y003017D02*
X007465Y003017D01*
X007754Y003017D02*
X008069Y003017D01*
X007465Y002698D02*
X007465Y002698D01*
X007969Y002061D02*
X008069Y002061D01*
X008144Y001743D02*
X010312Y001743D01*
X010317Y001772D02*
X010304Y001691D01*
X010304Y001650D01*
X010304Y001609D01*
X010317Y001528D01*
X010336Y001470D01*
X010211Y001470D01*
X010001Y001383D01*
X009841Y001223D01*
X009754Y001013D01*
X009754Y000787D01*
X008894Y000787D01*
X008894Y001013D01*
X008807Y001223D01*
X008647Y001383D01*
X008437Y001470D01*
X008211Y001470D01*
X008097Y001423D01*
X008097Y001424D02*
X008100Y001424D01*
X008548Y001424D02*
X010100Y001424D01*
X010304Y001650D02*
X010824Y001650D01*
X010824Y001650D01*
X010304Y001650D01*
X010317Y001772D02*
X010342Y001850D01*
X010379Y001923D01*
X010427Y001989D01*
X010485Y002047D01*
X010552Y002095D01*
X010624Y002132D01*
X010702Y002157D01*
X010783Y002170D01*
X010824Y002170D01*
X010824Y001650D01*
X010824Y001650D01*
X010824Y002170D01*
X010865Y002170D01*
X010946Y002157D01*
X011024Y002132D01*
X011097Y002095D01*
X011163Y002047D01*
X011221Y001989D01*
X011269Y001923D01*
X011306Y001850D01*
X011331Y001772D01*
X011344Y001691D01*
X011344Y001650D01*
X010824Y001650D01*
X010824Y001650D01*
X011344Y001650D01*
X011344Y001609D01*
X011331Y001528D01*
X011306Y001450D01*
X011269Y001377D01*
X011221Y001311D01*
X011163Y001253D01*
X011097Y001205D01*
X011024Y001168D01*
X010946Y001143D01*
X010865Y001130D01*
X010846Y001130D01*
X010894Y001013D01*
X010894Y000787D01*
X011440Y000787D01*
X011442Y000778D02*
X011467Y000700D01*
X011504Y000627D01*
X011552Y000561D01*
X011604Y000510D01*
X010740Y000510D01*
X010807Y000577D01*
X010894Y000787D01*
X010856Y001106D02*
X011470Y001106D01*
X011467Y001100D02*
X011442Y001022D01*
X011429Y000941D01*
X011429Y000900D01*
X011429Y000859D01*
X011442Y000778D01*
X011429Y000900D02*
X011949Y000900D01*
X011949Y000900D01*
X011429Y000900D01*
X011467Y001100D02*
X011504Y001173D01*
X011552Y001239D01*
X011610Y001297D01*
X011677Y001345D01*
X011749Y001382D01*
X011827Y001407D01*
X011908Y001420D01*
X011949Y001420D01*
X011949Y000900D01*
X011949Y000900D01*
X011949Y001420D01*
X011990Y001420D01*
X012071Y001407D01*
X012149Y001382D01*
X012222Y001345D01*
X012288Y001297D01*
X012346Y001239D01*
X012394Y001173D01*
X012431Y001100D01*
X012456Y001022D01*
X012469Y000941D01*
X012469Y000900D01*
X011949Y000900D01*
X012469Y000900D01*
X012469Y000859D01*
X012456Y000778D01*
X012431Y000700D01*
X012394Y000627D01*
X012346Y000561D01*
X012294Y000510D01*
X013533Y000510D01*
X013466Y000577D01*
X013379Y000787D01*
X012458Y000787D01*
X012428Y001106D02*
X013417Y001106D01*
X013379Y001013D02*
X013466Y001223D01*
X013626Y001383D01*
X013836Y001470D01*
X014062Y001470D01*
X014272Y001383D01*
X014432Y001223D01*
X014519Y001013D01*
X014519Y000787D01*
X025214Y000787D01*
X025214Y000510D02*
X014365Y000510D01*
X014432Y000577D01*
X014519Y000787D01*
X014481Y001106D02*
X015642Y001106D01*
X015610Y001128D02*
X015677Y001080D01*
X015749Y001043D01*
X015827Y001018D01*
X015908Y001005D01*
X015949Y001005D01*
X015949Y001525D01*
X015429Y001525D01*
X015429Y001484D01*
X015442Y001403D01*
X015467Y001325D01*
X015504Y001252D01*
X015552Y001186D01*
X015610Y001128D01*
X015949Y001106D02*
X015949Y001106D01*
X015949Y001005D02*
X015990Y001005D01*
X016071Y001018D01*
X016149Y001043D01*
X016222Y001080D01*
X016288Y001128D01*
X016346Y001186D01*
X016394Y001252D01*
X016431Y001325D01*
X016456Y001403D01*
X016469Y001484D01*
X016469Y001525D01*
X016469Y001566D01*
X016456Y001647D01*
X016431Y001725D01*
X016394Y001798D01*
X016346Y001864D01*
X016288Y001922D01*
X016222Y001970D01*
X016149Y002007D01*
X016071Y002032D01*
X015990Y002045D01*
X015949Y002045D01*
X015908Y002045D01*
X015827Y002032D01*
X015749Y002007D01*
X015677Y001970D01*
X015610Y001922D01*
X015552Y001864D01*
X015504Y001798D01*
X015467Y001725D01*
X015442Y001647D01*
X015429Y001566D01*
X015429Y001525D01*
X015949Y001525D01*
X015949Y001525D01*
X015949Y002045D01*
X015949Y001525D01*
X015949Y001525D01*
X015949Y001525D01*
X015949Y001005D01*
X016256Y001106D02*
X016770Y001106D01*
X016754Y001127D02*
X016802Y001061D01*
X016860Y001003D01*
X016927Y000955D01*
X016999Y000918D01*
X017077Y000893D01*
X017158Y000880D01*
X017199Y000880D01*
X017199Y001400D01*
X016679Y001400D01*
X016679Y001359D01*
X016692Y001278D01*
X016717Y001200D01*
X016754Y001127D01*
X016679Y001400D02*
X017199Y001400D01*
X017199Y001400D01*
X017199Y001920D01*
X017158Y001920D01*
X017077Y001907D01*
X016999Y001882D01*
X016927Y001845D01*
X016860Y001797D01*
X016802Y001739D01*
X016754Y001673D01*
X016717Y001600D01*
X016692Y001522D01*
X016679Y001441D01*
X016679Y001400D01*
X016679Y001424D02*
X016460Y001424D01*
X016469Y001525D02*
X015949Y001525D01*
X016469Y001525D01*
X016422Y001743D02*
X016806Y001743D01*
X017199Y001743D02*
X017199Y001743D01*
X017199Y001920D02*
X017199Y001400D01*
X017199Y001400D01*
X017199Y001400D01*
X017199Y000880D01*
X017240Y000880D01*
X017321Y000893D01*
X017399Y000918D01*
X017472Y000955D01*
X017538Y001003D01*
X017596Y001061D01*
X017644Y001127D01*
X017672Y001183D01*
X017716Y001077D01*
X017876Y000917D01*
X018086Y000830D01*
X018312Y000830D01*
X018522Y000917D01*
X018682Y001077D01*
X018769Y001287D01*
X018769Y001513D01*
X018682Y001723D01*
X018522Y001883D01*
X018404Y001932D01*
X018570Y001932D01*
X018793Y002024D01*
X018941Y002173D01*
X019090Y002024D01*
X019313Y001932D01*
X019554Y001932D01*
X019777Y002024D01*
X019947Y002194D01*
X019947Y002076D01*
X020099Y001707D01*
X020381Y001425D01*
X020750Y001273D01*
X021148Y001273D01*
X021517Y001425D01*
X021799Y001707D01*
X021952Y002076D01*
X021952Y002474D01*
X021799Y002843D01*
X021517Y003125D01*
X021148Y003277D01*
X020750Y003277D01*
X020381Y003125D01*
X020099Y002843D01*
X020032Y002680D01*
X019948Y002883D01*
X019777Y003053D01*
X019554Y003146D01*
X019313Y003146D01*
X019090Y003053D01*
X018941Y002905D01*
X018793Y003053D01*
X018570Y003146D01*
X018328Y003146D01*
X018105Y003053D01*
X017935Y002883D01*
X017923Y002855D01*
X017890Y002902D01*
X017828Y002964D01*
X017757Y003015D01*
X017679Y003055D01*
X017595Y003082D01*
X017509Y003096D01*
X017465Y003096D01*
X017465Y002539D01*
X017465Y002539D01*
X017465Y003096D01*
X017421Y003096D01*
X017334Y003082D01*
X017251Y003055D01*
X017173Y003015D01*
X017102Y002964D01*
X017040Y002902D01*
X016989Y002831D01*
X016949Y002753D01*
X016922Y002669D01*
X016908Y002583D01*
X016908Y002539D01*
X017465Y002539D01*
X017465Y002539D01*
X017465Y001982D01*
X017509Y001982D01*
X017595Y001996D01*
X017679Y002023D01*
X017757Y002063D01*
X017828Y002114D01*
X017890Y002176D01*
X017923Y002222D01*
X017935Y002195D01*
X018105Y002024D01*
X018236Y001970D01*
X018086Y001970D01*
X017876Y001883D01*
X017716Y001723D01*
X017672Y001617D01*
X017644Y001673D01*
X017596Y001739D01*
X017538Y001797D01*
X017472Y001845D01*
X017399Y001882D01*
X017321Y001907D01*
X017240Y001920D01*
X017199Y001920D01*
X017251Y002023D02*
X017334Y001996D01*
X017421Y001982D01*
X017465Y001982D01*
X017465Y002539D01*
X017465Y002539D01*
X016908Y002539D01*
X016908Y002495D01*
X016922Y002408D01*
X016949Y002325D01*
X016989Y002247D01*
X017040Y002176D01*
X017102Y002114D01*
X017173Y002063D01*
X017251Y002023D01*
X017176Y002061D02*
X015521Y002061D01*
X015559Y002154D02*
X015559Y002396D01*
X015466Y002621D01*
X015312Y002775D01*
X015466Y002929D01*
X015546Y003122D01*
X015626Y003042D01*
X015836Y002955D01*
X016062Y002955D01*
X016272Y003042D01*
X016432Y003202D01*
X016519Y003412D01*
X016519Y003638D01*
X016432Y003848D01*
X016272Y004008D01*
X016062Y004095D01*
X015836Y004095D01*
X015626Y004008D01*
X015466Y003848D01*
X015399Y003687D01*
X015312Y003775D01*
X015466Y003929D01*
X015559Y004154D01*
X015559Y004396D01*
X015466Y004621D01*
X015312Y004775D01*
X015466Y004929D01*
X015559Y005154D01*
X015559Y005396D01*
X015466Y005621D01*
X015295Y005792D01*
X015070Y005885D01*
X014828Y005885D01*
X014604Y005792D01*
X014432Y005621D01*
X014417Y005584D01*
X014376Y005640D01*
X014314Y005702D01*
X014243Y005754D01*
X014164Y005794D01*
X014080Y005821D01*
X013993Y005835D01*
X013949Y005835D01*
X013905Y005835D01*
X013818Y005821D01*
X013734Y005794D01*
X013656Y005754D01*
X013584Y005702D01*
X013522Y005640D01*
X013470Y005569D01*
X013449Y005527D01*
X013428Y005569D01*
X013376Y005640D01*
X013314Y005702D01*
X013243Y005754D01*
X013164Y005794D01*
X013080Y005821D01*
X012993Y005835D01*
X012949Y005835D01*
X012905Y005835D01*
X012818Y005821D01*
X012734Y005794D01*
X012656Y005754D01*
X012584Y005702D01*
X012522Y005640D01*
X012481Y005584D01*
X012466Y005621D01*
X012295Y005792D01*
X012070Y005885D01*
X011828Y005885D01*
X011604Y005792D01*
X011432Y005621D01*
X011339Y005396D01*
X011339Y005154D01*
X011432Y004929D01*
X011586Y004775D01*
X011432Y004621D01*
X011339Y004396D01*
X011339Y004154D01*
X011432Y003929D01*
X011586Y003775D01*
X011432Y003621D01*
X011339Y003396D01*
X011339Y003154D01*
X011432Y002929D01*
X011586Y002775D01*
X011432Y002621D01*
X011339Y002396D01*
X011339Y002154D01*
X011432Y001929D01*
X011604Y001758D01*
X011828Y001665D01*
X012070Y001665D01*
X012295Y001758D01*
X012466Y001929D01*
X012481Y001966D01*
X012522Y001910D01*
X012584Y001848D01*
X012656Y001796D01*
X012734Y001756D01*
X012818Y001729D01*
X012905Y001715D01*
X012949Y001715D01*
X012949Y002275D01*
X012949Y002275D01*
X012949Y003275D01*
X012949Y003275D01*
X012949Y004275D01*
X012949Y004275D01*
X012949Y005275D01*
X012949Y005835D01*
X012949Y005275D01*
X012949Y005275D01*
X012949Y005275D01*
X012949Y004715D01*
X012949Y004275D01*
X012949Y004275D01*
X012949Y003835D01*
X012949Y003275D01*
X012949Y003275D01*
X012949Y002715D01*
X012949Y002275D01*
X012949Y002275D01*
X012949Y001715D01*
X012993Y001715D01*
X013080Y001729D01*
X013164Y001756D01*
X013243Y001796D01*
X013314Y001848D01*
X013376Y001910D01*
X013428Y001981D01*
X013449Y002023D01*
X013470Y001981D01*
X013522Y001910D01*
X013584Y001848D01*
X013656Y001796D01*
X013734Y001756D01*
X013818Y001729D01*
X013905Y001715D01*
X013949Y001715D01*
X013949Y002275D01*
X012949Y002275D01*
X013509Y002275D01*
X013949Y002275D01*
X013949Y002275D01*
X013949Y002275D01*
X013949Y003275D01*
X012949Y003275D01*
X013509Y003275D01*
X013949Y003275D01*
X013949Y003275D01*
X013949Y003275D01*
X013949Y004275D01*
X012949Y004275D01*
X013509Y004275D01*
X013949Y004275D01*
X013949Y004275D01*
X013949Y004275D01*
X013949Y005275D01*
X012949Y005275D01*
X013509Y005275D01*
X013949Y005275D01*
X013949Y005275D01*
X013949Y005835D01*
X013949Y005275D01*
X013949Y005275D01*
X013949Y005275D01*
X013949Y004715D01*
X013949Y004275D01*
X013949Y004275D01*
X013949Y003835D01*
X013949Y003275D01*
X013949Y003275D01*
X013949Y002715D01*
X013949Y002275D01*
X013949Y002275D01*
X013949Y001715D01*
X013993Y001715D01*
X014080Y001729D01*
X014164Y001756D01*
X014243Y001796D01*
X014314Y001848D01*
X014376Y001910D01*
X014417Y001966D01*
X014432Y001929D01*
X014604Y001758D01*
X014828Y001665D01*
X015070Y001665D01*
X015295Y001758D01*
X015466Y001929D01*
X015559Y002154D01*
X015559Y002380D02*
X016931Y002380D01*
X016931Y002698D02*
X015389Y002698D01*
X015502Y003017D02*
X015687Y003017D01*
X016211Y003017D02*
X017176Y003017D01*
X017465Y003017D02*
X017465Y003017D01*
X017754Y003017D02*
X018069Y003017D01*
X017465Y002698D02*
X017465Y002698D01*
X017465Y002380D02*
X017465Y002380D01*
X017465Y002061D02*
X017465Y002061D01*
X017754Y002061D02*
X018069Y002061D01*
X017735Y001743D02*
X017592Y001743D01*
X017199Y001424D02*
X017199Y001424D01*
X017199Y001106D02*
X017199Y001106D01*
X017628Y001106D02*
X017704Y001106D01*
X018694Y001106D02*
X025214Y001106D01*
X025064Y001348D02*
X025126Y001410D01*
X025178Y001481D01*
X025214Y001552D01*
X025214Y000510D01*
X024914Y001256D02*
X024993Y001296D01*
X025064Y001348D01*
X025136Y001424D02*
X025214Y001424D01*
X024914Y001256D02*
X024830Y001229D01*
X024743Y001215D01*
X024699Y001215D01*
X024699Y001775D01*
X023699Y001775D01*
X023139Y001775D01*
X023139Y001731D01*
X023153Y001644D01*
X023180Y001560D01*
X023220Y001481D01*
X023272Y001410D01*
X023334Y001348D01*
X023406Y001296D01*
X023484Y001256D01*
X023568Y001229D01*
X023655Y001215D01*
X023699Y001215D01*
X023699Y001775D01*
X023699Y001775D01*
X023139Y001775D01*
X023139Y001819D01*
X023153Y001906D01*
X023180Y001990D01*
X023220Y002069D01*
X023272Y002140D01*
X023334Y002202D01*
X023406Y002254D01*
X023447Y002275D01*
X023406Y002296D01*
X023334Y002348D01*
X023272Y002410D01*
X023220Y002481D01*
X023180Y002560D01*
X023153Y002644D01*
X023139Y002731D01*
X023139Y002775D01*
X023699Y002775D01*
X023699Y002775D01*
X023139Y002775D01*
X023139Y002819D01*
X023153Y002906D01*
X023180Y002990D01*
X023220Y003069D01*
X023272Y003140D01*
X023334Y003202D01*
X023406Y003254D01*
X023484Y003294D01*
X023568Y003321D01*
X023655Y003335D01*
X023699Y003335D01*
X023699Y002775D01*
X023699Y002775D01*
X023699Y002335D01*
X023699Y001775D01*
X023699Y001775D01*
X023699Y001775D01*
X023699Y002775D01*
X023699Y002775D01*
X023699Y003335D01*
X023743Y003335D01*
X023830Y003321D01*
X023914Y003294D01*
X023993Y003254D01*
X024064Y003202D01*
X024126Y003140D01*
X024178Y003069D01*
X024199Y003027D01*
X024220Y003069D01*
X024272Y003140D01*
X024334Y003202D01*
X024406Y003254D01*
X024484Y003294D01*
X024568Y003321D01*
X024655Y003335D01*
X024699Y003335D01*
X024699Y002775D01*
X023699Y002775D01*
X024259Y002775D01*
X024699Y002775D01*
X024699Y002775D01*
X024699Y002775D01*
X024699Y002335D01*
X024699Y001775D01*
X024699Y001775D01*
X024259Y001775D01*
X023699Y001775D01*
X023699Y001215D01*
X023743Y001215D01*
X023830Y001229D01*
X023914Y001256D01*
X023993Y001296D01*
X024064Y001348D01*
X024126Y001410D01*
X024178Y001481D01*
X024199Y001523D01*
X024220Y001481D01*
X024272Y001410D01*
X024334Y001348D01*
X024406Y001296D01*
X024484Y001256D01*
X024568Y001229D01*
X024655Y001215D01*
X024699Y001215D01*
X024699Y001775D01*
X024699Y001775D01*
X024699Y001775D01*
X024699Y002775D01*
X024699Y002775D01*
X024699Y003335D01*
X024743Y003335D01*
X024830Y003321D01*
X024914Y003294D01*
X024993Y003254D01*
X025064Y003202D01*
X025126Y003140D01*
X025178Y003069D01*
X025214Y002998D01*
X025214Y003652D01*
X025052Y003585D01*
X024815Y003585D01*
X024596Y003676D01*
X024441Y003830D01*
X024287Y003676D01*
X024068Y003585D01*
X023830Y003585D01*
X023611Y003676D01*
X023444Y003844D01*
X023353Y004063D01*
X023353Y004300D01*
X023444Y004519D01*
X023611Y004687D01*
X023830Y004778D01*
X024068Y004778D01*
X024287Y004687D01*
X024441Y004533D01*
X024596Y004687D01*
X024815Y004778D01*
X025052Y004778D01*
X025214Y004711D01*
X025214Y007589D01*
X025052Y007522D01*
X024815Y007522D01*
X024596Y007613D01*
X024441Y007767D01*
X024287Y007613D01*
X024068Y007522D01*
X023830Y007522D01*
X023611Y007613D01*
X023444Y007781D01*
X023353Y008000D01*
X023353Y008237D01*
X023444Y008456D01*
X023611Y008624D01*
X023830Y008715D01*
X024068Y008715D01*
X024287Y008624D01*
X024441Y008470D01*
X024596Y008624D01*
X024815Y008715D01*
X025052Y008715D01*
X025214Y008648D01*
X025214Y009680D01*
X025163Y009628D01*
X025097Y009580D01*
X025024Y009543D01*
X024946Y009518D01*
X024865Y009505D01*
X024824Y009505D01*
X024824Y010025D01*
X024304Y010025D01*
X024304Y009984D01*
X024317Y009903D01*
X024342Y009825D01*
X024379Y009752D01*
X024427Y009686D01*
X024485Y009628D01*
X024552Y009580D01*
X024624Y009543D01*
X024702Y009518D01*
X024783Y009505D01*
X024824Y009505D01*
X024824Y010025D01*
X024824Y010025D01*
X024304Y010025D01*
X024304Y010066D01*
X024317Y010147D01*
X024342Y010225D01*
X024379Y010298D01*
X024427Y010364D01*
X024485Y010422D01*
X024552Y010470D01*
X024607Y010498D01*
X024501Y010542D01*
X024341Y010702D01*
X024254Y010912D01*
X024254Y011138D01*
X024341Y011348D01*
X024501Y011508D01*
X024711Y011595D01*
X024937Y011595D01*
X025147Y011508D01*
X025214Y011441D01*
X025214Y013680D01*
X025163Y013628D01*
X025097Y013580D01*
X025024Y013543D01*
X024946Y013518D01*
X024865Y013505D01*
X024824Y013505D01*
X024824Y014025D01*
X024304Y014025D01*
X024304Y013984D01*
X024317Y013903D01*
X024342Y013825D01*
X024379Y013752D01*
X024427Y013686D01*
X024485Y013628D01*
X024552Y013580D01*
X024624Y013543D01*
X024702Y013518D01*
X024783Y013505D01*
X024824Y013505D01*
X024824Y014025D01*
X024824Y014025D01*
X024304Y014025D01*
X024304Y014066D01*
X024317Y014147D01*
X024342Y014225D01*
X024379Y014298D01*
X024427Y014364D01*
X024485Y014422D01*
X024552Y014470D01*
X024607Y014498D01*
X024501Y014542D01*
X024341Y014702D01*
X024254Y014912D01*
X024254Y015138D01*
X024341Y015348D01*
X024501Y015508D01*
X024711Y015595D01*
X024937Y015595D01*
X025147Y015508D01*
X025214Y015441D01*
X025214Y016400D01*
X023241Y016400D01*
X023251Y016390D01*
X023303Y016319D01*
X023343Y016240D01*
X023370Y016156D01*
X023384Y016069D01*
X023384Y016025D01*
X022824Y016025D01*
X022264Y016025D01*
X022264Y015981D01*
X022278Y015894D01*
X022305Y015810D01*
X022345Y015731D01*
X022397Y015660D01*
X022459Y015598D01*
X022515Y015557D01*
X022479Y015542D01*
X022307Y015371D01*
X022214Y015146D01*
X022214Y014904D01*
X022307Y014679D01*
X022461Y014525D01*
X022307Y014371D01*
X022214Y014146D01*
X022214Y013904D01*
X022307Y013679D01*
X022479Y013508D01*
X022703Y013415D01*
X022945Y013415D01*
X023170Y013508D01*
X023341Y013679D01*
X023434Y013904D01*
X023434Y014146D01*
X023341Y014371D01*
X023187Y014525D01*
X023341Y014679D01*
X023434Y014904D01*
X023434Y015146D01*
X023341Y015371D01*
X023170Y015542D01*
X023133Y015557D01*
X023189Y015598D01*
X023251Y015660D01*
X023303Y015731D01*
X023343Y015810D01*
X023370Y015894D01*
X023384Y015981D01*
X023384Y016025D01*
X022824Y016025D01*
X022824Y016025D01*
X022264Y016025D01*
X022264Y016069D01*
X022278Y016156D01*
X022305Y016240D01*
X022345Y016319D01*
X022397Y016390D01*
X022407Y016400D01*
X019449Y016400D01*
X019449Y019900D01*
X019824Y020650D01*
X019949Y021025D01*
X020449Y022025D01*
X020574Y022400D01*
X020574Y024437D01*
X020369Y024352D01*
X019994Y024352D01*
X019647Y024495D01*
X019387Y024755D01*
X019380Y024737D01*
X019237Y024594D01*
X019050Y024517D01*
X018848Y024517D01*
X018661Y024594D01*
X018518Y024737D01*
X018441Y024924D01*
X018441Y025126D01*
X018518Y025313D01*
X018605Y025400D01*
X018395Y025400D01*
X018380Y025362D01*
X018237Y025219D01*
X018050Y025142D01*
X017848Y025142D01*
X017661Y025219D01*
X017660Y025221D01*
X017660Y025107D01*
X017516Y024760D01*
X017251Y024495D01*
X016904Y024352D01*
X016824Y024352D01*
X016824Y019513D01*
X016854Y019542D01*
X017078Y019635D01*
X017320Y019635D01*
X017545Y019542D01*
X017716Y019371D01*
X017731Y019334D01*
X017772Y019390D01*
X017834Y019452D01*
X017906Y019504D01*
X017984Y019544D01*
X018068Y019571D01*
X018155Y019585D01*
X018199Y019585D01*
X018199Y019025D01*
X018199Y019025D01*
X018199Y018465D01*
X018199Y018025D01*
X018199Y018025D01*
X018199Y018025D01*
X018199Y017465D01*
X018155Y017465D01*
X018068Y017479D01*
X017984Y017506D01*
X017906Y017546D01*
X017834Y017598D01*
X017772Y017660D01*
X017731Y017716D01*
X017716Y017679D01*
X017545Y017508D01*
X017320Y017415D01*
X017078Y017415D01*
X016854Y017508D01*
X016824Y017537D01*
X016824Y016238D01*
X016904Y016238D01*
X017251Y016094D01*
X017516Y015829D01*
X017660Y015482D01*
X017660Y015107D01*
X017516Y014760D01*
X017251Y014495D01*
X016904Y014352D01*
X016529Y014352D01*
X016183Y014495D01*
X015917Y014760D01*
X015774Y015107D01*
X015774Y015482D01*
X015917Y015829D01*
X016183Y016094D01*
X016234Y016115D01*
X016199Y016150D01*
X012199Y016150D01*
X010699Y017650D01*
X010449Y020275D01*
X010449Y024385D01*
X010369Y024352D01*
X009994Y024352D01*
X009647Y024495D01*
X009382Y024760D01*
X009238Y025107D01*
X009238Y025482D01*
X009360Y025775D01*
X007539Y025775D01*
X007660Y025482D01*
X007660Y025107D01*
X007516Y024760D01*
X007251Y024495D01*
X006904Y024352D01*
X006529Y024352D01*
X006183Y024495D01*
X005917Y024760D01*
X005882Y024845D01*
X005812Y024775D01*
X005966Y024621D01*
X006059Y024396D01*
X006059Y024154D01*
X005966Y023929D01*
X005812Y023775D01*
X005966Y023621D01*
X006059Y023396D01*
X006059Y023154D01*
X005966Y022929D01*
X005812Y022775D01*
X005966Y022621D01*
X006059Y022396D01*
X006059Y022154D01*
X005966Y021929D01*
X005812Y021775D01*
X005966Y021621D01*
X006059Y021396D01*
X006059Y021154D01*
X005966Y020929D01*
X005812Y020775D01*
X005966Y020621D01*
X006059Y020396D01*
X006059Y020154D01*
X005966Y019929D01*
X005812Y019775D01*
X005966Y019621D01*
X006004Y019529D01*
X006018Y019563D01*
X006161Y019706D01*
X006348Y019783D01*
X006550Y019783D01*
X006737Y019706D01*
X006880Y019563D01*
X006957Y019376D01*
X006957Y019174D01*
X006880Y018987D01*
X006737Y018844D01*
X006550Y018767D01*
X006348Y018767D01*
X006161Y018844D01*
X006018Y018987D01*
X006004Y019021D01*
X005966Y018929D01*
X005812Y018775D01*
X005966Y018621D01*
X006059Y018396D01*
X006059Y018154D01*
X005966Y017929D01*
X005812Y017775D01*
X005966Y017621D01*
X006059Y017396D01*
X006059Y017154D01*
X005966Y016929D01*
X005812Y016775D01*
X005966Y016621D01*
X006059Y016396D01*
X006059Y016154D01*
X005966Y015929D01*
X005812Y015775D01*
X005871Y015716D01*
X005917Y015829D01*
X006183Y016094D01*
X006529Y016238D01*
X006904Y016238D01*
X007251Y016094D01*
X007516Y015829D01*
X007660Y015482D01*
X007660Y015107D01*
X007516Y014760D01*
X007251Y014495D01*
X006904Y014352D01*
X006529Y014352D01*
X006183Y014495D01*
X005917Y014760D01*
X005882Y014845D01*
X005812Y014775D01*
X005966Y014621D01*
X006059Y014396D01*
X006059Y014154D01*
X005966Y013929D01*
X005812Y013775D01*
X005966Y013621D01*
X006059Y013396D01*
X006059Y013154D01*
X005966Y012929D01*
X005812Y012775D01*
X005966Y012621D01*
X006059Y012396D01*
X006059Y012154D01*
X005966Y011929D01*
X005795Y011758D01*
X005570Y011665D01*
X005328Y011665D01*
X005104Y011758D01*
X004949Y011912D01*
X004795Y011758D01*
X004570Y011665D01*
X004328Y011665D01*
X004104Y011758D01*
X003949Y011912D01*
X003795Y011758D01*
X003570Y011665D01*
X003328Y011665D01*
X003104Y011758D01*
X002949Y011912D01*
X002795Y011758D01*
X002570Y011665D01*
X002328Y011665D01*
X002104Y011758D01*
X001932Y011929D01*
X001839Y012154D01*
X001839Y012396D01*
X001932Y012621D01*
X002086Y012775D01*
X001932Y012929D01*
X001839Y013154D01*
X001839Y013396D01*
X001932Y013621D01*
X002086Y013775D01*
X001932Y013929D01*
X001839Y014154D01*
X001839Y014396D01*
X001932Y014621D01*
X002086Y014775D01*
X001932Y014929D01*
X001839Y015154D01*
X001839Y015396D01*
X001932Y015621D01*
X002086Y015775D01*
X001932Y015929D01*
X001839Y016154D01*
X001839Y016396D01*
X001932Y016621D01*
X002104Y016792D01*
X002140Y016807D01*
X002084Y016848D01*
X002022Y016910D01*
X001970Y016981D01*
X001930Y017060D01*
X001903Y017144D01*
X001889Y017231D01*
X001889Y017275D01*
X002449Y017275D01*
X002449Y017275D01*
X001889Y017275D01*
X001889Y017319D01*
X001903Y017406D01*
X001930Y017490D01*
X001970Y017569D01*
X002022Y017640D01*
X002084Y017702D01*
X002140Y017743D01*
X002104Y017758D01*
X001932Y017929D01*
X001839Y018154D01*
X001839Y018396D01*
X001932Y018621D01*
X002086Y018775D01*
X001932Y018929D01*
X001839Y019154D01*
X001839Y019396D01*
X001932Y019621D01*
X002086Y019775D01*
X001932Y019929D01*
X001839Y020154D01*
X001839Y020396D01*
X001932Y020621D01*
X002086Y020775D01*
X001932Y020929D01*
X001839Y021154D01*
X001839Y021396D01*
X001932Y021621D01*
X002086Y021775D01*
X001932Y021929D01*
X001839Y022154D01*
X001839Y022396D01*
X001932Y022621D01*
X002086Y022775D01*
X001932Y022929D01*
X001839Y023154D01*
X001839Y023396D01*
X001932Y023621D01*
X002086Y023775D01*
X001932Y023929D01*
X001839Y024154D01*
X001839Y024396D01*
X001932Y024621D01*
X002086Y024775D01*
X001932Y024929D01*
X001839Y025154D01*
X001839Y025396D01*
X001932Y025621D01*
X002086Y025775D01*
X001309Y025775D01*
X001309Y010931D01*
X001377Y010999D01*
X001596Y011090D01*
X001833Y011090D01*
X002053Y010999D01*
X002207Y010845D01*
X002361Y010999D01*
X002580Y011090D01*
X002818Y011090D01*
X003037Y010999D01*
X003205Y010831D01*
X003295Y010612D01*
X003295Y010375D01*
X003205Y010156D01*
X003037Y009988D01*
X002818Y009897D01*
X002580Y009897D01*
X002361Y009988D01*
X002207Y010142D01*
X002053Y009988D01*
X001833Y009897D01*
X001596Y009897D01*
X001377Y009988D01*
X001309Y010056D01*
X001309Y006994D01*
X001377Y007062D01*
X001596Y007153D01*
X001833Y007153D01*
X002053Y007062D01*
X002207Y006908D01*
X002361Y007062D01*
X002580Y007153D01*
X002818Y007153D01*
X003037Y007062D01*
X003205Y006894D01*
X003295Y006675D01*
X003295Y006438D01*
X003205Y006219D01*
X003037Y006051D01*
X002818Y005960D01*
X002580Y005960D01*
X002361Y006051D01*
X002207Y006205D01*
X002053Y006051D01*
X001833Y005960D01*
X001596Y005960D01*
X001377Y006051D01*
X001309Y006119D01*
X001309Y005431D01*
X001377Y005499D01*
X001596Y005590D01*
X001833Y005590D01*
X002053Y005499D01*
X002207Y005345D01*
X002361Y005499D01*
X002580Y005590D01*
X002818Y005590D01*
X003037Y005499D01*
X003205Y005331D01*
X003295Y005112D01*
X003295Y004875D01*
X003205Y004656D01*
X003037Y004488D01*
X002818Y004397D01*
X002580Y004397D01*
X002361Y004488D01*
X002207Y004642D01*
X002053Y004488D01*
X001833Y004397D01*
X001596Y004397D01*
X001377Y004488D01*
X001309Y004556D01*
X001309Y004291D02*
X004033Y004291D01*
X004076Y004609D02*
X003158Y004609D01*
X003295Y004928D02*
X003974Y004928D01*
X004021Y005246D02*
X003240Y005246D01*
X002879Y005565D02*
X004257Y005565D01*
X004480Y005883D02*
X001309Y005883D01*
X001309Y005565D02*
X001535Y005565D01*
X001894Y005565D02*
X002520Y005565D01*
X002211Y006202D02*
X002203Y006202D01*
X003187Y006202D02*
X004064Y006202D01*
X004079Y006163D02*
X004275Y005968D01*
X004530Y005863D01*
X004806Y005863D01*
X005061Y005968D01*
X005256Y006163D01*
X005361Y006418D01*
X005361Y006695D01*
X005256Y006950D01*
X005157Y007049D01*
X005256Y007148D01*
X005361Y007403D01*
X005361Y007679D01*
X005256Y007934D01*
X005088Y008102D01*
X005173Y008187D01*
X005264Y008406D01*
X005264Y008644D01*
X005173Y008863D01*
X005088Y008948D01*
X005256Y009116D01*
X005361Y009371D01*
X005361Y009647D01*
X005256Y009902D01*
X005157Y010001D01*
X005256Y010100D01*
X005361Y010355D01*
X005361Y010632D01*
X005256Y010887D01*
X005061Y011082D01*
X004806Y011187D01*
X004530Y011187D01*
X004275Y011082D01*
X004079Y010887D01*
X003974Y010632D01*
X003974Y010355D01*
X004079Y010100D01*
X004178Y010001D01*
X004079Y009902D01*
X003974Y009647D01*
X003974Y009371D01*
X004079Y009116D01*
X004247Y008948D01*
X004162Y008863D01*
X004071Y008644D01*
X004071Y008406D01*
X004162Y008187D01*
X004247Y008102D01*
X004079Y007934D01*
X003974Y007679D01*
X003974Y007403D01*
X004079Y007148D01*
X004178Y007049D01*
X004079Y006950D01*
X003974Y006695D01*
X003974Y006418D01*
X004079Y006163D01*
X003974Y006520D02*
X003295Y006520D01*
X003228Y006839D02*
X004033Y006839D01*
X004075Y007157D02*
X001309Y007157D01*
X001309Y007476D02*
X003974Y007476D01*
X004021Y007794D02*
X001309Y007794D01*
X001309Y008113D02*
X002130Y008113D01*
X002111Y008132D02*
X002306Y007937D01*
X002561Y007831D01*
X002837Y007831D01*
X003092Y007937D01*
X003287Y008132D01*
X003393Y008387D01*
X003393Y008663D01*
X003287Y008918D01*
X003092Y009113D01*
X002837Y009219D01*
X002561Y009219D01*
X002306Y009113D01*
X002111Y008918D01*
X002005Y008663D01*
X002005Y008387D01*
X002111Y008132D01*
X002005Y008431D02*
X001309Y008431D01*
X001309Y008750D02*
X002041Y008750D01*
X002261Y009068D02*
X001309Y009068D01*
X001309Y009387D02*
X003974Y009387D01*
X003998Y009705D02*
X001309Y009705D01*
X001309Y010024D02*
X001342Y010024D01*
X002088Y010024D02*
X002326Y010024D01*
X003072Y010024D02*
X004156Y010024D01*
X003979Y010342D02*
X003282Y010342D01*
X003275Y010661D02*
X003986Y010661D01*
X004172Y010979D02*
X003057Y010979D01*
X002341Y010979D02*
X002072Y010979D01*
X001357Y010979D02*
X001309Y010979D01*
X001309Y011298D02*
X005960Y011298D01*
X005941Y011251D02*
X005941Y011049D01*
X006018Y010862D01*
X006161Y010719D01*
X006348Y010642D01*
X006550Y010642D01*
X006737Y010719D01*
X006880Y010862D01*
X006957Y011049D01*
X006957Y011251D01*
X006880Y011438D01*
X006737Y011581D01*
X006550Y011658D01*
X006348Y011658D01*
X006161Y011581D01*
X006018Y011438D01*
X005941Y011251D01*
X005970Y010979D02*
X005163Y010979D01*
X005349Y010661D02*
X006303Y010661D01*
X006595Y010661D02*
X022326Y010661D01*
X022307Y010679D02*
X022461Y010525D01*
X022307Y010371D01*
X022214Y010146D01*
X022214Y009904D01*
X022307Y009679D01*
X022479Y009508D01*
X022703Y009415D01*
X022945Y009415D01*
X023170Y009508D01*
X023341Y009679D01*
X023434Y009904D01*
X023434Y010146D01*
X023341Y010371D01*
X023187Y010525D01*
X023341Y010679D01*
X023434Y010904D01*
X023434Y011146D01*
X023341Y011371D01*
X023170Y011542D01*
X023133Y011557D01*
X023189Y011598D01*
X023251Y011660D01*
X023303Y011731D01*
X023343Y011810D01*
X023370Y011894D01*
X023384Y011981D01*
X023384Y012025D01*
X023384Y012069D01*
X023370Y012156D01*
X023343Y012240D01*
X023303Y012319D01*
X023251Y012390D01*
X023189Y012452D01*
X023118Y012504D01*
X023039Y012544D01*
X022955Y012571D01*
X022868Y012585D01*
X022824Y012585D01*
X022780Y012585D01*
X022693Y012571D01*
X022609Y012544D01*
X022531Y012504D01*
X022459Y012452D01*
X022397Y012390D01*
X022345Y012319D01*
X022305Y012240D01*
X022278Y012156D01*
X022264Y012069D01*
X022264Y012025D01*
X022264Y011981D01*
X022278Y011894D01*
X022305Y011810D01*
X022345Y011731D01*
X022397Y011660D01*
X022459Y011598D01*
X022515Y011557D01*
X022479Y011542D01*
X022307Y011371D01*
X022214Y011146D01*
X022214Y010904D01*
X022307Y010679D01*
X022214Y010979D02*
X018943Y010979D01*
X018932Y010952D02*
X019019Y011162D01*
X019019Y011388D01*
X018932Y011598D01*
X018772Y011758D01*
X018562Y011845D01*
X018336Y011845D01*
X018126Y011758D01*
X017966Y011598D01*
X017922Y011492D01*
X017894Y011548D01*
X017846Y011614D01*
X017788Y011672D01*
X017722Y011720D01*
X017649Y011757D01*
X017571Y011782D01*
X017490Y011795D01*
X017449Y011795D01*
X017408Y011795D01*
X017327Y011782D01*
X017249Y011757D01*
X017177Y011720D01*
X017110Y011672D01*
X017052Y011614D01*
X017004Y011548D01*
X016967Y011475D01*
X016942Y011397D01*
X016929Y011316D01*
X016929Y011275D01*
X016929Y011234D01*
X016942Y011153D01*
X016967Y011075D01*
X017004Y011002D01*
X017052Y010936D01*
X017110Y010878D01*
X017177Y010830D01*
X017249Y010793D01*
X017327Y010768D01*
X017408Y010755D01*
X017449Y010755D01*
X017449Y011275D01*
X016929Y011275D01*
X017449Y011275D01*
X017449Y011275D01*
X017449Y011795D01*
X017449Y011275D01*
X017449Y011275D01*
X017449Y011275D01*
X017449Y010755D01*
X017490Y010755D01*
X017571Y010768D01*
X017649Y010793D01*
X017722Y010830D01*
X017788Y010878D01*
X017846Y010936D01*
X017894Y011002D01*
X017922Y011058D01*
X017966Y010952D01*
X018126Y010792D01*
X018336Y010705D01*
X018562Y010705D01*
X018772Y010792D01*
X018932Y010952D01*
X019019Y011298D02*
X022277Y011298D01*
X022441Y011616D02*
X018914Y011616D01*
X018793Y012024D02*
X018570Y011932D01*
X018328Y011932D01*
X018105Y012024D01*
X017935Y012195D01*
X017923Y012222D01*
X017890Y012176D01*
X017828Y012114D01*
X017757Y012063D01*
X017679Y012023D01*
X017595Y011996D01*
X017509Y011982D01*
X017465Y011982D01*
X017465Y012539D01*
X017465Y012539D01*
X017465Y013096D01*
X017509Y013096D01*
X017595Y013082D01*
X017679Y013055D01*
X017757Y013015D01*
X017828Y012964D01*
X017890Y012902D01*
X017923Y012855D01*
X017935Y012883D01*
X018105Y013053D01*
X018328Y013146D01*
X018570Y013146D01*
X018793Y013053D01*
X018941Y012905D01*
X019090Y013053D01*
X019313Y013146D01*
X019554Y013146D01*
X019777Y013053D01*
X019948Y012883D01*
X020040Y012659D01*
X020040Y012418D01*
X019948Y012195D01*
X019777Y012024D01*
X019554Y011932D01*
X019313Y011932D01*
X019090Y012024D01*
X018941Y012173D01*
X018793Y012024D01*
X018576Y011935D02*
X019306Y011935D01*
X019560Y011935D02*
X022271Y011935D01*
X022264Y012025D02*
X022824Y012025D01*
X022824Y012025D01*
X022264Y012025D01*
X022312Y012253D02*
X019972Y012253D01*
X020040Y012572D02*
X022695Y012572D01*
X022824Y012572D02*
X022824Y012572D01*
X022824Y012585D02*
X022824Y012025D01*
X022824Y012585D01*
X022953Y012572D02*
X025214Y012572D01*
X025214Y012890D02*
X019940Y012890D01*
X019994Y014352D02*
X020369Y014352D01*
X020716Y014495D01*
X020981Y014760D01*
X021124Y015107D01*
X021124Y015482D01*
X020981Y015829D01*
X020716Y016094D01*
X020369Y016238D01*
X019994Y016238D01*
X019647Y016094D01*
X019382Y015829D01*
X019238Y015482D01*
X019238Y015107D01*
X019382Y014760D01*
X019647Y014495D01*
X019994Y014352D01*
X019678Y014483D02*
X017220Y014483D01*
X017533Y014801D02*
X019365Y014801D01*
X019238Y015120D02*
X017660Y015120D01*
X017660Y015438D02*
X019238Y015438D01*
X019352Y015757D02*
X017546Y015757D01*
X017270Y016075D02*
X019628Y016075D01*
X019449Y016712D02*
X016824Y016712D01*
X016824Y016394D02*
X022401Y016394D01*
X022265Y016075D02*
X020735Y016075D01*
X021011Y015757D02*
X022332Y015757D01*
X022374Y015438D02*
X021124Y015438D01*
X021124Y015120D02*
X022214Y015120D01*
X022257Y014801D02*
X020998Y014801D01*
X020685Y014483D02*
X022419Y014483D01*
X022221Y014164D02*
X014318Y014164D01*
X014314Y014167D02*
X014250Y014200D01*
X014181Y014222D01*
X014110Y014233D01*
X014074Y014233D01*
X014038Y014233D01*
X013967Y014222D01*
X013898Y014200D01*
X013834Y014167D01*
X013776Y014124D01*
X013725Y014073D01*
X013682Y014015D01*
X013650Y013951D01*
X013627Y013882D01*
X013616Y013811D01*
X013616Y013775D01*
X013616Y013739D01*
X013627Y013668D01*
X013650Y013599D01*
X013682Y013535D01*
X013725Y013477D01*
X013776Y013426D01*
X013834Y013383D01*
X013898Y013350D01*
X013967Y013328D01*
X014038Y013317D01*
X014074Y013317D01*
X014074Y013775D01*
X013616Y013775D01*
X014074Y013775D01*
X014074Y013775D01*
X014074Y013775D01*
X014074Y014233D01*
X014074Y013775D01*
X014074Y013775D01*
X014074Y013317D01*
X014110Y013317D01*
X014181Y013328D01*
X014250Y013350D01*
X014314Y013383D01*
X014372Y013426D01*
X014423Y013477D01*
X014466Y013535D01*
X014499Y013599D01*
X014521Y013668D01*
X014532Y013739D01*
X014532Y013775D01*
X014532Y013811D01*
X014521Y013882D01*
X014499Y013951D01*
X014466Y014015D01*
X014423Y014073D01*
X014372Y014124D01*
X014314Y014167D01*
X014074Y014164D02*
X014074Y014164D01*
X013830Y014164D02*
X012198Y014164D01*
X012272Y014133D02*
X012062Y014220D01*
X011836Y014220D01*
X011626Y014133D01*
X011466Y013973D01*
X011422Y013867D01*
X011394Y013923D01*
X011346Y013989D01*
X011288Y014047D01*
X011222Y014095D01*
X011149Y014132D01*
X011071Y014157D01*
X010990Y014170D01*
X010949Y014170D01*
X010908Y014170D01*
X010827Y014157D01*
X010749Y014132D01*
X010677Y014095D01*
X010610Y014047D01*
X010552Y013989D01*
X010504Y013923D01*
X010467Y013850D01*
X010442Y013772D01*
X010429Y013691D01*
X010429Y013650D01*
X010429Y013609D01*
X010442Y013528D01*
X010467Y013450D01*
X010504Y013377D01*
X010552Y013311D01*
X010610Y013253D01*
X010677Y013205D01*
X010749Y013168D01*
X010827Y013143D01*
X010908Y013130D01*
X010949Y013130D01*
X010949Y013650D01*
X010429Y013650D01*
X010949Y013650D01*
X010949Y013650D01*
X010949Y014170D01*
X010949Y013650D01*
X010949Y013650D01*
X010949Y013650D01*
X010949Y013130D01*
X010990Y013130D01*
X011071Y013143D01*
X011149Y013168D01*
X011222Y013205D01*
X011288Y013253D01*
X011346Y013311D01*
X011394Y013377D01*
X011422Y013433D01*
X011466Y013327D01*
X011626Y013167D01*
X011836Y013080D01*
X012062Y013080D01*
X012272Y013167D01*
X012432Y013327D01*
X012519Y013537D01*
X012519Y013763D01*
X012432Y013973D01*
X012272Y014133D01*
X012485Y013846D02*
X013621Y013846D01*
X013688Y013527D02*
X012515Y013527D01*
X012314Y013209D02*
X015812Y013209D01*
X015786Y013219D02*
X015973Y013142D01*
X016175Y013142D01*
X016362Y013219D01*
X016505Y013362D01*
X016582Y013549D01*
X016582Y013751D01*
X016505Y013938D01*
X016362Y014081D01*
X016175Y014158D01*
X015973Y014158D01*
X015786Y014081D01*
X015643Y013938D01*
X015566Y013751D01*
X015566Y013549D01*
X015643Y013362D01*
X015786Y013219D01*
X015575Y013527D02*
X014460Y013527D01*
X014532Y013775D02*
X014074Y013775D01*
X014532Y013775D01*
X014527Y013846D02*
X015605Y013846D01*
X016213Y014483D02*
X014125Y014483D01*
X014112Y014469D02*
X014255Y014612D01*
X014332Y014799D01*
X014332Y015001D01*
X014304Y015070D01*
X014362Y015094D01*
X014505Y015237D01*
X014582Y015424D01*
X014582Y015626D01*
X014505Y015813D01*
X014362Y015956D01*
X014175Y016033D01*
X013973Y016033D01*
X013786Y015956D01*
X013643Y015813D01*
X013566Y015626D01*
X013566Y015424D01*
X013595Y015355D01*
X013536Y015331D01*
X013393Y015188D01*
X013316Y015001D01*
X013316Y014799D01*
X013393Y014612D01*
X013536Y014469D01*
X013723Y014392D01*
X013925Y014392D01*
X014112Y014469D01*
X014332Y014801D02*
X015900Y014801D01*
X015774Y015120D02*
X014387Y015120D01*
X014582Y015438D02*
X015774Y015438D01*
X015887Y015757D02*
X014528Y015757D01*
X013620Y015757D02*
X011011Y015757D01*
X010981Y015829D02*
X011124Y015482D01*
X011124Y015107D01*
X010981Y014760D01*
X010716Y014495D01*
X010369Y014352D01*
X009994Y014352D01*
X009647Y014495D01*
X009382Y014760D01*
X009238Y015107D01*
X009238Y015482D01*
X009382Y015829D01*
X009647Y016094D01*
X009994Y016238D01*
X010369Y016238D01*
X010716Y016094D01*
X010981Y015829D01*
X010735Y016075D02*
X016163Y016075D01*
X016199Y017102D02*
X016197Y017108D01*
X016032Y017273D01*
X015816Y017362D01*
X015582Y017362D01*
X015366Y017273D01*
X015201Y017108D01*
X015112Y016892D01*
X015112Y016658D01*
X015115Y016650D01*
X013283Y016650D01*
X013286Y016658D01*
X013286Y016892D01*
X013197Y017108D01*
X013032Y017273D01*
X012816Y017362D01*
X012582Y017362D01*
X012366Y017273D01*
X012201Y017108D01*
X012159Y017005D01*
X011472Y017844D01*
X011647Y017917D01*
X011807Y018077D01*
X011894Y018287D01*
X011894Y018513D01*
X011807Y018723D01*
X011647Y018883D01*
X011437Y018970D01*
X011281Y018970D01*
X011242Y019830D01*
X011437Y019830D01*
X011647Y019917D01*
X011807Y020077D01*
X011894Y020287D01*
X011894Y020513D01*
X011807Y020723D01*
X011647Y020883D01*
X011437Y020970D01*
X011211Y020970D01*
X011199Y020965D01*
X011199Y024219D01*
X011251Y024167D01*
X011461Y024080D01*
X011687Y024080D01*
X011897Y024167D01*
X012057Y024327D01*
X012101Y024433D01*
X012129Y024377D01*
X012177Y024311D01*
X012235Y024253D01*
X012302Y024205D01*
X012374Y024168D01*
X012452Y024143D01*
X012533Y024130D01*
X012574Y024130D01*
X012574Y024650D01*
X012574Y025170D01*
X012533Y025170D01*
X012452Y025157D01*
X012374Y025132D01*
X012302Y025095D01*
X012235Y025047D01*
X012177Y024989D01*
X012129Y024923D01*
X012101Y024867D01*
X012057Y024973D01*
X011897Y025133D01*
X011687Y025220D01*
X011461Y025220D01*
X011251Y025133D01*
X011199Y025081D01*
X011199Y025594D01*
X011251Y025542D01*
X011461Y025455D01*
X011687Y025455D01*
X011897Y025542D01*
X012057Y025702D01*
X012144Y025912D01*
X012144Y026138D01*
X012057Y026348D01*
X011897Y026508D01*
X011856Y026525D01*
X011897Y026542D01*
X012057Y026702D01*
X012144Y026912D01*
X012144Y027138D01*
X012057Y027348D01*
X011897Y027508D01*
X011687Y027595D01*
X011461Y027595D01*
X011251Y027508D01*
X011091Y027348D01*
X011004Y027138D01*
X011004Y026912D01*
X011091Y026702D01*
X011251Y026542D01*
X011292Y026525D01*
X011251Y026508D01*
X011143Y026400D01*
X006058Y026400D01*
X005966Y026621D01*
X005795Y026792D01*
X005570Y026885D01*
X005328Y026885D01*
X005104Y026792D01*
X004949Y026638D01*
X004795Y026792D01*
X004570Y026885D01*
X004328Y026885D01*
X004104Y026792D01*
X003949Y026638D01*
X003795Y026792D01*
X003570Y026885D01*
X003328Y026885D01*
X003104Y026792D01*
X002949Y026638D01*
X002795Y026792D01*
X002570Y026885D01*
X002328Y026885D01*
X002104Y026792D01*
X001932Y026621D01*
X001841Y026400D01*
X001309Y026400D01*
X001309Y033540D01*
X009491Y033540D01*
X009279Y033452D01*
X009107Y033281D01*
X009014Y033056D01*
X009014Y032814D01*
X009107Y032589D01*
X009279Y032418D01*
X009503Y032325D01*
X009745Y032325D01*
X009970Y032418D01*
X010141Y032589D01*
X010156Y032626D01*
X010197Y032570D01*
X010259Y032508D01*
X010331Y032456D01*
X010409Y032416D01*
X010493Y032389D01*
X010580Y032375D01*
X010624Y032375D01*
X010624Y032935D01*
X010624Y032935D01*
X010624Y033495D01*
X010580Y033495D01*
X010493Y033481D01*
X010409Y033454D01*
X010331Y033414D01*
X010259Y033362D01*
X010197Y033300D01*
X010156Y033244D01*
X010141Y033281D01*
X009970Y033452D01*
X009757Y033540D01*
X011491Y033540D01*
X011279Y033452D01*
X011107Y033281D01*
X011092Y033244D01*
X011051Y033300D01*
X010989Y033362D01*
X010918Y033414D01*
X010839Y033454D01*
X010755Y033481D01*
X010668Y033495D01*
X010624Y033495D01*
X010624Y032935D01*
X010624Y032935D01*
X010624Y032375D01*
X010668Y032375D01*
X010755Y032389D01*
X010839Y032416D01*
X010918Y032456D01*
X010989Y032508D01*
X011051Y032570D01*
X011092Y032626D01*
X011107Y032589D01*
X011279Y032418D01*
X011503Y032325D01*
X011745Y032325D01*
X011970Y032418D01*
X012124Y032572D01*
X012279Y032418D01*
X012503Y032325D01*
X012745Y032325D01*
X012959Y032414D01*
X012959Y032307D01*
X013046Y032097D01*
X013206Y031937D01*
X013416Y031850D01*
X013642Y031850D01*
X013852Y031937D01*
X014012Y032097D01*
X014099Y032307D01*
X014099Y032533D01*
X014012Y032743D01*
X013852Y032903D01*
X013811Y032920D01*
X013852Y032937D01*
X013897Y032982D01*
X013961Y032827D01*
X014121Y032667D01*
X014331Y032580D01*
X014557Y032580D01*
X014767Y032667D01*
X014927Y032827D01*
X014971Y032933D01*
X014999Y032877D01*
X015047Y032811D01*
X015105Y032753D01*
X015172Y032705D01*
X015244Y032668D01*
X015322Y032643D01*
X015403Y032630D01*
X015444Y032630D01*
X015444Y033150D01*
X015444Y033150D01*
X015444Y032630D01*
X015485Y032630D01*
X015566Y032643D01*
X015644Y032668D01*
X015717Y032705D01*
X015783Y032753D01*
X015841Y032811D01*
X015884Y032871D01*
X015927Y032811D01*
X015985Y032753D01*
X016052Y032705D01*
X016124Y032668D01*
X016202Y032643D01*
X016283Y032630D01*
X016324Y032630D01*
X016324Y033150D01*
X015804Y033150D01*
X015444Y033150D01*
X016324Y033150D01*
X016324Y033150D01*
X016324Y033150D01*
X016324Y032630D01*
X016365Y032630D01*
X016446Y032643D01*
X016524Y032668D01*
X016597Y032705D01*
X016663Y032753D01*
X016721Y032811D01*
X016769Y032877D01*
X016797Y032933D01*
X016841Y032827D01*
X017001Y032667D01*
X017211Y032580D01*
X017437Y032580D01*
X017647Y032667D01*
X017762Y032781D01*
X017876Y032667D01*
X018086Y032580D01*
X018312Y032580D01*
X018522Y032667D01*
X018682Y032827D01*
X018699Y032868D01*
X018716Y032827D01*
X018876Y032667D01*
X019086Y032580D01*
X019312Y032580D01*
X019522Y032667D01*
X019682Y032827D01*
X019769Y033037D01*
X019769Y033263D01*
X019682Y033473D01*
X019615Y033540D01*
X025214Y033540D01*
X025214Y030844D01*
X025211Y030846D01*
X025122Y030902D01*
X025028Y030947D01*
X024930Y030982D01*
X024828Y031005D01*
X024747Y031014D01*
X024747Y030162D01*
X024598Y030162D01*
X024598Y030014D01*
X023746Y030014D01*
X023756Y029932D01*
X023779Y029831D01*
X023813Y029732D01*
X023859Y029638D01*
X023914Y029550D01*
X023979Y029468D01*
X024053Y029395D01*
X024134Y029330D01*
X024223Y029274D01*
X024317Y029229D01*
X024415Y029194D01*
X024517Y029171D01*
X024598Y029162D01*
X024598Y030014D01*
X024747Y030014D01*
X024747Y029162D01*
X024828Y029171D01*
X024930Y029194D01*
X025028Y029229D01*
X025122Y029274D01*
X025211Y029330D01*
X025214Y029332D01*
X025214Y028373D01*
X025045Y028542D01*
X024820Y028635D01*
X024578Y028635D01*
X024354Y028542D01*
X024182Y028371D01*
X024167Y028334D01*
X024126Y028390D01*
X024064Y028452D01*
X023993Y028504D01*
X023914Y028544D01*
X023830Y028571D01*
X023785Y028578D01*
X023815Y028600D01*
X023877Y028662D01*
X023928Y028733D01*
X023968Y028811D01*
X023995Y028895D01*
X024009Y028981D01*
X024009Y029025D01*
X024009Y029069D01*
X023995Y029155D01*
X023968Y029239D01*
X023928Y029317D01*
X023877Y029388D01*
X023815Y029450D01*
X023744Y029501D01*
X023666Y029541D01*
X023582Y029568D01*
X023496Y029582D01*
X023452Y029582D01*
X023408Y029582D01*
X023322Y029568D01*
X023238Y029541D01*
X023160Y029501D01*
X023089Y029450D01*
X023027Y029388D01*
X022994Y029341D01*
X022982Y029369D01*
X022812Y029539D01*
X022588Y029632D01*
X022347Y029632D01*
X022124Y029539D01*
X022074Y029490D01*
X022024Y029539D01*
X021801Y029632D01*
X021560Y029632D01*
X021337Y029539D01*
X021188Y029391D01*
X021040Y029539D01*
X020817Y029632D01*
X020575Y029632D01*
X020352Y029539D01*
X020182Y029369D01*
X020089Y029146D01*
X020089Y028904D01*
X020182Y028681D01*
X020337Y028526D01*
X020199Y028388D01*
X020045Y028542D01*
X019820Y028635D01*
X019578Y028635D01*
X019354Y028542D01*
X019182Y028371D01*
X019089Y028146D01*
X019089Y027904D01*
X019182Y027679D01*
X019354Y027508D01*
X019578Y027415D01*
X019820Y027415D01*
X020045Y027508D01*
X020199Y027662D01*
X020354Y027508D01*
X020475Y027458D01*
X020441Y027376D01*
X020441Y027174D01*
X020518Y026987D01*
X020661Y026844D01*
X020848Y026767D01*
X021050Y026767D01*
X021237Y026844D01*
X021380Y026987D01*
X021457Y027174D01*
X021457Y027376D01*
X021413Y027483D01*
X021578Y027415D01*
X021820Y027415D01*
X022045Y027508D01*
X022199Y027662D01*
X022353Y027508D01*
X022306Y027488D01*
X022111Y027293D01*
X022005Y027038D01*
X022005Y026762D01*
X022111Y026507D01*
X022306Y026312D01*
X022512Y026226D01*
X022369Y026167D01*
X022198Y025996D01*
X022105Y025771D01*
X022105Y025529D01*
X022198Y025304D01*
X022369Y025133D01*
X022512Y025074D01*
X022306Y024988D01*
X022111Y024793D01*
X022005Y024538D01*
X022005Y024262D01*
X022111Y024007D01*
X022280Y023837D01*
X022111Y023668D01*
X022005Y023413D01*
X022005Y023137D01*
X022111Y022882D01*
X022306Y022687D01*
X022512Y022601D01*
X022369Y022542D01*
X022198Y022371D01*
X022105Y022146D01*
X022105Y021904D01*
X022198Y021679D01*
X022369Y021508D01*
X022512Y021449D01*
X022306Y021363D01*
X022111Y021168D01*
X022005Y020913D01*
X022005Y020637D01*
X022111Y020382D01*
X022280Y020213D01*
X022111Y020043D01*
X022005Y019788D01*
X022005Y019512D01*
X022111Y019257D01*
X022306Y019062D01*
X022512Y018976D01*
X022369Y018917D01*
X022198Y018746D01*
X022105Y018521D01*
X022105Y018279D01*
X022198Y018054D01*
X022369Y017883D01*
X022512Y017824D01*
X022306Y017738D01*
X022111Y017543D01*
X022005Y017288D01*
X022005Y017071D01*
X019949Y017025D01*
X019949Y017718D01*
X020078Y017665D01*
X020320Y017665D01*
X020545Y017758D01*
X020716Y017929D01*
X020731Y017966D01*
X020772Y017910D01*
X020834Y017848D01*
X020906Y017796D01*
X020984Y017756D01*
X021068Y017729D01*
X021155Y017715D01*
X021199Y017715D01*
X021199Y018275D01*
X021199Y018275D01*
X021199Y018835D01*
X021199Y019275D01*
X021199Y019275D01*
X021199Y020275D01*
X020639Y020275D01*
X020639Y020231D01*
X020653Y020144D01*
X020680Y020060D01*
X020720Y019981D01*
X020772Y019910D01*
X020834Y019848D01*
X020906Y019796D01*
X020947Y019775D01*
X020906Y019754D01*
X020834Y019702D01*
X020772Y019640D01*
X020731Y019584D01*
X020716Y019621D01*
X020545Y019792D01*
X020320Y019885D01*
X020129Y019885D01*
X020449Y020525D01*
X021199Y021900D01*
X021199Y026150D01*
X020581Y026150D01*
X020369Y026238D01*
X019994Y026238D01*
X019782Y026150D01*
X018070Y026150D01*
X018050Y026158D01*
X017848Y026158D01*
X017828Y026150D01*
X017116Y026150D01*
X016904Y026238D01*
X016529Y026238D01*
X016317Y026150D01*
X016199Y026150D01*
X016199Y026101D01*
X016183Y026094D01*
X015917Y025829D01*
X015774Y025482D01*
X015774Y025107D01*
X015917Y024760D01*
X016183Y024495D01*
X016199Y024488D01*
X016199Y017102D01*
X016199Y017349D02*
X015848Y017349D01*
X015772Y017542D02*
X015932Y017702D01*
X016019Y017912D01*
X016019Y018138D01*
X015932Y018348D01*
X015772Y018508D01*
X015562Y018595D01*
X015336Y018595D01*
X015126Y018508D01*
X014966Y018348D01*
X014949Y018307D01*
X014932Y018348D01*
X014772Y018508D01*
X014562Y018595D01*
X014336Y018595D01*
X014126Y018508D01*
X013966Y018348D01*
X013949Y018307D01*
X013932Y018348D01*
X013772Y018508D01*
X013562Y018595D01*
X013336Y018595D01*
X013126Y018508D01*
X012966Y018348D01*
X012949Y018307D01*
X012932Y018348D01*
X012772Y018508D01*
X012562Y018595D01*
X012336Y018595D01*
X012126Y018508D01*
X011966Y018348D01*
X011879Y018138D01*
X011879Y017912D01*
X011966Y017702D01*
X012126Y017542D01*
X012336Y017455D01*
X012562Y017455D01*
X012772Y017542D01*
X012932Y017702D01*
X012949Y017743D01*
X012966Y017702D01*
X013126Y017542D01*
X013336Y017455D01*
X013562Y017455D01*
X013772Y017542D01*
X013932Y017702D01*
X013949Y017743D01*
X013966Y017702D01*
X014126Y017542D01*
X014336Y017455D01*
X014562Y017455D01*
X014772Y017542D01*
X014932Y017702D01*
X014949Y017743D01*
X014966Y017702D01*
X015126Y017542D01*
X015336Y017455D01*
X015562Y017455D01*
X015772Y017542D01*
X015898Y017668D02*
X016199Y017668D01*
X016199Y017986D02*
X016019Y017986D01*
X015950Y018305D02*
X016199Y018305D01*
X016199Y018623D02*
X011849Y018623D01*
X011894Y018305D02*
X011948Y018305D01*
X011879Y017986D02*
X011716Y017986D01*
X011617Y017668D02*
X012000Y017668D01*
X011877Y017349D02*
X012551Y017349D01*
X012848Y017349D02*
X015551Y017349D01*
X015169Y017031D02*
X013229Y017031D01*
X013286Y016712D02*
X015112Y016712D01*
X015000Y017668D02*
X014898Y017668D01*
X014000Y017668D02*
X013898Y017668D01*
X013000Y017668D02*
X012898Y017668D01*
X012169Y017031D02*
X012138Y017031D01*
X011637Y016712D02*
X005875Y016712D01*
X006008Y017031D02*
X011319Y017031D01*
X011000Y017349D02*
X006059Y017349D01*
X005919Y017668D02*
X010697Y017668D01*
X010667Y017986D02*
X007629Y017986D01*
X007630Y017987D02*
X007707Y018174D01*
X007707Y018376D01*
X007630Y018563D01*
X007487Y018706D01*
X007300Y018783D01*
X007098Y018783D01*
X006911Y018706D01*
X006768Y018563D01*
X006691Y018376D01*
X006691Y018174D01*
X006768Y017987D01*
X006911Y017844D01*
X007098Y017767D01*
X007300Y017767D01*
X007487Y017844D01*
X007630Y017987D01*
X007707Y018305D02*
X010637Y018305D01*
X010606Y018623D02*
X007570Y018623D01*
X006957Y019260D02*
X010546Y019260D01*
X010576Y018942D02*
X006834Y018942D01*
X006828Y018623D02*
X005964Y018623D01*
X005971Y018942D02*
X006064Y018942D01*
X006034Y019579D02*
X005984Y019579D01*
X005934Y019897D02*
X010485Y019897D01*
X010515Y019579D02*
X006864Y019579D01*
X006059Y020216D02*
X010455Y020216D01*
X010449Y020534D02*
X006002Y020534D01*
X005889Y020853D02*
X007146Y020853D01*
X007177Y020830D02*
X007249Y020793D01*
X007327Y020768D01*
X007408Y020755D01*
X007449Y020755D01*
X007449Y021275D01*
X006929Y021275D01*
X006929Y021234D01*
X006942Y021153D01*
X006967Y021075D01*
X007004Y021002D01*
X007052Y020936D01*
X007110Y020878D01*
X007177Y020830D01*
X007449Y020853D02*
X007449Y020853D01*
X007449Y020755D02*
X007490Y020755D01*
X007571Y020768D01*
X007649Y020793D01*
X007722Y020830D01*
X007788Y020878D01*
X007846Y020936D01*
X007894Y021002D01*
X007922Y021058D01*
X007966Y020952D01*
X008126Y020792D01*
X008336Y020705D01*
X008562Y020705D01*
X008772Y020792D01*
X008932Y020952D01*
X009019Y021162D01*
X009019Y021388D01*
X008932Y021598D01*
X008772Y021758D01*
X008562Y021845D01*
X008336Y021845D01*
X008126Y021758D01*
X007966Y021598D01*
X007922Y021492D01*
X007894Y021548D01*
X007846Y021614D01*
X007788Y021672D01*
X007722Y021720D01*
X007649Y021757D01*
X007571Y021782D01*
X007490Y021795D01*
X007449Y021795D01*
X007408Y021795D01*
X007327Y021782D01*
X007249Y021757D01*
X007177Y021720D01*
X007110Y021672D01*
X007052Y021614D01*
X007004Y021548D01*
X006967Y021475D01*
X006942Y021397D01*
X006929Y021316D01*
X006929Y021275D01*
X007449Y021275D01*
X007449Y021275D01*
X007449Y021795D01*
X007449Y021275D01*
X007449Y021275D01*
X007449Y021275D01*
X007449Y020755D01*
X007449Y021171D02*
X007449Y021171D01*
X007449Y021490D02*
X007449Y021490D01*
X006975Y021490D02*
X006020Y021490D01*
X006059Y021171D02*
X006939Y021171D01*
X007752Y020853D02*
X008065Y020853D01*
X008833Y020853D02*
X010449Y020853D01*
X010449Y021171D02*
X009019Y021171D01*
X008977Y021490D02*
X010449Y021490D01*
X010449Y021808D02*
X008652Y021808D01*
X008570Y021932D02*
X008793Y022024D01*
X008941Y022173D01*
X009090Y022024D01*
X009313Y021932D01*
X009554Y021932D01*
X009777Y022024D01*
X009948Y022195D01*
X010040Y022418D01*
X010040Y022659D01*
X009948Y022883D01*
X009777Y023053D01*
X009554Y023146D01*
X009313Y023146D01*
X009090Y023053D01*
X008941Y022905D01*
X008793Y023053D01*
X008570Y023146D01*
X008328Y023146D01*
X008105Y023053D01*
X007935Y022883D01*
X007923Y022855D01*
X007890Y022902D01*
X007828Y022964D01*
X007757Y023015D01*
X007679Y023055D01*
X007595Y023082D01*
X007509Y023096D01*
X007465Y023096D01*
X007465Y022539D01*
X007465Y022539D01*
X007465Y023096D01*
X007421Y023096D01*
X007334Y023082D01*
X007251Y023055D01*
X007173Y023015D01*
X007102Y022964D01*
X007040Y022902D01*
X006989Y022831D01*
X006949Y022753D01*
X006922Y022669D01*
X006908Y022583D01*
X006908Y022539D01*
X007465Y022539D01*
X007465Y022539D01*
X007465Y021982D01*
X007509Y021982D01*
X007595Y021996D01*
X007679Y022023D01*
X007757Y022063D01*
X007828Y022114D01*
X007890Y022176D01*
X007923Y022222D01*
X007935Y022195D01*
X008105Y022024D01*
X008328Y021932D01*
X008570Y021932D01*
X008895Y022127D02*
X008987Y022127D01*
X008246Y021808D02*
X005845Y021808D01*
X006048Y022127D02*
X007090Y022127D01*
X007102Y022114D02*
X007173Y022063D01*
X007251Y022023D01*
X007334Y021996D01*
X007421Y021982D01*
X007465Y021982D01*
X007465Y022539D01*
X007465Y022539D01*
X006908Y022539D01*
X006908Y022495D01*
X006922Y022408D01*
X006949Y022325D01*
X006989Y022247D01*
X007040Y022176D01*
X007102Y022114D01*
X006916Y022445D02*
X006039Y022445D01*
X005823Y022764D02*
X006954Y022764D01*
X007335Y023082D02*
X006029Y023082D01*
X006057Y023401D02*
X010449Y023401D01*
X010449Y023719D02*
X005868Y023719D01*
X006011Y024038D02*
X010449Y024038D01*
X010449Y024356D02*
X010380Y024356D01*
X009983Y024356D02*
X006915Y024356D01*
X006519Y024356D02*
X006059Y024356D01*
X006003Y024675D02*
X005912Y024675D01*
X007430Y024675D02*
X009468Y024675D01*
X009286Y024993D02*
X007613Y024993D01*
X007660Y025312D02*
X009238Y025312D01*
X009299Y025630D02*
X007599Y025630D01*
X007550Y027267D02*
X007348Y027267D01*
X007161Y027344D01*
X007018Y027487D01*
X006941Y027674D01*
X006941Y027840D01*
X005840Y027840D01*
X005862Y027831D01*
X006005Y027688D01*
X006082Y027501D01*
X006082Y027299D01*
X006005Y027112D01*
X005862Y026969D01*
X005675Y026892D01*
X005473Y026892D01*
X005286Y026969D01*
X005143Y027112D01*
X005066Y027299D01*
X005066Y027501D01*
X005143Y027688D01*
X005286Y027831D01*
X005473Y027908D01*
X005628Y027908D01*
X005561Y027974D01*
X005514Y028088D01*
X005514Y030090D01*
X004137Y030090D01*
X004023Y030137D01*
X003936Y030224D01*
X003889Y030338D01*
X003889Y031587D01*
X003926Y031676D01*
X003729Y031758D01*
X003557Y031929D01*
X003542Y031966D01*
X003501Y031910D01*
X003439Y031848D01*
X003368Y031796D01*
X003289Y031756D01*
X003205Y031729D01*
X003118Y031715D01*
X003074Y031715D01*
X003074Y032275D01*
X003074Y032275D01*
X003074Y032835D01*
X003030Y032835D01*
X002943Y032821D01*
X002859Y032794D01*
X002781Y032754D01*
X002709Y032702D01*
X002647Y032640D01*
X002606Y032584D01*
X002591Y032621D01*
X002420Y032792D01*
X002195Y032885D01*
X001953Y032885D01*
X001729Y032792D01*
X001557Y032621D01*
X001464Y032396D01*
X001464Y032154D01*
X001557Y031929D01*
X001729Y031758D01*
X001953Y031665D01*
X002195Y031665D01*
X002420Y031758D01*
X002591Y031929D01*
X002606Y031966D01*
X002647Y031910D01*
X002709Y031848D01*
X002781Y031796D01*
X002859Y031756D01*
X002943Y031729D01*
X003030Y031715D01*
X003074Y031715D01*
X003074Y032275D01*
X003074Y032275D01*
X003074Y032835D01*
X003118Y032835D01*
X003205Y032821D01*
X003289Y032794D01*
X003368Y032754D01*
X003439Y032702D01*
X003501Y032640D01*
X003542Y032584D01*
X003557Y032621D01*
X003729Y032792D01*
X003953Y032885D01*
X004195Y032885D01*
X004420Y032792D01*
X004591Y032621D01*
X004684Y032396D01*
X004684Y032154D01*
X004591Y031929D01*
X004497Y031835D01*
X006261Y031835D01*
X006375Y031788D01*
X006462Y031701D01*
X006509Y031587D01*
X006509Y030460D01*
X007011Y030460D01*
X007067Y030437D01*
X007085Y030461D01*
X007138Y030514D01*
X007199Y030559D01*
X007266Y030593D01*
X007337Y030616D01*
X007411Y030628D01*
X007449Y030628D01*
X007449Y030150D01*
X007449Y030150D01*
X007449Y030628D01*
X007487Y030628D01*
X007561Y030616D01*
X007632Y030593D01*
X007699Y030559D01*
X007760Y030514D01*
X007813Y030461D01*
X007858Y030400D01*
X007892Y030333D01*
X007915Y030262D01*
X007927Y030188D01*
X007927Y030150D01*
X007449Y030150D01*
X007449Y030150D01*
X007927Y030150D01*
X007927Y030112D01*
X007915Y030038D01*
X007892Y029967D01*
X007858Y029900D01*
X007813Y029839D01*
X007775Y029800D01*
X007795Y029792D01*
X007966Y029621D01*
X008059Y029396D01*
X008059Y029154D01*
X007966Y028929D01*
X007795Y028758D01*
X007570Y028665D01*
X007328Y028665D01*
X007259Y028693D01*
X007259Y028246D01*
X007348Y028283D01*
X007550Y028283D01*
X007737Y028206D01*
X007762Y028181D01*
X007786Y028206D01*
X007973Y028283D01*
X008175Y028283D01*
X008339Y028215D01*
X008339Y028396D01*
X008432Y028621D01*
X008604Y028792D01*
X008640Y028807D01*
X008584Y028848D01*
X008522Y028910D01*
X008470Y028981D01*
X008430Y029060D01*
X008403Y029144D01*
X008389Y029231D01*
X008389Y029275D01*
X008949Y029275D01*
X008949Y029275D01*
X008389Y029275D01*
X008389Y029319D01*
X008403Y029406D01*
X008430Y029490D01*
X008470Y029569D01*
X008522Y029640D01*
X008584Y029702D01*
X008640Y029743D01*
X008604Y029758D01*
X008432Y029929D01*
X008339Y030154D01*
X008339Y030396D01*
X008432Y030621D01*
X008604Y030792D01*
X008640Y030807D01*
X008584Y030848D01*
X008522Y030910D01*
X008470Y030981D01*
X008430Y031060D01*
X008403Y031144D01*
X008389Y031231D01*
X008389Y031275D01*
X008949Y031275D01*
X008949Y031275D01*
X008389Y031275D01*
X008389Y031319D01*
X008403Y031406D01*
X008430Y031490D01*
X008470Y031569D01*
X008522Y031640D01*
X008584Y031702D01*
X008656Y031754D01*
X008734Y031794D01*
X008818Y031821D01*
X008905Y031835D01*
X008949Y031835D01*
X008949Y031275D01*
X008949Y031275D01*
X008949Y031835D01*
X008993Y031835D01*
X009080Y031821D01*
X009164Y031794D01*
X009243Y031754D01*
X009314Y031702D01*
X009376Y031640D01*
X009417Y031584D01*
X009432Y031621D01*
X009604Y031792D01*
X009828Y031885D01*
X010070Y031885D01*
X010295Y031792D01*
X010449Y031638D01*
X010604Y031792D01*
X010828Y031885D01*
X011070Y031885D01*
X011295Y031792D01*
X011449Y031638D01*
X011604Y031792D01*
X011828Y031885D01*
X012070Y031885D01*
X012295Y031792D01*
X012449Y031638D01*
X012604Y031792D01*
X012828Y031885D01*
X013070Y031885D01*
X013295Y031792D01*
X013449Y031638D01*
X013604Y031792D01*
X013828Y031885D01*
X014070Y031885D01*
X014295Y031792D01*
X014449Y031638D01*
X014604Y031792D01*
X014828Y031885D01*
X015070Y031885D01*
X015295Y031792D01*
X015449Y031638D01*
X015604Y031792D01*
X015828Y031885D01*
X016070Y031885D01*
X016295Y031792D01*
X016449Y031638D01*
X016604Y031792D01*
X016828Y031885D01*
X016931Y031885D01*
X016931Y031941D01*
X017008Y032128D01*
X017151Y032271D01*
X017338Y032348D01*
X017540Y032348D01*
X017727Y032271D01*
X017870Y032128D01*
X017947Y031941D01*
X017947Y031885D01*
X018070Y031885D01*
X018204Y031830D01*
X018267Y031981D01*
X018493Y032207D01*
X018789Y032330D01*
X019109Y032330D01*
X019405Y032207D01*
X019631Y031981D01*
X019754Y031685D01*
X019754Y031365D01*
X019631Y031069D01*
X019574Y031011D01*
X019631Y031005D01*
X019733Y030982D01*
X019832Y030947D01*
X019925Y030902D01*
X020014Y030846D01*
X020095Y030781D01*
X020169Y030708D01*
X020234Y030626D01*
X020290Y030538D01*
X020335Y030444D01*
X020369Y030345D01*
X020392Y030244D01*
X020402Y030162D01*
X019550Y030162D01*
X019550Y030014D01*
X020402Y030014D01*
X020392Y029932D01*
X020369Y029831D01*
X020335Y029732D01*
X020290Y029638D01*
X020234Y029550D01*
X020169Y029468D01*
X020095Y029395D01*
X020014Y029330D01*
X019925Y029274D01*
X019832Y029229D01*
X019733Y029194D01*
X019631Y029171D01*
X019550Y029162D01*
X019550Y030014D01*
X019401Y030014D01*
X018550Y030014D01*
X018559Y029932D01*
X018582Y029831D01*
X018616Y029732D01*
X018662Y029638D01*
X018717Y029550D01*
X018782Y029468D01*
X018856Y029395D01*
X018937Y029330D01*
X019026Y029274D01*
X019120Y029229D01*
X019218Y029194D01*
X019320Y029171D01*
X019401Y029162D01*
X019401Y030014D01*
X019401Y030162D01*
X018550Y030162D01*
X018559Y030244D01*
X018582Y030345D01*
X018616Y030444D01*
X018662Y030538D01*
X018717Y030626D01*
X018782Y030708D01*
X018795Y030720D01*
X018789Y030720D01*
X018493Y030843D01*
X018436Y030899D01*
X018295Y030758D01*
X018258Y030743D01*
X018314Y030702D01*
X018376Y030640D01*
X018428Y030569D01*
X018468Y030490D01*
X018495Y030406D01*
X018509Y030319D01*
X018509Y030275D01*
X017949Y030275D01*
X017949Y029885D01*
X017949Y029885D01*
X017949Y030275D01*
X017949Y030275D01*
X017949Y030275D01*
X018509Y030275D01*
X018509Y030231D01*
X018495Y030144D01*
X018468Y030060D01*
X018428Y029981D01*
X018376Y029910D01*
X018314Y029848D01*
X018258Y029807D01*
X018295Y029792D01*
X018466Y029621D01*
X018559Y029396D01*
X018559Y029154D01*
X018466Y028929D01*
X018295Y028758D01*
X018258Y028743D01*
X018314Y028702D01*
X018376Y028640D01*
X018428Y028569D01*
X018468Y028490D01*
X018495Y028406D01*
X018509Y028319D01*
X018509Y028275D01*
X017949Y028275D01*
X017949Y028275D01*
X017949Y027715D01*
X017905Y027715D01*
X017818Y027729D01*
X017734Y027756D01*
X017656Y027796D01*
X017584Y027848D01*
X017522Y027910D01*
X017481Y027966D01*
X017466Y027929D01*
X017295Y027758D01*
X017070Y027665D01*
X016828Y027665D01*
X016604Y027758D01*
X016449Y027912D01*
X016295Y027758D01*
X016070Y027665D01*
X015828Y027665D01*
X015604Y027758D01*
X015449Y027912D01*
X015295Y027758D01*
X015070Y027665D01*
X014828Y027665D01*
X014604Y027758D01*
X014449Y027912D01*
X014295Y027758D01*
X014070Y027665D01*
X013828Y027665D01*
X013604Y027758D01*
X013449Y027912D01*
X013295Y027758D01*
X013070Y027665D01*
X012828Y027665D01*
X012604Y027758D01*
X012449Y027912D01*
X012295Y027758D01*
X012070Y027665D01*
X011828Y027665D01*
X011604Y027758D01*
X011449Y027912D01*
X011295Y027758D01*
X011070Y027665D01*
X010828Y027665D01*
X010604Y027758D01*
X010449Y027912D01*
X010295Y027758D01*
X010070Y027665D01*
X009828Y027665D01*
X009604Y027758D01*
X009449Y027912D01*
X009295Y027758D01*
X009070Y027665D01*
X008828Y027665D01*
X008604Y027758D01*
X008582Y027779D01*
X008582Y027674D01*
X008505Y027487D01*
X008362Y027344D01*
X008175Y027267D01*
X007973Y027267D01*
X007786Y027344D01*
X007762Y027369D01*
X007737Y027344D01*
X007550Y027267D01*
X006996Y027541D02*
X006066Y027541D01*
X006051Y027223D02*
X011039Y027223D01*
X011007Y026904D02*
X005704Y026904D01*
X005444Y026904D02*
X001309Y026904D01*
X001309Y026586D02*
X001917Y026586D01*
X001309Y027223D02*
X005098Y027223D01*
X005082Y027541D02*
X001309Y027541D01*
X001309Y027860D02*
X005356Y027860D01*
X005514Y028178D02*
X001309Y028178D01*
X001309Y028497D02*
X001778Y028497D01*
X001797Y028478D02*
X002089Y028357D01*
X002404Y028357D01*
X002696Y028478D01*
X002919Y028701D01*
X003039Y028992D01*
X003039Y029308D01*
X002919Y029599D01*
X002696Y029822D01*
X002404Y029943D01*
X002089Y029943D01*
X001797Y029822D01*
X001574Y029599D01*
X001453Y029308D01*
X001453Y028992D01*
X001574Y028701D01*
X001797Y028478D01*
X001527Y028815D02*
X001309Y028815D01*
X001309Y029134D02*
X001453Y029134D01*
X001513Y029452D02*
X001309Y029452D01*
X001309Y029771D02*
X001745Y029771D01*
X001309Y030089D02*
X005514Y030089D01*
X005514Y029771D02*
X004349Y029771D01*
X004330Y029782D02*
X004244Y029817D01*
X004155Y029841D01*
X004064Y029853D01*
X004018Y029853D01*
X004018Y029150D01*
X004721Y029150D01*
X004721Y029196D01*
X004709Y029287D01*
X004685Y029376D01*
X004650Y029462D01*
X004604Y029541D01*
X004548Y029614D01*
X004482Y029680D01*
X004409Y029736D01*
X004330Y029782D01*
X004018Y029771D02*
X004018Y029771D01*
X004018Y029853D02*
X003972Y029853D01*
X003881Y029841D01*
X003792Y029817D01*
X003706Y029782D01*
X003627Y029736D01*
X003553Y029680D01*
X003488Y029614D01*
X003432Y029541D01*
X003386Y029462D01*
X003351Y029376D01*
X003327Y029287D01*
X003315Y029196D01*
X003315Y029150D01*
X004018Y029150D01*
X004018Y029150D01*
X004721Y029150D01*
X004721Y029104D01*
X004709Y029013D01*
X004685Y028924D01*
X004650Y028838D01*
X004604Y028759D01*
X004548Y028686D01*
X004482Y028620D01*
X004409Y028564D01*
X004330Y028518D01*
X004244Y028483D01*
X004155Y028459D01*
X004064Y028447D01*
X004018Y028447D01*
X004018Y029150D01*
X004018Y029150D01*
X004018Y029150D01*
X004018Y029853D01*
X003889Y030408D02*
X001309Y030408D01*
X001309Y030726D02*
X003889Y030726D01*
X003889Y031045D02*
X001309Y031045D01*
X001309Y031363D02*
X003889Y031363D01*
X003913Y031682D02*
X002235Y031682D01*
X001913Y031682D02*
X001309Y031682D01*
X001309Y032000D02*
X001528Y032000D01*
X001464Y032319D02*
X001309Y032319D01*
X001309Y032637D02*
X001573Y032637D01*
X001309Y032956D02*
X009014Y032956D01*
X009087Y032637D02*
X004575Y032637D01*
X004684Y032319D02*
X012959Y032319D01*
X013143Y032000D02*
X004620Y032000D01*
X003573Y032637D02*
X003503Y032637D01*
X003074Y032637D02*
X003074Y032637D01*
X003074Y032319D02*
X003074Y032319D01*
X003074Y032000D02*
X003074Y032000D01*
X002645Y032637D02*
X002575Y032637D01*
X001309Y033274D02*
X009104Y033274D01*
X010144Y033274D02*
X010178Y033274D01*
X010624Y033274D02*
X010624Y033274D01*
X010624Y032956D02*
X010624Y032956D01*
X010624Y032637D02*
X010624Y032637D01*
X011070Y033274D02*
X011104Y033274D01*
X011405Y031682D02*
X011493Y031682D01*
X012405Y031682D02*
X012493Y031682D01*
X013405Y031682D02*
X013493Y031682D01*
X013915Y032000D02*
X016955Y032000D01*
X017267Y032319D02*
X014099Y032319D01*
X014056Y032637D02*
X014193Y032637D01*
X013908Y032956D02*
X013871Y032956D01*
X014695Y032637D02*
X015359Y032637D01*
X015444Y032637D02*
X015444Y032637D01*
X015529Y032637D02*
X016239Y032637D01*
X016324Y032637D02*
X016324Y032637D01*
X016409Y032637D02*
X017073Y032637D01*
X017575Y032637D02*
X017948Y032637D01*
X017612Y032319D02*
X018761Y032319D01*
X018948Y032637D02*
X018450Y032637D01*
X018286Y032000D02*
X017923Y032000D01*
X019137Y032319D02*
X025214Y032319D01*
X025214Y032637D02*
X019450Y032637D01*
X019735Y032956D02*
X025214Y032956D01*
X025214Y033274D02*
X019765Y033274D01*
X019612Y032000D02*
X025214Y032000D01*
X025214Y031682D02*
X019754Y031682D01*
X019753Y031363D02*
X025214Y031363D01*
X025214Y031045D02*
X019607Y031045D01*
X020151Y030726D02*
X023997Y030726D01*
X023979Y030708D02*
X024053Y030781D01*
X024134Y030846D01*
X024223Y030902D01*
X024317Y030947D01*
X024415Y030982D01*
X024517Y031005D01*
X024598Y031014D01*
X024598Y030162D01*
X023746Y030162D01*
X023756Y030244D01*
X023779Y030345D01*
X023813Y030444D01*
X023859Y030538D01*
X023914Y030626D01*
X023979Y030708D01*
X023801Y030408D02*
X020348Y030408D01*
X020348Y029771D02*
X023800Y029771D01*
X023812Y029452D02*
X023995Y029452D01*
X023999Y029134D02*
X025214Y029134D01*
X025214Y028815D02*
X023969Y028815D01*
X024009Y029025D02*
X023452Y029025D01*
X023452Y028522D01*
X023699Y028275D01*
X023699Y028025D01*
X023699Y028526D01*
X023699Y028025D01*
X023699Y028025D01*
X023699Y028025D01*
X023699Y027465D01*
X023655Y027465D01*
X023568Y027479D01*
X023484Y027506D01*
X023406Y027546D01*
X023334Y027598D01*
X023272Y027660D01*
X023231Y027716D01*
X023216Y027679D01*
X023045Y027508D01*
X023092Y027488D01*
X023287Y027293D01*
X023393Y027038D01*
X023393Y026762D01*
X023287Y026507D01*
X023092Y026312D01*
X022902Y026233D01*
X023060Y026167D01*
X023232Y025996D01*
X023325Y025771D01*
X023325Y025529D01*
X023232Y025304D01*
X023060Y025133D01*
X022902Y025067D01*
X023092Y024988D01*
X023287Y024793D01*
X023393Y024538D01*
X023393Y024262D01*
X023287Y024007D01*
X023118Y023837D01*
X023287Y023668D01*
X023393Y023413D01*
X023393Y023137D01*
X023287Y022882D01*
X023092Y022687D01*
X022902Y022608D01*
X023060Y022542D01*
X023232Y022371D01*
X023325Y022146D01*
X023325Y021904D01*
X023232Y021679D01*
X023060Y021508D01*
X022902Y021442D01*
X023092Y021363D01*
X023287Y021168D01*
X023393Y020913D01*
X023393Y020637D01*
X023287Y020382D01*
X023118Y020213D01*
X023287Y020043D01*
X023393Y019788D01*
X023393Y019512D01*
X023287Y019257D01*
X023092Y019062D01*
X022902Y018983D01*
X023060Y018917D01*
X023232Y018746D01*
X023325Y018521D01*
X023325Y018279D01*
X023232Y018054D01*
X023060Y017883D01*
X022902Y017817D01*
X023092Y017738D01*
X023287Y017543D01*
X023393Y017288D01*
X023393Y017102D01*
X024055Y017116D01*
X024055Y017150D01*
X024699Y017150D01*
X024699Y017150D01*
X024055Y017150D01*
X024055Y017192D01*
X024066Y017276D01*
X024088Y017357D01*
X024120Y017435D01*
X024163Y017508D01*
X024214Y017575D01*
X024274Y017635D01*
X024341Y017686D01*
X024414Y017729D01*
X024492Y017761D01*
X024573Y017783D01*
X024657Y017794D01*
X024699Y017794D01*
X024699Y017150D01*
X024699Y017150D01*
X024699Y017794D01*
X024741Y017794D01*
X024825Y017783D01*
X024906Y017761D01*
X024984Y017729D01*
X025058Y017686D01*
X025124Y017635D01*
X025184Y017575D01*
X025214Y017536D01*
X025214Y018221D01*
X025202Y018185D01*
X025162Y018106D01*
X025110Y018035D01*
X025048Y017973D01*
X024977Y017921D01*
X024898Y017881D01*
X024814Y017854D01*
X024727Y017840D01*
X024683Y017840D01*
X024683Y018400D01*
X024123Y018400D01*
X024123Y018356D01*
X024137Y018269D01*
X024164Y018185D01*
X024204Y018106D01*
X024256Y018035D01*
X024318Y017973D01*
X024390Y017921D01*
X024468Y017881D01*
X024552Y017854D01*
X024639Y017840D01*
X024683Y017840D01*
X024683Y018400D01*
X024683Y018400D01*
X024123Y018400D01*
X024123Y018444D01*
X024137Y018531D01*
X024164Y018615D01*
X024204Y018694D01*
X024256Y018765D01*
X024318Y018827D01*
X024390Y018879D01*
X024468Y018919D01*
X024552Y018946D01*
X024639Y018960D01*
X024683Y018960D01*
X024683Y018400D01*
X024683Y018400D01*
X024683Y018400D01*
X024683Y018960D01*
X024727Y018960D01*
X024814Y018946D01*
X024898Y018919D01*
X024977Y018879D01*
X025048Y018827D01*
X025110Y018765D01*
X025162Y018694D01*
X025202Y018615D01*
X025214Y018579D01*
X025214Y019264D01*
X025184Y019225D01*
X025124Y019165D01*
X025058Y019114D01*
X024984Y019071D01*
X024906Y019039D01*
X024825Y019017D01*
X024741Y019006D01*
X024699Y019006D01*
X024699Y019650D01*
X024055Y019650D01*
X024055Y019608D01*
X024066Y019524D01*
X024088Y019443D01*
X024120Y019365D01*
X024163Y019292D01*
X024214Y019225D01*
X024274Y019165D01*
X024341Y019114D01*
X024414Y019071D01*
X024492Y019039D01*
X024573Y019017D01*
X024657Y019006D01*
X024699Y019006D01*
X024699Y019650D01*
X024699Y019650D01*
X024055Y019650D01*
X024055Y019692D01*
X024066Y019776D01*
X024088Y019857D01*
X024120Y019935D01*
X024163Y020008D01*
X024214Y020075D01*
X024274Y020135D01*
X024341Y020186D01*
X024386Y020213D01*
X024341Y020239D01*
X024274Y020290D01*
X024214Y020350D01*
X024163Y020417D01*
X024120Y020490D01*
X024088Y020568D01*
X024066Y020649D01*
X024055Y020733D01*
X024055Y020775D01*
X024699Y020775D01*
X024699Y020775D01*
X024055Y020775D01*
X024055Y020817D01*
X024066Y020901D01*
X024088Y020982D01*
X024120Y021060D01*
X024163Y021133D01*
X024214Y021200D01*
X024274Y021260D01*
X024341Y021311D01*
X024414Y021354D01*
X024492Y021386D01*
X024573Y021408D01*
X024657Y021419D01*
X024699Y021419D01*
X024699Y020775D01*
X024699Y020775D01*
X024699Y020294D01*
X024699Y019650D01*
X024699Y019650D01*
X024699Y019650D01*
X024699Y020775D01*
X024699Y020775D01*
X024699Y021419D01*
X024741Y021419D01*
X024825Y021408D01*
X024906Y021386D01*
X024984Y021354D01*
X025058Y021311D01*
X025124Y021260D01*
X025184Y021200D01*
X025214Y021161D01*
X025214Y021846D01*
X025202Y021810D01*
X025162Y021731D01*
X025110Y021660D01*
X025048Y021598D01*
X024977Y021546D01*
X024898Y021506D01*
X024814Y021479D01*
X024727Y021465D01*
X024683Y021465D01*
X024683Y022025D01*
X024123Y022025D01*
X024123Y021981D01*
X024137Y021894D01*
X024164Y021810D01*
X024204Y021731D01*
X024256Y021660D01*
X024318Y021598D01*
X024390Y021546D01*
X024468Y021506D01*
X024552Y021479D01*
X024639Y021465D01*
X024683Y021465D01*
X024683Y022025D01*
X024683Y022025D01*
X024123Y022025D01*
X024123Y022069D01*
X024137Y022156D01*
X024164Y022240D01*
X024204Y022319D01*
X024256Y022390D01*
X024318Y022452D01*
X024390Y022504D01*
X024468Y022544D01*
X024552Y022571D01*
X024639Y022585D01*
X024683Y022585D01*
X024683Y022025D01*
X024683Y022025D01*
X024683Y022025D01*
X024683Y022585D01*
X024727Y022585D01*
X024814Y022571D01*
X024898Y022544D01*
X024977Y022504D01*
X025048Y022452D01*
X025110Y022390D01*
X025162Y022319D01*
X025202Y022240D01*
X025214Y022204D01*
X025214Y022889D01*
X025184Y022850D01*
X025124Y022790D01*
X025058Y022739D01*
X024984Y022696D01*
X024906Y022664D01*
X024825Y022642D01*
X024741Y022631D01*
X024699Y022631D01*
X024699Y023275D01*
X024055Y023275D01*
X024055Y023233D01*
X024066Y023149D01*
X024088Y023068D01*
X024120Y022990D01*
X024163Y022917D01*
X024214Y022850D01*
X024274Y022790D01*
X024341Y022739D01*
X024414Y022696D01*
X024492Y022664D01*
X024573Y022642D01*
X024657Y022631D01*
X024699Y022631D01*
X024699Y023275D01*
X024699Y023275D01*
X024055Y023275D01*
X024055Y023317D01*
X024066Y023401D01*
X024088Y023482D01*
X024120Y023560D01*
X024163Y023633D01*
X024214Y023700D01*
X024274Y023760D01*
X024341Y023811D01*
X024386Y023837D01*
X024341Y023864D01*
X024274Y023915D01*
X024214Y023975D01*
X024163Y024042D01*
X024120Y024115D01*
X024088Y024193D01*
X024066Y024274D01*
X024055Y024358D01*
X024055Y024400D01*
X024699Y024400D01*
X024699Y024400D01*
X024055Y024400D01*
X024055Y024442D01*
X024066Y024526D01*
X024088Y024607D01*
X024120Y024685D01*
X024163Y024758D01*
X024214Y024825D01*
X024274Y024885D01*
X024341Y024936D01*
X024414Y024979D01*
X024492Y025011D01*
X024573Y025033D01*
X024657Y025044D01*
X024699Y025044D01*
X024699Y024400D01*
X024699Y024400D01*
X024699Y023756D01*
X024699Y023275D01*
X024699Y023275D01*
X024699Y023275D01*
X024699Y024400D01*
X024699Y024400D01*
X024699Y025044D01*
X024741Y025044D01*
X024825Y025033D01*
X024906Y025011D01*
X024984Y024979D01*
X025058Y024936D01*
X025124Y024885D01*
X025184Y024825D01*
X025214Y024786D01*
X025214Y025471D01*
X025202Y025435D01*
X025162Y025356D01*
X025110Y025285D01*
X025048Y025223D01*
X024977Y025171D01*
X024898Y025131D01*
X024814Y025104D01*
X024727Y025090D01*
X024683Y025090D01*
X024683Y025650D01*
X024123Y025650D01*
X024123Y025606D01*
X024137Y025519D01*
X024164Y025435D01*
X024204Y025356D01*
X024256Y025285D01*
X024318Y025223D01*
X024390Y025171D01*
X024468Y025131D01*
X024552Y025104D01*
X024639Y025090D01*
X024683Y025090D01*
X024683Y025650D01*
X024683Y025650D01*
X024123Y025650D01*
X024123Y025694D01*
X024137Y025781D01*
X024164Y025865D01*
X024204Y025944D01*
X024256Y026015D01*
X024318Y026077D01*
X024390Y026129D01*
X024468Y026169D01*
X024552Y026196D01*
X024639Y026210D01*
X024683Y026210D01*
X024683Y025650D01*
X024683Y025650D01*
X024683Y025650D01*
X024683Y026210D01*
X024727Y026210D01*
X024814Y026196D01*
X024898Y026169D01*
X024977Y026129D01*
X025048Y026077D01*
X025110Y026015D01*
X025162Y025944D01*
X025202Y025865D01*
X025214Y025829D01*
X025214Y026514D01*
X025184Y026475D01*
X025124Y026415D01*
X025058Y026364D01*
X024984Y026321D01*
X024906Y026289D01*
X024825Y026267D01*
X024741Y026256D01*
X024699Y026256D01*
X024699Y026900D01*
X024055Y026900D01*
X024055Y026858D01*
X024066Y026774D01*
X024088Y026693D01*
X024120Y026615D01*
X024163Y026542D01*
X024214Y026475D01*
X024274Y026415D01*
X024341Y026364D01*
X024414Y026321D01*
X024492Y026289D01*
X024573Y026267D01*
X024657Y026256D01*
X024699Y026256D01*
X024699Y026900D01*
X024699Y026900D01*
X024055Y026900D01*
X024055Y026942D01*
X024066Y027026D01*
X024088Y027107D01*
X024120Y027185D01*
X024163Y027258D01*
X024214Y027325D01*
X024274Y027385D01*
X024341Y027436D01*
X024414Y027479D01*
X024419Y027481D01*
X024354Y027508D01*
X024182Y027679D01*
X024167Y027716D01*
X024126Y027660D01*
X024064Y027598D01*
X023993Y027546D01*
X023914Y027506D01*
X023830Y027479D01*
X023743Y027465D01*
X023699Y027465D01*
X023699Y028025D01*
X023699Y028178D02*
X023699Y028178D01*
X023699Y027860D02*
X023699Y027860D01*
X023699Y027541D02*
X023699Y027541D01*
X023415Y027541D02*
X023078Y027541D01*
X023316Y027223D02*
X024142Y027223D01*
X024055Y026904D02*
X023393Y026904D01*
X023320Y026586D02*
X024137Y026586D01*
X024574Y026267D02*
X022984Y026267D01*
X023251Y025949D02*
X024208Y025949D01*
X024123Y025630D02*
X023325Y025630D01*
X023235Y025312D02*
X024237Y025312D01*
X024448Y024993D02*
X023081Y024993D01*
X023336Y024675D02*
X024116Y024675D01*
X024055Y024356D02*
X023393Y024356D01*
X023300Y024038D02*
X024166Y024038D01*
X024233Y023719D02*
X023236Y023719D01*
X023393Y023401D02*
X024066Y023401D01*
X024084Y023082D02*
X023370Y023082D01*
X023169Y022764D02*
X024308Y022764D01*
X024311Y022445D02*
X023157Y022445D01*
X023325Y022127D02*
X024132Y022127D01*
X024165Y021808D02*
X023285Y021808D01*
X023016Y021490D02*
X024519Y021490D01*
X024683Y021490D02*
X024683Y021490D01*
X024847Y021490D02*
X025214Y021490D01*
X025201Y021808D02*
X025214Y021808D01*
X024683Y021808D02*
X024683Y021808D01*
X024683Y022127D02*
X024683Y022127D01*
X024683Y022445D02*
X024683Y022445D01*
X024699Y022764D02*
X024699Y022764D01*
X024699Y023082D02*
X024699Y023082D01*
X024699Y023401D02*
X024699Y023401D01*
X024699Y023719D02*
X024699Y023719D01*
X024699Y024038D02*
X024699Y024038D01*
X024699Y024356D02*
X024699Y024356D01*
X024699Y024675D02*
X024699Y024675D01*
X024699Y024993D02*
X024699Y024993D01*
X024950Y024993D02*
X025214Y024993D01*
X025214Y025312D02*
X025130Y025312D01*
X024683Y025312D02*
X024683Y025312D01*
X024683Y025630D02*
X024683Y025630D01*
X024683Y025949D02*
X024683Y025949D01*
X024699Y026267D02*
X024699Y026267D01*
X024824Y026267D02*
X025214Y026267D01*
X025214Y025949D02*
X025159Y025949D01*
X024699Y026586D02*
X024699Y026586D01*
X024699Y026900D02*
X024699Y026900D01*
X024320Y027541D02*
X023983Y027541D01*
X024003Y028497D02*
X024308Y028497D01*
X024009Y029025D02*
X023452Y029025D01*
X023452Y029582D01*
X023452Y029025D01*
X023452Y029025D01*
X023452Y029025D01*
X023452Y029134D02*
X023452Y029134D01*
X023452Y029452D02*
X023452Y029452D01*
X023092Y029452D02*
X022899Y029452D01*
X023699Y028526D02*
X023699Y028526D01*
X023699Y028497D02*
X023699Y028497D01*
X024598Y029452D02*
X024747Y029452D01*
X024747Y029771D02*
X024598Y029771D01*
X024598Y030089D02*
X019550Y030089D01*
X019401Y030089D02*
X018477Y030089D01*
X018495Y030408D02*
X018604Y030408D01*
X018774Y030726D02*
X018281Y030726D01*
X017949Y030089D02*
X017949Y030089D01*
X018316Y029771D02*
X018603Y029771D01*
X018536Y029452D02*
X018798Y029452D01*
X018551Y029134D02*
X020089Y029134D01*
X020126Y028815D02*
X018352Y028815D01*
X018465Y028497D02*
X019308Y028497D01*
X019102Y028178D02*
X018501Y028178D01*
X018495Y028144D02*
X018509Y028231D01*
X018509Y028275D01*
X017949Y028275D01*
X017949Y027715D01*
X017993Y027715D01*
X018080Y027729D01*
X018164Y027756D01*
X018243Y027796D01*
X018314Y027848D01*
X018376Y027910D01*
X018428Y027981D01*
X018468Y028060D01*
X018495Y028144D01*
X018326Y027860D02*
X019107Y027860D01*
X019320Y027541D02*
X013818Y027541D01*
X013897Y027508D02*
X013687Y027595D01*
X013461Y027595D01*
X013251Y027508D01*
X013091Y027348D01*
X013004Y027138D01*
X013004Y026912D01*
X013091Y026702D01*
X013251Y026542D01*
X013292Y026525D01*
X013251Y026508D01*
X013091Y026348D01*
X013004Y026138D01*
X013004Y025912D01*
X013091Y025702D01*
X013251Y025542D01*
X013461Y025455D01*
X013687Y025455D01*
X013897Y025542D01*
X014057Y025702D01*
X014144Y025912D01*
X014144Y026138D01*
X014057Y026348D01*
X013897Y026508D01*
X013856Y026525D01*
X013897Y026542D01*
X014008Y026653D01*
X014091Y026452D01*
X014251Y026292D01*
X014461Y026205D01*
X014687Y026205D01*
X014897Y026292D01*
X015057Y026452D01*
X015101Y026558D01*
X015129Y026502D01*
X015177Y026436D01*
X015235Y026378D01*
X015302Y026330D01*
X015374Y026293D01*
X015452Y026268D01*
X015533Y026255D01*
X015574Y026255D01*
X015574Y026775D01*
X015574Y026775D01*
X015574Y027295D01*
X015533Y027295D01*
X015452Y027282D01*
X015374Y027257D01*
X015302Y027220D01*
X015235Y027172D01*
X015177Y027114D01*
X015129Y027048D01*
X015101Y026992D01*
X015057Y027098D01*
X014897Y027258D01*
X014687Y027345D01*
X014461Y027345D01*
X014251Y027258D01*
X014140Y027147D01*
X014057Y027348D01*
X013897Y027508D01*
X014109Y027223D02*
X014215Y027223D01*
X014396Y027860D02*
X014502Y027860D01*
X014933Y027223D02*
X015307Y027223D01*
X015574Y027223D02*
X015574Y027223D01*
X015574Y027295D02*
X015615Y027295D01*
X015696Y027282D01*
X015749Y027265D01*
X015768Y027313D01*
X015911Y027456D01*
X016098Y027533D01*
X016300Y027533D01*
X016487Y027456D01*
X016630Y027313D01*
X016707Y027126D01*
X016707Y026924D01*
X016630Y026737D01*
X016487Y026594D01*
X016300Y026517D01*
X016098Y026517D01*
X016039Y026541D01*
X016019Y026502D01*
X015971Y026436D01*
X015913Y026378D01*
X015847Y026330D01*
X015774Y026293D01*
X015696Y026268D01*
X015615Y026255D01*
X015574Y026255D01*
X015574Y026775D01*
X015574Y026775D01*
X015574Y027295D01*
X015574Y026904D02*
X015574Y026904D01*
X015574Y026586D02*
X015574Y026586D01*
X015574Y026267D02*
X015574Y026267D01*
X015457Y026267D02*
X014837Y026267D01*
X014876Y026008D02*
X014716Y025848D01*
X014629Y025638D01*
X014629Y025412D01*
X014716Y025202D01*
X014876Y025042D01*
X015086Y024955D01*
X015312Y024955D01*
X015522Y025042D01*
X015682Y025202D01*
X015769Y025412D01*
X015769Y025638D01*
X015682Y025848D01*
X015522Y026008D01*
X015312Y026095D01*
X015086Y026095D01*
X014876Y026008D01*
X014816Y025949D02*
X014144Y025949D01*
X014091Y026267D02*
X014311Y026267D01*
X014036Y026586D02*
X013941Y026586D01*
X013207Y026586D02*
X011941Y026586D01*
X012091Y026267D02*
X013057Y026267D01*
X013004Y025949D02*
X012144Y025949D01*
X011985Y025630D02*
X013163Y025630D01*
X013336Y025220D02*
X013126Y025133D01*
X012975Y024982D01*
X012971Y024989D01*
X012913Y025047D01*
X012847Y025095D01*
X012774Y025132D01*
X012696Y025157D01*
X012615Y025170D01*
X012574Y025170D01*
X012574Y024650D01*
X012574Y024650D01*
X012574Y024650D01*
X012574Y024130D01*
X012615Y024130D01*
X012696Y024143D01*
X012774Y024168D01*
X012847Y024205D01*
X012913Y024253D01*
X012971Y024311D01*
X012975Y024318D01*
X013126Y024167D01*
X013336Y024080D01*
X013562Y024080D01*
X013772Y024167D01*
X013932Y024327D01*
X013976Y024433D01*
X014004Y024377D01*
X014052Y024311D01*
X014110Y024253D01*
X014177Y024205D01*
X014249Y024168D01*
X014327Y024143D01*
X014408Y024130D01*
X014449Y024130D01*
X014449Y024650D01*
X014449Y025170D01*
X014408Y025170D01*
X014327Y025157D01*
X014249Y025132D01*
X014177Y025095D01*
X014110Y025047D01*
X014052Y024989D01*
X014004Y024923D01*
X013976Y024867D01*
X013932Y024973D01*
X013772Y025133D01*
X013562Y025220D01*
X013336Y025220D01*
X012986Y024993D02*
X012966Y024993D01*
X012574Y024993D02*
X012574Y024993D01*
X012574Y024675D02*
X012574Y024675D01*
X012574Y024356D02*
X012574Y024356D01*
X012145Y024356D02*
X012069Y024356D01*
X012037Y024993D02*
X012182Y024993D01*
X011199Y025312D02*
X014671Y025312D01*
X014649Y025132D02*
X014722Y025095D01*
X014788Y025047D01*
X014846Y024989D01*
X014894Y024923D01*
X014931Y024850D01*
X014956Y024772D01*
X014969Y024691D01*
X014969Y024650D01*
X014449Y024650D01*
X014449Y024650D01*
X014449Y024650D01*
X014449Y025170D01*
X014490Y025170D01*
X014571Y025157D01*
X014649Y025132D01*
X014841Y024993D02*
X014994Y024993D01*
X014969Y024675D02*
X016003Y024675D01*
X015821Y024993D02*
X015404Y024993D01*
X014969Y024650D02*
X014449Y024650D01*
X014449Y024130D01*
X014490Y024130D01*
X014571Y024143D01*
X014649Y024168D01*
X014722Y024205D01*
X014788Y024253D01*
X014846Y024311D01*
X014894Y024377D01*
X014931Y024450D01*
X014956Y024528D01*
X014969Y024609D01*
X014969Y024650D01*
X014878Y024356D02*
X016199Y024356D01*
X016199Y024038D02*
X015451Y024038D01*
X015522Y024008D02*
X015312Y024095D01*
X015086Y024095D01*
X014876Y024008D01*
X014716Y023848D01*
X014629Y023638D01*
X014629Y023412D01*
X014716Y023202D01*
X014876Y023042D01*
X015086Y022955D01*
X015312Y022955D01*
X015522Y023042D01*
X015682Y023202D01*
X015769Y023412D01*
X015769Y023638D01*
X015682Y023848D01*
X015522Y024008D01*
X015736Y023719D02*
X016199Y023719D01*
X016199Y023401D02*
X015764Y023401D01*
X015562Y023082D02*
X016199Y023082D01*
X016199Y022764D02*
X015821Y022764D01*
X015846Y022739D02*
X015788Y022797D01*
X015722Y022845D01*
X015649Y022882D01*
X015571Y022907D01*
X015490Y022920D01*
X015449Y022920D01*
X015408Y022920D01*
X015327Y022907D01*
X015249Y022882D01*
X015177Y022845D01*
X015110Y022797D01*
X015052Y022739D01*
X015004Y022673D01*
X014967Y022600D01*
X014942Y022522D01*
X014929Y022441D01*
X014929Y022400D01*
X014929Y022359D01*
X014942Y022278D01*
X014967Y022200D01*
X015004Y022127D01*
X015052Y022061D01*
X015110Y022003D01*
X015177Y021955D01*
X015249Y021918D01*
X015327Y021893D01*
X015408Y021880D01*
X015449Y021880D01*
X015449Y022400D01*
X014929Y022400D01*
X015449Y022400D01*
X015449Y022400D01*
X015449Y022400D01*
X015449Y022920D01*
X015449Y022400D01*
X015449Y022400D01*
X015449Y021880D01*
X015490Y021880D01*
X015571Y021893D01*
X015649Y021918D01*
X015722Y021955D01*
X015788Y022003D01*
X015846Y022061D01*
X015894Y022127D01*
X015931Y022200D01*
X015956Y022278D01*
X015969Y022359D01*
X015969Y022400D01*
X015449Y022400D01*
X015969Y022400D01*
X015969Y022441D01*
X015956Y022522D01*
X015931Y022600D01*
X015894Y022673D01*
X015846Y022739D01*
X015968Y022445D02*
X016199Y022445D01*
X016199Y022127D02*
X015893Y022127D01*
X016199Y021808D02*
X012614Y021808D01*
X012570Y021790D02*
X012795Y021883D01*
X012966Y022054D01*
X012973Y022070D01*
X013126Y021917D01*
X013336Y021830D01*
X013562Y021830D01*
X013772Y021917D01*
X013932Y022077D01*
X014019Y022287D01*
X014019Y022513D01*
X013939Y022706D01*
X014147Y022792D01*
X014307Y022952D01*
X014394Y023162D01*
X014394Y023388D01*
X014307Y023598D01*
X014147Y023758D01*
X013937Y023845D01*
X013711Y023845D01*
X013501Y023758D01*
X013341Y023598D01*
X013254Y023388D01*
X013254Y023162D01*
X013334Y022969D01*
X013126Y022883D01*
X012973Y022730D01*
X012966Y022746D01*
X012795Y022917D01*
X012570Y023010D01*
X012331Y023010D01*
X012394Y023162D01*
X012394Y023388D01*
X012307Y023598D01*
X012147Y023758D01*
X011937Y023845D01*
X011711Y023845D01*
X011501Y023758D01*
X011341Y023598D01*
X011254Y023388D01*
X011254Y023162D01*
X011341Y022952D01*
X011501Y022792D01*
X011711Y022705D01*
X011915Y022705D01*
X011839Y022521D01*
X011839Y022279D01*
X011932Y022054D01*
X012104Y021883D01*
X012328Y021790D01*
X012570Y021790D01*
X012562Y021595D02*
X012336Y021595D01*
X012126Y021508D01*
X011966Y021348D01*
X011879Y021138D01*
X011879Y020912D01*
X011966Y020702D01*
X012126Y020542D01*
X012336Y020455D01*
X012562Y020455D01*
X012772Y020542D01*
X012932Y020702D01*
X012949Y020743D01*
X012966Y020702D01*
X013126Y020542D01*
X013336Y020455D01*
X013562Y020455D01*
X013772Y020542D01*
X013932Y020702D01*
X013949Y020743D01*
X013966Y020702D01*
X014126Y020542D01*
X014336Y020455D01*
X014562Y020455D01*
X014772Y020542D01*
X014932Y020702D01*
X014976Y020808D01*
X015004Y020752D01*
X015052Y020686D01*
X015110Y020628D01*
X015177Y020580D01*
X015249Y020543D01*
X015327Y020518D01*
X015408Y020505D01*
X015449Y020505D01*
X015449Y021025D01*
X015449Y021545D01*
X015408Y021545D01*
X015327Y021532D01*
X015249Y021507D01*
X015177Y021470D01*
X015110Y021422D01*
X015052Y021364D01*
X015004Y021298D01*
X014976Y021242D01*
X014932Y021348D01*
X014772Y021508D01*
X014562Y021595D01*
X014336Y021595D01*
X014126Y021508D01*
X013966Y021348D01*
X013949Y021307D01*
X013932Y021348D01*
X013772Y021508D01*
X013562Y021595D01*
X013336Y021595D01*
X013126Y021508D01*
X012966Y021348D01*
X012949Y021307D01*
X012932Y021348D01*
X012772Y021508D01*
X012562Y021595D01*
X012791Y021490D02*
X013107Y021490D01*
X013791Y021490D02*
X014107Y021490D01*
X013953Y022127D02*
X015005Y022127D01*
X014930Y022445D02*
X014019Y022445D01*
X014079Y022764D02*
X015077Y022764D01*
X015449Y022764D02*
X015449Y022764D01*
X015449Y022445D02*
X015449Y022445D01*
X015449Y022400D02*
X015449Y022400D01*
X015449Y022127D02*
X015449Y022127D01*
X015449Y021545D02*
X015449Y021025D01*
X015449Y021025D01*
X015449Y021025D01*
X015449Y020505D01*
X015490Y020505D01*
X015571Y020518D01*
X015649Y020543D01*
X015722Y020580D01*
X015788Y020628D01*
X015846Y020686D01*
X015894Y020752D01*
X015931Y020825D01*
X015956Y020903D01*
X015969Y020984D01*
X015969Y021025D01*
X015969Y021066D01*
X015956Y021147D01*
X015931Y021225D01*
X015894Y021298D01*
X015846Y021364D01*
X015788Y021422D01*
X015722Y021470D01*
X015649Y021507D01*
X015571Y021532D01*
X015490Y021545D01*
X015449Y021545D01*
X015449Y021490D02*
X015449Y021490D01*
X015215Y021490D02*
X014791Y021490D01*
X015449Y021171D02*
X015449Y021171D01*
X015449Y021025D02*
X015969Y021025D01*
X015449Y021025D01*
X015449Y021025D01*
X015449Y020853D02*
X015449Y020853D01*
X015449Y020534D02*
X015449Y020534D01*
X015277Y020534D02*
X014753Y020534D01*
X014145Y020534D02*
X013753Y020534D01*
X013145Y020534D02*
X012753Y020534D01*
X012145Y020534D02*
X011886Y020534D01*
X011904Y020853D02*
X011678Y020853D01*
X011893Y021171D02*
X011199Y021171D01*
X011199Y021490D02*
X012107Y021490D01*
X012284Y021808D02*
X011199Y021808D01*
X011199Y022127D02*
X011902Y022127D01*
X011839Y022445D02*
X011199Y022445D01*
X011199Y022764D02*
X011569Y022764D01*
X011287Y023082D02*
X011199Y023082D01*
X011199Y023401D02*
X011259Y023401D01*
X011199Y023719D02*
X011462Y023719D01*
X011199Y024038D02*
X014947Y024038D01*
X014662Y023719D02*
X014186Y023719D01*
X014389Y023401D02*
X014634Y023401D01*
X014836Y023082D02*
X014361Y023082D01*
X013462Y023719D02*
X012186Y023719D01*
X012389Y023401D02*
X013259Y023401D01*
X013287Y023082D02*
X012361Y023082D01*
X012948Y022764D02*
X013006Y022764D01*
X013944Y024356D02*
X014020Y024356D01*
X014057Y024993D02*
X013912Y024993D01*
X014449Y024993D02*
X014449Y024993D01*
X014449Y024675D02*
X014449Y024675D01*
X014449Y024650D02*
X014449Y024650D01*
X014449Y024356D02*
X014449Y024356D01*
X014629Y025630D02*
X013985Y025630D01*
X013007Y026904D02*
X012141Y026904D01*
X012109Y027223D02*
X013039Y027223D01*
X013330Y027541D02*
X011818Y027541D01*
X011502Y027860D02*
X011396Y027860D01*
X011330Y027541D02*
X008527Y027541D01*
X008381Y028497D02*
X007259Y028497D01*
X007852Y028815D02*
X008629Y028815D01*
X008406Y029134D02*
X008051Y029134D01*
X008036Y029452D02*
X008418Y029452D01*
X008591Y029771D02*
X007816Y029771D01*
X007923Y030089D02*
X008366Y030089D01*
X008344Y030408D02*
X007853Y030408D01*
X007449Y030408D02*
X007449Y030408D01*
X006509Y030726D02*
X008537Y030726D01*
X008438Y031045D02*
X006509Y031045D01*
X006509Y031363D02*
X008396Y031363D01*
X008564Y031682D02*
X006470Y031682D01*
X005514Y029452D02*
X004654Y029452D01*
X004721Y029134D02*
X005514Y029134D01*
X005514Y028815D02*
X004636Y028815D01*
X004277Y028497D02*
X005514Y028497D01*
X004018Y028497D02*
X004018Y028497D01*
X004018Y028447D02*
X003972Y028447D01*
X003881Y028459D01*
X003792Y028483D01*
X003706Y028518D01*
X003627Y028564D01*
X003553Y028620D01*
X003488Y028686D01*
X003432Y028759D01*
X003386Y028838D01*
X003351Y028924D01*
X003327Y029013D01*
X003315Y029104D01*
X003315Y029150D01*
X004018Y029150D01*
X004018Y028447D01*
X003759Y028497D02*
X002714Y028497D01*
X002966Y028815D02*
X003400Y028815D01*
X003315Y029134D02*
X003039Y029134D01*
X002980Y029452D02*
X003382Y029452D01*
X003687Y029771D02*
X002747Y029771D01*
X004018Y029452D02*
X004018Y029452D01*
X004018Y029150D02*
X004018Y029150D01*
X004018Y029134D02*
X004018Y029134D01*
X004018Y028815D02*
X004018Y028815D01*
X005981Y026586D02*
X011207Y026586D01*
X010502Y027860D02*
X010396Y027860D01*
X009502Y027860D02*
X009396Y027860D01*
X008949Y031363D02*
X008949Y031363D01*
X008949Y031682D02*
X008949Y031682D01*
X009334Y031682D02*
X009493Y031682D01*
X010405Y031682D02*
X010493Y031682D01*
X012396Y027860D02*
X012502Y027860D01*
X013396Y027860D02*
X013502Y027860D01*
X015396Y027860D02*
X015502Y027860D01*
X016396Y027860D02*
X016502Y027860D01*
X016667Y027223D02*
X020441Y027223D01*
X020320Y027541D02*
X020078Y027541D01*
X020601Y026904D02*
X016699Y026904D01*
X016466Y026586D02*
X022078Y026586D01*
X022005Y026904D02*
X021297Y026904D01*
X021457Y027223D02*
X022082Y027223D01*
X022078Y027541D02*
X022320Y027541D01*
X022414Y026267D02*
X015691Y026267D01*
X015582Y025949D02*
X016037Y025949D01*
X015835Y025630D02*
X015769Y025630D01*
X015774Y025312D02*
X015728Y025312D01*
X016915Y024356D02*
X019983Y024356D01*
X019468Y024675D02*
X019317Y024675D01*
X018581Y024675D02*
X017430Y024675D01*
X017613Y024993D02*
X018441Y024993D01*
X018518Y025312D02*
X018329Y025312D01*
X016824Y024038D02*
X020574Y024038D01*
X020574Y024356D02*
X020380Y024356D01*
X020574Y023719D02*
X016824Y023719D01*
X016824Y023401D02*
X020574Y023401D01*
X020574Y023082D02*
X019708Y023082D01*
X019777Y023053D02*
X019554Y023146D01*
X019313Y023146D01*
X019090Y023053D01*
X018941Y022905D01*
X018793Y023053D01*
X018570Y023146D01*
X018328Y023146D01*
X018105Y023053D01*
X017935Y022883D01*
X017923Y022855D01*
X017890Y022902D01*
X017828Y022964D01*
X017757Y023015D01*
X017679Y023055D01*
X017595Y023082D01*
X017509Y023096D01*
X017465Y023096D01*
X017465Y022539D01*
X017465Y022539D01*
X017465Y023096D01*
X017421Y023096D01*
X017334Y023082D01*
X017251Y023055D01*
X017173Y023015D01*
X017102Y022964D01*
X017040Y022902D01*
X016989Y022831D01*
X016949Y022753D01*
X016922Y022669D01*
X016908Y022583D01*
X016908Y022539D01*
X017465Y022539D01*
X017465Y022539D01*
X017465Y021982D01*
X017509Y021982D01*
X017595Y021996D01*
X017679Y022023D01*
X017757Y022063D01*
X017828Y022114D01*
X017890Y022176D01*
X017923Y022222D01*
X017935Y022195D01*
X018105Y022024D01*
X018328Y021932D01*
X018570Y021932D01*
X018793Y022024D01*
X018941Y022173D01*
X019090Y022024D01*
X019313Y021932D01*
X019554Y021932D01*
X019777Y022024D01*
X019948Y022195D01*
X020040Y022418D01*
X020040Y022659D01*
X019948Y022883D01*
X019777Y023053D01*
X019997Y022764D02*
X020574Y022764D01*
X020574Y022445D02*
X020040Y022445D01*
X019879Y022127D02*
X020483Y022127D01*
X020341Y021808D02*
X018652Y021808D01*
X018562Y021845D02*
X018336Y021845D01*
X018126Y021758D01*
X017966Y021598D01*
X017922Y021492D01*
X017894Y021548D01*
X017846Y021614D01*
X017788Y021672D01*
X017722Y021720D01*
X017649Y021757D01*
X017571Y021782D01*
X017490Y021795D01*
X017449Y021795D01*
X017408Y021795D01*
X017327Y021782D01*
X017249Y021757D01*
X017177Y021720D01*
X017110Y021672D01*
X017052Y021614D01*
X017004Y021548D01*
X016967Y021475D01*
X016942Y021397D01*
X016929Y021316D01*
X016929Y021275D01*
X016929Y021234D01*
X016942Y021153D01*
X016967Y021075D01*
X017004Y021002D01*
X017052Y020936D01*
X017110Y020878D01*
X017177Y020830D01*
X017249Y020793D01*
X017327Y020768D01*
X017408Y020755D01*
X017449Y020755D01*
X017449Y021275D01*
X016929Y021275D01*
X017449Y021275D01*
X017449Y021275D01*
X017449Y021795D01*
X017449Y021275D01*
X017449Y021275D01*
X017449Y021275D01*
X017449Y020755D01*
X017490Y020755D01*
X017571Y020768D01*
X017649Y020793D01*
X017722Y020830D01*
X017788Y020878D01*
X017846Y020936D01*
X017894Y021002D01*
X017922Y021058D01*
X017966Y020952D01*
X018126Y020792D01*
X018336Y020705D01*
X018562Y020705D01*
X018772Y020792D01*
X018932Y020952D01*
X019019Y021162D01*
X019019Y021388D01*
X018932Y021598D01*
X018772Y021758D01*
X018562Y021845D01*
X018246Y021808D02*
X016824Y021808D01*
X016824Y021490D02*
X016975Y021490D01*
X016939Y021171D02*
X016824Y021171D01*
X016824Y020853D02*
X017146Y020853D01*
X017449Y020853D02*
X017449Y020853D01*
X017752Y020853D02*
X018065Y020853D01*
X017449Y021171D02*
X017449Y021171D01*
X017449Y021490D02*
X017449Y021490D01*
X017465Y021982D02*
X017465Y022539D01*
X017465Y022539D01*
X016908Y022539D01*
X016908Y022495D01*
X016922Y022408D01*
X016949Y022325D01*
X016989Y022247D01*
X017040Y022176D01*
X017102Y022114D01*
X017173Y022063D01*
X017251Y022023D01*
X017334Y021996D01*
X017421Y021982D01*
X017465Y021982D01*
X017465Y022127D02*
X017465Y022127D01*
X017465Y022445D02*
X017465Y022445D01*
X017465Y022764D02*
X017465Y022764D01*
X017465Y023082D02*
X017465Y023082D01*
X017595Y023082D02*
X018175Y023082D01*
X018723Y023082D02*
X019159Y023082D01*
X018987Y022127D02*
X018895Y022127D01*
X018977Y021490D02*
X020181Y021490D01*
X020022Y021171D02*
X019019Y021171D01*
X018833Y020853D02*
X019892Y020853D01*
X019766Y020534D02*
X016824Y020534D01*
X016824Y020216D02*
X019607Y020216D01*
X019449Y019897D02*
X016824Y019897D01*
X016824Y019579D02*
X016941Y019579D01*
X017457Y019579D02*
X018114Y019579D01*
X018199Y019579D02*
X018199Y019579D01*
X018199Y019585D02*
X018243Y019585D01*
X018330Y019571D01*
X018414Y019544D01*
X018493Y019504D01*
X018564Y019452D01*
X018626Y019390D01*
X018678Y019319D01*
X018718Y019240D01*
X018745Y019156D01*
X018759Y019069D01*
X018759Y019025D01*
X018199Y019025D01*
X018199Y019025D01*
X018199Y018025D01*
X018199Y017465D01*
X018243Y017465D01*
X018330Y017479D01*
X018414Y017506D01*
X018493Y017546D01*
X018564Y017598D01*
X018626Y017660D01*
X018678Y017731D01*
X018718Y017810D01*
X018745Y017894D01*
X018759Y017981D01*
X018759Y018025D01*
X018759Y018069D01*
X018745Y018156D01*
X018718Y018240D01*
X018678Y018319D01*
X018626Y018390D01*
X018564Y018452D01*
X018493Y018504D01*
X018451Y018525D01*
X018493Y018546D01*
X018564Y018598D01*
X018626Y018660D01*
X018678Y018731D01*
X018718Y018810D01*
X018745Y018894D01*
X018759Y018981D01*
X018759Y019025D01*
X018199Y019025D01*
X018199Y019585D01*
X018284Y019579D02*
X019449Y019579D01*
X019449Y019260D02*
X018708Y019260D01*
X018753Y018942D02*
X019449Y018942D01*
X019449Y018623D02*
X018589Y018623D01*
X018685Y018305D02*
X019449Y018305D01*
X019449Y017986D02*
X018759Y017986D01*
X018759Y018025D02*
X018199Y018025D01*
X018759Y018025D01*
X018632Y017668D02*
X019449Y017668D01*
X019449Y017349D02*
X016824Y017349D01*
X016824Y017031D02*
X019449Y017031D01*
X019949Y017031D02*
X020197Y017031D01*
X019949Y017349D02*
X022030Y017349D01*
X022235Y017668D02*
X020326Y017668D01*
X020072Y017668D02*
X019949Y017668D01*
X021199Y017715D02*
X021243Y017715D01*
X021330Y017729D01*
X021414Y017756D01*
X021493Y017796D01*
X021564Y017848D01*
X021626Y017910D01*
X021678Y017981D01*
X021718Y018060D01*
X021745Y018144D01*
X021759Y018231D01*
X021759Y018275D01*
X021759Y018319D01*
X021745Y018406D01*
X021718Y018490D01*
X021678Y018569D01*
X021626Y018640D01*
X021564Y018702D01*
X021493Y018754D01*
X021451Y018775D01*
X021493Y018796D01*
X021564Y018848D01*
X021626Y018910D01*
X021678Y018981D01*
X021718Y019060D01*
X021745Y019144D01*
X021759Y019231D01*
X021759Y019275D01*
X021759Y019319D01*
X021745Y019406D01*
X021718Y019490D01*
X021678Y019569D01*
X021626Y019640D01*
X021564Y019702D01*
X021493Y019754D01*
X021451Y019775D01*
X021493Y019796D01*
X021564Y019848D01*
X021626Y019910D01*
X021678Y019981D01*
X021718Y020060D01*
X021745Y020144D01*
X021759Y020231D01*
X021759Y020275D01*
X021759Y020319D01*
X021745Y020406D01*
X021718Y020490D01*
X021678Y020569D01*
X021626Y020640D01*
X021564Y020702D01*
X021493Y020754D01*
X021414Y020794D01*
X021330Y020821D01*
X021243Y020835D01*
X021199Y020835D01*
X021155Y020835D01*
X021068Y020821D01*
X020984Y020794D01*
X020906Y020754D01*
X020834Y020702D01*
X020772Y020640D01*
X020720Y020569D01*
X020680Y020490D01*
X020653Y020406D01*
X020639Y020319D01*
X020639Y020275D01*
X021199Y020275D01*
X021199Y020275D01*
X021199Y020835D01*
X021199Y020275D01*
X021199Y020275D01*
X021199Y020275D01*
X021199Y019715D01*
X021199Y019275D01*
X021199Y019275D01*
X021199Y018275D01*
X021199Y018275D01*
X021199Y017715D01*
X021199Y017986D02*
X021199Y017986D01*
X021199Y018275D02*
X021199Y018275D01*
X021759Y018275D01*
X021199Y018275D01*
X021199Y018305D02*
X021199Y018305D01*
X021199Y018623D02*
X021199Y018623D01*
X021199Y018942D02*
X021199Y018942D01*
X021199Y019260D02*
X021199Y019260D01*
X021199Y019275D02*
X021199Y019275D01*
X021759Y019275D01*
X021199Y019275D01*
X021199Y019579D02*
X021199Y019579D01*
X021199Y019897D02*
X021199Y019897D01*
X021199Y020216D02*
X021199Y020216D01*
X021199Y020275D02*
X021199Y020275D01*
X021759Y020275D01*
X021199Y020275D01*
X021199Y020534D02*
X021199Y020534D01*
X020703Y020534D02*
X020454Y020534D01*
X020294Y020216D02*
X020641Y020216D01*
X020785Y019897D02*
X020135Y019897D01*
X020628Y020853D02*
X022005Y020853D01*
X022048Y020534D02*
X021696Y020534D01*
X021757Y020216D02*
X022277Y020216D01*
X022050Y019897D02*
X021613Y019897D01*
X021671Y019579D02*
X022005Y019579D01*
X022110Y019260D02*
X021759Y019260D01*
X021649Y018942D02*
X022428Y018942D01*
X022147Y018623D02*
X021638Y018623D01*
X021759Y018305D02*
X022105Y018305D01*
X022266Y017986D02*
X021680Y017986D01*
X023163Y017986D02*
X024305Y017986D01*
X024316Y017668D02*
X023163Y017668D01*
X023368Y017349D02*
X024086Y017349D01*
X024699Y017349D02*
X024699Y017349D01*
X024699Y017668D02*
X024699Y017668D01*
X024683Y017986D02*
X024683Y017986D01*
X024683Y018305D02*
X024683Y018305D01*
X024683Y018623D02*
X024683Y018623D01*
X024683Y018942D02*
X024683Y018942D01*
X024538Y018942D02*
X023001Y018942D01*
X023283Y018623D02*
X024168Y018623D01*
X024131Y018305D02*
X023325Y018305D01*
X023289Y019260D02*
X024187Y019260D01*
X024059Y019579D02*
X023393Y019579D01*
X023348Y019897D02*
X024104Y019897D01*
X024380Y020216D02*
X023121Y020216D01*
X023350Y020534D02*
X024102Y020534D01*
X024060Y020853D02*
X023393Y020853D01*
X023284Y021171D02*
X024191Y021171D01*
X024699Y021171D02*
X024699Y021171D01*
X024699Y020853D02*
X024699Y020853D01*
X024699Y020534D02*
X024699Y020534D01*
X024699Y020216D02*
X024699Y020216D01*
X024699Y019897D02*
X024699Y019897D01*
X024699Y019579D02*
X024699Y019579D01*
X024699Y019260D02*
X024699Y019260D01*
X024829Y018942D02*
X025214Y018942D01*
X025211Y019260D02*
X025214Y019260D01*
X025198Y018623D02*
X025214Y018623D01*
X025214Y017986D02*
X025061Y017986D01*
X025082Y017668D02*
X025214Y017668D01*
X025214Y016394D02*
X023248Y016394D01*
X023383Y016075D02*
X025214Y016075D01*
X025214Y015757D02*
X023316Y015757D01*
X023274Y015438D02*
X024431Y015438D01*
X024254Y015120D02*
X023434Y015120D01*
X023392Y014801D02*
X024300Y014801D01*
X024577Y014483D02*
X023229Y014483D01*
X023427Y014164D02*
X024322Y014164D01*
X024336Y013846D02*
X023410Y013846D01*
X023189Y013527D02*
X024674Y013527D01*
X024824Y013527D02*
X024824Y013527D01*
X024974Y013527D02*
X025214Y013527D01*
X025214Y013209D02*
X016336Y013209D01*
X016573Y013527D02*
X022459Y013527D01*
X022238Y013846D02*
X016543Y013846D01*
X017173Y013015D02*
X017251Y013055D01*
X017334Y013082D01*
X017421Y013096D01*
X017465Y013096D01*
X017465Y012539D01*
X017465Y012539D01*
X016908Y012539D01*
X016908Y012583D01*
X016922Y012669D01*
X016949Y012753D01*
X016989Y012831D01*
X017040Y012902D01*
X017102Y012964D01*
X017173Y013015D01*
X017032Y012890D02*
X014219Y012890D01*
X014175Y012908D02*
X013973Y012908D01*
X013786Y012831D01*
X013643Y012688D01*
X013566Y012501D01*
X013566Y012299D01*
X013643Y012112D01*
X013786Y011969D01*
X013973Y011892D01*
X014175Y011892D01*
X014362Y011969D01*
X014505Y012112D01*
X014582Y012299D01*
X014582Y012501D01*
X014505Y012688D01*
X014362Y012831D01*
X014175Y012908D01*
X013929Y012890D02*
X011844Y012890D01*
X011800Y012908D02*
X011598Y012908D01*
X011411Y012831D01*
X011268Y012688D01*
X011191Y012501D01*
X011191Y012299D01*
X011268Y012112D01*
X011411Y011969D01*
X011598Y011892D01*
X011800Y011892D01*
X011987Y011969D01*
X012130Y012112D01*
X012207Y012299D01*
X012207Y012501D01*
X012130Y012688D01*
X011987Y012831D01*
X011800Y012908D01*
X011554Y012890D02*
X009940Y012890D01*
X009948Y012883D02*
X009777Y013053D01*
X009554Y013146D01*
X009313Y013146D01*
X009090Y013053D01*
X008941Y012905D01*
X008793Y013053D01*
X008570Y013146D01*
X008328Y013146D01*
X008105Y013053D01*
X007935Y012883D01*
X007923Y012855D01*
X007890Y012902D01*
X007828Y012964D01*
X007757Y013015D01*
X007679Y013055D01*
X007595Y013082D01*
X007509Y013096D01*
X007465Y013096D01*
X007465Y012539D01*
X007465Y012539D01*
X007465Y013096D01*
X007421Y013096D01*
X007334Y013082D01*
X007251Y013055D01*
X007173Y013015D01*
X007102Y012964D01*
X007040Y012902D01*
X006989Y012831D01*
X006949Y012753D01*
X006922Y012669D01*
X006908Y012583D01*
X006908Y012539D01*
X007465Y012539D01*
X007465Y012539D01*
X007465Y011982D01*
X007509Y011982D01*
X007595Y011996D01*
X007679Y012023D01*
X007757Y012063D01*
X007828Y012114D01*
X007890Y012176D01*
X007923Y012222D01*
X007935Y012195D01*
X008105Y012024D01*
X008328Y011932D01*
X008570Y011932D01*
X008793Y012024D01*
X008941Y012173D01*
X009090Y012024D01*
X009313Y011932D01*
X009554Y011932D01*
X009777Y012024D01*
X009948Y012195D01*
X010040Y012418D01*
X010040Y012659D01*
X009948Y012883D01*
X010040Y012572D02*
X011220Y012572D01*
X011210Y012253D02*
X009972Y012253D01*
X009560Y011935D02*
X011495Y011935D01*
X011362Y011706D02*
X011505Y011563D01*
X011582Y011376D01*
X011582Y011174D01*
X011505Y010987D01*
X011362Y010844D01*
X011175Y010767D01*
X010973Y010767D01*
X010786Y010844D01*
X010643Y010987D01*
X010566Y011174D01*
X010566Y011376D01*
X010643Y011563D01*
X010786Y011706D01*
X010973Y011783D01*
X011175Y011783D01*
X011362Y011706D01*
X011452Y011616D02*
X017055Y011616D01*
X016929Y011298D02*
X011582Y011298D01*
X011497Y010979D02*
X017021Y010979D01*
X017449Y010979D02*
X017449Y010979D01*
X017449Y011298D02*
X017449Y011298D01*
X017449Y011616D02*
X017449Y011616D01*
X017465Y011982D02*
X017465Y012539D01*
X017465Y012539D01*
X016908Y012539D01*
X016908Y012495D01*
X016922Y012408D01*
X016949Y012325D01*
X016989Y012247D01*
X017040Y012176D01*
X017102Y012114D01*
X017173Y012063D01*
X017251Y012023D01*
X017334Y011996D01*
X017421Y011982D01*
X017465Y011982D01*
X017465Y012253D02*
X017465Y012253D01*
X017465Y012572D02*
X017465Y012572D01*
X017465Y012890D02*
X017465Y012890D01*
X017898Y012890D02*
X017942Y012890D01*
X018322Y011935D02*
X014278Y011935D01*
X013870Y011935D02*
X011903Y011935D01*
X012188Y012253D02*
X013585Y012253D01*
X013595Y012572D02*
X012178Y012572D01*
X011584Y013209D02*
X011226Y013209D01*
X010949Y013209D02*
X010949Y013209D01*
X010672Y013209D02*
X006059Y013209D01*
X006005Y013527D02*
X010442Y013527D01*
X010466Y013846D02*
X005882Y013846D01*
X006059Y014164D02*
X010870Y014164D01*
X010949Y014164D02*
X010949Y014164D01*
X011028Y014164D02*
X011701Y014164D01*
X010949Y013846D02*
X010949Y013846D01*
X010949Y013527D02*
X010949Y013527D01*
X010685Y014483D02*
X013523Y014483D01*
X013316Y014801D02*
X010998Y014801D01*
X011124Y015120D02*
X013365Y015120D01*
X013566Y015438D02*
X011124Y015438D01*
X011956Y016394D02*
X006059Y016394D01*
X006026Y016075D02*
X006163Y016075D01*
X005887Y015757D02*
X005830Y015757D01*
X005838Y014801D02*
X005900Y014801D01*
X006023Y014483D02*
X006213Y014483D01*
X007220Y014483D02*
X009678Y014483D01*
X009365Y014801D02*
X007533Y014801D01*
X007660Y015120D02*
X009238Y015120D01*
X009238Y015438D02*
X007660Y015438D01*
X007546Y015757D02*
X009352Y015757D01*
X009628Y016075D02*
X007270Y016075D01*
X006769Y017986D02*
X005990Y017986D01*
X006059Y018305D02*
X006691Y018305D01*
X005086Y017775D02*
X004932Y017621D01*
X004917Y017584D01*
X004876Y017640D01*
X004814Y017702D01*
X004758Y017743D01*
X004795Y017758D01*
X004949Y017912D01*
X005086Y017775D01*
X004979Y017668D02*
X004848Y017668D01*
X002050Y017668D02*
X001309Y017668D01*
X001309Y017986D02*
X001908Y017986D01*
X001839Y018305D02*
X001309Y018305D01*
X001309Y018623D02*
X001934Y018623D01*
X001927Y018942D02*
X001309Y018942D01*
X001309Y019260D02*
X001839Y019260D01*
X001915Y019579D02*
X001309Y019579D01*
X001309Y019897D02*
X001964Y019897D01*
X001839Y020216D02*
X001309Y020216D01*
X001309Y020534D02*
X001896Y020534D01*
X002009Y020853D02*
X001309Y020853D01*
X001309Y021171D02*
X001839Y021171D01*
X001878Y021490D02*
X001309Y021490D01*
X001309Y021808D02*
X002053Y021808D01*
X001850Y022127D02*
X001309Y022127D01*
X001309Y022445D02*
X001859Y022445D01*
X002075Y022764D02*
X001309Y022764D01*
X001309Y023082D02*
X001869Y023082D01*
X001841Y023401D02*
X001309Y023401D01*
X001309Y023719D02*
X002030Y023719D01*
X001887Y024038D02*
X001309Y024038D01*
X001309Y024356D02*
X001839Y024356D01*
X001986Y024675D02*
X001309Y024675D01*
X001309Y024993D02*
X001906Y024993D01*
X001839Y025312D02*
X001309Y025312D01*
X001309Y025630D02*
X001941Y025630D01*
X007465Y023082D02*
X007465Y023082D01*
X007595Y023082D02*
X008175Y023082D01*
X008723Y023082D02*
X009159Y023082D01*
X009708Y023082D02*
X010449Y023082D01*
X010449Y022764D02*
X009997Y022764D01*
X010040Y022445D02*
X010449Y022445D01*
X010449Y022127D02*
X009879Y022127D01*
X011599Y019897D02*
X016199Y019897D01*
X016199Y019579D02*
X011253Y019579D01*
X011268Y019260D02*
X016199Y019260D01*
X016199Y018942D02*
X011506Y018942D01*
X011865Y020216D02*
X016199Y020216D01*
X016199Y020534D02*
X015621Y020534D01*
X015940Y020853D02*
X016199Y020853D01*
X016199Y021171D02*
X015948Y021171D01*
X016199Y021490D02*
X015683Y021490D01*
X016824Y022127D02*
X017090Y022127D01*
X016916Y022445D02*
X016824Y022445D01*
X016824Y022764D02*
X016954Y022764D01*
X016824Y023082D02*
X017335Y023082D01*
X017840Y022127D02*
X018003Y022127D01*
X018199Y019260D02*
X018199Y019260D01*
X018199Y019025D02*
X018199Y019025D01*
X018199Y018942D02*
X018199Y018942D01*
X018199Y018623D02*
X018199Y018623D01*
X018199Y018305D02*
X018199Y018305D01*
X018199Y018025D02*
X018199Y018025D01*
X018199Y017986D02*
X018199Y017986D01*
X018199Y017668D02*
X018199Y017668D01*
X017767Y017668D02*
X017704Y017668D01*
X020801Y021171D02*
X022114Y021171D01*
X022414Y021490D02*
X020975Y021490D01*
X021149Y021808D02*
X022144Y021808D01*
X022105Y022127D02*
X021199Y022127D01*
X021199Y022445D02*
X022272Y022445D01*
X022229Y022764D02*
X021199Y022764D01*
X021199Y023082D02*
X022028Y023082D01*
X022005Y023401D02*
X021199Y023401D01*
X021199Y023719D02*
X022162Y023719D01*
X022098Y024038D02*
X021199Y024038D01*
X021199Y024356D02*
X022005Y024356D01*
X022062Y024675D02*
X021199Y024675D01*
X021199Y024993D02*
X022318Y024993D01*
X022195Y025312D02*
X021199Y025312D01*
X021199Y025630D02*
X022105Y025630D01*
X022178Y025949D02*
X021199Y025949D01*
X020308Y028497D02*
X020090Y028497D01*
X020153Y029452D02*
X020265Y029452D01*
X019550Y029452D02*
X019401Y029452D01*
X019401Y029771D02*
X019550Y029771D01*
X021127Y029452D02*
X021249Y029452D01*
X017949Y028275D02*
X017949Y028275D01*
X017949Y028178D02*
X017949Y028178D01*
X017949Y027860D02*
X017949Y027860D01*
X017573Y027860D02*
X017396Y027860D01*
X016493Y031682D02*
X016405Y031682D01*
X015493Y031682D02*
X015405Y031682D01*
X014493Y031682D02*
X014405Y031682D01*
X015444Y032956D02*
X015444Y032956D01*
X015444Y033150D02*
X015444Y033150D01*
X016324Y032956D02*
X016324Y032956D01*
X024598Y030726D02*
X024747Y030726D01*
X024747Y030408D02*
X024598Y030408D01*
X025090Y028497D02*
X025214Y028497D01*
X025214Y022764D02*
X025090Y022764D01*
X025055Y022445D02*
X025214Y022445D01*
X025207Y021171D02*
X025214Y021171D01*
X022824Y016025D02*
X022824Y016025D01*
X024824Y014025D02*
X024824Y014025D01*
X024824Y013846D02*
X024824Y013846D01*
X025214Y012253D02*
X023336Y012253D01*
X023384Y012025D02*
X022824Y012025D01*
X022824Y012025D01*
X022824Y012025D01*
X023384Y012025D01*
X023377Y011935D02*
X025214Y011935D01*
X025214Y011616D02*
X023207Y011616D01*
X023371Y011298D02*
X024320Y011298D01*
X024254Y010979D02*
X023434Y010979D01*
X023322Y010661D02*
X024382Y010661D01*
X024412Y010342D02*
X023353Y010342D01*
X023434Y010024D02*
X024304Y010024D01*
X024414Y009705D02*
X023352Y009705D01*
X022296Y009705D02*
X020940Y009705D01*
X020932Y009723D02*
X020772Y009883D01*
X020562Y009970D01*
X020336Y009970D01*
X020126Y009883D01*
X019966Y009723D01*
X019916Y009602D01*
X019880Y009688D01*
X019737Y009831D01*
X019550Y009908D01*
X019348Y009908D01*
X019161Y009831D01*
X019018Y009688D01*
X018953Y009531D01*
X018931Y009600D01*
X018894Y009673D01*
X018846Y009739D01*
X018788Y009797D01*
X018722Y009845D01*
X018649Y009882D01*
X018571Y009907D01*
X018490Y009920D01*
X018449Y009920D01*
X018408Y009920D01*
X018327Y009907D01*
X018249Y009882D01*
X018177Y009845D01*
X018110Y009797D01*
X018052Y009739D01*
X018004Y009673D01*
X017967Y009600D01*
X017942Y009522D01*
X017929Y009441D01*
X017929Y009400D01*
X017929Y009359D01*
X017942Y009278D01*
X017943Y009276D01*
X017925Y009283D01*
X017723Y009283D01*
X017536Y009206D01*
X017393Y009063D01*
X017316Y008876D01*
X017316Y008674D01*
X017393Y008487D01*
X017536Y008344D01*
X017723Y008267D01*
X017887Y008267D01*
X017966Y008077D01*
X018126Y007917D01*
X018336Y007830D01*
X018562Y007830D01*
X018772Y007917D01*
X018932Y008077D01*
X019019Y008287D01*
X019019Y008513D01*
X018932Y008723D01*
X018772Y008883D01*
X018666Y008927D01*
X018722Y008955D01*
X018788Y009003D01*
X018846Y009061D01*
X018894Y009127D01*
X018931Y009200D01*
X018953Y009269D01*
X019018Y009112D01*
X019161Y008969D01*
X019348Y008892D01*
X019550Y008892D01*
X019737Y008969D01*
X019880Y009112D01*
X019916Y009198D01*
X019966Y009077D01*
X020126Y008917D01*
X020167Y008900D01*
X020126Y008883D01*
X019966Y008723D01*
X019879Y008513D01*
X019879Y008287D01*
X019966Y008077D01*
X020126Y007917D01*
X020336Y007830D01*
X020562Y007830D01*
X020772Y007917D01*
X020932Y008077D01*
X021019Y008287D01*
X021019Y008513D01*
X020932Y008723D01*
X020772Y008883D01*
X020731Y008900D01*
X020772Y008917D01*
X020932Y009077D01*
X021019Y009287D01*
X021019Y009513D01*
X020932Y009723D01*
X021019Y009387D02*
X025214Y009387D01*
X025214Y009068D02*
X020923Y009068D01*
X020906Y008750D02*
X021691Y008750D01*
X021588Y008707D02*
X021392Y008512D01*
X021287Y008257D01*
X021287Y007980D01*
X021392Y007725D01*
X021491Y007626D01*
X021392Y007527D01*
X021287Y007272D01*
X021287Y006996D01*
X021392Y006741D01*
X021560Y006573D01*
X021475Y006488D01*
X021384Y006269D01*
X021384Y006031D01*
X021475Y005812D01*
X021560Y005727D01*
X021392Y005559D01*
X021287Y005304D01*
X021287Y005028D01*
X021392Y004773D01*
X021491Y004674D01*
X021392Y004575D01*
X021287Y004320D01*
X021287Y004043D01*
X021392Y003788D01*
X021588Y003593D01*
X021843Y003488D01*
X022119Y003488D01*
X022374Y003593D01*
X022569Y003788D01*
X022674Y004043D01*
X022674Y004320D01*
X022569Y004575D01*
X022470Y004674D01*
X022569Y004773D01*
X022674Y005028D01*
X022674Y005304D01*
X022569Y005559D01*
X022401Y005727D01*
X022486Y005812D01*
X022577Y006031D01*
X022577Y006269D01*
X022486Y006488D01*
X022401Y006573D01*
X022569Y006741D01*
X022674Y006996D01*
X022674Y007272D01*
X022569Y007527D01*
X022470Y007626D01*
X022569Y007725D01*
X022674Y007980D01*
X022674Y008257D01*
X022569Y008512D01*
X022374Y008707D01*
X022119Y008812D01*
X021843Y008812D01*
X021588Y008707D01*
X021359Y008431D02*
X021019Y008431D01*
X020947Y008113D02*
X021287Y008113D01*
X021364Y007794D02*
X016528Y007794D01*
X016505Y007737D02*
X016582Y007924D01*
X016582Y008075D01*
X016723Y008017D01*
X016925Y008017D01*
X017112Y008094D01*
X017255Y008237D01*
X017332Y008424D01*
X017332Y008626D01*
X017255Y008813D01*
X017112Y008956D01*
X016925Y009033D01*
X016723Y009033D01*
X016536Y008956D01*
X016393Y008813D01*
X016316Y008626D01*
X016316Y008475D01*
X016175Y008533D01*
X015973Y008533D01*
X015786Y008456D01*
X015643Y008313D01*
X015566Y008126D01*
X015566Y007924D01*
X015643Y007737D01*
X015786Y007594D01*
X015973Y007517D01*
X016175Y007517D01*
X016362Y007594D01*
X016505Y007737D01*
X015761Y008431D02*
X009782Y008431D01*
X009687Y008470D02*
X009461Y008470D01*
X009251Y008383D01*
X009207Y008339D01*
X009207Y008501D01*
X009130Y008688D01*
X008987Y008831D01*
X008800Y008908D01*
X008598Y008908D01*
X008411Y008831D01*
X008268Y008688D01*
X008191Y008501D01*
X008191Y008299D01*
X008268Y008112D01*
X008411Y007969D01*
X008598Y007892D01*
X008800Y007892D01*
X008987Y007969D01*
X009004Y007986D01*
X009004Y007787D01*
X009091Y007577D01*
X009251Y007417D01*
X009461Y007330D01*
X009687Y007330D01*
X009897Y007417D01*
X010057Y007577D01*
X010144Y007787D01*
X010144Y008013D01*
X010057Y008223D01*
X009897Y008383D01*
X009687Y008470D01*
X009367Y008431D02*
X009207Y008431D01*
X009068Y008750D02*
X010491Y008750D01*
X010485Y008753D02*
X010552Y008705D01*
X010624Y008668D01*
X010702Y008643D01*
X010783Y008630D01*
X010824Y008630D01*
X010824Y009150D01*
X010304Y009150D01*
X010304Y009109D01*
X010317Y009028D01*
X010342Y008950D01*
X010379Y008877D01*
X010427Y008811D01*
X010485Y008753D01*
X010824Y008750D02*
X010824Y008750D01*
X010824Y008630D02*
X010865Y008630D01*
X010946Y008643D01*
X011024Y008668D01*
X011097Y008705D01*
X011163Y008753D01*
X011221Y008811D01*
X011269Y008877D01*
X011297Y008933D01*
X011341Y008827D01*
X011501Y008667D01*
X011711Y008580D01*
X011937Y008580D01*
X012147Y008667D01*
X012307Y008827D01*
X012394Y009037D01*
X012394Y009263D01*
X012307Y009473D01*
X012147Y009633D01*
X011937Y009720D01*
X011711Y009720D01*
X011501Y009633D01*
X011341Y009473D01*
X011297Y009367D01*
X011269Y009423D01*
X011221Y009489D01*
X011163Y009547D01*
X011097Y009595D01*
X011024Y009632D01*
X010993Y009642D01*
X011175Y009642D01*
X011362Y009719D01*
X011505Y009862D01*
X011582Y010049D01*
X011582Y010251D01*
X011505Y010438D01*
X011362Y010581D01*
X011175Y010658D01*
X010973Y010658D01*
X010786Y010581D01*
X010643Y010438D01*
X010566Y010251D01*
X010566Y010049D01*
X010643Y009862D01*
X010786Y009719D01*
X010930Y009660D01*
X010865Y009670D01*
X010824Y009670D01*
X010783Y009670D01*
X010702Y009657D01*
X010624Y009632D01*
X010552Y009595D01*
X010485Y009547D01*
X010427Y009489D01*
X010379Y009423D01*
X010342Y009350D01*
X010317Y009272D01*
X010304Y009191D01*
X010304Y009150D01*
X010824Y009150D01*
X010824Y009150D01*
X010824Y009670D01*
X010824Y009150D01*
X010824Y009150D01*
X010824Y009150D01*
X010824Y008630D01*
X011157Y008750D02*
X011418Y008750D01*
X011473Y008408D02*
X011286Y008331D01*
X011143Y008188D01*
X011066Y008001D01*
X011066Y007799D01*
X011143Y007612D01*
X011286Y007469D01*
X011473Y007392D01*
X011675Y007392D01*
X011862Y007469D01*
X012005Y007612D01*
X012082Y007799D01*
X012082Y008001D01*
X012005Y008188D01*
X011862Y008331D01*
X011675Y008408D01*
X011473Y008408D01*
X011112Y008113D02*
X010103Y008113D01*
X010144Y007794D02*
X011068Y007794D01*
X011280Y007476D02*
X009956Y007476D01*
X009192Y007476D02*
X007956Y007476D01*
X007897Y007417D02*
X008057Y007577D01*
X008144Y007787D01*
X008144Y008013D01*
X008057Y008223D01*
X007897Y008383D01*
X007687Y008470D01*
X007461Y008470D01*
X007251Y008383D01*
X007091Y008223D01*
X007004Y008013D01*
X007004Y007787D01*
X007091Y007577D01*
X007251Y007417D01*
X007461Y007330D01*
X007687Y007330D01*
X007897Y007417D01*
X008144Y007794D02*
X009004Y007794D01*
X008268Y008113D02*
X008103Y008113D01*
X008191Y008431D02*
X007782Y008431D01*
X007367Y008431D02*
X005264Y008431D01*
X005220Y008750D02*
X008330Y008750D01*
X007045Y008113D02*
X005098Y008113D01*
X005314Y007794D02*
X007004Y007794D01*
X007192Y007476D02*
X005361Y007476D01*
X005260Y007157D02*
X021287Y007157D01*
X021352Y006839D02*
X015686Y006839D01*
X015682Y006848D02*
X015522Y007008D01*
X015312Y007095D01*
X015086Y007095D01*
X014876Y007008D01*
X014716Y006848D01*
X014629Y006638D01*
X014629Y006412D01*
X014716Y006202D01*
X014876Y006042D01*
X015086Y005955D01*
X015312Y005955D01*
X015522Y006042D01*
X015682Y006202D01*
X015769Y006412D01*
X015769Y006638D01*
X015682Y006848D01*
X015769Y006520D02*
X021507Y006520D01*
X021384Y006202D02*
X020456Y006202D01*
X020369Y006238D02*
X019994Y006238D01*
X019647Y006094D01*
X019382Y005829D01*
X019238Y005482D01*
X019238Y005107D01*
X019382Y004760D01*
X019647Y004495D01*
X019994Y004352D01*
X020369Y004352D01*
X020716Y004495D01*
X020981Y004760D01*
X021124Y005107D01*
X021124Y005482D01*
X020981Y005829D01*
X020716Y006094D01*
X020369Y006238D01*
X019906Y006202D02*
X016992Y006202D01*
X016904Y006238D02*
X016529Y006238D01*
X016183Y006094D01*
X015917Y005829D01*
X015774Y005482D01*
X015774Y005107D01*
X015917Y004760D01*
X016183Y004495D01*
X016529Y004352D01*
X016904Y004352D01*
X017251Y004495D01*
X017516Y004760D01*
X017660Y005107D01*
X017660Y005482D01*
X017516Y005829D01*
X017251Y006094D01*
X016904Y006238D01*
X016442Y006202D02*
X015682Y006202D01*
X015971Y005883D02*
X015075Y005883D01*
X014823Y005883D02*
X012075Y005883D01*
X011823Y005883D02*
X010927Y005883D01*
X010981Y005829D02*
X010716Y006094D01*
X010369Y006238D01*
X009994Y006238D01*
X009647Y006094D01*
X009382Y005829D01*
X009238Y005482D01*
X009238Y005107D01*
X009382Y004760D01*
X009647Y004495D01*
X009994Y004352D01*
X010369Y004352D01*
X010716Y004495D01*
X010981Y004760D01*
X011124Y005107D01*
X011124Y005482D01*
X010981Y005829D01*
X011090Y005565D02*
X011409Y005565D01*
X011339Y005246D02*
X011124Y005246D01*
X011050Y004928D02*
X011434Y004928D01*
X011427Y004609D02*
X010829Y004609D01*
X010937Y004220D02*
X010711Y004220D01*
X010501Y004133D01*
X010341Y003973D01*
X010254Y003763D01*
X010254Y003537D01*
X010341Y003327D01*
X010501Y003167D01*
X010711Y003080D01*
X010937Y003080D01*
X011147Y003167D01*
X011307Y003327D01*
X011394Y003537D01*
X011394Y003763D01*
X011307Y003973D01*
X011147Y004133D01*
X010937Y004220D01*
X011339Y004291D02*
X005302Y004291D01*
X005259Y004609D02*
X006069Y004609D01*
X006183Y004495D02*
X005917Y004760D01*
X005774Y005107D01*
X005774Y005482D01*
X005917Y005829D01*
X006183Y006094D01*
X006529Y006238D01*
X006904Y006238D01*
X007251Y006094D01*
X007516Y005829D01*
X007660Y005482D01*
X007660Y005107D01*
X007516Y004760D01*
X007251Y004495D01*
X006904Y004352D01*
X006529Y004352D01*
X006183Y004495D01*
X005848Y004928D02*
X005361Y004928D01*
X005314Y005246D02*
X005774Y005246D01*
X005808Y005565D02*
X005078Y005565D01*
X004855Y005883D02*
X005971Y005883D01*
X006442Y006202D02*
X005272Y006202D01*
X005361Y006520D02*
X012629Y006520D01*
X012629Y006412D02*
X012629Y006638D01*
X012716Y006848D01*
X012876Y007008D01*
X013086Y007095D01*
X013312Y007095D01*
X013522Y007008D01*
X013682Y006848D01*
X013769Y006638D01*
X013769Y006412D01*
X013682Y006202D01*
X013522Y006042D01*
X013312Y005955D01*
X013086Y005955D01*
X012876Y006042D01*
X012716Y006202D01*
X012629Y006412D01*
X012716Y006202D02*
X010456Y006202D01*
X009906Y006202D02*
X006992Y006202D01*
X007462Y005883D02*
X009436Y005883D01*
X009272Y005565D02*
X007626Y005565D01*
X007660Y005246D02*
X009238Y005246D01*
X009313Y004928D02*
X007585Y004928D01*
X007365Y004609D02*
X009533Y004609D01*
X010340Y003972D02*
X005361Y003972D01*
X005271Y003654D02*
X010254Y003654D01*
X010338Y003335D02*
X005184Y003335D01*
X004151Y003335D02*
X003264Y003335D01*
X003278Y003310D02*
X003236Y003383D01*
X003184Y003450D01*
X003124Y003510D01*
X003058Y003561D01*
X002984Y003604D01*
X002906Y003636D01*
X002825Y003658D01*
X002741Y003669D01*
X002699Y003669D01*
X002657Y003669D01*
X002573Y003658D01*
X002492Y003636D01*
X002414Y003604D01*
X002341Y003561D01*
X002274Y003510D01*
X002214Y003450D01*
X002163Y003383D01*
X002120Y003310D01*
X002088Y003232D01*
X002066Y003151D01*
X002055Y003067D01*
X002055Y003025D01*
X002055Y002983D01*
X002066Y002899D01*
X002088Y002818D01*
X002120Y002740D01*
X002163Y002667D01*
X002214Y002600D01*
X002274Y002540D01*
X002341Y002489D01*
X002414Y002446D01*
X002492Y002414D01*
X002573Y002392D01*
X002657Y002381D01*
X002699Y002381D01*
X002699Y003025D01*
X002055Y003025D01*
X002699Y003025D01*
X002699Y003025D01*
X002699Y003025D01*
X002699Y003669D01*
X002699Y003025D01*
X002699Y003025D01*
X002699Y002381D01*
X002741Y002381D01*
X002825Y002392D01*
X002906Y002414D01*
X002984Y002446D01*
X003058Y002489D01*
X003124Y002540D01*
X003184Y002600D01*
X003236Y002667D01*
X003278Y002740D01*
X003310Y002818D01*
X003332Y002899D01*
X003343Y002983D01*
X003343Y003025D01*
X003343Y003067D01*
X003332Y003151D01*
X003310Y003232D01*
X003278Y003310D01*
X003343Y003025D02*
X002699Y003025D01*
X002699Y003025D01*
X003343Y003025D01*
X003343Y003017D02*
X004071Y003017D01*
X004158Y002698D02*
X003254Y002698D01*
X002699Y002698D02*
X002699Y002698D01*
X002699Y003017D02*
X002699Y003017D01*
X002699Y003335D02*
X002699Y003335D01*
X002699Y003654D02*
X002699Y003654D01*
X002557Y003654D02*
X001309Y003654D01*
X001309Y003972D02*
X003974Y003972D01*
X004064Y003654D02*
X002841Y003654D01*
X002135Y003335D02*
X001309Y003335D01*
X001309Y003017D02*
X002055Y003017D01*
X002144Y002698D02*
X001309Y002698D01*
X001309Y002380D02*
X004057Y002380D01*
X003974Y002061D02*
X001309Y002061D01*
X001309Y001743D02*
X004040Y001743D01*
X004069Y001424D02*
X003175Y001424D01*
X003295Y001106D02*
X003974Y001106D01*
X004028Y000787D02*
X003233Y000787D01*
X002223Y001424D02*
X002190Y001424D01*
X002173Y004609D02*
X002240Y004609D01*
X003268Y008113D02*
X004237Y008113D01*
X004071Y008431D02*
X003393Y008431D01*
X003357Y008750D02*
X004115Y008750D01*
X004128Y009068D02*
X003137Y009068D01*
X001309Y011616D02*
X006246Y011616D01*
X006652Y011616D02*
X007180Y011616D01*
X007177Y011614D02*
X007129Y011548D01*
X007092Y011475D01*
X007067Y011397D01*
X007054Y011316D01*
X007054Y011275D01*
X007054Y011234D01*
X007067Y011153D01*
X007092Y011075D01*
X007129Y011002D01*
X007177Y010936D01*
X007235Y010878D01*
X007302Y010830D01*
X007374Y010793D01*
X007452Y010768D01*
X007533Y010755D01*
X007574Y010755D01*
X007574Y011275D01*
X007054Y011275D01*
X007574Y011275D01*
X007574Y011275D01*
X007574Y011795D01*
X007533Y011795D01*
X007452Y011782D01*
X007374Y011757D01*
X007302Y011720D01*
X007235Y011672D01*
X007177Y011614D01*
X007054Y011298D02*
X006938Y011298D01*
X006928Y010979D02*
X007146Y010979D01*
X007574Y010979D02*
X007574Y010979D01*
X007574Y010755D02*
X007574Y011275D01*
X007574Y011275D01*
X007574Y011275D01*
X007574Y011795D01*
X007615Y011795D01*
X007696Y011782D01*
X007774Y011757D01*
X007847Y011720D01*
X007913Y011672D01*
X007971Y011614D01*
X008019Y011548D01*
X008047Y011492D01*
X008091Y011598D01*
X008251Y011758D01*
X008461Y011845D01*
X008687Y011845D01*
X008897Y011758D01*
X009057Y011598D01*
X009144Y011388D01*
X009144Y011162D01*
X009057Y010952D01*
X008897Y010792D01*
X008687Y010705D01*
X008461Y010705D01*
X008251Y010792D01*
X008091Y010952D01*
X008047Y011058D01*
X008019Y011002D01*
X007971Y010936D01*
X007913Y010878D01*
X007847Y010830D01*
X007774Y010793D01*
X007696Y010768D01*
X007615Y010755D01*
X007574Y010755D01*
X007574Y011298D02*
X007574Y011298D01*
X007574Y011616D02*
X007574Y011616D01*
X007465Y011982D02*
X007421Y011982D01*
X007334Y011996D01*
X007251Y012023D01*
X007173Y012063D01*
X007102Y012114D01*
X007040Y012176D01*
X006989Y012247D01*
X006949Y012325D01*
X006922Y012408D01*
X006908Y012495D01*
X006908Y012539D01*
X007465Y012539D01*
X007465Y012539D01*
X007465Y011982D01*
X007465Y012253D02*
X007465Y012253D01*
X007465Y012572D02*
X007465Y012572D01*
X007465Y012890D02*
X007465Y012890D01*
X007898Y012890D02*
X007942Y012890D01*
X007032Y012890D02*
X005927Y012890D01*
X005986Y012572D02*
X006908Y012572D01*
X006985Y012253D02*
X006059Y012253D01*
X005968Y011935D02*
X008322Y011935D01*
X008576Y011935D02*
X009306Y011935D01*
X009039Y011616D02*
X010696Y011616D01*
X010566Y011298D02*
X009144Y011298D01*
X009068Y010979D02*
X010651Y010979D01*
X010604Y010342D02*
X005356Y010342D01*
X005179Y010024D02*
X010576Y010024D01*
X010821Y009705D02*
X005338Y009705D01*
X005361Y009387D02*
X010361Y009387D01*
X010311Y009068D02*
X005208Y009068D01*
X005302Y006839D02*
X012712Y006839D01*
X011868Y007476D02*
X021371Y007476D01*
X022590Y007476D02*
X025214Y007476D01*
X025214Y007157D02*
X022674Y007157D01*
X022609Y006839D02*
X025214Y006839D01*
X025214Y006520D02*
X024477Y006520D01*
X024486Y006508D02*
X024434Y006575D01*
X024374Y006635D01*
X024308Y006686D01*
X024234Y006729D01*
X024156Y006761D01*
X024075Y006783D01*
X023991Y006794D01*
X023949Y006794D01*
X023907Y006794D01*
X023823Y006783D01*
X023742Y006761D01*
X023664Y006729D01*
X023591Y006686D01*
X023524Y006635D01*
X023464Y006575D01*
X023413Y006508D01*
X023370Y006435D01*
X023338Y006357D01*
X023316Y006276D01*
X023305Y006192D01*
X023305Y006150D01*
X023305Y006108D01*
X023316Y006024D01*
X023338Y005943D01*
X023370Y005865D01*
X023413Y005792D01*
X023464Y005725D01*
X023524Y005665D01*
X023591Y005614D01*
X023664Y005571D01*
X023742Y005539D01*
X023823Y005517D01*
X023907Y005506D01*
X023949Y005506D01*
X023949Y006150D01*
X023305Y006150D01*
X023949Y006150D01*
X023949Y006150D01*
X023949Y006150D01*
X023949Y006794D01*
X023949Y006150D01*
X023949Y006150D01*
X023949Y005506D01*
X023991Y005506D01*
X024075Y005517D01*
X024156Y005539D01*
X024234Y005571D01*
X024308Y005614D01*
X024374Y005665D01*
X024434Y005725D01*
X024486Y005792D01*
X024528Y005865D01*
X024560Y005943D01*
X024582Y006024D01*
X024593Y006108D01*
X024593Y006150D01*
X024593Y006192D01*
X024582Y006276D01*
X024560Y006357D01*
X024528Y006435D01*
X024486Y006508D01*
X024592Y006202D02*
X025214Y006202D01*
X025214Y005883D02*
X024535Y005883D01*
X024593Y006150D02*
X023949Y006150D01*
X024593Y006150D01*
X024218Y005565D02*
X025214Y005565D01*
X025214Y005246D02*
X022674Y005246D01*
X022633Y004928D02*
X025214Y004928D01*
X024518Y004609D02*
X024365Y004609D01*
X023533Y004609D02*
X022534Y004609D01*
X022674Y004291D02*
X023353Y004291D01*
X023390Y003972D02*
X022645Y003972D01*
X022434Y003654D02*
X023666Y003654D01*
X024232Y003654D02*
X024650Y003654D01*
X024699Y003017D02*
X024699Y003017D01*
X024699Y002698D02*
X024699Y002698D01*
X024699Y002380D02*
X024699Y002380D01*
X024699Y002061D02*
X024699Y002061D01*
X024699Y001743D02*
X024699Y001743D01*
X024699Y001424D02*
X024699Y001424D01*
X024262Y001424D02*
X024136Y001424D01*
X023699Y001424D02*
X023699Y001424D01*
X023699Y001743D02*
X023699Y001743D01*
X023699Y001775D02*
X023699Y001775D01*
X023699Y002061D02*
X023699Y002061D01*
X023699Y002380D02*
X023699Y002380D01*
X023699Y002698D02*
X023699Y002698D01*
X023699Y002775D02*
X023699Y002775D01*
X023699Y003017D02*
X023699Y003017D01*
X023194Y003017D02*
X021625Y003017D01*
X021859Y002698D02*
X023144Y002698D01*
X023303Y002380D02*
X021952Y002380D01*
X021946Y002061D02*
X023216Y002061D01*
X023139Y001743D02*
X021814Y001743D01*
X021514Y001424D02*
X023262Y001424D01*
X025205Y003017D02*
X025214Y003017D01*
X025214Y003335D02*
X016487Y003335D01*
X016513Y003654D02*
X021527Y003654D01*
X021316Y003972D02*
X016308Y003972D01*
X016069Y004609D02*
X015471Y004609D01*
X015464Y004928D02*
X015848Y004928D01*
X015774Y005246D02*
X015559Y005246D01*
X015489Y005565D02*
X015808Y005565D01*
X014716Y006202D02*
X013682Y006202D01*
X013769Y006520D02*
X014629Y006520D01*
X014712Y006839D02*
X013686Y006839D01*
X013468Y005565D02*
X013430Y005565D01*
X012949Y005565D02*
X012949Y005565D01*
X012949Y005275D02*
X012949Y005275D01*
X012949Y005246D02*
X012949Y005246D01*
X012949Y004928D02*
X012949Y004928D01*
X012949Y004609D02*
X012949Y004609D01*
X012949Y004291D02*
X012949Y004291D01*
X012949Y004275D02*
X012949Y004275D01*
X012949Y003972D02*
X012949Y003972D01*
X012949Y003654D02*
X012949Y003654D01*
X012949Y003335D02*
X012949Y003335D01*
X012949Y003275D02*
X012949Y003275D01*
X012949Y003017D02*
X012949Y003017D01*
X012949Y002698D02*
X012949Y002698D01*
X012949Y002380D02*
X012949Y002380D01*
X012949Y002275D02*
X012949Y002275D01*
X012949Y002061D02*
X012949Y002061D01*
X012949Y001743D02*
X012949Y001743D01*
X012776Y001743D02*
X012257Y001743D01*
X011641Y001743D02*
X011336Y001743D01*
X011377Y002061D02*
X011143Y002061D01*
X010824Y002061D02*
X010824Y002061D01*
X010824Y001743D02*
X010824Y001743D01*
X010505Y002061D02*
X009814Y002061D01*
X010024Y002380D02*
X011339Y002380D01*
X011509Y002698D02*
X010024Y002698D01*
X009814Y003017D02*
X011396Y003017D01*
X011339Y003335D02*
X011311Y003335D01*
X011394Y003654D02*
X011465Y003654D01*
X011414Y003972D02*
X011308Y003972D01*
X011293Y001424D02*
X013725Y001424D01*
X013776Y001743D02*
X013122Y001743D01*
X013379Y001013D02*
X013379Y000787D01*
X014173Y001424D02*
X015439Y001424D01*
X015476Y001743D02*
X015257Y001743D01*
X015949Y001743D02*
X015949Y001743D01*
X015949Y001525D02*
X015949Y001525D01*
X015949Y001424D02*
X015949Y001424D01*
X014641Y001743D02*
X014122Y001743D01*
X013949Y001743D02*
X013949Y001743D01*
X013949Y002061D02*
X013949Y002061D01*
X013949Y002380D02*
X013949Y002380D01*
X013949Y002698D02*
X013949Y002698D01*
X013949Y003017D02*
X013949Y003017D01*
X013949Y003335D02*
X013949Y003335D01*
X013949Y003654D02*
X013949Y003654D01*
X013949Y003972D02*
X013949Y003972D01*
X013949Y004291D02*
X013949Y004291D01*
X013949Y004609D02*
X013949Y004609D01*
X013949Y004928D02*
X013949Y004928D01*
X013949Y005246D02*
X013949Y005246D01*
X013949Y005565D02*
X013949Y005565D01*
X015559Y004291D02*
X021287Y004291D01*
X021427Y004609D02*
X020829Y004609D01*
X021050Y004928D02*
X021328Y004928D01*
X021287Y005246D02*
X021124Y005246D01*
X021090Y005565D02*
X021398Y005565D01*
X021446Y005883D02*
X020927Y005883D01*
X019533Y004609D02*
X017365Y004609D01*
X017585Y004928D02*
X019313Y004928D01*
X019238Y005246D02*
X017660Y005246D01*
X017626Y005565D02*
X019272Y005565D01*
X019436Y005883D02*
X017462Y005883D01*
X017130Y008113D02*
X017951Y008113D01*
X017449Y008431D02*
X017332Y008431D01*
X017316Y008750D02*
X017281Y008750D01*
X017398Y009068D02*
X016525Y009068D01*
X016521Y009043D02*
X016532Y009114D01*
X016532Y009150D01*
X016532Y009186D01*
X016521Y009257D01*
X016499Y009326D01*
X016466Y009390D01*
X016423Y009448D01*
X016372Y009499D01*
X016314Y009542D01*
X016250Y009575D01*
X016181Y009597D01*
X016110Y009608D01*
X016074Y009608D01*
X016038Y009608D01*
X015967Y009597D01*
X015898Y009575D01*
X015834Y009542D01*
X015776Y009499D01*
X015725Y009448D01*
X015682Y009390D01*
X015650Y009326D01*
X015627Y009257D01*
X015616Y009186D01*
X015616Y009150D01*
X015616Y009114D01*
X015627Y009043D01*
X015650Y008974D01*
X015682Y008910D01*
X015725Y008852D01*
X015776Y008801D01*
X015834Y008758D01*
X015898Y008725D01*
X015967Y008703D01*
X016038Y008692D01*
X016074Y008692D01*
X016074Y009150D01*
X015616Y009150D01*
X016074Y009150D01*
X016074Y009150D01*
X016074Y009150D01*
X016074Y009608D01*
X016074Y009150D01*
X016074Y009150D01*
X016074Y008692D01*
X016110Y008692D01*
X016181Y008703D01*
X016250Y008725D01*
X016314Y008758D01*
X016372Y008801D01*
X016423Y008852D01*
X016466Y008910D01*
X016499Y008974D01*
X016521Y009043D01*
X016532Y009150D02*
X016074Y009150D01*
X016532Y009150D01*
X016468Y009387D02*
X017929Y009387D01*
X017929Y009400D02*
X018449Y009400D01*
X018449Y009400D01*
X017929Y009400D01*
X018028Y009705D02*
X011974Y009705D01*
X011674Y009705D02*
X011328Y009705D01*
X011305Y009387D02*
X011287Y009387D01*
X010824Y009387D02*
X010824Y009387D01*
X010824Y009068D02*
X010824Y009068D01*
X011572Y010024D02*
X022214Y010024D01*
X022295Y010342D02*
X011544Y010342D01*
X012343Y009387D02*
X015680Y009387D01*
X015623Y009068D02*
X012394Y009068D01*
X012230Y008750D02*
X015851Y008750D01*
X016074Y008750D02*
X016074Y008750D01*
X016297Y008750D02*
X016367Y008750D01*
X016074Y009068D02*
X016074Y009068D01*
X016074Y009150D02*
X016074Y009150D01*
X016074Y009387D02*
X016074Y009387D01*
X015566Y008113D02*
X012036Y008113D01*
X012080Y007794D02*
X015620Y007794D01*
X017877Y010979D02*
X017955Y010979D01*
X017984Y011616D02*
X017843Y011616D01*
X016985Y012253D02*
X014563Y012253D01*
X014553Y012572D02*
X016908Y012572D01*
X018449Y009920D02*
X018449Y009400D01*
X018449Y009400D01*
X018449Y009920D01*
X018449Y009705D02*
X018449Y009705D01*
X018870Y009705D02*
X019035Y009705D01*
X019062Y009068D02*
X018851Y009068D01*
X018906Y008750D02*
X019992Y008750D01*
X019975Y009068D02*
X019836Y009068D01*
X019863Y009705D02*
X019958Y009705D01*
X019879Y008431D02*
X019019Y008431D01*
X018947Y008113D02*
X019951Y008113D01*
X022270Y008750D02*
X025214Y008750D01*
X024824Y009705D02*
X024824Y009705D01*
X024824Y010024D02*
X024824Y010024D01*
X024824Y010025D02*
X024824Y010025D01*
X023433Y008431D02*
X022602Y008431D01*
X022674Y008113D02*
X023353Y008113D01*
X023438Y007794D02*
X022597Y007794D01*
X022454Y006520D02*
X023421Y006520D01*
X023306Y006202D02*
X022577Y006202D01*
X022515Y005883D02*
X023363Y005883D01*
X023680Y005565D02*
X022563Y005565D01*
X023949Y005565D02*
X023949Y005565D01*
X023949Y005883D02*
X023949Y005883D01*
X023949Y006150D02*
X023949Y006150D01*
X023949Y006202D02*
X023949Y006202D01*
X023949Y006520D02*
X023949Y006520D01*
X020273Y003017D02*
X019814Y003017D01*
X020024Y002698D02*
X020039Y002698D01*
X019953Y002061D02*
X019814Y002061D01*
X020085Y001743D02*
X018663Y001743D01*
X018769Y001424D02*
X020384Y001424D01*
X019053Y002061D02*
X018829Y002061D01*
X018830Y003017D02*
X019053Y003017D01*
X015590Y003972D02*
X015484Y003972D01*
X011949Y001106D02*
X011949Y001106D01*
X011949Y000900D02*
X011949Y000900D01*
X009908Y000510D02*
X008740Y000510D01*
X008807Y000577D01*
X008894Y000787D01*
X008856Y001106D02*
X009792Y001106D01*
X009754Y000787D02*
X009841Y000577D01*
X009908Y000510D01*
X009053Y002061D02*
X008829Y002061D01*
X008830Y003017D02*
X009053Y003017D01*
X007176Y002061D02*
X006893Y002061D01*
X008002Y010979D02*
X008080Y010979D01*
X008109Y011616D02*
X007968Y011616D01*
X001930Y011935D02*
X001309Y011935D01*
X001309Y012253D02*
X001839Y012253D01*
X001912Y012572D02*
X001309Y012572D01*
X001309Y012890D02*
X001971Y012890D01*
X001839Y013209D02*
X001309Y013209D01*
X001309Y013527D02*
X001893Y013527D01*
X002016Y013846D02*
X001309Y013846D01*
X001309Y014164D02*
X001839Y014164D01*
X001875Y014483D02*
X001309Y014483D01*
X001309Y014801D02*
X002060Y014801D01*
X001853Y015120D02*
X001309Y015120D01*
X001309Y015438D02*
X001856Y015438D01*
X002068Y015757D02*
X001309Y015757D01*
X001309Y016075D02*
X001872Y016075D01*
X001839Y016394D02*
X001309Y016394D01*
X001309Y016712D02*
X002023Y016712D01*
X001945Y017031D02*
X001309Y017031D01*
X001309Y017349D02*
X001894Y017349D01*
X007465Y022127D02*
X007465Y022127D01*
X007465Y022445D02*
X007465Y022445D01*
X007465Y022764D02*
X007465Y022764D01*
X007840Y022127D02*
X008003Y022127D01*
X014074Y013846D02*
X014074Y013846D01*
X014074Y013775D02*
X014074Y013775D01*
X014074Y013527D02*
X014074Y013527D01*
X022824Y012253D02*
X022824Y012253D01*
D19*
X007449Y030150D03*
D20*
X007324Y030400D01*
D21*
X010624Y032475D02*
X010699Y032400D01*
X010949Y032400D01*
X011199Y032150D01*
X010624Y032475D02*
X010624Y032935D01*
X015324Y032650D02*
X015449Y032775D01*
X015449Y033275D01*
X015444Y033150D01*
X015444Y032655D01*
X015449Y032650D01*
X016199Y032650D01*
X016324Y032775D01*
X016324Y033150D01*
D22*
X016824Y032400D01*
X016824Y032275D01*
X019949Y032275D01*
X020574Y031650D01*
X020574Y029775D01*
X020074Y029275D01*
X020074Y029150D01*
X019949Y029025D01*
X018949Y029025D01*
X017949Y030025D01*
X017949Y030275D01*
X015449Y032775D02*
X015074Y032400D01*
X014199Y032400D01*
X013824Y032025D01*
X013824Y031900D01*
X013699Y031775D01*
X013324Y031775D01*
X012949Y032150D01*
X011199Y032150D01*
X004949Y017775D02*
X004449Y017275D01*
D23*
X004949Y017775D02*
X006449Y017775D01*
D24*
X007199Y018275D03*
X006449Y019275D03*
X011699Y012400D03*
X011074Y011275D03*
X011074Y010150D03*
X011574Y007900D03*
X008699Y008400D03*
X006449Y011150D03*
X013824Y014900D03*
X014074Y015525D03*
X014074Y013775D03*
X014074Y012400D03*
X016074Y013650D03*
X019449Y009400D03*
X017824Y008775D03*
X016824Y008525D03*
X016074Y008025D03*
X016074Y009150D03*
X018949Y025025D03*
X017949Y025650D03*
X016199Y027025D03*
X017439Y031840D03*
X020949Y027275D03*
X008074Y027775D03*
X007449Y027775D03*
X005574Y027400D03*
D25*
X014074Y014025D02*
X014074Y013775D01*
X016074Y009150D02*
X016449Y009150D01*
D26*
X006949Y028150D02*
X005824Y028150D01*
X005824Y030150D01*
X006949Y030150D01*
X006949Y028150D01*
X006199Y030400D02*
X004199Y030400D01*
X004199Y031525D01*
X004449Y031525D01*
X006199Y031525D01*
X006199Y030400D01*
M02*
