G75*
%MOIN*%
%OFA0B0*%
%FSLAX24Y24*%
%IPPOS*%
%LPD*%
%AMOC8*
5,1,8,0,0,1.08239X$1,22.5*
%
%ADD10C,0.0600*%
%ADD11C,0.0594*%
%ADD12C,0.1266*%
%ADD13C,0.0768*%
%ADD14C,0.0520*%
%ADD15C,0.0554*%
%ADD16C,0.1337*%
%ADD17C,0.0886*%
%ADD18C,0.0436*%
%ADD19C,0.0396*%
%ADD20C,0.0320*%
%ADD21C,0.0000*%
D10*
X002449Y012275D03*
X002449Y013275D03*
X002449Y014275D03*
X002449Y015275D03*
X002449Y016275D03*
X002449Y017275D03*
X002449Y018275D03*
X002449Y019275D03*
X002449Y020275D03*
X002449Y021275D03*
X002449Y022275D03*
X002449Y023275D03*
X002449Y024275D03*
X002449Y025275D03*
X002449Y026275D03*
X003449Y026275D03*
X003449Y025275D03*
X003449Y024275D03*
X003449Y023275D03*
X003449Y022275D03*
X003449Y021275D03*
X003449Y020275D03*
X003449Y019275D03*
X003449Y018275D03*
X003449Y017275D03*
X003449Y016275D03*
X003449Y015275D03*
X003449Y014275D03*
X003449Y013275D03*
X003449Y012275D03*
X004449Y012275D03*
X004449Y013275D03*
X004449Y014275D03*
X004449Y015275D03*
X004449Y016275D03*
X004449Y017275D03*
X004449Y018275D03*
X004449Y019275D03*
X004449Y020275D03*
X004449Y021275D03*
X004449Y022275D03*
X004449Y023275D03*
X004449Y024275D03*
X004449Y025275D03*
X004449Y026275D03*
X005449Y026275D03*
X005449Y025275D03*
X005449Y024275D03*
X005449Y023275D03*
X005449Y022275D03*
X005449Y021275D03*
X005449Y020275D03*
X005449Y019275D03*
X005449Y018275D03*
X005449Y017275D03*
X005449Y016275D03*
X005449Y015275D03*
X005449Y014275D03*
X005449Y013275D03*
X005449Y012275D03*
X011949Y005275D03*
X011949Y004275D03*
X011949Y003275D03*
X011949Y002275D03*
X012949Y002275D03*
X012949Y003275D03*
X012949Y004275D03*
X012949Y005275D03*
X013949Y005275D03*
X013949Y004275D03*
X013949Y003275D03*
X013949Y002275D03*
X014949Y002275D03*
X014949Y003275D03*
X014949Y004275D03*
X014949Y005275D03*
X022824Y010025D03*
X022824Y011025D03*
X022824Y012025D03*
X022824Y014025D03*
X022824Y015025D03*
X022824Y016025D03*
X022715Y018400D03*
X021199Y018275D03*
X021199Y019275D03*
X021199Y020275D03*
X020199Y019275D03*
X020199Y018275D03*
X018199Y018025D03*
X018199Y019025D03*
X017199Y019025D03*
X017199Y018025D03*
X012449Y022400D03*
X011949Y028275D03*
X010949Y028275D03*
X010949Y029275D03*
X010949Y030275D03*
X010949Y031275D03*
X011949Y031275D03*
X011949Y030275D03*
X011949Y029275D03*
X012949Y029275D03*
X012949Y028275D03*
X013949Y028275D03*
X013949Y029275D03*
X013949Y030275D03*
X013949Y031275D03*
X012949Y031275D03*
X012949Y030275D03*
X014949Y030275D03*
X014949Y029275D03*
X014949Y028275D03*
X015949Y028275D03*
X015949Y029275D03*
X015949Y030275D03*
X015949Y031275D03*
X014949Y031275D03*
X016949Y031275D03*
X016949Y030275D03*
X016949Y029275D03*
X016949Y028275D03*
X017949Y028275D03*
X017949Y029275D03*
X017949Y030275D03*
X017949Y031275D03*
X019699Y028025D03*
X020699Y028025D03*
X021699Y028025D03*
X022699Y028025D03*
X023699Y028025D03*
X024699Y028025D03*
X024683Y025650D03*
X022715Y025650D03*
X022715Y022025D03*
X024683Y022025D03*
X024683Y018400D03*
X024699Y002775D03*
X024699Y001775D03*
X023699Y001775D03*
X023699Y002775D03*
X009949Y028275D03*
X009949Y029275D03*
X009949Y030275D03*
X009949Y031275D03*
X008949Y031275D03*
X008949Y030275D03*
X008949Y029275D03*
X008949Y028275D03*
X007449Y029275D03*
X009624Y032935D03*
X010624Y032935D03*
X011624Y032935D03*
X012624Y032935D03*
X004074Y032275D03*
X003074Y032275D03*
X002074Y032275D03*
D11*
X007465Y022539D03*
X008449Y022539D03*
X009433Y022539D03*
X009433Y012539D03*
X008449Y012539D03*
X007465Y012539D03*
X007465Y002539D03*
X008449Y002539D03*
X009433Y002539D03*
X017465Y002539D03*
X018449Y002539D03*
X019433Y002539D03*
X019433Y012539D03*
X018449Y012539D03*
X017465Y012539D03*
X017465Y022539D03*
X018449Y022539D03*
X019433Y022539D03*
X020696Y029025D03*
X021680Y029025D03*
X022468Y029025D03*
X023452Y029025D03*
D12*
X020181Y025295D03*
X016717Y025295D03*
X010181Y025295D03*
X006717Y025295D03*
X006717Y015295D03*
X010181Y015295D03*
X016717Y015295D03*
X020181Y015295D03*
X020181Y005295D03*
X016717Y005295D03*
X010181Y005295D03*
X006717Y005295D03*
D13*
X004668Y004994D03*
X004668Y004009D03*
X004668Y002041D03*
X004668Y001056D03*
X002699Y003025D03*
X004668Y006556D03*
X004668Y007541D03*
X004668Y009509D03*
X004668Y010494D03*
X002699Y008525D03*
X021981Y008119D03*
X021981Y007134D03*
X021981Y005166D03*
X021981Y004181D03*
X023949Y006150D03*
X024699Y017150D03*
X022699Y017150D03*
X022699Y019650D03*
X022699Y020775D03*
X024699Y020775D03*
X024699Y019650D03*
X024699Y023275D03*
X024699Y024400D03*
X022699Y024400D03*
X022699Y023275D03*
X022699Y026900D03*
X024699Y026900D03*
D14*
X019199Y033150D03*
X018199Y033150D03*
X017324Y033150D03*
X016324Y033150D03*
X015444Y033150D03*
X014444Y033150D03*
X013529Y033420D03*
X013529Y032420D03*
X013574Y027025D03*
X013574Y026025D03*
X014574Y026775D03*
X015574Y026775D03*
X015199Y025525D03*
X014449Y024650D03*
X015199Y023525D03*
X015449Y022400D03*
X015449Y021025D03*
X014449Y021025D03*
X013449Y021025D03*
X012449Y021025D03*
X011324Y020400D03*
X011324Y018400D03*
X012449Y018025D03*
X013449Y018025D03*
X014449Y018025D03*
X015449Y018025D03*
X017449Y021275D03*
X018449Y021275D03*
X013824Y023275D03*
X013449Y022400D03*
X011824Y023275D03*
X011574Y024650D03*
X012574Y024650D03*
X013449Y024650D03*
X011574Y026025D03*
X011574Y027025D03*
X008449Y021275D03*
X007449Y021275D03*
X010949Y013650D03*
X011949Y013650D03*
X008574Y011275D03*
X007574Y011275D03*
X007574Y007900D03*
X009574Y007900D03*
X010824Y009150D03*
X011824Y009150D03*
X013199Y006525D03*
X015199Y006525D03*
X015949Y003525D03*
X015949Y001525D03*
X017199Y001400D03*
X018199Y001400D03*
X013949Y000900D03*
X011949Y000900D03*
X010824Y001650D03*
X010324Y000900D03*
X008324Y000900D03*
X007574Y001650D03*
X006574Y001650D03*
X010824Y003650D03*
X017449Y011275D03*
X018449Y011275D03*
X018449Y009400D03*
X018449Y008400D03*
X020449Y008400D03*
X020449Y009400D03*
X024824Y010025D03*
X024824Y011025D03*
X024824Y014025D03*
X024824Y015025D03*
D15*
X015699Y016775D03*
X012699Y016775D03*
D16*
X019476Y030088D03*
X024672Y030088D03*
D17*
X006380Y029150D03*
X005199Y031000D03*
X004018Y029150D03*
D18*
X007449Y030150D03*
D19*
X007449Y027775D03*
X008074Y027775D03*
X005574Y027400D03*
X006449Y019275D03*
X007199Y018275D03*
X011699Y012400D03*
X011074Y011275D03*
X011074Y010150D03*
X011574Y007900D03*
X008699Y008400D03*
X006449Y011150D03*
X013824Y014900D03*
X014074Y015525D03*
X014074Y013775D03*
X014074Y012400D03*
X016074Y013650D03*
X019449Y009400D03*
X017824Y008775D03*
X016824Y008525D03*
X016074Y008025D03*
X016074Y009150D03*
X018949Y025025D03*
X017949Y025650D03*
X016199Y027025D03*
X017439Y031840D03*
X020949Y027275D03*
D20*
X001309Y004556D02*
X001309Y001494D01*
X001377Y001562D01*
X001596Y001653D01*
X001833Y001653D01*
X002053Y001562D01*
X002207Y001408D01*
X002361Y001562D01*
X002580Y001653D01*
X002818Y001653D01*
X003037Y001562D01*
X003205Y001394D01*
X003295Y001175D01*
X003295Y000938D01*
X003205Y000719D01*
X003037Y000551D01*
X002938Y000510D01*
X004233Y000510D01*
X004079Y000663D01*
X003974Y000918D01*
X003974Y001195D01*
X004079Y001450D01*
X004178Y001549D01*
X004079Y001648D01*
X003974Y001903D01*
X003974Y002179D01*
X004079Y002434D01*
X004247Y002602D01*
X004162Y002687D01*
X004071Y002906D01*
X004071Y003144D01*
X004162Y003363D01*
X004247Y003448D01*
X004079Y003616D01*
X003974Y003871D01*
X003974Y004147D01*
X004079Y004402D01*
X004178Y004501D01*
X004079Y004600D01*
X003974Y004855D01*
X003974Y005132D01*
X004079Y005387D01*
X004275Y005582D01*
X004530Y005687D01*
X004806Y005687D01*
X005061Y005582D01*
X005256Y005387D01*
X005361Y005132D01*
X005361Y004855D01*
X005256Y004600D01*
X005157Y004501D01*
X005256Y004402D01*
X005361Y004147D01*
X005361Y003871D01*
X005256Y003616D01*
X005088Y003448D01*
X005173Y003363D01*
X005264Y003144D01*
X005264Y002906D01*
X005173Y002687D01*
X005088Y002602D01*
X005256Y002434D01*
X005361Y002179D01*
X005361Y001903D01*
X005256Y001648D01*
X005157Y001549D01*
X005256Y001450D01*
X005361Y001195D01*
X005361Y000918D01*
X005256Y000663D01*
X005102Y000510D01*
X007908Y000510D01*
X007841Y000577D01*
X007754Y000787D01*
X005307Y000787D01*
X005361Y001106D02*
X006399Y001106D01*
X006461Y001080D02*
X006687Y001080D01*
X006897Y001167D01*
X007057Y001327D01*
X007074Y001368D01*
X007091Y001327D01*
X007251Y001167D01*
X007461Y001080D01*
X007687Y001080D01*
X007801Y001127D01*
X007754Y001013D01*
X007754Y000787D01*
X007749Y001106D02*
X007792Y001106D01*
X008097Y001423D02*
X008144Y001537D01*
X008144Y001763D01*
X008057Y001973D01*
X007907Y002123D01*
X007957Y002173D01*
X008105Y002024D01*
X008328Y001932D01*
X008570Y001932D01*
X008793Y002024D01*
X008964Y002195D01*
X008975Y002222D01*
X009009Y002176D01*
X009071Y002114D01*
X009141Y002063D01*
X009220Y002023D01*
X009303Y001996D01*
X009389Y001982D01*
X009433Y001982D01*
X009433Y002539D01*
X009433Y003096D01*
X009389Y003096D01*
X009303Y003082D01*
X009220Y003055D01*
X009141Y003015D01*
X009071Y002964D01*
X009009Y002902D01*
X008975Y002855D01*
X008964Y002883D01*
X008793Y003053D01*
X008570Y003146D01*
X008328Y003146D01*
X008105Y003053D01*
X007957Y002905D01*
X007809Y003053D01*
X007586Y003146D01*
X007344Y003146D01*
X007121Y003053D01*
X006950Y002883D01*
X006858Y002659D01*
X006858Y002418D01*
X006950Y002195D01*
X007121Y002024D01*
X007136Y002018D01*
X007091Y001973D01*
X007074Y001932D01*
X007057Y001973D01*
X006897Y002133D01*
X006687Y002220D01*
X006461Y002220D01*
X006251Y002133D01*
X006091Y001973D01*
X006004Y001763D01*
X006004Y001537D01*
X006091Y001327D01*
X006251Y001167D01*
X006461Y001080D01*
X006749Y001106D02*
X007399Y001106D01*
X008097Y001423D02*
X008211Y001470D01*
X008437Y001470D01*
X008647Y001383D01*
X008807Y001223D01*
X008894Y001013D01*
X008894Y000787D01*
X009754Y000787D01*
X009841Y000577D01*
X009908Y000510D01*
X008740Y000510D01*
X008807Y000577D01*
X008894Y000787D01*
X008856Y001106D02*
X009792Y001106D01*
X009754Y001013D02*
X009841Y001223D01*
X010001Y001383D01*
X010211Y001470D01*
X010282Y001470D01*
X010254Y001537D01*
X010254Y001763D01*
X010341Y001973D01*
X010501Y002133D01*
X010711Y002220D01*
X010937Y002220D01*
X011147Y002133D01*
X011307Y001973D01*
X011394Y001763D01*
X011394Y001537D01*
X011307Y001327D01*
X011147Y001167D01*
X010937Y001080D01*
X010866Y001080D01*
X010894Y001013D01*
X010894Y000787D01*
X011379Y000787D01*
X011466Y000577D01*
X011533Y000510D01*
X010740Y000510D01*
X010807Y000577D01*
X010894Y000787D01*
X010999Y001106D02*
X011417Y001106D01*
X011379Y001013D02*
X011379Y000787D01*
X011379Y001013D02*
X011466Y001223D01*
X011626Y001383D01*
X011836Y001470D01*
X012062Y001470D01*
X012272Y001383D01*
X012432Y001223D01*
X012519Y001013D01*
X012519Y000787D01*
X013379Y000787D01*
X013466Y000577D01*
X013533Y000510D01*
X012365Y000510D01*
X012432Y000577D01*
X012519Y000787D01*
X012481Y001106D02*
X013417Y001106D01*
X013379Y001013D02*
X013466Y001223D01*
X013626Y001383D01*
X013836Y001470D01*
X014062Y001470D01*
X014272Y001383D01*
X014432Y001223D01*
X014519Y001013D01*
X014519Y000787D01*
X025214Y000787D01*
X025214Y000510D02*
X014365Y000510D01*
X014432Y000577D01*
X014519Y000787D01*
X014481Y001106D02*
X015562Y001106D01*
X015626Y001042D02*
X015836Y000955D01*
X016062Y000955D01*
X016272Y001042D01*
X016432Y001202D01*
X016519Y001412D01*
X016519Y001638D01*
X016432Y001848D01*
X016272Y002008D01*
X016062Y002095D01*
X015836Y002095D01*
X015626Y002008D01*
X015466Y001848D01*
X015379Y001638D01*
X015379Y001412D01*
X015466Y001202D01*
X015626Y001042D01*
X015379Y001424D02*
X014173Y001424D01*
X014070Y001665D02*
X014295Y001758D01*
X014449Y001912D01*
X014604Y001758D01*
X014828Y001665D01*
X015070Y001665D01*
X015295Y001758D01*
X015466Y001929D01*
X015559Y002154D01*
X015559Y002396D01*
X015466Y002621D01*
X015312Y002775D01*
X015466Y002929D01*
X015546Y003122D01*
X015626Y003042D01*
X015836Y002955D01*
X016062Y002955D01*
X016272Y003042D01*
X016432Y003202D01*
X016519Y003412D01*
X016519Y003638D01*
X016432Y003848D01*
X016272Y004008D01*
X016062Y004095D01*
X015836Y004095D01*
X015626Y004008D01*
X015466Y003848D01*
X015399Y003687D01*
X015312Y003775D01*
X015466Y003929D01*
X015559Y004154D01*
X015559Y004396D01*
X015466Y004621D01*
X015312Y004775D01*
X015466Y004929D01*
X015559Y005154D01*
X015559Y005396D01*
X015466Y005621D01*
X015295Y005792D01*
X015070Y005885D01*
X014828Y005885D01*
X014604Y005792D01*
X014449Y005638D01*
X014295Y005792D01*
X014070Y005885D01*
X013828Y005885D01*
X013604Y005792D01*
X013449Y005638D01*
X013295Y005792D01*
X013070Y005885D01*
X012828Y005885D01*
X012604Y005792D01*
X012449Y005638D01*
X012295Y005792D01*
X012070Y005885D01*
X011828Y005885D01*
X011604Y005792D01*
X011432Y005621D01*
X011339Y005396D01*
X011339Y005154D01*
X011432Y004929D01*
X011586Y004775D01*
X011432Y004621D01*
X011339Y004396D01*
X011339Y004154D01*
X011432Y003929D01*
X011586Y003775D01*
X011432Y003621D01*
X011339Y003396D01*
X011339Y003154D01*
X011432Y002929D01*
X011586Y002775D01*
X011432Y002621D01*
X011339Y002396D01*
X011339Y002154D01*
X011432Y001929D01*
X011604Y001758D01*
X011828Y001665D01*
X012070Y001665D01*
X012295Y001758D01*
X012449Y001912D01*
X012604Y001758D01*
X012828Y001665D01*
X013070Y001665D01*
X013295Y001758D01*
X013449Y001912D01*
X013604Y001758D01*
X013828Y001665D01*
X014070Y001665D01*
X014257Y001743D02*
X014641Y001743D01*
X015257Y001743D02*
X015422Y001743D01*
X015521Y002061D02*
X015754Y002061D01*
X015559Y002380D02*
X016874Y002380D01*
X016858Y002418D02*
X016950Y002195D01*
X017121Y002024D01*
X017252Y001970D01*
X017086Y001970D01*
X016876Y001883D01*
X016716Y001723D01*
X016629Y001513D01*
X016629Y001287D01*
X016716Y001077D01*
X016876Y000917D01*
X017086Y000830D01*
X017312Y000830D01*
X017522Y000917D01*
X017682Y001077D01*
X017699Y001118D01*
X017716Y001077D01*
X017876Y000917D01*
X018086Y000830D01*
X018312Y000830D01*
X018522Y000917D01*
X018682Y001077D01*
X018769Y001287D01*
X018769Y001513D01*
X018682Y001723D01*
X018522Y001883D01*
X018404Y001932D01*
X018570Y001932D01*
X018793Y002024D01*
X018964Y002195D01*
X018975Y002222D01*
X019009Y002176D01*
X019071Y002114D01*
X019141Y002063D01*
X019220Y002023D01*
X019303Y001996D01*
X019389Y001982D01*
X019433Y001982D01*
X019433Y002539D01*
X019433Y003096D01*
X019389Y003096D01*
X019303Y003082D01*
X019220Y003055D01*
X019141Y003015D01*
X019071Y002964D01*
X019009Y002902D01*
X018975Y002855D01*
X018964Y002883D01*
X018793Y003053D01*
X018570Y003146D01*
X018328Y003146D01*
X018105Y003053D01*
X017957Y002905D01*
X017809Y003053D01*
X017586Y003146D01*
X017344Y003146D01*
X017121Y003053D01*
X016950Y002883D01*
X016858Y002659D01*
X016858Y002418D01*
X016874Y002698D02*
X015389Y002698D01*
X015502Y003017D02*
X015687Y003017D01*
X016211Y003017D02*
X017084Y003017D01*
X017845Y003017D02*
X018069Y003017D01*
X018830Y003017D02*
X019144Y003017D01*
X019433Y003017D02*
X019433Y003017D01*
X019433Y003096D02*
X019433Y002539D01*
X019433Y002539D01*
X019433Y002539D01*
X019433Y001982D01*
X019477Y001982D01*
X019564Y001996D01*
X019647Y002023D01*
X019725Y002063D01*
X019796Y002114D01*
X019858Y002176D01*
X019910Y002247D01*
X019947Y002320D01*
X019947Y002076D01*
X020099Y001707D01*
X020381Y001425D01*
X020750Y001273D01*
X021148Y001273D01*
X021517Y001425D01*
X021799Y001707D01*
X021952Y002076D01*
X021952Y002474D01*
X021799Y002843D01*
X021517Y003125D01*
X021148Y003277D01*
X020750Y003277D01*
X020381Y003125D01*
X020099Y002843D01*
X019990Y002580D01*
X019990Y002583D01*
X019976Y002669D01*
X019949Y002753D01*
X019910Y002831D01*
X019858Y002902D01*
X019796Y002964D01*
X019725Y003015D01*
X019647Y003055D01*
X019564Y003082D01*
X019477Y003096D01*
X019433Y003096D01*
X019722Y003017D02*
X020273Y003017D01*
X020039Y002698D02*
X019967Y002698D01*
X019953Y002061D02*
X019722Y002061D01*
X020085Y001743D02*
X018663Y001743D01*
X018769Y001424D02*
X020384Y001424D01*
X021514Y001424D02*
X023187Y001424D01*
X023182Y001429D02*
X023354Y001258D01*
X023578Y001165D01*
X023820Y001165D01*
X024045Y001258D01*
X024199Y001412D01*
X024354Y001258D01*
X024578Y001165D01*
X024820Y001165D01*
X025045Y001258D01*
X025214Y001427D01*
X025214Y000510D01*
X025214Y001106D02*
X018694Y001106D01*
X018829Y002061D02*
X019144Y002061D01*
X019433Y002061D02*
X019433Y002061D01*
X019433Y002380D02*
X019433Y002380D01*
X019433Y002698D02*
X019433Y002698D01*
X019994Y004352D02*
X020369Y004352D01*
X020716Y004495D01*
X020981Y004760D01*
X021124Y005107D01*
X021124Y005482D01*
X020981Y005829D01*
X020716Y006094D01*
X020369Y006238D01*
X019994Y006238D01*
X019647Y006094D01*
X019382Y005829D01*
X019238Y005482D01*
X019238Y005107D01*
X019382Y004760D01*
X019647Y004495D01*
X019994Y004352D01*
X019533Y004609D02*
X017365Y004609D01*
X017251Y004495D02*
X017516Y004760D01*
X017660Y005107D01*
X017660Y005482D01*
X017516Y005829D01*
X017251Y006094D01*
X016904Y006238D01*
X016529Y006238D01*
X016183Y006094D01*
X015917Y005829D01*
X015774Y005482D01*
X015774Y005107D01*
X015917Y004760D01*
X016183Y004495D01*
X016529Y004352D01*
X016904Y004352D01*
X017251Y004495D01*
X017585Y004928D02*
X019313Y004928D01*
X019238Y005246D02*
X017660Y005246D01*
X017626Y005565D02*
X019272Y005565D01*
X019436Y005883D02*
X017462Y005883D01*
X016992Y006202D02*
X019906Y006202D01*
X020456Y006202D02*
X021384Y006202D01*
X021384Y006269D02*
X021384Y006031D01*
X021475Y005812D01*
X021560Y005727D01*
X021392Y005559D01*
X021287Y005304D01*
X021287Y005028D01*
X021392Y004773D01*
X021491Y004674D01*
X021392Y004575D01*
X021287Y004320D01*
X021287Y004043D01*
X021392Y003788D01*
X021588Y003593D01*
X021843Y003488D01*
X022119Y003488D01*
X022374Y003593D01*
X022569Y003788D01*
X022674Y004043D01*
X022674Y004320D01*
X022569Y004575D01*
X022470Y004674D01*
X022569Y004773D01*
X022674Y005028D01*
X022674Y005304D01*
X022569Y005559D01*
X022401Y005727D01*
X022486Y005812D01*
X022577Y006031D01*
X022577Y006269D01*
X022486Y006488D01*
X022401Y006573D01*
X022569Y006741D01*
X022674Y006996D01*
X022674Y007272D01*
X022569Y007527D01*
X022470Y007626D01*
X022569Y007725D01*
X022674Y007980D01*
X022674Y008257D01*
X022569Y008512D01*
X022374Y008707D01*
X022119Y008812D01*
X021843Y008812D01*
X021588Y008707D01*
X021392Y008512D01*
X021287Y008257D01*
X021287Y007980D01*
X021392Y007725D01*
X021491Y007626D01*
X021392Y007527D01*
X021287Y007272D01*
X021287Y006996D01*
X021392Y006741D01*
X021560Y006573D01*
X021475Y006488D01*
X021384Y006269D01*
X021507Y006520D02*
X015769Y006520D01*
X015769Y006412D02*
X015769Y006638D01*
X015682Y006848D01*
X015522Y007008D01*
X015312Y007095D01*
X015086Y007095D01*
X014876Y007008D01*
X014716Y006848D01*
X014629Y006638D01*
X014629Y006412D01*
X014716Y006202D01*
X014876Y006042D01*
X015086Y005955D01*
X015312Y005955D01*
X015522Y006042D01*
X015682Y006202D01*
X015769Y006412D01*
X015682Y006202D02*
X016442Y006202D01*
X015971Y005883D02*
X015075Y005883D01*
X014823Y005883D02*
X014075Y005883D01*
X013823Y005883D02*
X013075Y005883D01*
X013086Y005955D02*
X013312Y005955D01*
X013522Y006042D01*
X013682Y006202D01*
X013769Y006412D01*
X013769Y006638D01*
X013682Y006848D01*
X013522Y007008D01*
X013312Y007095D01*
X013086Y007095D01*
X012876Y007008D01*
X012716Y006848D01*
X012629Y006638D01*
X012629Y006412D01*
X012716Y006202D01*
X012876Y006042D01*
X013086Y005955D01*
X012823Y005883D02*
X012075Y005883D01*
X011823Y005883D02*
X010927Y005883D01*
X010981Y005829D02*
X010716Y006094D01*
X010369Y006238D01*
X009994Y006238D01*
X009647Y006094D01*
X009382Y005829D01*
X009238Y005482D01*
X009238Y005107D01*
X009382Y004760D01*
X009647Y004495D01*
X009994Y004352D01*
X010369Y004352D01*
X010716Y004495D01*
X010981Y004760D01*
X011124Y005107D01*
X011124Y005482D01*
X010981Y005829D01*
X011090Y005565D02*
X011409Y005565D01*
X011339Y005246D02*
X011124Y005246D01*
X011050Y004928D02*
X011434Y004928D01*
X011427Y004609D02*
X010829Y004609D01*
X010937Y004220D02*
X010711Y004220D01*
X010501Y004133D01*
X010341Y003973D01*
X010254Y003763D01*
X010254Y003537D01*
X010341Y003327D01*
X010501Y003167D01*
X010711Y003080D01*
X010937Y003080D01*
X011147Y003167D01*
X011307Y003327D01*
X011394Y003537D01*
X011394Y003763D01*
X011307Y003973D01*
X011147Y004133D01*
X010937Y004220D01*
X011339Y004291D02*
X005302Y004291D01*
X005259Y004609D02*
X006069Y004609D01*
X006183Y004495D02*
X005917Y004760D01*
X005774Y005107D01*
X005774Y005482D01*
X005917Y005829D01*
X006183Y006094D01*
X006529Y006238D01*
X006904Y006238D01*
X007251Y006094D01*
X007516Y005829D01*
X007660Y005482D01*
X007660Y005107D01*
X007516Y004760D01*
X007251Y004495D01*
X006904Y004352D01*
X006529Y004352D01*
X006183Y004495D01*
X005848Y004928D02*
X005361Y004928D01*
X005314Y005246D02*
X005774Y005246D01*
X005808Y005565D02*
X005078Y005565D01*
X004855Y005883D02*
X005971Y005883D01*
X006442Y006202D02*
X005272Y006202D01*
X005256Y006163D02*
X005061Y005968D01*
X004806Y005863D01*
X004530Y005863D01*
X004275Y005968D01*
X004079Y006163D01*
X003974Y006418D01*
X003974Y006695D01*
X004079Y006950D01*
X004178Y007049D01*
X004079Y007148D01*
X003974Y007403D01*
X003974Y007679D01*
X004079Y007934D01*
X004247Y008102D01*
X004162Y008187D01*
X004071Y008406D01*
X004071Y008644D01*
X004162Y008863D01*
X004247Y008948D01*
X004079Y009116D01*
X003974Y009371D01*
X003974Y009647D01*
X004079Y009902D01*
X004178Y010001D01*
X004079Y010100D01*
X003974Y010355D01*
X003974Y010632D01*
X004079Y010887D01*
X004275Y011082D01*
X004530Y011187D01*
X004806Y011187D01*
X005061Y011082D01*
X005256Y010887D01*
X005361Y010632D01*
X005361Y010355D01*
X005256Y010100D01*
X005157Y010001D01*
X005256Y009902D01*
X005361Y009647D01*
X005361Y009371D01*
X005256Y009116D01*
X005088Y008948D01*
X005173Y008863D01*
X005264Y008644D01*
X005264Y008406D01*
X005173Y008187D01*
X005088Y008102D01*
X005256Y007934D01*
X005361Y007679D01*
X005361Y007403D01*
X005256Y007148D01*
X005157Y007049D01*
X005256Y006950D01*
X005361Y006695D01*
X005361Y006418D01*
X005256Y006163D01*
X005361Y006520D02*
X012629Y006520D01*
X012712Y006839D02*
X005302Y006839D01*
X005260Y007157D02*
X021287Y007157D01*
X021352Y006839D02*
X015686Y006839D01*
X015973Y007517D02*
X016175Y007517D01*
X016362Y007594D01*
X016505Y007737D01*
X016582Y007924D01*
X016582Y008075D01*
X016723Y008017D01*
X016925Y008017D01*
X017112Y008094D01*
X017255Y008237D01*
X017332Y008424D01*
X017332Y008626D01*
X017255Y008813D01*
X017112Y008956D01*
X016925Y009033D01*
X016723Y009033D01*
X016545Y008959D01*
X016582Y009049D01*
X016582Y009251D01*
X016505Y009438D01*
X016362Y009581D01*
X016175Y009658D01*
X015973Y009658D01*
X015786Y009581D01*
X015643Y009438D01*
X015566Y009251D01*
X015566Y009049D01*
X015643Y008862D01*
X015786Y008719D01*
X015973Y008642D01*
X016175Y008642D01*
X016353Y008716D01*
X016316Y008626D01*
X016316Y008475D01*
X016175Y008533D01*
X015973Y008533D01*
X015786Y008456D01*
X015643Y008313D01*
X015566Y008126D01*
X015566Y007924D01*
X015643Y007737D01*
X015786Y007594D01*
X015973Y007517D01*
X015620Y007794D02*
X012080Y007794D01*
X012082Y007799D02*
X012005Y007612D01*
X011862Y007469D01*
X011675Y007392D01*
X011473Y007392D01*
X011286Y007469D01*
X011143Y007612D01*
X011066Y007799D01*
X011066Y008001D01*
X011143Y008188D01*
X011286Y008331D01*
X011473Y008408D01*
X011675Y008408D01*
X011862Y008331D01*
X012005Y008188D01*
X012082Y008001D01*
X012082Y007799D01*
X012036Y008113D02*
X015566Y008113D01*
X015761Y008431D02*
X009782Y008431D01*
X009687Y008470D02*
X009461Y008470D01*
X009251Y008383D01*
X009207Y008339D01*
X009207Y008501D01*
X009130Y008688D01*
X008987Y008831D01*
X008800Y008908D01*
X008598Y008908D01*
X008411Y008831D01*
X008268Y008688D01*
X008191Y008501D01*
X008191Y008299D01*
X008268Y008112D01*
X008411Y007969D01*
X008598Y007892D01*
X008800Y007892D01*
X008987Y007969D01*
X009004Y007986D01*
X009004Y007787D01*
X009091Y007577D01*
X009251Y007417D01*
X009461Y007330D01*
X009687Y007330D01*
X009897Y007417D01*
X010057Y007577D01*
X010144Y007787D01*
X010144Y008013D01*
X010057Y008223D01*
X009897Y008383D01*
X009687Y008470D01*
X009367Y008431D02*
X009207Y008431D01*
X009068Y008750D02*
X010418Y008750D01*
X010341Y008827D02*
X010501Y008667D01*
X010711Y008580D01*
X010937Y008580D01*
X011147Y008667D01*
X011307Y008827D01*
X011351Y008933D01*
X011379Y008877D01*
X011427Y008811D01*
X011485Y008753D01*
X011552Y008705D01*
X011624Y008668D01*
X011702Y008643D01*
X011783Y008630D01*
X011824Y008630D01*
X011824Y009150D01*
X011824Y009150D01*
X011824Y009670D01*
X011783Y009670D01*
X011702Y009657D01*
X011624Y009632D01*
X011552Y009595D01*
X011485Y009547D01*
X011427Y009489D01*
X011379Y009423D01*
X011351Y009367D01*
X011307Y009473D01*
X011147Y009633D01*
X011126Y009642D01*
X011175Y009642D01*
X011362Y009719D01*
X011505Y009862D01*
X011582Y010049D01*
X011582Y010251D01*
X011505Y010438D01*
X011362Y010581D01*
X011175Y010658D01*
X010973Y010658D01*
X010786Y010581D01*
X010643Y010438D01*
X010566Y010251D01*
X010566Y010049D01*
X010643Y009862D01*
X010785Y009720D01*
X010711Y009720D01*
X010501Y009633D01*
X010341Y009473D01*
X010254Y009263D01*
X010254Y009037D01*
X010341Y008827D01*
X010254Y009068D02*
X005208Y009068D01*
X005220Y008750D02*
X008330Y008750D01*
X008191Y008431D02*
X007782Y008431D01*
X007687Y008470D02*
X007897Y008383D01*
X008057Y008223D01*
X008144Y008013D01*
X008144Y007787D01*
X008057Y007577D01*
X007897Y007417D01*
X007687Y007330D01*
X007461Y007330D01*
X007251Y007417D01*
X007091Y007577D01*
X007004Y007787D01*
X007004Y008013D01*
X007091Y008223D01*
X007251Y008383D01*
X007461Y008470D01*
X007687Y008470D01*
X007367Y008431D02*
X005264Y008431D01*
X005098Y008113D02*
X007045Y008113D01*
X007004Y007794D02*
X005314Y007794D01*
X005361Y007476D02*
X007192Y007476D01*
X007956Y007476D02*
X009192Y007476D01*
X009004Y007794D02*
X008144Y007794D01*
X008103Y008113D02*
X008268Y008113D01*
X006992Y006202D02*
X009906Y006202D01*
X010456Y006202D02*
X012716Y006202D01*
X011868Y007476D02*
X021371Y007476D01*
X021364Y007794D02*
X016528Y007794D01*
X017130Y008113D02*
X017951Y008113D01*
X017966Y008077D02*
X018126Y007917D01*
X018336Y007830D01*
X018562Y007830D01*
X018772Y007917D01*
X018932Y008077D01*
X019019Y008287D01*
X019019Y008513D01*
X018932Y008723D01*
X018772Y008883D01*
X018731Y008900D01*
X018772Y008917D01*
X018932Y009077D01*
X018983Y009198D01*
X019018Y009112D01*
X019161Y008969D01*
X019348Y008892D01*
X019550Y008892D01*
X019737Y008969D01*
X019880Y009112D01*
X019916Y009198D01*
X019966Y009077D01*
X020126Y008917D01*
X020167Y008900D01*
X020126Y008883D01*
X019966Y008723D01*
X019879Y008513D01*
X019879Y008287D01*
X019966Y008077D01*
X020126Y007917D01*
X020336Y007830D01*
X020562Y007830D01*
X020772Y007917D01*
X020932Y008077D01*
X021019Y008287D01*
X021019Y008513D01*
X020932Y008723D01*
X020772Y008883D01*
X020731Y008900D01*
X020772Y008917D01*
X020932Y009077D01*
X021019Y009287D01*
X021019Y009513D01*
X020932Y009723D01*
X020772Y009883D01*
X020562Y009970D01*
X020336Y009970D01*
X020126Y009883D01*
X019966Y009723D01*
X019916Y009602D01*
X019880Y009688D01*
X019737Y009831D01*
X019550Y009908D01*
X019348Y009908D01*
X019161Y009831D01*
X019018Y009688D01*
X018983Y009602D01*
X018932Y009723D01*
X018772Y009883D01*
X018562Y009970D01*
X018336Y009970D01*
X018126Y009883D01*
X017966Y009723D01*
X017879Y009513D01*
X017879Y009287D01*
X017881Y009283D01*
X017723Y009283D01*
X017536Y009206D01*
X017393Y009063D01*
X017316Y008876D01*
X017316Y008674D01*
X017393Y008487D01*
X017536Y008344D01*
X017723Y008267D01*
X017887Y008267D01*
X017966Y008077D01*
X017449Y008431D02*
X017332Y008431D01*
X017316Y008750D02*
X017281Y008750D01*
X017398Y009068D02*
X016582Y009068D01*
X016526Y009387D02*
X017879Y009387D01*
X017958Y009705D02*
X011328Y009705D01*
X011343Y009387D02*
X011361Y009387D01*
X011824Y009387D02*
X011824Y009387D01*
X011824Y009150D02*
X011824Y009150D01*
X011824Y008630D01*
X011865Y008630D01*
X011946Y008643D01*
X012024Y008668D01*
X012097Y008705D01*
X012163Y008753D01*
X012221Y008811D01*
X012269Y008877D01*
X012306Y008950D01*
X012331Y009028D01*
X012344Y009109D01*
X012344Y009150D01*
X011824Y009150D01*
X011824Y009670D01*
X011865Y009670D01*
X011946Y009657D01*
X012024Y009632D01*
X012097Y009595D01*
X012163Y009547D01*
X012221Y009489D01*
X012269Y009423D01*
X012306Y009350D01*
X012331Y009272D01*
X012344Y009191D01*
X012344Y009150D01*
X011824Y009150D01*
X011824Y009150D01*
X011824Y009068D02*
X011824Y009068D01*
X011824Y008750D02*
X011824Y008750D01*
X011491Y008750D02*
X011230Y008750D01*
X011112Y008113D02*
X010103Y008113D01*
X010144Y007794D02*
X011068Y007794D01*
X011280Y007476D02*
X009956Y007476D01*
X009436Y005883D02*
X007462Y005883D01*
X007626Y005565D02*
X009272Y005565D01*
X009238Y005246D02*
X007660Y005246D01*
X007585Y004928D02*
X009313Y004928D01*
X009533Y004609D02*
X007365Y004609D01*
X007084Y003017D02*
X005264Y003017D01*
X005184Y003335D02*
X010338Y003335D01*
X010254Y003654D02*
X005271Y003654D01*
X005361Y003972D02*
X010340Y003972D01*
X009725Y003015D02*
X009647Y003055D01*
X009564Y003082D01*
X009477Y003096D01*
X009433Y003096D01*
X009433Y002539D01*
X009433Y002539D01*
X009433Y002539D01*
X009990Y002539D01*
X009990Y002583D01*
X009976Y002669D01*
X009949Y002753D01*
X009910Y002831D01*
X009858Y002902D01*
X009796Y002964D01*
X009725Y003015D01*
X009722Y003017D02*
X011396Y003017D01*
X011339Y003335D02*
X011311Y003335D01*
X011394Y003654D02*
X011465Y003654D01*
X011414Y003972D02*
X011308Y003972D01*
X011509Y002698D02*
X009967Y002698D01*
X009990Y002539D02*
X009433Y002539D01*
X009433Y002539D01*
X009433Y001982D01*
X009477Y001982D01*
X009564Y001996D01*
X009647Y002023D01*
X009725Y002063D01*
X009796Y002114D01*
X009858Y002176D01*
X009910Y002247D01*
X009949Y002325D01*
X009976Y002408D01*
X009990Y002495D01*
X009990Y002539D01*
X009967Y002380D02*
X011339Y002380D01*
X011377Y002061D02*
X011219Y002061D01*
X011394Y001743D02*
X011641Y001743D01*
X011725Y001424D02*
X011347Y001424D01*
X012173Y001424D02*
X013725Y001424D01*
X013641Y001743D02*
X013257Y001743D01*
X012641Y001743D02*
X012257Y001743D01*
X013379Y001013D02*
X013379Y000787D01*
X015484Y003972D02*
X015590Y003972D01*
X015559Y004291D02*
X021287Y004291D01*
X021316Y003972D02*
X016308Y003972D01*
X016513Y003654D02*
X021527Y003654D01*
X021625Y003017D02*
X023139Y003017D01*
X023182Y003121D02*
X023089Y002896D01*
X023089Y002654D01*
X023182Y002429D01*
X023336Y002275D01*
X023182Y002121D01*
X023089Y001896D01*
X023089Y001654D01*
X023182Y001429D01*
X023089Y001743D02*
X021814Y001743D01*
X021946Y002061D02*
X023157Y002061D01*
X023232Y002380D02*
X021952Y002380D01*
X021859Y002698D02*
X023089Y002698D01*
X023182Y003121D02*
X023354Y003292D01*
X023578Y003385D01*
X023820Y003385D01*
X024045Y003292D01*
X024199Y003138D01*
X024354Y003292D01*
X024578Y003385D01*
X024820Y003385D01*
X025045Y003292D01*
X025214Y003123D01*
X025214Y003652D01*
X025052Y003585D01*
X024815Y003585D01*
X024596Y003676D01*
X024441Y003830D01*
X024287Y003676D01*
X024068Y003585D01*
X023830Y003585D01*
X023611Y003676D01*
X023444Y003844D01*
X023353Y004063D01*
X023353Y004300D01*
X023444Y004519D01*
X023611Y004687D01*
X023830Y004778D01*
X024068Y004778D01*
X024287Y004687D01*
X024441Y004533D01*
X024596Y004687D01*
X024815Y004778D01*
X025052Y004778D01*
X025214Y004711D01*
X025214Y007589D01*
X025052Y007522D01*
X024815Y007522D01*
X024596Y007613D01*
X024441Y007767D01*
X024287Y007613D01*
X024068Y007522D01*
X023830Y007522D01*
X023611Y007613D01*
X023444Y007781D01*
X023353Y008000D01*
X023353Y008237D01*
X023444Y008456D01*
X023611Y008624D01*
X023830Y008715D01*
X024068Y008715D01*
X024287Y008624D01*
X024441Y008470D01*
X024596Y008624D01*
X024815Y008715D01*
X025052Y008715D01*
X025214Y008648D01*
X025214Y009609D01*
X025147Y009542D01*
X024937Y009455D01*
X024711Y009455D01*
X024501Y009542D01*
X024341Y009702D01*
X024254Y009912D01*
X024254Y010138D01*
X024341Y010348D01*
X024501Y010508D01*
X024542Y010525D01*
X024501Y010542D01*
X024341Y010702D01*
X024254Y010912D01*
X024254Y011138D01*
X024341Y011348D01*
X024501Y011508D01*
X024711Y011595D01*
X024937Y011595D01*
X025147Y011508D01*
X025214Y011441D01*
X025214Y013609D01*
X025147Y013542D01*
X024937Y013455D01*
X024711Y013455D01*
X024501Y013542D01*
X024341Y013702D01*
X024254Y013912D01*
X024254Y014138D01*
X024341Y014348D01*
X024501Y014508D01*
X024542Y014525D01*
X024501Y014542D01*
X024341Y014702D01*
X024254Y014912D01*
X024254Y015138D01*
X024341Y015348D01*
X024501Y015508D01*
X024711Y015595D01*
X024937Y015595D01*
X025147Y015508D01*
X025214Y015441D01*
X025214Y016400D01*
X023312Y016400D01*
X023341Y016371D01*
X023434Y016146D01*
X023434Y015904D01*
X023341Y015679D01*
X023187Y015525D01*
X023341Y015371D01*
X023434Y015146D01*
X023434Y014904D01*
X023341Y014679D01*
X023170Y014508D01*
X023133Y014493D01*
X023189Y014452D01*
X023251Y014390D01*
X023303Y014319D01*
X023343Y014240D01*
X023370Y014156D01*
X023384Y014069D01*
X023384Y014025D01*
X022824Y014025D01*
X022264Y014025D01*
X022264Y013981D01*
X022278Y013894D01*
X022305Y013810D01*
X022345Y013731D01*
X022397Y013660D01*
X022459Y013598D01*
X022531Y013546D01*
X022609Y013506D01*
X022693Y013479D01*
X022780Y013465D01*
X022824Y013465D01*
X022824Y014025D01*
X022824Y014025D01*
X022264Y014025D01*
X022264Y014069D01*
X022278Y014156D01*
X022305Y014240D01*
X022345Y014319D01*
X022397Y014390D01*
X022459Y014452D01*
X022515Y014493D01*
X022479Y014508D01*
X022307Y014679D01*
X022214Y014904D01*
X022214Y015146D01*
X022307Y015371D01*
X022461Y015525D01*
X022307Y015679D01*
X022214Y015904D01*
X022214Y016146D01*
X022307Y016371D01*
X022336Y016400D01*
X019449Y016400D01*
X019449Y019900D01*
X020574Y022400D01*
X020574Y024437D01*
X020369Y024352D01*
X019994Y024352D01*
X019647Y024495D01*
X019387Y024755D01*
X019380Y024737D01*
X019237Y024594D01*
X019050Y024517D01*
X018848Y024517D01*
X018661Y024594D01*
X018518Y024737D01*
X018441Y024924D01*
X018441Y025126D01*
X018518Y025313D01*
X018605Y025400D01*
X018395Y025400D01*
X018380Y025362D01*
X018237Y025219D01*
X018050Y025142D01*
X017848Y025142D01*
X017661Y025219D01*
X017660Y025221D01*
X017660Y025107D01*
X017516Y024760D01*
X017251Y024495D01*
X016904Y024352D01*
X016824Y024352D01*
X016824Y019442D01*
X016834Y019452D01*
X016906Y019504D01*
X016984Y019544D01*
X017068Y019571D01*
X017155Y019585D01*
X017199Y019585D01*
X017199Y019025D01*
X017199Y019025D01*
X017199Y018465D01*
X017199Y018025D01*
X017199Y018025D01*
X017199Y018025D01*
X017199Y017465D01*
X017155Y017465D01*
X017068Y017479D01*
X016984Y017506D01*
X016906Y017546D01*
X016834Y017598D01*
X016824Y017608D01*
X016824Y016238D01*
X016904Y016238D01*
X017251Y016094D01*
X017516Y015829D01*
X017660Y015482D01*
X017660Y015107D01*
X017516Y014760D01*
X017251Y014495D01*
X016904Y014352D01*
X016529Y014352D01*
X016183Y014495D01*
X015917Y014760D01*
X015774Y015107D01*
X015774Y015482D01*
X015917Y015829D01*
X016183Y016094D01*
X016234Y016115D01*
X016199Y016150D01*
X012199Y016150D01*
X010699Y017650D01*
X010699Y017775D01*
X010449Y020025D01*
X010449Y024385D01*
X010369Y024352D01*
X009994Y024352D01*
X009647Y024495D01*
X009382Y024760D01*
X009238Y025107D01*
X009238Y025482D01*
X009360Y025775D01*
X007539Y025775D01*
X007660Y025482D01*
X007660Y025107D01*
X007516Y024760D01*
X007251Y024495D01*
X006904Y024352D01*
X006529Y024352D01*
X006183Y024495D01*
X005917Y024760D01*
X005882Y024845D01*
X005812Y024775D01*
X005966Y024621D01*
X006059Y024396D01*
X006059Y024154D01*
X005966Y023929D01*
X005812Y023775D01*
X005966Y023621D01*
X006059Y023396D01*
X006059Y023154D01*
X005966Y022929D01*
X005812Y022775D01*
X005966Y022621D01*
X006059Y022396D01*
X006059Y022154D01*
X005966Y021929D01*
X005812Y021775D01*
X005966Y021621D01*
X006059Y021396D01*
X006059Y021154D01*
X005966Y020929D01*
X005812Y020775D01*
X005966Y020621D01*
X006059Y020396D01*
X006059Y020154D01*
X005966Y019929D01*
X005812Y019775D01*
X005966Y019621D01*
X006004Y019529D01*
X006018Y019563D01*
X006161Y019706D01*
X006348Y019783D01*
X006550Y019783D01*
X006737Y019706D01*
X006880Y019563D01*
X006957Y019376D01*
X006957Y019174D01*
X006880Y018987D01*
X006737Y018844D01*
X006550Y018767D01*
X006348Y018767D01*
X006161Y018844D01*
X006018Y018987D01*
X006004Y019021D01*
X005966Y018929D01*
X005812Y018775D01*
X005966Y018621D01*
X006059Y018396D01*
X006059Y018154D01*
X005966Y017929D01*
X005795Y017758D01*
X005758Y017743D01*
X005814Y017702D01*
X005876Y017640D01*
X005928Y017569D01*
X005968Y017490D01*
X005995Y017406D01*
X006009Y017319D01*
X006009Y017275D01*
X005449Y017275D01*
X006009Y017275D01*
X006009Y017231D01*
X005995Y017144D01*
X005968Y017060D01*
X005928Y016981D01*
X005876Y016910D01*
X005814Y016848D01*
X005758Y016807D01*
X005795Y016792D01*
X005966Y016621D01*
X006059Y016396D01*
X006059Y016154D01*
X005966Y015929D01*
X005812Y015775D01*
X005871Y015716D01*
X005917Y015829D01*
X006183Y016094D01*
X006529Y016238D01*
X006904Y016238D01*
X007251Y016094D01*
X007516Y015829D01*
X007660Y015482D01*
X007660Y015107D01*
X007516Y014760D01*
X007251Y014495D01*
X006904Y014352D01*
X006529Y014352D01*
X006183Y014495D01*
X005917Y014760D01*
X005882Y014845D01*
X005812Y014775D01*
X005966Y014621D01*
X006059Y014396D01*
X006059Y014154D01*
X005966Y013929D01*
X005812Y013775D01*
X005966Y013621D01*
X006059Y013396D01*
X006059Y013154D01*
X005966Y012929D01*
X005812Y012775D01*
X005966Y012621D01*
X006059Y012396D01*
X006059Y012154D01*
X005966Y011929D01*
X005795Y011758D01*
X005570Y011665D01*
X005328Y011665D01*
X005104Y011758D01*
X004949Y011912D01*
X004795Y011758D01*
X004570Y011665D01*
X004328Y011665D01*
X004104Y011758D01*
X003949Y011912D01*
X003795Y011758D01*
X003570Y011665D01*
X003328Y011665D01*
X003104Y011758D01*
X002949Y011912D01*
X002795Y011758D01*
X002570Y011665D01*
X002328Y011665D01*
X002104Y011758D01*
X001932Y011929D01*
X001839Y012154D01*
X001839Y012396D01*
X001932Y012621D01*
X002086Y012775D01*
X001932Y012929D01*
X001839Y013154D01*
X001839Y013396D01*
X001932Y013621D01*
X002086Y013775D01*
X001932Y013929D01*
X001839Y014154D01*
X001839Y014396D01*
X001932Y014621D01*
X002086Y014775D01*
X001932Y014929D01*
X001839Y015154D01*
X001839Y015396D01*
X001932Y015621D01*
X002086Y015775D01*
X001932Y015929D01*
X001839Y016154D01*
X001839Y016396D01*
X001932Y016621D01*
X002086Y016775D01*
X001932Y016929D01*
X001839Y017154D01*
X001839Y017396D01*
X001932Y017621D01*
X002086Y017775D01*
X001932Y017929D01*
X001839Y018154D01*
X001839Y018396D01*
X001932Y018621D01*
X002086Y018775D01*
X001932Y018929D01*
X001839Y019154D01*
X001839Y019396D01*
X001932Y019621D01*
X002086Y019775D01*
X001932Y019929D01*
X001839Y020154D01*
X001839Y020396D01*
X001932Y020621D01*
X002086Y020775D01*
X001932Y020929D01*
X001839Y021154D01*
X001839Y021396D01*
X001932Y021621D01*
X002086Y021775D01*
X001932Y021929D01*
X001839Y022154D01*
X001839Y022396D01*
X001932Y022621D01*
X002086Y022775D01*
X001932Y022929D01*
X001839Y023154D01*
X001839Y023396D01*
X001932Y023621D01*
X002086Y023775D01*
X001932Y023929D01*
X001839Y024154D01*
X001839Y024396D01*
X001932Y024621D01*
X002086Y024775D01*
X001932Y024929D01*
X001839Y025154D01*
X001839Y025396D01*
X001932Y025621D01*
X002086Y025775D01*
X001309Y025775D01*
X001309Y010931D01*
X001377Y010999D01*
X001596Y011090D01*
X001833Y011090D01*
X002053Y010999D01*
X002207Y010845D01*
X002361Y010999D01*
X002580Y011090D01*
X002818Y011090D01*
X003037Y010999D01*
X003205Y010831D01*
X003295Y010612D01*
X003295Y010375D01*
X003205Y010156D01*
X003037Y009988D01*
X002818Y009897D01*
X002580Y009897D01*
X002361Y009988D01*
X002207Y010142D01*
X002053Y009988D01*
X001833Y009897D01*
X001596Y009897D01*
X001377Y009988D01*
X001309Y010056D01*
X001309Y006994D01*
X001377Y007062D01*
X001596Y007153D01*
X001833Y007153D01*
X002053Y007062D01*
X002207Y006908D01*
X002361Y007062D01*
X002580Y007153D01*
X002818Y007153D01*
X003037Y007062D01*
X003205Y006894D01*
X003295Y006675D01*
X003295Y006438D01*
X003205Y006219D01*
X003037Y006051D01*
X002818Y005960D01*
X002580Y005960D01*
X002361Y006051D01*
X002207Y006205D01*
X002053Y006051D01*
X001833Y005960D01*
X001596Y005960D01*
X001377Y006051D01*
X001309Y006119D01*
X001309Y005431D01*
X001377Y005499D01*
X001596Y005590D01*
X001833Y005590D01*
X002053Y005499D01*
X002207Y005345D01*
X002361Y005499D01*
X002580Y005590D01*
X002818Y005590D01*
X003037Y005499D01*
X003205Y005331D01*
X003295Y005112D01*
X003295Y004875D01*
X003205Y004656D01*
X003037Y004488D01*
X002818Y004397D01*
X002580Y004397D01*
X002361Y004488D01*
X002207Y004642D01*
X002053Y004488D01*
X001833Y004397D01*
X001596Y004397D01*
X001377Y004488D01*
X001309Y004556D01*
X001309Y004291D02*
X004033Y004291D01*
X004076Y004609D02*
X003158Y004609D01*
X003295Y004928D02*
X003974Y004928D01*
X004021Y005246D02*
X003240Y005246D01*
X002879Y005565D02*
X004257Y005565D01*
X004480Y005883D02*
X001309Y005883D01*
X001309Y005565D02*
X001535Y005565D01*
X001894Y005565D02*
X002520Y005565D01*
X002211Y006202D02*
X002203Y006202D01*
X003187Y006202D02*
X004064Y006202D01*
X003974Y006520D02*
X003295Y006520D01*
X003228Y006839D02*
X004033Y006839D01*
X004075Y007157D02*
X001309Y007157D01*
X001309Y007476D02*
X003974Y007476D01*
X004021Y007794D02*
X001309Y007794D01*
X001309Y008113D02*
X002130Y008113D01*
X002111Y008132D02*
X002306Y007937D01*
X002561Y007831D01*
X002837Y007831D01*
X003092Y007937D01*
X003287Y008132D01*
X003393Y008387D01*
X003393Y008663D01*
X003287Y008918D01*
X003092Y009113D01*
X002837Y009219D01*
X002561Y009219D01*
X002306Y009113D01*
X002111Y008918D01*
X002005Y008663D01*
X002005Y008387D01*
X002111Y008132D01*
X002005Y008431D02*
X001309Y008431D01*
X001309Y008750D02*
X002041Y008750D01*
X002261Y009068D02*
X001309Y009068D01*
X001309Y009387D02*
X003974Y009387D01*
X003998Y009705D02*
X001309Y009705D01*
X001309Y010024D02*
X001342Y010024D01*
X002088Y010024D02*
X002326Y010024D01*
X003072Y010024D02*
X004156Y010024D01*
X003979Y010342D02*
X003282Y010342D01*
X003275Y010661D02*
X003986Y010661D01*
X004172Y010979D02*
X003057Y010979D01*
X002341Y010979D02*
X002072Y010979D01*
X001357Y010979D02*
X001309Y010979D01*
X001309Y011298D02*
X005960Y011298D01*
X005941Y011251D02*
X005941Y011049D01*
X006018Y010862D01*
X006161Y010719D01*
X006348Y010642D01*
X006550Y010642D01*
X006737Y010719D01*
X006880Y010862D01*
X006957Y011049D01*
X006957Y011251D01*
X006880Y011438D01*
X006737Y011581D01*
X006550Y011658D01*
X006348Y011658D01*
X006161Y011581D01*
X006018Y011438D01*
X005941Y011251D01*
X005970Y010979D02*
X005163Y010979D01*
X005349Y010661D02*
X006303Y010661D01*
X006595Y010661D02*
X022326Y010661D01*
X022307Y010679D02*
X022479Y010508D01*
X022515Y010493D01*
X022459Y010452D01*
X022397Y010390D01*
X022345Y010319D01*
X022305Y010240D01*
X022278Y010156D01*
X022264Y010069D01*
X022264Y010025D01*
X022264Y009981D01*
X022278Y009894D01*
X022305Y009810D01*
X022345Y009731D01*
X022397Y009660D01*
X022459Y009598D01*
X022531Y009546D01*
X022609Y009506D01*
X022693Y009479D01*
X022780Y009465D01*
X022824Y009465D01*
X022824Y010025D01*
X022264Y010025D01*
X022824Y010025D01*
X022824Y010025D01*
X022824Y010025D01*
X022824Y009465D01*
X022868Y009465D01*
X022955Y009479D01*
X023039Y009506D01*
X023118Y009546D01*
X023189Y009598D01*
X023251Y009660D01*
X023303Y009731D01*
X023343Y009810D01*
X023370Y009894D01*
X023384Y009981D01*
X023384Y010025D01*
X023384Y010069D01*
X023370Y010156D01*
X023343Y010240D01*
X023303Y010319D01*
X023251Y010390D01*
X023189Y010452D01*
X023133Y010493D01*
X023170Y010508D01*
X023341Y010679D01*
X023434Y010904D01*
X023434Y011146D01*
X023341Y011371D01*
X023187Y011525D01*
X023341Y011679D01*
X023434Y011904D01*
X023434Y012146D01*
X023341Y012371D01*
X023170Y012542D01*
X022945Y012635D01*
X022703Y012635D01*
X022479Y012542D01*
X022307Y012371D01*
X022214Y012146D01*
X022214Y011904D01*
X022307Y011679D01*
X022461Y011525D01*
X022307Y011371D01*
X022214Y011146D01*
X022214Y010904D01*
X022307Y010679D01*
X022214Y010979D02*
X018943Y010979D01*
X018932Y010952D02*
X019019Y011162D01*
X019019Y011388D01*
X018932Y011598D01*
X018772Y011758D01*
X018562Y011845D01*
X018336Y011845D01*
X018126Y011758D01*
X017966Y011598D01*
X017949Y011557D01*
X017932Y011598D01*
X017772Y011758D01*
X017562Y011845D01*
X017336Y011845D01*
X017126Y011758D01*
X016966Y011598D01*
X016879Y011388D01*
X016879Y011162D01*
X016966Y010952D01*
X017126Y010792D01*
X017336Y010705D01*
X017562Y010705D01*
X017772Y010792D01*
X017932Y010952D01*
X017949Y010993D01*
X017966Y010952D01*
X018126Y010792D01*
X018336Y010705D01*
X018562Y010705D01*
X018772Y010792D01*
X018932Y010952D01*
X019019Y011298D02*
X022277Y011298D01*
X022370Y011616D02*
X018914Y011616D01*
X018793Y012024D02*
X018570Y011932D01*
X018328Y011932D01*
X018105Y012024D01*
X017957Y012173D01*
X017809Y012024D01*
X017586Y011932D01*
X017344Y011932D01*
X017121Y012024D01*
X016950Y012195D01*
X016858Y012418D01*
X016858Y012659D01*
X016950Y012883D01*
X017121Y013053D01*
X017344Y013146D01*
X017586Y013146D01*
X017809Y013053D01*
X017957Y012905D01*
X018105Y013053D01*
X018328Y013146D01*
X018570Y013146D01*
X018793Y013053D01*
X018964Y012883D01*
X018975Y012855D01*
X019009Y012902D01*
X019071Y012964D01*
X019141Y013015D01*
X019220Y013055D01*
X019303Y013082D01*
X019389Y013096D01*
X019433Y013096D01*
X019433Y012539D01*
X019433Y012539D01*
X019433Y013096D01*
X019477Y013096D01*
X019564Y013082D01*
X019647Y013055D01*
X019725Y013015D01*
X019796Y012964D01*
X019858Y012902D01*
X019910Y012831D01*
X019949Y012753D01*
X019976Y012669D01*
X019990Y012583D01*
X019990Y012539D01*
X019433Y012539D01*
X019433Y012539D01*
X019433Y011982D01*
X019389Y011982D01*
X019303Y011996D01*
X019220Y012023D01*
X019141Y012063D01*
X019071Y012114D01*
X019009Y012176D01*
X018975Y012222D01*
X018964Y012195D01*
X018793Y012024D01*
X018576Y011935D02*
X022214Y011935D01*
X022258Y012253D02*
X019913Y012253D01*
X019910Y012247D02*
X019949Y012325D01*
X019976Y012408D01*
X019990Y012495D01*
X019990Y012539D01*
X019433Y012539D01*
X019433Y012539D01*
X019433Y011982D01*
X019477Y011982D01*
X019564Y011996D01*
X019647Y012023D01*
X019725Y012063D01*
X019796Y012114D01*
X019858Y012176D01*
X019910Y012247D01*
X019990Y012572D02*
X022549Y012572D01*
X023099Y012572D02*
X025214Y012572D01*
X025214Y012890D02*
X019866Y012890D01*
X019433Y012890D02*
X019433Y012890D01*
X019433Y012572D02*
X019433Y012572D01*
X019433Y012253D02*
X019433Y012253D01*
X019000Y012890D02*
X018956Y012890D01*
X018322Y011935D02*
X017592Y011935D01*
X017338Y011935D02*
X014278Y011935D01*
X014362Y011969D02*
X014505Y012112D01*
X014582Y012299D01*
X014582Y012501D01*
X014505Y012688D01*
X014362Y012831D01*
X014175Y012908D01*
X013973Y012908D01*
X013786Y012831D01*
X013643Y012688D01*
X013566Y012501D01*
X013566Y012299D01*
X013643Y012112D01*
X013786Y011969D01*
X013973Y011892D01*
X014175Y011892D01*
X014362Y011969D01*
X014563Y012253D02*
X016926Y012253D01*
X016858Y012572D02*
X014553Y012572D01*
X014219Y012890D02*
X016958Y012890D01*
X016505Y013362D02*
X016582Y013549D01*
X016582Y013751D01*
X016505Y013938D01*
X016362Y014081D01*
X016175Y014158D01*
X015973Y014158D01*
X015786Y014081D01*
X015643Y013938D01*
X015566Y013751D01*
X015566Y013549D01*
X015643Y013362D01*
X015786Y013219D01*
X015973Y013142D01*
X016175Y013142D01*
X016362Y013219D01*
X016505Y013362D01*
X016573Y013527D02*
X022568Y013527D01*
X022824Y013527D02*
X022824Y013527D01*
X022824Y013465D02*
X022868Y013465D01*
X022955Y013479D01*
X023039Y013506D01*
X023118Y013546D01*
X023189Y013598D01*
X023251Y013660D01*
X023303Y013731D01*
X023343Y013810D01*
X023370Y013894D01*
X023384Y013981D01*
X023384Y014025D01*
X022824Y014025D01*
X022824Y014025D01*
X022824Y013465D01*
X023080Y013527D02*
X024537Y013527D01*
X024281Y013846D02*
X023355Y013846D01*
X023368Y014164D02*
X024265Y014164D01*
X024475Y014483D02*
X023147Y014483D01*
X023392Y014801D02*
X024300Y014801D01*
X024254Y015120D02*
X023434Y015120D01*
X023274Y015438D02*
X024431Y015438D01*
X025214Y015757D02*
X023373Y015757D01*
X023434Y016075D02*
X025214Y016075D01*
X025214Y016394D02*
X023318Y016394D01*
X022330Y016394D02*
X016824Y016394D01*
X016824Y016712D02*
X019449Y016712D01*
X019449Y017031D02*
X016824Y017031D01*
X016824Y017349D02*
X019449Y017349D01*
X019449Y017668D02*
X018704Y017668D01*
X018716Y017679D02*
X018809Y017904D01*
X018809Y018146D01*
X018716Y018371D01*
X018562Y018525D01*
X018716Y018679D01*
X018809Y018904D01*
X018809Y019146D01*
X018716Y019371D01*
X018545Y019542D01*
X018320Y019635D01*
X018078Y019635D01*
X017854Y019542D01*
X017682Y019371D01*
X017667Y019334D01*
X017626Y019390D01*
X017564Y019452D01*
X017493Y019504D01*
X017414Y019544D01*
X017330Y019571D01*
X017243Y019585D01*
X017199Y019585D01*
X017199Y019025D01*
X017199Y019025D01*
X017199Y018025D01*
X017199Y017465D01*
X017243Y017465D01*
X017330Y017479D01*
X017414Y017506D01*
X017493Y017546D01*
X017564Y017598D01*
X017626Y017660D01*
X017667Y017716D01*
X017682Y017679D01*
X017854Y017508D01*
X018078Y017415D01*
X018320Y017415D01*
X018545Y017508D01*
X018716Y017679D01*
X018809Y017986D02*
X019449Y017986D01*
X019449Y018305D02*
X018744Y018305D01*
X018660Y018623D02*
X019449Y018623D01*
X019449Y018942D02*
X018809Y018942D01*
X018762Y019260D02*
X019449Y019260D01*
X019449Y019579D02*
X018457Y019579D01*
X017941Y019579D02*
X017284Y019579D01*
X017199Y019579D02*
X017199Y019579D01*
X017114Y019579D02*
X016824Y019579D01*
X016824Y019897D02*
X019449Y019897D01*
X019591Y020216D02*
X016824Y020216D01*
X016824Y020534D02*
X019734Y020534D01*
X019878Y020853D02*
X018833Y020853D01*
X018772Y020792D02*
X018932Y020952D01*
X019019Y021162D01*
X019019Y021388D01*
X018932Y021598D01*
X018772Y021758D01*
X018562Y021845D01*
X018336Y021845D01*
X018126Y021758D01*
X017966Y021598D01*
X017949Y021557D01*
X017932Y021598D01*
X017772Y021758D01*
X017562Y021845D01*
X017336Y021845D01*
X017126Y021758D01*
X016966Y021598D01*
X016879Y021388D01*
X016879Y021162D01*
X016966Y020952D01*
X017126Y020792D01*
X017336Y020705D01*
X017562Y020705D01*
X017772Y020792D01*
X017932Y020952D01*
X017949Y020993D01*
X017966Y020952D01*
X018126Y020792D01*
X018336Y020705D01*
X018562Y020705D01*
X018772Y020792D01*
X019019Y021171D02*
X020021Y021171D01*
X020164Y021490D02*
X018977Y021490D01*
X018652Y021808D02*
X020308Y021808D01*
X020451Y022127D02*
X019809Y022127D01*
X019796Y022114D02*
X019858Y022176D01*
X019910Y022247D01*
X019949Y022325D01*
X019976Y022408D01*
X019990Y022495D01*
X019990Y022539D01*
X019990Y022583D01*
X019976Y022669D01*
X019949Y022753D01*
X019910Y022831D01*
X019858Y022902D01*
X019796Y022964D01*
X019725Y023015D01*
X019647Y023055D01*
X019564Y023082D01*
X019477Y023096D01*
X019433Y023096D01*
X019389Y023096D01*
X019303Y023082D01*
X019220Y023055D01*
X019141Y023015D01*
X019071Y022964D01*
X019009Y022902D01*
X018975Y022855D01*
X018964Y022883D01*
X018793Y023053D01*
X018570Y023146D01*
X018328Y023146D01*
X018105Y023053D01*
X017957Y022905D01*
X017809Y023053D01*
X017586Y023146D01*
X017344Y023146D01*
X017121Y023053D01*
X016950Y022883D01*
X016858Y022659D01*
X016858Y022418D01*
X016950Y022195D01*
X017121Y022024D01*
X017344Y021932D01*
X017586Y021932D01*
X017809Y022024D01*
X017957Y022173D01*
X018105Y022024D01*
X018328Y021932D01*
X018570Y021932D01*
X018793Y022024D01*
X018964Y022195D01*
X018975Y022222D01*
X019009Y022176D01*
X019071Y022114D01*
X019141Y022063D01*
X019220Y022023D01*
X019303Y021996D01*
X019389Y021982D01*
X019433Y021982D01*
X019433Y022539D01*
X019433Y023096D01*
X019433Y022539D01*
X019433Y022539D01*
X019433Y022539D01*
X019990Y022539D01*
X019433Y022539D01*
X019433Y022539D01*
X019433Y021982D01*
X019477Y021982D01*
X019564Y021996D01*
X019647Y022023D01*
X019725Y022063D01*
X019796Y022114D01*
X019982Y022445D02*
X020574Y022445D01*
X020574Y022764D02*
X019944Y022764D01*
X019563Y023082D02*
X020574Y023082D01*
X020574Y023401D02*
X016824Y023401D01*
X016824Y023719D02*
X020574Y023719D01*
X020574Y024038D02*
X016824Y024038D01*
X016915Y024356D02*
X019983Y024356D01*
X019468Y024675D02*
X019317Y024675D01*
X018581Y024675D02*
X017430Y024675D01*
X017613Y024993D02*
X018441Y024993D01*
X018518Y025312D02*
X018329Y025312D01*
X018070Y026150D02*
X018050Y026158D01*
X017848Y026158D01*
X017828Y026150D01*
X017116Y026150D01*
X016904Y026238D01*
X016529Y026238D01*
X016317Y026150D01*
X016199Y026150D01*
X016199Y026101D01*
X016183Y026094D01*
X015917Y025829D01*
X015774Y025482D01*
X015774Y025107D01*
X015917Y024760D01*
X016183Y024495D01*
X016199Y024488D01*
X016199Y017102D01*
X016197Y017108D01*
X016032Y017273D01*
X015816Y017362D01*
X015582Y017362D01*
X015366Y017273D01*
X015201Y017108D01*
X015112Y016892D01*
X015112Y016658D01*
X015115Y016650D01*
X013283Y016650D01*
X013286Y016658D01*
X013286Y016892D01*
X013197Y017108D01*
X013032Y017273D01*
X012816Y017362D01*
X012582Y017362D01*
X012366Y017273D01*
X012201Y017108D01*
X012149Y016980D01*
X011376Y017830D01*
X011437Y017830D01*
X011647Y017917D01*
X011807Y018077D01*
X011894Y018287D01*
X011894Y018513D01*
X011807Y018723D01*
X011647Y018883D01*
X011437Y018970D01*
X011211Y018970D01*
X011199Y018965D01*
X011199Y019835D01*
X011211Y019830D01*
X011437Y019830D01*
X011647Y019917D01*
X011807Y020077D01*
X011894Y020287D01*
X011894Y020513D01*
X011807Y020723D01*
X011647Y020883D01*
X011437Y020970D01*
X011211Y020970D01*
X011199Y020965D01*
X011199Y024219D01*
X011251Y024167D01*
X011461Y024080D01*
X011687Y024080D01*
X011897Y024167D01*
X012057Y024327D01*
X012074Y024368D01*
X012091Y024327D01*
X012251Y024167D01*
X012461Y024080D01*
X012687Y024080D01*
X012897Y024167D01*
X013012Y024281D01*
X013126Y024167D01*
X013336Y024080D01*
X013562Y024080D01*
X013772Y024167D01*
X013932Y024327D01*
X013949Y024368D01*
X013966Y024327D01*
X014126Y024167D01*
X014336Y024080D01*
X014562Y024080D01*
X014772Y024167D01*
X014932Y024327D01*
X015019Y024537D01*
X015019Y024763D01*
X014932Y024973D01*
X014772Y025133D01*
X014562Y025220D01*
X014336Y025220D01*
X014126Y025133D01*
X013966Y024973D01*
X013949Y024932D01*
X013932Y024973D01*
X013772Y025133D01*
X013562Y025220D01*
X013336Y025220D01*
X013126Y025133D01*
X013012Y025019D01*
X012897Y025133D01*
X012687Y025220D01*
X012461Y025220D01*
X012251Y025133D01*
X012091Y024973D01*
X012074Y024932D01*
X012057Y024973D01*
X011897Y025133D01*
X011687Y025220D01*
X011461Y025220D01*
X011251Y025133D01*
X011199Y025081D01*
X011199Y025594D01*
X011251Y025542D01*
X011461Y025455D01*
X011687Y025455D01*
X011897Y025542D01*
X012057Y025702D01*
X012144Y025912D01*
X012144Y026138D01*
X012057Y026348D01*
X011897Y026508D01*
X011856Y026525D01*
X011897Y026542D01*
X012057Y026702D01*
X012144Y026912D01*
X012144Y027138D01*
X012057Y027348D01*
X011897Y027508D01*
X011687Y027595D01*
X011461Y027595D01*
X011251Y027508D01*
X011091Y027348D01*
X011004Y027138D01*
X011004Y026912D01*
X011091Y026702D01*
X011251Y026542D01*
X011292Y026525D01*
X011251Y026508D01*
X011143Y026400D01*
X006058Y026400D01*
X005966Y026621D01*
X005795Y026792D01*
X005570Y026885D01*
X005328Y026885D01*
X005104Y026792D01*
X004949Y026638D01*
X004795Y026792D01*
X004570Y026885D01*
X004328Y026885D01*
X004104Y026792D01*
X003949Y026638D01*
X003795Y026792D01*
X003570Y026885D01*
X003328Y026885D01*
X003104Y026792D01*
X002949Y026638D01*
X002795Y026792D01*
X002570Y026885D01*
X002328Y026885D01*
X002104Y026792D01*
X001932Y026621D01*
X001841Y026400D01*
X001309Y026400D01*
X001309Y033540D01*
X009491Y033540D01*
X009279Y033452D01*
X009107Y033281D01*
X009014Y033056D01*
X009014Y032814D01*
X009107Y032589D01*
X009279Y032418D01*
X009503Y032325D01*
X009745Y032325D01*
X009970Y032418D01*
X010124Y032572D01*
X010279Y032418D01*
X010503Y032325D01*
X010745Y032325D01*
X010970Y032418D01*
X011124Y032572D01*
X011279Y032418D01*
X011503Y032325D01*
X011745Y032325D01*
X011970Y032418D01*
X012124Y032572D01*
X012279Y032418D01*
X012503Y032325D01*
X012745Y032325D01*
X012959Y032414D01*
X012959Y032307D01*
X013046Y032097D01*
X013206Y031937D01*
X013416Y031850D01*
X013642Y031850D01*
X013852Y031937D01*
X014012Y032097D01*
X014099Y032307D01*
X014099Y032533D01*
X014012Y032743D01*
X013852Y032903D01*
X013811Y032920D01*
X013852Y032937D01*
X013897Y032982D01*
X013961Y032827D01*
X014121Y032667D01*
X014331Y032580D01*
X014557Y032580D01*
X014767Y032667D01*
X014927Y032827D01*
X014944Y032868D01*
X014961Y032827D01*
X015121Y032667D01*
X015331Y032580D01*
X015557Y032580D01*
X015767Y032667D01*
X015884Y032784D01*
X016001Y032667D01*
X016211Y032580D01*
X016437Y032580D01*
X016647Y032667D01*
X016807Y032827D01*
X016824Y032868D01*
X016841Y032827D01*
X017001Y032667D01*
X017211Y032580D01*
X017437Y032580D01*
X017647Y032667D01*
X017762Y032781D01*
X017876Y032667D01*
X018086Y032580D01*
X018312Y032580D01*
X018522Y032667D01*
X018682Y032827D01*
X018699Y032868D01*
X018716Y032827D01*
X018876Y032667D01*
X019086Y032580D01*
X019312Y032580D01*
X019522Y032667D01*
X019682Y032827D01*
X019769Y033037D01*
X019769Y033263D01*
X019682Y033473D01*
X019615Y033540D01*
X025214Y033540D01*
X025214Y030923D01*
X024867Y031066D01*
X024478Y031066D01*
X024118Y030918D01*
X023843Y030642D01*
X023694Y030283D01*
X023694Y029893D01*
X023843Y029534D01*
X024118Y029258D01*
X024478Y029109D01*
X024867Y029109D01*
X025214Y029253D01*
X025214Y028248D01*
X025178Y028319D01*
X025126Y028390D01*
X025064Y028452D01*
X024993Y028504D01*
X024914Y028544D01*
X024830Y028571D01*
X024743Y028585D01*
X024699Y028585D01*
X024655Y028585D01*
X024568Y028571D01*
X024484Y028544D01*
X024406Y028504D01*
X024334Y028452D01*
X024272Y028390D01*
X024231Y028334D01*
X024216Y028371D01*
X024045Y028542D01*
X023891Y028606D01*
X023966Y028681D01*
X024059Y028904D01*
X024059Y029146D01*
X023966Y029369D01*
X023796Y029539D01*
X023573Y029632D01*
X023331Y029632D01*
X023108Y029539D01*
X022960Y029391D01*
X022812Y029539D01*
X022588Y029632D01*
X022347Y029632D01*
X022124Y029539D01*
X022074Y029490D01*
X022024Y029539D01*
X021801Y029632D01*
X021560Y029632D01*
X021337Y029539D01*
X021166Y029369D01*
X021155Y029341D01*
X021121Y029388D01*
X021059Y029450D01*
X020988Y029501D01*
X020910Y029541D01*
X020826Y029568D01*
X020740Y029582D01*
X020696Y029582D01*
X020652Y029582D01*
X020566Y029568D01*
X020482Y029541D01*
X020404Y029501D01*
X020333Y029450D01*
X020271Y029388D01*
X020220Y029317D01*
X020180Y029239D01*
X020153Y029155D01*
X020139Y029069D01*
X020139Y029025D01*
X020139Y028981D01*
X020153Y028895D01*
X020180Y028811D01*
X020220Y028733D01*
X020271Y028662D01*
X020333Y028600D01*
X020392Y028558D01*
X020354Y028542D01*
X020199Y028388D01*
X020045Y028542D01*
X019820Y028635D01*
X019578Y028635D01*
X019354Y028542D01*
X019182Y028371D01*
X019089Y028146D01*
X019089Y027904D01*
X019182Y027679D01*
X019354Y027508D01*
X019578Y027415D01*
X019820Y027415D01*
X020045Y027508D01*
X020199Y027662D01*
X020354Y027508D01*
X020475Y027458D01*
X020441Y027376D01*
X020441Y027174D01*
X020518Y026987D01*
X020661Y026844D01*
X020848Y026767D01*
X021050Y026767D01*
X021237Y026844D01*
X021380Y026987D01*
X021457Y027174D01*
X021457Y027376D01*
X021413Y027483D01*
X021578Y027415D01*
X021820Y027415D01*
X022045Y027508D01*
X022199Y027662D01*
X022353Y027508D01*
X022306Y027488D01*
X022111Y027293D01*
X022005Y027038D01*
X022005Y026762D01*
X022111Y026507D01*
X022306Y026312D01*
X022512Y026226D01*
X022369Y026167D01*
X022198Y025996D01*
X022105Y025771D01*
X022105Y025529D01*
X022198Y025304D01*
X022369Y025133D01*
X022512Y025074D01*
X022306Y024988D01*
X022111Y024793D01*
X022005Y024538D01*
X022005Y024262D01*
X022111Y024007D01*
X022280Y023838D01*
X022111Y023668D01*
X022005Y023413D01*
X022005Y023137D01*
X022111Y022882D01*
X022306Y022687D01*
X022512Y022601D01*
X022369Y022542D01*
X022198Y022371D01*
X022105Y022146D01*
X022105Y021904D01*
X022198Y021679D01*
X022369Y021508D01*
X022512Y021449D01*
X022306Y021363D01*
X022111Y021168D01*
X022005Y020913D01*
X022005Y020637D01*
X022111Y020382D01*
X022280Y020213D01*
X022111Y020043D01*
X022005Y019788D01*
X022005Y019512D01*
X022111Y019257D01*
X022306Y019062D01*
X022512Y018976D01*
X022369Y018917D01*
X022198Y018746D01*
X022105Y018521D01*
X022105Y018279D01*
X022198Y018054D01*
X022369Y017883D01*
X022512Y017824D01*
X022306Y017738D01*
X022111Y017543D01*
X022005Y017288D01*
X022005Y017025D01*
X019949Y017025D01*
X019949Y017774D01*
X019984Y017756D01*
X020068Y017729D01*
X020155Y017715D01*
X020199Y017715D01*
X020199Y018275D01*
X020199Y018275D01*
X020199Y018835D01*
X020199Y019275D01*
X020199Y019835D01*
X020155Y019835D01*
X020100Y019826D01*
X021199Y022025D01*
X021199Y026150D01*
X020581Y026150D01*
X020369Y026238D01*
X019994Y026238D01*
X019782Y026150D01*
X018070Y026150D01*
X018070Y027665D02*
X017828Y027665D01*
X017604Y027758D01*
X017449Y027912D01*
X017295Y027758D01*
X017070Y027665D01*
X016828Y027665D01*
X016604Y027758D01*
X016449Y027912D01*
X016295Y027758D01*
X016070Y027665D01*
X015828Y027665D01*
X015604Y027758D01*
X015449Y027912D01*
X015295Y027758D01*
X015070Y027665D01*
X014828Y027665D01*
X014604Y027758D01*
X014449Y027912D01*
X014295Y027758D01*
X014070Y027665D01*
X013828Y027665D01*
X013604Y027758D01*
X013449Y027912D01*
X013295Y027758D01*
X013070Y027665D01*
X012828Y027665D01*
X012604Y027758D01*
X012449Y027912D01*
X012295Y027758D01*
X012070Y027665D01*
X011828Y027665D01*
X011604Y027758D01*
X011449Y027912D01*
X011295Y027758D01*
X011070Y027665D01*
X010828Y027665D01*
X010604Y027758D01*
X010449Y027912D01*
X010295Y027758D01*
X010070Y027665D01*
X009828Y027665D01*
X009604Y027758D01*
X009449Y027912D01*
X009295Y027758D01*
X009070Y027665D01*
X008828Y027665D01*
X008604Y027758D01*
X008582Y027779D01*
X008582Y027674D01*
X008505Y027487D01*
X008362Y027344D01*
X008175Y027267D01*
X007973Y027267D01*
X007786Y027344D01*
X007762Y027369D01*
X007737Y027344D01*
X007550Y027267D01*
X007348Y027267D01*
X007161Y027344D01*
X007018Y027487D01*
X006941Y027674D01*
X006941Y027840D01*
X005840Y027840D01*
X005862Y027831D01*
X006005Y027688D01*
X006082Y027501D01*
X006082Y027299D01*
X006005Y027112D01*
X005862Y026969D01*
X005675Y026892D01*
X005473Y026892D01*
X005286Y026969D01*
X005143Y027112D01*
X005066Y027299D01*
X005066Y027501D01*
X005143Y027688D01*
X005286Y027831D01*
X005473Y027908D01*
X005628Y027908D01*
X005561Y027974D01*
X005514Y028088D01*
X005514Y030090D01*
X004884Y030090D01*
X004884Y028088D01*
X004837Y027974D01*
X004750Y027887D01*
X004636Y027840D01*
X003387Y027840D01*
X003273Y027887D01*
X003186Y027974D01*
X003139Y028088D01*
X003139Y030212D01*
X003186Y030326D01*
X003273Y030413D01*
X003387Y030460D01*
X003889Y030460D01*
X003889Y031587D01*
X003936Y031701D01*
X003961Y031726D01*
X003943Y031729D01*
X003859Y031756D01*
X003781Y031796D01*
X003709Y031848D01*
X003647Y031910D01*
X003606Y031966D01*
X003591Y031929D01*
X003420Y031758D01*
X003195Y031665D01*
X002953Y031665D01*
X002729Y031758D01*
X002574Y031912D01*
X002420Y031758D01*
X002195Y031665D01*
X001953Y031665D01*
X001729Y031758D01*
X001557Y031929D01*
X001464Y032154D01*
X001464Y032396D01*
X001557Y032621D01*
X001729Y032792D01*
X001953Y032885D01*
X002195Y032885D01*
X002420Y032792D01*
X002574Y032638D01*
X002729Y032792D01*
X002953Y032885D01*
X003195Y032885D01*
X003420Y032792D01*
X003591Y032621D01*
X003606Y032584D01*
X003647Y032640D01*
X003709Y032702D01*
X003781Y032754D01*
X003859Y032794D01*
X003943Y032821D01*
X004030Y032835D01*
X004074Y032835D01*
X004074Y032275D01*
X004074Y032275D01*
X004074Y032835D01*
X004118Y032835D01*
X004205Y032821D01*
X004289Y032794D01*
X004368Y032754D01*
X004439Y032702D01*
X004501Y032640D01*
X004553Y032569D01*
X004593Y032490D01*
X004620Y032406D01*
X004634Y032319D01*
X004634Y032275D01*
X004074Y032275D01*
X004634Y032275D01*
X004634Y032231D01*
X004620Y032144D01*
X004593Y032060D01*
X004553Y031981D01*
X004501Y031910D01*
X004439Y031848D01*
X004421Y031835D01*
X006261Y031835D01*
X006375Y031788D01*
X006462Y031701D01*
X006509Y031587D01*
X006509Y030460D01*
X007011Y030460D01*
X007012Y030459D01*
X007150Y030597D01*
X007344Y030678D01*
X007554Y030678D01*
X007748Y030597D01*
X007896Y030449D01*
X007977Y030255D01*
X007977Y030045D01*
X007896Y029851D01*
X007816Y029771D01*
X007966Y029621D01*
X008059Y029396D01*
X008059Y029154D01*
X007966Y028929D01*
X007795Y028758D01*
X007570Y028665D01*
X007328Y028665D01*
X007259Y028693D01*
X007259Y028246D01*
X007348Y028283D01*
X007550Y028283D01*
X007737Y028206D01*
X007762Y028181D01*
X007786Y028206D01*
X007973Y028283D01*
X008175Y028283D01*
X008339Y028215D01*
X008339Y028396D01*
X008432Y028621D01*
X008586Y028775D01*
X008432Y028929D01*
X008339Y029154D01*
X008339Y029396D01*
X008432Y029621D01*
X008586Y029775D01*
X008432Y029929D01*
X008339Y030154D01*
X008339Y030396D01*
X008432Y030621D01*
X008586Y030775D01*
X008432Y030929D01*
X008339Y031154D01*
X008339Y031396D01*
X008432Y031621D01*
X008604Y031792D01*
X008828Y031885D01*
X009070Y031885D01*
X009295Y031792D01*
X009449Y031638D01*
X009604Y031792D01*
X009828Y031885D01*
X010070Y031885D01*
X010295Y031792D01*
X010449Y031638D01*
X010604Y031792D01*
X010828Y031885D01*
X011070Y031885D01*
X011295Y031792D01*
X011449Y031638D01*
X011604Y031792D01*
X011828Y031885D01*
X012070Y031885D01*
X012295Y031792D01*
X012449Y031638D01*
X012604Y031792D01*
X012828Y031885D01*
X013070Y031885D01*
X013295Y031792D01*
X013449Y031638D01*
X013604Y031792D01*
X013828Y031885D01*
X014070Y031885D01*
X014295Y031792D01*
X014449Y031638D01*
X014604Y031792D01*
X014828Y031885D01*
X015070Y031885D01*
X015295Y031792D01*
X015449Y031638D01*
X015604Y031792D01*
X015828Y031885D01*
X016070Y031885D01*
X016295Y031792D01*
X016449Y031638D01*
X016604Y031792D01*
X016828Y031885D01*
X016931Y031885D01*
X016931Y031941D01*
X017008Y032128D01*
X017151Y032271D01*
X017338Y032348D01*
X017540Y032348D01*
X017727Y032271D01*
X017870Y032128D01*
X017947Y031941D01*
X017947Y031835D01*
X017949Y031835D01*
X017949Y031275D01*
X017949Y031275D01*
X017949Y031835D01*
X017993Y031835D01*
X018080Y031821D01*
X018164Y031794D01*
X018185Y031783D01*
X018267Y031981D01*
X018493Y032207D01*
X018789Y032330D01*
X019109Y032330D01*
X019405Y032207D01*
X019631Y031981D01*
X019754Y031685D01*
X019754Y031365D01*
X019631Y031069D01*
X019629Y031066D01*
X019670Y031066D01*
X020030Y030918D01*
X020305Y030642D01*
X020454Y030283D01*
X020454Y029893D01*
X020305Y029534D01*
X020030Y029258D01*
X019670Y029109D01*
X019281Y029109D01*
X018921Y029258D01*
X018646Y029534D01*
X018497Y029893D01*
X018497Y030004D01*
X018466Y029929D01*
X018295Y029758D01*
X018258Y029743D01*
X018314Y029702D01*
X018376Y029640D01*
X018428Y029569D01*
X018468Y029490D01*
X018495Y029406D01*
X018509Y029319D01*
X018509Y029275D01*
X017949Y029275D01*
X017949Y029275D01*
X018509Y029275D01*
X018509Y029231D01*
X018495Y029144D01*
X018468Y029060D01*
X018428Y028981D01*
X018376Y028910D01*
X018314Y028848D01*
X018258Y028807D01*
X018295Y028792D01*
X018466Y028621D01*
X018559Y028396D01*
X018559Y028154D01*
X018466Y027929D01*
X018295Y027758D01*
X018070Y027665D01*
X018396Y027860D02*
X019107Y027860D01*
X019102Y028178D02*
X018559Y028178D01*
X018518Y028497D02*
X019308Y028497D01*
X019223Y029134D02*
X018492Y029134D01*
X018480Y029452D02*
X018728Y029452D01*
X018548Y029771D02*
X018307Y029771D01*
X018269Y028815D02*
X020179Y028815D01*
X020139Y029025D02*
X020696Y029025D01*
X020696Y029025D01*
X020139Y029025D01*
X020150Y029134D02*
X019728Y029134D01*
X020223Y029452D02*
X020336Y029452D01*
X020403Y029771D02*
X023745Y029771D01*
X023694Y030089D02*
X020454Y030089D01*
X020402Y030408D02*
X023746Y030408D01*
X023927Y030726D02*
X020221Y030726D01*
X019723Y031045D02*
X024425Y031045D01*
X024920Y031045D02*
X025214Y031045D01*
X025214Y031363D02*
X019753Y031363D01*
X019754Y031682D02*
X025214Y031682D01*
X025214Y032000D02*
X019612Y032000D01*
X019137Y032319D02*
X025214Y032319D01*
X025214Y032637D02*
X019450Y032637D01*
X018948Y032637D02*
X018450Y032637D01*
X018761Y032319D02*
X017612Y032319D01*
X017575Y032637D02*
X017948Y032637D01*
X017923Y032000D02*
X018286Y032000D01*
X017949Y031682D02*
X017949Y031682D01*
X017949Y031363D02*
X017949Y031363D01*
X017267Y032319D02*
X014099Y032319D01*
X014056Y032637D02*
X014193Y032637D01*
X013908Y032956D02*
X013871Y032956D01*
X014695Y032637D02*
X015193Y032637D01*
X015695Y032637D02*
X016073Y032637D01*
X016575Y032637D02*
X017073Y032637D01*
X016955Y032000D02*
X013915Y032000D01*
X013493Y031682D02*
X013405Y031682D01*
X013143Y032000D02*
X004562Y032000D01*
X004634Y032319D02*
X012959Y032319D01*
X012493Y031682D02*
X012405Y031682D01*
X011493Y031682D02*
X011405Y031682D01*
X010493Y031682D02*
X010405Y031682D01*
X009493Y031682D02*
X009405Y031682D01*
X009087Y032637D02*
X004503Y032637D01*
X004074Y032637D02*
X004074Y032637D01*
X004074Y032319D02*
X004074Y032319D01*
X004074Y032275D02*
X004074Y032275D01*
X003645Y032637D02*
X003575Y032637D01*
X003235Y031682D02*
X003928Y031682D01*
X003889Y031363D02*
X001309Y031363D01*
X001309Y031045D02*
X003889Y031045D01*
X003889Y030726D02*
X001309Y030726D01*
X001309Y030408D02*
X003268Y030408D01*
X003139Y030089D02*
X001309Y030089D01*
X001309Y029771D02*
X001745Y029771D01*
X001797Y029822D02*
X001574Y029599D01*
X001453Y029308D01*
X001453Y028992D01*
X001574Y028701D01*
X001797Y028478D01*
X002089Y028357D01*
X002404Y028357D01*
X002696Y028478D01*
X002919Y028701D01*
X003039Y028992D01*
X003039Y029308D01*
X002919Y029599D01*
X002696Y029822D01*
X002404Y029943D01*
X002089Y029943D01*
X001797Y029822D01*
X001513Y029452D02*
X001309Y029452D01*
X001309Y029134D02*
X001453Y029134D01*
X001527Y028815D02*
X001309Y028815D01*
X001309Y028497D02*
X001778Y028497D01*
X001309Y028178D02*
X003139Y028178D01*
X003139Y028497D02*
X002714Y028497D01*
X002966Y028815D02*
X003139Y028815D01*
X003139Y029134D02*
X003039Y029134D01*
X002980Y029452D02*
X003139Y029452D01*
X003139Y029771D02*
X002747Y029771D01*
X003340Y027860D02*
X001309Y027860D01*
X001309Y027541D02*
X005082Y027541D01*
X005098Y027223D02*
X001309Y027223D01*
X001309Y026904D02*
X005444Y026904D01*
X005704Y026904D02*
X011007Y026904D01*
X011039Y027223D02*
X006051Y027223D01*
X006066Y027541D02*
X006996Y027541D01*
X007259Y028497D02*
X008381Y028497D01*
X008546Y028815D02*
X007852Y028815D01*
X008051Y029134D02*
X008347Y029134D01*
X008362Y029452D02*
X008036Y029452D01*
X007816Y029771D02*
X008582Y029771D01*
X008366Y030089D02*
X007977Y030089D01*
X007914Y030408D02*
X008344Y030408D01*
X008537Y030726D02*
X006509Y030726D01*
X006509Y031045D02*
X008384Y031045D01*
X008339Y031363D02*
X006509Y031363D01*
X006470Y031682D02*
X008493Y031682D01*
X009014Y032956D02*
X001309Y032956D01*
X001309Y033274D02*
X009104Y033274D01*
X005514Y030089D02*
X004884Y030089D01*
X004884Y029771D02*
X005514Y029771D01*
X005514Y029452D02*
X004884Y029452D01*
X004884Y029134D02*
X005514Y029134D01*
X005514Y028815D02*
X004884Y028815D01*
X004884Y028497D02*
X005514Y028497D01*
X005514Y028178D02*
X004884Y028178D01*
X004683Y027860D02*
X005356Y027860D01*
X005981Y026586D02*
X011207Y026586D01*
X011941Y026586D02*
X013207Y026586D01*
X013251Y026542D02*
X013292Y026525D01*
X013251Y026508D01*
X013091Y026348D01*
X013004Y026138D01*
X013004Y025912D01*
X013091Y025702D01*
X013251Y025542D01*
X013461Y025455D01*
X013687Y025455D01*
X013897Y025542D01*
X014057Y025702D01*
X014144Y025912D01*
X014144Y026138D01*
X014057Y026348D01*
X013897Y026508D01*
X013856Y026525D01*
X013897Y026542D01*
X014008Y026653D01*
X014091Y026452D01*
X014251Y026292D01*
X014461Y026205D01*
X014687Y026205D01*
X014897Y026292D01*
X015057Y026452D01*
X015074Y026493D01*
X015091Y026452D01*
X015251Y026292D01*
X015461Y026205D01*
X015687Y026205D01*
X015897Y026292D01*
X016057Y026452D01*
X016086Y026522D01*
X016098Y026517D01*
X016300Y026517D01*
X016487Y026594D01*
X016630Y026737D01*
X016707Y026924D01*
X016707Y027126D01*
X016630Y027313D01*
X016487Y027456D01*
X016300Y027533D01*
X016098Y027533D01*
X015911Y027456D01*
X015768Y027313D01*
X015768Y027312D01*
X015687Y027345D01*
X015461Y027345D01*
X015251Y027258D01*
X015091Y027098D01*
X015074Y027057D01*
X015057Y027098D01*
X014897Y027258D01*
X014687Y027345D01*
X014461Y027345D01*
X014251Y027258D01*
X014140Y027147D01*
X014057Y027348D01*
X013897Y027508D01*
X013687Y027595D01*
X013461Y027595D01*
X013251Y027508D01*
X013091Y027348D01*
X013004Y027138D01*
X013004Y026912D01*
X013091Y026702D01*
X013251Y026542D01*
X013057Y026267D02*
X012091Y026267D01*
X012144Y025949D02*
X013004Y025949D01*
X013163Y025630D02*
X011985Y025630D01*
X012037Y024993D02*
X012111Y024993D01*
X012079Y024356D02*
X012069Y024356D01*
X011946Y023782D02*
X011865Y023795D01*
X011824Y023795D01*
X011783Y023795D01*
X011702Y023782D01*
X011624Y023757D01*
X011552Y023720D01*
X011485Y023672D01*
X011427Y023614D01*
X011379Y023548D01*
X011342Y023475D01*
X011317Y023397D01*
X011304Y023316D01*
X011304Y023275D01*
X011304Y023234D01*
X011317Y023153D01*
X011342Y023075D01*
X011379Y023002D01*
X011427Y022936D01*
X011485Y022878D01*
X011552Y022830D01*
X011624Y022793D01*
X011702Y022768D01*
X011783Y022755D01*
X011824Y022755D01*
X011824Y023275D01*
X011304Y023275D01*
X011824Y023275D01*
X011824Y023275D01*
X011824Y023275D01*
X011824Y023795D01*
X011824Y023275D01*
X011824Y023275D01*
X011824Y022755D01*
X011865Y022755D01*
X011946Y022768D01*
X012024Y022793D01*
X012078Y022821D01*
X012022Y022765D01*
X011970Y022694D01*
X011930Y022615D01*
X011903Y022531D01*
X011889Y022444D01*
X011889Y022400D01*
X011889Y022356D01*
X011903Y022269D01*
X011930Y022185D01*
X011970Y022106D01*
X012022Y022035D01*
X012084Y021973D01*
X012156Y021921D01*
X012234Y021881D01*
X012318Y021854D01*
X012405Y021840D01*
X012449Y021840D01*
X012449Y022400D01*
X011889Y022400D01*
X012449Y022400D01*
X012449Y022400D01*
X012449Y022960D01*
X012405Y022960D01*
X012318Y022946D01*
X012234Y022919D01*
X012172Y022887D01*
X012221Y022936D01*
X012269Y023002D01*
X012306Y023075D01*
X012331Y023153D01*
X012344Y023234D01*
X012344Y023275D01*
X011824Y023275D01*
X012344Y023275D01*
X012344Y023316D01*
X012331Y023397D01*
X012306Y023475D01*
X012269Y023548D01*
X012221Y023614D01*
X012163Y023672D01*
X012097Y023720D01*
X012024Y023757D01*
X011946Y023782D01*
X011824Y023719D02*
X011824Y023719D01*
X011551Y023719D02*
X011199Y023719D01*
X011199Y023401D02*
X011318Y023401D01*
X011340Y023082D02*
X011199Y023082D01*
X011199Y022764D02*
X011729Y022764D01*
X011824Y022764D02*
X011824Y022764D01*
X011919Y022764D02*
X012021Y022764D01*
X011889Y022445D02*
X011199Y022445D01*
X011199Y022127D02*
X011960Y022127D01*
X012449Y022127D02*
X012449Y022127D01*
X012449Y022400D02*
X012449Y021840D01*
X012493Y021840D01*
X012580Y021854D01*
X012664Y021881D01*
X012743Y021921D01*
X012814Y021973D01*
X012876Y022035D01*
X012928Y022106D01*
X012942Y022134D01*
X012966Y022077D01*
X013126Y021917D01*
X013336Y021830D01*
X013562Y021830D01*
X013772Y021917D01*
X013932Y022077D01*
X014019Y022287D01*
X014019Y022513D01*
X013939Y022706D01*
X014147Y022792D01*
X014307Y022952D01*
X014394Y023162D01*
X014394Y023388D01*
X014307Y023598D01*
X014147Y023758D01*
X013937Y023845D01*
X013711Y023845D01*
X013501Y023758D01*
X013341Y023598D01*
X013254Y023388D01*
X013254Y023162D01*
X013334Y022969D01*
X013126Y022883D01*
X012966Y022723D01*
X012942Y022666D01*
X012928Y022694D01*
X012876Y022765D01*
X012814Y022827D01*
X012743Y022879D01*
X012664Y022919D01*
X012580Y022946D01*
X012493Y022960D01*
X012449Y022960D01*
X012449Y022400D01*
X012449Y022400D01*
X012449Y022400D01*
X012449Y022445D02*
X012449Y022445D01*
X012449Y022764D02*
X012449Y022764D01*
X012308Y023082D02*
X013287Y023082D01*
X013259Y023401D02*
X012330Y023401D01*
X012098Y023719D02*
X013462Y023719D01*
X013944Y024356D02*
X013954Y024356D01*
X013986Y024993D02*
X013912Y024993D01*
X013985Y025630D02*
X014629Y025630D01*
X014629Y025638D02*
X014629Y025412D01*
X014716Y025202D01*
X014876Y025042D01*
X015086Y024955D01*
X015312Y024955D01*
X015522Y025042D01*
X015682Y025202D01*
X015769Y025412D01*
X015769Y025638D01*
X015682Y025848D01*
X015522Y026008D01*
X015312Y026095D01*
X015086Y026095D01*
X014876Y026008D01*
X014716Y025848D01*
X014629Y025638D01*
X014671Y025312D02*
X011199Y025312D01*
X010449Y024356D02*
X010380Y024356D01*
X010449Y024038D02*
X006011Y024038D01*
X006059Y024356D02*
X006519Y024356D01*
X006915Y024356D02*
X009983Y024356D01*
X009468Y024675D02*
X007430Y024675D01*
X007613Y024993D02*
X009286Y024993D01*
X009238Y025312D02*
X007660Y025312D01*
X007599Y025630D02*
X009299Y025630D01*
X010449Y023719D02*
X005868Y023719D01*
X006057Y023401D02*
X010449Y023401D01*
X010449Y023082D02*
X009563Y023082D01*
X009564Y023082D02*
X009477Y023096D01*
X009433Y023096D01*
X009389Y023096D01*
X009303Y023082D01*
X009220Y023055D01*
X009141Y023015D01*
X009071Y022964D01*
X009009Y022902D01*
X008975Y022855D01*
X008964Y022883D01*
X008793Y023053D01*
X008570Y023146D01*
X008328Y023146D01*
X008105Y023053D01*
X007957Y022905D01*
X007809Y023053D01*
X007586Y023146D01*
X007344Y023146D01*
X007121Y023053D01*
X006950Y022883D01*
X006858Y022659D01*
X006858Y022418D01*
X006950Y022195D01*
X007121Y022024D01*
X007344Y021932D01*
X007586Y021932D01*
X007809Y022024D01*
X007957Y022173D01*
X008105Y022024D01*
X008328Y021932D01*
X008570Y021932D01*
X008793Y022024D01*
X008964Y022195D01*
X008975Y022222D01*
X009009Y022176D01*
X009071Y022114D01*
X009141Y022063D01*
X009220Y022023D01*
X009303Y021996D01*
X009389Y021982D01*
X009433Y021982D01*
X009433Y022539D01*
X009433Y023096D01*
X009433Y022539D01*
X009433Y022539D01*
X009433Y022539D01*
X009990Y022539D01*
X009990Y022583D01*
X009976Y022669D01*
X009949Y022753D01*
X009910Y022831D01*
X009858Y022902D01*
X009796Y022964D01*
X009725Y023015D01*
X009647Y023055D01*
X009564Y023082D01*
X009433Y023082D02*
X009433Y023082D01*
X009304Y023082D02*
X008723Y023082D01*
X008175Y023082D02*
X007739Y023082D01*
X007191Y023082D02*
X006029Y023082D01*
X005823Y022764D02*
X006901Y022764D01*
X006858Y022445D02*
X006039Y022445D01*
X006048Y022127D02*
X007019Y022127D01*
X007126Y021758D02*
X006966Y021598D01*
X006879Y021388D01*
X006879Y021162D01*
X006966Y020952D01*
X007126Y020792D01*
X007336Y020705D01*
X007562Y020705D01*
X007772Y020792D01*
X007932Y020952D01*
X007949Y020993D01*
X007966Y020952D01*
X008126Y020792D01*
X008336Y020705D01*
X008562Y020705D01*
X008772Y020792D01*
X008932Y020952D01*
X009019Y021162D01*
X009019Y021388D01*
X008932Y021598D01*
X008772Y021758D01*
X008562Y021845D01*
X008336Y021845D01*
X008126Y021758D01*
X007966Y021598D01*
X007949Y021557D01*
X007932Y021598D01*
X007772Y021758D01*
X007562Y021845D01*
X007336Y021845D01*
X007126Y021758D01*
X007246Y021808D02*
X005845Y021808D01*
X006020Y021490D02*
X006921Y021490D01*
X006879Y021171D02*
X006059Y021171D01*
X005889Y020853D02*
X007065Y020853D01*
X007833Y020853D02*
X008065Y020853D01*
X008833Y020853D02*
X010449Y020853D01*
X010449Y021171D02*
X009019Y021171D01*
X008977Y021490D02*
X010449Y021490D01*
X010449Y021808D02*
X008652Y021808D01*
X008895Y022127D02*
X009058Y022127D01*
X009433Y022127D02*
X009433Y022127D01*
X009433Y021982D02*
X009477Y021982D01*
X009564Y021996D01*
X009647Y022023D01*
X009725Y022063D01*
X009796Y022114D01*
X009858Y022176D01*
X009910Y022247D01*
X009949Y022325D01*
X009976Y022408D01*
X009990Y022495D01*
X009990Y022539D01*
X009433Y022539D01*
X009433Y022539D01*
X009433Y021982D01*
X009809Y022127D02*
X010449Y022127D01*
X010449Y022445D02*
X009982Y022445D01*
X009944Y022764D02*
X010449Y022764D01*
X011199Y021808D02*
X016199Y021808D01*
X016199Y021490D02*
X015791Y021490D01*
X015772Y021508D02*
X015562Y021595D01*
X015336Y021595D01*
X015126Y021508D01*
X014966Y021348D01*
X014949Y021307D01*
X014932Y021348D01*
X014772Y021508D01*
X014562Y021595D01*
X014336Y021595D01*
X014126Y021508D01*
X013966Y021348D01*
X013949Y021307D01*
X013932Y021348D01*
X013772Y021508D01*
X013562Y021595D01*
X013336Y021595D01*
X013126Y021508D01*
X012966Y021348D01*
X012922Y021242D01*
X012894Y021298D01*
X012846Y021364D01*
X012788Y021422D01*
X012722Y021470D01*
X012649Y021507D01*
X012571Y021532D01*
X012490Y021545D01*
X012449Y021545D01*
X012408Y021545D01*
X012327Y021532D01*
X012249Y021507D01*
X012177Y021470D01*
X012110Y021422D01*
X012052Y021364D01*
X012004Y021298D01*
X011967Y021225D01*
X011942Y021147D01*
X011929Y021066D01*
X011929Y021025D01*
X011929Y020984D01*
X011942Y020903D01*
X011967Y020825D01*
X012004Y020752D01*
X012052Y020686D01*
X012110Y020628D01*
X012177Y020580D01*
X012249Y020543D01*
X012327Y020518D01*
X012408Y020505D01*
X012449Y020505D01*
X012449Y021025D01*
X011929Y021025D01*
X012449Y021025D01*
X012449Y021025D01*
X012449Y021545D01*
X012449Y021025D01*
X012449Y021025D01*
X012449Y021025D01*
X012449Y020505D01*
X012490Y020505D01*
X012571Y020518D01*
X012649Y020543D01*
X012722Y020580D01*
X012788Y020628D01*
X012846Y020686D01*
X012894Y020752D01*
X012922Y020808D01*
X012966Y020702D01*
X013126Y020542D01*
X013336Y020455D01*
X013562Y020455D01*
X013772Y020542D01*
X013932Y020702D01*
X013949Y020743D01*
X013966Y020702D01*
X014126Y020542D01*
X014336Y020455D01*
X014562Y020455D01*
X014772Y020542D01*
X014932Y020702D01*
X014949Y020743D01*
X014966Y020702D01*
X015126Y020542D01*
X015336Y020455D01*
X015562Y020455D01*
X015772Y020542D01*
X015932Y020702D01*
X016019Y020912D01*
X016019Y021138D01*
X015932Y021348D01*
X015772Y021508D01*
X015562Y021830D02*
X015772Y021917D01*
X015932Y022077D01*
X016019Y022287D01*
X016019Y022513D01*
X015932Y022723D01*
X015772Y022883D01*
X015562Y022970D01*
X015349Y022970D01*
X015522Y023042D01*
X015682Y023202D01*
X015769Y023412D01*
X015769Y023638D01*
X015682Y023848D01*
X015522Y024008D01*
X015312Y024095D01*
X015086Y024095D01*
X014876Y024008D01*
X014716Y023848D01*
X014629Y023638D01*
X014629Y023412D01*
X014716Y023202D01*
X014876Y023042D01*
X015086Y022955D01*
X015299Y022955D01*
X015126Y022883D01*
X014966Y022723D01*
X014879Y022513D01*
X014879Y022287D01*
X014966Y022077D01*
X015126Y021917D01*
X015336Y021830D01*
X015562Y021830D01*
X015953Y022127D02*
X016199Y022127D01*
X016199Y022445D02*
X016019Y022445D01*
X015892Y022764D02*
X016199Y022764D01*
X016199Y023082D02*
X015562Y023082D01*
X015764Y023401D02*
X016199Y023401D01*
X016199Y023719D02*
X015736Y023719D01*
X015451Y024038D02*
X016199Y024038D01*
X016199Y024356D02*
X014944Y024356D01*
X014947Y024038D02*
X011199Y024038D01*
X011824Y023401D02*
X011824Y023401D01*
X011824Y023275D02*
X011824Y023275D01*
X011824Y023082D02*
X011824Y023082D01*
X012877Y022764D02*
X013006Y022764D01*
X012945Y022127D02*
X012938Y022127D01*
X013107Y021490D02*
X012683Y021490D01*
X012449Y021490D02*
X012449Y021490D01*
X012215Y021490D02*
X011199Y021490D01*
X011199Y021171D02*
X011950Y021171D01*
X011958Y020853D02*
X011678Y020853D01*
X011886Y020534D02*
X012277Y020534D01*
X012449Y020534D02*
X012449Y020534D01*
X012621Y020534D02*
X013145Y020534D01*
X013753Y020534D02*
X014145Y020534D01*
X014753Y020534D02*
X015145Y020534D01*
X015753Y020534D02*
X016199Y020534D01*
X016199Y020216D02*
X011865Y020216D01*
X011599Y019897D02*
X016199Y019897D01*
X016199Y019579D02*
X011199Y019579D01*
X011199Y019260D02*
X016199Y019260D01*
X016199Y018942D02*
X011506Y018942D01*
X011849Y018623D02*
X016199Y018623D01*
X016199Y018305D02*
X015950Y018305D01*
X015932Y018348D02*
X015772Y018508D01*
X015562Y018595D01*
X015336Y018595D01*
X015126Y018508D01*
X014966Y018348D01*
X014949Y018307D01*
X014932Y018348D01*
X014772Y018508D01*
X014562Y018595D01*
X014336Y018595D01*
X014126Y018508D01*
X013966Y018348D01*
X013949Y018307D01*
X013932Y018348D01*
X013772Y018508D01*
X013562Y018595D01*
X013336Y018595D01*
X013126Y018508D01*
X012966Y018348D01*
X012949Y018307D01*
X012932Y018348D01*
X012772Y018508D01*
X012562Y018595D01*
X012336Y018595D01*
X012126Y018508D01*
X011966Y018348D01*
X011879Y018138D01*
X011879Y017912D01*
X011966Y017702D01*
X012126Y017542D01*
X012336Y017455D01*
X012562Y017455D01*
X012772Y017542D01*
X012932Y017702D01*
X012949Y017743D01*
X012966Y017702D01*
X013126Y017542D01*
X013336Y017455D01*
X013562Y017455D01*
X013772Y017542D01*
X013932Y017702D01*
X013949Y017743D01*
X013966Y017702D01*
X014126Y017542D01*
X014336Y017455D01*
X014562Y017455D01*
X014772Y017542D01*
X014932Y017702D01*
X014949Y017743D01*
X014966Y017702D01*
X015126Y017542D01*
X015336Y017455D01*
X015562Y017455D01*
X015772Y017542D01*
X015932Y017702D01*
X016019Y017912D01*
X016019Y018138D01*
X015932Y018348D01*
X016019Y017986D02*
X016199Y017986D01*
X016199Y017668D02*
X015898Y017668D01*
X015848Y017349D02*
X016199Y017349D01*
X015551Y017349D02*
X012848Y017349D01*
X012551Y017349D02*
X011814Y017349D01*
X012000Y017668D02*
X011524Y017668D01*
X011716Y017986D02*
X011879Y017986D01*
X011894Y018305D02*
X011948Y018305D01*
X011000Y017349D02*
X006004Y017349D01*
X005953Y017031D02*
X011319Y017031D01*
X011637Y016712D02*
X005875Y016712D01*
X006059Y016394D02*
X011956Y016394D01*
X012103Y017031D02*
X012169Y017031D01*
X012898Y017668D02*
X013000Y017668D01*
X013229Y017031D02*
X015169Y017031D01*
X015112Y016712D02*
X013286Y016712D01*
X013786Y015956D02*
X013643Y015813D01*
X013566Y015626D01*
X013566Y015424D01*
X013595Y015355D01*
X013536Y015331D01*
X013393Y015188D01*
X013316Y015001D01*
X013316Y014799D01*
X013393Y014612D01*
X013536Y014469D01*
X013723Y014392D01*
X013925Y014392D01*
X014112Y014469D01*
X014255Y014612D01*
X014332Y014799D01*
X014332Y015001D01*
X014304Y015070D01*
X014362Y015094D01*
X014505Y015237D01*
X014582Y015424D01*
X014582Y015626D01*
X014505Y015813D01*
X014362Y015956D01*
X014175Y016033D01*
X013973Y016033D01*
X013786Y015956D01*
X013620Y015757D02*
X011011Y015757D01*
X010981Y015829D02*
X011124Y015482D01*
X011124Y015107D01*
X010981Y014760D01*
X010716Y014495D01*
X010369Y014352D01*
X009994Y014352D01*
X009647Y014495D01*
X009382Y014760D01*
X009238Y015107D01*
X009238Y015482D01*
X009382Y015829D01*
X009647Y016094D01*
X009994Y016238D01*
X010369Y016238D01*
X010716Y016094D01*
X010981Y015829D01*
X010735Y016075D02*
X016163Y016075D01*
X015887Y015757D02*
X014528Y015757D01*
X014582Y015438D02*
X015774Y015438D01*
X015774Y015120D02*
X014387Y015120D01*
X014332Y014801D02*
X015900Y014801D01*
X016213Y014483D02*
X014125Y014483D01*
X014175Y014283D02*
X013973Y014283D01*
X013786Y014206D01*
X013643Y014063D01*
X013566Y013876D01*
X013566Y013674D01*
X013643Y013487D01*
X013786Y013344D01*
X013973Y013267D01*
X014175Y013267D01*
X014362Y013344D01*
X014505Y013487D01*
X014582Y013674D01*
X014582Y013876D01*
X014505Y014063D01*
X014362Y014206D01*
X014175Y014283D01*
X014404Y014164D02*
X022280Y014164D01*
X022294Y013846D02*
X016543Y013846D01*
X016336Y013209D02*
X025214Y013209D01*
X025214Y013527D02*
X025111Y013527D01*
X025214Y012253D02*
X023390Y012253D01*
X023434Y011935D02*
X025214Y011935D01*
X025214Y011616D02*
X023278Y011616D01*
X023371Y011298D02*
X024320Y011298D01*
X024254Y010979D02*
X023434Y010979D01*
X023322Y010661D02*
X024382Y010661D01*
X024338Y010342D02*
X023286Y010342D01*
X023384Y010025D02*
X022824Y010025D01*
X022824Y010025D01*
X023384Y010025D01*
X023384Y010024D02*
X024254Y010024D01*
X024340Y009705D02*
X023284Y009705D01*
X022824Y009705D02*
X022824Y009705D01*
X022824Y010024D02*
X022824Y010024D01*
X022364Y009705D02*
X020940Y009705D01*
X021019Y009387D02*
X025214Y009387D01*
X025214Y009068D02*
X020923Y009068D01*
X020906Y008750D02*
X021691Y008750D01*
X021359Y008431D02*
X021019Y008431D01*
X020947Y008113D02*
X021287Y008113D01*
X022270Y008750D02*
X025214Y008750D01*
X025214Y007476D02*
X022590Y007476D01*
X022597Y007794D02*
X023438Y007794D01*
X023353Y008113D02*
X022674Y008113D01*
X022602Y008431D02*
X023433Y008431D01*
X022674Y007157D02*
X025214Y007157D01*
X025214Y006839D02*
X024100Y006839D01*
X024087Y006844D02*
X023811Y006844D01*
X023556Y006738D01*
X023361Y006543D01*
X023255Y006288D01*
X023255Y006012D01*
X023361Y005757D01*
X023556Y005562D01*
X023811Y005456D01*
X024087Y005456D01*
X024342Y005562D01*
X024537Y005757D01*
X024643Y006012D01*
X024643Y006288D01*
X024537Y006543D01*
X024342Y006738D01*
X024087Y006844D01*
X023798Y006839D02*
X022609Y006839D01*
X022454Y006520D02*
X023351Y006520D01*
X023255Y006202D02*
X022577Y006202D01*
X022515Y005883D02*
X023309Y005883D01*
X023553Y005565D02*
X022563Y005565D01*
X022674Y005246D02*
X025214Y005246D01*
X025214Y004928D02*
X022633Y004928D01*
X022534Y004609D02*
X023533Y004609D01*
X023353Y004291D02*
X022674Y004291D01*
X022645Y003972D02*
X023390Y003972D01*
X023666Y003654D02*
X022434Y003654D01*
X023457Y003335D02*
X016487Y003335D01*
X016145Y002061D02*
X017084Y002061D01*
X016735Y001743D02*
X016476Y001743D01*
X016519Y001424D02*
X016629Y001424D01*
X016704Y001106D02*
X016336Y001106D01*
X017694Y001106D02*
X017704Y001106D01*
X016069Y004609D02*
X015471Y004609D01*
X015464Y004928D02*
X015848Y004928D01*
X015774Y005246D02*
X015559Y005246D01*
X015489Y005565D02*
X015808Y005565D01*
X014716Y006202D02*
X013682Y006202D01*
X013769Y006520D02*
X014629Y006520D01*
X014712Y006839D02*
X013686Y006839D01*
X012157Y008750D02*
X015756Y008750D01*
X015566Y009068D02*
X012338Y009068D01*
X012287Y009387D02*
X015622Y009387D01*
X016955Y010979D02*
X011497Y010979D01*
X011505Y010987D02*
X011582Y011174D01*
X011582Y011376D01*
X011505Y011563D01*
X011362Y011706D01*
X011175Y011783D01*
X010973Y011783D01*
X010786Y011706D01*
X010643Y011563D01*
X010566Y011376D01*
X010566Y011174D01*
X010643Y010987D01*
X010786Y010844D01*
X010973Y010767D01*
X011175Y010767D01*
X011362Y010844D01*
X011505Y010987D01*
X011582Y011298D02*
X016879Y011298D01*
X016984Y011616D02*
X011452Y011616D01*
X011598Y011892D02*
X011411Y011969D01*
X011268Y012112D01*
X011191Y012299D01*
X011191Y012501D01*
X011268Y012688D01*
X011411Y012831D01*
X011598Y012908D01*
X011800Y012908D01*
X011987Y012831D01*
X012130Y012688D01*
X012207Y012501D01*
X012207Y012299D01*
X012130Y012112D01*
X011987Y011969D01*
X011800Y011892D01*
X011598Y011892D01*
X011495Y011935D02*
X008576Y011935D01*
X008570Y011932D02*
X008793Y012024D01*
X008964Y012195D01*
X008975Y012222D01*
X009009Y012176D01*
X009071Y012114D01*
X009141Y012063D01*
X009220Y012023D01*
X009303Y011996D01*
X009389Y011982D01*
X009433Y011982D01*
X009433Y012539D01*
X009433Y013096D01*
X009389Y013096D01*
X009303Y013082D01*
X009220Y013055D01*
X009141Y013015D01*
X009071Y012964D01*
X009009Y012902D01*
X008975Y012855D01*
X008964Y012883D01*
X008793Y013053D01*
X008570Y013146D01*
X008328Y013146D01*
X008105Y013053D01*
X007957Y012905D01*
X007809Y013053D01*
X007586Y013146D01*
X007344Y013146D01*
X007121Y013053D01*
X006950Y012883D01*
X006858Y012659D01*
X006858Y012418D01*
X006950Y012195D01*
X007121Y012024D01*
X007344Y011932D01*
X007586Y011932D01*
X007809Y012024D01*
X007957Y012173D01*
X008105Y012024D01*
X008328Y011932D01*
X008570Y011932D01*
X008461Y011845D02*
X008687Y011845D01*
X008897Y011758D01*
X009057Y011598D01*
X009144Y011388D01*
X009144Y011162D01*
X009057Y010952D01*
X008897Y010792D01*
X008687Y010705D01*
X008461Y010705D01*
X008251Y010792D01*
X008091Y010952D01*
X008074Y010993D01*
X008057Y010952D01*
X007897Y010792D01*
X007687Y010705D01*
X007461Y010705D01*
X007251Y010792D01*
X007091Y010952D01*
X007004Y011162D01*
X007004Y011388D01*
X007091Y011598D01*
X007251Y011758D01*
X007461Y011845D01*
X007687Y011845D01*
X007897Y011758D01*
X008057Y011598D01*
X008074Y011557D01*
X008091Y011598D01*
X008251Y011758D01*
X008461Y011845D01*
X008322Y011935D02*
X007592Y011935D01*
X007338Y011935D02*
X005968Y011935D01*
X006059Y012253D02*
X006926Y012253D01*
X006858Y012572D02*
X005986Y012572D01*
X005927Y012890D02*
X006958Y012890D01*
X006059Y013209D02*
X010584Y013209D01*
X010626Y013167D02*
X010836Y013080D01*
X011062Y013080D01*
X011272Y013167D01*
X011432Y013327D01*
X011476Y013433D01*
X011504Y013377D01*
X011552Y013311D01*
X011610Y013253D01*
X011677Y013205D01*
X011749Y013168D01*
X011827Y013143D01*
X011908Y013130D01*
X011949Y013130D01*
X011949Y013650D01*
X011949Y013650D01*
X011949Y014170D01*
X011908Y014170D01*
X011827Y014157D01*
X011749Y014132D01*
X011677Y014095D01*
X011610Y014047D01*
X011552Y013989D01*
X011504Y013923D01*
X011476Y013867D01*
X011432Y013973D01*
X011272Y014133D01*
X011062Y014220D01*
X010836Y014220D01*
X010626Y014133D01*
X010466Y013973D01*
X010379Y013763D01*
X010379Y013537D01*
X010466Y013327D01*
X010626Y013167D01*
X010383Y013527D02*
X006005Y013527D01*
X005882Y013846D02*
X010413Y013846D01*
X010701Y014164D02*
X006059Y014164D01*
X006023Y014483D02*
X006213Y014483D01*
X005900Y014801D02*
X005838Y014801D01*
X005830Y015757D02*
X005887Y015757D01*
X006026Y016075D02*
X006163Y016075D01*
X007270Y016075D02*
X009628Y016075D01*
X009352Y015757D02*
X007546Y015757D01*
X007660Y015438D02*
X009238Y015438D01*
X009238Y015120D02*
X007660Y015120D01*
X007533Y014801D02*
X009365Y014801D01*
X009678Y014483D02*
X007220Y014483D01*
X008956Y012890D02*
X009000Y012890D01*
X009433Y012890D02*
X009433Y012890D01*
X009433Y013096D02*
X009433Y012539D01*
X009433Y012539D01*
X009433Y012539D01*
X009990Y012539D01*
X009990Y012583D01*
X009976Y012669D01*
X009949Y012753D01*
X009910Y012831D01*
X009858Y012902D01*
X009796Y012964D01*
X009725Y013015D01*
X009647Y013055D01*
X009564Y013082D01*
X009477Y013096D01*
X009433Y013096D01*
X009866Y012890D02*
X011554Y012890D01*
X011844Y012890D02*
X013929Y012890D01*
X013595Y012572D02*
X012178Y012572D01*
X012188Y012253D02*
X013585Y012253D01*
X013870Y011935D02*
X011903Y011935D01*
X011210Y012253D02*
X009913Y012253D01*
X009910Y012247D02*
X009949Y012325D01*
X009976Y012408D01*
X009990Y012495D01*
X009990Y012539D01*
X009433Y012539D01*
X009433Y012539D01*
X009433Y011982D01*
X009477Y011982D01*
X009564Y011996D01*
X009647Y012023D01*
X009725Y012063D01*
X009796Y012114D01*
X009858Y012176D01*
X009910Y012247D01*
X009990Y012572D02*
X011220Y012572D01*
X011314Y013209D02*
X011672Y013209D01*
X011949Y013209D02*
X011949Y013209D01*
X011949Y013130D02*
X011990Y013130D01*
X012071Y013143D01*
X012149Y013168D01*
X012222Y013205D01*
X012288Y013253D01*
X012346Y013311D01*
X012394Y013377D01*
X012431Y013450D01*
X012456Y013528D01*
X012469Y013609D01*
X012469Y013650D01*
X011949Y013650D01*
X011949Y013650D01*
X011949Y013130D01*
X012226Y013209D02*
X015812Y013209D01*
X015575Y013527D02*
X014521Y013527D01*
X014582Y013846D02*
X015605Y013846D01*
X017220Y014483D02*
X019678Y014483D01*
X019647Y014495D02*
X019994Y014352D01*
X020369Y014352D01*
X020716Y014495D01*
X020981Y014760D01*
X021124Y015107D01*
X021124Y015482D01*
X020981Y015829D01*
X020716Y016094D01*
X020369Y016238D01*
X019994Y016238D01*
X019647Y016094D01*
X019382Y015829D01*
X019238Y015482D01*
X019238Y015107D01*
X019382Y014760D01*
X019647Y014495D01*
X019365Y014801D02*
X017533Y014801D01*
X017660Y015120D02*
X019238Y015120D01*
X019238Y015438D02*
X017660Y015438D01*
X017546Y015757D02*
X019352Y015757D01*
X019628Y016075D02*
X017270Y016075D01*
X017199Y017668D02*
X017199Y017668D01*
X017199Y017986D02*
X017199Y017986D01*
X017199Y018305D02*
X017199Y018305D01*
X017199Y018623D02*
X017199Y018623D01*
X017199Y018942D02*
X017199Y018942D01*
X017199Y019260D02*
X017199Y019260D01*
X017065Y020853D02*
X016824Y020853D01*
X016824Y021171D02*
X016879Y021171D01*
X016921Y021490D02*
X016824Y021490D01*
X016824Y021808D02*
X017246Y021808D01*
X017019Y022127D02*
X016824Y022127D01*
X016824Y022445D02*
X016858Y022445D01*
X016824Y022764D02*
X016901Y022764D01*
X016824Y023082D02*
X017191Y023082D01*
X017739Y023082D02*
X018175Y023082D01*
X018723Y023082D02*
X019304Y023082D01*
X019433Y023082D02*
X019433Y023082D01*
X019433Y022764D02*
X019433Y022764D01*
X019433Y022445D02*
X019433Y022445D01*
X019433Y022127D02*
X019433Y022127D01*
X019058Y022127D02*
X018895Y022127D01*
X018246Y021808D02*
X017652Y021808D01*
X017911Y022127D02*
X018003Y022127D01*
X018065Y020853D02*
X017833Y020853D01*
X016199Y020853D02*
X015995Y020853D01*
X016006Y021171D02*
X016199Y021171D01*
X015107Y021490D02*
X014791Y021490D01*
X014945Y022127D02*
X013953Y022127D01*
X014019Y022445D02*
X014879Y022445D01*
X015006Y022764D02*
X014079Y022764D01*
X014361Y023082D02*
X014836Y023082D01*
X014634Y023401D02*
X014389Y023401D01*
X014186Y023719D02*
X014662Y023719D01*
X015019Y024675D02*
X016003Y024675D01*
X015821Y024993D02*
X015404Y024993D01*
X014994Y024993D02*
X014912Y024993D01*
X014816Y025949D02*
X014144Y025949D01*
X014091Y026267D02*
X014311Y026267D01*
X014036Y026586D02*
X013941Y026586D01*
X014109Y027223D02*
X014215Y027223D01*
X013818Y027541D02*
X019320Y027541D01*
X020078Y027541D02*
X020320Y027541D01*
X020441Y027223D02*
X016667Y027223D01*
X016699Y026904D02*
X020601Y026904D01*
X021297Y026904D02*
X022005Y026904D01*
X022078Y026586D02*
X016466Y026586D01*
X015837Y026267D02*
X022414Y026267D01*
X022178Y025949D02*
X021199Y025949D01*
X021199Y025630D02*
X022105Y025630D01*
X022195Y025312D02*
X021199Y025312D01*
X021199Y024993D02*
X022318Y024993D01*
X022062Y024675D02*
X021199Y024675D01*
X021199Y024356D02*
X022005Y024356D01*
X022098Y024038D02*
X021199Y024038D01*
X021199Y023719D02*
X022162Y023719D01*
X022005Y023401D02*
X021199Y023401D01*
X021199Y023082D02*
X022028Y023082D01*
X022229Y022764D02*
X021199Y022764D01*
X021199Y022445D02*
X022272Y022445D01*
X022105Y022127D02*
X021199Y022127D01*
X021091Y021808D02*
X022144Y021808D01*
X022414Y021490D02*
X020931Y021490D01*
X020772Y021171D02*
X022114Y021171D01*
X022005Y020853D02*
X021399Y020853D01*
X021320Y020885D02*
X021078Y020885D01*
X020854Y020792D01*
X020682Y020621D01*
X020589Y020396D01*
X020589Y020154D01*
X020682Y019929D01*
X020836Y019775D01*
X020682Y019621D01*
X020667Y019584D01*
X020626Y019640D01*
X020564Y019702D01*
X020493Y019754D01*
X020414Y019794D01*
X020330Y019821D01*
X020243Y019835D01*
X020199Y019835D01*
X020199Y019275D01*
X020199Y019275D01*
X020199Y019275D01*
X020199Y018275D01*
X020199Y018275D01*
X020199Y017715D01*
X020243Y017715D01*
X020330Y017729D01*
X020414Y017756D01*
X020493Y017796D01*
X020564Y017848D01*
X020626Y017910D01*
X020667Y017966D01*
X020682Y017929D01*
X020854Y017758D01*
X021078Y017665D01*
X021320Y017665D01*
X021545Y017758D01*
X021716Y017929D01*
X021809Y018154D01*
X021809Y018396D01*
X021716Y018621D01*
X021562Y018775D01*
X021716Y018929D01*
X021809Y019154D01*
X021809Y019396D01*
X021716Y019621D01*
X021562Y019775D01*
X021716Y019929D01*
X021809Y020154D01*
X021809Y020396D01*
X021716Y020621D01*
X021545Y020792D01*
X021320Y020885D01*
X021752Y020534D02*
X022048Y020534D01*
X022277Y020216D02*
X021809Y020216D01*
X021684Y019897D02*
X022050Y019897D01*
X022005Y019579D02*
X021734Y019579D01*
X021809Y019260D02*
X022110Y019260D01*
X022428Y018942D02*
X021721Y018942D01*
X021714Y018623D02*
X022147Y018623D01*
X022105Y018305D02*
X021809Y018305D01*
X021740Y017986D02*
X022266Y017986D01*
X022235Y017668D02*
X021326Y017668D01*
X021072Y017668D02*
X019949Y017668D01*
X019949Y017349D02*
X022030Y017349D01*
X022005Y017031D02*
X019949Y017031D01*
X020199Y017986D02*
X020199Y017986D01*
X020199Y018305D02*
X020199Y018305D01*
X020199Y018623D02*
X020199Y018623D01*
X020199Y018942D02*
X020199Y018942D01*
X020199Y019260D02*
X020199Y019260D01*
X020199Y019579D02*
X020199Y019579D01*
X020135Y019897D02*
X020714Y019897D01*
X020589Y020216D02*
X020294Y020216D01*
X020454Y020534D02*
X020646Y020534D01*
X020613Y020853D02*
X020999Y020853D01*
X020574Y024356D02*
X020380Y024356D01*
X021457Y027223D02*
X022082Y027223D01*
X022078Y027541D02*
X022320Y027541D01*
X022899Y029452D02*
X023021Y029452D01*
X023883Y029452D02*
X023925Y029452D01*
X024059Y029134D02*
X024420Y029134D01*
X024022Y028815D02*
X025214Y028815D01*
X025214Y028497D02*
X025003Y028497D01*
X024699Y028497D02*
X024699Y028497D01*
X024699Y028585D02*
X024699Y028025D01*
X024699Y028025D01*
X024699Y028585D01*
X024395Y028497D02*
X024090Y028497D01*
X024699Y028178D02*
X024699Y028178D01*
X024925Y029134D02*
X025214Y029134D01*
X025214Y032956D02*
X019735Y032956D01*
X019765Y033274D02*
X025214Y033274D01*
X021249Y029452D02*
X021056Y029452D01*
X020696Y029452D02*
X020696Y029452D01*
X020696Y029582D02*
X020696Y029025D01*
X020696Y029025D01*
X020696Y029582D01*
X020696Y029134D02*
X020696Y029134D01*
X020308Y028497D02*
X020090Y028497D01*
X017502Y027860D02*
X017396Y027860D01*
X016502Y027860D02*
X016396Y027860D01*
X015502Y027860D02*
X015396Y027860D01*
X015215Y027223D02*
X014933Y027223D01*
X014502Y027860D02*
X014396Y027860D01*
X013502Y027860D02*
X013396Y027860D01*
X013330Y027541D02*
X011818Y027541D01*
X012109Y027223D02*
X013039Y027223D01*
X013007Y026904D02*
X012141Y026904D01*
X012396Y027860D02*
X012502Y027860D01*
X011502Y027860D02*
X011396Y027860D01*
X011330Y027541D02*
X008527Y027541D01*
X009396Y027860D02*
X009502Y027860D01*
X010396Y027860D02*
X010502Y027860D01*
X009433Y022764D02*
X009433Y022764D01*
X009433Y022445D02*
X009433Y022445D01*
X008246Y021808D02*
X007652Y021808D01*
X007911Y022127D02*
X008003Y022127D01*
X006864Y019579D02*
X010499Y019579D01*
X010463Y019897D02*
X005934Y019897D01*
X005984Y019579D02*
X006034Y019579D01*
X006059Y020216D02*
X010449Y020216D01*
X010449Y020534D02*
X006002Y020534D01*
X006957Y019260D02*
X010534Y019260D01*
X010569Y018942D02*
X006834Y018942D01*
X006911Y018706D02*
X006768Y018563D01*
X006691Y018376D01*
X006691Y018174D01*
X006768Y017987D01*
X006911Y017844D01*
X007098Y017767D01*
X007300Y017767D01*
X007487Y017844D01*
X007630Y017987D01*
X007707Y018174D01*
X007707Y018376D01*
X007630Y018563D01*
X007487Y018706D01*
X007300Y018783D01*
X007098Y018783D01*
X006911Y018706D01*
X006828Y018623D02*
X005964Y018623D01*
X005971Y018942D02*
X006064Y018942D01*
X006059Y018305D02*
X006691Y018305D01*
X006769Y017986D02*
X005990Y017986D01*
X005848Y017668D02*
X010699Y017668D01*
X010676Y017986D02*
X007629Y017986D01*
X007707Y018305D02*
X010640Y018305D01*
X010605Y018623D02*
X007570Y018623D01*
X005449Y017275D02*
X005449Y017275D01*
X002023Y016712D02*
X001309Y016712D01*
X001309Y016394D02*
X001839Y016394D01*
X001872Y016075D02*
X001309Y016075D01*
X001309Y015757D02*
X002068Y015757D01*
X001856Y015438D02*
X001309Y015438D01*
X001309Y015120D02*
X001853Y015120D01*
X002060Y014801D02*
X001309Y014801D01*
X001309Y014483D02*
X001875Y014483D01*
X001839Y014164D02*
X001309Y014164D01*
X001309Y013846D02*
X002016Y013846D01*
X001893Y013527D02*
X001309Y013527D01*
X001309Y013209D02*
X001839Y013209D01*
X001971Y012890D02*
X001309Y012890D01*
X001309Y012572D02*
X001912Y012572D01*
X001839Y012253D02*
X001309Y012253D01*
X001309Y011935D02*
X001930Y011935D01*
X001309Y011616D02*
X006246Y011616D01*
X006652Y011616D02*
X007109Y011616D01*
X007004Y011298D02*
X006938Y011298D01*
X006928Y010979D02*
X007080Y010979D01*
X008068Y010979D02*
X008080Y010979D01*
X008109Y011616D02*
X008039Y011616D01*
X009039Y011616D02*
X010696Y011616D01*
X010566Y011298D02*
X009144Y011298D01*
X009068Y010979D02*
X010651Y010979D01*
X010604Y010342D02*
X005356Y010342D01*
X005179Y010024D02*
X010576Y010024D01*
X010674Y009705D02*
X005338Y009705D01*
X005361Y009387D02*
X010305Y009387D01*
X011572Y010024D02*
X022264Y010024D01*
X022362Y010342D02*
X011544Y010342D01*
X009433Y012253D02*
X009433Y012253D01*
X009433Y012572D02*
X009433Y012572D01*
X010685Y014483D02*
X013523Y014483D01*
X013316Y014801D02*
X010998Y014801D01*
X011124Y015120D02*
X013365Y015120D01*
X013566Y015438D02*
X011124Y015438D01*
X011198Y014164D02*
X011870Y014164D01*
X011949Y014164D02*
X011949Y014164D01*
X011949Y014170D02*
X011990Y014170D01*
X012071Y014157D01*
X012149Y014132D01*
X012222Y014095D01*
X012288Y014047D01*
X012346Y013989D01*
X012394Y013923D01*
X012431Y013850D01*
X012456Y013772D01*
X012469Y013691D01*
X012469Y013650D01*
X011949Y013650D01*
X011949Y014170D01*
X012028Y014164D02*
X013744Y014164D01*
X013566Y013846D02*
X012432Y013846D01*
X012456Y013527D02*
X013627Y013527D01*
X011949Y013527D02*
X011949Y013527D01*
X011949Y013650D02*
X011949Y013650D01*
X011949Y013846D02*
X011949Y013846D01*
X013898Y017668D02*
X014000Y017668D01*
X014898Y017668D02*
X015000Y017668D01*
X017632Y017668D02*
X017694Y017668D01*
X020735Y016075D02*
X022214Y016075D01*
X022275Y015757D02*
X021011Y015757D01*
X021124Y015438D02*
X022374Y015438D01*
X022214Y015120D02*
X021124Y015120D01*
X020998Y014801D02*
X022257Y014801D01*
X022501Y014483D02*
X020685Y014483D01*
X022824Y014025D02*
X022824Y014025D01*
X022824Y013846D02*
X022824Y013846D01*
X019958Y009705D02*
X019863Y009705D01*
X019836Y009068D02*
X019975Y009068D01*
X019992Y008750D02*
X018906Y008750D01*
X018923Y009068D02*
X019062Y009068D01*
X019035Y009705D02*
X018940Y009705D01*
X019019Y008431D02*
X019879Y008431D01*
X019951Y008113D02*
X018947Y008113D01*
X020927Y005883D02*
X021446Y005883D01*
X021398Y005565D02*
X021090Y005565D01*
X021124Y005246D02*
X021287Y005246D01*
X021328Y004928D02*
X021050Y004928D01*
X020829Y004609D02*
X021427Y004609D01*
X023941Y003335D02*
X024457Y003335D01*
X024650Y003654D02*
X024232Y003654D01*
X024941Y003335D02*
X025214Y003335D01*
X024518Y004609D02*
X024365Y004609D01*
X024345Y005565D02*
X025214Y005565D01*
X025214Y005883D02*
X024589Y005883D01*
X024643Y006202D02*
X025214Y006202D01*
X025214Y006520D02*
X024547Y006520D01*
X025211Y001424D02*
X025214Y001424D01*
X017955Y010979D02*
X017943Y010979D01*
X017914Y011616D02*
X017984Y011616D01*
X012449Y020853D02*
X012449Y020853D01*
X012449Y021171D02*
X012449Y021171D01*
X013791Y021490D02*
X014107Y021490D01*
X015728Y025312D02*
X015774Y025312D01*
X015769Y025630D02*
X015835Y025630D01*
X016037Y025949D02*
X015582Y025949D01*
X015311Y026267D02*
X014837Y026267D01*
X014493Y031682D02*
X014405Y031682D01*
X015405Y031682D02*
X015493Y031682D01*
X016405Y031682D02*
X016493Y031682D01*
X006003Y024675D02*
X005912Y024675D01*
X001986Y024675D02*
X001309Y024675D01*
X001309Y024993D02*
X001906Y024993D01*
X001839Y025312D02*
X001309Y025312D01*
X001309Y025630D02*
X001941Y025630D01*
X001917Y026586D02*
X001309Y026586D01*
X001309Y024356D02*
X001839Y024356D01*
X001887Y024038D02*
X001309Y024038D01*
X001309Y023719D02*
X002030Y023719D01*
X001841Y023401D02*
X001309Y023401D01*
X001309Y023082D02*
X001869Y023082D01*
X002075Y022764D02*
X001309Y022764D01*
X001309Y022445D02*
X001859Y022445D01*
X001850Y022127D02*
X001309Y022127D01*
X001309Y021808D02*
X002053Y021808D01*
X001878Y021490D02*
X001309Y021490D01*
X001309Y021171D02*
X001839Y021171D01*
X002009Y020853D02*
X001309Y020853D01*
X001309Y020534D02*
X001896Y020534D01*
X001839Y020216D02*
X001309Y020216D01*
X001309Y019897D02*
X001964Y019897D01*
X001915Y019579D02*
X001309Y019579D01*
X001309Y019260D02*
X001839Y019260D01*
X001927Y018942D02*
X001309Y018942D01*
X001309Y018623D02*
X001934Y018623D01*
X001839Y018305D02*
X001309Y018305D01*
X001309Y017986D02*
X001908Y017986D01*
X001979Y017668D02*
X001309Y017668D01*
X001309Y017349D02*
X001839Y017349D01*
X001890Y017031D02*
X001309Y017031D01*
X003137Y009068D02*
X004128Y009068D01*
X004115Y008750D02*
X003357Y008750D01*
X003393Y008431D02*
X004071Y008431D01*
X004237Y008113D02*
X003268Y008113D01*
X002240Y004609D02*
X002173Y004609D01*
X002561Y003719D02*
X002306Y003613D01*
X002111Y003418D01*
X002005Y003163D01*
X002005Y002887D01*
X002111Y002632D01*
X002306Y002437D01*
X002561Y002331D01*
X002837Y002331D01*
X003092Y002437D01*
X003287Y002632D01*
X003393Y002887D01*
X003393Y003163D01*
X003287Y003418D01*
X003092Y003613D01*
X002837Y003719D01*
X002561Y003719D01*
X002403Y003654D02*
X001309Y003654D01*
X001309Y003972D02*
X003974Y003972D01*
X004064Y003654D02*
X002995Y003654D01*
X003322Y003335D02*
X004151Y003335D01*
X004071Y003017D02*
X003393Y003017D01*
X003315Y002698D02*
X004158Y002698D01*
X004057Y002380D02*
X002954Y002380D01*
X002444Y002380D02*
X001309Y002380D01*
X001309Y002698D02*
X002083Y002698D01*
X002005Y003017D02*
X001309Y003017D01*
X001309Y003335D02*
X002076Y003335D01*
X001309Y002061D02*
X003974Y002061D01*
X004040Y001743D02*
X001309Y001743D01*
X002190Y001424D02*
X002223Y001424D01*
X003175Y001424D02*
X004069Y001424D01*
X003974Y001106D02*
X003295Y001106D01*
X003233Y000787D02*
X004028Y000787D01*
X005266Y001424D02*
X006051Y001424D01*
X006004Y001743D02*
X005295Y001743D01*
X005361Y002061D02*
X006179Y002061D01*
X006874Y002380D02*
X005278Y002380D01*
X005177Y002698D02*
X006874Y002698D01*
X006969Y002061D02*
X007084Y002061D01*
X007969Y002061D02*
X008069Y002061D01*
X008144Y001743D02*
X010254Y001743D01*
X010100Y001424D02*
X008548Y001424D01*
X008100Y001424D02*
X008097Y001424D01*
X008829Y002061D02*
X009144Y002061D01*
X009433Y002061D02*
X009433Y002061D01*
X009722Y002061D02*
X010429Y002061D01*
X009433Y002380D02*
X009433Y002380D01*
X009433Y002698D02*
X009433Y002698D01*
X009433Y003017D02*
X009433Y003017D01*
X009144Y003017D02*
X008830Y003017D01*
X008069Y003017D02*
X007845Y003017D01*
X009754Y001013D02*
X009754Y000787D01*
X002913Y031682D02*
X002235Y031682D01*
X001913Y031682D02*
X001309Y031682D01*
X001309Y032000D02*
X001528Y032000D01*
X001464Y032319D02*
X001309Y032319D01*
X001309Y032637D02*
X001573Y032637D01*
D21*
X003449Y030150D02*
X003574Y030150D01*
X004574Y030150D01*
X004574Y028275D01*
X004574Y028150D01*
X003449Y028150D01*
X003449Y030150D01*
X004199Y030400D02*
X004199Y031525D01*
X006199Y031525D01*
X006199Y030400D01*
X004199Y030400D01*
X005824Y030150D02*
X005824Y028150D01*
X006949Y028150D01*
X006949Y030150D01*
X005824Y030150D01*
M02*
