%
M48
M72
T01C0.0236
T02C0.0276
T03C0.0320
T04C0.0354
T05C0.0394
T06C0.0400
T07C0.0472
T08C0.0512
T09C0.0591
T10C0.0866
T11C0.0890
T12C0.0937
T13C0.1285
%
T01
X8699Y8400
X6449Y11150
X11074Y11275
X11074Y10150
X11574Y7900
X11699Y12400
X13824Y14900
X14074Y15525
X14074Y13775
X14074Y12400
X16074Y13650
X19449Y9400
X17824Y8775
X16824Y8525
X16074Y8025
X16074Y9150
X7199Y18275
X6449Y19275
X5574Y27400
X7449Y27775
X8074Y27775
X16199Y27025
X17949Y25650
X18949Y25025
X20949Y27275
X17439Y31840
T02
X7449Y30150
T03
X11574Y27025
X11574Y26025
X11574Y24650
X12574Y24650
X13449Y24650
X14449Y24650
X15199Y25525
X15574Y26775
X14574Y26775
X13574Y27025
X13574Y26025
X15199Y23525
X15449Y22400
X15449Y21025
X14449Y21025
X13449Y21025
X12449Y21025
X11324Y20400
X11324Y18400
X12449Y18025
X13449Y18025
X14449Y18025
X15449Y18025
X17449Y21275
X18449Y21275
X13824Y23275
X13449Y22400
X11824Y23275
X8449Y21275
X7449Y21275
X10949Y13650
X11949Y13650
X8574Y11275
X7574Y11275
X7574Y7900
X9574Y7900
X10824Y9150
X11824Y9150
X13199Y6525
X15199Y6525
X15949Y3525
X15949Y1525
X17199Y1400
X18199Y1400
X13949Y900
X11949Y900
X10824Y1650
X10324Y900
X8324Y900
X7574Y1650
X6574Y1650
X10824Y3650
X17449Y11275
X18449Y11275
X18449Y9400
X18449Y8400
X20449Y8400
X20449Y9400
X24824Y10025
X24824Y11025
X24824Y14025
X24824Y15025
X13529Y32420
X13529Y33420
X14444Y33150
X15444Y33150
X16324Y33150
X17324Y33150
X18199Y33150
X19199Y33150
T04
X15699Y16775
X12699Y16775
T05
X9433Y12539
X8449Y12539
X7465Y12539
X7465Y22539
X8449Y22539
X9433Y22539
X17465Y22539
X18449Y22539
X19433Y22539
X20696Y29025
X21680Y29025
X22468Y29025
X23452Y29025
X19433Y12539
X18449Y12539
X17465Y12539
X17465Y2539
X18449Y2539
X19433Y2539
X9433Y2539
X8449Y2539
X7465Y2539
T06
X11949Y2275
X11949Y3275
X11949Y4275
X11949Y5275
X12949Y5275
X12949Y4275
X12949Y3275
X12949Y2275
X13949Y2275
X13949Y3275
X13949Y4275
X13949Y5275
X14949Y5275
X14949Y4275
X14949Y3275
X14949Y2275
X22824Y10025
X22824Y11025
X22824Y12025
X22824Y14025
X22824Y15025
X22824Y16025
X22715Y18400
X21199Y18275
X21199Y19275
X21199Y20275
X20199Y19275
X20199Y18275
X18199Y18025
X18199Y19025
X17199Y19025
X17199Y18025
X12449Y22400
X11949Y28275
X10949Y28275
X10949Y29275
X10949Y30275
X10949Y31275
X11949Y31275
X11949Y30275
X11949Y29275
X12949Y29275
X12949Y28275
X13949Y28275
X13949Y29275
X13949Y30275
X13949Y31275
X12949Y31275
X12949Y30275
X14949Y30275
X14949Y29275
X14949Y28275
X15949Y28275
X15949Y29275
X15949Y30275
X15949Y31275
X14949Y31275
X16949Y31275
X16949Y30275
X16949Y29275
X16949Y28275
X17949Y28275
X17949Y29275
X17949Y30275
X17949Y31275
X19699Y28025
X20699Y28025
X21699Y28025
X22699Y28025
X23699Y28025
X24699Y28025
X24683Y25650
X22715Y25650
X22715Y22025
X24683Y22025
X24683Y18400
X24699Y2775
X24699Y1775
X23699Y1775
X23699Y2775
X5449Y12275
X5449Y13275
X5449Y14275
X5449Y15275
X5449Y16275
X5449Y17275
X5449Y18275
X5449Y19275
X5449Y20275
X5449Y21275
X5449Y22275
X5449Y23275
X5449Y24275
X5449Y25275
X5449Y26275
X4449Y26275
X4449Y25275
X4449Y24275
X4449Y23275
X4449Y22275
X4449Y21275
X4449Y20275
X4449Y19275
X4449Y18275
X4449Y17275
X4449Y16275
X4449Y15275
X4449Y14275
X4449Y13275
X4449Y12275
X3449Y12275
X2449Y12275
X2449Y13275
X2449Y14275
X2449Y15275
X2449Y16275
X2449Y17275
X2449Y18275
X2449Y19275
X2449Y20275
X2449Y21275
X2449Y22275
X2449Y23275
X2449Y24275
X2449Y25275
X2449Y26275
X3449Y26275
X3449Y25275
X3449Y24275
X3449Y23275
X3449Y22275
X3449Y21275
X3449Y20275
X3449Y19275
X3449Y18275
X3449Y17275
X3449Y16275
X3449Y15275
X3449Y14275
X3449Y13275
X8949Y28275
X8949Y29275
X8949Y30275
X8949Y31275
X9949Y31275
X9949Y30275
X9949Y29275
X9949Y28275
X7449Y29275
X9624Y32935
X10624Y32935
X11624Y32935
X12624Y32935
X4074Y32275
X3074Y32275
X2074Y32275
T07
X1715Y1056
X2699Y1056
X4668Y3025
X2699Y4994
X1715Y4994
X1715Y6556
X2699Y6556
X4668Y8525
X2699Y10494
X1715Y10494
X21981Y6150
X23949Y4181
X24933Y4181
X24933Y8119
X23949Y8119
T08
X23949Y6150
X21981Y5166
X21981Y4181
X21981Y7134
X21981Y8119
X22699Y17150
X24699Y17150
X24699Y19650
X24699Y20775
X22699Y20775
X22699Y19650
X22699Y23275
X22699Y24400
X24699Y24400
X24699Y23275
X24699Y26900
X22699Y26900
X4668Y10494
X4668Y9509
X4668Y7541
X4668Y6556
X4668Y4994
X4668Y4009
X4668Y2041
X4668Y1056
X2699Y3025
X2699Y8525
T09
X4018Y29150
X5199Y31000
X6380Y29150
T10
X6717Y25295
X10181Y25295
X16717Y25295
X20181Y25295
X20181Y15295
X16717Y15295
X10181Y15295
X6717Y15295
X6717Y5295
X10181Y5295
X16717Y5295
X20181Y5295
X2246Y29150
T11
X18949Y31525
T12
X19476Y30088
X24672Y30088
T13
X20949Y2275
M30
