G75*
%MOIN*%
%OFA0B0*%
%FSLAX24Y24*%
%IPPOS*%
%LPD*%
%AMOC8*
5,1,8,0,0,1.08239X$1,22.5*
%
%ADD10C,0.0000*%
D10*
X000949Y000150D02*
X000949Y033900D01*
X025574Y033900D01*
X025574Y000150D01*
X000949Y000150D01*
X006282Y028441D02*
X006479Y028441D01*
X006479Y028442D02*
X006496Y028443D01*
X006513Y028448D01*
X006528Y028455D01*
X006542Y028465D01*
X006554Y028477D01*
X006564Y028491D01*
X006571Y028506D01*
X006576Y028523D01*
X006577Y028540D01*
X006577Y029760D01*
X006576Y029777D01*
X006571Y029794D01*
X006564Y029809D01*
X006554Y029823D01*
X006542Y029835D01*
X006528Y029845D01*
X006513Y029852D01*
X006496Y029857D01*
X006479Y029858D01*
X006479Y029859D02*
X006282Y029859D01*
X006282Y029858D02*
X006265Y029857D01*
X006248Y029852D01*
X006233Y029845D01*
X006219Y029835D01*
X006207Y029823D01*
X006197Y029809D01*
X006190Y029794D01*
X006185Y029777D01*
X006184Y029760D01*
X006183Y029760D02*
X006183Y028540D01*
X006184Y028540D02*
X006185Y028523D01*
X006190Y028506D01*
X006197Y028491D01*
X006207Y028477D01*
X006219Y028465D01*
X006233Y028455D01*
X006248Y028448D01*
X006265Y028443D01*
X006282Y028442D01*
X005691Y030804D02*
X004707Y030804D01*
X004690Y030805D01*
X004673Y030810D01*
X004658Y030817D01*
X004644Y030827D01*
X004632Y030839D01*
X004622Y030853D01*
X004615Y030868D01*
X004610Y030885D01*
X004609Y030902D01*
X004609Y031138D01*
X004610Y031155D01*
X004615Y031172D01*
X004622Y031187D01*
X004632Y031201D01*
X004644Y031213D01*
X004658Y031223D01*
X004673Y031230D01*
X004690Y031235D01*
X004707Y031236D01*
X004707Y031237D02*
X005691Y031237D01*
X005691Y031236D02*
X005708Y031235D01*
X005725Y031230D01*
X005740Y031223D01*
X005754Y031213D01*
X005766Y031201D01*
X005776Y031187D01*
X005783Y031172D01*
X005788Y031155D01*
X005789Y031138D01*
X005790Y031138D02*
X005790Y030902D01*
X005789Y030902D02*
X005788Y030885D01*
X005783Y030868D01*
X005776Y030853D01*
X005766Y030839D01*
X005754Y030827D01*
X005740Y030817D01*
X005725Y030810D01*
X005708Y030805D01*
X005691Y030804D01*
X004215Y029642D02*
X004215Y028658D01*
X004214Y028658D02*
X004213Y028641D01*
X004208Y028624D01*
X004201Y028609D01*
X004191Y028595D01*
X004179Y028583D01*
X004165Y028573D01*
X004150Y028566D01*
X004133Y028561D01*
X004116Y028560D01*
X004116Y028559D02*
X003920Y028559D01*
X003920Y028560D02*
X003903Y028561D01*
X003886Y028566D01*
X003871Y028573D01*
X003857Y028583D01*
X003845Y028595D01*
X003835Y028609D01*
X003828Y028624D01*
X003823Y028641D01*
X003822Y028658D01*
X003821Y028658D02*
X003821Y029642D01*
X003822Y029642D02*
X003823Y029659D01*
X003828Y029676D01*
X003835Y029691D01*
X003845Y029705D01*
X003857Y029717D01*
X003871Y029727D01*
X003886Y029734D01*
X003903Y029739D01*
X003920Y029740D01*
X003920Y029741D02*
X004116Y029741D01*
X004116Y029740D02*
X004133Y029739D01*
X004150Y029734D01*
X004165Y029727D01*
X004179Y029717D01*
X004191Y029705D01*
X004201Y029691D01*
X004208Y029676D01*
X004213Y029659D01*
X004214Y029642D01*
M02*
